<svg xmlns="http://www.w3.org/2000/svg">
<defs>
<font id="Kangmas-Regular" horiz-adv-x="476" >
  <font-face 
    font-family="Kangmas"
    font-weight="400"
    font-stretch="normal"
    units-per-em="1000"
    panose-1="0 0 0 0 0 0 0 0 0 0"
    ascent="800"
    descent="-200"
    x-height="563"
    cap-height="700"
    bbox="-115 -248 954 900"
    underline-thickness="50"
    underline-position="-125"
    unicode-range="U+000D-FB04"
  />
<missing-glyph horiz-adv-x="463" 
d="M283 162v-80l-96 -21q15 -19 31.5 -29t39.5 -18q2 0 4 -0.5t3 -0.5q2 -1 3 -1q5 -1 10 -1h10q37 2 60 18t37.5 40.5t21.5 55t12 60.5q8 56 6.5 111.5t-10.5 110.5q-9 51 -24.5 100.5t-43.5 93.5q-20 33 -52.5 60t-73.5 30q-51 2 -85 -24.5t-55 -67t-31 -88t-12 -86.5
q-3 -60 4 -119.5t25 -116.5q7 -22 15.5 -43.5t21.5 -40.5q-1 1 -5 1t-6 1q-1 0 -5 0.5t-5 1.5q-20 32 -32.5 69.5t-20.5 72.5q-14 66 -15 133.5t13 133.5q7 33 20 65.5t33.5 58.5t48.5 42.5t66 16.5q44 0 79 -17t61.5 -45.5t45.5 -66t32 -78t20 -81t10 -76.5q5 -58 1.5 -117
t-23.5 -115q-8 -23 -21 -44.5t-33 -37.5q-18 -14 -39 -19t-44 -2q-56 7 -93 37.5t-59.5 74.5t-33 96t-13.5 100q0 -1 10.5 -2t10.5 -3q2 -30 7 -61.5t14 -62.5t22 -60t31 -53v34l28 3v2q-14 1 -22 11t-8 25t9 23.5t22 8.5q16 0 27 -11.5t13 -34.5h2l1 33h30zM226 598h-3v-48
h-42v93h42l16 -49h2v49h43v-93h-43zM284 533v-80l-103 -23v43l28 3v2q-14 1 -22 11t-8 25t9 23.5t22 8.5q16 0 27 -11.5t13 -34.5h2l1 33h31zM252 486q-5 14 -25 14q-9 0 -13 -3t-4 -6q0 -4 5 -7q2 -2 5 -2zM252 315q-12 0 -18.5 6t-9 15t-1 19t5.5 17l-2 1q-3 -2 -5 -6
q-6 -8 -6 -19q0 -10 4 -20q1 -4 3 -8l-33 -7q-11 14 -11 34q0 23 13.5 30.5t27.5 9.5v3h-39v38h103v-66q0 -26 -9 -36.5t-23 -10.5zM247 384q-3 -1 -4 -3q-5 -2 -5 -9q0 -8 7 -8q8 0 8 11v9h-6zM181 223h53v2l-53 12v14l53 11v3h-53v44h102v-52l-68 -12v-2l69 -12v-52h-103
v44zM252 115q-5 14 -25 14q-9 0 -13 -3t-4 -6q0 -4 5 -7q2 -2 5 -2z" />
    <glyph glyph-name="f_f" unicode="ff" horiz-adv-x="664" 
d="M230 492v-348q0 -22 7.5 -33.5t16 -20.5t16 -19.5t7.5 -29.5q0 -41 -50 -41h-157q-51 0 -51 41q0 19 7.5 29.5t16 19.5t16 20.5t7.5 33.5v348h-44q-31 0 -31 24v23q0 24 31 24h44q0 35 10.5 71t33.5 66t59 49t86 19q39 0 68 -10t47.5 -23.5t28 -28.5t9.5 -26
q0 -16 -8 -30.5t-20.5 -25.5t-28 -17t-30.5 -6q-20 0 -29.5 8.5t-14.5 26.5q-3 11 -7.5 23t-10 22t-12.5 16.5t-17 6.5q-11 0 -19.5 -12t-8.5 -36q0 -15 3 -31t8 -30q4 -17 10 -32h170q0 35 10.5 71t33.5 66t59 49t86 19q39 0 68 -10t47.5 -23.5t28 -28.5t9.5 -26
q0 -16 -8 -30.5t-20.5 -25.5t-28 -17t-30.5 -6q-20 0 -29.5 8.5t-14.5 26.5q-3 11 -7.5 23t-10 22t-12.5 16.5t-17 6.5q-11 0 -19.5 -12t-8.5 -36q0 -15 3 -31t8 -30q4 -17 10 -32h87q31 0 31 -24v-23q0 -24 -31 -24h-80v-348q0 -22 7.5 -33.5t16 -20.5t16 -19.5t7.5 -29.5
q0 -41 -50 -41h-157q-51 0 -51 41q0 19 7.5 29.5t16 19.5t16 20.5t7.5 33.5v348h-163z" />
    <glyph glyph-name="fi" unicode="fi" horiz-adv-x="603" 
d="M336 563q21 0 42.5 1t41.5 2.5t37 2.5t28 1q26 0 40 -10.5t14 -37.5v-378q0 -22 7.5 -33.5t16 -20.5t16 -19.5t7.5 -29.5q0 -41 -51 -41h-157q-50 0 -50 41q0 19 7.5 29.5t16 19.5t16 20.5t7.5 33.5v252q0 44 -10.5 70t-36.5 26h-98v-348q0 -22 7.5 -33.5t16 -20.5
t16 -19.5t7.5 -29.5q0 -41 -50 -41h-157q-51 0 -51 41q0 19 7.5 29.5t16 19.5t16 20.5t7.5 33.5v348h-44q-31 0 -31 24v23q0 24 31 24h44q0 46 14 83.5t42.5 64.5t71.5 42t100 15q46 0 82 -10t61 -25t38 -32t13 -31q0 -26 -24 -47.5t-63 -21.5q-26 0 -40.5 9t-23.5 26
q-18 35 -39 56.5t-48 21.5q-22 0 -35 -15t-13 -43q0 -12 3 -28t8 -30q4 -17 10 -35h113z" />
    <glyph glyph-name="fl" unicode="fl" horiz-adv-x="622" 
d="M22 492q-31 0 -31 24v23q0 24 31 24h44q0 35 12.5 71t38 66t64.5 49t93 19q48 0 81.5 -11.5t56.5 -27.5q20 14 45.5 23t46.5 9q25 0 39.5 -10.5t14.5 -38.5v-568q0 -22 7.5 -33.5t16 -20.5t16 -19.5t7.5 -29.5q0 -41 -51 -41h-156q-51 0 -51 41q0 19 7.5 29.5t16 19.5
t16 20.5t7.5 33.5v385q0 29 -8.5 61.5t-25.5 60t-42 45.5t-58 18q-24 0 -41 -15.5t-17 -42.5q0 -15 3 -31t8 -30q4 -17 10 -32h87q31 0 31 -24v-23q0 -24 -31 -24h-80v-348q0 -22 7.5 -33.5t16 -20.5t16 -19.5t7.5 -29.5q0 -41 -50 -41h-157q-51 0 -51 41q0 19 7.5 29.5
t16 19.5t16 20.5t7.5 33.5v348h-44z" />
    <glyph glyph-name="f_f_i" unicode="ffi" horiz-adv-x="930" 
d="M393 563q0 46 14 83.5t42.5 64.5t71.5 42t100 15q45 0 81 -10t61 -25t38 -32t13 -31q0 -13 -6.5 -25t-17.5 -22t-27 -16t-35 -6q-26 0 -41 9t-23 26q-19 35 -40 56.5t-48 21.5q-21 0 -34.5 -15t-13.5 -43q0 -12 3.5 -28t7.5 -30q5 -17 11 -35h112q21 0 42.5 1t41.5 2.5
t37 2.5t28 1q26 0 40 -10.5t14 -37.5v-378q0 -22 7.5 -33.5t16 -20.5t16 -19.5t7.5 -29.5q0 -41 -50 -41h-157q-51 0 -51 41q0 19 7.5 29.5t16 19.5t16 20.5t7.5 33.5v252q0 44 -10.5 70t-36.5 26h-97v-348q0 -22 7.5 -33.5t16 -20.5t16 -19.5t7.5 -29.5q0 -41 -51 -41h-156
q-51 0 -51 41q0 19 7.5 29.5t16 19.5t16 20.5t7.5 33.5v348h-163v-348q0 -22 7.5 -33.5t16 -20.5t16 -19.5t7.5 -29.5q0 -41 -50 -41h-157q-51 0 -51 41q0 19 7.5 29.5t16 19.5t16 20.5t7.5 33.5v348h-44q-31 0 -31 24v23q0 24 31 24h44q0 35 10.5 71t33.5 66t59 49t86 19
q39 0 68 -10t47.5 -23.5t28 -28.5t9.5 -26q0 -16 -8 -30.5t-20.5 -25.5t-28 -17t-30.5 -6q-20 0 -29.5 8.5t-14.5 26.5q-3 11 -7.5 23t-10 22t-12.5 16.5t-17 6.5q-11 0 -19.5 -12t-8.5 -36q0 -15 3 -31t8 -30q4 -17 10 -32h170z" />
    <glyph glyph-name="f_f_l" unicode="ffl" horiz-adv-x="949" 
d="M393 563q0 35 12.5 71t38 66t64.5 49t93 19q48 0 81.5 -11.5t56.5 -27.5q20 14 45.5 23t46.5 9q25 0 39.5 -10.5t14.5 -38.5v-568q0 -22 7.5 -33.5t16 -20.5t16 -19.5t7.5 -29.5q0 -41 -51 -41h-156q-51 0 -51 41q0 19 7.5 29.5t16 19.5t16 20.5t7.5 33.5v385
q0 29 -8.5 61.5t-25.5 60t-42 45.5t-58 18q-24 0 -41 -15.5t-17 -42.5q0 -15 3 -31t8 -30q4 -17 10 -32h87q31 0 31 -24v-23q0 -24 -31 -24h-80v-348q0 -22 7.5 -33.5t16 -20.5t16 -19.5t7.5 -29.5q0 -41 -50 -41h-157q-51 0 -51 41q0 19 7.5 29.5t16 19.5t16 20.5t7.5 33.5
v348h-163v-348q0 -22 7.5 -33.5t16 -20.5t16 -19.5t7.5 -29.5q0 -41 -50 -41h-157q-51 0 -51 41q0 19 7.5 29.5t16 19.5t16 20.5t7.5 33.5v348h-44q-31 0 -31 24v23q0 24 31 24h44q0 35 10.5 71t33.5 66t59 49t86 19q39 0 68 -10t47.5 -23.5t28 -28.5t9.5 -26
q0 -16 -8 -30.5t-20.5 -25.5t-28 -17t-30.5 -6q-20 0 -29.5 8.5t-14.5 26.5q-3 11 -7.5 23t-10 22t-12.5 16.5t-17 6.5q-11 0 -19.5 -12t-8.5 -36q0 -15 3 -31t8 -30q4 -17 10 -32h170z" />
    <glyph glyph-name="f_b" unicode="fb" horiz-adv-x="916" 
d="M394 529q0 29 -8.5 61.5t-25.5 60t-42 45.5t-58 18q-24 0 -41 -15.5t-17 -42.5q0 -15 3 -31t8 -30q4 -17 10 -32h87q31 0 31 -24v-23q0 -24 -31 -24h-80v-348q0 -22 7.5 -33.5t16 -20.5t16 -19.5t7.5 -29.5q0 -41 -50 -41h-157q-51 0 -51 41q0 19 7.5 29.5t16 19.5
t16 20.5t7.5 33.5v348h-44q-31 0 -31 24v23q0 24 31 24h44q0 35 12.5 71t38 66t64.5 49t93 19q48 0 81.5 -11.5t56.5 -27.5q20 14 45.5 23t46.5 9q25 0 39.5 -10.5t14.5 -38.5v-240q19 41 54 69.5t94 28.5q46 0 83 -20.5t63 -58t40 -90.5t14 -119t-14.5 -119.5t-41.5 -91
t-66 -58t-87 -20.5q-52 0 -89.5 22t-63.5 57q-9 -13 -22 -26t-28.5 -23.5t-31.5 -16.5t-31 -6q-16 0 -26.5 9.5t-10.5 31.5v488zM624 470q-19 0 -33 -16.5t-23.5 -45.5t-14 -69.5t-4.5 -87.5v-53q7 -31 20 -55q11 -20 29.5 -37.5t46.5 -17.5q49 0 68.5 52t9.5 147
q-10 94 -38.5 138.5t-60.5 44.5z" />
    <glyph glyph-name="f_h" unicode="fh" horiz-adv-x="923" 
d="M394 529q0 29 -8.5 61.5t-25.5 60t-42 45.5t-58 18q-24 0 -41 -15.5t-17 -42.5q0 -15 3 -31t8 -30q4 -17 10 -32h87q31 0 31 -24v-23q0 -24 -31 -24h-80v-348q0 -22 7.5 -33.5t16 -20.5t16 -19.5t7.5 -29.5q0 -41 -50 -41h-157q-51 0 -51 41q0 19 7.5 29.5t16 19.5
t16 20.5t7.5 33.5v348h-44q-31 0 -31 24v23q0 24 31 24h44q0 35 12.5 71t38 66t64.5 49t93 19q48 0 81.5 -11.5t56.5 -27.5q20 14 45.5 23t46.5 9q25 0 39.5 -10.5t14.5 -38.5v-273q10 27 24 51t34.5 42t47 28t60.5 10q38 0 64 -12.5t42 -33.5t23.5 -49t7.5 -60v-271
q0 -22 7.5 -33.5t16 -20.5t16 -19.5t7.5 -29.5q0 -41 -51 -41h-157q-50 0 -50 41q0 19 7.5 29.5t16 19.5t16 20.5t7.5 33.5v240q0 38 -10 55t-33 17q-26 0 -44.5 -19t-30 -49t-16.5 -66.5t-5 -70.5v-107q0 -22 7.5 -33.5t16 -20.5t16 -19.5t7.5 -29.5q0 -41 -51 -41h-156
q-51 0 -51 41q0 19 7.5 29.5t16 19.5t16 20.5t7.5 33.5v385z" />
    <glyph glyph-name="f_k" unicode="fk" horiz-adv-x="883" 
d="M394 529q0 29 -8.5 61.5t-25.5 60t-42 45.5t-58 18q-24 0 -41 -15.5t-17 -42.5q0 -15 3 -31t8 -30q4 -17 10 -32h87q31 0 31 -24v-23q0 -24 -31 -24h-80v-348q0 -22 7.5 -33.5t16 -20.5t16 -19.5t7.5 -29.5q0 -41 -50 -41h-157q-51 0 -51 41q0 19 7.5 29.5t16 19.5
t16 20.5t7.5 33.5v348h-44q-31 0 -31 24v23q0 24 31 24h44q0 35 12.5 71t38 66t64.5 49t93 19q48 0 81.5 -11.5t56.5 -27.5q20 14 45.5 23t46.5 9q25 0 39.5 -10.5t14.5 -38.5v-395l121 115q19 19 23.5 30t2.5 19.5t-7 17t-5 23.5q0 41 51 41h81q21 0 30.5 -11t9.5 -28
q0 -18 -9.5 -29t-26.5 -22.5t-40.5 -26t-52.5 -39.5l-46 -40l107 -223q9 -19 23 -30.5t26.5 -21.5t21.5 -21t9 -30q0 -41 -50 -41h-90q-25 0 -35 10.5t-20 30.5l-111 222l-13 -12v-107q0 -22 7.5 -33.5t16 -20.5t16 -19.5t7.5 -29.5q0 -41 -51 -41h-156q-51 0 -51 41
q0 19 7.5 29.5t16 19.5t16 20.5t7.5 33.5v385z" />
    <glyph glyph-name="f_t" unicode="ft" horiz-adv-x="690" 
d="M338 563q27 0 45 10t31.5 25.5t23.5 33t19.5 33t20 25.5t25.5 10q16 0 26 -9.5t10 -31.5v-96h80q31 0 31 -24v-23q0 -24 -31 -24h-80v-290q0 -46 10.5 -69.5t38.5 -23.5q17 0 26.5 8.5t16.5 19t14 19t17 8.5q9 0 13 -6t4 -15q0 -21 -9.5 -47.5t-29.5 -49t-49.5 -38
t-70.5 -15.5q-25 0 -51 8t-47 26.5t-34 50t-13 79.5v335h-145v-348q0 -22 7.5 -33.5t16 -20.5t16 -19.5t7.5 -29.5q0 -41 -50 -41h-157q-51 0 -51 41q0 19 7.5 29.5t16 19.5t16 20.5t7.5 33.5v348h-44q-31 0 -31 24v23q0 24 31 24h44q0 35 10.5 71t33.5 66t59 49t86 19
q39 0 68 -10t47.5 -23.5t28 -28.5t9.5 -26q0 -16 -8 -30.5t-20.5 -25.5t-28 -17t-30.5 -6q-20 0 -29.5 8.5t-14.5 26.5q-3 11 -7.5 23t-10 22t-12.5 16.5t-17 6.5q-11 0 -19.5 -12t-8.5 -36q0 -15 3 -31t8 -30q4 -17 10 -32h115z" />
    <glyph glyph-name=".notdef" horiz-adv-x="463" 
d="M283 162v-80l-96 -21q15 -19 31.5 -29t39.5 -18q2 0 4 -0.5t3 -0.5q2 -1 3 -1q5 -1 10 -1h10q37 2 60 18t37.5 40.5t21.5 55t12 60.5q8 56 6.5 111.5t-10.5 110.5q-9 51 -24.5 100.5t-43.5 93.5q-20 33 -52.5 60t-73.5 30q-51 2 -85 -24.5t-55 -67t-31 -88t-12 -86.5
q-3 -60 4 -119.5t25 -116.5q7 -22 15.5 -43.5t21.5 -40.5q-1 1 -5 1t-6 1q-1 0 -5 0.5t-5 1.5q-20 32 -32.5 69.5t-20.5 72.5q-14 66 -15 133.5t13 133.5q7 33 20 65.5t33.5 58.5t48.5 42.5t66 16.5q44 0 79 -17t61.5 -45.5t45.5 -66t32 -78t20 -81t10 -76.5q5 -58 1.5 -117
t-23.5 -115q-8 -23 -21 -44.5t-33 -37.5q-18 -14 -39 -19t-44 -2q-56 7 -93 37.5t-59.5 74.5t-33 96t-13.5 100q0 -1 10.5 -2t10.5 -3q2 -30 7 -61.5t14 -62.5t22 -60t31 -53v34l28 3v2q-14 1 -22 11t-8 25t9 23.5t22 8.5q16 0 27 -11.5t13 -34.5h2l1 33h30zM226 598h-3v-48
h-42v93h42l16 -49h2v49h43v-93h-43zM284 533v-80l-103 -23v43l28 3v2q-14 1 -22 11t-8 25t9 23.5t22 8.5q16 0 27 -11.5t13 -34.5h2l1 33h31zM252 486q-5 14 -25 14q-9 0 -13 -3t-4 -6q0 -4 5 -7q2 -2 5 -2zM252 315q-12 0 -18.5 6t-9 15t-1 19t5.5 17l-2 1q-3 -2 -5 -6
q-6 -8 -6 -19q0 -10 4 -20q1 -4 3 -8l-33 -7q-11 14 -11 34q0 23 13.5 30.5t27.5 9.5v3h-39v38h103v-66q0 -26 -9 -36.5t-23 -10.5zM247 384q-3 -1 -4 -3q-5 -2 -5 -9q0 -8 7 -8q8 0 8 11v9h-6zM181 223h53v2l-53 12v14l53 11v3h-53v44h102v-52l-68 -12v-2l69 -12v-52h-103
v44zM252 115q-5 14 -25 14q-9 0 -13 -3t-4 -6q0 -4 5 -7q2 -2 5 -2z" />
    <glyph glyph-name=".null" horiz-adv-x="0" 
 />
    <glyph glyph-name=".null" horiz-adv-x="0" 
 />
    <glyph glyph-name="uni000D" unicode="&#xd;" horiz-adv-x="250" 
 />
    <glyph glyph-name="space" unicode=" " horiz-adv-x="240" 
 />
    <glyph glyph-name="exclam" unicode="!" horiz-adv-x="244" 
d="M107 192q-24 0 -24 32q0 66 -6.5 122t-15 104.5t-15 91t-6.5 81.5q0 37 16 60.5t45 23.5h42q29 0 45 -23.5t16 -60.5q0 -39 -6.5 -81.5t-15 -91t-15 -104.5t-6.5 -122q0 -32 -24 -32h-30zM122 152q35 0 58 -20.5t23 -58.5t-23 -59t-58 -21t-58 21t-23 59t23 58.5t58 20.5
z" />
    <glyph glyph-name="quotedbl" unicode="&#x22;" horiz-adv-x="261" 
d="M80 700q15 0 23 -11.5t8 -30.5q0 -36 -6 -84.5t-8 -107.5q0 -10 -6.5 -16.5t-16.5 -6.5h-22q-9 0 -16 6.5t-7 16.5q-2 59 -8 107.5t-6 84.5q0 19 8 30.5t23 11.5h34zM215 700q14 0 22 -11.5t8 -30.5q0 -36 -5.5 -84.5t-7.5 -107.5q-1 -10 -7.5 -16.5t-16.5 -6.5h-21
q-10 0 -16.5 6.5t-7.5 16.5q-2 59 -8 107.5t-6 84.5q0 19 8.5 30.5t22.5 11.5h35z" />
    <glyph glyph-name="numbersign" unicode="#" horiz-adv-x="544" 
d="M501 542q31 0 27 -25l-5 -30q-4 -24 -36 -24h-57l-36 -204h57q31 0 27 -24l-5 -30q-4 -24 -36 -24h-57l-26 -150q-6 -31 -30 -31h-30q-24 0 -19 31l27 150h-123l-26 -150q-6 -31 -30 -31h-30q-24 0 -19 31l27 150h-58q-31 0 -27 24l6 30q4 24 35 24h57l36 204h-57
q-31 0 -27 24l5 30q4 25 36 25h57l23 127q5 31 29 31h30q25 0 19 -31l-22 -127h122l23 127q5 31 29 31h30q25 0 19 -31l-22 -127h57zM351 463h-122l-36 -204h122z" />
    <glyph glyph-name="dollar" unicode="$" horiz-adv-x="552" 
d="M315 445q36 -20 74.5 -42t70 -50t51.5 -64.5t20 -85.5q0 -38 -13.5 -73t-40.5 -63t-67.5 -47t-94.5 -25v-35q0 -32 -24 -32h-30q-24 0 -24 32v35q-50 5 -90.5 22t-68.5 39.5t-43 47.5t-15 46q0 20 8.5 35.5t22 26.5t31 17t35.5 6q29 0 39 -12.5t16 -35.5q8 -35 23.5 -62
t41.5 -41v206q-36 20 -73 41.5t-67.5 47t-50 58t-19.5 75.5q0 36 14 69t40.5 58.5t65.5 43t90 22.5v36q0 32 24 32h30q24 0 24 -32v-35q45 -5 83.5 -20.5t66.5 -36.5t43.5 -45t15.5 -46q0 -19 -8 -35t-21.5 -27t-31 -17t-35.5 -6q-29 0 -39 12.5t-16 35.5q-8 33 -22 57.5
t-36 37.5v-171zM198 561q0 -20 10.5 -36t28.5 -30v128q-17 -8 -28 -23.5t-11 -38.5zM315 77q20 9 32.5 28.5t12.5 48.5q0 25 -12 45.5t-33 38.5v-161z" />
    <glyph glyph-name="percent" unicode="%" horiz-adv-x="794" 
d="M363 519q0 -87 -47.5 -138t-131.5 -51t-131.5 51t-47.5 138t47.5 138t131.5 51t131.5 -51t47.5 -138zM594 700q14 0 15 -7.5t-7 -23.5l-339 -637q-17 -32 -41 -32h-23q-24 0 -7 32l339 637q16 31 41 31h22zM193 377q20 0 32.5 34t7.5 108q-5 73 -21.5 107t-36.5 34
t-32.5 -34t-7.5 -107q5 -74 21.5 -108t36.5 -34zM610 371q83 0 130.5 -51t47.5 -138t-47.5 -138t-130.5 -51q-84 0 -131.5 51t-47.5 138t47.5 138t131.5 51zM619 41q20 0 32 34t7 107q-5 74 -21.5 108t-36.5 34t-32 -34t-7 -108q5 -73 21.5 -107t36.5 -34z" />
    <glyph glyph-name="ampersand" unicode="&#x26;" horiz-adv-x="638" 
d="M544 144q12 -16 27 -27t29 -21.5t23.5 -23t9.5 -31.5q0 -41 -51 -41h-76q-25 0 -41 12t-29 29l-43 58q-13 -22 -30 -41t-40.5 -33.5t-53 -23t-68.5 -8.5q-46 0 -83 14.5t-63 40.5t-40.5 63.5t-14.5 82.5q0 39 12 72.5t33 59.5t50.5 44t63.5 25q-29 33 -53 69t-24 78
q0 32 13.5 61.5t41 52.5t69 37t96.5 14q52 0 93 -14t69 -35t42.5 -46t14.5 -47q0 -20 -8 -35.5t-21.5 -26.5t-31 -17t-36.5 -6q-29 0 -39 12t-15 35q-11 50 -29.5 76t-49.5 26q-21 0 -32.5 -15.5t-11.5 -36.5q0 -23 12.5 -46t27.5 -43l125 -167q10 24 22.5 46t28.5 38.5
t36.5 26t47.5 9.5q38 0 61.5 -31t23.5 -80q0 -33 -15 -51t-39 -18q-14 0 -23.5 3t-17.5 6.5t-16 6.5t-18 3q-24 0 -40 -28zM277 114q23 0 39.5 12.5t29.5 34.5l-122 162l-10 12l-10 12q-11 -15 -16.5 -43t-1.5 -73q5 -54 30.5 -85.5t60.5 -31.5z" />
    <glyph glyph-name="quotesingle" unicode="'" horiz-adv-x="126" 
d="M52 443q-9 0 -16 6.5t-7 16.5q-2 59 -8 107.5t-6 84.5q0 19 8 30.5t23 11.5h34q15 0 23 -11.5t8 -30.5q0 -36 -6 -84.5t-8 -107.5q0 -10 -7 -16.5t-16 -6.5h-22z" />
    <glyph glyph-name="parenleft" unicode="(" horiz-adv-x="253" 
d="M250 707q-18 -12 -36.5 -41t-34 -75.5t-25.5 -111t-10 -147.5t10 -147t25.5 -110.5t34 -76t36.5 -41.5q11 -6 6 -19l-8 -18q-3 -6 -9.5 -8t-12.5 1q-27 14 -64.5 44.5t-72 81t-59 123t-24.5 170.5t24.5 170.5t59 123.5t72 81.5t64.5 44.5q6 3 12.5 1t9.5 -9l8 -17
q2 -5 0.5 -11t-6.5 -9z" />
    <glyph glyph-name="parenright" unicode=")" horiz-adv-x="253" 
d="M27 752q27 -14 64.5 -44.5t72 -81.5t59 -123.5t24.5 -170.5t-24.5 -170.5t-59 -123t-72 -81t-64.5 -44.5q-6 -3 -12.5 -1t-9.5 8l-8 18q-5 13 6 19q18 12 36.5 41.5t34 76t25.5 110.5t10 147t-10 147.5t-25.5 111t-34 75.5t-36.5 41q-5 3 -6.5 9t0.5 11l8 17q3 7 9.5 9
t12.5 -1z" />
    <glyph glyph-name="asterisk" unicode="*" horiz-adv-x="289" 
d="M262 483q-6 -12 -18 -12q-7 0 -21 7q-11 6 -28 20.5t-31 28.5q5 -19 9 -41t4 -34q0 -32 -24 -32h-16q-24 0 -24 32q0 12 4 34t9 41q-14 -14 -31 -28.5t-28 -20.5q-14 -7 -21 -7q-12 0 -18 12l-8 14q-7 11 -3 20t18 17q11 6 32 13.5t40 12.5q-19 6 -40 13t-32 14
q-27 15 -15 36l8 14q6 12 18 12q7 0 21 -7q11 -6 28 -20.5t31 -28.5q-5 19 -9 41t-4 35q0 31 24 31h16q24 0 24 -31q0 -13 -4 -35t-9 -41q14 14 31 28.5t28 20.5q14 7 21 7q12 0 18 -12l8 -14q12 -21 -15 -36q-11 -7 -32 -14t-40 -13q19 -5 40 -12.5t32 -13.5q14 -8 18 -17
t-3 -20z" />
    <glyph glyph-name="plus" unicode="+" horiz-adv-x="431" 
d="M385 321q31 0 31 -25v-29q0 -25 -31 -25h-130v-129q0 -32 -24 -32h-30q-24 0 -24 32v129h-130q-31 0 -31 25v29q0 25 31 25h130v129q0 32 24 32h30q24 0 24 -32v-129h130z" />
    <glyph glyph-name="comma" unicode="," horiz-adv-x="192" 
d="M96 159q35 0 58 -21.5t23 -64.5q0 -37 -13 -68.5t-32.5 -54t-42 -35.5t-41.5 -13q-9 0 -15 4.5t-6 12.5q0 10 7.5 18.5t16 16.5t16 17t7.5 19q0 7 -9 12.5t-20.5 14t-20.5 23t-9 40.5q0 38 23 58.5t58 20.5z" />
    <glyph glyph-name="hyphen" unicode="-" horiz-adv-x="288" 
d="M46 242q-31 0 -31 25v30q0 24 31 24h195q32 0 32 -24v-30q0 -25 -32 -25h-195z" />
    <glyph glyph-name="period" unicode="." horiz-adv-x="192" 
d="M96 0q-35 0 -58 21t-23 59t23 58.5t58 20.5t58 -20.5t23 -58.5t-23 -59t-58 -21z" />
    <glyph glyph-name="slash" unicode="/" horiz-adv-x="360" 
d="M283 722q11 32 35 32h30q25 0 13 -32l-284 -780q-11 -31 -35 -31h-30q-25 0 -13 31z" />
    <glyph glyph-name="zero" unicode="0" horiz-adv-x="624" 
d="M312 707q71 0 128 -25.5t96.5 -72t60.5 -112.5t21 -147t-21 -147t-60.5 -112.5t-96.5 -72t-128 -25.5t-128 25.5t-96.5 72t-61 112.5t-21.5 147t21.5 147t61 112.5t96.5 72t128 25.5zM333 71q24 0 43.5 16.5t32 51t17.5 87t-1 124.5q-11 144 -49.5 211.5t-85.5 67.5
q-23 0 -42.5 -16.5t-32 -51t-17.5 -87t0 -124.5q6 -72 19 -124.5t31 -87t40 -51t45 -16.5z" />
    <glyph glyph-name="one" unicode="1" horiz-adv-x="308" 
d="M245 144q0 -22 7.5 -33.5t16 -20.5t16 -19.5t7.5 -29.5q0 -22 -14.5 -31.5t-39.5 -9.5h-164q-25 0 -39.5 9.5t-14.5 31.5q0 19 7.5 29.5t16 19.5t16 20.5t7.5 33.5v370q0 22 -7.5 31t-16 14.5t-16 12.5t-7.5 23q0 20 13.5 38.5t36 33.5t50.5 24t57 9q38 0 53 -17.5
t15 -44.5v-494z" />
    <glyph glyph-name="two" unicode="2" horiz-adv-x="546" 
d="M483 182q23 0 34.5 -15.5t6.5 -38.5l-14 -74q-5 -23 -13.5 -38.5t-34.5 -15.5h-391q-51 0 -51 41q0 49 23 94t58 87.5t75 83t75 80.5t58 79.5t23 80.5q0 39 -18 61t-50 22q-39 0 -59.5 -33t-33.5 -83q-5 -23 -15 -35t-39 -12q-18 0 -35.5 6t-31 17t-22 26.5t-8.5 35.5
q0 23 14.5 50t43 50.5t72 39.5t101.5 16q63 0 111.5 -17t81.5 -46t49.5 -67t16.5 -80q0 -57 -23.5 -99t-59.5 -74t-79.5 -56t-84 -45.5t-72 -42t-44.5 -45.5h233q22 0 34 7.5t21 16t19 16t29 7.5z" />
    <glyph glyph-name="three" unicode="3" horiz-adv-x="552" 
d="M297 417q52 3 95 -9.5t74 -38.5t48 -64t17 -86q0 -50 -18.5 -91.5t-52 -71.5t-81.5 -46.5t-107 -16.5q-61 0 -108 16t-79 40t-48.5 51t-16.5 49q0 20 8.5 35.5t22 26.5t31 17t35.5 6q29 0 39 -12t15 -35q6 -25 13.5 -46t19 -36.5t27.5 -24.5t40 -9q16 0 31 8t26 25t16 44
t0 65t-18 65t-31.5 44t-41.5 24.5t-48 7.5q-13 0 -23 8t-10 26q0 20 11 34t37 37l119 106h-159q-22 0 -33.5 -7.5t-21 -16t-19.5 -16t-29 -7.5q-23 0 -34.5 15.5t-6.5 38.5l14 74q5 23 13.5 38.5t34.5 15.5h369q50 0 50 -41q0 -26 -19 -46t-47 -45l-173 -152z" />
    <glyph glyph-name="four" unicode="4" horiz-adv-x="545" 
d="M493 263q32 0 32 -25v-30q0 -24 -32 -24h-23v-40q0 -22 7.5 -33.5t16 -20.5t16 -19.5t7.5 -29.5q0 -22 -14.5 -31.5t-39.5 -9.5h-164q-25 0 -39.5 9.5t-14.5 31.5q0 19 7.5 29.5t16 19.5t16 20.5t7.5 33.5v40h-255q-17 0 -24.5 8.5t-7.5 21.5q0 17 7.5 32t24.5 41
l229 372q14 23 27.5 32t38.5 9h84q25 0 39.5 -9.5t14.5 -31.5v-396h23zM292 263v301l-184 -301h184z" />
    <glyph glyph-name="five" unicode="5" horiz-adv-x="523" 
d="M246 467q59 0 106.5 -18.5t81 -50.5t51.5 -74t18 -90q0 -50 -16 -94t-47.5 -76.5t-78.5 -51.5t-110 -19q-61 0 -104.5 16t-71.5 40t-41.5 51t-13.5 49q0 20 8.5 35.5t22 26.5t31 17t35.5 6q29 0 39 -12t15 -35q6 -25 12 -46t14 -36.5t20.5 -24.5t31.5 -9q34 0 55 39.5
t11 116.5t-38.5 123.5t-78.5 46.5q-23 0 -42 -8t-36 -17.5t-32.5 -17.5t-31.5 -8q-17 0 -27 8t-7 33l31 272q3 22 13.5 31.5t35.5 9.5h338q23 0 32.5 -14.5t9.5 -39.5v-74q0 -25 -9.5 -39.5t-32.5 -14.5q-19 0 -29 7.5t-19 16t-20.5 16t-33.5 7.5h-218l-14 -132
q20 11 54.5 22.5t85.5 11.5z" />
    <glyph glyph-name="six" unicode="6" horiz-adv-x="546" 
d="M336 448q41 0 75.5 -15t60 -43.5t39.5 -69.5t14 -93t-16.5 -95t-47.5 -74t-75 -48t-98 -17q-61 0 -112 22t-88 64.5t-57.5 106t-20.5 146.5q0 80 17.5 148.5t52 118.5t86.5 79t121 29q50 0 90.5 -14.5t68.5 -36t43 -48t15 -50.5q0 -20 -8.5 -35.5t-22 -26.5t-31 -17
t-35.5 -6q-29 0 -38.5 12t-15.5 35q-13 50 -29 79.5t-50 29.5q-40 0 -61.5 -62.5t-19.5 -181.5q23 27 57.5 45t85.5 18zM296 71q11 0 21.5 9t18 27.5t11 46.5t1.5 66q-2 39 -11 66t-21 44t-26 24.5t-28 7.5q-23 0 -42 -24t-21 -61q6 -57 16 -96.5t23 -64t28 -35t30 -10.5z
" />
    <glyph glyph-name="seven" unicode="7" horiz-adv-x="459" 
d="M413 700q51 0 51 -41q0 -11 -3.5 -27.5t-8.5 -34.5t-10.5 -34.5l-9.5 -28.5l-172 -493q-7 -18 -14 -29.5t-31 -11.5h-97q-20 0 -23.5 10.5t5.5 30.5l241 524h-201q-22 0 -33.5 -7.5t-20.5 -16t-19 -16t-29 -7.5q-24 0 -35 15.5t-6 38.5l14 74q5 23 13.5 38.5t34.5 15.5
h354z" />
    <glyph glyph-name="eight" unicode="8" horiz-adv-x="555" 
d="M400 374q69 -22 107 -69t38 -113q0 -45 -18.5 -82t-53 -63t-84.5 -40t-112 -14t-111.5 14t-84 40t-53 63t-18.5 82q0 66 38 113t107 69q-59 20 -91 60.5t-32 96.5q0 81 65 128.5t180 47.5q57 0 103 -12.5t77.5 -35.5t48.5 -55.5t17 -72.5q0 -56 -32 -96.5t-91 -60.5z
M269 629q-25 0 -40.5 -26t-10.5 -82q4 -57 23.5 -83t44.5 -26t40.5 26t10.5 83q-5 56 -24 82t-44 26zM287 71q34 0 55 31.5t16 100.5q-5 68 -31 99.5t-60 31.5q-33 0 -54.5 -31.5t-16.5 -99.5q5 -69 31.5 -100.5t59.5 -31.5z" />
    <glyph glyph-name="nine" unicode="9" horiz-adv-x="546" 
d="M258 707q61 0 112 -22t87.5 -64.5t57 -106t20.5 -146.5q0 -79 -17 -148t-51.5 -119t-86.5 -79t-121 -29q-50 0 -90.5 14.5t-68.5 36t-43 48t-15 50.5q0 20 8 35.5t21.5 26.5t31 17t35.5 6q29 0 39 -12t16 -35q13 -50 29 -79.5t50 -29.5q40 0 61.5 62.5t19.5 181.5
q-23 -27 -57.5 -44.5t-85.5 -17.5q-41 0 -75.5 15t-60 43t-40 69t-14.5 93t17 95t48 74t75 48t98 17zM284 338q23 0 41.5 24t21.5 61q-6 57 -16 96.5t-23 64t-28 35t-31 10.5q-21 0 -38 -36t-13 -113q2 -39 10.5 -66t20.5 -44t26.5 -24.5t28.5 -7.5z" />
    <glyph glyph-name="colon" unicode=":" horiz-adv-x="192" 
d="M96 368q-35 0 -58 21t-23 59t23 58.5t58 20.5t58 -20.5t23 -58.5t-23 -59t-58 -21zM96 159q35 0 58 -20.5t23 -58.5t-23 -59t-58 -21t-58 21t-23 59t23 58.5t58 20.5z" />
    <glyph glyph-name="semicolon" unicode=";" horiz-adv-x="192" 
d="M96 368q-35 0 -58 21t-23 59t23 58.5t58 20.5t58 -20.5t23 -58.5t-23 -59t-58 -21zM96 159q35 0 58 -21.5t23 -64.5q0 -37 -13 -68.5t-32.5 -54t-42 -35.5t-41.5 -13q-9 0 -15 4.5t-6 12.5q0 10 7.5 18.5t16 16.5t16 17t7.5 19q0 7 -9 12.5t-20.5 14t-20.5 23t-9 40.5
q0 38 23 58.5t58 20.5z" />
    <glyph glyph-name="less" unicode="&#x3c;" horiz-adv-x="431" 
d="M415 492q0 -23 -31 -42l-292 -168l292 -169q31 -19 31 -42v-30q0 -14 -10 -14q-7 0 -21 8l-338 195q-31 17 -31 42v19q0 14 8 24t23 19l338 195q14 8 21 8q10 0 10 -15v-30z" />
    <glyph glyph-name="equal" unicode="=" horiz-adv-x="431" 
d="M385 386q31 0 31 -25v-30q0 -24 -31 -24h-338q-31 0 -31 24v30q0 25 31 25h338zM385 256q31 0 31 -24v-30q0 -24 -31 -24h-338q-31 0 -31 24v30q0 24 31 24h338z" />
    <glyph glyph-name="greater" unicode="&#x3e;" horiz-adv-x="431" 
d="M384 334q31 -19 31 -43v-19q0 -24 -31 -43l-338 -194q-14 -8 -21 -8q-10 0 -10 14v30q0 23 31 42l292 169l-292 168q-31 19 -31 42v30q0 14 10 14q7 0 21 -8z" />
    <glyph glyph-name="question" unicode="?" horiz-adv-x="455" 
d="M228 707q53 0 93 -13t68 -37t42 -57t14 -72q0 -41 -15 -71t-37.5 -53.5t-49 -43t-49 -40t-37.5 -43.5t-15 -53q0 -32 -24 -32h-30q-24 0 -24 32q0 47 8 79t20.5 56t26.5 43t26.5 39t20.5 44.5t8 60.5q0 39 -15.5 61t-38.5 22q-17 0 -28 -9t-17.5 -24.5t-10.5 -37
t-8 -45.5q-3 -23 -14 -35t-40 -12q-18 0 -35.5 6t-31 17t-22 26.5t-8.5 35.5q0 23 14.5 50t42.5 50.5t69.5 39.5t96.5 16zM203 152q35 0 58 -20.5t23 -58.5t-23 -59t-58 -21t-58 21t-23 59t23 58.5t58 20.5z" />
    <glyph glyph-name="at" unicode="@" horiz-adv-x="797" 
d="M722 594q46 -54 62 -127t0 -161q-6 -33 -22 -75t-44 -78.5t-67.5 -62t-91.5 -25.5q-30 0 -51.5 8.5t-35.5 22.5t-21.5 33t-9.5 41q-10 -21 -24.5 -40t-33 -33.5t-41.5 -23t-52 -8.5q-38 0 -66 17t-44 48.5t-20 76t6 99.5q9 55 29 99.5t48.5 76t64 48.5t75.5 17
q43 0 71 -18t44 -48q10 11 23 22t27.5 19.5t29 13.5t26.5 5q14 0 21 -8t4 -26l-39 -220q-11 -57 -2.5 -89t39.5 -32q19 0 34.5 12.5t27.5 32.5t20 45t11 50q10 76 -4.5 139.5t-50 109t-90.5 71t-126 25.5t-133.5 -25.5t-112 -71t-82 -109t-43.5 -139.5t3.5 -139.5t50.5 -109
t91 -71t126 -25.5q44 0 80 10t68 27q8 4 14.5 2t8.5 -9l5 -16q5 -15 -12 -24q-43 -19 -89 -29t-94 -10q-81 0 -146 27.5t-108 78.5q-46 54 -62 127t0 161q14 84 54.5 156t100.5 125t136.5 83t162.5 30q81 0 146 -27.5t108 -78.5zM366 149q16 0 30 14t26 38.5t22 58t17 72.5
l8 44q-2 26 -9 46q-6 17 -19 31.5t-36 14.5q-42 0 -65.5 -43.5t-29.5 -122.5q-6 -78 11.5 -115.5t44.5 -37.5z" />
    <glyph glyph-name="A" unicode="A" horiz-adv-x="634" 
d="M585 144q8 -22 17 -34.5t17 -22t13.5 -19.5t5.5 -27q0 -20 -13 -30.5t-33 -10.5h-165q-28 0 -41 9t-13 32q0 16 7 26t13.5 20.5t9 26.5t-7.5 44l-26 79h-212l-25 -79q-9 -29 -6.5 -45t9 -26.5t13.5 -20t7 -25.5q0 -23 -13.5 -32t-41.5 -9h-58q-20 0 -33.5 10.5
t-13.5 30.5q0 17 6 27t14 19.5t17 22t16 34.5l131 412q7 21 2.5 33t-12 21.5t-15 20t-7.5 28.5q0 20 13.5 30.5t33.5 10.5h161q26 0 37.5 -10.5t18.5 -30.5zM342 315l-82 244l-78 -244h160z" />
    <glyph glyph-name="B" unicode="B" horiz-adv-x="620" 
d="M20 41q0 19 7.5 29.5t16 19.5t16 20.5t7.5 33.5v412q0 22 -7.5 33.5t-16 20.5t-16 19.5t-7.5 29.5q0 22 14.5 31.5t39.5 9.5h255q57 0 102.5 -12.5t77 -35t48.5 -54.5t17 -71q0 -53 -35 -91.5t-101 -55.5q88 -17 130 -65.5t42 -119.5q0 -90 -64.5 -142.5t-188.5 -52.5
h-283q-25 0 -39.5 9.5t-14.5 31.5zM394 516q-5 27 -17.5 47t-29.5 33t-36 19.5t-37 6.5q-12 0 -20.5 -10.5t-8.5 -30.5v-171h62q44 0 70.5 26t16.5 80zM342 78q44 0 70.5 31t16.5 96q-4 33 -16.5 57t-29.5 39.5t-37.5 23t-40.5 7.5h-60v-188q0 -27 12 -46.5t34 -19.5h51z
" />
    <glyph glyph-name="C" unicode="C" horiz-adv-x="566" 
d="M301 -7q-65 0 -119.5 25.5t-93.5 72t-61 112.5t-22 147t24.5 147t67.5 112.5t100 72t123 25.5q55 0 98 -17t72.5 -42.5t45 -55.5t15.5 -55q0 -20 -8.5 -35.5t-22 -26.5t-31 -17t-35.5 -6q-29 0 -39.5 12t-14.5 35q-11 60 -32.5 95t-59.5 35q-24 0 -45.5 -16t-37.5 -45
t-25.5 -70t-9.5 -92q0 -80 15 -135t40.5 -89.5t58 -50t66.5 -15.5q46 0 71.5 16t40.5 35t24.5 35t23.5 16q19 0 19 -23q0 -32 -15 -67.5t-46 -65.5t-77.5 -49.5t-109.5 -19.5z" />
    <glyph glyph-name="D" unicode="D" horiz-adv-x="643" 
d="M20 41q0 19 7.5 29.5t16 19.5t16 20.5t7.5 33.5v412q0 22 -7.5 33.5t-16 20.5t-16 19.5t-7.5 29.5q0 22 14.5 31.5t39.5 9.5h232q74 0 134.5 -24.5t104.5 -70.5t68 -110.5t24 -144.5t-23.5 -144.5t-66.5 -110.5t-104.5 -70.5t-136.5 -24.5h-232q-25 0 -39.5 9.5
t-14.5 31.5zM444 350q-6 70 -24 121.5t-42.5 85t-53.5 49.5t-56 16q-11 0 -19.5 -10.5t-8.5 -30.5l4 -437q0 -27 12 -46.5t34 -19.5h25q31 0 57 16t44 49.5t26 85t2 121.5z" />
    <glyph glyph-name="E" unicode="E" horiz-adv-x="535" 
d="M20 41q0 19 7.5 29.5t16 19.5t16 20.5t7.5 33.5v412q0 22 -7.5 33.5t-16 20.5t-16 19.5t-7.5 29.5q0 22 14.5 31.5t39.5 9.5h385q25 0 39.5 -9.5t14.5 -31.5v-30q0 -25 -9.5 -39.5t-31.5 -14.5q-19 0 -29 7.5t-19 16t-21 16t-34 7.5h-95q-12 0 -20.5 -10.5t-8.5 -30.5
v-185h89q22 0 33.5 7.5t20.5 16t19 16t29 7.5q23 0 32 -14.5t9 -39.5v-64q0 -25 -9 -39.5t-32 -14.5q-19 0 -29 7.5t-19 16t-20.5 16t-33.5 7.5h-89v-174q0 -27 12 -46.5t34 -19.5h65q27 0 42 11t27 23.5t24.5 23.5t34.5 11q23 0 31 -14t3 -37l-7 -45q-4 -23 -15.5 -37
t-39.5 -14h-382q-25 0 -39.5 9.5t-14.5 31.5z" />
    <glyph glyph-name="F" unicode="F" horiz-adv-x="514" 
d="M20 41q0 19 7.5 29.5t16 19.5t16 20.5t7.5 33.5v412q0 22 -7.5 33.5t-16 20.5t-16 19.5t-7.5 29.5q0 22 14.5 31.5t39.5 9.5h385q25 0 39.5 -9.5t14.5 -31.5v-30q0 -25 -9.5 -39.5t-31.5 -14.5q-19 0 -29 7.5t-19 16t-21 16t-34 7.5h-95q-12 0 -20.5 -10.5t-8.5 -30.5
v-192h89q22 0 33.5 7.5t20.5 16t19 16t29 7.5q23 0 32 -14.5t9 -39.5v-64q0 -25 -9 -39.5t-32 -14.5q-19 0 -29 7.5t-19 16t-20.5 16t-33.5 7.5h-89v-167q0 -22 7.5 -33.5t16 -20.5t16 -19.5t7.5 -29.5q0 -22 -14.5 -31.5t-39.5 -9.5h-164q-25 0 -39.5 9.5t-14.5 31.5z" />
    <glyph glyph-name="G" unicode="G" horiz-adv-x="630" 
d="M566 350q25 0 39.5 -9.5t14.5 -31.5q0 -19 -7.5 -29.5t-16 -19.5t-16 -20.5t-7.5 -33.5v-165q0 -22 -14.5 -31.5t-39.5 -9.5h-34q-29 0 -40.5 10.5t-14.5 30.5l-4 33q-18 -32 -55 -56.5t-98 -24.5q-57 0 -106 24t-84.5 69t-56 109.5t-20.5 146.5q0 88 24 156t66.5 114.5
t100 70.5t124.5 24q56 0 102.5 -17t79.5 -42.5t51.5 -55.5t18.5 -55q0 -20 -8.5 -35.5t-22 -26.5t-31 -17t-35.5 -6q-29 0 -39.5 12t-14.5 35q-11 60 -40 95t-74 35q-26 0 -49 -16t-39.5 -45t-26 -70t-9.5 -92q0 -80 13.5 -135t35.5 -89.5t50.5 -50t57.5 -15.5
q20 0 34.5 7.5t23 19.5t12 26t1.5 26l-1 11q-3 23 -13 34.5t-21.5 20t-20 19t-8.5 29.5q0 22 14.5 31.5t39.5 9.5h164z" />
    <glyph glyph-name="H" unicode="H" horiz-adv-x="683" 
d="M20 41q0 19 7.5 29.5t16 19.5t16 20.5t7.5 33.5v412q0 22 -7.5 33.5t-16 20.5t-16 19.5t-7.5 29.5q0 22 14.5 31.5t39.5 9.5h164q25 0 39.5 -9.5t14.5 -31.5q0 -19 -7.5 -29.5t-16 -19.5t-16 -20.5t-7.5 -33.5v-165h193v165q0 22 -7.5 33.5t-16 20.5t-16 19.5t-7.5 29.5
q0 22 14.5 31.5t39.5 9.5h164q25 0 39.5 -9.5t14.5 -31.5q0 -19 -7.5 -29t-16 -19.5t-16 -21t-7.5 -33.5v-412q0 -22 7.5 -33.5t16 -20.5t16 -19.5t7.5 -29.5q0 -22 -14.5 -31.5t-39.5 -9.5h-164q-25 0 -39.5 9.5t-14.5 31.5q0 19 7.5 29.5t16 19.5t16 20.5t7.5 33.5v169
h-193v-169q0 -22 7.5 -33.5t16 -20.5t16 -19.5t7.5 -29.5q0 -22 -14.5 -31.5t-39.5 -9.5h-164q-25 0 -39.5 9.5t-14.5 31.5z" />
    <glyph glyph-name="I" unicode="I" horiz-adv-x="313" 
d="M292 659q0 -19 -7.5 -29t-16 -19.5t-16 -21t-7.5 -33.5v-412q0 -22 7.5 -33.5t16 -20.5t16 -19.5t7.5 -29.5q0 -22 -14.5 -31.5t-39.5 -9.5h-164q-25 0 -39.5 9.5t-14.5 31.5q0 19 7.5 29.5t16 19.5t16 20.5t7.5 33.5v412q0 22 -7.5 33.5t-16 20.5t-16 19.5t-7.5 29.5
q0 22 14.5 31.5t39.5 9.5h164q25 0 39.5 -9.5t14.5 -31.5z" />
    <glyph glyph-name="J" unicode="J" horiz-adv-x="525" 
d="M218 -7q-54 0 -95.5 17.5t-70 43t-43 55t-14.5 54.5q0 20 8.5 36t22 27t31 17t35.5 6q29 0 39.5 -12.5t14.5 -35.5q11 -60 25.5 -95t45.5 -35q36 0 51.5 30.5t15.5 102.5v352q0 22 -7 33.5t-16 20.5t-16 19.5t-7 29.5q0 22 14.5 31.5t39.5 9.5h163q26 0 40.5 -9.5
t14.5 -31.5q0 -19 -7.5 -29t-16 -19.5t-16 -21t-7.5 -33.5v-296q0 -77 -20 -128.5t-54 -82t-78.5 -43.5t-92.5 -13z" />
    <glyph glyph-name="K" unicode="K" horiz-adv-x="637" 
d="M74 0q-25 0 -39.5 9.5t-14.5 31.5q0 19 7.5 29t16 19.5t16 21t7.5 33.5v412q0 22 -7.5 33.5t-16 20.5t-16 19.5t-7.5 29.5q0 22 14.5 31.5t39.5 9.5h164q25 0 39.5 -9.5t14.5 -31.5q0 -19 -7.5 -29.5t-16 -19.5t-16 -20.5t-7.5 -33.5v-134l162 142q25 22 29 33.5t-1.5 20
t-14 17.5t-8.5 24q0 41 51 41h111q20 0 29.5 -11t9.5 -28q0 -16 -7 -26t-21 -21t-35.5 -27t-51.5 -43l-104 -94l162 -306q11 -21 25.5 -32.5t28 -21t22.5 -20t9 -29.5q0 -41 -50 -41h-123q-26 0 -40.5 12t-22.5 29l-141 291l-19 -17v-171q0 -22 7.5 -33.5t16 -20.5t16 -19.5
t7.5 -29.5q0 -22 -14.5 -31.5t-39.5 -9.5h-164z" />
    <glyph glyph-name="L" unicode="L" horiz-adv-x="516" 
d="M20 41q0 19 7.5 29.5t16 19.5t16 20.5t7.5 33.5v412q0 22 -7.5 33.5t-16 20.5t-16 19.5t-7.5 29.5q0 22 14.5 31.5t39.5 9.5h164q25 0 39.5 -9.5t14.5 -31.5q0 -19 -7.5 -29.5t-16 -19.5t-16 -20.5t-7.5 -33.5v-412q0 -27 12 -46.5t34 -19.5h65q27 0 42 11t27 23.5
t25 23.5t35 11q23 0 30.5 -14t3.5 -37l-7 -46q-5 -23 -16.5 -36.5t-39.5 -13.5h-382q-25 0 -39.5 9.5t-14.5 31.5z" />
    <glyph glyph-name="M" unicode="M" horiz-adv-x="804" 
d="M747 144q2 -22 10 -33.5t16 -20.5t14.5 -19.5t6.5 -29.5q0 -22 -14.5 -31.5t-39.5 -9.5h-157q-25 0 -39.5 9.5t-14.5 31.5q0 19 7 29.5t15 19.5t14 20.5t4 33.5l-37 345l-118 -458q-10 -41 -60 -41q-49 0 -60 41l-123 457l-36 -344q-2 -22 4 -33.5t14 -20.5t15 -19.5
t7 -29.5q0 -22 -14.5 -31.5t-39.5 -9.5h-57q-25 0 -39.5 9.5t-14.5 31.5q0 19 6.5 29.5t15 19.5t16 20.5t9.5 33.5l43 412q2 22 -3.5 33.5t-13.5 20.5t-15 19.5t-7 29.5q0 22 14.5 31.5t39.5 9.5h140q25 0 38 -9t19 -32l90 -366l92 366q6 23 19 32t38 9h137q26 0 40.5 -9.5
t14.5 -31.5q0 -19 -7 -29.5t-15 -19.5t-14 -20.5t-3 -33.5z" />
    <glyph glyph-name="N" unicode="N" horiz-adv-x="644" 
d="M624 659q0 -19 -7.5 -29t-16 -19.5t-16 -21t-7.5 -33.5v-412q0 -22 7.5 -33.5t16 -20.5t16 -19.5t7.5 -29.5q0 -22 -14.5 -31.5t-39.5 -9.5h-129q-25 0 -35.5 10.5t-20.5 30.5l-238 452v-349q0 -22 7.5 -33.5t16 -20.5t16 -19.5t7.5 -29.5q0 -22 -14.5 -31.5t-39.5 -9.5
h-66q-25 0 -39.5 9.5t-14.5 31.5q0 19 7.5 29.5t16 19.5t16 20.5t7.5 33.5v412q0 22 -7.5 33.5t-16 20.5t-16 19.5t-7.5 29.5q0 22 14.5 31.5t39.5 9.5h129q25 0 35.5 -10.5t20.5 -30.5l238 -453v350q0 22 -7.5 33.5t-16 20.5t-16 19.5t-7.5 29.5q0 22 14.5 31.5t39.5 9.5
h66q25 0 39.5 -9.5t14.5 -31.5z" />
    <glyph glyph-name="O" unicode="O" horiz-adv-x="645" 
d="M5 350q0 81 22 147t63 112.5t100 72t132 25.5q74 0 132.5 -25.5t99.5 -72t63 -112.5t22 -147t-22 -147t-63 -112.5t-99.5 -72t-132.5 -25.5q-73 0 -132 25.5t-100 72t-63 112.5t-22 147zM446 350q-6 72 -20 124.5t-34 87t-43.5 51t-49.5 16.5t-47 -16.5t-35 -51
t-19.5 -87t0.5 -124.5q13 -144 54.5 -211.5t93.5 -67.5q26 0 47 16.5t34.5 51t19 87t-0.5 124.5z" />
    <glyph glyph-name="P" unicode="P" horiz-adv-x="589" 
d="M589 487q0 -48 -16.5 -87.5t-48 -67.5t-77 -43t-104.5 -15h-98v-130q0 -22 7.5 -33.5t16 -20.5t16 -19.5t7.5 -29.5q0 -22 -14.5 -31.5t-39.5 -9.5h-164q-25 0 -39.5 9.5t-14.5 31.5q0 19 7.5 29.5t16 19.5t16 20.5t7.5 33.5v412q0 22 -7.5 33.5t-16 20.5t-16 19.5
t-7.5 29.5q0 22 14.5 31.5t39.5 9.5h269q57 0 102.5 -15t77.5 -43t49 -67.5t17 -87.5zM321 352q51 0 74 38t13 97q-5 29 -16.5 53.5t-28 42.5t-37 28.5t-43.5 10.5q-38 0 -38 -41v-164q0 -27 12 -46t34 -19h30z" />
    <glyph glyph-name="Q" unicode="Q" horiz-adv-x="650" 
d="M639 350q0 -73 -17.5 -133t-50.5 -105.5t-80 -74.5t-107 -39q3 -14 14 -20.5t28 -9.5t39 -3h47q51 0 51 -58q0 -37 -23.5 -65t-65.5 -28q-25 0 -54 8t-54.5 28t-43 55t-18.5 88q-70 3 -125.5 30t-94 73.5t-59 110.5t-20.5 143q0 81 22 147t63 112.5t100 72t132 25.5
q74 0 132.5 -25.5t99.5 -72t63 -112.5t22 -147zM346 71q26 0 47 16.5t34.5 51t19 87t-0.5 124.5t-20 124.5t-34 87t-43.5 51t-49.5 16.5t-47 -16.5t-35 -51t-19.5 -87t0.5 -124.5q13 -144 54.5 -211.5t93.5 -67.5z" />
    <glyph glyph-name="R" unicode="R" horiz-adv-x="627" 
d="M544 144q14 -21 29.5 -32.5t28 -21t21 -20t8.5 -29.5q0 -41 -50 -41h-102q-26 0 -40 12.5t-24 28.5l-137 233h-33v-130q0 -22 7.5 -33.5t16 -20.5t16 -19.5t7.5 -29.5q0 -22 -14.5 -31.5t-39.5 -9.5h-164q-25 0 -39.5 9.5t-14.5 31.5q0 19 7.5 29.5t16 19.5t16 20.5
t7.5 33.5v412q0 22 -7.5 33.5t-16 20.5t-16 19.5t-7.5 29.5q0 22 14.5 31.5t39.5 9.5h269q57 0 102.5 -15t77.5 -43t49 -67.5t17 -87.5q0 -75 -36 -125.5t-104 -72.5zM408 487q-5 29 -16.5 53.5t-28 42.5t-37 28.5t-43.5 10.5q-38 0 -38 -41v-164q0 -27 12 -46t34 -19h30
q51 0 74 38t13 97z" />
    <glyph glyph-name="S" unicode="S" horiz-adv-x="552" 
d="M202 560q0 -30 24.5 -53.5t61 -45t79 -44.5t79 -52.5t61 -68.5t24.5 -93q0 -42 -16 -80t-48.5 -67t-81 -46t-113.5 -17q-58 0 -104.5 16t-79.5 39.5t-50.5 51t-17.5 49.5q0 20 8.5 35.5t22 26.5t31 17t35.5 6q29 0 39 -12t15 -35q13 -50 39.5 -83t74.5 -33q32 0 51.5 22
t19.5 61q0 36 -24.5 63t-61 50.5t-79 46.5t-79 51t-61 63.5t-24.5 83.5q0 40 16.5 75.5t49 62t79.5 42t107 15.5q52 0 97 -14.5t78 -36t51.5 -48t18.5 -50.5q0 -20 -8.5 -35.5t-22 -26.5t-31 -17t-35.5 -6q-29 0 -39 12t-15 35q-13 50 -38 79.5t-69 29.5q-29 0 -46.5 -18.5
t-17.5 -50.5z" />
    <glyph glyph-name="T" unicode="T" horiz-adv-x="582" 
d="M532 700q25 0 40 -9.5t15 -31.5v-30q0 -25 -9.5 -39.5t-32.5 -14.5q-19 0 -29 7.5t-19 16t-20.5 16t-33.5 7.5h-63v-478q0 -22 7.5 -33.5t16 -20.5t16 -19.5t7.5 -29.5q0 -22 -14.5 -31.5t-39.5 -9.5h-164q-25 0 -39.5 9.5t-14.5 31.5q0 19 7.5 29.5t16 19.5t16 20.5
t7.5 33.5v478h-63q-22 0 -33.5 -7.5t-20.5 -16t-19.5 -16t-29.5 -7.5q-22 0 -31.5 14.5t-9.5 39.5v30q0 22 14.5 31.5t39.5 9.5h483z" />
    <glyph glyph-name="U" unicode="U" horiz-adv-x="649" 
d="M580 700q25 0 39.5 -9.5t14.5 -31.5q0 -19 -7.5 -29t-16 -19.5t-16 -21t-7.5 -33.5v-350q0 -48 -18 -87.5t-51 -67t-80 -43t-105 -15.5q-61 0 -111.5 15t-85.5 43t-54.5 67t-19.5 88v350q0 22 -7.5 33.5t-16 20.5t-16 19.5t-7.5 29.5q0 22 14.5 31.5t39.5 9.5h164
q25 0 39.5 -9.5t14.5 -31.5q0 -19 -7.5 -29.5t-16 -19.5t-16 -20.5t-7.5 -33.5v-329q0 -30 8.5 -55.5t25.5 -44.5t43 -30t60 -11q33 0 57.5 10.5t40.5 29t24 43t8 51.5v336q0 22 -7.5 33.5t-16 20.5t-16 19.5t-7.5 29.5q0 22 14.5 31.5t40.5 9.5h65z" />
    <glyph glyph-name="V" unicode="V" horiz-adv-x="634" 
d="M592 700q20 0 33 -10.5t13 -30.5q0 -16 -5.5 -26t-14 -20t-17.5 -22.5t-16 -34.5l-163 -515q-7 -20 -19 -30.5t-37 -10.5h-88q-25 0 -36.5 10.5t-18.5 30.5l-175 515q-7 22 -16 34.5t-17.5 22.5t-14 20t-5.5 26q0 20 13.5 30.5t33.5 10.5h165q28 0 41.5 -9t13.5 -32
q0 -16 -7 -25.5t-14 -20.5t-9 -26.5t7 -44.5l135 -400l122 400q9 29 6.5 45t-8.5 26.5t-13 20t-7 25.5q0 23 13 32t41 9h64z" />
    <glyph glyph-name="W" unicode="W" horiz-adv-x="949" 
d="M907 700q20 0 33.5 -10.5t13.5 -30.5q0 -16 -6 -26t-14 -20t-17.5 -22.5t-15.5 -34.5l-150 -515q-6 -20 -18 -30.5t-37 -10.5h-84q-25 0 -37 10.5t-19 30.5l-69 243l-82 -243q-7 -20 -18.5 -30.5t-36.5 -10.5h-86q-25 0 -37 10.5t-19 30.5l-160 515q-7 22 -16 34.5
t-17 22.5t-14 20t-6 26q0 20 13.5 30.5t33.5 10.5h163q28 0 41.5 -9t13.5 -32q0 -16 -7 -25.5t-13.5 -20.5t-9 -26.5t6.5 -44.5l122 -396l90 275l-39 135q-6 22 -15 34.5t-17.5 22.5t-14.5 20t-6 26q0 20 13.5 30.5t33.5 10.5h161q28 0 41.5 -9t13.5 -32q0 -16 -6.5 -25.5
t-13 -20t-9 -26.5t5.5 -45l108 -387l109 387q8 29 5.5 45t-9 26.5t-13 20t-6.5 25.5q0 23 13.5 32t41.5 9h61z" />
    <glyph glyph-name="X" unicode="X" horiz-adv-x="578" 
d="M523 144q12 -19 23 -31.5t19.5 -22.5t13 -21t4.5 -28q0 -20 -13.5 -30.5t-33.5 -10.5h-171q-28 0 -41.5 9t-13.5 32q0 16 8.5 27t15.5 22.5t7.5 27t-16.5 40.5l-77 121l-80 -121q-18 -27 -18.5 -43t5.5 -27t14 -21t8 -26q0 -23 -13.5 -32t-41.5 -9h-80q-20 0 -33.5 10.5
t-13.5 30.5q0 16 5 26t14 20t21.5 23t26.5 34l141 205l-133 207q-12 20 -24.5 32t-22 22.5t-15.5 21.5t-6 27q0 20 13.5 30.5t33.5 10.5h171q28 0 41.5 -9t13.5 -32q0 -16 -7.5 -27t-13.5 -23t-5 -27t18 -40l69 -103l67 103q18 28 19 43.5t-5 26.5t-14 21t-8 26q0 23 13 32
t41 9h80q20 0 33.5 -10.5t13.5 -30.5q0 -15 -5.5 -25.5t-14.5 -20.5t-21.5 -23t-26.5 -34l-129 -189z" />
    <glyph glyph-name="Y" unicode="Y" horiz-adv-x="596" 
d="M554 700q20 0 33 -10.5t13 -30.5q0 -15 -6 -25t-15.5 -20t-21.5 -23t-24 -35l-139 -244v-168q0 -22 7.5 -33.5t16 -20.5t16 -19.5t7.5 -29.5q0 -22 -14.5 -31.5t-39.5 -9.5h-164q-25 0 -39.5 9.5t-14.5 31.5q0 19 7.5 29.5t16 19.5t16 20.5t7.5 33.5v156l-154 256
q-12 20 -23.5 32.5t-21.5 22.5t-16 21t-6 27q0 20 13.5 30.5t33.5 10.5h184q28 0 41 -9t13 -32q0 -16 -7 -27t-12.5 -22.5t-4.5 -26.5t16 -41l83 -136l77 136q16 29 17 45t-4.5 26.5t-13 20t-7.5 25.5q0 23 13 32t41 9h76z" />
    <glyph glyph-name="Z" unicode="Z" horiz-adv-x="546" 
d="M500 147q23 0 31 -13.5t3 -37.5l-7 -38q-5 -23 -16.5 -40.5t-39.5 -17.5h-415q-51 0 -51 41q0 12 3.5 22.5t10 21.5t15.5 24.5t19 32.5l258 480h-148q-22 0 -33.5 -7.5t-20.5 -16t-19.5 -16t-29.5 -7.5q-22 0 -31.5 14.5t-9.5 39.5v30q0 22 14.5 31.5t39.5 9.5h398
q50 0 50 -41q0 -12 -3 -21.5t-9 -21t-14 -25t-19 -33.5l-260 -480h155q27 0 42.5 11t27.5 23.5t24.5 23.5t34.5 11z" />
    <glyph glyph-name="bracketleft" unicode="[" horiz-adv-x="236" 
d="M209 754q31 0 31 -25v-30q0 -24 -31 -24h-62v-686h62q31 0 31 -24v-30q0 -24 -31 -24h-169q-24 0 -24 31v780q0 32 24 32h169z" />
    <glyph glyph-name="backslash" unicode="\" horiz-adv-x="360" 
d="M361 -58q12 -31 -13 -31h-30q-24 0 -35 31l-284 780q-12 32 13 32h30q24 0 35 -32z" />
    <glyph glyph-name="bracketright" unicode="]" horiz-adv-x="236" 
d="M196 754q24 0 24 -32v-780q0 -31 -24 -31h-169q-31 0 -31 24v30q0 24 31 24h61v686h-61q-31 0 -31 24v30q0 25 31 25h169z" />
    <glyph glyph-name="asciicircum" unicode="^" horiz-adv-x="391" 
d="M368 458q19 -31 -6 -31h-23q-25 0 -42 31l-101 176l-102 -176q-19 -31 -42 -31h-23q-25 0 -6 31l121 210q19 31 42 31h19q23 0 42 -31z" />
    <glyph glyph-name="underscore" unicode="_" horiz-adv-x="403" 
d="M356 -21q31 0 31 -25v-30q0 -24 -31 -24h-309q-31 0 -31 24v30q0 25 31 25h309z" />
    <glyph glyph-name="grave" unicode="`" horiz-adv-x="202" 
d="M74 745q21 -20 41 -38q17 -15 33.5 -30.5t25.5 -23.5q10 -10 12.5 -18t-5.5 -17l-9 -11q-7 -8 -15 -8q-7 0 -20 10q-10 8 -28 21.5t-36 27.5q-21 15 -44 33q-22 19 -8 34l18 21q7 8 15 8q10 0 20 -9z" />
    <glyph glyph-name="a" unicode="a" horiz-adv-x="543" 
d="M531 157q9 0 13 -9t4 -17q0 -24 -6.5 -48.5t-20 -44.5t-35.5 -32.5t-54 -12.5q-42 0 -71 23.5t-40 75.5q-23 -44 -63 -71.5t-100 -27.5q-62 0 -102 34.5t-40 97.5q0 39 15 74t48 61t85 41.5t126 15.5h14l-5 67q-4 55 -21.5 85t-46.5 30q-21 0 -35 -21.5t-19 -69.5
q-2 -19 -12 -30.5t-32 -11.5q-16 0 -33 5t-31 14.5t-23 24.5t-9 34q0 17 13.5 38.5t40.5 41t68 33t96 13.5q91 0 142 -43t57 -112l20 -236q2 -20 7.5 -32t16.5 -12q8 0 11.5 3.5t6 7.5t6 7.5t9.5 3.5zM239 107q33 0 51.5 32.5t18.5 103.5l-2 27h-17q-33 0 -53.5 -11.5
t-32 -29t-14.5 -37.5t0 -37q3 -24 17 -36t32 -12z" />
    <glyph glyph-name="b" unicode="b" horiz-adv-x="580" 
d="M58 574q0 22 -7.5 33.5t-16 19.5t-16 17t-7.5 26q0 19 19 35.5t44.5 29t52 19.5t41.5 7q25 0 39.5 -10.5t14.5 -38.5v-240q19 41 54 69.5t94 28.5q46 0 83 -20.5t63 -58t40 -90.5t14 -119t-14.5 -119.5t-41.5 -91t-66 -58t-88 -20.5q-51 0 -88.5 22t-63.5 57
q-9 -13 -22.5 -27.5t-29 -25.5t-31.5 -18.5t-31 -7.5t-25.5 9.5t-10.5 31.5v540zM297 470q-19 0 -33 -16.5t-23.5 -45.5t-14 -69.5t-4.5 -87.5v-53q7 -31 20 -55q11 -20 29.5 -37.5t46.5 -17.5q49 0 68.5 52t9.5 147q-10 94 -38.5 138.5t-60.5 44.5z" />
    <glyph glyph-name="c" unicode="c" 
d="M259 -7q-59 0 -105.5 20.5t-78 58t-48 91t-16.5 119.5t20 119t55 90.5t83 58t105 20.5q39 0 73.5 -11t59.5 -28.5t39.5 -40t14.5 -46.5q0 -16 -9.5 -30.5t-23.5 -25t-31 -16.5t-32 -6q-23 0 -31.5 11.5t-12.5 30.5q-9 48 -27 69.5t-42 21.5q-18 0 -32.5 -13t-24 -36.5
t-15 -55t-5.5 -67.5q0 -64 12.5 -106.5t33 -67t45 -34.5t48.5 -10q34 0 53.5 9.5t32 21.5t22 21.5t22.5 9.5q8 0 12.5 -6t4.5 -15q0 -21 -13 -48.5t-38.5 -51.5t-63.5 -40.5t-87 -16.5z" />
    <glyph glyph-name="d" unicode="d" horiz-adv-x="587" 
d="M218 -7q-46 0 -84 20.5t-65.5 58t-42.5 91t-15 119.5t15 119t42 90.5t65.5 58t86.5 20.5q51 0 84.5 -25t54.5 -65v94q0 22 -7.5 33.5t-16 19.5t-16 17t-7.5 26q0 19 19 35.5t44.5 29t52 19.5t41.5 7q25 0 39.5 -10.5t14.5 -38.5v-533q0 -22 7.5 -33t16 -19.5t16 -17
t7.5 -25.5q0 -19 -19 -36t-44.5 -29t-52 -19t-41.5 -7q-25 0 -39.5 10.5t-14.5 37.5v42q-20 -40 -53.5 -65t-87.5 -25zM263 489q-43 0 -65.5 -52t-12.5 -146q9 -94 38 -139t61 -45t49 22t26 67v55q0 34 -4.5 75.5t-15.5 77.5t-29.5 60.5t-46.5 24.5z" />
    <glyph glyph-name="e" unicode="e" 
d="M461 150q0 -21 -13 -48.5t-38.5 -51.5t-63.5 -40.5t-87 -16.5q-59 0 -105.5 20.5t-78 58t-48 91t-16.5 119.5t19 119t53.5 90.5t81.5 58t102 20.5q45 0 81 -13t61 -35t38.5 -51.5t13.5 -62.5q0 -81 -68 -123t-211 -43q8 -39 22 -64.5t32 -40.5t38.5 -21.5t39.5 -6.5
q34 0 53.5 9.5t32 21.5t22 21.5t22.5 9.5q8 0 12.5 -6t4.5 -15zM245 499q-18 0 -31 -13t-21.5 -36.5t-13 -55t-4.5 -67.5v-19.5t1 -17.5q72 1 105 26t33 74q0 25 -6.5 45t-16 34.5t-22 22t-24.5 7.5z" />
    <glyph glyph-name="f" unicode="f" horiz-adv-x="337" 
d="M22 492q-31 0 -31 24v23q0 24 31 24h44q0 35 10.5 70t33.5 63.5t59 46.5t86 18q39 0 68 -10t47.5 -23.5t28 -28.5t9.5 -26q0 -16 -8 -30.5t-20.5 -25.5t-28 -17t-30.5 -6q-20 0 -29.5 8.5t-14.5 26.5q-3 11 -7.5 23t-10 22t-12.5 16.5t-17 6.5q-11 0 -19.5 -12t-8.5 -36
q0 -15 3 -30t8 -28q4 -15 10 -28h87q31 0 31 -24v-23q0 -24 -31 -24h-80v-348q0 -22 7.5 -33.5t16 -20.5t16 -19.5t7.5 -29.5q0 -41 -50 -41h-157q-51 0 -51 41q0 19 7.5 29.5t16 19.5t16 20.5t7.5 33.5v348h-44z" />
    <glyph glyph-name="g" unicode="g" horiz-adv-x="512" 
d="M346 79q31 0 59.5 -9.5t50 -28.5t34 -48t12.5 -69q0 -36 -10 -64t-23.5 -47.5t-28.5 -29.5t-26 -10q-16 0 -30.5 8t-25 20.5t-16.5 28t-6 30.5q0 20 8.5 29.5t26.5 14.5q11 3 23 6t22 6.5t16 7.5t6 10q0 17 -34 17q-28 0 -59.5 -12.5t-64.5 -27.5t-67 -27.5t-67 -12.5
q-52 0 -85.5 33t-33.5 91q0 47 21.5 82t58.5 50q-48 29 -75 80t-27 123q0 57 18 102t50.5 75.5t78.5 46.5t102 16q11 0 21 -0.5t21 -1.5q1 36 14.5 63t33 45t42 27.5t43.5 9.5q16 0 28.5 -8.5t20.5 -21.5t12.5 -29t4.5 -31q0 -17 -9.5 -29.5t-28.5 -12.5q-47 0 -75 -3.5
t-33 -21.5q72 -23 112.5 -80.5t40.5 -145.5q0 -57 -18 -102t-50.5 -75.5t-78 -46.5t-101.5 -16q-41 0 -72 7q-26 -1 -40 -9.5t-14 -21.5q0 -11 9.5 -17.5t28.5 -6.5q22 0 44 6t44.5 12.5t45 12.5t46.5 6zM235 499q-31 0 -47.5 -45.5t-8.5 -123.5t34.5 -123.5t57.5 -45.5
t47.5 45.5t8.5 123.5t-34.5 123.5t-57.5 45.5z" />
    <glyph glyph-name="h" unicode="h" horiz-adv-x="597" 
d="M21 41q0 19 7.5 29.5t16 19.5t16 20.5t7.5 33.5v430q0 22 -7.5 33.5t-16 19.5t-16 17t-7.5 26q0 19 19 35.5t44.5 29t52 19.5t41.5 7q25 0 39.5 -10.5t14.5 -38.5v-273q10 27 24 51t34.5 42t47 28t60.5 10q38 0 63 -12.5t40.5 -33.5t23 -49t9.5 -60l20 -271
q2 -22 9.5 -33.5t16 -20.5t15 -19.5t6.5 -29.5q0 -41 -50 -41h-157q-50 0 -50 41q0 19 8 29.5t17 19.5t16.5 20.5t5.5 33.5l-20 240q-4 38 -12 55t-31 17q-22 0 -40 -19t-30.5 -49t-19 -66.5t-6.5 -70.5v-107q0 -22 7.5 -33.5t16 -20.5t16 -19.5t7.5 -29.5q0 -41 -51 -41
h-157q-50 0 -50 41z" />
    <glyph glyph-name="i" unicode="i" horiz-adv-x="296" 
d="M150 589q-41 0 -67 22t-26 64t26 64t67 22t67 -22t26 -64t-26 -64t-67 -22zM232 144q0 -22 7.5 -33.5t16 -20.5t16 -19.5t7.5 -29.5q0 -41 -51 -41h-157q-50 0 -50 41q0 19 7.5 29.5t16 19.5t16 20.5t7.5 33.5v240q0 22 -7.5 33.5t-16 19.5t-16 17t-7.5 25q0 20 19 36.5
t44.5 28.5t52 19t41.5 7q25 0 39.5 -10.5t14.5 -37.5v-378z" />
    <glyph glyph-name="j" unicode="j" horiz-adv-x="268" 
d="M144 608q-41 0 -67 19.5t-26 56.5t26 57t67 20t67.5 -20t26.5 -57t-26.5 -56.5t-67.5 -19.5zM172 570q25 0 39.5 -10.5t14.5 -37.5v-522q0 -35 -10.5 -70t-33 -63.5t-58.5 -46.5t-86 -18q-39 0 -68 10t-48 23.5t-28 28.5t-9 26q0 16 8 30.5t20.5 25.5t27.5 17t30 6
q20 0 29.5 -8.5t14.5 -26.5q3 -11 7 -23t9.5 -22t12.5 -16.5t16 -6.5q24 0 24 34q0 40 -11 94t-11 120v270q0 22 -7.5 33.5t-16 19.5t-16 17t-7.5 25q0 20 19 36.5t44.5 28.5t52 19t41.5 7z" />
    <glyph glyph-name="k" unicode="k" horiz-adv-x="556" 
d="M231 251v-107q0 -22 7.5 -33.5t16 -20.5t16 -19.5t7.5 -29.5q0 -41 -51 -41h-156q-51 0 -51 41q0 19 7.5 29.5t16 19.5t16 20.5t7.5 33.5v430q0 22 -7.5 33.5t-16 19.5t-16 17t-7.5 26q0 19 19 35.5t44.5 29t52 19.5t41.5 7q25 0 39.5 -10.5t14.5 -38.5v-395l121 115
q19 19 23.5 30t2.5 19.5t-7 17t-5 23.5q0 41 51 41h81q21 0 30.5 -11t9.5 -28q0 -18 -9.5 -29t-26.5 -22.5t-40.5 -26t-52.5 -39.5l-46 -40l107 -223q9 -19 23 -30.5t26.5 -21.5t21.5 -21t9 -30q0 -41 -50 -41h-90q-25 0 -35 10.5t-20 30.5l-111 222z" />
    <glyph glyph-name="l" unicode="l" horiz-adv-x="295" 
d="M20 41q0 19 7.5 29.5t16 19.5t16 20.5t7.5 33.5v430q0 22 -7.5 33.5t-16 19.5t-16 17t-7.5 26q0 19 19 35.5t44.5 29t52 19.5t41.5 7q25 0 39.5 -10.5t14.5 -38.5v-568q0 -22 7.5 -33.5t16 -20.5t16 -19.5t7.5 -29.5q0 -41 -51 -41h-156q-51 0 -51 41z" />
    <glyph glyph-name="m" unicode="m" horiz-adv-x="899" 
d="M645 41q0 19 8 29.5t17.5 19.5t16.5 20.5t5 33.5l-20 240q-3 38 -11 55t-31 17q-22 0 -40 -19t-30.5 -49t-19 -66t-6.5 -71v-107q0 -22 7.5 -33.5t16 -20.5t16 -19.5t7.5 -29.5q0 -41 -51 -41h-157q-50 0 -50 41q0 19 7.5 29.5t16 19.5t16 20.5t7.5 33.5v240q0 38 -10 55
t-33 17q-22 0 -40 -19t-30.5 -49t-19 -66t-6.5 -71v-107q0 -22 7.5 -33.5t16 -20.5t16 -19.5t7.5 -29.5q0 -41 -51 -41h-156q-51 0 -51 41q0 19 7.5 29.5t16 19.5t16 20.5t7.5 33.5v240q0 22 -7.5 33.5t-16 19.5t-16 17t-7.5 25q0 20 19 36.5t44.5 28.5t52 19t41.5 7
q25 0 39.5 -10.5t14.5 -37.5v-79q9 27 23 50t34.5 40t47 27t61.5 10q34 0 58.5 -10t41 -27.5t25 -41.5t11.5 -51q9 27 23 51t34.5 41.5t47.5 27.5t62 10q38 0 63 -12.5t40.5 -33.5t23 -49t9.5 -60l20 -271q2 -22 9.5 -33.5t16 -20.5t15 -19.5t6.5 -29.5q0 -41 -50 -41h-157
q-51 0 -51 41z" />
    <glyph glyph-name="n" unicode="n" horiz-adv-x="597" 
d="M71 0q-50 0 -50 41q0 19 7.5 29.5t16 19.5t16 20.5t7.5 33.5v240q0 22 -7.5 33t-16 19.5t-16 17t-7.5 25.5q0 20 19 36.5t44.5 28.5t52 19t41.5 7q25 0 39.5 -10.5t14.5 -37.5v-79q9 27 23 50t34.5 40t47 27t61.5 10q38 0 63 -12.5t40.5 -33.5t23 -49t9.5 -60l20 -271
q2 -22 9.5 -33.5t16 -20.5t15 -19.5t6.5 -29.5q0 -41 -50 -41h-157q-50 0 -50 41q0 19 8 29.5t17 19.5t16.5 20.5t5.5 33.5l-20 240q-4 38 -12 55t-31 17q-22 0 -40 -19t-30.5 -49t-19 -66.5t-6.5 -70.5v-107q0 -22 7.5 -33.5t16 -20.5t16 -19.5t7.5 -29.5q0 -41 -51 -41
h-157z" />
    <glyph glyph-name="o" unicode="o" horiz-adv-x="534" 
d="M267 -7q-55 0 -102 19t-81.5 56t-53.5 91t-19 123t19 122.5t53.5 90.5t81.5 56t102 19q56 0 103 -19t81 -56t53 -90.5t19 -122.5t-19 -123t-53 -91t-81 -56t-103 -19zM247 499q-17 0 -30.5 -15.5t-22 -43.5t-11 -68t1.5 -90q5 -50 15 -90t23.5 -68.5t30 -44t33.5 -15.5
q35 0 53.5 59t9.5 159q-5 50 -15 90t-24 68t-30.5 43.5t-33.5 15.5z" />
    <glyph glyph-name="p" unicode="p" horiz-adv-x="584" 
d="M374 570q46 0 83 -20.5t63 -58t40 -90.5t14 -119t-14.5 -119.5t-41.5 -91t-66 -58t-87 -20.5q-46 0 -80 16.5t-59 45.5v-102q0 -22 7.5 -33.5t16 -20.5t16 -19.5t7.5 -29.5q0 -41 -51 -41h-156q-51 0 -51 41q0 19 7.5 29.5t16 19.5t16 20.5t7.5 33.5v431q0 22 -7.5 33
t-16 19.5t-16 17t-7.5 25.5q0 20 19 36.5t44.5 28.5t52 19t41.5 7q25 0 39.5 -10.5t14.5 -37.5v-50q19 41 54 69.5t94 28.5zM322 88q49 0 68.5 52t9.5 147q-10 94 -38.5 138.5t-60.5 44.5q-19 0 -33 -16.5t-23.5 -45.5t-14 -69.5t-4.5 -87.5v-53q8 -31 21 -55
q11 -20 29.5 -37.5t45.5 -17.5z" />
    <glyph glyph-name="q" unicode="q" horiz-adv-x="574" 
d="M522 -11q0 -22 7.5 -33.5t16 -19.5t16 -17t7.5 -26q0 -19 -19 -35.5t-44.5 -29t-52 -19.5t-41.5 -7q-25 0 -39.5 10.5t-14.5 38.5v240q-19 -41 -54 -69.5t-94 -28.5q-46 0 -83 20.5t-63 58t-40 91t-14 119.5t14.5 119t41.5 90.5t66 58t87 20.5q52 0 89.5 -22t63.5 -57
q9 14 22 28t28.5 25t31.5 18.5t31 7.5q16 0 26.5 -9.5t10.5 -31.5v-540zM283 93q19 0 33 16.5t23.5 46t14 69.5t4.5 87v53q-8 31 -21 55q-11 21 -29 38t-46 17q-49 0 -68.5 -52t-9.5 -146q10 -95 38.5 -139.5t60.5 -44.5z" />
    <glyph glyph-name="r" unicode="r" horiz-adv-x="458" 
d="M356 570q25 0 44 -10.5t32 -27.5t19.5 -39t6.5 -45q0 -36 -17.5 -56t-48.5 -20q-19 0 -32.5 7.5t-24 16.5t-21.5 16.5t-26 7.5q-21 0 -39 -38.5t-18 -105.5v-132q0 -22 7.5 -33.5t16 -20.5t16 -19.5t7.5 -29.5q0 -41 -51 -41h-156q-51 0 -51 41q0 19 7.5 29.5t16 19.5
t16 20.5t7.5 33.5v240q0 22 -7.5 33t-16 19.5t-16 17t-7.5 25.5q0 20 19 36.5t44.5 28.5t52 19t41.5 7q25 0 39.5 -10.5t14.5 -37.5v-75q18 52 48 87.5t77 35.5z" />
    <glyph glyph-name="s" unicode="s" horiz-adv-x="469" 
d="M180 452q0 -25 20 -44t50 -36.5t64.5 -36t64.5 -42.5t50 -55.5t20 -74.5q0 -34 -14.5 -64.5t-42 -54t-68.5 -37.5t-95 -14q-43 0 -81.5 12t-66.5 30t-44.5 40.5t-16.5 43.5q0 17 9.5 31t23.5 25t30.5 17t31.5 6q24 0 32.5 -12t11.5 -31q9 -48 29 -69.5t52 -21.5
q29 0 46 15.5t17 43.5q0 29 -20 50.5t-50 40.5t-64.5 38t-64.5 41.5t-50 51t-20 67.5q0 32 13.5 61t39.5 50.5t64 34t87 12.5q42 0 78.5 -10.5t63 -27t41.5 -36t15 -38.5q0 -16 -9.5 -30.5t-23.5 -25t-31 -16.5t-32 -6q-23 0 -31 12t-13 30q-11 43 -29 60t-43 17
q-14 0 -29 -12t-15 -35z" />
    <glyph glyph-name="t" unicode="t" horiz-adv-x="373" 
d="M345 164q9 0 13 -6t4 -15q0 -21 -9.5 -47.5t-29.5 -49t-49.5 -38t-70.5 -15.5q-25 0 -51 8t-47 26.5t-34 50t-13 79.5v335h-37q-31 0 -31 24v23q0 24 31 24q27 0 45 10t31.5 25.5t23.5 33t19.5 33t20 25.5t25.5 10q16 0 26 -9.5t10 -31.5v-96h80q31 0 31 -24v-23
q0 -24 -31 -24h-80v-290q0 -46 10.5 -69.5t38.5 -23.5q17 0 26.5 8.5t16.5 19t14 19t17 8.5z" />
    <glyph glyph-name="u" unicode="u" horiz-adv-x="579" 
d="M516 179q0 -22 7.5 -33t16 -19.5t16 -17t7.5 -25.5q0 -19 -18.5 -36t-44 -29t-52 -19t-41.5 -7q-25 0 -39.5 10.5t-14.5 37.5v64q-21 -48 -59 -80t-100 -32q-37 0 -63.5 12.5t-42.5 33.5t-23.5 49t-7.5 60v236q0 22 -7.5 33t-16 19.5t-16 17t-7.5 25.5q0 20 19 36.5
t44.5 28.5t52 19t41.5 7q25 0 39.5 -10.5t14.5 -37.5v-343q0 -38 9.5 -55t32.5 -17q24 0 41 19t28 49t16 66.5t5 70.5v72q0 22 -7.5 33.5t-16 19.5t-16 17t-7.5 25q0 20 18.5 36.5t44 28.5t52 19t41.5 7q25 0 39.5 -10.5t14.5 -37.5v-343z" />
    <glyph glyph-name="v" unicode="v" horiz-adv-x="505" 
d="M420 570q22 0 36.5 -6.5t23 -17t12 -23.5t3.5 -26q0 -22 -8 -51.5t-24 -77.5l-104 -320q-8 -25 -18.5 -36.5t-36.5 -11.5h-87q-25 0 -35.5 11t-18.5 37l-115 371q-7 22 -16 34.5t-17 22.5t-14 20t-6 26q0 20 13.5 30.5t33.5 10.5h142q28 0 41.5 -9t13.5 -32
q0 -16 -7 -25.5t-13.5 -20t-9 -26.5t6.5 -45l92 -294l52 160q16 50 14 81.5t-11 55.5t-19 45.5t-10 49.5q0 32 25.5 49.5t60.5 17.5z" />
    <glyph glyph-name="w" unicode="w" horiz-adv-x="813" 
d="M727 570q22 0 36.5 -6.5t23 -17t12 -23.5t3.5 -26q0 -22 -7.5 -51.5t-23.5 -77.5l-105 -320q-8 -25 -18.5 -36.5t-35.5 -11.5h-87q-25 0 -35.5 11t-18.5 37l-55 176l-57 -176q-8 -25 -18.5 -36.5t-36.5 -11.5h-87q-25 0 -35.5 11t-18.5 37l-115 371q-7 22 -16 34.5
t-17 22.5t-14 20t-6 26q0 20 13.5 30.5t33.5 10.5h142q28 0 41.5 -9t13.5 -32q0 -16 -7 -25.5t-13.5 -20t-9 -26.5t6.5 -45l92 -294l73 226l-25 82q-7 22 -16 34.5t-17 22.5t-14 20t-6 26q0 20 13 30.5t33 10.5h143q28 0 41 -9t13 -32q0 -16 -7 -25.5t-13 -20t-8.5 -26.5
t6.5 -45l91 -294l52 160q11 33 13.5 58t-0.5 44.5t-9.5 35t-13 30.5t-11.5 30t-5 34q0 32 26 49.5t60 17.5z" />
    <glyph glyph-name="x" unicode="x" horiz-adv-x="499" 
d="M429 144q13 -19 26.5 -31t24 -22.5t17.5 -21.5t7 -28q0 -20 -13.5 -30.5t-33.5 -10.5h-150q-28 0 -41 9t-13 32q0 16 7 27t12 23t3 27t-19 40l-45 67l-54 -67q-19 -24 -20.5 -39t3.5 -27t12.5 -23.5t7.5 -27.5q0 -23 -13 -32t-41 -9h-64q-20 0 -33.5 10.5t-13.5 30.5
q0 17 7.5 28.5t19.5 22t26.5 22.5t28.5 30l101 128l-101 147q-13 19 -26.5 31t-24 22.5t-17.5 22t-7 27.5q0 20 13.5 30.5t33.5 10.5h149q29 0 42 -9t13 -32q0 -16 -7 -27t-12 -23t-3 -27t19 -40l39 -57l46 57q19 24 20.5 39t-4 27t-13 23.5t-7.5 27.5q0 23 13.5 32t41.5 9
h64q20 0 33.5 -10.5t13.5 -30.5q0 -16 -7.5 -27.5t-19.5 -22.5t-26.5 -23t-28.5 -30l-94 -118z" />
    <glyph glyph-name="y" unicode="y" horiz-adv-x="519" 
d="M434 570q22 0 36.5 -6.5t23 -17t12 -23.5t3.5 -26q0 -22 -7.5 -51.5t-23.5 -77.5l-143 -413q-10 -31 -24 -58.5t-33.5 -48.5t-47.5 -33.5t-67 -12.5t-69.5 11t-50.5 27t-30.5 33.5t-10.5 31.5q0 16 8 30.5t20.5 25t28 16.5t30.5 6q20 0 29.5 -8.5t14.5 -26.5
q3 -11 6 -25.5t8.5 -27t13.5 -21t22 -8.5q1 0 1.5 0.5t1.5 0.5q11 1 21.5 11t10.5 33q0 45 -14.5 95.5t-40.5 116.5l-115 296q-8 21 -17.5 34t-17.5 22.5t-13 20t-5 26.5q0 20 13.5 30.5t33.5 10.5h142q28 0 41.5 -9t13.5 -32q0 -16 -7 -25.5t-13.5 -20t-9 -26.5t6.5 -45
l101 -285l53 151q18 49 16.5 81t-10 56t-18.5 45.5t-10 49.5q0 32 26 49.5t60 17.5z" />
    <glyph glyph-name="z" unicode="z" horiz-adv-x="486" 
d="M430 140q23 0 30.5 -14t2.5 -37l-7 -38q-4 -23 -15.5 -37t-39.5 -14h-330q-51 0 -51 41q0 12 3.5 22.5t10 21.5t15.5 25t20 32l207 350h-84q-27 0 -42.5 -11t-27.5 -23.5t-24.5 -23.5t-34.5 -11q-23 0 -31 14t-3 37l7 38q5 23 16.5 37t38.5 14h317q50 0 50 -41
q0 -12 -3.5 -22t-10 -21.5t-15 -25.5t-19.5 -32l-208 -350h99q27 0 42 11t27 23.5t25 23.5t35 11z" />
    <glyph glyph-name="braceleft" unicode="{" horiz-adv-x="205" 
d="M201 718q-19 -10 -27.5 -28t-8.5 -50q0 -15 4 -39t8.5 -51.5t8 -54t3.5 -45.5q0 -37 -16.5 -60t-36.5 -36q-24 -15 -54 -22q30 -7 54 -21q20 -13 36.5 -35.5t16.5 -60.5q0 -19 -3.5 -45.5t-8 -54t-8.5 -52t-4 -39.5q0 -32 8.5 -49.5t27.5 -28.5q6 -2 8 -8.5t-2 -11.5
l-5 -8q-4 -7 -13 -7q-39 1 -65.5 13t-43.5 29t-24.5 37.5t-7.5 39.5q0 25 3.5 52t7 53t7 49t3.5 41q0 26 -14.5 43.5t-38.5 22.5q-9 2 -14.5 9.5t-5.5 16.5v31q0 9 5.5 16.5t14.5 9.5q24 5 38.5 22.5t14.5 42.5q0 18 -3.5 41.5t-7 49.5t-7 53t-3.5 52q0 19 7.5 39.5
t24.5 37.5t43.5 28.5t65.5 13.5q8 0 13 -7l5 -8q4 -6 2 -12t-8 -9z" />
    <glyph glyph-name="bar" unicode="|" horiz-adv-x="109" 
d="M70 700q24 0 24 -31v-638q0 -31 -24 -31h-30q-24 0 -24 31v638q0 31 24 31h30z" />
    <glyph glyph-name="braceright" unicode="}" horiz-adv-x="205" 
d="M189 374q9 -2 14.5 -9.5t5.5 -16.5v-31q0 -9 -5.5 -16.5t-14.5 -9.5q-24 -5 -38.5 -22.5t-14.5 -43.5q0 -18 3.5 -41t7 -49t7 -53t3.5 -52q0 -19 -7.5 -39.5t-24 -37.5t-43.5 -29t-66 -13q-9 0 -13 7l-5 8q-4 5 -2 11.5t8 8.5q19 11 27.5 28.5t8.5 49.5q0 15 -3.5 39.5
t-8 52t-8.5 54t-4 45.5q0 38 17 60.5t37 35.5q23 14 53 21q-30 7 -53 22q-20 13 -37 36t-17 60q0 19 4 45.5t8.5 54t8 51.5t3.5 39q0 32 -8.5 50t-27.5 28q-6 3 -8 9t2 12l5 8q5 7 13 7q39 -2 66 -13.5t43.5 -28.5t24 -37.5t7.5 -39.5q0 -25 -3.5 -52t-7 -53t-7 -49.5
t-3.5 -41.5q0 -25 14.5 -42.5t38.5 -22.5z" />
    <glyph glyph-name="asciitilde" unicode="~" horiz-adv-x="372" 
d="M345 325q13 -5 12 -17q-6 -32 -30.5 -51.5t-66.5 -19.5q-16 0 -36 4.5t-41.5 10t-42 10t-37.5 4.5q-23 0 -33 -5.5t-15 -15.5q-6 -11 -15 -8l-13 4q-5 2 -9 6.5t-2 10.5q6 31 30.5 50.5t66.5 19.5q15 0 35.5 -4.5t41.5 -9.5t42 -9.5t38 -4.5q23 0 33 5t15 15q2 5 6 7.5
t9 0.5z" />
    <glyph glyph-name="exclamdown" unicode="&#xa1;" horiz-adv-x="244" 
d="M122 411q-35 0 -58 21t-23 59t23 58.5t58 20.5t58 -20.5t23 -58.5t-23 -59t-58 -21zM137 371q24 0 24 -32q0 -66 6.5 -122t15 -104.5t15 -91t6.5 -81.5q0 -37 -16 -60.5t-45 -23.5h-42q-29 0 -45 23.5t-16 60.5q0 39 6.5 81.5t15 91t15 104.5t6.5 122q0 32 24 32h30z" />
    <glyph glyph-name="cent" unicode="&#xa2;" horiz-adv-x="475" 
d="M252 568q-18 0 -32.5 -13t-24.5 -36.5t-15.5 -55t-5.5 -67.5q0 -64 12.5 -106.5t33 -67t45.5 -34.5t49 -10q34 0 53.5 9.5t31.5 21.5l21.5 21.5t22.5 9.5q8 0 12.5 -6t4.5 -15q0 -19 -11 -44t-32 -47.5t-52.5 -40t-72.5 -23.5v-36q0 -31 -24 -31h-30q-25 0 -25 31v37
q-98 15 -150.5 90.5t-52.5 194.5q0 57 15 104.5t42 84t64 60.5t82 34v40q0 31 25 31h30q24 0 24 -31v-35q36 -2 66.5 -13.5t53 -29t35.5 -39t13 -43.5q0 -16 -9.5 -30.5t-23.5 -25.5t-30.5 -17t-31.5 -6q-24 0 -32.5 12t-11.5 31q-9 48 -27 69.5t-42 21.5z" />
    <glyph glyph-name="sterling" unicode="&#xa3;" horiz-adv-x="566" 
d="M503 183q23 0 34.5 -15.5t6.5 -38.5l-14 -74q-5 -24 -13.5 -39.5t-34.5 -15.5h-430q-32 0 -32 25v51q0 24 32 24q24 0 43.5 9.5t34 25t22.5 35.5t8 41q0 11 -1.5 21t-3.5 20h-103q-32 0 -32 24v30q0 24 32 24h65q-13 21 -27.5 42t-26.5 43t-20 46.5t-8 52.5
q0 40 16.5 75.5t49 62t79.5 42t107 15.5q52 0 96.5 -14t77.5 -36t51.5 -48.5t18.5 -50.5q0 -20 -8 -35.5t-21.5 -26.5t-31 -17t-35.5 -6q-29 0 -39 12.5t-16 35.5q-13 49 -37.5 78.5t-68.5 29.5q-32 0 -50 -22t-18 -54q0 -30 9.5 -58t22.5 -55t26.5 -54.5t22.5 -57.5h102
q32 0 32 -24v-30q0 -24 -32 -24h-94q-5 -36 -25 -66.5t-52 -49.5h183q22 0 33.5 7.5t20.5 16t19 16t29 7.5z" />
    <glyph glyph-name="yen" unicode="&#xa5;" horiz-adv-x="596" 
d="M554 700q20 0 33.5 -10.5t13.5 -30.5q0 -15 -5.5 -25t-15 -19.5t-22 -22.5t-25.5 -35l-112 -190h53q31 0 31 -24v-30q0 -24 -31 -24h-80v-51h80q31 0 31 -25v-30q0 -24 -31 -24h-80v-15q0 -22 7.5 -33.5t16 -20.5t16 -19t7.5 -29q0 -23 -14.5 -32.5t-39.5 -9.5h-164
q-25 0 -39.5 9.5t-14.5 32.5q0 19 7.5 29t16 19t16 20.5t7.5 33.5v15h-80q-31 0 -31 24v30q0 25 31 25h80v51h-80q-31 0 -31 24v30q0 24 31 24h40l-113 190q-12 20 -24 32l-22 22t-16 21t-6 27q0 20 13.5 30.5t33.5 10.5h164q28 0 41.5 -9t13.5 -32q0 -16 -7 -26.5
t-12 -21.5t-4.5 -26.5t15.5 -41.5l95 -168l95 168q17 29 17.5 44.5t-5 26t-13 20t-7.5 25.5q0 23 13.5 32t41.5 9h64z" />
    <glyph glyph-name="section" unicode="&#xa7;" horiz-adv-x="574" 
d="M553 281q0 -55 -35 -101t-106 -69q26 -13 49 -28t40.5 -33.5t27.5 -41.5t10 -52q0 -39 -16.5 -72t-49 -57.5t-79.5 -38.5t-107 -14q-52 0 -97 14t-78 36t-51.5 48.5t-18.5 50.5q0 20 8.5 35.5t22 26.5t31 17t35.5 6q29 0 38.5 -12t15.5 -35q13 -50 38 -79.5t69 -29.5
q29 0 48.5 14.5t19.5 40.5q0 27 -25.5 46t-64.5 35.5t-83.5 33.5t-83.5 40.5t-64.5 56.5t-25.5 81q0 55 35 101t106 69q-26 13 -49 28t-40.5 33.5t-27.5 41.5t-10 52q0 39 16.5 72t49 57.5t79.5 38.5t107 14q52 0 96.5 -14.5t77.5 -36t52 -48t19 -50.5q0 -20 -8.5 -35.5
t-22 -26.5t-31 -17t-35.5 -6q-29 0 -39 12t-15 35q-13 50 -38 79.5t-69 29.5q-29 0 -48.5 -14.5t-19.5 -40.5q0 -27 25.5 -46t64.5 -35.5t83.5 -33.5t83.5 -40.5t64.5 -56.5t25.5 -81zM192 274q0 -24 13.5 -43t35.5 -35t50.5 -29t58.5 -27q32 21 32 67q0 24 -13.5 43
t-35.5 35t-50.5 29.5t-58.5 26.5q-32 -21 -32 -67z" />
    <glyph glyph-name="dieresis" unicode="&#xa8;" horiz-adv-x="323" 
d="M80 740q29 0 47 -16.5t18 -46.5q0 -31 -18 -47.5t-47 -16.5q-28 0 -46 16.5t-18 47.5q0 30 18 46.5t46 16.5zM242 740q29 0 47 -16.5t18 -46.5q0 -31 -18 -47.5t-46 -16.5q-29 0 -47 16.5t-18 47.5q0 30 18 46.5t46 16.5z" />
    <glyph glyph-name="copyright" unicode="&#xa9;" horiz-adv-x="700" 
d="M350 700q76 0 139.5 -25.5t109 -72t70.5 -111t25 -141.5t-25 -141.5t-70.5 -111t-109 -72t-139.5 -25.5t-139.5 25.5t-109 72t-71 111t-25.5 141.5t25.5 141.5t71 111t109 72t139.5 25.5zM350 51q65 0 119 22t92.5 61.5t60 94.5t21.5 121t-21.5 121t-60 94.5t-92.5 61.5
t-119 22t-119 -22t-93 -61.5t-60.5 -94.5t-21.5 -121t21.5 -121t60.5 -94.5t93 -61.5t119 -22zM349 529q-32 0 -49.5 -40.5t-17.5 -101.5q0 -53 11 -87.5t28.5 -55t39 -28.5t42.5 -8q30 0 46.5 8t27.5 17.5t18.5 17.5t19.5 8q15 0 15 -17q0 -18 -11.5 -40.5t-33.5 -42.5
t-55 -33.5t-76 -13.5q-103 0 -158.5 64.5t-55.5 173.5q0 54 17 98t47.5 75t72.5 48t91 17q34 0 63.5 -9t51.5 -23.5t34.5 -33t12.5 -38.5q0 -13 -8 -25t-20.5 -21t-27 -14t-27.5 -5q-20 0 -27.5 10t-10.5 25q-8 40 -23.5 57.5t-36.5 17.5z" />
    <glyph glyph-name="ordfeminine" unicode="&#xaa;" horiz-adv-x="340" 
d="M293 449q0 -15 5 -23t11 -13.5t11 -11.5t5 -17q0 -13 -9.5 -24.5t-24 -20t-30.5 -13t-29 -4.5q-17 0 -27 7t-10 25v15q-14 -23 -36.5 -37.5t-57.5 -14.5q-36 0 -60.5 23t-24.5 67q0 26 11 50t33 42t56 28.5t79 10.5v45q0 35 -10 56.5t-30 21.5q-14 0 -20 -14.5t-10 -47.5
q-2 -13 -8.5 -21t-21.5 -8q-11 0 -22.5 3.5t-21 10.5t-15.5 17t-6 23q0 11 8 26t24.5 28.5t41.5 22.5t60 9q63 0 96 -31t33 -75v-155zM195 505q-25 0 -40.5 -8t-23.5 -19.5t-10.5 -25t-0.5 -25.5q2 -16 11.5 -24.5t21.5 -8.5q22 0 32 22.5t10 70.5v18z" />
    <glyph glyph-name="guillemotleft" unicode="&#xab;" horiz-adv-x="495" 
d="M480 418q0 -25 -31 -42l-163 -94l163 -95q31 -17 31 -42v-30q0 -14 -10 -14q-7 0 -21 8l-210 121q-31 19 -31 42v19q0 23 31 42l210 121q14 8 21 8q10 0 10 -14v-30zM256 187q31 -17 31 -42v-30q0 -14 -10 -14q-7 0 -21 8l-210 121q-31 19 -31 42v19q0 23 31 42l210 121
q14 8 21 8q10 0 10 -14v-30q0 -25 -31 -42l-163 -94z" />
    <glyph glyph-name="registered" unicode="&#xae;" horiz-adv-x="508" 
d="M254 700q53 0 96.5 -18t75.5 -50t49.5 -76.5t17.5 -98.5q0 -53 -17.5 -97.5t-49.5 -76.5t-75.5 -50t-96.5 -18t-97 18t-75.5 50t-49 76.5t-17.5 97.5q0 54 17.5 98.5t49 76.5t75.5 50t97 18zM254 254q44 0 80.5 15t63 42t41 64.5t14.5 82.5t-14.5 82t-41 64t-63 42
t-80.5 15t-81 -15t-63.5 -42t-41 -64t-14.5 -82t14.5 -82.5t41 -64.5t63.5 -42t81 -15zM353 368q6 -9 13 -14.5t13 -9t10.5 -8t4.5 -12.5q0 -18 -24 -18h-40q-12 0 -18.5 5t-10.5 13l-64 113h-16v-69q0 -9 3.5 -14.5t7.5 -9.5t7.5 -8.5t3.5 -12.5q0 -17 -25 -17h-69
q-25 0 -25 17q0 8 3.5 12.5t7 8.5t7 9.5t3.5 14.5v179q0 9 -3.5 14.5t-7 9t-7 8t-3.5 12.5q0 18 25 18h111q53 0 83.5 -24t30.5 -62q0 -28 -16.5 -49t-48.5 -30zM256 471q22 0 34 13.5t7 38.5q-5 26 -22 39t-36 13q-18 0 -18 -17v-58q0 -12 5.5 -20.5t16.5 -8.5h13z" />
    <glyph glyph-name="macron" unicode="&#xaf;" horiz-adv-x="289" 
d="M242 712q31 0 31 -24v-23q0 -24 -31 -24h-195q-31 0 -31 24v23q0 24 31 24h195z" />
    <glyph glyph-name="degree" unicode="&#xb0;" horiz-adv-x="228" 
d="M114 703q43 0 70.5 -28t27.5 -71q0 -44 -27.5 -72t-70.5 -28t-70.5 28t-27.5 72q0 43 27.5 71t70.5 28zM114 561q15 0 28 9.5t13 32.5q0 24 -13 33.5t-28 9.5t-28 -9.5t-13 -33.5q0 -23 13 -32.5t28 -9.5z" />
    <glyph glyph-name="plusminus" unicode="&#xb1;" horiz-adv-x="431" 
d="M255 252v-102h130q31 0 31 -24v-30q0 -25 -31 -25h-338q-31 0 -31 25v30q0 24 31 24h130v102h-130q-31 0 -31 24v30q0 25 31 25h130v129q0 32 24 32h30q24 0 24 -32v-129h130q31 0 31 -25v-30q0 -24 -31 -24h-130z" />
    <glyph glyph-name="twosuperior" unicode="&#xb2;" horiz-adv-x="309" 
d="M270 421q14 0 20 -8.5t3 -21.5l-8 -41q-3 -13 -7.5 -21t-18.5 -8h-216q-27 0 -27 22q0 40 25.5 76t56.5 70t56.5 66.5t25.5 65.5q0 46 -30 46q-20 0 -28.5 -18.5t-15.5 -45.5q-6 -26 -37 -26q-20 0 -36.5 12.5t-16.5 34.5q0 12 8 27t23.5 28t39.5 22t56 9q35 0 61.5 -9.5
t44.5 -25.5t27 -37t9 -44q0 -31 -13 -54.5t-32.5 -41t-43.5 -30.5t-46.5 -25t-39.5 -23.5t-24 -24.5h128q12 0 18.5 4t11.5 9t10.5 9t15.5 4z" />
    <glyph glyph-name="threesuperior" unicode="&#xb3;" horiz-adv-x="312" 
d="M160 550q29 0 53.5 -7t43.5 -20.5t29.5 -34t10.5 -47.5q0 -55 -38.5 -89.5t-104.5 -34.5q-33 0 -59 9t-43.5 22t-26.5 28t-9 27q0 22 16.5 34.5t36.5 12.5q31 0 37 -26q7 -28 15.5 -46t32.5 -18q15 0 26.5 17.5t6.5 60.5q-5 42 -24 60t-46 18q-7 0 -12.5 4t-5.5 14
q0 11 6.5 18.5t20.5 20.5l65 58h-88q-12 0 -18.5 -4t-11 -8.5t-10 -8.5t-16.5 -4q-13 0 -19 8.5t-4 20.5l8 41q3 13 8 21.5t19 8.5h202q28 0 28 -23q0 -14 -10.5 -25t-25.5 -25l-96 -83h3z" />
    <glyph glyph-name="acute" unicode="&#xb4;" horiz-adv-x="202" 
d="M181 725q15 -16 -8 -34t-43 -33q-18 -14 -35.5 -27.5t-28.5 -21.5q-13 -10 -21 -10t-15 8l-9 11q-8 9 -5.5 17t13.5 18q9 8 25.5 23.5t33.5 30.5q19 18 40 38q11 9 21 9q8 0 15 -8z" />
    <glyph glyph-name="periodcentered" unicode="&#xb7;" horiz-adv-x="192" 
d="M96 202q-35 0 -58 21t-23 59t23 58.5t58 20.5t58 -20.5t23 -58.5t-23 -59t-58 -21z" />
    <glyph glyph-name="cedilla" unicode="&#xb8;" horiz-adv-x="228" 
d="M128 -36q42 0 63 -26t21 -68q0 -21 -6.5 -42.5t-20 -38t-34 -27t-48.5 -10.5q-29 0 -49.5 11t-31.5 21q-6 5 -6.5 12.5t4.5 12.5l7 7q5 6 12.5 6.5t12.5 -4.5q8 -8 20.5 -15.5t29.5 -7.5t29 23t7 57q-5 33 -15.5 42.5t-19.5 9.5q-11 0 -17 -7.5t-11 -16.5t-11 -16.5
t-17 -7.5h-9q-23 0 -20 25l25 132q5 24 28 24h9q25 0 20 -24l-16 -86q8 6 19 10t25 4z" />
    <glyph glyph-name="onesuperior" unicode="&#xb9;" horiz-adv-x="188" 
d="M147 400q0 -12 4 -18.5t9 -11.5t9 -10.5t4 -16.5q0 -12 -8 -17t-22 -5h-98q-29 0 -29 22q0 11 4 16.5t9 10.5t9 11.5t4 18.5v203q0 12 -4 17t-9 8.5t-9 7t-4 12.5q0 11 8.5 21t22 18.5t30 13.5t32.5 5q21 0 29.5 -9.5t8.5 -24.5v-272z" />
    <glyph glyph-name="ordmasculine" unicode="&#xba;" horiz-adv-x="383" 
d="M191 710q39 0 71.5 -14t56 -39.5t36 -62t12.5 -81.5t-12.5 -81t-36 -61.5t-56 -39.5t-71.5 -14t-71 14t-55.5 39.5t-36 61.5t-12.5 81t12.5 81.5t36 62t55.5 39.5t71 14zM203 360q26 0 41.5 37t9.5 116q-6 80 -27 117t-47 37t-41.5 -37t-9.5 -117q6 -79 27 -116t47 -37z
" />
    <glyph glyph-name="guillemotright" unicode="&#xbb;" horiz-adv-x="495" 
d="M287 272q0 -23 -31 -42l-210 -121q-14 -8 -21 -8q-10 0 -10 14v30q0 25 31 42l163 95l-163 94q-31 17 -31 42v30q0 14 10 14q7 0 21 -8l210 -121q31 -19 31 -42v-19zM449 333q31 -19 31 -42v-19q0 -23 -31 -42l-210 -121q-14 -8 -21 -8q-10 0 -10 14v30q0 25 31 42
l163 95l-163 94q-31 17 -31 42v30q0 14 10 14q7 0 21 -8z" />
    <glyph glyph-name="questiondown" unicode="&#xbf;" horiz-adv-x="484" 
d="M264 411q-35 0 -58 21t-23 59t23 58.5t58 20.5t58 -20.5t23 -58.5t-23 -59t-58 -21zM239 -144q-53 0 -93.5 13t-68 37t-41.5 57t-14 72q0 41 15 71t37.5 54t49 43.5t49 39.5t37.5 43t15 53q0 32 24 32h30q24 0 24 -32q0 -47 -8 -79t-20.5 -56t-26.5 -43t-26.5 -39
t-20.5 -45t-8 -60q0 -39 15.5 -61t38.5 -22q17 0 28 9t17.5 24.5t10.5 37t8 45.5q3 23 14 35t40 12q18 0 35.5 -6t31 -17t22 -26.5t8.5 -35.5q0 -23 -14.5 -50t-42.5 -50.5t-69.5 -39.5t-96.5 -16z" />
    <glyph glyph-name="Agrave" unicode="&#xc0;" horiz-adv-x="634" 
d="M270 882q21 -20 41 -38q17 -15 33.5 -30.5t25.5 -23.5q10 -10 12.5 -18t-5.5 -17l-9 -11q-7 -8 -15 -8q-7 0 -20 10q-10 8 -28 21.5t-36 27.5q-21 15 -44 33q-22 19 -8 34l18 21q5 8 14 8q11 0 21 -9zM585 144q8 -22 17 -34.5t17 -22t13.5 -19.5t5.5 -27q0 -20 -13 -30.5
t-33 -10.5h-165q-28 0 -41 9t-13 32q0 16 7 26t13.5 20.5t9 26.5t-7.5 44l-26 79h-212l-25 -79q-9 -29 -6.5 -45t9 -26.5t13.5 -20t7 -25.5q0 -23 -13.5 -32t-41.5 -9h-58q-20 0 -33.5 10.5t-13.5 30.5q0 17 6 27t14 19.5t17 22t16 34.5l131 412q7 21 2.5 33t-12 21.5
t-15 20t-7.5 28.5q0 20 13.5 30.5t33.5 10.5h161q26 0 37.5 -10.5t18.5 -30.5zM342 315l-82 244l-78 -244h160z" />
    <glyph glyph-name="Aacute" unicode="&#xc1;" horiz-adv-x="634" 
d="M377 862q14 -15 -8 -34q-23 -18 -44 -33q-17 -14 -35 -27.5t-28 -21.5q-13 -10 -21 -10t-15 8l-9 11q-8 9 -5.5 17t13.5 18q9 8 25.5 23.5t33.5 30.5q19 18 40 38q11 9 21 9q8 0 15 -8zM585 144q8 -22 17 -34.5t17 -22t13.5 -19.5t5.5 -27q0 -20 -13 -30.5t-33 -10.5
h-165q-28 0 -41 9t-13 32q0 16 7 26t13.5 20.5t9 26.5t-7.5 44l-26 79h-212l-25 -79q-9 -29 -6.5 -45t9 -26.5t13.5 -20t7 -25.5q0 -23 -13.5 -32t-41.5 -9h-58q-20 0 -33.5 10.5t-13.5 30.5q0 17 6 27t14 19.5t17 22t16 34.5l131 412q7 21 2.5 33t-12 21.5t-15 20
t-7.5 28.5q0 20 13.5 30.5t33.5 10.5h161q26 0 37.5 -10.5t18.5 -30.5zM342 315l-82 244l-78 -244h160z" />
    <glyph glyph-name="Acircumflex" unicode="&#xc2;" horiz-adv-x="634" 
d="M407 783q17 -19 3 -33l-9 -8q-7 -6 -13 -6q-9 0 -20 11q-5 5 -17 16.5t-24 23.5q-14 13 -30 29q-16 -16 -30 -29l-23.5 -23.5t-17.5 -16.5q-11 -11 -20 -11q-6 0 -12 6l-10 8q-13 14 3 33l81 95q8 8 14.5 11t14.5 3t14.5 -3t14.5 -11zM585 144q8 -22 17 -34.5t17 -22
t13.5 -19.5t5.5 -27q0 -20 -13 -30.5t-33 -10.5h-165q-28 0 -41 9t-13 32q0 16 7 26t13.5 20.5t9 26.5t-7.5 44l-26 79h-212l-25 -79q-9 -29 -6.5 -45t9 -26.5t13.5 -20t7 -25.5q0 -23 -13.5 -32t-41.5 -9h-58q-20 0 -33.5 10.5t-13.5 30.5q0 17 6 27t14 19.5t17 22t16 34.5
l131 412q7 21 2.5 33t-12 21.5t-15 20t-7.5 28.5q0 20 13.5 30.5t33.5 10.5h161q26 0 37.5 -10.5t18.5 -30.5zM342 315l-82 244l-78 -244h160z" />
    <glyph glyph-name="Atilde" unicode="&#xc3;" horiz-adv-x="634" 
d="M401 856q14 -3 12 -17q-6 -32 -23.5 -51.5t-44.5 -19.5q-12 0 -25 4.5t-25.5 10t-24.5 10t-21 4.5q-8 0 -15.5 -4.5t-12.5 -14.5t-16 -8l-12 2q-6 1 -9.5 6t-2.5 10q7 32 24 51.5t44 19.5q12 0 25 -4.5t25.5 -9.5t24.5 -9.5t21 -4.5q19 0 29 18q3 10 15 8zM585 144
q8 -22 17 -34.5t17 -22t13.5 -19.5t5.5 -27q0 -20 -13 -30.5t-33 -10.5h-165q-28 0 -41 9t-13 32q0 16 7 26t13.5 20.5t9 26.5t-7.5 44l-26 79h-212l-25 -79q-9 -29 -6.5 -45t9 -26.5t13.5 -20t7 -25.5q0 -23 -13.5 -32t-41.5 -9h-58q-20 0 -33.5 10.5t-13.5 30.5q0 17 6 27
t14 19.5t17 22t16 34.5l131 412q7 21 2.5 33t-12 21.5t-15 20t-7.5 28.5q0 20 13.5 30.5t33.5 10.5h161q26 0 37.5 -10.5t18.5 -30.5zM342 315l-82 244l-78 -244h160z" />
    <glyph glyph-name="Adieresis" unicode="&#xc4;" horiz-adv-x="634" 
d="M206 877q28 0 46 -16.5t18 -46.5q0 -31 -18 -47.5t-46 -16.5q-29 0 -47 16.5t-18 47.5q0 30 18 46.5t47 16.5zM368 877q29 0 47 -16.5t18 -46.5q0 -31 -18 -47.5t-47 -16.5q-28 0 -46 16.5t-18 47.5q0 30 18 46.5t46 16.5zM585 144q8 -22 17 -34.5t17 -22t13.5 -19.5
t5.5 -27q0 -20 -13 -30.5t-33 -10.5h-165q-28 0 -41 9t-13 32q0 16 7 26t13.5 20.5t9 26.5t-7.5 44l-26 79h-212l-25 -79q-9 -29 -6.5 -45t9 -26.5t13.5 -20t7 -25.5q0 -23 -13.5 -32t-41.5 -9h-58q-20 0 -33.5 10.5t-13.5 30.5q0 17 6 27t14 19.5t17 22t16 34.5l131 412
q7 21 2.5 33t-12 21.5t-15 20t-7.5 28.5q0 20 13.5 30.5t33.5 10.5h161q26 0 37.5 -10.5t18.5 -30.5zM342 315l-82 244l-78 -244h160z" />
    <glyph glyph-name="Aring" unicode="&#xc5;" horiz-adv-x="634" 
d="M585 144q8 -22 17 -34.5t17 -22t13.5 -19.5t5.5 -27q0 -20 -13 -30.5t-33 -10.5h-165q-28 0 -41 9t-13 32q0 16 7 26t13.5 20.5t9 26.5t-7.5 44l-26 79h-212l-25 -79q-9 -29 -6.5 -45t9 -26.5t13.5 -20t7 -25.5q0 -23 -13.5 -32t-41.5 -9h-58q-20 0 -33.5 10.5
t-13.5 30.5q0 17 6 27t14 19.5t17 22t16 34.5l131 412q7 21 2.5 33t-12 21.5t-15 20t-7.5 28.5q0 20 13.5 30.5t33.5 10.5h78q-37 5 -60 30t-23 70q0 48 27.5 74t70.5 26t70.5 -26t27.5 -74q0 -45 -23 -70t-60 -30h53q26 0 37.5 -10.5t18.5 -30.5zM287 731q29 0 48 18t19 51
t-19 50.5t-48 17.5t-48 -17.5t-19 -50.5t19 -51t48 -18zM342 315l-82 244l-78 -244h160z" />
    <glyph glyph-name="AE" unicode="&#xc6;" horiz-adv-x="853" 
d="M802 147q23 0 30.5 -14t3.5 -37l-7 -45q-5 -23 -16.5 -37t-39.5 -14h-381q-25 0 -39.5 9.5t-14.5 31.5q0 19 7.5 29.5t16 19.5t16 20.5t7.5 33.5v105h-188l-51 -91q-16 -29 -17 -45t4.5 -26.5t13 -20t7.5 -25.5q0 -23 -13 -32t-41 -9h-58q-20 0 -33.5 10.5t-13.5 30.5
q0 16 6 25.5t15.5 19.5t22 23t24.5 35l231 412q12 22 12.5 34.5t-4 22.5t-10.5 20t-6 26q0 20 13.5 30.5t33.5 10.5h443q26 0 40.5 -9.5t14.5 -31.5v-30q0 -25 -9.5 -39.5t-31.5 -14.5q-19 0 -29.5 7.5t-19.5 16t-20.5 16t-33.5 7.5h-96q-12 0 -20 -10.5t-8 -30.5v-185h88
q22 0 33.5 7.5t20.5 16t19.5 16t29.5 7.5q22 0 31.5 -14.5t9.5 -39.5v-64q0 -25 -9.5 -39.5t-31.5 -14.5q-19 0 -29.5 7.5t-19.5 16t-20.5 16t-33.5 7.5h-88v-174q0 -27 12 -46.5t34 -19.5h64q27 0 42.5 11t27.5 23.5t24.5 23.5t34.5 11zM385 579l-143 -252h143v252z" />
    <glyph glyph-name="Ccedilla" unicode="&#xc7;" horiz-adv-x="566" 
d="M301 -7q-10 0 -20 0.5t-20 1.5l-8 -45q8 6 19 10t25 4q42 0 63 -26t21 -68q0 -21 -6.5 -42.5t-20 -38t-34 -27t-48.5 -10.5q-29 0 -49.5 11t-31.5 21q-6 5 -6.5 12.5t4.5 12.5l7 7q5 6 12.5 6.5t12.5 -4.5q8 -8 21 -15.5t29 -7.5q18 0 29.5 23t6.5 57q-4 33 -15 42.5
t-20 9.5q-11 0 -17 -7.5t-11 -16.5t-11 -16.5t-17 -7.5h-9q-23 0 -20 25l20 104q-46 16 -83 46.5t-63.5 74.5t-41 99.5t-14.5 121.5q0 81 24.5 147t67.5 112.5t100 72t123 25.5q55 0 98 -17t72.5 -42.5t45 -55.5t15.5 -55q0 -20 -8.5 -35.5t-22 -26.5t-31 -17t-35.5 -6
q-29 0 -39.5 12t-14.5 35q-11 60 -32.5 95t-59.5 35q-24 0 -45.5 -16t-37.5 -45t-25.5 -70t-9.5 -92q0 -80 15 -135t40.5 -89.5t58 -50t66.5 -15.5q46 0 71.5 16t40.5 35t24.5 35t23.5 16q19 0 19 -23q0 -32 -15 -67.5t-46 -65.5t-77.5 -49.5t-109.5 -19.5z" />
    <glyph glyph-name="Egrave" unicode="&#xc8;" horiz-adv-x="535" 
d="M261 882q21 -20 41 -38q16 -15 32.5 -30.5t25.5 -23.5q10 -10 13 -18t-5 -17l-10 -11q-5 -8 -14 -8q-8 0 -21 10q-10 8 -28 21.5t-36 27.5q-21 15 -44 33q-21 18 -7 34l17 21q7 8 15 8q9 0 21 -9zM20 41q0 19 7.5 29.5t16 19.5t16 20.5t7.5 33.5v412q0 22 -7.5 33.5
t-16 20.5t-16 19.5t-7.5 29.5q0 22 14.5 31.5t39.5 9.5h385q25 0 39.5 -9.5t14.5 -31.5v-30q0 -25 -9.5 -39.5t-31.5 -14.5q-19 0 -29 7.5t-19 16t-21 16t-34 7.5h-95q-12 0 -20.5 -10.5t-8.5 -30.5v-185h89q22 0 33.5 7.5t20.5 16t19 16t29 7.5q23 0 32 -14.5t9 -39.5v-64
q0 -25 -9 -39.5t-32 -14.5q-19 0 -29 7.5t-19 16t-20.5 16t-33.5 7.5h-89v-174q0 -27 12 -46.5t34 -19.5h65q27 0 42 11t27 23.5t24.5 23.5t34.5 11q23 0 31 -14t3 -37l-7 -45q-4 -23 -15.5 -37t-39.5 -14h-382q-25 0 -39.5 9.5t-14.5 31.5z" />
    <glyph glyph-name="Eacute" unicode="&#xc9;" horiz-adv-x="535" 
d="M367 862q14 -16 -7 -34q-23 -18 -44 -33q-17 -14 -35 -27.5t-29 -21.5q-13 -10 -21 -10q-7 0 -14 8l-9 11q-8 9 -5.5 17t12.5 18q9 8 25.5 23.5t33.5 30.5q19 18 41 38q11 9 20 9q8 0 15 -8zM20 41q0 19 7.5 29.5t16 19.5t16 20.5t7.5 33.5v412q0 22 -7.5 33.5t-16 20.5
t-16 19.5t-7.5 29.5q0 22 14.5 31.5t39.5 9.5h385q25 0 39.5 -9.5t14.5 -31.5v-30q0 -25 -9.5 -39.5t-31.5 -14.5q-19 0 -29 7.5t-19 16t-21 16t-34 7.5h-95q-12 0 -20.5 -10.5t-8.5 -30.5v-185h89q22 0 33.5 7.5t20.5 16t19 16t29 7.5q23 0 32 -14.5t9 -39.5v-64
q0 -25 -9 -39.5t-32 -14.5q-19 0 -29 7.5t-19 16t-20.5 16t-33.5 7.5h-89v-174q0 -27 12 -46.5t34 -19.5h65q27 0 42 11t27 23.5t24.5 23.5t34.5 11q23 0 31 -14t3 -37l-7 -45q-4 -23 -15.5 -37t-39.5 -14h-382q-25 0 -39.5 9.5t-14.5 31.5z" />
    <glyph glyph-name="Ecircumflex" unicode="&#xca;" horiz-adv-x="535" 
d="M397 783q8 -10 10 -17.5t-6 -15.5l-10 -8q-6 -6 -12 -6q-9 0 -20 11q-5 5 -17 16.5t-24 23.5q-14 13 -30 29q-16 -16 -30 -29q-12 -12 -24 -23.5t-18 -16.5q-11 -11 -20 -11q-6 0 -12 6l-9 8q-8 8 -6.5 15.5t9.5 17.5l81 95q8 8 14.5 11t14.5 3t14 -3t14 -11zM20 41
q0 19 7.5 29.5t16 19.5t16 20.5t7.5 33.5v412q0 22 -7.5 33.5t-16 20.5t-16 19.5t-7.5 29.5q0 22 14.5 31.5t39.5 9.5h385q25 0 39.5 -9.5t14.5 -31.5v-30q0 -25 -9.5 -39.5t-31.5 -14.5q-19 0 -29 7.5t-19 16t-21 16t-34 7.5h-95q-12 0 -20.5 -10.5t-8.5 -30.5v-185h89
q22 0 33.5 7.5t20.5 16t19 16t29 7.5q23 0 32 -14.5t9 -39.5v-64q0 -25 -9 -39.5t-32 -14.5q-19 0 -29 7.5t-19 16t-20.5 16t-33.5 7.5h-89v-174q0 -27 12 -46.5t34 -19.5h65q27 0 42 11t27 23.5t24.5 23.5t34.5 11q23 0 31 -14t3 -37l-7 -45q-4 -23 -15.5 -37t-39.5 -14
h-382q-25 0 -39.5 9.5t-14.5 31.5z" />
    <glyph glyph-name="Edieresis" unicode="&#xcb;" horiz-adv-x="535" 
d="M206 877q29 0 47 -16.5t18 -46.5q0 -31 -18 -47.5t-47 -16.5q-28 0 -46 16.5t-18 47.5q0 30 18 46.5t46 16.5zM369 877q28 0 46 -16.5t18 -46.5q0 -31 -18 -47.5t-46 -16.5q-29 0 -47 16.5t-18 47.5q0 30 18 46.5t47 16.5zM20 41q0 19 7.5 29.5t16 19.5t16 20.5t7.5 33.5
v412q0 22 -7.5 33.5t-16 20.5t-16 19.5t-7.5 29.5q0 22 14.5 31.5t39.5 9.5h385q25 0 39.5 -9.5t14.5 -31.5v-30q0 -25 -9.5 -39.5t-31.5 -14.5q-19 0 -29 7.5t-19 16t-21 16t-34 7.5h-95q-12 0 -20.5 -10.5t-8.5 -30.5v-185h89q22 0 33.5 7.5t20.5 16t19 16t29 7.5
q23 0 32 -14.5t9 -39.5v-64q0 -25 -9 -39.5t-32 -14.5q-19 0 -29 7.5t-19 16t-20.5 16t-33.5 7.5h-89v-174q0 -27 12 -46.5t34 -19.5h65q27 0 42 11t27 23.5t24.5 23.5t34.5 11q23 0 31 -14t3 -37l-7 -45q-4 -23 -15.5 -37t-39.5 -14h-382q-25 0 -39.5 9.5t-14.5 31.5z" />
    <glyph glyph-name="Igrave" unicode="&#xcc;" horiz-adv-x="313" 
d="M129 882l12.5 -11.5t29 -26.5t33 -30.5t25.5 -23.5q10 -10 12.5 -18t-4.5 -17l-10 -11q-5 -8 -14 -8q-8 0 -21 10q-10 8 -28 21.5t-36 27.5q-21 15 -44 33q-21 18 -7 34l17 21q7 8 15 8q10 0 20 -9zM292 659q0 -19 -7.5 -29t-16 -19.5t-16 -21t-7.5 -33.5v-412
q0 -22 7.5 -33.5t16 -20.5t16 -19.5t7.5 -29.5q0 -22 -14.5 -31.5t-39.5 -9.5h-164q-25 0 -39.5 9.5t-14.5 31.5q0 19 7.5 29.5t16 19.5t16 20.5t7.5 33.5v412q0 22 -7.5 33.5t-16 20.5t-16 19.5t-7.5 29.5q0 22 14.5 31.5t39.5 9.5h164q25 0 39.5 -9.5t14.5 -31.5z" />
    <glyph glyph-name="Iacute" unicode="&#xcd;" horiz-adv-x="313" 
d="M236 862q14 -16 -7 -34q-23 -18 -44 -33q-17 -14 -35 -27.5t-29 -21.5q-13 -10 -20 -10q-8 0 -15 8l-9 11q-8 9 -5.5 17t12.5 18q9 8 25.5 23.5t33.5 30.5q19 18 41 38q11 9 20 9q8 0 15 -8zM292 659q0 -19 -7.5 -29t-16 -19.5t-16 -21t-7.5 -33.5v-412q0 -22 7.5 -33.5
t16 -20.5t16 -19.5t7.5 -29.5q0 -22 -14.5 -31.5t-39.5 -9.5h-164q-25 0 -39.5 9.5t-14.5 31.5q0 19 7.5 29.5t16 19.5t16 20.5t7.5 33.5v412q0 22 -7.5 33.5t-16 20.5t-16 19.5t-7.5 29.5q0 22 14.5 31.5t39.5 9.5h164q25 0 39.5 -9.5t14.5 -31.5z" />
    <glyph glyph-name="Icircumflex" unicode="&#xce;" horiz-adv-x="313" 
d="M266 783q8 -10 10 -17.5t-6 -15.5l-10 -8q-6 -6 -12 -6q-9 0 -20 11q-5 5 -17 16.5t-24 23.5q-14 13 -30 29q-16 -16 -30 -29q-12 -12 -24 -23.5t-18 -16.5q-11 -11 -20 -11q-6 0 -12 6l-9 8q-8 8 -6.5 15.5t9.5 17.5l81 95q8 8 14.5 11t14.5 3t14 -3t14 -11zM292 659
q0 -19 -7.5 -29t-16 -19.5t-16 -21t-7.5 -33.5v-412q0 -22 7.5 -33.5t16 -20.5t16 -19.5t7.5 -29.5q0 -22 -14.5 -31.5t-39.5 -9.5h-164q-25 0 -39.5 9.5t-14.5 31.5q0 19 7.5 29.5t16 19.5t16 20.5t7.5 33.5v412q0 22 -7.5 33.5t-16 20.5t-16 19.5t-7.5 29.5
q0 22 14.5 31.5t39.5 9.5h164q25 0 39.5 -9.5t14.5 -31.5z" />
    <glyph glyph-name="Idieresis" unicode="&#xcf;" horiz-adv-x="313" 
d="M75 877q29 0 47 -16.5t18 -46.5q0 -31 -18 -47.5t-47 -16.5q-28 0 -46 16.5t-18 47.5q0 30 18 46.5t46 16.5zM238 877q28 0 46 -16.5t18 -46.5q0 -31 -18 -47.5t-46 -16.5q-29 0 -47 16.5t-18 47.5q0 30 18 46.5t47 16.5zM292 659q0 -19 -7.5 -29t-16 -19.5t-16 -21
t-7.5 -33.5v-412q0 -22 7.5 -33.5t16 -20.5t16 -19.5t7.5 -29.5q0 -22 -14.5 -31.5t-39.5 -9.5h-164q-25 0 -39.5 9.5t-14.5 31.5q0 19 7.5 29.5t16 19.5t16 20.5t7.5 33.5v412q0 22 -7.5 33.5t-16 20.5t-16 19.5t-7.5 29.5q0 22 14.5 31.5t39.5 9.5h164q25 0 39.5 -9.5
t14.5 -31.5z" />
    <glyph glyph-name="Eth" unicode="&#xd0;" horiz-adv-x="643" 
d="M20 41q0 19 7.5 29.5t16 19.5t16 20.5t7.5 33.5v148h-16q-31 0 -31 25v30q0 24 31 24h16v185q0 22 -7.5 33.5t-16 20.5t-16 19.5t-7.5 29.5q0 22 14.5 31.5t39.5 9.5h232q74 0 134.5 -24.5t104.5 -70.5t68 -110.5t24 -144.5t-23.5 -144.5t-66.5 -110.5t-104.5 -70.5
t-136.5 -24.5h-232q-25 0 -39.5 9.5t-14.5 31.5zM444 350q-6 70 -24 121.5t-42.5 85t-53.5 49.5t-56 16q-11 0 -19.5 -10.5t-8.5 -30.5l2 -210h45q31 0 31 -25v-29q0 -25 -31 -25h-45l2 -148q0 -27 12 -46.5t34 -19.5h25q31 0 57 16t44 49.5t26 85t2 121.5z" />
    <glyph glyph-name="Ntilde" unicode="&#xd1;" horiz-adv-x="644" 
d="M446 856q14 -3 12 -17q-6 -32 -23.5 -51.5t-44.5 -19.5q-12 0 -25 4.5t-25.5 10t-24.5 10t-21 4.5q-8 0 -15.5 -4.5t-12.5 -14.5t-16 -8l-12 2q-6 1 -9.5 6t-2.5 10q7 32 24 51.5t44 19.5q12 0 25 -4.5t25.5 -9.5t24.5 -9.5t21 -4.5q19 0 29 18q3 10 15 8zM624 659
q0 -19 -7.5 -29t-16 -19.5t-16 -21t-7.5 -33.5v-412q0 -22 7.5 -33.5t16 -20.5t16 -19.5t7.5 -29.5q0 -22 -14.5 -31.5t-39.5 -9.5h-129q-25 0 -35.5 10.5t-20.5 30.5l-238 452v-349q0 -22 7.5 -33.5t16 -20.5t16 -19.5t7.5 -29.5q0 -22 -14.5 -31.5t-39.5 -9.5h-66
q-25 0 -39.5 9.5t-14.5 31.5q0 19 7.5 29.5t16 19.5t16 20.5t7.5 33.5v412q0 22 -7.5 33.5t-16 20.5t-16 19.5t-7.5 29.5q0 22 14.5 31.5t39.5 9.5h129q25 0 35.5 -10.5t20.5 -30.5l238 -453v350q0 22 -7.5 33.5t-16 20.5t-16 19.5t-7.5 29.5q0 22 14.5 31.5t39.5 9.5h66
q25 0 39.5 -9.5t14.5 -31.5z" />
    <glyph glyph-name="Ograve" unicode="&#xd2;" horiz-adv-x="645" 
d="M296 882q21 -20 41 -38q16 -15 32.5 -30.5t25.5 -23.5q10 -10 13 -18t-5 -17l-10 -11q-5 -8 -14 -8q-8 0 -21 10q-10 8 -28 21.5t-36 27.5q-21 15 -44 33q-21 18 -7 34l17 21q7 8 15 8q9 0 21 -9zM5 350q0 81 22 147t63 112.5t100 72t132 25.5q74 0 132.5 -25.5t99.5 -72
t63 -112.5t22 -147t-22 -147t-63 -112.5t-99.5 -72t-132.5 -25.5q-73 0 -132 25.5t-100 72t-63 112.5t-22 147zM446 350q-6 72 -20 124.5t-34 87t-43.5 51t-49.5 16.5t-47 -16.5t-35 -51t-19.5 -87t0.5 -124.5q13 -144 54.5 -211.5t93.5 -67.5q26 0 47 16.5t34.5 51t19 87
t-0.5 124.5z" />
    <glyph glyph-name="Oacute" unicode="&#xd3;" horiz-adv-x="645" 
d="M402 862q14 -16 -7 -34q-23 -18 -44 -33q-17 -14 -35 -27.5t-29 -21.5q-13 -10 -21 -10q-7 0 -14 8l-9 11q-8 9 -5.5 17t12.5 18q9 8 25.5 23.5t33.5 30.5q19 18 41 38q11 9 20 9q8 0 15 -8zM5 350q0 81 22 147t63 112.5t100 72t132 25.5q74 0 132.5 -25.5t99.5 -72
t63 -112.5t22 -147t-22 -147t-63 -112.5t-99.5 -72t-132.5 -25.5q-73 0 -132 25.5t-100 72t-63 112.5t-22 147zM446 350q-6 72 -20 124.5t-34 87t-43.5 51t-49.5 16.5t-47 -16.5t-35 -51t-19.5 -87t0.5 -124.5q13 -144 54.5 -211.5t93.5 -67.5q26 0 47 16.5t34.5 51t19 87
t-0.5 124.5z" />
    <glyph glyph-name="Ocircumflex" unicode="&#xd4;" horiz-adv-x="645" 
d="M432 783q8 -10 10 -17.5t-6 -15.5l-10 -8q-6 -6 -12 -6q-9 0 -20 11q-5 5 -17 16.5t-24 23.5q-14 13 -30 29q-16 -16 -30 -29q-12 -12 -24 -23.5t-18 -16.5q-11 -11 -20 -11q-6 0 -12 6l-9 8q-8 8 -6.5 15.5t9.5 17.5l81 95q8 8 14.5 11t14.5 3t14 -3t14 -11zM5 350
q0 81 22 147t63 112.5t100 72t132 25.5q74 0 132.5 -25.5t99.5 -72t63 -112.5t22 -147t-22 -147t-63 -112.5t-99.5 -72t-132.5 -25.5q-73 0 -132 25.5t-100 72t-63 112.5t-22 147zM446 350q-6 72 -20 124.5t-34 87t-43.5 51t-49.5 16.5t-47 -16.5t-35 -51t-19.5 -87
t0.5 -124.5q13 -144 54.5 -211.5t93.5 -67.5q26 0 47 16.5t34.5 51t19 87t-0.5 124.5z" />
    <glyph glyph-name="Otilde" unicode="&#xd5;" horiz-adv-x="645" 
d="M426 856q6 -2 10 -6.5t2 -10.5q-6 -32 -23 -51.5t-44 -19.5q-12 0 -25 4.5t-26 10t-25 10t-21 4.5q-8 0 -15.5 -4.5t-12.5 -14.5t-15 -8l-12 2q-6 1 -10 6t-2 10q6 32 23.5 51.5t43.5 19.5q12 0 25 -4.5t26 -9.5t25 -9.5t21 -4.5q8 0 15.5 4t12.5 14t15 8zM5 350
q0 81 22 147t63 112.5t100 72t132 25.5q74 0 132.5 -25.5t99.5 -72t63 -112.5t22 -147t-22 -147t-63 -112.5t-99.5 -72t-132.5 -25.5q-73 0 -132 25.5t-100 72t-63 112.5t-22 147zM446 350q-6 72 -20 124.5t-34 87t-43.5 51t-49.5 16.5t-47 -16.5t-35 -51t-19.5 -87
t0.5 -124.5q13 -144 54.5 -211.5t93.5 -67.5q26 0 47 16.5t34.5 51t19 87t-0.5 124.5z" />
    <glyph glyph-name="Odieresis" unicode="&#xd6;" horiz-adv-x="645" 
d="M241 877q29 0 47 -16.5t18 -46.5q0 -31 -18 -47.5t-47 -16.5q-28 0 -46 16.5t-18 47.5q0 30 18 46.5t46 16.5zM404 877q28 0 46 -16.5t18 -46.5q0 -31 -18 -47.5t-46 -16.5q-29 0 -47 16.5t-18 47.5q0 30 18 46.5t47 16.5zM5 350q0 81 22 147t63 112.5t100 72t132 25.5
q74 0 132.5 -25.5t99.5 -72t63 -112.5t22 -147t-22 -147t-63 -112.5t-99.5 -72t-132.5 -25.5q-73 0 -132 25.5t-100 72t-63 112.5t-22 147zM446 350q-6 72 -20 124.5t-34 87t-43.5 51t-49.5 16.5t-47 -16.5t-35 -51t-19.5 -87t0.5 -124.5q13 -144 54.5 -211.5t93.5 -67.5
q26 0 47 16.5t34.5 51t19 87t-0.5 124.5z" />
    <glyph glyph-name="multiply" unicode="&#xd7;" horiz-adv-x="351" 
d="M328 412q9 -9 7.5 -18.5t-12.5 -20.5l-92 -91l92 -92q11 -11 12.5 -20.5t-7.5 -18.5l-22 -22q-7 -7 -15 -7q-10 0 -24 12l-92 92l-91 -92q-13 -12 -24 -12q-8 0 -15 7l-22 22q-9 9 -7.5 18.5t12.5 20.5l92 92l-92 91q-21 23 -5 39l22 22q7 7 15 7q11 0 24 -12l91 -92
l92 92q14 12 24 12q8 0 15 -7z" />
    <glyph glyph-name="Oslash" unicode="&#xd8;" horiz-adv-x="655" 
d="M484 671q77 -42 119 -124t42 -197q0 -81 -22 -147t-63 -112.5t-99.5 -72t-132.5 -25.5q-48 0 -87 10l-16 -43q-6 -15 -14 -23t-22 -8h-30q-24 0 -12 31l25 70q-78 41 -119.5 123t-41.5 197q0 81 22 147t63 112.5t99.5 72t132.5 25.5q48 0 87 -10l15 43q12 31 36 31h30
q24 0 13 -31zM204 350q7 -91 29 -153l143 394q-32 38 -72 38q-25 0 -46.5 -16.5t-35 -51t-19 -87t0.5 -124.5zM351 71q26 0 47 16.5t35 51t19 87t-1 124.5q-4 47 -11 85t-17 68l-144 -394q32 -38 72 -38z" />
    <glyph glyph-name="Ugrave" unicode="&#xd9;" horiz-adv-x="649" 
d="M338 882q21 -20 41 -38q16 -15 32.5 -30.5t25.5 -23.5q10 -10 13 -18t-5 -17l-10 -11q-5 -8 -14 -8q-8 0 -21 10q-10 8 -28 21.5t-36 27.5q-21 15 -44 33q-21 18 -7 34l17 21q7 8 15 8q9 0 21 -9zM580 700q25 0 39.5 -9.5t14.5 -31.5q0 -19 -7.5 -29t-16 -19.5t-16 -21
t-7.5 -33.5v-350q0 -48 -18 -87.5t-51 -67t-80 -43t-105 -15.5q-61 0 -111.5 15t-85.5 43t-54.5 67t-19.5 88v350q0 22 -7.5 33.5t-16 20.5t-16 19.5t-7.5 29.5q0 22 14.5 31.5t39.5 9.5h164q25 0 39.5 -9.5t14.5 -31.5q0 -19 -7.5 -29.5t-16 -19.5t-16 -20.5t-7.5 -33.5
v-329q0 -30 8.5 -55.5t25.5 -44.5t43 -30t60 -11q33 0 57.5 10.5t40.5 29t24 43t8 51.5v336q0 22 -7.5 33.5t-16 20.5t-16 19.5t-7.5 29.5q0 22 14.5 31.5t40.5 9.5h65z" />
    <glyph glyph-name="Uacute" unicode="&#xda;" horiz-adv-x="649" 
d="M444 862q14 -16 -7 -34q-23 -18 -44 -33q-17 -14 -35 -27.5t-29 -21.5q-13 -10 -21 -10q-7 0 -14 8l-9 11q-8 9 -5.5 17t12.5 18q9 8 25.5 23.5t33.5 30.5q19 18 41 38q11 9 20 9q8 0 15 -8zM580 700q25 0 39.5 -9.5t14.5 -31.5q0 -19 -7.5 -29t-16 -19.5t-16 -21
t-7.5 -33.5v-350q0 -48 -18 -87.5t-51 -67t-80 -43t-105 -15.5q-61 0 -111.5 15t-85.5 43t-54.5 67t-19.5 88v350q0 22 -7.5 33.5t-16 20.5t-16 19.5t-7.5 29.5q0 22 14.5 31.5t39.5 9.5h164q25 0 39.5 -9.5t14.5 -31.5q0 -19 -7.5 -29.5t-16 -19.5t-16 -20.5t-7.5 -33.5
v-329q0 -30 8.5 -55.5t25.5 -44.5t43 -30t60 -11q33 0 57.5 10.5t40.5 29t24 43t8 51.5v336q0 22 -7.5 33.5t-16 20.5t-16 19.5t-7.5 29.5q0 22 14.5 31.5t40.5 9.5h65z" />
    <glyph glyph-name="Ucircumflex" unicode="&#xdb;" horiz-adv-x="649" 
d="M474 783q8 -10 10 -17.5t-6 -15.5l-10 -8q-6 -6 -12 -6q-9 0 -20 11q-5 5 -17 16.5t-24 23.5q-14 13 -30 29q-16 -16 -30 -29q-12 -12 -24 -23.5t-18 -16.5q-11 -11 -20 -11q-6 0 -12 6l-9 8q-8 8 -6.5 15.5t9.5 17.5l81 95q8 8 14.5 11t14.5 3t14 -3t14 -11zM580 700
q25 0 39.5 -9.5t14.5 -31.5q0 -19 -7.5 -29t-16 -19.5t-16 -21t-7.5 -33.5v-350q0 -48 -18 -87.5t-51 -67t-80 -43t-105 -15.5q-61 0 -111.5 15t-85.5 43t-54.5 67t-19.5 88v350q0 22 -7.5 33.5t-16 20.5t-16 19.5t-7.5 29.5q0 22 14.5 31.5t39.5 9.5h164q25 0 39.5 -9.5
t14.5 -31.5q0 -19 -7.5 -29.5t-16 -19.5t-16 -20.5t-7.5 -33.5v-329q0 -30 8.5 -55.5t25.5 -44.5t43 -30t60 -11q33 0 57.5 10.5t40.5 29t24 43t8 51.5v336q0 22 -7.5 33.5t-16 20.5t-16 19.5t-7.5 29.5q0 22 14.5 31.5t40.5 9.5h65z" />
    <glyph glyph-name="Udieresis" unicode="&#xdc;" horiz-adv-x="649" 
d="M283 877q29 0 47 -16.5t18 -46.5q0 -31 -18 -47.5t-47 -16.5q-28 0 -46 16.5t-18 47.5q0 30 18 46.5t46 16.5zM446 877q28 0 46 -16.5t18 -46.5q0 -31 -18 -47.5t-46 -16.5q-29 0 -47 16.5t-18 47.5q0 30 18 46.5t47 16.5zM580 700q25 0 39.5 -9.5t14.5 -31.5
q0 -19 -7.5 -29t-16 -19.5t-16 -21t-7.5 -33.5v-350q0 -48 -18 -87.5t-51 -67t-80 -43t-105 -15.5q-61 0 -111.5 15t-85.5 43t-54.5 67t-19.5 88v350q0 22 -7.5 33.5t-16 20.5t-16 19.5t-7.5 29.5q0 22 14.5 31.5t39.5 9.5h164q25 0 39.5 -9.5t14.5 -31.5q0 -19 -7.5 -29.5
t-16 -19.5t-16 -20.5t-7.5 -33.5v-329q0 -30 8.5 -55.5t25.5 -44.5t43 -30t60 -11q33 0 57.5 10.5t40.5 29t24 43t8 51.5v336q0 22 -7.5 33.5t-16 20.5t-16 19.5t-7.5 29.5q0 22 14.5 31.5t40.5 9.5h65z" />
    <glyph glyph-name="Yacute" unicode="&#xdd;" horiz-adv-x="596" 
d="M428 862q14 -15 -8 -34q-23 -18 -44 -33q-17 -14 -35 -27.5t-28 -21.5q-13 -10 -21 -10t-15 8l-9 11q-8 9 -5.5 17t13.5 18q9 8 25.5 23.5t33.5 30.5q19 18 40 38q11 9 21 9q8 0 15 -8zM554 700q20 0 33 -10.5t13 -30.5q0 -15 -6 -25t-15.5 -20t-21.5 -23t-24 -35
l-139 -244v-168q0 -22 7.5 -33.5t16 -20.5t16 -19.5t7.5 -29.5q0 -22 -14.5 -31.5t-39.5 -9.5h-164q-25 0 -39.5 9.5t-14.5 31.5q0 19 7.5 29.5t16 19.5t16 20.5t7.5 33.5v156l-154 256q-12 20 -23.5 32.5t-21.5 22.5t-16 21t-6 27q0 20 13.5 30.5t33.5 10.5h184q28 0 41 -9
t13 -32q0 -16 -7 -27t-12.5 -22.5t-4.5 -26.5t16 -41l83 -136l77 136q16 29 17 45t-4.5 26.5t-13 20t-7.5 25.5q0 23 13 32t41 9h76z" />
    <glyph glyph-name="Thorn" unicode="&#xde;" horiz-adv-x="630" 
d="M313 622q68 0 124.5 -19.5t97 -55t63 -85.5t22.5 -112t-22 -112t-62 -85.5t-96.5 -55t-126.5 -19.5h-67v-37q0 -22 -14.5 -31.5t-40.5 -9.5h-124q-21 2 -33.5 11.5t-12.5 29.5q0 19 7 29.5t16 19.5t16 20.5t7 33.5v412q0 22 -7 33.5t-16 21t-16 19.5t-7 29
q0 20 12.5 29.5t33.5 11.5h124q26 0 40.5 -9.5t14.5 -31.5v-37h67zM315 157q27 0 49.5 11.5t38.5 35t22.5 60t1.5 86.5t-21 86.5t-37.5 60t-46 35t-48.5 11.5q-12 0 -20 -10.5t-8 -29.5v-281q0 -27 12 -46t34 -19h23z" />
    <glyph glyph-name="germandbls" unicode="&#xdf;" horiz-adv-x="618" 
d="M434 380q88 -18 130.5 -67.5t42.5 -117.5q0 -90 -68 -139t-207 -49h-28q-31 0 -31 24v30q0 25 31 25h36q22 0 40.5 6.5t30.5 20.5t16.5 36.5t-0.5 55.5q-10 66 -45.5 96.5t-77.5 30.5q-31 0 -31 24v30q0 25 31 25q44 0 70.5 25.5t16.5 79.5q-5 27 -17 47t-27 33t-31 19.5
t-29 6.5q-23 0 -33.5 -22t-10.5 -61v-498q0 -22 -14.5 -31.5t-39.5 -9.5h-117q-25 0 -39.5 9.5t-14.5 31.5q0 19 7.5 29.5t16 19.5t16 20.5t7.5 33.5v311q0 47 17 91.5t50.5 78.5t82 54.5t111.5 20.5q115 0 180.5 -47t65.5 -126q0 -53 -35.5 -91.5t-102.5 -55.5z" />
    <glyph glyph-name="agrave" unicode="&#xe0;" horiz-adv-x="543" 
d="M231 745q21 -20 41 -38q17 -15 33.5 -30.5t25.5 -23.5q10 -10 12.5 -18t-5.5 -17l-9 -11q-7 -8 -15 -8t-21 10q-10 8 -28 21.5t-35 27.5q-21 15 -44 33q-22 19 -8 34l17 21q7 8 15 8q11 0 21 -9zM531 157q9 0 13 -9t4 -17q0 -24 -6.5 -48.5t-20 -44.5t-35.5 -32.5
t-54 -12.5q-42 0 -71 23.5t-40 75.5q-23 -44 -63 -71.5t-100 -27.5q-62 0 -102 34.5t-40 97.5q0 39 15 74t48 61t85 41.5t126 15.5h14l-5 67q-4 55 -21.5 85t-46.5 30q-21 0 -35 -21.5t-19 -69.5q-2 -19 -12 -30.5t-32 -11.5q-16 0 -33 5t-31 14.5t-23 24.5t-9 34
q0 17 13.5 38.5t40.5 41t68 33t96 13.5q91 0 142 -43t57 -112l20 -236q2 -20 7.5 -32t16.5 -12q8 0 11.5 3.5t6 7.5t6 7.5t9.5 3.5zM239 107q33 0 51.5 32.5t18.5 103.5l-2 27h-17q-33 0 -53.5 -11.5t-32 -29t-14.5 -37.5t0 -37q3 -24 17 -36t32 -12z" />
    <glyph glyph-name="aacute" unicode="&#xe1;" horiz-adv-x="543" 
d="M338 725q14 -15 -8 -34q-23 -18 -44 -33q-17 -14 -35 -27.5t-28 -21.5q-13 -10 -21 -10t-15 8l-9 11q-8 9 -5.5 17t13.5 18q9 8 25.5 23.5t33.5 30.5q19 18 40 38q11 9 21 9q8 0 15 -8zM531 157q9 0 13 -9t4 -17q0 -24 -6.5 -48.5t-20 -44.5t-35.5 -32.5t-54 -12.5
q-42 0 -71 23.5t-40 75.5q-23 -44 -63 -71.5t-100 -27.5q-62 0 -102 34.5t-40 97.5q0 39 15 74t48 61t85 41.5t126 15.5h14l-5 67q-4 55 -21.5 85t-46.5 30q-21 0 -35 -21.5t-19 -69.5q-2 -19 -12 -30.5t-32 -11.5q-16 0 -33 5t-31 14.5t-23 24.5t-9 34q0 17 13.5 38.5
t40.5 41t68 33t96 13.5q91 0 142 -43t57 -112l20 -236q2 -20 7.5 -32t16.5 -12q8 0 11.5 3.5t6 7.5t6 7.5t9.5 3.5zM239 107q33 0 51.5 32.5t18.5 103.5l-2 27h-17q-33 0 -53.5 -11.5t-32 -29t-14.5 -37.5t0 -37q3 -24 17 -36t32 -12z" />
    <glyph glyph-name="acircumflex" unicode="&#xe2;" horiz-adv-x="543" 
d="M368 646q17 -19 3 -33l-9 -8q-7 -6 -13 -6q-9 0 -20 11q-5 5 -17 16.5t-24 23.5q-14 13 -30 29q-16 -16 -30 -29l-23.5 -23.5t-17.5 -16.5q-11 -11 -20 -11q-6 0 -12 6l-10 8q-13 14 3 33l81 95q8 8 14.5 11t14.5 3t14.5 -3t14.5 -11zM531 157q9 0 13 -9t4 -17
q0 -24 -6.5 -48.5t-20 -44.5t-35.5 -32.5t-54 -12.5q-42 0 -71 23.5t-40 75.5q-23 -44 -63 -71.5t-100 -27.5q-62 0 -102 34.5t-40 97.5q0 39 15 74t48 61t85 41.5t126 15.5h14l-5 67q-4 55 -21.5 85t-46.5 30q-21 0 -35 -21.5t-19 -69.5q-2 -19 -12 -30.5t-32 -11.5
q-16 0 -33 5t-31 14.5t-23 24.5t-9 34q0 17 13.5 38.5t40.5 41t68 33t96 13.5q91 0 142 -43t57 -112l20 -236q2 -20 7.5 -32t16.5 -12q8 0 11.5 3.5t6 7.5t6 7.5t9.5 3.5zM239 107q33 0 51.5 32.5t18.5 103.5l-2 27h-17q-33 0 -53.5 -11.5t-32 -29t-14.5 -37.5t0 -37
q3 -24 17 -36t32 -12z" />
    <glyph glyph-name="atilde" unicode="&#xe3;" horiz-adv-x="543" 
d="M362 719q14 -3 12 -17q-6 -32 -23.5 -51.5t-44.5 -19.5q-12 0 -25 4.5t-25.5 10t-24.5 10t-21 4.5q-8 0 -15.5 -4.5t-12.5 -14.5t-16 -8l-12 2q-6 1 -9.5 6t-2.5 10q7 32 24 51.5t44 19.5q12 0 25 -4.5t25.5 -9.5t24.5 -9.5t21 -4.5q19 0 29 18q3 10 15 8zM531 157
q9 0 13 -9t4 -17q0 -24 -6.5 -48.5t-20 -44.5t-35.5 -32.5t-54 -12.5q-42 0 -71 23.5t-40 75.5q-23 -44 -63 -71.5t-100 -27.5q-62 0 -102 34.5t-40 97.5q0 39 15 74t48 61t85 41.5t126 15.5h14l-5 67q-4 55 -21.5 85t-46.5 30q-21 0 -35 -21.5t-19 -69.5q-2 -19 -12 -30.5
t-32 -11.5q-16 0 -33 5t-31 14.5t-23 24.5t-9 34q0 17 13.5 38.5t40.5 41t68 33t96 13.5q91 0 142 -43t57 -112l20 -236q2 -20 7.5 -32t16.5 -12q8 0 11.5 3.5t6 7.5t6 7.5t9.5 3.5zM239 107q33 0 51.5 32.5t18.5 103.5l-2 27h-17q-33 0 -53.5 -11.5t-32 -29t-14.5 -37.5
t0 -37q3 -24 17 -36t32 -12z" />
    <glyph glyph-name="adieresis" unicode="&#xe4;" horiz-adv-x="543" 
d="M177 740q28 0 46 -16.5t18 -46.5q0 -31 -18 -47.5t-46 -16.5q-29 0 -47 16.5t-18 47.5q0 30 18 46.5t47 16.5zM339 740q29 0 47 -16.5t18 -46.5q0 -31 -18 -47.5t-47 -16.5q-28 0 -46 16.5t-18 47.5q0 30 18 46.5t46 16.5zM531 157q9 0 13 -9t4 -17q0 -24 -6.5 -48.5
t-20 -44.5t-35.5 -32.5t-54 -12.5q-42 0 -71 23.5t-40 75.5q-23 -44 -63 -71.5t-100 -27.5q-62 0 -102 34.5t-40 97.5q0 39 15 74t48 61t85 41.5t126 15.5h14l-5 67q-4 55 -21.5 85t-46.5 30q-21 0 -35 -21.5t-19 -69.5q-2 -19 -12 -30.5t-32 -11.5q-16 0 -33 5t-31 14.5
t-23 24.5t-9 34q0 17 13.5 38.5t40.5 41t68 33t96 13.5q91 0 142 -43t57 -112l20 -236q2 -20 7.5 -32t16.5 -12q8 0 11.5 3.5t6 7.5t6 7.5t9.5 3.5zM239 107q33 0 51.5 32.5t18.5 103.5l-2 27h-17q-33 0 -53.5 -11.5t-32 -29t-14.5 -37.5t0 -37q3 -24 17 -36t32 -12z" />
    <glyph glyph-name="aring" unicode="&#xe5;" horiz-adv-x="543" 
d="M531 157q9 0 12.5 -9t3.5 -17q0 -24 -6 -48.5t-20 -44.5t-35.5 -32.5t-53.5 -12.5q-42 0 -71 23.5t-40 75.5q-23 -44 -63 -71.5t-100 -27.5q-62 0 -102 34.5t-40 97.5q0 39 15 74t48 61t85 41.5t126 15.5h14l-5 67q-4 55 -21.5 85t-46.5 30q-21 0 -35 -21.5t-19 -69.5
q-2 -19 -12 -30.5t-32 -11.5q-16 0 -33 5t-31 14.5t-23 24.5t-9 34q0 15 11 34t33.5 37.5t55.5 33t78 19.5q-29 10 -45.5 33.5t-16.5 61.5q0 48 27.5 74t71.5 26q43 0 70.5 -26t27.5 -74q0 -37 -16.5 -61t-44.5 -34q75 -8 117.5 -49.5t47.5 -103.5l20 -236q2 -20 7.5 -32
t16.5 -12q8 0 11.5 3.5t6 7.5t6 7.5t9.5 3.5zM252 594q29 0 48 18t19 51t-19 50.5t-48 17.5t-48.5 -17.5t-19.5 -50.5t19.5 -51t48.5 -18zM239 107q33 0 51.5 32.5t18.5 103.5l-2 27h-17q-33 0 -53.5 -11.5t-32 -29t-14.5 -37.5t0 -37q3 -24 17 -36t32 -12z" />
    <glyph glyph-name="ae" unicode="&#xe6;" horiz-adv-x="755" 
d="M739 408q0 -81 -67.5 -123t-210.5 -43q8 -39 22 -64.5t32 -40.5t38.5 -21.5t39.5 -6.5q34 0 53.5 9.5t31.5 21.5l21.5 21.5t22.5 9.5q9 0 13 -6t4 -15q0 -21 -13 -48.5t-38.5 -51.5t-63 -40.5t-87.5 -16.5q-75 0 -128.5 32t-83.5 91q-20 -52 -59.5 -87.5t-107.5 -35.5
q-63 0 -102.5 34.5t-39.5 97.5q0 39 15 74t48 61t85 41.5t126 15.5v67q0 51 -15.5 83t-44.5 32q-20 0 -34 -21.5t-20 -69.5q-2 -19 -12 -30.5t-32 -11.5q-16 0 -33 5t-30.5 14.5t-22.5 24.5t-9 34q0 17 13.5 38.5t40.5 41t68 33t95 13.5q48 0 84.5 -12t61.5 -32
q31 21 67.5 32.5t78.5 11.5q45 0 81 -13t60.5 -35t38 -51.5t13.5 -62.5zM455 290q72 1 105 26t33 74q0 25 -6.5 45t-16 34.5t-22 22t-24.5 7.5q-18 0 -31 -13t-21.5 -36.5t-13 -55t-4.5 -67.5v-19.5t1 -17.5zM233 107q29 0 43 32.5t14 103.5v27q-33 0 -54 -11.5t-32 -29
t-14 -37.5t-1 -37q4 -24 16 -36t28 -12z" />
    <glyph glyph-name="ccedilla" unicode="&#xe7;" 
d="M259 -7q-22 0 -43 3l-8 -46q8 6 19 10t25 4q42 0 63 -26t21 -68q0 -21 -6.5 -42.5t-20 -38t-34 -27t-48.5 -10.5q-29 0 -49.5 11t-31.5 21q-6 5 -6.5 12.5t4.5 12.5l7 7q5 6 12.5 6.5t12.5 -4.5q8 -8 21 -15.5t29 -7.5q18 0 29.5 23t6.5 57q-5 33 -15.5 42.5t-19.5 9.5
q-11 0 -17 -7.5t-11 -16.5t-11 -16.5t-17 -7.5h-9q-23 0 -20 25l20 106q-73 28 -112 98.5t-39 173.5q0 66 20 119t55 90.5t83 58t105 20.5q39 0 73.5 -11t59.5 -28.5t39.5 -40t14.5 -46.5q0 -16 -9.5 -30.5t-23.5 -25t-31 -16.5t-32 -6q-23 0 -31.5 11.5t-12.5 30.5
q-9 48 -27 69.5t-42 21.5q-18 0 -32.5 -13t-24 -36.5t-15 -55t-5.5 -67.5q0 -64 12.5 -106.5t33 -67t45 -34.5t48.5 -10q34 0 53.5 9.5t32 21.5t22 21.5t22.5 9.5q8 0 12.5 -6t4.5 -15q0 -21 -13 -48.5t-38.5 -51.5t-63.5 -40.5t-87 -16.5z" />
    <glyph glyph-name="egrave" unicode="&#xe8;" 
d="M211 745q21 -20 41 -38q17 -15 33.5 -30.5t25.5 -23.5q10 -10 12.5 -18t-5.5 -17l-9 -11q-7 -8 -15 -8t-21 10q-10 8 -28 21.5t-35 27.5q-21 15 -44 33q-22 19 -8 34l17 21q7 8 15 8q11 0 21 -9zM461 150q0 -21 -13 -48.5t-38.5 -51.5t-63.5 -40.5t-87 -16.5
q-59 0 -105.5 20.5t-78 58t-48 91t-16.5 119.5t19 119t53.5 90.5t81.5 58t102 20.5q45 0 81 -13t61 -35t38.5 -51.5t13.5 -62.5q0 -81 -68 -123t-211 -43q8 -39 22 -64.5t32 -40.5t38.5 -21.5t39.5 -6.5q34 0 53.5 9.5t32 21.5t22 21.5t22.5 9.5q8 0 12.5 -6t4.5 -15z
M245 499q-18 0 -31 -13t-21.5 -36.5t-13 -55t-4.5 -67.5v-19.5t1 -17.5q72 1 105 26t33 74q0 25 -6.5 45t-16 34.5t-22 22t-24.5 7.5z" />
    <glyph glyph-name="eacute" unicode="&#xe9;" 
d="M318 725q14 -15 -8 -34q-23 -18 -44 -33q-17 -14 -35 -27.5t-28 -21.5q-13 -10 -21 -10t-15 8l-9 11q-8 9 -5.5 17t13.5 18q9 8 25.5 23.5t33.5 30.5q19 18 40 38q11 9 21 9q8 0 15 -8zM461 150q0 -21 -13 -48.5t-38.5 -51.5t-63.5 -40.5t-87 -16.5q-59 0 -105.5 20.5
t-78 58t-48 91t-16.5 119.5t19 119t53.5 90.5t81.5 58t102 20.5q45 0 81 -13t61 -35t38.5 -51.5t13.5 -62.5q0 -81 -68 -123t-211 -43q8 -39 22 -64.5t32 -40.5t38.5 -21.5t39.5 -6.5q34 0 53.5 9.5t32 21.5t22 21.5t22.5 9.5q8 0 12.5 -6t4.5 -15zM245 499q-18 0 -31 -13
t-21.5 -36.5t-13 -55t-4.5 -67.5v-19.5t1 -17.5q72 1 105 26t33 74q0 25 -6.5 45t-16 34.5t-22 22t-24.5 7.5z" />
    <glyph glyph-name="ecircumflex" unicode="&#xea;" 
d="M348 646q17 -19 3 -33l-9 -8q-7 -6 -13 -6q-9 0 -20 11q-5 5 -17 16.5t-24 23.5q-14 13 -30 29q-16 -16 -30 -29l-23.5 -23.5t-17.5 -16.5q-11 -11 -20 -11q-6 0 -12 6l-10 8q-13 14 3 33l81 95q8 8 14.5 11t14.5 3t14.5 -3t14.5 -11zM461 150q0 -21 -13 -48.5
t-38.5 -51.5t-63.5 -40.5t-87 -16.5q-59 0 -105.5 20.5t-78 58t-48 91t-16.5 119.5t19 119t53.5 90.5t81.5 58t102 20.5q45 0 81 -13t61 -35t38.5 -51.5t13.5 -62.5q0 -81 -68 -123t-211 -43q8 -39 22 -64.5t32 -40.5t38.5 -21.5t39.5 -6.5q34 0 53.5 9.5t32 21.5t22 21.5
t22.5 9.5q8 0 12.5 -6t4.5 -15zM245 499q-18 0 -31 -13t-21.5 -36.5t-13 -55t-4.5 -67.5v-19.5t1 -17.5q72 1 105 26t33 74q0 25 -6.5 45t-16 34.5t-22 22t-24.5 7.5z" />
    <glyph glyph-name="edieresis" unicode="&#xeb;" 
d="M157 740q28 0 46 -16.5t18 -46.5q0 -31 -18 -47.5t-46 -16.5q-29 0 -47 16.5t-18 47.5q0 30 18 46.5t47 16.5zM319 740q29 0 47 -16.5t18 -46.5q0 -31 -18 -47.5t-47 -16.5q-28 0 -46 16.5t-18 47.5q0 30 18 46.5t46 16.5zM461 150q0 -21 -13 -48.5t-38.5 -51.5
t-63.5 -40.5t-87 -16.5q-59 0 -105.5 20.5t-78 58t-48 91t-16.5 119.5t19 119t53.5 90.5t81.5 58t102 20.5q45 0 81 -13t61 -35t38.5 -51.5t13.5 -62.5q0 -81 -68 -123t-211 -43q8 -39 22 -64.5t32 -40.5t38.5 -21.5t39.5 -6.5q34 0 53.5 9.5t32 21.5t22 21.5t22.5 9.5
q8 0 12.5 -6t4.5 -15zM245 499q-18 0 -31 -13t-21.5 -36.5t-13 -55t-4.5 -67.5v-19.5t1 -17.5q72 1 105 26t33 74q0 25 -6.5 45t-16 34.5t-22 22t-24.5 7.5z" />
    <glyph glyph-name="igrave" unicode="&#xec;" horiz-adv-x="296" 
d="M121 745q21 -20 41 -38q17 -15 33.5 -30.5t25.5 -23.5q10 -10 12.5 -18t-5.5 -17l-9 -11q-7 -8 -15 -8t-21 10q-10 8 -28 21.5t-35 27.5q-21 15 -44 33q-22 19 -8 34l17 21q7 8 15 8q11 0 21 -9zM232 144q0 -22 7.5 -33.5t16 -20.5t16 -19.5t7.5 -29.5q0 -41 -51 -41
h-157q-50 0 -50 41q0 19 7.5 29.5t16 19.5t16 20.5t7.5 33.5v240q0 22 -7.5 33.5t-16 19.5t-16 17t-7.5 25q0 20 19 36.5t44.5 28.5t52 19t41.5 7q25 0 39.5 -10.5t14.5 -37.5v-378z" />
    <glyph glyph-name="iacute" unicode="&#xed;" horiz-adv-x="296" 
d="M228 725q14 -15 -8 -34q-23 -18 -44 -33q-17 -14 -35 -27.5t-28 -21.5q-13 -10 -21 -10t-15 8l-9 11q-8 9 -5.5 17t13.5 18q9 8 25.5 23.5t33.5 30.5q19 18 40 38q11 9 21 9q8 0 15 -8zM232 144q0 -22 7.5 -33.5t16 -20.5t16 -19.5t7.5 -29.5q0 -41 -51 -41h-157
q-50 0 -50 41q0 19 7.5 29.5t16 19.5t16 20.5t7.5 33.5v240q0 22 -7.5 33.5t-16 19.5t-16 17t-7.5 25q0 20 19 36.5t44.5 28.5t52 19t41.5 7q25 0 39.5 -10.5t14.5 -37.5v-378z" />
    <glyph glyph-name="icircumflex" unicode="&#xee;" horiz-adv-x="296" 
d="M258 646q17 -19 3 -33l-9 -8q-7 -6 -13 -6q-9 0 -20 11q-5 5 -17 16.5t-24 23.5q-14 13 -30 29q-16 -16 -30 -29l-23.5 -23.5t-17.5 -16.5q-11 -11 -20 -11q-6 0 -12 6l-10 8q-13 14 3 33l81 95q8 8 14.5 11t14.5 3t14.5 -3t14.5 -11zM232 144q0 -22 7.5 -33.5t16 -20.5
t16 -19.5t7.5 -29.5q0 -41 -51 -41h-157q-50 0 -50 41q0 19 7.5 29.5t16 19.5t16 20.5t7.5 33.5v240q0 22 -7.5 33.5t-16 19.5t-16 17t-7.5 25q0 20 19 36.5t44.5 28.5t52 19t41.5 7q25 0 39.5 -10.5t14.5 -37.5v-378z" />
    <glyph glyph-name="idieresis" unicode="&#xef;" horiz-adv-x="296" 
d="M67 740q28 0 46.5 -16.5t18.5 -46.5q0 -31 -18.5 -47.5t-46.5 -16.5q-29 0 -47 16.5t-18 47.5q0 30 18 46.5t47 16.5zM229 740q29 0 47 -16.5t18 -46.5q0 -31 -18 -47.5t-47 -16.5q-28 0 -46 16.5t-18 47.5q0 30 18 46.5t46 16.5zM232 144q0 -22 7.5 -33.5t16 -20.5
t16 -19.5t7.5 -29.5q0 -41 -51 -41h-157q-50 0 -50 41q0 19 7.5 29.5t16 19.5t16 20.5t7.5 33.5v240q0 22 -7.5 33.5t-16 19.5t-16 17t-7.5 25q0 20 19 36.5t44.5 28.5t52 19t41.5 7q25 0 39.5 -10.5t14.5 -37.5v-378z" />
    <glyph glyph-name="ntilde" unicode="&#xf1;" horiz-adv-x="597" 
d="M402 719q6 -2 10 -6.5t2 -10.5q-6 -32 -23 -51.5t-44 -19.5q-12 0 -25 4.5t-26 10t-25 10t-21 4.5q-8 0 -15.5 -4.5t-12.5 -14.5t-15 -8l-12 2q-6 1 -10 6t-2 10q6 32 23.5 51.5t43.5 19.5q12 0 25 -4.5t26 -9.5t25 -9.5t21 -4.5q8 0 15.5 4t12.5 14t15 8zM71 0
q-50 0 -50 41q0 19 7.5 29.5t16 19.5t16 20.5t7.5 33.5v240q0 22 -7.5 33t-16 19.5t-16 17t-7.5 25.5q0 20 19 36.5t44.5 28.5t52 19t41.5 7q25 0 39.5 -10.5t14.5 -37.5v-79q9 27 23 50t34.5 40t47 27t61.5 10q38 0 63 -12.5t40.5 -33.5t23 -49t9.5 -60l20 -271
q2 -22 9.5 -33.5t16 -20.5t15 -19.5t6.5 -29.5q0 -41 -50 -41h-157q-50 0 -50 41q0 19 8 29.5t17 19.5t16.5 20.5t5.5 33.5l-20 240q-4 38 -12 55t-31 17q-26 0 -44.5 -19t-30 -49t-16.5 -66.5t-5 -70.5v-107q0 -22 7.5 -33.5t16 -20.5t16 -19.5t7.5 -29.5q0 -41 -51 -41
h-157z" />
    <glyph glyph-name="ograve" unicode="&#xf2;" horiz-adv-x="534" 
d="M240 745q21 -20 41 -38q17 -15 33.5 -30.5t25.5 -23.5q10 -10 12.5 -18t-5.5 -17l-9 -11q-7 -8 -15 -8t-21 10q-10 8 -28 21.5t-35 27.5q-21 15 -44 33q-22 19 -8 34l17 21q7 8 15 8q11 0 21 -9zM267 -7q-55 0 -102 19t-81.5 56t-53.5 91t-19 123t19 122.5t53.5 90.5
t81.5 56t102 19q56 0 103 -19t81 -56t53 -90.5t19 -122.5t-19 -123t-53 -91t-81 -56t-103 -19zM247 499q-17 0 -30.5 -15.5t-22 -43.5t-11 -68t1.5 -90q5 -50 15 -90t23.5 -68.5t30 -44t33.5 -15.5q35 0 53.5 59t9.5 159q-5 50 -15 90t-24 68t-30.5 43.5t-33.5 15.5z" />
    <glyph glyph-name="oacute" unicode="&#xf3;" horiz-adv-x="534" 
d="M347 725q14 -15 -8 -34q-23 -18 -44 -33q-17 -14 -35 -27.5t-28 -21.5q-13 -10 -21 -10t-15 8l-9 11q-8 9 -5.5 17t13.5 18q9 8 25.5 23.5t33.5 30.5q19 18 40 38q11 9 21 9q8 0 15 -8zM267 -7q-55 0 -102 19t-81.5 56t-53.5 91t-19 123t19 122.5t53.5 90.5t81.5 56
t102 19q56 0 103 -19t81 -56t53 -90.5t19 -122.5t-19 -123t-53 -91t-81 -56t-103 -19zM247 499q-17 0 -30.5 -15.5t-22 -43.5t-11 -68t1.5 -90q5 -50 15 -90t23.5 -68.5t30 -44t33.5 -15.5q35 0 53.5 59t9.5 159q-5 50 -15 90t-24 68t-30.5 43.5t-33.5 15.5z" />
    <glyph glyph-name="ocircumflex" unicode="&#xf4;" horiz-adv-x="534" 
d="M377 646q17 -19 3 -33l-9 -8q-7 -6 -13 -6q-9 0 -20 11q-5 5 -17 16.5t-24 23.5q-14 13 -30 29q-16 -16 -30 -29l-23.5 -23.5t-17.5 -16.5q-11 -11 -20 -11q-6 0 -12 6l-10 8q-13 14 3 33l81 95q8 8 14.5 11t14.5 3t14.5 -3t14.5 -11zM267 -7q-55 0 -102 19t-81.5 56
t-53.5 91t-19 123t19 122.5t53.5 90.5t81.5 56t102 19q56 0 103 -19t81 -56t53 -90.5t19 -122.5t-19 -123t-53 -91t-81 -56t-103 -19zM247 499q-17 0 -30.5 -15.5t-22 -43.5t-11 -68t1.5 -90q5 -50 15 -90t23.5 -68.5t30 -44t33.5 -15.5q35 0 53.5 59t9.5 159q-5 50 -15 90
t-24 68t-30.5 43.5t-33.5 15.5z" />
    <glyph glyph-name="otilde" unicode="&#xf5;" horiz-adv-x="534" 
d="M371 719q14 -3 12 -17q-6 -32 -23.5 -51.5t-44.5 -19.5q-12 0 -25 4.5t-25.5 10t-24.5 10t-21 4.5q-8 0 -15.5 -4.5t-12.5 -14.5t-16 -8l-12 2q-6 1 -9.5 6t-2.5 10q7 32 24 51.5t44 19.5q12 0 25 -4.5t25.5 -9.5t24.5 -9.5t21 -4.5q19 0 29 18q3 10 15 8zM267 -7
q-55 0 -102 19t-81.5 56t-53.5 91t-19 123t19 122.5t53.5 90.5t81.5 56t102 19q56 0 103 -19t81 -56t53 -90.5t19 -122.5t-19 -123t-53 -91t-81 -56t-103 -19zM247 499q-17 0 -30.5 -15.5t-22 -43.5t-11 -68t1.5 -90q5 -50 15 -90t23.5 -68.5t30 -44t33.5 -15.5
q35 0 53.5 59t9.5 159q-5 50 -15 90t-24 68t-30.5 43.5t-33.5 15.5z" />
    <glyph glyph-name="odieresis" unicode="&#xf6;" horiz-adv-x="534" 
d="M186 740q28 0 46 -16.5t18 -46.5q0 -31 -18 -47.5t-46 -16.5q-29 0 -47 16.5t-18 47.5q0 30 18 46.5t47 16.5zM348 740q29 0 47 -16.5t18 -46.5q0 -31 -18 -47.5t-47 -16.5q-28 0 -46 16.5t-18 47.5q0 30 18 46.5t46 16.5zM267 -7q-55 0 -102 19t-81.5 56t-53.5 91
t-19 123t19 122.5t53.5 90.5t81.5 56t102 19q56 0 103 -19t81 -56t53 -90.5t19 -122.5t-19 -123t-53 -91t-81 -56t-103 -19zM247 499q-17 0 -30.5 -15.5t-22 -43.5t-11 -68t1.5 -90q5 -50 15 -90t23.5 -68.5t30 -44t33.5 -15.5q35 0 53.5 59t9.5 159q-5 50 -15 90t-24 68
t-30.5 43.5t-33.5 15.5z" />
    <glyph glyph-name="divide" unicode="&#xf7;" horiz-adv-x="431" 
d="M216 339q-35 0 -58 20.5t-23 58.5t23 59t58 21t58 -21t23 -59t-23 -58.5t-58 -20.5zM385 321q31 0 31 -25v-29q0 -25 -31 -25h-338q-31 0 -31 25v29q0 25 31 25h338zM216 224q35 0 58 -20.5t23 -58.5t-23 -59t-58 -21t-58 21t-23 59t23 58.5t58 20.5z" />
    <glyph glyph-name="oslash" unicode="&#xf8;" horiz-adv-x="534" 
d="M399 536q57 -33 90.5 -97t33.5 -157q0 -69 -19 -123t-53.5 -91t-81 -56t-102.5 -19q-35 0 -64 7l-14 -40q-11 -31 -36 -31h-30q-24 0 -12 31l24 67q-57 33 -90.5 97.5t-33.5 157.5q0 69 19 122.5t53 90.5t81 56t103 19q35 0 63 -7l15 40q11 31 35 31h30q24 0 13 -31z
M184 282q2 -23 5.5 -43.5t7.5 -39.5l98 267q-24 33 -48 33q-17 0 -31 -15.5t-22.5 -43.5t-11 -68t1.5 -90zM287 64q34 0 52.5 59t9.5 159q-2 23 -5 43.5t-8 38.5l-97 -267q24 -33 48 -33z" />
    <glyph glyph-name="ugrave" unicode="&#xf9;" horiz-adv-x="579" 
d="M263 745q21 -20 41 -38q16 -15 32.5 -30.5t25.5 -23.5q10 -10 13 -18t-5 -17l-10 -11q-5 -8 -14 -8q-8 0 -21 10q-10 8 -28 21.5t-36 27.5q-21 15 -44 33q-21 18 -7 34l17 21q7 8 15 8q9 0 21 -9zM516 179q0 -22 7.5 -33t16 -19.5t16 -17t7.5 -25.5q0 -19 -18.5 -36
t-44 -29t-52 -19t-41.5 -7q-25 0 -39.5 10.5t-14.5 37.5v64q-21 -48 -59 -80t-100 -32q-37 0 -63.5 12.5t-42.5 33.5t-23.5 49t-7.5 60v236q0 22 -7.5 33t-16 19.5t-16 17t-7.5 25.5q0 20 19 36.5t44.5 28.5t52 19t41.5 7q25 0 39.5 -10.5t14.5 -37.5v-343q0 -38 9.5 -55
t32.5 -17q24 0 41 19t28 49t16 66.5t5 70.5v72q0 22 -7.5 33.5t-16 19.5t-16 17t-7.5 25q0 20 18.5 36.5t44 28.5t52 19t41.5 7q25 0 39.5 -10.5t14.5 -37.5v-343z" />
    <glyph glyph-name="uacute" unicode="&#xfa;" horiz-adv-x="579" 
d="M369 725q14 -16 -7 -34q-23 -18 -44 -33q-17 -14 -35 -27.5t-29 -21.5q-13 -10 -21 -10q-7 0 -14 8l-9 11q-8 9 -5.5 17t12.5 18q9 8 25.5 23.5t33.5 30.5q19 18 41 38q11 9 20 9q8 0 15 -8zM516 179q0 -22 7.5 -33t16 -19.5t16 -17t7.5 -25.5q0 -19 -18.5 -36t-44 -29
t-52 -19t-41.5 -7q-25 0 -39.5 10.5t-14.5 37.5v64q-21 -48 -59 -80t-100 -32q-37 0 -63.5 12.5t-42.5 33.5t-23.5 49t-7.5 60v236q0 22 -7.5 33t-16 19.5t-16 17t-7.5 25.5q0 20 19 36.5t44.5 28.5t52 19t41.5 7q25 0 39.5 -10.5t14.5 -37.5v-343q0 -38 9.5 -55t32.5 -17
q24 0 41 19t28 49t16 66.5t5 70.5v72q0 22 -7.5 33.5t-16 19.5t-16 17t-7.5 25q0 20 18.5 36.5t44 28.5t52 19t41.5 7q25 0 39.5 -10.5t14.5 -37.5v-343z" />
    <glyph glyph-name="ucircumflex" unicode="&#xfb;" horiz-adv-x="579" 
d="M399 646q8 -10 10 -17.5t-6 -15.5l-10 -8q-6 -6 -12 -6q-9 0 -20 11q-5 5 -17 16.5t-24 23.5q-14 13 -30 29q-16 -16 -30 -29q-12 -12 -24 -23.5t-18 -16.5q-11 -11 -20 -11q-6 0 -12 6l-9 8q-8 8 -6.5 15.5t9.5 17.5l81 95q8 8 14.5 11t14.5 3t14 -3t14 -11zM516 179
q0 -22 7.5 -33t16 -19.5t16 -17t7.5 -25.5q0 -19 -18.5 -36t-44 -29t-52 -19t-41.5 -7q-25 0 -39.5 10.5t-14.5 37.5v64q-21 -48 -59 -80t-100 -32q-37 0 -63.5 12.5t-42.5 33.5t-23.5 49t-7.5 60v236q0 22 -7.5 33t-16 19.5t-16 17t-7.5 25.5q0 20 19 36.5t44.5 28.5t52 19
t41.5 7q25 0 39.5 -10.5t14.5 -37.5v-343q0 -38 9.5 -55t32.5 -17q24 0 41 19t28 49t16 66.5t5 70.5v72q0 22 -7.5 33.5t-16 19.5t-16 17t-7.5 25q0 20 18.5 36.5t44 28.5t52 19t41.5 7q25 0 39.5 -10.5t14.5 -37.5v-343z" />
    <glyph glyph-name="udieresis" unicode="&#xfc;" horiz-adv-x="579" 
d="M208 740q29 0 47 -16.5t18 -46.5q0 -31 -18 -47.5t-47 -16.5q-28 0 -46 16.5t-18 47.5q0 30 18 46.5t46 16.5zM371 740q28 0 46 -16.5t18 -46.5q0 -31 -18 -47.5t-46 -16.5q-29 0 -47 16.5t-18 47.5q0 30 18 46.5t47 16.5zM516 179q0 -22 7.5 -33t16 -19.5t16 -17
t7.5 -25.5q0 -19 -18.5 -36t-44 -29t-52 -19t-41.5 -7q-25 0 -39.5 10.5t-14.5 37.5v64q-21 -48 -59 -80t-100 -32q-37 0 -63.5 12.5t-42.5 33.5t-23.5 49t-7.5 60v236q0 22 -7.5 33t-16 19.5t-16 17t-7.5 25.5q0 20 19 36.5t44.5 28.5t52 19t41.5 7q25 0 39.5 -10.5
t14.5 -37.5v-343q0 -38 9.5 -55t32.5 -17q24 0 41 19t28 49t16 66.5t5 70.5v72q0 22 -7.5 33.5t-16 19.5t-16 17t-7.5 25q0 20 18.5 36.5t44 28.5t52 19t41.5 7q25 0 39.5 -10.5t14.5 -37.5v-343z" />
    <glyph glyph-name="yacute" unicode="&#xfd;" horiz-adv-x="519" 
d="M369 725q14 -16 -7 -34q-23 -18 -44 -33q-17 -14 -35 -27.5t-29 -21.5q-13 -10 -21 -10q-7 0 -14 8l-9 11q-8 9 -5.5 17t12.5 18q9 8 25.5 23.5t33.5 30.5q19 18 41 38q11 9 20 9q8 0 15 -8zM434 570q22 0 36.5 -6.5t23 -17t12 -23.5t3.5 -26q0 -22 -7.5 -51.5
t-23.5 -77.5l-143 -413q-10 -31 -24 -58.5t-33.5 -48.5t-47.5 -33.5t-67 -12.5t-69.5 11t-50.5 27t-30.5 33.5t-10.5 31.5q0 16 8 30.5t20.5 25t28 16.5t30.5 6q20 0 29.5 -8.5t14.5 -26.5q3 -11 6 -25.5t8.5 -27t13.5 -21t22 -8.5q1 0 1.5 0.5t1.5 0.5q11 1 21.5 11
t10.5 33q0 45 -14.5 95.5t-40.5 116.5l-115 296q-8 21 -17.5 34t-17.5 22.5t-13 20t-5 26.5q0 20 13.5 30.5t33.5 10.5h142q28 0 41.5 -9t13.5 -32q0 -16 -7 -25.5t-13.5 -20t-9 -26.5t6.5 -45l101 -285l53 151q18 49 16.5 81t-10 56t-18.5 45.5t-10 49.5q0 32 26 49.5
t60 17.5z" />
    <glyph glyph-name="thorn" unicode="&#xfe;" horiz-adv-x="590" 
d="M379 571q46 0 83 -20.5t63 -58t40 -91t14 -119.5t-14.5 -119.5t-41.5 -91t-65.5 -58t-87.5 -20.5q-45 0 -79 17t-60 45v-67q0 -22 7.5 -33.5t16 -19.5t16 -17t7.5 -25q0 -20 -19 -36.5t-44.5 -28.5t-52 -19t-41.5 -7q-25 0 -39.5 10.5t-14.5 37.5v725q0 22 -7.5 33
t-16 19.5t-16 17t-7.5 25.5q0 20 19 36.5t44.5 28.5t52 19t41.5 7q25 0 39.5 -10.5t14.5 -37.5v-241q9 21 22.5 39t31.5 31.5t41 21t53 7.5zM327 88q49 0 68.5 52.5t9.5 146.5q-9 94 -38 139t-61 45q-19 0 -33 -16.5t-23.5 -46t-14 -69.5t-4.5 -87v-53q8 -31 21 -55
q11 -21 29.5 -38.5t45.5 -17.5z" />
    <glyph glyph-name="ydieresis" unicode="&#xff;" horiz-adv-x="519" 
d="M208 740q29 0 47 -16.5t18 -46.5q0 -31 -18 -47.5t-47 -16.5q-28 0 -46 16.5t-18 47.5q0 30 18 46.5t46 16.5zM371 740q28 0 46 -16.5t18 -46.5q0 -31 -18 -47.5t-46 -16.5q-29 0 -47 16.5t-18 47.5q0 30 18 46.5t47 16.5zM434 570q22 0 36.5 -6.5t23 -17t12 -23.5
t3.5 -26q0 -22 -7.5 -51.5t-23.5 -77.5l-143 -413q-10 -31 -24 -58.5t-33.5 -48.5t-47.5 -33.5t-67 -12.5t-69.5 11t-50.5 27t-30.5 33.5t-10.5 31.5q0 16 8 30.5t20.5 25t28 16.5t30.5 6q20 0 29.5 -8.5t14.5 -26.5q3 -11 6 -25.5t8.5 -27t13.5 -21t22 -8.5q1 0 1.5 0.5
t1.5 0.5q11 1 21.5 11t10.5 33q0 45 -14.5 95.5t-40.5 116.5l-115 296q-8 21 -17.5 34t-17.5 22.5t-13 20t-5 26.5q0 20 13.5 30.5t33.5 10.5h142q28 0 41.5 -9t13.5 -32q0 -16 -7 -25.5t-13.5 -20t-9 -26.5t6.5 -45l101 -285l53 151q18 49 16.5 81t-10 56t-18.5 45.5
t-10 49.5q0 32 26 49.5t60 17.5z" />
    <glyph glyph-name="Amacron" unicode="&#x100;" horiz-adv-x="634" 
d="M385 849q31 0 31 -24v-23q0 -24 -31 -24h-195q-32 0 -32 24v23q0 24 31 24h196zM585 144q8 -22 17 -34.5t17 -22t13.5 -19.5t5.5 -27q0 -20 -13 -30.5t-33 -10.5h-165q-28 0 -41 9t-13 32q0 16 7 26t13.5 20.5t9 26.5t-7.5 44l-26 79h-212l-25 -79q-9 -29 -6.5 -45
t9 -26.5t13.5 -20t7 -25.5q0 -23 -13.5 -32t-41.5 -9h-58q-20 0 -33.5 10.5t-13.5 30.5q0 17 6 27t14 19.5t17 22t16 34.5l131 412q7 21 2.5 33t-12 21.5t-15 20t-7.5 28.5q0 20 13.5 30.5t33.5 10.5h161q26 0 37.5 -10.5t18.5 -30.5zM342 315l-82 244l-78 -244h160z" />
    <glyph glyph-name="amacron" unicode="&#x101;" horiz-adv-x="543" 
d="M356 712q31 0 31 -24v-23q0 -24 -31 -24h-195q-32 0 -32 24v23q0 24 31 24h196zM531 157q9 0 13 -9t4 -17q0 -24 -6.5 -48.5t-20 -44.5t-35.5 -32.5t-54 -12.5q-42 0 -71 23.5t-40 75.5q-23 -44 -63 -71.5t-100 -27.5q-62 0 -102 34.5t-40 97.5q0 39 15 74t48 61t85 41.5
t126 15.5h14l-5 67q-4 55 -21.5 85t-46.5 30q-21 0 -35 -21.5t-19 -69.5q-2 -19 -12 -30.5t-32 -11.5q-16 0 -33 5t-31 14.5t-23 24.5t-9 34q0 17 13.5 38.5t40.5 41t68 33t96 13.5q91 0 142 -43t57 -112l20 -236q2 -20 7.5 -32t16.5 -12q8 0 11.5 3.5t6 7.5t6 7.5t9.5 3.5z
M239 107q33 0 51.5 32.5t18.5 103.5l-2 27h-17q-33 0 -53.5 -11.5t-32 -29t-14.5 -37.5t0 -37q3 -24 17 -36t32 -12z" />
    <glyph glyph-name="Abreve" unicode="&#x102;" horiz-adv-x="634" 
d="M370 864q7 0 11.5 -4.5t3.5 -10.5q-5 -42 -32 -64t-66 -22t-65.5 22t-31.5 64q-1 6 3 10.5t11 4.5h15q11 0 14 -10q5 -14 19.5 -21t34.5 -7q21 0 35.5 7t18.5 21q3 10 14 10h15zM585 144q8 -22 17 -34.5t17 -22t13.5 -19.5t5.5 -27q0 -20 -13 -30.5t-33 -10.5h-165
q-28 0 -41 9t-13 32q0 16 7 26t13.5 20.5t9 26.5t-7.5 44l-26 79h-212l-25 -79q-9 -29 -6.5 -45t9 -26.5t13.5 -20t7 -25.5q0 -23 -13.5 -32t-41.5 -9h-58q-20 0 -33.5 10.5t-13.5 30.5q0 17 6 27t14 19.5t17 22t16 34.5l131 412q7 21 2.5 33t-12 21.5t-15 20t-7.5 28.5
q0 20 13.5 30.5t33.5 10.5h161q26 0 37.5 -10.5t18.5 -30.5zM342 315l-82 244l-78 -244h160z" />
    <glyph glyph-name="abreve" unicode="&#x103;" horiz-adv-x="543" 
d="M341 727q7 0 11.5 -4.5t3.5 -10.5q-5 -42 -32 -64t-66 -22t-65.5 22t-31.5 64q-1 6 3 10.5t11 4.5h15q11 0 14 -10q5 -14 19.5 -21t34.5 -7q21 0 35.5 7t18.5 21q3 10 14 10h15zM531 157q9 0 13 -9t4 -17q0 -24 -6.5 -48.5t-20 -44.5t-35.5 -32.5t-54 -12.5
q-42 0 -71 23.5t-40 75.5q-23 -44 -63 -71.5t-100 -27.5q-62 0 -102 34.5t-40 97.5q0 39 15 74t48 61t85 41.5t126 15.5h14l-5 67q-4 55 -21.5 85t-46.5 30q-21 0 -35 -21.5t-19 -69.5q-2 -19 -12 -30.5t-32 -11.5q-16 0 -33 5t-31 14.5t-23 24.5t-9 34q0 17 13.5 38.5
t40.5 41t68 33t96 13.5q91 0 142 -43t57 -112l20 -236q2 -20 7.5 -32t16.5 -12q8 0 11.5 3.5t6 7.5t6 7.5t9.5 3.5zM239 107q33 0 51.5 32.5t18.5 103.5l-2 27h-17q-33 0 -53.5 -11.5t-32 -29t-14.5 -37.5t0 -37q3 -24 17 -36t32 -12z" />
    <glyph glyph-name="Aogonek" unicode="&#x104;" horiz-adv-x="634" 
d="M585 144q8 -22 17 -34.5t17.5 -22t14 -19.5t5.5 -27q0 -20 -13.5 -30.5t-33.5 -10.5h-113q-11 -25 -16 -45.5t-5 -43.5q0 -24 10.5 -40.5t29.5 -21.5q13 -4 10 -16l-2 -16q-3 -12 -15 -12q-54 4 -78 32.5t-24 73.5q0 44 26 90q-22 2 -32 11t-10 29q0 16 7 26t13.5 20.5
t9 26.5t-7.5 44l-26 79h-212l-25 -79q-9 -29 -6.5 -45t9 -26.5t13.5 -20t7 -25.5q0 -23 -13.5 -32t-41.5 -9h-58q-20 0 -33.5 10.5t-13.5 30.5q0 17 6 27t14 19.5t17 22t16 34.5l131 412q7 21 2.5 33t-12 21.5t-15 20t-7.5 28.5q0 20 13.5 30.5t33.5 10.5h161
q26 0 37.5 -10.5t18.5 -30.5zM342 315l-82 244l-78 -244h160z" />
    <glyph glyph-name="aogonek" unicode="&#x105;" horiz-adv-x="543" 
d="M531 157q9 0 12.5 -9t3.5 -17q0 -24 -6 -48.5t-20 -44.5t-35.5 -32.5t-53.5 -12.5q-7 0 -13.5 0.5t-12.5 1.5q-15 -30 -22 -53.5t-7 -50.5q0 -24 10.5 -40.5t29.5 -21.5q13 -4 10 -16l-2 -16q-3 -12 -15 -12q-54 4 -78 32.5t-24 73.5q0 33 13 64t38 63q-27 24 -38 74
q-23 -44 -63 -71.5t-100 -27.5q-62 0 -102 34.5t-40 97.5q0 39 15 74t48 61t85 41.5t126 15.5h14l-5 67q-4 55 -21.5 85t-46.5 30q-21 0 -35 -21.5t-19 -69.5q-2 -19 -12 -30.5t-32 -11.5q-16 0 -33 5t-31 14.5t-23 24.5t-9 34q0 17 13.5 38.5t40.5 41t68 33t96 13.5
q91 0 142 -43t57 -112l20 -236q2 -20 7.5 -32t16.5 -12q8 0 11.5 3.5t6 7.5t6 7.5t9.5 3.5zM239 107q33 0 51.5 32.5t18.5 103.5l-2 27h-17q-33 0 -53.5 -11.5t-32 -29t-14.5 -37.5t0 -37q3 -24 17 -36t32 -12z" />
    <glyph glyph-name="Cacute" unicode="&#x106;" horiz-adv-x="566" 
d="M363 862q14 -15 -8 -34q-23 -18 -44 -33q-17 -14 -35 -27.5t-28 -21.5q-13 -10 -21 -10t-15 8l-9 11q-8 9 -5.5 17t13.5 18q9 8 25.5 23.5t33.5 30.5q19 18 40 38q11 9 21 9q8 0 15 -8zM301 -7q-65 0 -119.5 25.5t-93.5 72t-61 112.5t-22 147t24.5 147t67.5 112.5t100 72
t123 25.5q55 0 98 -17t72.5 -42.5t45 -55.5t15.5 -55q0 -20 -8.5 -35.5t-22 -26.5t-31 -17t-35.5 -6q-29 0 -39.5 12t-14.5 35q-11 60 -32.5 95t-59.5 35q-24 0 -45.5 -16t-37.5 -45t-25.5 -70t-9.5 -92q0 -80 15 -135t40.5 -89.5t58 -50t66.5 -15.5q46 0 71.5 16t40.5 35
t24.5 35t23.5 16q19 0 19 -23q0 -32 -15 -67.5t-46 -65.5t-77.5 -49.5t-109.5 -19.5z" />
    <glyph glyph-name="cacute" unicode="&#x107;" 
d="M318 725q14 -15 -8 -34q-23 -18 -44 -33q-17 -14 -35 -27.5t-28 -21.5q-13 -10 -21 -10t-15 8l-9 11q-8 9 -5.5 17t13.5 18q9 8 25.5 23.5t33.5 30.5q19 18 40 38q11 9 21 9q8 0 15 -8zM259 -7q-59 0 -105.5 20.5t-78 58t-48 91t-16.5 119.5t20 119t55 90.5t83 58
t105 20.5q39 0 73.5 -11t59.5 -28.5t39.5 -40t14.5 -46.5q0 -16 -9.5 -30.5t-23.5 -25t-31 -16.5t-32 -6q-23 0 -31.5 11.5t-12.5 30.5q-9 48 -27 69.5t-42 21.5q-18 0 -32.5 -13t-24 -36.5t-15 -55t-5.5 -67.5q0 -64 12.5 -106.5t33 -67t45 -34.5t48.5 -10q34 0 53.5 9.5
t32 21.5t22 21.5t22.5 9.5q8 0 12.5 -6t4.5 -15q0 -21 -13 -48.5t-38.5 -51.5t-63.5 -40.5t-87 -16.5z" />
    <glyph glyph-name="Ccaron" unicode="&#x10c;" horiz-adv-x="566" 
d="M312 745q-8 -8 -14.5 -10.5t-14.5 -2.5t-14.5 2.5t-14.5 10.5l-81 95q-16 20 -3 33l10 9q6 6 12 6q9 0 20 -11q6 -5 17.5 -17t23.5 -23q14 -14 30 -29q16 15 30 29q12 11 24 23l17 17q11 11 20 11q6 0 13 -6l9 -9q8 -8 6.5 -15.5t-9.5 -17.5zM301 -7q-65 0 -119.5 25.5
t-93.5 72t-61 112.5t-22 147t24.5 147t67.5 112.5t100 72t123 25.5q55 0 98 -17t72.5 -42.5t45 -55.5t15.5 -55q0 -20 -8.5 -35.5t-22 -26.5t-31 -17t-35.5 -6q-29 0 -39.5 12t-14.5 35q-11 60 -32.5 95t-59.5 35q-24 0 -45.5 -16t-37.5 -45t-25.5 -70t-9.5 -92
q0 -80 15 -135t40.5 -89.5t58 -50t66.5 -15.5q46 0 71.5 16t40.5 35t24.5 35t23.5 16q19 0 19 -23q0 -32 -15 -67.5t-46 -65.5t-77.5 -49.5t-109.5 -19.5z" />
    <glyph glyph-name="ccaron" unicode="&#x10d;" 
d="M267 608q-8 -8 -14.5 -10.5t-14.5 -2.5t-14.5 2.5t-14.5 10.5l-81 95q-16 20 -3 33l10 9q6 6 12 6q9 0 20 -11q6 -5 17.5 -17t23.5 -23q14 -14 30 -29q16 15 30 29q12 11 24 23l17 17q11 11 20 11q6 0 13 -6l9 -9q8 -8 6.5 -15.5t-9.5 -17.5zM259 -7q-59 0 -105.5 20.5
t-78 58t-48 91t-16.5 119.5t20 119t55 90.5t83 58t105 20.5q39 0 73.5 -11t59.5 -28.5t39.5 -40t14.5 -46.5q0 -16 -9.5 -30.5t-23.5 -25t-31 -16.5t-32 -6q-23 0 -31.5 11.5t-12.5 30.5q-9 48 -27 69.5t-42 21.5q-18 0 -32.5 -13t-24 -36.5t-15 -55t-5.5 -67.5
q0 -64 12.5 -106.5t33 -67t45 -34.5t48.5 -10q34 0 53.5 9.5t32 21.5t22 21.5t22.5 9.5q8 0 12.5 -6t4.5 -15q0 -21 -13 -48.5t-38.5 -51.5t-63.5 -40.5t-87 -16.5z" />
    <glyph glyph-name="Dcaron" unicode="&#x10e;" horiz-adv-x="643" 
d="M350 745q-8 -8 -14 -10.5t-14 -2.5t-14.5 2.5t-14.5 10.5l-81 95q-17 20 -4 33l10 9q6 6 12 6q9 0 20 -11q6 -5 18 -17t24 -23q14 -14 30 -29q16 15 30 29q12 11 24 23l17 17q11 11 20 11q6 0 12 -6l10 -9q13 -13 -4 -33zM20 41q0 19 7.5 29.5t16 19.5t16 20.5t7.5 33.5
v412q0 22 -7.5 33.5t-16 20.5t-16 19.5t-7.5 29.5q0 22 14.5 31.5t39.5 9.5h232q74 0 134.5 -24.5t104.5 -70.5t68 -110.5t24 -144.5t-23.5 -144.5t-66.5 -110.5t-104.5 -70.5t-136.5 -24.5h-232q-25 0 -39.5 9.5t-14.5 31.5zM444 350q-6 70 -24 121.5t-42.5 85t-53.5 49.5
t-56 16q-11 0 -19.5 -10.5t-8.5 -30.5l4 -437q0 -27 12 -46.5t34 -19.5h25q31 0 57 16t44 49.5t26 85t2 121.5z" />
    <glyph glyph-name="dcaron" unicode="&#x10f;" horiz-adv-x="789" 
d="M218 -7q-46 0 -84 20.5t-65.5 58t-42.5 91t-15 119.5t15 119t42 90.5t65.5 58t86.5 20.5q51 0 84.5 -25t54.5 -65v94q0 22 -7.5 33.5t-16 19.5t-16 17t-7.5 26q0 19 19 35.5t44.5 29t52 19.5t41.5 7q25 0 39.5 -10.5t14.5 -38.5v-533q0 -22 7.5 -33t16 -19.5t16 -17
t7.5 -25.5q0 -19 -19 -36t-44.5 -29t-52 -19t-41.5 -7q-25 0 -39.5 10.5t-14.5 37.5v42q-20 -40 -53.5 -65t-87.5 -25zM569 443q-9 0 -16 6.5t-7 16.5q-2 59 -8 107.5t-6 84.5q0 19 8 30.5t23 11.5h35q14 0 22 -11.5t8 -30.5q0 -36 -6 -84.5t-8 -107.5q0 -10 -6.5 -16.5
t-16.5 -6.5h-22zM263 489q-43 0 -65.5 -52t-12.5 -146q9 -94 38 -139t61 -45t49 22t26 67v55q0 34 -4.5 75.5t-15.5 77.5t-29.5 60.5t-46.5 24.5z" />
    <glyph glyph-name="Dcroat" unicode="&#x110;" horiz-adv-x="643" 
d="M20 41q0 19 7.5 29.5t16 19.5t16 20.5t7.5 33.5v148h-16q-31 0 -31 25v30q0 24 31 24h16v185q0 22 -7.5 33.5t-16 20.5t-16 19.5t-7.5 29.5q0 22 14.5 31.5t39.5 9.5h232q74 0 134.5 -24.5t104.5 -70.5t68 -110.5t24 -144.5t-23.5 -144.5t-66.5 -110.5t-104.5 -70.5
t-136.5 -24.5h-232q-25 0 -39.5 9.5t-14.5 31.5zM444 350q-6 70 -24 121.5t-42.5 85t-53.5 49.5t-56 16q-11 0 -19.5 -10.5t-8.5 -30.5l2 -210h45q31 0 31 -25v-29q0 -25 -31 -25h-45l2 -148q0 -27 12 -46.5t34 -19.5h25q31 0 57 16t44 49.5t26 85t2 121.5z" />
    <glyph glyph-name="dcroat" unicode="&#x111;" horiz-adv-x="587" 
d="M218 -7q-46 0 -84 20.5t-65.5 58t-42.5 91t-15 119.5t15 119t42 90.5t65.5 58t86.5 20.5q51 0 84.5 -25t54.5 -65v69h-16q-31 0 -31 24v23q0 24 30 24q-10 11 -20 20.5t-10 29.5q0 19 19 35.5t44.5 29t52 19.5t41.5 7q25 0 39.5 -10.5t14.5 -38.5v-92h16q31 0 31 -24v-23
q0 -24 -31 -24h-16v-370q0 -22 7.5 -33t16 -19.5t16 -17t7.5 -25.5q0 -19 -19 -36t-44.5 -29t-52 -19t-41.5 -7q-25 0 -39.5 10.5t-14.5 37.5v42q-20 -40 -53.5 -65t-87.5 -25zM263 489q-43 0 -65.5 -52t-12.5 -146q9 -94 38 -139t61 -45t49 22t26 67v55q0 34 -4.5 75.5
t-15.5 77.5t-29.5 60.5t-46.5 24.5z" />
    <glyph glyph-name="Emacron" unicode="&#x112;" horiz-adv-x="535" 
d="M385 849q31 0 31 -24v-23q0 -24 -31 -24h-195q-31 0 -31 24v23q0 24 31 24h195zM20 41q0 19 7.5 29.5t16 19.5t16 20.5t7.5 33.5v412q0 22 -7.5 33.5t-16 20.5t-16 19.5t-7.5 29.5q0 22 14.5 31.5t39.5 9.5h385q25 0 39.5 -9.5t14.5 -31.5v-30q0 -25 -9.5 -39.5
t-31.5 -14.5q-19 0 -29 7.5t-19 16t-21 16t-34 7.5h-95q-12 0 -20.5 -10.5t-8.5 -30.5v-185h89q22 0 33.5 7.5t20.5 16t19 16t29 7.5q23 0 32 -14.5t9 -39.5v-64q0 -25 -9 -39.5t-32 -14.5q-19 0 -29 7.5t-19 16t-20.5 16t-33.5 7.5h-89v-174q0 -27 12 -46.5t34 -19.5h65
q27 0 42 11t27 23.5t24.5 23.5t34.5 11q23 0 31 -14t3 -37l-7 -45q-4 -23 -15.5 -37t-39.5 -14h-382q-25 0 -39.5 9.5t-14.5 31.5z" />
    <glyph glyph-name="emacron" unicode="&#x113;" 
d="M336 712q31 0 31 -24v-23q0 -24 -31 -24h-195q-32 0 -32 24v23q0 24 31 24h196zM461 150q0 -21 -13 -48.5t-38.5 -51.5t-63.5 -40.5t-87 -16.5q-59 0 -105.5 20.5t-78 58t-48 91t-16.5 119.5t19 119t53.5 90.5t81.5 58t102 20.5q45 0 81 -13t61 -35t38.5 -51.5
t13.5 -62.5q0 -81 -68 -123t-211 -43q8 -39 22 -64.5t32 -40.5t38.5 -21.5t39.5 -6.5q34 0 53.5 9.5t32 21.5t22 21.5t22.5 9.5q8 0 12.5 -6t4.5 -15zM245 499q-18 0 -31 -13t-21.5 -36.5t-13 -55t-4.5 -67.5v-19.5t1 -17.5q72 1 105 26t33 74q0 25 -6.5 45t-16 34.5t-22 22
t-24.5 7.5z" />
    <glyph glyph-name="Edotaccent" unicode="&#x116;" horiz-adv-x="535" 
d="M288 877q28 0 46 -16.5t18 -46.5q0 -31 -18 -47.5t-46 -16.5q-29 0 -47 16.5t-18 47.5q0 30 18 46.5t47 16.5zM20 41q0 19 7.5 29.5t16 19.5t16 20.5t7.5 33.5v412q0 22 -7.5 33.5t-16 20.5t-16 19.5t-7.5 29.5q0 22 14.5 31.5t39.5 9.5h385q25 0 39.5 -9.5t14.5 -31.5
v-30q0 -25 -9.5 -39.5t-31.5 -14.5q-19 0 -29 7.5t-19 16t-21 16t-34 7.5h-95q-12 0 -20.5 -10.5t-8.5 -30.5v-185h89q22 0 33.5 7.5t20.5 16t19 16t29 7.5q23 0 32 -14.5t9 -39.5v-64q0 -25 -9 -39.5t-32 -14.5q-19 0 -29 7.5t-19 16t-20.5 16t-33.5 7.5h-89v-174
q0 -27 12 -46.5t34 -19.5h65q27 0 42 11t27 23.5t24.5 23.5t34.5 11q23 0 31 -14t3 -37l-7 -45q-4 -23 -15.5 -37t-39.5 -14h-382q-25 0 -39.5 9.5t-14.5 31.5z" />
    <glyph glyph-name="edotaccent" unicode="&#x117;" 
d="M238 740q29 0 47 -16.5t18 -46.5q0 -31 -18 -47.5t-47 -16.5q-28 0 -46.5 16.5t-18.5 47.5q0 30 18.5 46.5t46.5 16.5zM461 150q0 -21 -13 -48.5t-38.5 -51.5t-63.5 -40.5t-87 -16.5q-59 0 -105.5 20.5t-78 58t-48 91t-16.5 119.5t19 119t53.5 90.5t81.5 58t102 20.5
q45 0 81 -13t61 -35t38.5 -51.5t13.5 -62.5q0 -81 -68 -123t-211 -43q8 -39 22 -64.5t32 -40.5t38.5 -21.5t39.5 -6.5q34 0 53.5 9.5t32 21.5t22 21.5t22.5 9.5q8 0 12.5 -6t4.5 -15zM245 499q-18 0 -31 -13t-21.5 -36.5t-13 -55t-4.5 -67.5v-19.5t1 -17.5q72 1 105 26
t33 74q0 25 -6.5 45t-16 34.5t-22 22t-24.5 7.5z" />
    <glyph glyph-name="Eogonek" unicode="&#x118;" horiz-adv-x="535" 
d="M20 41q0 19 7.5 29.5t16 19.5t16 20.5t7.5 33.5v412q0 22 -7.5 33.5t-16 20.5t-16 19.5t-7.5 29.5q0 22 14.5 31.5t39.5 9.5h385q25 0 39.5 -9.5t14.5 -31.5v-30q0 -25 -9.5 -39.5t-31.5 -14.5q-19 0 -29 7.5t-19 16t-21 16t-34 7.5h-95q-12 0 -20.5 -10.5t-8.5 -30.5
v-185h89q22 0 33.5 7.5t20.5 16t19 16t29 7.5q23 0 32 -14.5t9 -39.5v-64q0 -25 -9 -39.5t-32 -14.5q-19 0 -29 7.5t-19 16t-20.5 16t-33.5 7.5h-89v-174q0 -27 12 -46.5t34 -19.5h65q27 0 42 11t27 23.5t24.5 23.5t34.5 11q23 0 31 -14t3 -37l-7 -45q-4 -23 -15.5 -37
t-39.5 -14h-157q-11 -25 -16 -45.5t-5 -43.5q0 -24 10.5 -40.5t29.5 -21.5q13 -4 10 -16l-2 -16q-3 -12 -15 -12q-54 4 -78 32.5t-24 73.5q0 44 25 89h-160q-25 0 -39.5 9.5t-14.5 31.5z" />
    <glyph glyph-name="eogonek" unicode="&#x119;" 
d="M461 150q0 -20 -12 -46t-35 -49t-57 -40.5t-78 -20.5q-10 -23 -14.5 -42t-4.5 -42t10.5 -39.5t29.5 -21.5q13 -4 10 -16l-2 -16q-2 -12 -15 -12q-54 4 -78 32.5t-24 72.5q0 43 23 86q-98 15 -150.5 90.5t-52.5 195.5q0 66 19 119t53.5 90.5t81.5 58t102 20.5q45 0 81 -13
t61 -35t38.5 -51.5t13.5 -62.5q0 -81 -68 -123t-211 -43q8 -39 22 -64.5t32 -40.5t38.5 -21.5t39.5 -6.5q34 0 53.5 9.5t32 21.5t22 21.5t22.5 9.5q8 0 12.5 -6t4.5 -15zM245 499q-18 0 -31 -13t-21.5 -36.5t-13 -55t-4.5 -67.5v-19.5t1 -17.5q72 1 105 26t33 74
q0 25 -6.5 45t-16 34.5t-22 22t-24.5 7.5z" />
    <glyph glyph-name="Gbreve" unicode="&#x11e;" horiz-adv-x="630" 
d="M398 864q7 0 11.5 -4.5t3.5 -10.5q-5 -42 -32 -64t-66 -22t-65.5 22t-31.5 64q-1 6 3 10.5t11 4.5h15q11 0 14 -10q5 -14 19.5 -21t34.5 -7q21 0 35.5 7t18.5 21q3 10 14 10h15zM566 350q25 0 39.5 -9.5t14.5 -31.5q0 -19 -7.5 -29.5t-16 -19.5t-16 -20.5t-7.5 -33.5
v-165q0 -22 -14.5 -31.5t-39.5 -9.5h-34q-29 0 -40.5 10.5t-14.5 30.5l-4 33q-18 -32 -55 -56.5t-98 -24.5q-57 0 -106 24t-84.5 69t-56 109.5t-20.5 146.5q0 88 24 156t66.5 114.5t100 70.5t124.5 24q56 0 102.5 -17t79.5 -42.5t51.5 -55.5t18.5 -55q0 -20 -8.5 -35.5
t-22 -26.5t-31 -17t-35.5 -6q-29 0 -39.5 12t-14.5 35q-11 60 -40 95t-74 35q-26 0 -49 -16t-39.5 -45t-26 -70t-9.5 -92q0 -80 13.5 -135t35.5 -89.5t50.5 -50t57.5 -15.5q20 0 34.5 7.5t23 19.5t12 26t1.5 26l-1 11q-3 23 -13 34.5t-21.5 20t-20 19t-8.5 29.5
q0 22 14.5 31.5t39.5 9.5h164z" />
    <glyph glyph-name="gbreve" unicode="&#x11f;" horiz-adv-x="512" 
d="M317 727q6 0 10.5 -4.5t3.5 -10.5q-5 -42 -31.5 -64t-65.5 -22q-40 0 -66.5 22t-31.5 64q-1 6 3.5 10.5t10.5 4.5h16q10 0 13 -10q5 -14 19.5 -21t35.5 -7q20 0 34.5 7t19.5 21q3 10 13 10h16zM346 79q31 0 59.5 -9.5t50 -28.5t34 -48t12.5 -69q0 -36 -10 -64
t-23.5 -47.5t-28.5 -29.5t-26 -10q-16 0 -30.5 8t-25 20.5t-16.5 28t-6 30.5q0 20 8.5 29.5t26.5 14.5q11 3 23 6t22 6.5t16 7.5t6 10q0 17 -34 17q-28 0 -59.5 -12.5t-64.5 -27.5t-67 -27.5t-67 -12.5q-52 0 -85.5 33t-33.5 91q0 47 21.5 82t58.5 50q-48 29 -75 80t-27 123
q0 57 18 102t50.5 75.5t78.5 46.5t102 16q11 0 21 -0.5t21 -1.5q1 36 14.5 63t33 45t42 27.5t43.5 9.5q16 0 28.5 -8.5t20.5 -21.5t12.5 -29t4.5 -31q0 -17 -9.5 -29.5t-28.5 -12.5q-47 0 -75 -3.5t-33 -21.5q72 -23 112.5 -80.5t40.5 -145.5q0 -57 -18 -102t-50.5 -75.5
t-78 -46.5t-101.5 -16q-41 0 -72 7q-26 -1 -40 -9.5t-14 -21.5q0 -11 9.5 -17.5t28.5 -6.5q22 0 44 6t44.5 12.5t45 12.5t46.5 6zM235 499q-31 0 -47.5 -45.5t-8.5 -123.5t34.5 -123.5t57.5 -45.5t47.5 45.5t8.5 123.5t-34.5 123.5t-57.5 45.5z" />
    <glyph glyph-name="Gdotaccent" unicode="&#x120;" horiz-adv-x="630" 
d="M315 877q29 0 47 -16.5t18 -46.5q0 -31 -18 -47.5t-47 -16.5q-28 0 -46.5 16.5t-18.5 47.5q0 30 18.5 46.5t46.5 16.5zM566 350q25 0 39.5 -9.5t14.5 -31.5q0 -19 -7.5 -29.5t-16 -19.5t-16 -20.5t-7.5 -33.5v-165q0 -22 -14.5 -31.5t-39.5 -9.5h-34q-29 0 -40.5 10.5
t-14.5 30.5l-4 33q-18 -32 -55 -56.5t-98 -24.5q-57 0 -106 24t-84.5 69t-56 109.5t-20.5 146.5q0 88 24 156t66.5 114.5t100 70.5t124.5 24q56 0 102.5 -17t79.5 -42.5t51.5 -55.5t18.5 -55q0 -20 -8.5 -35.5t-22 -26.5t-31 -17t-35.5 -6q-29 0 -39.5 12t-14.5 35
q-11 60 -40 95t-74 35q-26 0 -49 -16t-39.5 -45t-26 -70t-9.5 -92q0 -80 13.5 -135t35.5 -89.5t50.5 -50t57.5 -15.5q20 0 34.5 7.5t23 19.5t12 26t1.5 26l-1 11q-3 23 -13 34.5t-21.5 20t-20 19t-8.5 29.5q0 22 14.5 31.5t39.5 9.5h164z" />
    <glyph glyph-name="gdotaccent" unicode="&#x121;" horiz-adv-x="512" 
d="M244 740q28 0 46 -16.5t18 -46.5q0 -31 -18 -47.5t-46 -16.5q-29 0 -47 16.5t-18 47.5q0 30 18 46.5t47 16.5zM346 79q31 0 59.5 -9.5t50 -28.5t34 -48t12.5 -69q0 -36 -10 -64t-23.5 -47.5t-28.5 -29.5t-26 -10q-16 0 -30.5 8t-25 20.5t-16.5 28t-6 30.5q0 20 8.5 29.5
t26.5 14.5q11 3 23 6t22 6.5t16 7.5t6 10q0 17 -34 17q-28 0 -59.5 -12.5t-64.5 -27.5t-67 -27.5t-67 -12.5q-52 0 -85.5 33t-33.5 91q0 47 21.5 82t58.5 50q-48 29 -75 80t-27 123q0 57 18 102t50.5 75.5t78.5 46.5t102 16q11 0 21 -0.5t21 -1.5q1 36 14.5 63t33 45
t42 27.5t43.5 9.5q16 0 28.5 -8.5t20.5 -21.5t12.5 -29t4.5 -31q0 -17 -9.5 -29.5t-28.5 -12.5q-47 0 -75 -3.5t-33 -21.5q72 -23 112.5 -80.5t40.5 -145.5q0 -57 -18 -102t-50.5 -75.5t-78 -46.5t-101.5 -16q-41 0 -72 7q-26 -1 -40 -9.5t-14 -21.5q0 -11 9.5 -17.5
t28.5 -6.5q22 0 44 6t44.5 12.5t45 12.5t46.5 6zM235 499q-31 0 -47.5 -45.5t-8.5 -123.5t34.5 -123.5t57.5 -45.5t47.5 45.5t8.5 123.5t-34.5 123.5t-57.5 45.5z" />
    <glyph glyph-name="Imacron" unicode="&#x12a;" horiz-adv-x="313" 
d="M254 849q31 0 31 -24v-23q0 -24 -31 -24h-195q-31 0 -31 24v23q0 24 31 24h195zM292 659q0 -19 -7.5 -29t-16 -19.5t-16 -21t-7.5 -33.5v-412q0 -22 7.5 -33.5t16 -20.5t16 -19.5t7.5 -29.5q0 -22 -14.5 -31.5t-39.5 -9.5h-164q-25 0 -39.5 9.5t-14.5 31.5q0 19 7.5 29.5
t16 19.5t16 20.5t7.5 33.5v412q0 22 -7.5 33.5t-16 20.5t-16 19.5t-7.5 29.5q0 22 14.5 31.5t39.5 9.5h164q25 0 39.5 -9.5t14.5 -31.5z" />
    <glyph glyph-name="imacron" unicode="&#x12b;" horiz-adv-x="296" 
d="M246 712q31 0 31 -24v-23q0 -24 -31 -24h-195q-32 0 -32 24v23q0 24 31 24h196zM232 144q0 -22 7.5 -33.5t16 -20.5t16 -19.5t7.5 -29.5q0 -41 -51 -41h-157q-50 0 -50 41q0 19 7.5 29.5t16 19.5t16 20.5t7.5 33.5v240q0 22 -7.5 33.5t-16 19.5t-16 17t-7.5 25
q0 20 19 36.5t44.5 28.5t52 19t41.5 7q25 0 39.5 -10.5t14.5 -37.5v-378z" />
    <glyph glyph-name="Idotaccent" unicode="&#x130;" horiz-adv-x="313" 
d="M157 877q28 0 46 -16.5t18 -46.5q0 -31 -18 -47.5t-46 -16.5q-29 0 -47 16.5t-18 47.5q0 30 18 46.5t47 16.5zM292 659q0 -19 -7.5 -29t-16 -19.5t-16 -21t-7.5 -33.5v-412q0 -22 7.5 -33.5t16 -20.5t16 -19.5t7.5 -29.5q0 -22 -14.5 -31.5t-39.5 -9.5h-164
q-25 0 -39.5 9.5t-14.5 31.5q0 19 7.5 29.5t16 19.5t16 20.5t7.5 33.5v412q0 22 -7.5 33.5t-16 20.5t-16 19.5t-7.5 29.5q0 22 14.5 31.5t39.5 9.5h164q25 0 39.5 -9.5t14.5 -31.5z" />
    <glyph glyph-name="dotlessi" unicode="&#x131;" horiz-adv-x="296" 
d="M232 144q0 -22 7.5 -33.5t16 -20.5t16 -19.5t7.5 -29.5q0 -41 -51 -41h-157q-50 0 -50 41q0 19 7.5 29.5t16 19.5t16 20.5t7.5 33.5v240q0 22 -7.5 33.5t-16 19.5t-16 17t-7.5 25q0 20 19 36.5t44.5 28.5t52 19t41.5 7q25 0 39.5 -10.5t14.5 -37.5v-378z" />
    <glyph glyph-name="Lslash" unicode="&#x141;" horiz-adv-x="516" 
d="M20 41q0 19 7.5 29.5t16 19.5t16 20.5t7.5 33.5v98h-16q-31 0 -31 25v30q0 24 31 24h16v235q0 22 -7.5 33.5t-16 20.5t-16 19.5t-7.5 29.5q0 22 14.5 31.5t39.5 9.5h164q25 0 39.5 -9.5t14.5 -31.5q0 -19 -7.5 -29.5t-16 -19.5t-16 -20.5t-7.5 -33.5v-235h144
q31 0 31 -24v-30q0 -25 -31 -25h-144v-98q0 -27 12 -46.5t34 -19.5h65q27 0 42 11t27 23.5t25 23.5t35 11q23 0 30.5 -14t3.5 -37l-7 -46q-5 -23 -16.5 -36.5t-39.5 -13.5h-382q-25 0 -39.5 9.5t-14.5 31.5z" />
    <glyph glyph-name="lslash" unicode="&#x142;" horiz-adv-x="295" 
d="M20 41q0 19 7.5 29.5t16 19.5t16 20.5t7.5 33.5v148h-16q-31 0 -31 25v30q0 24 31 24h16v203q0 22 -7.5 33.5t-16 19.5t-16 17t-7.5 26q0 19 19 35.5t44.5 29t52 19.5t41.5 7q25 0 39.5 -10.5t14.5 -38.5v-341h16q31 0 31 -24v-30q0 -25 -31 -25h-16v-148
q0 -22 7.5 -33.5t16 -20.5t16 -19.5t7.5 -29.5q0 -41 -51 -41h-156q-51 0 -51 41z" />
    <glyph glyph-name="Nacute" unicode="&#x143;" horiz-adv-x="644" 
d="M422 862q14 -15 -8 -34q-23 -18 -44 -33q-17 -14 -35 -27.5t-28 -21.5q-13 -10 -21 -10t-15 8l-9 11q-8 9 -5.5 17t13.5 18q9 8 25.5 23.5t33.5 30.5q19 18 40 38q11 9 21 9q8 0 15 -8zM624 659q0 -19 -7.5 -29t-16 -19.5t-16 -21t-7.5 -33.5v-412q0 -22 7.5 -33.5
t16 -20.5t16 -19.5t7.5 -29.5q0 -22 -14.5 -31.5t-39.5 -9.5h-129q-25 0 -35.5 10.5t-20.5 30.5l-238 452v-349q0 -22 7.5 -33.5t16 -20.5t16 -19.5t7.5 -29.5q0 -22 -14.5 -31.5t-39.5 -9.5h-66q-25 0 -39.5 9.5t-14.5 31.5q0 19 7.5 29.5t16 19.5t16 20.5t7.5 33.5v412
q0 22 -7.5 33.5t-16 20.5t-16 19.5t-7.5 29.5q0 22 14.5 31.5t39.5 9.5h129q25 0 35.5 -10.5t20.5 -30.5l238 -453v350q0 22 -7.5 33.5t-16 20.5t-16 19.5t-7.5 29.5q0 22 14.5 31.5t39.5 9.5h66q25 0 39.5 -9.5t14.5 -31.5z" />
    <glyph glyph-name="nacute" unicode="&#x144;" horiz-adv-x="597" 
d="M378 725q14 -16 -7 -34q-23 -18 -44 -33q-17 -14 -35 -27.5t-29 -21.5q-13 -10 -21 -10q-7 0 -14 8l-9 11q-8 9 -5.5 17t12.5 18q9 8 25.5 23.5t33.5 30.5q19 18 41 38q11 9 20 9q8 0 15 -8zM71 0q-50 0 -50 41q0 19 7.5 29.5t16 19.5t16 20.5t7.5 33.5v240q0 22 -7.5 33
t-16 19.5t-16 17t-7.5 25.5q0 20 19 36.5t44.5 28.5t52 19t41.5 7q25 0 39.5 -10.5t14.5 -37.5v-79q9 27 23 50t34.5 40t47 27t61.5 10q38 0 63 -12.5t40.5 -33.5t23 -49t9.5 -60l20 -271q2 -22 9.5 -33.5t16 -20.5t15 -19.5t6.5 -29.5q0 -41 -50 -41h-157q-50 0 -50 41
q0 19 8 29.5t17 19.5t16.5 20.5t5.5 33.5l-20 240q-4 38 -12 55t-31 17q-26 0 -44.5 -19t-30 -49t-16.5 -66.5t-5 -70.5v-107q0 -22 7.5 -33.5t16 -20.5t16 -19.5t7.5 -29.5q0 -41 -51 -41h-157z" />
    <glyph glyph-name="Ncaron" unicode="&#x147;" horiz-adv-x="644" 
d="M371 745q-8 -8 -14.5 -10.5t-14.5 -2.5t-14.5 2.5t-14.5 10.5l-81 95q-16 20 -3 33l10 9q6 6 12 6q9 0 20 -11q6 -5 17.5 -17t23.5 -23q14 -14 30 -29q16 15 30 29q12 11 24 23l17 17q11 11 20 11q6 0 13 -6l9 -9q8 -8 6.5 -15.5t-9.5 -17.5zM624 659q0 -19 -7.5 -29
t-16 -19.5t-16 -21t-7.5 -33.5v-412q0 -22 7.5 -33.5t16 -20.5t16 -19.5t7.5 -29.5q0 -22 -14.5 -31.5t-39.5 -9.5h-129q-25 0 -35.5 10.5t-20.5 30.5l-238 452v-349q0 -22 7.5 -33.5t16 -20.5t16 -19.5t7.5 -29.5q0 -22 -14.5 -31.5t-39.5 -9.5h-66q-25 0 -39.5 9.5
t-14.5 31.5q0 19 7.5 29.5t16 19.5t16 20.5t7.5 33.5v412q0 22 -7.5 33.5t-16 20.5t-16 19.5t-7.5 29.5q0 22 14.5 31.5t39.5 9.5h129q25 0 35.5 -10.5t20.5 -30.5l238 -453v350q0 22 -7.5 33.5t-16 20.5t-16 19.5t-7.5 29.5q0 22 14.5 31.5t39.5 9.5h66q25 0 39.5 -9.5
t14.5 -31.5z" />
    <glyph glyph-name="ncaron" unicode="&#x148;" horiz-adv-x="597" 
d="M327 608q-8 -8 -14 -10.5t-14 -2.5t-14.5 2.5t-14.5 10.5l-81 95q-17 20 -4 33l10 9q6 6 12 6q9 0 20 -11q6 -5 18 -17t24 -23q14 -14 30 -29q16 15 30 29q12 11 24 23l17 17q11 11 20 11q6 0 12 -6l10 -9q13 -13 -4 -33zM71 0q-50 0 -50 41q0 19 7.5 29.5t16 19.5
t16 20.5t7.5 33.5v240q0 22 -7.5 33t-16 19.5t-16 17t-7.5 25.5q0 20 19 36.5t44.5 28.5t52 19t41.5 7q25 0 39.5 -10.5t14.5 -37.5v-79q9 27 23 50t34.5 40t47 27t61.5 10q38 0 63 -12.5t40.5 -33.5t23 -49t9.5 -60l20 -271q2 -22 9.5 -33.5t16 -20.5t15 -19.5t6.5 -29.5
q0 -41 -50 -41h-157q-50 0 -50 41q0 19 8 29.5t17 19.5t16.5 20.5t5.5 33.5l-20 240q-4 38 -12 55t-31 17q-26 0 -44.5 -19t-30 -49t-16.5 -66.5t-5 -70.5v-107q0 -22 7.5 -33.5t16 -20.5t16 -19.5t7.5 -29.5q0 -41 -51 -41h-157z" />
    <glyph glyph-name="Omacron" unicode="&#x14c;" horiz-adv-x="645" 
d="M420 849q31 0 31 -24v-23q0 -24 -31 -24h-195q-31 0 -31 24v23q0 24 31 24h195zM5 350q0 81 22 147t63 112.5t100 72t132 25.5q74 0 132.5 -25.5t99.5 -72t63 -112.5t22 -147t-22 -147t-63 -112.5t-99.5 -72t-132.5 -25.5q-73 0 -132 25.5t-100 72t-63 112.5t-22 147z
M446 350q-6 72 -20 124.5t-34 87t-43.5 51t-49.5 16.5t-47 -16.5t-35 -51t-19.5 -87t0.5 -124.5q13 -144 54.5 -211.5t93.5 -67.5q26 0 47 16.5t34.5 51t19 87t-0.5 124.5z" />
    <glyph glyph-name="omacron" unicode="&#x14d;" horiz-adv-x="534" 
d="M365 712q31 0 31 -24v-23q0 -24 -31 -24h-195q-32 0 -32 24v23q0 24 31 24h196zM267 -7q-55 0 -102 19t-81.5 56t-53.5 91t-19 123t19 122.5t53.5 90.5t81.5 56t102 19q56 0 103 -19t81 -56t53 -90.5t19 -122.5t-19 -123t-53 -91t-81 -56t-103 -19zM247 499
q-17 0 -30.5 -15.5t-22 -43.5t-11 -68t1.5 -90q5 -50 15 -90t23.5 -68.5t30 -44t33.5 -15.5q35 0 53.5 59t9.5 159q-5 50 -15 90t-24 68t-30.5 43.5t-33.5 15.5z" />
    <glyph glyph-name="Ohungarumlaut" unicode="&#x150;" horiz-adv-x="645" 
d="M339 862q14 -16 -7 -34q-23 -18 -44 -33q-17 -14 -35 -27.5t-29 -21.5q-13 -10 -21 -10q-7 0 -14 8l-9 11q-8 9 -5.5 17t12.5 18q9 8 25.5 23.5t33.5 30.5q19 18 41 38q11 9 20 9q8 0 15 -8zM465 862q14 -16 -7 -34q-23 -18 -44 -33q-17 -14 -35 -27.5t-29 -21.5
q-13 -10 -20 -10q-8 0 -15 8l-9 11q-8 9 -5.5 17t12.5 18q9 8 25.5 23.5t33.5 30.5q19 18 41 38q11 9 20 9q8 0 15 -8zM5 350q0 81 22 147t63 112.5t100 72t132 25.5q74 0 132.5 -25.5t99.5 -72t63 -112.5t22 -147t-22 -147t-63 -112.5t-99.5 -72t-132.5 -25.5
q-73 0 -132 25.5t-100 72t-63 112.5t-22 147zM446 350q-6 72 -20 124.5t-34 87t-43.5 51t-49.5 16.5t-47 -16.5t-35 -51t-19.5 -87t0.5 -124.5q13 -144 54.5 -211.5t93.5 -67.5q26 0 47 16.5t34.5 51t19 87t-0.5 124.5z" />
    <glyph glyph-name="ohungarumlaut" unicode="&#x151;" horiz-adv-x="534" 
d="M284 725q14 -15 -8 -34q-23 -18 -44 -33q-17 -14 -35 -27.5t-28 -21.5q-13 -10 -21 -10t-15 8l-9 11q-8 9 -5.5 17t13.5 18q9 8 25.5 23.5t33.5 30.5q19 18 40 38q11 9 21 9q8 0 15 -8zM410 725q14 -15 -8 -34q-23 -18 -43 -33q-18 -14 -35.5 -27.5t-28.5 -21.5
q-13 -10 -21 -10t-15 8l-9 11q-8 9 -5.5 17t13.5 18q9 8 25.5 23.5t33.5 30.5q19 18 40 38q11 9 21 9q8 0 15 -8zM267 -7q-55 0 -102 19t-81.5 56t-53.5 91t-19 123t19 122.5t53.5 90.5t81.5 56t102 19q56 0 103 -19t81 -56t53 -90.5t19 -122.5t-19 -123t-53 -91t-81 -56
t-103 -19zM247 499q-17 0 -30.5 -15.5t-22 -43.5t-11 -68t1.5 -90q5 -50 15 -90t23.5 -68.5t30 -44t33.5 -15.5q35 0 53.5 59t9.5 159q-5 50 -15 90t-24 68t-30.5 43.5t-33.5 15.5z" />
    <glyph glyph-name="OE" unicode="&#x152;" horiz-adv-x="938" 
d="M887 147q23 0 31 -14t3 -37l-7 -45q-4 -23 -15.5 -37t-39.5 -14h-335q-24 0 -38 9t-16 29q-32 -22 -72 -33.5t-88 -11.5q-69 0 -124.5 25.5t-94.5 72t-59.5 112.5t-20.5 147t20.5 147t59.5 112.5t94.5 72t124.5 25.5q48 0 88 -11.5t72 -33.5q2 20 16 29t38 9h338
q25 0 39.5 -9.5t14.5 -31.5v-30q0 -25 -9.5 -39.5t-31.5 -14.5q-19 0 -29 7.5t-19.5 16t-21 16t-33.5 7.5h-95q-12 0 -20.5 -10.5t-8.5 -30.5v-185h89q22 0 33.5 7.5t20.5 16t19 16t29 7.5q23 0 32 -14.5t9 -39.5v-64q0 -25 -9 -39.5t-32 -14.5q-19 0 -29 7.5t-19 16
t-20.5 16t-33.5 7.5h-89v-174q0 -27 12 -46.5t34 -19.5h65q27 0 42 11t27 23.5t24.5 23.5t34.5 11zM360 71q27 0 49.5 16.5t37.5 51t20.5 87t-0.5 124.5t-21 124.5t-36 87t-46.5 51t-52.5 16.5t-49.5 -16.5t-37.5 -51t-20.5 -87t0.5 -124.5t21 -124.5t36 -87t46.5 -51
t52.5 -16.5z" />
    <glyph glyph-name="oe" unicode="&#x153;" horiz-adv-x="817" 
d="M785 171q8 0 12.5 -6t4.5 -15q0 -21 -13 -48.5t-38.5 -51.5t-63 -40.5t-87.5 -16.5q-102 0 -165 60q-68 -60 -168 -60q-56 0 -103 19t-81 56t-53 91t-19 123t19 122.5t53 90.5t81 56t103 19q51 0 95 -16t77 -48q33 31 76 47.5t93 16.5q45 0 81 -13t61 -35t38.5 -51.5
t13.5 -62.5q0 -81 -67.5 -123t-210.5 -43q8 -39 22 -64.5t31.5 -40.5t38 -21.5t39.5 -6.5q34 0 53.5 9.5t32 21.5t22 21.5t22.5 9.5zM586 499q-18 0 -31 -13t-21.5 -36.5t-13 -55t-4.5 -67.5v-19.5t1 -17.5q72 1 105 26t33 74q0 25 -6.5 45t-16 34.5t-22 22t-24.5 7.5z
M287 64q34 0 52.5 59t9.5 159q-4 50 -14.5 90t-24 68t-30 43.5t-33.5 15.5t-31 -15.5t-22.5 -43.5t-11 -68t1.5 -90q5 -50 15 -90t24 -68.5t30.5 -44t33.5 -15.5z" />
    <glyph glyph-name="Racute" unicode="&#x154;" horiz-adv-x="627" 
d="M393 862q14 -16 -7 -34q-23 -18 -44 -33q-17 -14 -35 -27.5t-29 -21.5q-13 -10 -21 -10q-7 0 -14 8l-9 11q-8 9 -5.5 17t12.5 18q9 8 25.5 23.5t33.5 30.5q19 18 41 38q11 9 20 9q8 0 15 -8zM544 144q14 -21 29.5 -32.5t28 -21t21 -20t8.5 -29.5q0 -41 -50 -41h-102
q-26 0 -40 12.5t-24 28.5l-137 233h-33v-130q0 -22 7.5 -33.5t16 -20.5t16 -19.5t7.5 -29.5q0 -22 -14.5 -31.5t-39.5 -9.5h-164q-25 0 -39.5 9.5t-14.5 31.5q0 19 7.5 29.5t16 19.5t16 20.5t7.5 33.5v412q0 22 -7.5 33.5t-16 20.5t-16 19.5t-7.5 29.5q0 22 14.5 31.5
t39.5 9.5h269q57 0 102.5 -15t77.5 -43t49 -67.5t17 -87.5q0 -75 -36 -125.5t-104 -72.5zM408 487q-5 29 -16.5 53.5t-28 42.5t-37 28.5t-43.5 10.5q-38 0 -38 -41v-164q0 -27 12 -46t34 -19h30q51 0 74 38t13 97z" />
    <glyph glyph-name="racute" unicode="&#x155;" horiz-adv-x="458" 
d="M309 725q14 -15 -8 -34q-23 -18 -44 -33q-17 -14 -35 -27.5t-28 -21.5q-13 -10 -21 -10t-15 8l-9 11q-8 9 -5.5 17t13.5 18q9 8 25.5 23.5t33.5 30.5q19 18 40 38q11 9 21 9q8 0 15 -8zM356 570q25 0 44 -10.5t32 -27.5t19.5 -39t6.5 -45q0 -36 -17.5 -56t-48.5 -20
q-19 0 -32.5 7.5t-24 16.5t-21.5 16.5t-26 7.5q-21 0 -39 -38.5t-18 -105.5v-132q0 -22 7.5 -33.5t16 -20.5t16 -19.5t7.5 -29.5q0 -41 -51 -41h-156q-51 0 -51 41q0 19 7.5 29.5t16 19.5t16 20.5t7.5 33.5v240q0 22 -7.5 33t-16 19.5t-16 17t-7.5 25.5q0 20 19 36.5
t44.5 28.5t52 19t41.5 7q25 0 39.5 -10.5t14.5 -37.5v-75q18 52 48 87.5t77 35.5z" />
    <glyph glyph-name="Rcaron" unicode="&#x158;" horiz-adv-x="627" 
d="M342 745q-8 -8 -14 -10.5t-14 -2.5t-14.5 2.5t-14.5 10.5l-81 95q-17 20 -4 33l10 9q6 6 12 6q9 0 20 -11q6 -5 18 -17t24 -23q14 -14 30 -29q16 15 30 29q12 11 24 23l17 17q11 11 20 11q6 0 12 -6l10 -9q13 -13 -4 -33zM544 144q14 -21 29.5 -32.5t28 -21t21 -20
t8.5 -29.5q0 -41 -50 -41h-102q-26 0 -40 12.5t-24 28.5l-137 233h-33v-130q0 -22 7.5 -33.5t16 -20.5t16 -19.5t7.5 -29.5q0 -22 -14.5 -31.5t-39.5 -9.5h-164q-25 0 -39.5 9.5t-14.5 31.5q0 19 7.5 29.5t16 19.5t16 20.5t7.5 33.5v412q0 22 -7.5 33.5t-16 20.5t-16 19.5
t-7.5 29.5q0 22 14.5 31.5t39.5 9.5h269q57 0 102.5 -15t77.5 -43t49 -67.5t17 -87.5q0 -75 -36 -125.5t-104 -72.5zM408 487q-5 29 -16.5 53.5t-28 42.5t-37 28.5t-43.5 10.5q-38 0 -38 -41v-164q0 -27 12 -46t34 -19h30q51 0 74 38t13 97z" />
    <glyph glyph-name="rcaron" unicode="&#x159;" horiz-adv-x="458" 
d="M258 608q-8 -8 -14.5 -10.5t-14.5 -2.5t-14.5 2.5t-14.5 10.5l-81 95q-16 20 -3 33l10 9q6 6 12 6q9 0 20 -11q6 -5 17.5 -17t23.5 -23q14 -14 30 -29q16 15 30 29q12 11 24 23l17 17q11 11 20 11q6 0 13 -6l9 -9q8 -8 6.5 -15.5t-9.5 -17.5zM356 570q25 0 44 -10.5
t32 -27.5t19.5 -39t6.5 -45q0 -36 -17.5 -56t-48.5 -20q-19 0 -32.5 7.5t-24 16.5t-21.5 16.5t-26 7.5q-21 0 -39 -38.5t-18 -105.5v-132q0 -22 7.5 -33.5t16 -20.5t16 -19.5t7.5 -29.5q0 -41 -51 -41h-156q-51 0 -51 41q0 19 7.5 29.5t16 19.5t16 20.5t7.5 33.5v240
q0 22 -7.5 33t-16 19.5t-16 17t-7.5 25.5q0 20 19 36.5t44.5 28.5t52 19t41.5 7q25 0 39.5 -10.5t14.5 -37.5v-75q18 52 48 87.5t77 35.5z" />
    <glyph glyph-name="Sacute" unicode="&#x15a;" horiz-adv-x="552" 
d="M356 862q14 -15 -8 -34q-23 -18 -44 -33q-17 -14 -35 -27.5t-28 -21.5q-13 -10 -21 -10t-15 8l-9 11q-8 9 -5.5 17t13.5 18q9 8 25.5 23.5t33.5 30.5q19 18 40 38q11 9 21 9q8 0 15 -8zM202 560q0 -30 24.5 -53.5t61 -45t79 -44.5t79 -52.5t61 -68.5t24.5 -93
q0 -42 -16 -80t-48.5 -67t-81 -46t-113.5 -17q-58 0 -104.5 16t-79.5 39.5t-50.5 51t-17.5 49.5q0 20 8.5 35.5t22 26.5t31 17t35.5 6q29 0 39 -12t15 -35q13 -50 39.5 -83t74.5 -33q32 0 51.5 22t19.5 61q0 36 -24.5 63t-61 50.5t-79 46.5t-79 51t-61 63.5t-24.5 83.5
q0 40 16.5 75.5t49 62t79.5 42t107 15.5q52 0 97 -14.5t78 -36t51.5 -48t18.5 -50.5q0 -20 -8.5 -35.5t-22 -26.5t-31 -17t-35.5 -6q-29 0 -39 12t-15 35q-13 50 -38 79.5t-69 29.5q-29 0 -46.5 -18.5t-17.5 -50.5z" />
    <glyph glyph-name="sacute" unicode="&#x15b;" horiz-adv-x="469" 
d="M314 725q14 -16 -7 -34q-23 -18 -44 -33q-17 -14 -35 -27.5t-29 -21.5q-13 -10 -21 -10q-7 0 -14 8l-9 11q-8 9 -5.5 17t12.5 18q9 8 25.5 23.5t33.5 30.5q19 18 41 38q11 9 20 9q8 0 15 -8zM180 452q0 -25 20 -44t50 -36.5t64.5 -36t64.5 -42.5t50 -55.5t20 -74.5
q0 -34 -14.5 -64.5t-42 -54t-68.5 -37.5t-95 -14q-43 0 -81.5 12t-66.5 30t-44.5 40.5t-16.5 43.5q0 17 9.5 31t23.5 25t30.5 17t31.5 6q24 0 32.5 -12t11.5 -31q9 -48 29 -69.5t52 -21.5q29 0 46 15.5t17 43.5q0 29 -20 50.5t-50 40.5t-64.5 38t-64.5 41.5t-50 51t-20 67.5
q0 32 13.5 61t39.5 50.5t64 34t87 12.5q42 0 78.5 -10.5t63 -27t41.5 -36t15 -38.5q0 -16 -9.5 -30.5t-23.5 -25t-31 -16.5t-32 -6q-23 0 -31 12t-13 30q-11 43 -29 60t-43 17q-14 0 -29 -12t-15 -35z" />
    <glyph glyph-name="Scedilla" unicode="&#x15e;" horiz-adv-x="552" 
d="M202 560q0 -30 24.5 -53.5t61 -45t79 -44.5t79 -52.5t61 -68.5t24.5 -93q0 -42 -16 -80t-48.5 -67t-81 -46t-113.5 -17h-18l-8 -43q8 6 19 10t25 4q42 0 63 -26t21 -68q0 -21 -6.5 -42.5t-20 -38t-34 -27t-48.5 -10.5q-29 0 -49.5 11t-31.5 21q-6 5 -6.5 12.5t4.5 12.5
l7 7q5 6 12.5 6.5t12.5 -4.5q8 -8 21 -15.5t29 -7.5q18 0 29.5 23t6.5 57q-5 33 -15.5 42.5t-19.5 9.5q-11 0 -17 -7.5t-11 -16.5t-11 -16.5t-17 -7.5h-9q-23 0 -20 25l18 96q-42 9 -75 26.5t-56 38.5t-35 43t-12 41q0 20 8.5 35.5t22 26.5t31 17t35.5 6q29 0 39 -12t15 -35
q13 -50 39.5 -83t74.5 -33q32 0 51.5 22t19.5 61q0 36 -24.5 63t-61 50.5t-79 46.5t-79 51t-61 63.5t-24.5 83.5q0 40 16.5 75.5t49 62t79.5 42t107 15.5q52 0 97 -14.5t78 -36t51.5 -48t18.5 -50.5q0 -20 -8.5 -35.5t-22 -26.5t-31 -17t-35.5 -6q-29 0 -39 12t-15 35
q-13 50 -38 79.5t-69 29.5q-29 0 -46.5 -18.5t-17.5 -50.5z" />
    <glyph glyph-name="scedilla" unicode="&#x15f;" horiz-adv-x="469" 
d="M180 452q0 -25 20 -44t50 -36.5t64.5 -36t64.5 -42.5t50 -55.5t20 -74.5q0 -34 -14.5 -64.5t-42 -54t-68.5 -37.5t-95 -14h-17l-8 -43q8 6 19.5 10t25.5 4q42 0 63 -26t21 -68q0 -21 -6.5 -42.5t-20 -38t-34 -27t-48.5 -10.5q-29 0 -50 11t-32 21q-5 5 -5.5 12.5
t4.5 12.5l6 7q5 6 12.5 6.5t13.5 -4.5q8 -8 20.5 -15.5t29.5 -7.5t28.5 23t7.5 57q-5 33 -15.5 42.5t-20.5 9.5q-11 0 -17 -7.5t-11 -16.5t-11 -16.5t-17 -7.5h-8q-14 0 -18 6t-2 19l18 98q-30 8 -55 21t-43.5 29t-28.5 33.5t-10 33.5q0 17 9.5 31t23.5 25t30.5 17t31.5 6
q24 0 32.5 -12t11.5 -31q9 -48 29 -69.5t52 -21.5q29 0 46 15.5t17 43.5q0 29 -20 50.5t-50 40.5t-64.5 38t-64.5 41.5t-50 51t-20 67.5q0 32 13.5 61t39.5 50.5t64 34t87 12.5q42 0 78.5 -10.5t63 -27t41.5 -36t15 -38.5q0 -16 -9.5 -30.5t-23.5 -25t-31 -16.5t-32 -6
q-23 0 -31 12t-13 30q-11 43 -29 60t-43 17q-14 0 -29 -12t-15 -35z" />
    <glyph glyph-name="Scaron" unicode="&#x160;" horiz-adv-x="552" 
d="M305 745q-8 -8 -14.5 -10.5t-14.5 -2.5t-14.5 2.5t-14.5 10.5l-81 95q-16 20 -3 33l10 9q6 6 12 6q9 0 20 -11q6 -5 17.5 -17t23.5 -23q14 -14 30 -29q16 15 30 29q12 11 24 23l17 17q11 11 20 11q6 0 13 -6l9 -9q8 -8 6.5 -15.5t-9.5 -17.5zM202 560q0 -30 24.5 -53.5
t61 -45t79 -44.5t79 -52.5t61 -68.5t24.5 -93q0 -42 -16 -80t-48.5 -67t-81 -46t-113.5 -17q-58 0 -104.5 16t-79.5 39.5t-50.5 51t-17.5 49.5q0 20 8.5 35.5t22 26.5t31 17t35.5 6q29 0 39 -12t15 -35q13 -50 39.5 -83t74.5 -33q32 0 51.5 22t19.5 61q0 36 -24.5 63
t-61 50.5t-79 46.5t-79 51t-61 63.5t-24.5 83.5q0 40 16.5 75.5t49 62t79.5 42t107 15.5q52 0 97 -14.5t78 -36t51.5 -48t18.5 -50.5q0 -20 -8.5 -35.5t-22 -26.5t-31 -17t-35.5 -6q-29 0 -39 12t-15 35q-13 50 -38 79.5t-69 29.5q-29 0 -46.5 -18.5t-17.5 -50.5z" />
    <glyph glyph-name="scaron" unicode="&#x161;" horiz-adv-x="469" 
d="M263 608q-8 -8 -14 -10.5t-14 -2.5t-14.5 2.5t-14.5 10.5l-81 95q-17 20 -4 33l10 9q6 6 12 6q9 0 20 -11q6 -5 18 -17t24 -23q14 -14 30 -29q16 15 30 29q12 11 24 23l17 17q11 11 20 11q6 0 12 -6l10 -9q13 -13 -4 -33zM180 452q0 -25 20 -44t50 -36.5t64.5 -36
t64.5 -42.5t50 -55.5t20 -74.5q0 -34 -14.5 -64.5t-42 -54t-68.5 -37.5t-95 -14q-43 0 -81.5 12t-66.5 30t-44.5 40.5t-16.5 43.5q0 17 9.5 31t23.5 25t30.5 17t31.5 6q24 0 32.5 -12t11.5 -31q9 -48 29 -69.5t52 -21.5q29 0 46 15.5t17 43.5q0 29 -20 50.5t-50 40.5
t-64.5 38t-64.5 41.5t-50 51t-20 67.5q0 32 13.5 61t39.5 50.5t64 34t87 12.5q42 0 78.5 -10.5t63 -27t41.5 -36t15 -38.5q0 -16 -9.5 -30.5t-23.5 -25t-31 -16.5t-32 -6q-23 0 -31 12t-13 30q-11 43 -29 60t-43 17q-14 0 -29 -12t-15 -35z" />
    <glyph glyph-name="Umacron" unicode="&#x16a;" horiz-adv-x="649" 
d="M462 849q31 0 31 -24v-23q0 -24 -31 -24h-195q-31 0 -31 24v23q0 24 31 24h195zM580 700q25 0 39.5 -9.5t14.5 -31.5q0 -19 -7.5 -29t-16 -19.5t-16 -21t-7.5 -33.5v-350q0 -48 -18 -87.5t-51 -67t-80 -43t-105 -15.5q-61 0 -111.5 15t-85.5 43t-54.5 67t-19.5 88v350
q0 22 -7.5 33.5t-16 20.5t-16 19.5t-7.5 29.5q0 22 14.5 31.5t39.5 9.5h164q25 0 39.5 -9.5t14.5 -31.5q0 -19 -7.5 -29.5t-16 -19.5t-16 -20.5t-7.5 -33.5v-329q0 -30 8.5 -55.5t25.5 -44.5t43 -30t60 -11q33 0 57.5 10.5t40.5 29t24 43t8 51.5v336q0 22 -7.5 33.5
t-16 20.5t-16 19.5t-7.5 29.5q0 22 14.5 31.5t40.5 9.5h65z" />
    <glyph glyph-name="umacron" unicode="&#x16b;" horiz-adv-x="579" 
d="M387 712q31 0 31 -24v-23q0 -24 -31 -24h-195q-31 0 -31 24v23q0 24 31 24h195zM516 179q0 -22 7.5 -33t16 -19.5t16 -17t7.5 -25.5q0 -19 -18.5 -36t-44 -29t-52 -19t-41.5 -7q-25 0 -39.5 10.5t-14.5 37.5v64q-21 -48 -59 -80t-100 -32q-37 0 -63.5 12.5t-42.5 33.5
t-23.5 49t-7.5 60v236q0 22 -7.5 33t-16 19.5t-16 17t-7.5 25.5q0 20 19 36.5t44.5 28.5t52 19t41.5 7q25 0 39.5 -10.5t14.5 -37.5v-343q0 -38 9.5 -55t32.5 -17q24 0 41 19t28 49t16 66.5t5 70.5v72q0 22 -7.5 33.5t-16 19.5t-16 17t-7.5 25q0 20 18.5 36.5t44 28.5t52 19
t41.5 7q25 0 39.5 -10.5t14.5 -37.5v-343z" />
    <glyph glyph-name="Uring" unicode="&#x16e;" horiz-adv-x="649" 
d="M365 900q43 0 70.5 -26t27.5 -74t-27.5 -74.5t-70.5 -26.5q-44 0 -71.5 26.5t-27.5 74.5t27.5 74t71.5 26zM365 731q29 0 48 18t19 51t-19 50.5t-48 17.5t-48.5 -17.5t-19.5 -50.5t19.5 -51t48.5 -18zM580 700q25 0 39.5 -9.5t14.5 -31.5q0 -19 -7.5 -29t-16 -19.5
t-16 -21t-7.5 -33.5v-350q0 -48 -18 -87.5t-51 -67t-80 -43t-105 -15.5q-61 0 -111.5 15t-85.5 43t-54.5 67t-19.5 88v350q0 22 -7.5 33.5t-16 20.5t-16 19.5t-7.5 29.5q0 22 14.5 31.5t39.5 9.5h164q25 0 39.5 -9.5t14.5 -31.5q0 -19 -7.5 -29.5t-16 -19.5t-16 -20.5
t-7.5 -33.5v-329q0 -30 8.5 -55.5t25.5 -44.5t43 -30t60 -11q33 0 57.5 10.5t40.5 29t24 43t8 51.5v336q0 22 -7.5 33.5t-16 20.5t-16 19.5t-7.5 29.5q0 22 14.5 31.5t40.5 9.5h65z" />
    <glyph glyph-name="uring" unicode="&#x16f;" horiz-adv-x="579" 
d="M290 763q43 0 70.5 -26t27.5 -74t-27.5 -74.5t-70.5 -26.5q-44 0 -71.5 26.5t-27.5 74.5t27.5 74t71.5 26zM290 594q29 0 48 18t19 51t-19 50.5t-48 17.5t-48.5 -17.5t-19.5 -50.5t19.5 -51t48.5 -18zM516 179q0 -22 7.5 -33t16 -19.5t16 -17t7.5 -25.5q0 -19 -18.5 -36
t-44 -29t-52 -19t-41.5 -7q-25 0 -39.5 10.5t-14.5 37.5v64q-21 -48 -59 -80t-100 -32q-37 0 -63.5 12.5t-42.5 33.5t-23.5 49t-7.5 60v236q0 22 -7.5 33t-16 19.5t-16 17t-7.5 25.5q0 20 19 36.5t44.5 28.5t52 19t41.5 7q25 0 39.5 -10.5t14.5 -37.5v-343q0 -38 9.5 -55
t32.5 -17q24 0 41 19t28 49t16 66.5t5 70.5v72q0 22 -7.5 33.5t-16 19.5t-16 17t-7.5 25q0 20 18.5 36.5t44 28.5t52 19t41.5 7q25 0 39.5 -10.5t14.5 -37.5v-343z" />
    <glyph glyph-name="Uhungarumlaut" unicode="&#x170;" horiz-adv-x="649" 
d="M381 862q14 -16 -7 -34q-23 -18 -44 -33q-17 -14 -35 -27.5t-29 -21.5q-13 -10 -21 -10q-7 0 -14 8l-9 11q-8 9 -5.5 17t12.5 18q9 8 25.5 23.5t33.5 30.5q19 18 41 38q11 9 20 9q8 0 15 -8zM507 862q14 -16 -7 -34q-23 -18 -44 -33q-17 -14 -35 -27.5t-29 -21.5
q-13 -10 -20 -10q-8 0 -15 8l-9 11q-8 9 -5.5 17t12.5 18q9 8 25.5 23.5t33.5 30.5q19 18 41 38q11 9 20 9q8 0 15 -8zM580 700q25 0 39.5 -9.5t14.5 -31.5q0 -19 -7.5 -29t-16 -19.5t-16 -21t-7.5 -33.5v-350q0 -48 -18 -87.5t-51 -67t-80 -43t-105 -15.5q-61 0 -111.5 15
t-85.5 43t-54.5 67t-19.5 88v350q0 22 -7.5 33.5t-16 20.5t-16 19.5t-7.5 29.5q0 22 14.5 31.5t39.5 9.5h164q25 0 39.5 -9.5t14.5 -31.5q0 -19 -7.5 -29.5t-16 -19.5t-16 -20.5t-7.5 -33.5v-329q0 -30 8.5 -55.5t25.5 -44.5t43 -30t60 -11q33 0 57.5 10.5t40.5 29t24 43
t8 51.5v336q0 22 -7.5 33.5t-16 20.5t-16 19.5t-7.5 29.5q0 22 14.5 31.5t40.5 9.5h65z" />
    <glyph glyph-name="uhungarumlaut" unicode="&#x171;" horiz-adv-x="579" 
d="M306 725q14 -16 -7 -34q-23 -18 -44 -33q-17 -14 -35 -27.5t-29 -21.5q-13 -10 -21 -10q-7 0 -14 8l-9 11q-8 9 -5.5 17t12.5 18q9 8 25.5 23.5t33.5 30.5q19 18 41 38q11 9 20 9q8 0 15 -8zM432 725q14 -16 -7 -34q-23 -18 -44 -33q-17 -14 -35 -27.5t-29 -21.5
q-13 -10 -20 -10q-8 0 -15 8l-9 11q-8 9 -5.5 17t12.5 18q9 8 25.5 23.5t33.5 30.5q19 18 41 38q11 9 20 9q8 0 15 -8zM516 179q0 -22 7.5 -33t16 -19.5t16 -17t7.5 -25.5q0 -19 -18.5 -36t-44 -29t-52 -19t-41.5 -7q-25 0 -39.5 10.5t-14.5 37.5v64q-21 -48 -59 -80
t-100 -32q-37 0 -63.5 12.5t-42.5 33.5t-23.5 49t-7.5 60v236q0 22 -7.5 33t-16 19.5t-16 17t-7.5 25.5q0 20 19 36.5t44.5 28.5t52 19t41.5 7q25 0 39.5 -10.5t14.5 -37.5v-343q0 -38 9.5 -55t32.5 -17q24 0 41 19t28 49t16 66.5t5 70.5v72q0 22 -7.5 33.5t-16 19.5t-16 17
t-7.5 25q0 20 18.5 36.5t44 28.5t52 19t41.5 7q25 0 39.5 -10.5t14.5 -37.5v-343z" />
    <glyph glyph-name="Uogonek" unicode="&#x172;" horiz-adv-x="649" 
d="M580 700q25 0 39.5 -9.5t14.5 -31.5q0 -19 -7.5 -29.5t-16 -19.5t-16 -20.5t-7.5 -33.5v-350q0 -83 -51.5 -138.5t-142.5 -70.5q-11 -23 -15 -43.5t-4 -43.5t10.5 -39.5t28.5 -21.5q13 -4 11 -16l-3 -16q-2 -12 -15 -12q-54 4 -78 32.5t-24 73.5q0 40 22 82
q-60 1 -108.5 16.5t-83 43t-53.5 66.5t-19 87v350q0 22 -7.5 33.5t-16 20.5t-16 19.5t-7.5 29.5q0 22 14.5 31.5t39.5 9.5h164q25 0 39.5 -9.5t14.5 -31.5q0 -19 -7.5 -29.5t-16 -19.5t-16 -20.5t-7.5 -33.5v-329q0 -30 8.5 -55.5t25.5 -44.5t43 -30t60 -11q33 0 57.5 10.5
t40.5 29t24 43t8 51.5v336q0 22 -7.5 33.5t-16 20.5t-16 19.5t-7.5 29.5q0 22 14.5 31.5t40.5 9.5h65z" />
    <glyph glyph-name="uogonek" unicode="&#x173;" horiz-adv-x="579" 
d="M516 186q0 -22 7.5 -33t16 -19.5t16 -17t7.5 -25.5q0 -16 -12.5 -30t-31.5 -25t-41.5 -19.5t-41.5 -12.5q-12 -26 -17.5 -47.5t-5.5 -46.5q0 -23 10.5 -39.5t29.5 -21.5q13 -4 10 -16l-2 -16q-3 -12 -15 -12q-54 4 -78 32.5t-24 72.5q0 26 7.5 49.5t21.5 47.5
q-10 5 -15 14.5t-5 26.5v57q-21 -48 -59 -80t-100 -32q-37 0 -63.5 12.5t-42.5 33.5t-23.5 49t-7.5 60v236q0 22 -7.5 33t-16 19.5t-16 17t-7.5 25.5q0 20 19 36.5t44.5 28.5t52 19t41.5 7q25 0 39.5 -10.5t14.5 -37.5v-343q0 -38 9.5 -55t32.5 -17q24 0 41 19t28 49
t16 66.5t5 70.5v72q0 22 -7.5 33.5t-16 19.5t-16 17t-7.5 25q0 20 18.5 36.5t44 28.5t52 19t41.5 7q25 0 39.5 -10.5t14.5 -37.5v-336z" />
    <glyph glyph-name="Ydieresis" unicode="&#x178;" horiz-adv-x="596" 
d="M267 877q28 0 46 -16.5t18 -46.5q0 -31 -18 -47.5t-46 -16.5q-29 0 -47 16.5t-18 47.5q0 30 18 46.5t47 16.5zM429 877q29 0 47 -16.5t18 -46.5q0 -31 -18 -47.5t-47 -16.5q-28 0 -46 16.5t-18 47.5q0 30 18 46.5t46 16.5zM554 700q20 0 33 -10.5t13 -30.5q0 -15 -6 -25
t-15.5 -20t-21.5 -23t-24 -35l-139 -244v-168q0 -22 7.5 -33.5t16 -20.5t16 -19.5t7.5 -29.5q0 -22 -14.5 -31.5t-39.5 -9.5h-164q-25 0 -39.5 9.5t-14.5 31.5q0 19 7.5 29.5t16 19.5t16 20.5t7.5 33.5v156l-154 256q-12 20 -23.5 32.5t-21.5 22.5t-16 21t-6 27
q0 20 13.5 30.5t33.5 10.5h184q28 0 41 -9t13 -32q0 -16 -7 -27t-12.5 -22.5t-4.5 -26.5t16 -41l83 -136l77 136q16 29 17 45t-4.5 26.5t-13 20t-7.5 25.5q0 23 13 32t41 9h76z" />
    <glyph glyph-name="Zacute" unicode="&#x179;" horiz-adv-x="546" 
d="M373 862q14 -15 -8 -34q-23 -18 -44 -33q-17 -14 -35 -27.5t-28 -21.5q-13 -10 -21 -10t-15 8l-9 11q-8 9 -5.5 17t13.5 18q9 8 25.5 23.5t33.5 30.5q19 18 40 38q11 9 21 9q8 0 15 -8zM500 147q23 0 31 -13.5t3 -37.5l-7 -38q-5 -23 -16.5 -40.5t-39.5 -17.5h-415
q-51 0 -51 41q0 12 3.5 22.5t10 21.5t15.5 24.5t19 32.5l258 480h-148q-22 0 -33.5 -7.5t-20.5 -16t-19.5 -16t-29.5 -7.5q-22 0 -31.5 14.5t-9.5 39.5v30q0 22 14.5 31.5t39.5 9.5h398q50 0 50 -41q0 -12 -3 -21.5t-9 -21t-14 -25t-19 -33.5l-260 -480h155q27 0 42.5 11
t27.5 23.5t24.5 23.5t34.5 11z" />
    <glyph glyph-name="zacute" unicode="&#x17a;" horiz-adv-x="486" 
d="M323 725q14 -15 -8 -34q-23 -18 -44 -33q-17 -14 -35 -27.5t-28 -21.5q-13 -10 -21 -10t-15 8l-9 11q-8 9 -5.5 17t13.5 18q9 8 25.5 23.5t33.5 30.5q19 18 40 38q11 9 21 9q8 0 15 -8zM430 140q23 0 30.5 -14t2.5 -37l-7 -38q-4 -23 -15.5 -37t-39.5 -14h-330
q-51 0 -51 41q0 12 3.5 22.5t10 21.5t15.5 25t20 32l207 350h-84q-27 0 -42.5 -11t-27.5 -23.5t-24.5 -23.5t-34.5 -11q-23 0 -31 14t-3 37l7 38q5 23 16.5 37t38.5 14h317q50 0 50 -41q0 -12 -3.5 -22t-10 -21.5t-15 -25.5t-19.5 -32l-208 -350h99q27 0 42 11t27 23.5
t25 23.5t35 11z" />
    <glyph glyph-name="Zdotaccent" unicode="&#x17b;" horiz-adv-x="546" 
d="M293 877q29 0 47 -16.5t18 -46.5q0 -31 -18 -47.5t-47 -16.5q-28 0 -46.5 16.5t-18.5 47.5q0 30 18.5 46.5t46.5 16.5zM500 147q23 0 31 -13.5t3 -37.5l-7 -38q-5 -23 -16.5 -40.5t-39.5 -17.5h-415q-51 0 -51 41q0 12 3.5 22.5t10 21.5t15.5 24.5t19 32.5l258 480h-148
q-22 0 -33.5 -7.5t-20.5 -16t-19.5 -16t-29.5 -7.5q-22 0 -31.5 14.5t-9.5 39.5v30q0 22 14.5 31.5t39.5 9.5h398q50 0 50 -41q0 -12 -3 -21.5t-9 -21t-14 -25t-19 -33.5l-260 -480h155q27 0 42.5 11t27.5 23.5t24.5 23.5t34.5 11z" />
    <glyph glyph-name="zdotaccent" unicode="&#x17c;" horiz-adv-x="486" 
d="M243 740q29 0 47 -16.5t18 -46.5q0 -31 -18 -47.5t-47 -16.5q-28 0 -46.5 16.5t-18.5 47.5q0 30 18.5 46.5t46.5 16.5zM430 140q23 0 30.5 -14t2.5 -37l-7 -38q-4 -23 -15.5 -37t-39.5 -14h-330q-51 0 -51 41q0 12 3.5 22.5t10 21.5t15.5 25t20 32l207 350h-84
q-27 0 -42.5 -11t-27.5 -23.5t-24.5 -23.5t-34.5 -11q-23 0 -31 14t-3 37l7 38q5 23 16.5 37t38.5 14h317q50 0 50 -41q0 -12 -3.5 -22t-10 -21.5t-15 -25.5t-19.5 -32l-208 -350h99q27 0 42 11t27 23.5t25 23.5t35 11z" />
    <glyph glyph-name="Zcaron" unicode="&#x17d;" horiz-adv-x="546" 
d="M322 745q-8 -8 -14.5 -10.5t-14.5 -2.5t-14.5 2.5t-14.5 10.5l-81 95q-16 20 -3 33l10 9q6 6 12 6q9 0 20 -11q6 -5 17.5 -17t23.5 -23q14 -14 30 -29q16 15 30 29q12 11 24 23l17 17q11 11 20 11q6 0 13 -6l9 -9q8 -8 6.5 -15.5t-9.5 -17.5zM500 147q23 0 31 -13.5
t3 -37.5l-7 -38q-5 -23 -16.5 -40.5t-39.5 -17.5h-415q-51 0 -51 41q0 12 3.5 22.5t10 21.5t15.5 24.5t19 32.5l258 480h-148q-22 0 -33.5 -7.5t-20.5 -16t-19.5 -16t-29.5 -7.5q-22 0 -31.5 14.5t-9.5 39.5v30q0 22 14.5 31.5t39.5 9.5h398q50 0 50 -41q0 -12 -3 -21.5
t-9 -21t-14 -25t-19 -33.5l-260 -480h155q27 0 42.5 11t27.5 23.5t24.5 23.5t34.5 11z" />
    <glyph glyph-name="zcaron" unicode="&#x17e;" horiz-adv-x="486" 
d="M272 608q-8 -8 -14.5 -10.5t-14.5 -2.5t-14.5 2.5t-14.5 10.5l-81 95q-16 20 -3 33l10 9q6 6 12 6q9 0 20 -11q6 -5 17.5 -17t23.5 -23q14 -14 30 -29q16 15 30 29q12 11 24 23l17 17q11 11 20 11q6 0 13 -6l9 -9q8 -8 6.5 -15.5t-9.5 -17.5zM430 140q23 0 30.5 -14
t2.5 -37l-7 -38q-4 -23 -15.5 -37t-39.5 -14h-330q-51 0 -51 41q0 12 3.5 22.5t10 21.5t15.5 25t20 32l207 350h-84q-27 0 -42.5 -11t-27.5 -23.5t-24.5 -23.5t-34.5 -11q-23 0 -31 14t-3 37l7 38q5 23 16.5 37t38.5 14h317q50 0 50 -41q0 -12 -3.5 -22t-10 -21.5t-15 -25.5
t-19.5 -32l-208 -350h99q27 0 42 11t27 23.5t25 23.5t35 11z" />
    <glyph glyph-name="florin" unicode="&#x192;" horiz-adv-x="333" 
d="M63 492h-44q-32 0 -32 24v23q0 24 31 24h45q0 35 10.5 70t33 63.5t58.5 46.5t86 18q39 0 68 -10t48 -23.5t28 -28.5t9 -26q0 -16 -8 -30.5t-20.5 -25.5t-27.5 -17t-30 -6q-21 0 -30 8.5t-14 26.5q-3 11 -7.5 23t-10 22t-13 16.5t-17.5 6.5q-11 0 -19.5 -12t-8.5 -36
q0 -15 3 -30t8 -28q4 -15 10 -28h87q32 0 32 -24v-23q0 -24 -32 -24h-79v-492q0 -35 -10.5 -70t-33.5 -63.5t-59 -46.5t-86 -18q-39 0 -68 10t-48 23.5t-28 28.5t-9 26q0 16 8 30.5t20.5 25.5t27.5 17t30 6q21 0 30.5 -8.5t14.5 -26.5q3 -11 7 -23t9 -22t12 -16.5t16 -6.5
q24 0 24 34q0 40 -10.5 94t-10.5 120v378z" />
    <glyph glyph-name="circumflex" unicode="&#x2c6;" horiz-adv-x="270" 
d="M245 646q8 -10 9.5 -17.5t-6.5 -15.5l-9 -8q-7 -6 -13 -6q-7 0 -20 11q-5 5 -17 16.5t-24 23.5q-14 13 -30 29q-16 -16 -30 -29l-23.5 -23.5t-17.5 -16.5q-11 -11 -20 -11q-6 0 -12 6l-10 8q-13 14 3 33l82 95q8 8 14 11t14 3t14.5 -3t14.5 -11z" />
    <glyph glyph-name="caron" unicode="&#x2c7;" horiz-adv-x="270" 
d="M164 608q-8 -8 -14.5 -10.5t-14.5 -2.5t-14 2.5t-14 10.5l-82 95q-16 20 -3 33l10 9q6 6 12 6q9 0 20 -11q6 -5 17.5 -17t23.5 -23q14 -14 30 -29q16 15 30 29q12 11 24 23l17 17q13 11 20 11q6 0 13 -6l9 -9q8 -8 6.5 -15.5t-9.5 -17.5z" />
    <glyph glyph-name="breve" unicode="&#x2d8;" horiz-adv-x="226" 
d="M197 727q6 0 10.5 -4.5t3.5 -10.5q-5 -42 -31.5 -64t-66.5 -22q-39 0 -65.5 22t-31.5 64q-1 6 3.5 10.5t10.5 4.5h15q11 0 14 -10q5 -14 19.5 -21t34.5 -7q21 0 35.5 7t19.5 21q2 10 13 10h16z" />
    <glyph glyph-name="dotaccent" unicode="&#x2d9;" horiz-adv-x="161" 
d="M80 740q29 0 47 -16.5t18 -46.5q0 -31 -18 -47.5t-46 -16.5q-29 0 -47 16.5t-18 47.5q0 30 18 46.5t46 16.5z" />
    <glyph glyph-name="ring" unicode="&#x2da;" horiz-adv-x="228" 
d="M114 763q43 0 71 -26t28 -74t-28 -74.5t-71 -26.5t-70.5 26.5t-27.5 74.5t27.5 74t70.5 26zM114 594q29 0 48 18t19 51t-19 50.5t-48 17.5t-48 -17.5t-19 -50.5t19 -51t48 -18z" />
    <glyph glyph-name="ogonek" unicode="&#x2db;" horiz-adv-x="151" 
d="M124 -171q13 -3 11 -16l-2 -16q-3 -12 -15 -12q-54 4 -78 32.5t-24 73.5q0 38 17 73.5t49 72.5q4 4 11 4h21q8 0 12 -6.5t0 -14.5q-22 -41 -31.5 -69.5t-9.5 -59.5q0 -24 10.5 -40.5t28.5 -21.5z" />
    <glyph glyph-name="tilde" unicode="&#x2dc;" horiz-adv-x="263" 
d="M235 719q6 -2 10 -6.5t2 -10.5q-6 -32 -23 -51.5t-44 -19.5q-12 0 -25 4.5t-26 10t-25 10t-21 4.5q-8 0 -15.5 -4.5t-12.5 -14.5t-15 -8l-12 2q-6 1 -10 6t-2 10q6 32 23.5 51.5t43.5 19.5q12 0 25 -4.5t26 -9.5t25 -9.5t21 -4.5q8 0 15.5 4t12.5 14t15 8z" />
    <glyph glyph-name="hungarumlaut" unicode="&#x2dd;" horiz-adv-x="328" 
d="M181 725q15 -16 -8 -34t-43 -33q-18 -14 -35.5 -27.5t-28.5 -21.5q-13 -10 -21 -10t-15 8l-9 11q-8 9 -5.5 17t13.5 18q9 8 25.5 23.5t33.5 30.5q19 18 40 38q11 9 21 9q8 0 15 -8zM307 725q14 -16 -7 -34q-23 -18 -44 -33q-17 -14 -35 -27.5t-29 -21.5q-13 -10 -21 -10
t-15 8l-9 11q-8 9 -5.5 17t13.5 18q9 8 25.5 23.5t33.5 30.5q19 18 40 38q11 9 21 9q8 0 15 -8z" />
    <glyph glyph-name="endash" unicode="&#x2013;" horiz-adv-x="431" 
d="M46 242q-31 0 -31 25v30q0 24 31 24h338q31 0 31 -24v-30q0 -25 -31 -25h-338z" />
    <glyph glyph-name="emdash" unicode="&#x2014;" horiz-adv-x="644" 
d="M46 242q-31 0 -31 25v30q0 24 31 24h552q31 0 31 -24v-30q0 -25 -31 -25h-552z" />
    <glyph glyph-name="quoteleft" unicode="&#x2018;" horiz-adv-x="192" 
d="M96 443q-35 0 -58 22t-23 65q0 37 13 68t32.5 53.5t42 35.5t41.5 13q9 0 15 -4.5t6 -12.5q0 -10 -7.5 -18t-16 -16.5t-16 -17t-7.5 -18.5q0 -7 9 -12.5t20.5 -14t20.5 -23t9 -40.5q0 -38 -23 -59t-58 -21z" />
    <glyph glyph-name="quoteright" unicode="&#x2019;" horiz-adv-x="192" 
d="M96 700q35 0 58 -22t23 -65q0 -37 -13 -68t-32.5 -53.5t-42 -35.5t-41.5 -13q-9 0 -15 4.5t-6 12.5q0 10 7.5 18.5t16 16.5t16 17t7.5 19q0 8 -9 13t-20.5 13.5t-20.5 23t-9 39.5q0 38 23 59t58 21z" />
    <glyph glyph-name="quotesinglbase" unicode="&#x201a;" horiz-adv-x="192" 
d="M96 159q35 0 58 -21.5t23 -64.5q0 -37 -13 -68.5t-32.5 -54t-42 -35.5t-41.5 -13q-9 0 -15 4.5t-6 12.5q0 10 7.5 18.5t16 16.5t16 17t7.5 19q0 7 -9 12.5t-20.5 14t-20.5 23t-9 40.5q0 38 23 58.5t58 20.5z" />
    <glyph glyph-name="quotedblleft" unicode="&#x201c;" horiz-adv-x="404" 
d="M308 443q-35 0 -58 22t-23 65q0 37 13 68t32.5 53.5t42 35.5t41.5 13q8 0 14 -4.5t6 -12.5q0 -10 -7.5 -18t-16 -16.5t-16 -17t-7.5 -18.5q0 -7 9.5 -12.5t20.5 -14t20.5 -23t9.5 -40.5q0 -38 -23 -59t-58 -21zM96 443q-35 0 -58 22t-23 65q0 37 13 68t32.5 53.5t42 35.5
t41.5 13q9 0 15 -4.5t6 -12.5q0 -10 -7.5 -18t-16 -16.5t-16 -17t-7.5 -18.5q0 -7 9 -12.5t20.5 -14t20.5 -23t9 -40.5q0 -38 -23 -59t-58 -21z" />
    <glyph glyph-name="quotedblright" unicode="&#x201d;" horiz-adv-x="404" 
d="M96 700q35 0 58 -22t23 -65q0 -37 -13 -68t-32.5 -53.5t-42 -35.5t-41.5 -13q-9 0 -15 4.5t-6 12.5q0 10 7.5 18.5t16 16.5t16 17t7.5 19q0 8 -9 13t-20.5 13.5t-20.5 23t-9 39.5q0 38 23 59t58 21zM308 700q35 0 58 -22t23 -65q0 -37 -13 -68t-32.5 -53.5t-42 -35.5
t-41.5 -13q-9 0 -15 4.5t-6 12.5q0 10 7.5 18.5t16 16.5t16 17t7.5 19q0 8 -9 13t-20.5 13.5t-20.5 23t-9 39.5q0 38 23 59t58 21z" />
    <glyph glyph-name="quotedblbase" unicode="&#x201e;" horiz-adv-x="404" 
d="M96 159q35 0 58 -21.5t23 -64.5q0 -37 -13 -68.5t-32.5 -54t-42 -35.5t-41.5 -13q-9 0 -15 4.5t-6 12.5q0 10 7.5 18.5t16 16.5t16 17t7.5 19q0 7 -9 12.5t-20.5 14t-20.5 23t-9 40.5q0 38 23 58.5t58 20.5zM308 159q35 0 58 -21.5t23 -64.5q0 -37 -13 -68.5t-32.5 -54
t-42 -35.5t-41.5 -13q-9 0 -15 4.5t-6 12.5q0 10 7.5 18.5t16 16.5t16 17t7.5 19q0 7 -9 12.5t-20.5 14t-20.5 23t-9 40.5q0 38 23 58.5t58 20.5z" />
    <glyph glyph-name="dagger" unicode="&#x2020;" horiz-adv-x="288" 
d="M241 563q32 0 32 -24v-30q0 -24 -31 -24h-59v-454q0 -31 -24 -31h-30q-24 0 -24 31v454h-59q-31 0 -31 24v30q0 24 31 24h59v106q0 31 24 31h30q24 0 24 -31v-106h58z" />
    <glyph glyph-name="bullet" unicode="&#x2022;" horiz-adv-x="277" 
d="M138 161q-54 0 -88.5 31t-34.5 90q0 58 34.5 89t88.5 31t88.5 -31t34.5 -89q0 -59 -34.5 -90t-88.5 -31z" />
    <glyph glyph-name="ellipsis" unicode="&#x2026;" horiz-adv-x="644" 
d="M96 159q35 0 58 -20.5t23 -58.5t-23 -59t-58 -21t-58 21t-23 59t23 58.5t58 20.5zM322 159q35 0 58 -20.5t23 -58.5t-23 -59t-58 -21t-58 21t-23 59t23 58.5t58 20.5zM548 159q35 0 58 -20.5t23 -58.5t-23 -59t-58 -21t-58 21t-23 59t23 58.5t58 20.5z" />
    <glyph glyph-name="guilsinglleft" unicode="&#x2039;" horiz-adv-x="303" 
d="M287 418q0 -25 -31 -42l-163 -94l163 -95q31 -17 31 -42v-30q0 -14 -10 -14q-7 0 -21 8l-210 121q-31 19 -31 42v19q0 23 31 42l210 121q14 8 21 8q10 0 10 -14v-30z" />
    <glyph glyph-name="guilsinglright" unicode="&#x203a;" horiz-adv-x="303" 
d="M256 333q31 -19 31 -42v-19q0 -23 -31 -42l-210 -121q-14 -8 -21 -8q-10 0 -10 14v30q0 25 31 42l163 95l-163 94q-31 17 -31 42v30q0 14 10 14q7 0 21 -8z" />
    <glyph glyph-name="fraction" unicode="&#x2044;" horiz-adv-x="415" 
d="M405 700q14 0 15 -7.5t-7 -23.5l-339 -637q-17 -32 -41 -32h-23q-24 0 -7 32l339 637q16 31 41 31h22z" />
    <glyph glyph-name="Euro" unicode="&#x20ac;" horiz-adv-x="628" 
d="M369 629q-43 0 -75 -47t-40 -128h110q32 0 32 -24v-30q0 -24 -32 -24h-111q0 -14 1 -26.5t3 -24.5h107q32 0 32 -24v-30q0 -14 -8 -19t-24 -5h-90q24 -70 67 -100.5t90 -30.5q46 0 71.5 16t40.5 35t24.5 35t23.5 16q20 0 20 -23q0 -32 -15.5 -67.5t-46 -65.5t-77 -49.5
t-109.5 -19.5q-54 0 -101 17.5t-84 50.5t-63 80t-38 105h-50q-32 0 -32 25v30q0 24 32 24h40v25v26h-40q-32 0 -32 24v30q0 24 32 24h51q14 59 42.5 106t68.5 80t89 50.5t104 17.5t97.5 -17.5t72 -43t45 -55.5t15.5 -55q0 -20 -8 -35.5t-21.5 -26.5t-31 -17t-35.5 -6
q-29 0 -39.5 12t-15.5 35q-11 60 -32.5 95t-59.5 35z" />
    <glyph glyph-name="trademark" unicode="&#x2122;" horiz-adv-x="562" 
d="M528 487q1 -8 4 -12.5t6 -8t5.5 -7.5t2.5 -11q0 -16 -20 -16h-67q-21 0 -21 16q0 7 2.5 11t5.5 7.5t5.5 8t1.5 12.5l-12 118l-40 -158q-4 -15 -29 -15q-24 0 -29 15l-44 159l-10 -119q-1 -8 1 -12.5t5 -8t6 -7.5t3 -12q0 -15 -21 -15h-29q-20 0 -20 15q0 8 2.5 11.5
t5.5 7t6 8t4 13.5l16 158q1 8 -1 12.5t-5 8t-6 7.5t-3 11q0 16 21 16h57q18 0 22 -16l37 -145l36 145q4 16 22 16h58q21 0 21 -16q0 -7 -3 -11t-6 -7.5t-5 -8t-1 -12.5zM249 666q0 -21 -16 -21q-7 0 -11 3t-7.5 6t-8 6t-12.5 3h-24v-176q0 -8 3 -12.5t6 -8t6 -7.5t3 -12
q0 -15 -21 -15h-70q-21 0 -21 15q0 8 3 12t6 7.5t6 8t3 12.5v176h-24q-8 0 -12.5 -3t-8 -6t-7.5 -6t-11 -3q-16 0 -16 21v18q0 16 21 16h192q21 0 21 -16v-18z" />
    <glyph glyph-name="minus" unicode="&#x2212;" horiz-adv-x="431" 
d="M46 242q-31 0 -31 25v30q0 24 31 24h338q31 0 31 -24v-30q0 -25 -31 -25h-338z" />
    </font>
</defs>
</svg>
