<svg xmlns="http://www.w3.org/2000/svg">
<defs>
<font id="Kangmas-Italic" horiz-adv-x="634" >
  <font-face 
    font-family="Kangmas"
    font-weight="400"
    font-style="italic"
    font-stretch="normal"
    units-per-em="1000"
    panose-1="0 0 0 0 0 0 0 0 0 0"
    ascent="800"
    descent="-200"
    x-height="563"
    cap-height="700"
    bbox="-255.364 -248 1020.56 900"
    underline-thickness="50"
    underline-position="-125"
    slope="-12"
    unicode-range="U+000D-FB04"
  />
<missing-glyph horiz-adv-x="463" 
d="M243 162l-16 -80l-102 -21q11 -19 26 -29t36 -18q2 0 3.5 -0.5t2.5 -0.5l3 -1q5 -1 10 -1h10q37 2 63.5 18t46 40.5t33.5 55t25 60.5q20 56 30.5 111.5t12.5 110.5q2 51 -3.5 100.5t-23.5 93.5q-14 35 -41 61t-66 29q-51 2 -90.5 -24.5t-69 -67t-49 -88t-30.5 -86.5
q-16 -60 -22 -119.5t1 -116.5q2 -22 6 -43.5t13 -40.5q-1 1 -5 1t-5 1q-2 0 -6 0.5t-5 1.5q-13 32 -17.5 69.5t-4.5 72.5q0 51 10.5 113.5t32 122.5t55.5 111.5t82 79.5q39 23 81 23q19 0 36 -4t34 -11q42 -17 65.5 -57.5t33.5 -91t9.5 -104t-6.5 -96.5q-5 -37 -15.5 -82
t-28 -89t-42 -82t-57.5 -61q-21 -14 -43.5 -19t-44.5 -2q-18 2 -35.5 7.5t-31.5 14.5q-30 20 -46.5 53.5t-22.5 73.5t-4.5 81.5t6.5 77.5q0 -1 10.5 -2t10.5 -3q-4 -30 -6 -61.5t0 -62.5t9 -60t20 -53l7 34l29 3v2q-14 1 -19.5 11t-2.5 25t14 23.5t24 8.5q16 0 24.5 -11.5
t5.5 -34.5h2l7 33h31zM278 598h-2l-10 -48h-43l20 93h43l4 -49h3l10 49h43l-20 -93h-43zM322 533l-17 -80l-107 -23l9 43l29 3v2q-14 1 -19.5 11t-2.5 25t14 23.5t24 8.5q34 0 30 -46h2l7 33h31zM281 486q-1 7 -7.5 10.5t-14.5 3.5q-9 0 -13.5 -3t-5.5 -6q-1 -5 3 -7
q2 -2 5 -2zM244 315q-12 0 -17 6t-5.5 15t3 19t8.5 17l-1 1q-4 -2 -7 -6q-7 -7 -10 -19q-2 -12 0 -20l2 -8l-35 -7q-4 7 -5 16t1 18q5 23 20 30.5t30 9.5v3h-39l8 38h103l-14 -66q-5 -26 -16 -36.5t-26 -10.5zM255 384q-3 -1 -5 -3q-6 -2 -7 -9q-3 -8 5 -8q9 0 10 11l2 9h-5
zM154 223h53l1 2l-51 12l3 14l56 11v3h-53l9 44h103l-11 -52l-71 -12l-1 -2l66 -12l-11 -52h-103zM202 115q-1 7 -7.5 10.5t-14.5 3.5q-9 0 -13.5 -3t-5.5 -6q0 -5 4 -7q1 -2 4 -2z" />
    <glyph glyph-name="f_f" unicode="ff" horiz-adv-x="671" 
d="M108 492h-44q-32 0 -26 24l5 23q4 24 36 24h44q8 35 26 70t46.5 63.5t68 46.5t89.5 18q39 0 66 -10t43 -23.5t22 -28.5t4 -26q-3 -16 -14 -30.5t-26 -25.5t-31.5 -17t-31.5 -6q-20 0 -27.5 8.5t-9.5 26.5q-1 11 -2.5 23t-5 22t-9.5 16.5t-16 6.5q-11 0 -22 -12t-16 -36
q-3 -15 -3 -30t2 -28q1 -15 4 -28h170q8 35 26 70t46.5 63.5t68 46.5t89.5 18q39 0 66 -10t43 -23.5t22 -28.5t4 -26q-3 -16 -14 -30.5t-26 -25.5t-31.5 -17t-31.5 -6q-20 0 -27.5 8.5t-9.5 26.5q-1 11 -2.5 23t-5 22t-9.5 16.5t-16 6.5q-11 0 -22 -12t-16 -36
q-3 -15 -3 -30t2 -28q1 -15 4 -28h87q32 0 26 -24l-5 -23q-4 -24 -36 -24h-80l-96 -452q-10 -46 -32 -89t-56.5 -76t-81 -53t-104.5 -20q-30 0 -54 7.5t-42 18t-30 23t-19 21.5q-34 -32 -79.5 -51t-102.5 -19q-41 0 -71.5 10t-50 23.5t-28 28.5t-6.5 26q3 16 14 30.5
t26 25.5t31.5 17t31.5 6q20 0 27 -9t9 -26q1 -11 3 -23t6.5 -22t13 -16.5t22.5 -6.5q26 0 41 26.5t29 91.5zM272 492l-96 -452q-10 -46 -3.5 -79t20.5 -54t32 -31t32 -10q26 0 41.5 26.5t28.5 91.5l108 508h-163z" />
    <glyph glyph-name="fi" unicode="fi" horiz-adv-x="589" 
d="M497 194q-7 -31 -3.5 -44.5t18.5 -13.5q11 0 18 4.5t13 10t11 10t12 4.5q9 0 13 -9t4 -18q0 -23 -13.5 -48.5t-36.5 -46.5t-54 -35t-67 -14q-33 0 -53.5 12.5t-30.5 33.5t-10.5 49t6.5 59l52 248q10 44 5 70t-31 26h-78l-96 -452q-10 -46 -32 -89t-56.5 -76t-81 -53
t-104.5 -20q-41 0 -71.5 10t-50 23.5t-28 28.5t-6.5 26q3 16 14 30.5t26 25.5t31.5 17t31.5 6q20 0 27 -8.5t9 -26.5q1 -11 3 -23t6.5 -22t13 -16.5t22.5 -6.5q26 0 41 26.5t29 91.5l108 508h-44q-32 0 -26 24l5 23q4 24 36 24h44q20 92 87.5 145t182.5 53q50 0 89 -8.5
t65.5 -22.5t39.5 -31.5t9 -35.5q-3 -13 -13.5 -25t-25.5 -22t-34 -16t-38 -6q-26 0 -39 9t-18 26q-11 35 -28.5 56.5t-52.5 21.5q-26 0 -45 -15t-25 -43q-2 -12 -2.5 -26.5t1.5 -28.5q1 -15 4 -31h242q25 0 37 -10.5t6 -37.5z" />
    <glyph glyph-name="fl" unicode="fl" horiz-adv-x="627" 
d="M527 194q-7 -31 -3.5 -44.5t18.5 -13.5q10 0 17 4.5t13 9.5t11.5 9.5t12.5 4.5q9 0 13 -8.5t4 -17.5q0 -23 -13.5 -48.5t-36.5 -47t-54 -35.5t-67 -14q-33 0 -54 12.5t-31 33.5t-10.5 49t6.5 60l81 381q6 29 4 60.5t-12.5 57.5t-30 43t-48.5 17q-24 0 -44 -15.5
t-26 -42.5q-3 -15 -3 -30t2 -28q1 -15 4 -28h87q32 0 26 -24l-5 -23q-4 -24 -36 -24h-80l-96 -452q-10 -46 -32 -89t-56.5 -76t-81 -53t-104.5 -20q-41 0 -71.5 10t-50 23.5t-28 28.5t-6.5 26q3 16 14 30.5t26 25.5t31.5 17t31.5 6q20 0 27 -8.5t9 -26.5q1 -11 3 -23
t6.5 -22t13 -16.5t22.5 -6.5q26 0 41 26.5t29 91.5l108 508h-44q-32 0 -26 24l5 23q4 24 36 24h44q8 35 27.5 70t51 63.5t74.5 46.5t97 18q47 0 76 -11t47 -26q23 14 49 22t46 8q25 0 37.5 -10.5t6.5 -38.5z" />
    <glyph glyph-name="f_f_i" unicode="ffi" horiz-adv-x="923" 
d="M109 492h-44q-32 0 -26 24l5 23q4 24 36 24h44q8 35 26 70t46.5 63.5t68 46.5t89.5 18q39 0 66 -10t43 -23.5t22 -28.5t4 -26q-3 -16 -14 -30.5t-26 -25.5t-31.5 -17t-31.5 -6q-20 0 -27.5 8.5t-9.5 26.5q-1 11 -2.5 23t-5 22t-9.5 16.5t-16 6.5q-11 0 -22 -12t-16 -36
q-3 -15 -3 -30t2 -28q1 -15 4 -28h170q20 92 87.5 145t182.5 53q49 0 88.5 -8.5t66 -22.5t39 -31.5t8.5 -35.5q-3 -13 -13 -25t-25.5 -22t-34 -16t-38.5 -6q-26 0 -38.5 9t-17.5 26q-11 35 -29 56.5t-52 21.5q-26 0 -45.5 -15t-24.5 -43q-2 -12 -2.5 -26.5t1.5 -28.5
q1 -15 4 -31h261q25 0 37.5 -10.5t6.5 -37.5l-68 -321q-7 -31 -3.5 -44.5t18.5 -13.5q11 0 18 4.5t13 10t11 10t12 4.5q9 0 13 -9t4 -18q0 -23 -13.5 -48.5t-36.5 -47t-54 -35.5t-67 -14q-33 0 -54 12.5t-31 33.5t-10.5 49.5t6.5 59.5l53 248q9 44 4 70t-31 26h-97l-97 -452
q-10 -46 -32 -89t-56.5 -76t-80.5 -53t-105 -20q-30 0 -53.5 7.5t-41.5 18t-30 23t-19 21.5q-35 -32 -80.5 -51t-102.5 -19q-41 0 -71 10t-49.5 23.5t-28.5 28.5t-7 26q4 16 15 30.5t25.5 25.5t31 17t31.5 6q20 0 27.5 -9t9.5 -26q1 -11 3 -23t6.5 -22t13 -16.5t22.5 -6.5
q26 0 41 26t29 92zM273 492l-97 -452q-10 -46 -3.5 -79t21 -54t32.5 -31t32 -10q26 0 41 26t29 92l108 508h-163z" />
    <glyph glyph-name="f_f_l" unicode="ffl" horiz-adv-x="954" 
d="M450 563q8 35 27.5 70t51 63.5t74.5 46.5t97 18q47 0 76 -11t47 -26q23 14 49 22t46 8q25 0 37.5 -10.5t6.5 -38.5l-108 -511q-7 -31 -3.5 -44.5t18.5 -13.5q10 0 17 4.5t13 9.5t11.5 9.5t12.5 4.5q9 0 13 -8.5t4 -17.5q0 -23 -13.5 -48.5t-36.5 -47t-54 -35.5t-67 -14
q-33 0 -54 12.5t-31 33.5t-10.5 49t6.5 60l81 381q6 29 4 60.5t-12.5 57.5t-30 43t-48.5 17q-24 0 -44 -15.5t-26 -42.5q-3 -15 -3 -30t2 -28q1 -15 4 -28h87q32 0 26 -24l-5 -23q-4 -24 -36 -24h-80l-96 -452q-10 -46 -32 -89t-56.5 -76t-81 -53t-104.5 -20q-30 0 -54 7.5
t-42 18t-30 23t-19 21.5q-34 -32 -79.5 -51t-102.5 -19q-41 0 -71.5 10t-50 23.5t-28 28.5t-6.5 26q3 16 14 30.5t26 25.5t31.5 17t31.5 6q20 0 27 -8.5t9 -26.5q1 -11 3 -23t6.5 -22t13 -16.5t22.5 -6.5q26 0 41 26.5t29 91.5l108 508h-44q-32 0 -26 24l5 23q4 24 36 24h44
q8 35 26 70t46.5 63.5t68 46.5t89.5 18q39 0 66 -10t43 -23.5t22 -28.5t4 -26q-3 -16 -14 -30.5t-26 -25.5t-31.5 -17t-31.5 -6q-20 0 -27.5 8.5t-9.5 26.5q-1 11 -2.5 23t-5 22t-9.5 16.5t-16 6.5q-11 0 -22 -12t-16 -36q-3 -15 -3 -30t2 -28q1 -15 4 -28h170zM176 40
q-10 -46 -3.5 -79t20.5 -54t32 -31t32 -10q26 0 41.5 26.5t28.5 91.5l108 508h-163z" />
    <glyph glyph-name="f_b" unicode="fb" horiz-adv-x="934" 
d="M176 40q-10 -46 -32 -89t-56.5 -76t-81 -53t-104.5 -20q-41 0 -71.5 10t-50 23.5t-28 28.5t-6.5 26q3 16 14 30.5t26 25.5t31.5 17t31.5 6q20 0 27 -8.5t9 -26.5q1 -11 3 -23t6.5 -22t13 -16.5t22.5 -6.5q26 0 41 26.5t29 91.5l108 508h-44q-32 0 -26 24l5 23q4 24 36 24
h44q8 35 27.5 70t51 63.5t74.5 46.5t97 18q48 0 79 -11.5t50 -27.5q24 14 51.5 23t47.5 9q25 0 37.5 -10.5t6.5 -38.5l-50 -233q28 42 68.5 70t100.5 28q46 0 78.5 -20.5t50.5 -58t21 -90.5t-11 -119t-39.5 -119.5t-61 -91t-78.5 -58t-92 -20.5q-51 0 -84 22t-51 57
q-12 -13 -28 -26t-33.5 -23.5t-35 -16.5t-32.5 -6q-16 0 -24.5 9.5t-3.5 31.5l104 488q6 29 4 60.5t-13.5 57.5t-33 43t-54.5 17q-24 0 -44 -15.5t-26 -42.5q-3 -15 -3 -30t2 -28q1 -15 4 -28h87q32 0 26 -24l-5 -23q-4 -24 -36 -24h-80zM661 470q-19 0 -36.5 -16.5
t-33.5 -45.5t-29 -69.5t-23 -87.5l-11 -53q1 -31 9 -55q7 -20 21.5 -37.5t42.5 -17.5q49 0 79 52t41 147q5 47 2.5 81.5t-11.5 57t-22 33.5t-29 11z" />
    <glyph glyph-name="f_h" unicode="fh" horiz-adv-x="921" 
d="M434 529q6 29 4 60.5t-12.5 57.5t-30 43t-48.5 17q-24 0 -44 -15.5t-26 -42.5q-3 -15 -3 -30t2 -28q1 -15 4 -28h87q32 0 26 -24l-5 -23q-4 -24 -36 -24h-80l-96 -452q-10 -46 -32 -89t-56.5 -76t-81 -53t-104.5 -20q-41 0 -71.5 10t-50 23.5t-28 28.5t-6.5 26
q3 16 14 30.5t26 25.5t31.5 17t31.5 6q20 0 27 -9t9 -26q1 -11 3 -23t6.5 -22t13 -16.5t22.5 -6.5q26 0 41 26.5t29 91.5l108 508h-44q-32 0 -26 24l5 23q4 24 36 24h44q8 35 27.5 70t51 63.5t74.5 46.5t97 18q47 0 76.5 -11t46.5 -27q23 14 49 22.5t46 8.5q25 0 37.5 -10.5
t6.5 -38.5l-63 -296q16 32 35.5 61.5t44.5 51.5t54.5 35t65.5 13q38 0 61 -12.5t35 -33.5t13.5 -49t-5.5 -60l-47 -221q-12 -59 16 -59q10 0 17 4.5t13 10t11.5 10t12.5 4.5q9 0 12.5 -8.5t3.5 -17.5q0 -23 -13 -48.5t-36 -47t-54 -35.5t-67 -14q-33 0 -54 12.5t-31 33.5
t-10.5 49t6.5 60l50 236q8 38 4 55t-24 17q-19 0 -38 -19.5t-37.5 -51t-35 -71t-30 -78.5t-23.5 -74.5t-15 -58.5l-13 -62q-8 -41 -59 -41h-62q-52 0 -42 41z" />
    <glyph glyph-name="f_k" unicode="fk" horiz-adv-x="881" 
d="M176 40q-10 -46 -32 -89t-56.5 -76t-81 -53t-104.5 -20q-41 0 -71.5 10t-50 23.5t-28 28.5t-6.5 26q3 16 14 30.5t26 25.5t31.5 17t31.5 6q20 0 27 -8.5t9 -26.5q1 -11 3 -23t6.5 -22t13 -16.5t22.5 -6.5q26 0 41 26.5t29 91.5l108 508h-44q-32 0 -26 24l5 23q4 24 36 24
h44q8 35 27.5 70t51 63.5t74.5 46.5t97 18q47 0 76.5 -11t46.5 -26q23 14 49 22t46 8q25 0 37.5 -10.5t6.5 -38.5l-84 -395q44 26 81.5 47.5t65.5 41t43.5 37t15.5 35.5q0 11 -2.5 17.5t-5.5 12t-5.5 10.5t-2.5 13q0 18 13 28.5t38 10.5h52q24 0 38 -14t14 -40
q0 -19 -10 -38t-33 -40t-59.5 -45t-89.5 -54l38 -138q10 -38 23.5 -48.5t27.5 -10.5q11 0 18.5 4.5t12.5 10t10 10t12 4.5q10 0 13.5 -8.5t3.5 -17.5q0 -23 -10.5 -48.5t-29 -47t-45.5 -35.5t-60 -14q-28 0 -48.5 10.5t-34.5 28t-23 39.5t-16 46l-39 136q-5 -2 -10 -5
t-10 -5l-43 -202q-8 -41 -59 -41h-63q-51 0 -41 41l103 488q6 29 4 60.5t-12.5 57.5t-30 43t-48.5 17q-24 0 -44 -15.5t-26 -42.5q-3 -15 -3 -30t2 -28q1 -15 4 -28h87q32 0 26 -24l-5 -23q-4 -24 -36 -24h-80z" />
    <glyph glyph-name="f_t" unicode="ft" horiz-adv-x="658" 
d="M176 40q-10 -46 -32 -89t-56.5 -76t-81 -53t-104.5 -20q-41 0 -71.5 10t-50 23.5t-28 28.5t-6.5 26q3 16 14 30.5t26 25.5t31.5 17t31.5 6q20 0 27 -8.5t9 -26.5q1 -11 3 -23t6.5 -22t13 -16.5t22.5 -6.5q26 0 41 26.5t29 91.5l108 508h-44q-32 0 -26 24l5 23q4 24 36 24
h44q8 35 26 70t46.5 63.5t68 46.5t89.5 18q39 0 66 -10t43 -23.5t22 -28.5t4 -26q-3 -16 -14 -30.5t-26 -25.5t-31.5 -17t-31.5 -6q-20 0 -27.5 8.5t-9.5 26.5q-1 11 -2.5 23t-5 22t-9.5 16.5t-16 6.5q-11 0 -22 -12t-16 -36q-3 -15 -3 -30t2 -28q1 -15 4 -28h115
q27 0 47.5 10t37 25.5t30 33t26.5 33t25.5 25.5t27.5 10q16 0 24 -9.5t3 -31.5l-20 -96h80q32 0 26 -24l-5 -23q-4 -24 -36 -24h-80l-62 -290q-10 -46 -4 -69.5t34 -23.5q17 0 28 8.5t20.5 19t18 19t18.5 8.5q9 0 12 -6t1 -15q-4 -21 -19.5 -47.5t-40 -49t-57.5 -38
t-74 -15.5q-25 0 -49 8t-41 26.5t-23.5 50t3.5 79.5l71 335h-145z" />
    <glyph glyph-name=".notdef" horiz-adv-x="463" 
d="M243 162l-16 -80l-102 -21q11 -19 26 -29t36 -18q2 0 3.5 -0.5t2.5 -0.5l3 -1q5 -1 10 -1h10q37 2 63.5 18t46 40.5t33.5 55t25 60.5q20 56 30.5 111.5t12.5 110.5q2 51 -3.5 100.5t-23.5 93.5q-14 35 -41 61t-66 29q-51 2 -90.5 -24.5t-69 -67t-49 -88t-30.5 -86.5
q-16 -60 -22 -119.5t1 -116.5q2 -22 6 -43.5t13 -40.5q-1 1 -5 1t-5 1q-2 0 -6 0.5t-5 1.5q-13 32 -17.5 69.5t-4.5 72.5q0 51 10.5 113.5t32 122.5t55.5 111.5t82 79.5q39 23 81 23q19 0 36 -4t34 -11q42 -17 65.5 -57.5t33.5 -91t9.5 -104t-6.5 -96.5q-5 -37 -15.5 -82
t-28 -89t-42 -82t-57.5 -61q-21 -14 -43.5 -19t-44.5 -2q-18 2 -35.5 7.5t-31.5 14.5q-30 20 -46.5 53.5t-22.5 73.5t-4.5 81.5t6.5 77.5q0 -1 10.5 -2t10.5 -3q-4 -30 -6 -61.5t0 -62.5t9 -60t20 -53l7 34l29 3v2q-14 1 -19.5 11t-2.5 25t14 23.5t24 8.5q16 0 24.5 -11.5
t5.5 -34.5h2l7 33h31zM278 598h-2l-10 -48h-43l20 93h43l4 -49h3l10 49h43l-20 -93h-43zM322 533l-17 -80l-107 -23l9 43l29 3v2q-14 1 -19.5 11t-2.5 25t14 23.5t24 8.5q34 0 30 -46h2l7 33h31zM281 486q-1 7 -7.5 10.5t-14.5 3.5q-9 0 -13.5 -3t-5.5 -6q-1 -5 3 -7
q2 -2 5 -2zM244 315q-12 0 -17 6t-5.5 15t3 19t8.5 17l-1 1q-4 -2 -7 -6q-7 -7 -10 -19q-2 -12 0 -20l2 -8l-35 -7q-4 7 -5 16t1 18q5 23 20 30.5t30 9.5v3h-39l8 38h103l-14 -66q-5 -26 -16 -36.5t-26 -10.5zM255 384q-3 -1 -5 -3q-6 -2 -7 -9q-3 -8 5 -8q9 0 10 11l2 9h-5
zM154 223h53l1 2l-51 12l3 14l56 11v3h-53l9 44h103l-11 -52l-71 -12l-1 -2l66 -12l-11 -52h-103zM202 115q-1 7 -7.5 10.5t-14.5 3.5q-9 0 -13.5 -3t-5.5 -6q0 -5 4 -7q1 -2 4 -2z" />
    <glyph glyph-name=".null" horiz-adv-x="0" 
 />
    <glyph glyph-name=".null" horiz-adv-x="0" 
 />
    <glyph glyph-name="uni000D" unicode="&#xd;" horiz-adv-x="250" 
 />
    <glyph glyph-name="space" unicode=" " horiz-adv-x="240" 
 />
    <glyph glyph-name="exclam" unicode="!" horiz-adv-x="244" 
d="M73 192q-24 0 -18 32q14 66 19.5 122t7.5 104.5t4.5 91t10.5 81.5q8 37 29 60.5t50 23.5h42q29 0 40 -23.5t3 -60.5q-8 -39 -24 -81.5t-34 -91t-36.5 -104.5t-32.5 -122q-8 -32 -31 -32h-30zM79 152q35 0 53.5 -20.5t10.5 -58.5t-35.5 -59t-62.5 -21t-53.5 21t-10.5 59
t35.5 58.5t62.5 20.5z" />
    <glyph glyph-name="quotedbl" unicode="&#x22;" horiz-adv-x="261" 
d="M155 700q14 0 20 -11.5t2 -30.5q-8 -36 -24.5 -84.5t-30.5 -107.5q-2 -10 -10.5 -16.5t-17.5 -6.5h-22q-10 0 -15 6.5t-3 16.5q11 59 15 107.5t12 84.5q4 19 14.5 30.5t24.5 11.5h35zM289 700q15 0 20.5 -11.5t1.5 -30.5q-8 -36 -24.5 -84.5t-30.5 -107.5
q-2 -10 -10 -16.5t-18 -6.5h-22q-9 0 -14.5 6.5t-3.5 16.5q11 59 15 107.5t12 84.5q4 19 14.5 30.5t24.5 11.5h35z" />
    <glyph glyph-name="numbersign" unicode="#" horiz-adv-x="544" 
d="M542 542q31 0 21 -25l-11 -30q-10 -24 -41 -24h-57l-80 -204h58q30 0 22 -24l-12 -30q-10 -24 -41 -24h-57l-58 -150q-12 -31 -37 -31h-30q-23 0 -12 31l58 150h-122l-58 -150q-12 -31 -37 -31h-30q-24 0 -12 31l59 150h-58q-30 0 -22 24l12 30q10 24 41 24h57l79 204
h-57q-30 0 -22 24l12 30q10 25 41 25h57l49 127q12 31 37 31h30q24 0 12 -31l-50 -127h123l49 127q12 31 37 31h30q24 0 12 -31l-50 -127h58zM375 463h-122l-80 -204h123z" />
    <glyph glyph-name="dollar" unicode="$" horiz-adv-x="552" 
d="M328 445q32 -20 65.5 -42t59 -50t38 -64.5t1.5 -85.5q-8 -38 -28.5 -73t-53.5 -63t-77.5 -47t-100.5 -25l-8 -35q-6 -32 -30 -32h-30q-14 0 -17.5 8t-0.5 24l8 35q-49 5 -86 22t-60 39.5t-33 47.5t-5 46q4 20 15.5 35.5t27.5 26.5t35 17t37 6q29 0 36 -12.5t8 -35.5
q2 -35 11.5 -62t31.5 -41l44 206q-31 20 -63.5 41.5t-57.5 47t-37.5 58t-3.5 75.5q8 36 28.5 69t53 58.5t75 43t94.5 22.5l7 36q8 32 31 32h30q24 0 18 -32l-8 -35q44 -5 79 -20.5t58.5 -36.5t34.5 -45t6 -46q-4 -19 -15.5 -35t-27.5 -27t-35 -17t-37 -6q-29 0 -36 12.5
t-8 35.5q-2 33 -10.5 57.5t-27.5 37.5zM236 561q-5 -20 2 -36t22 -30l27 128q-19 -8 -32.5 -23.5t-18.5 -38.5zM249 77q23 9 39.5 28.5t22.5 48.5q5 25 -3 45.5t-25 38.5z" />
    <glyph glyph-name="percent" unicode="%" horiz-adv-x="794" 
d="M398 519q-19 -87 -77 -138t-142 -51t-120.5 51t-18.5 138q9 43 29 78t48.5 59.5t64.5 38t77 13.5q84 0 120.5 -51t18.5 -138zM668 700q23 0 1 -31l-474 -637q-24 -32 -48 -32h-23q-24 0 -1 32l475 637q22 31 47 31h23zM198 377q20 0 39.5 34t30.5 108q11 73 1.5 107
t-29.5 34t-39.5 -34t-30.5 -107q-11 -74 -1.5 -108t29.5 -34zM613 371q84 0 120.5 -51t18.5 -138q-19 -87 -77 -138t-142 -51t-120.5 51t-18.5 138q9 43 29 78t48.5 59.5t64.5 38t77 13.5zM552 41q20 0 39.5 34t30.5 107q11 74 1.5 108t-29.5 34t-39.5 -34t-30.5 -108
q-11 -73 -1.5 -107t29.5 -34z" />
    <glyph glyph-name="ampersand" unicode="&#x26;" horiz-adv-x="638" 
d="M499 144q9 -16 22 -27t24.5 -21.5t18 -23t2.5 -31.5q-8 -41 -59 -41h-76q-25 0 -38.5 12t-23.5 29l-31 58q-17 -22 -38 -41t-47.5 -33.5t-58 -23t-69.5 -8.5q-46 0 -80.5 14.5t-55 40.5t-27 63.5t3.5 82.5q8 39 27 72.5t46 59.5t60 44t69 25q-23 33 -39 69t-7 78
q7 32 27 61.5t52 52.5t76.5 37t99.5 14q53 0 90.5 -14t61 -35t33 -46t4.5 -47q-4 -20 -15.5 -35.5t-27.5 -26.5t-35 -17t-37 -6q-29 0 -36.5 12t-7.5 35q-1 50 -13.5 76t-43.5 26q-22 0 -36.5 -15.5t-19.5 -36.5q-5 -23 2.5 -46t18.5 -43l90 -167q15 24 32 46t36.5 38.5
t42.5 26t50 9.5q38 0 55 -31t6 -80q-7 -33 -25.5 -51t-42.5 -18q-14 0 -23 3t-16.5 6.5t-15 6.5t-17.5 3q-13 0 -24 -7.5t-22 -20.5zM226 114q23 0 42.5 12.5t36.5 34.5l-87 162l-15 24q-14 -15 -25.5 -43t-17.5 -73q-7 -54 12 -85.5t54 -31.5z" />
    <glyph glyph-name="quotesingle" unicode="'" horiz-adv-x="126" 
d="M72 443q-10 0 -15 6.5t-3 16.5q11 59 15 107.5t12 84.5q4 19 14.5 30.5t24.5 11.5h35q14 0 20 -11.5t1 -30.5q-8 -36 -24 -84.5t-30 -107.5q-2 -10 -10.5 -16.5t-17.5 -6.5h-22z" />
    <glyph glyph-name="parenleft" unicode="(" horiz-adv-x="253" 
d="M321 707q-21 -12 -46 -41t-50 -75.5t-48.5 -111t-41.5 -147.5t-21.5 -147t2 -110.5t18 -76t27.5 -41.5q9 -6 2 -19l-12 -18q-5 -6 -11.5 -8t-11.5 1q-24 14 -55 44.5t-55 81t-33.5 123t11.5 170.5t61 170.5t85.5 123.5t89.5 81.5t74 44.5q7 3 12.5 1t7.5 -9l4 -17
q4 -13 -9 -20z" />
    <glyph glyph-name="parenright" unicode=")" horiz-adv-x="253" 
d="M106 752q24 -14 55.5 -44.5t55.5 -81.5t33 -123.5t-12 -170.5t-61 -170.5t-85.5 -123t-89.5 -81t-74 -44.5q-16 -7 -20 7l-4 18q-3 12 9 19q21 12 46 41.5t50 76t48.5 110.5t41.5 147t21.5 147.5t-1.5 111t-18 75.5t-28 41q-5 3 -5 9t3 11l12 17q10 15 23 8z" />
    <glyph glyph-name="asterisk" unicode="*" horiz-adv-x="289" 
d="M291 483q-10 -12 -21 -12q-8 0 -20 7q-10 6 -23.5 20.5t-24.5 28.5q0 -19 -0.5 -41t-2.5 -34q-8 -32 -31 -32h-16q-25 0 -17 32q2 12 11 34t18 41q-17 -14 -37 -28.5t-33 -20.5q-7 -3 -12 -5t-10 -2q-11 0 -16 12l-5 14q-7 21 23 37q12 6 35 13.5t43 12.5q-18 6 -37.5 13
t-29.5 14q-11 8 -13.5 16.5t6.5 19.5l11 14q11 12 21 12q7 0 19 -7q10 -6 24 -20.5t25 -28.5q-1 19 -0.5 41t3.5 35q6 31 31 31h15q14 0 17.5 -8t0.5 -23q-3 -13 -12 -35t-17 -41q17 14 37 28.5t32 20.5q16 7 23 7q11 0 15 -12l5 -14q8 -20 -23 -36q-12 -7 -35 -14t-43 -13
q18 -5 37.5 -12.5t29.5 -13.5q24 -16 7 -37z" />
    <glyph glyph-name="plus" unicode="+" horiz-adv-x="431" 
d="M402 321q30 0 26 -25l-7 -29q-4 -25 -36 -25h-130l-27 -129q-8 -32 -31 -32h-30q-24 0 -18 32l28 129h-130q-32 0 -26 25l6 29q6 25 37 25h130l27 129q6 32 31 32h30q25 0 17 -32l-27 -129h130z" />
    <glyph glyph-name="comma" unicode="," horiz-adv-x="192" 
d="M113 159q35 0 53.5 -21.5t8.5 -64.5q-7 -37 -27 -68.5t-44 -54t-49 -35.5t-44 -13q-9 0 -14.5 4.5t-3.5 12.5q2 10 11.5 18.5t20 16.5t19.5 17t11 19q2 7 -6.5 12.5t-17.5 14t-15.5 23t-0.5 40.5q8 38 35.5 58.5t62.5 20.5z" />
    <glyph glyph-name="hyphen" unicode="-" horiz-adv-x="288" 
d="M64 242q-32 0 -26 25l6 30q6 24 36 24h196q30 0 26 -24l-7 -30q-4 -25 -36 -25h-195z" />
    <glyph glyph-name="period" unicode="." horiz-adv-x="192" 
d="M79 0q-35 0 -53.5 21t-10.5 59t35.5 58.5t62.5 20.5t53.5 -20.5t10.5 -58.5t-35.5 -59t-62.5 -21z" />
    <glyph glyph-name="slash" unicode="/" horiz-adv-x="360" 
d="M356 722q18 32 42 32h30q14 0 14.5 -8t-8.5 -24l-449 -780q-19 -31 -42 -31h-30q-14 0 -14.5 8t7.5 23z" />
    <glyph glyph-name="zero" unicode="0" horiz-adv-x="624" 
d="M387 707q71 0 122.5 -25.5t81.5 -72t37 -112.5t-11 -147q-17 -81 -52 -147t-84.5 -112.5t-112 -72t-133.5 -25.5t-122.5 25.5t-81.5 72t-37 112.5t11 147q17 81 52.5 147t85 112.5t111.5 72t133 25.5zM273 71q23 0 46 16.5t43 51t36 87t26 124.5t8 124.5t-12.5 87t-29 51
t-41.5 16.5q-24 0 -46.5 -16.5t-42.5 -51t-36 -87t-26 -124.5t-8 -124.5t12.5 -87t29 -51t41.5 -16.5z" />
    <glyph glyph-name="one" unicode="1" horiz-adv-x="308" 
d="M202 144q-5 -22 0 -33.5t11.5 -20.5t12 -19.5t1.5 -29.5q-5 -22 -21.5 -31.5t-41.5 -9.5h-164q-25 0 -37.5 9.5t-7.5 31.5q4 19 13.5 29.5t20 19.5t20.5 20.5t14 33.5l79 370q5 22 -0.5 31t-13 14.5t-13.5 12.5t-3 23q4 20 21.5 38.5t43 33.5t55.5 24t59 9
q38 0 49.5 -17.5t6.5 -44.5z" />
    <glyph glyph-name="two" unicode="2" horiz-adv-x="546" 
d="M447 182q23 0 31 -15.5t-2 -38.5l-30 -74q-10 -23 -21.5 -38.5t-37.5 -15.5h-391q-50 0 -42 41q10 49 42.5 94t76.5 87.5t93 83t92 80.5t74.5 79.5t40.5 80.5q8 39 -5.5 61t-45.5 22q-39 0 -66.5 -33t-50.5 -83q-10 -22 -22.5 -34.5t-41.5 -12.5q-37 0 -62 22.5t-17 62.5
q5 23 25 50t54 50.5t80.5 39.5t104.5 16q63 0 108 -17t71.5 -46t35 -67t-0.5 -80q-12 -57 -44.5 -99t-75 -74t-91.5 -56t-93.5 -45.5t-80.5 -42t-54 -45.5h233q22 0 35 7.5t24 16t23 16t31 7.5z" />
    <glyph glyph-name="three" unicode="3" horiz-adv-x="552" 
d="M311 417q53 3 93.5 -9.5t66 -38.5t34.5 -64t-1 -86q-11 -50 -38.5 -91.5t-67.5 -71.5t-91.5 -46.5t-110.5 -16.5q-61 0 -104.5 16t-70.5 40t-37.5 51t-5.5 49q4 20 15.5 35.5t27.5 26.5t34.5 17t36.5 6q29 0 36.5 -12t8.5 -35q1 -25 4 -46t10.5 -36.5t22 -24.5t38.5 -9
q16 0 32.5 8t31 25t25.5 44t14 65t-4.5 65t-22.5 44t-36.5 24.5t-45.5 7.5q-13 0 -21.5 8t-4.5 26q5 20 18.5 34t44.5 37l142 106h-160q-22 0 -35 -7.5t-24 -16t-22.5 -16t-30.5 -7.5q-24 0 -32 15.5t2 38.5l30 74q10 23 22 38.5t38 15.5h368q50 0 42 -41q-6 -26 -29 -46
t-57 -45l-205 -152z" />
    <glyph glyph-name="four" unicode="4" horiz-adv-x="545" 
d="M475 263q32 0 26 -25l-7 -30q-4 -24 -36 -24h-23l-8 -40q-5 -22 0 -33.5t12 -20.5t12 -19.5t1 -29.5q-5 -22 -21.5 -31.5t-41.5 -9.5h-164q-25 0 -37.5 9.5t-7.5 31.5q4 19 13.5 29.5t20 19.5t20.5 20.5t15 33.5l8 40h-256q-17 0 -22 8.5t-3 21.5q4 17 14.5 32t32.5 41
l308 372q20 23 35.5 32t40.5 9h84q25 0 37.5 -9.5t7.5 -31.5l-84 -396h23zM274 263l64 301l-249 -301h185z" />
    <glyph glyph-name="five" unicode="5" horiz-adv-x="523" 
d="M271 467q59 0 102.5 -18.5t70 -50.5t35.5 -74t-1 -90q-10 -50 -35.5 -94t-64 -76.5t-89.5 -51.5t-114 -19q-61 0 -101 16t-63 40t-30.5 51t-2.5 49q4 20 15.5 35.5t27.5 26.5t34.5 17t36.5 6q29 0 36.5 -12t8.5 -35q1 -25 2 -46t6 -36.5t15.5 -24.5t29.5 -9
q33 0 62.5 39.5t36.5 116.5t-12 123.5t-69 46.5q-23 0 -44 -8t-39.5 -17.5t-36 -17.5t-32.5 -8q-17 0 -25.5 8t-0.5 33l89 272q8 22 20.5 31.5t37.5 9.5h338q22 0 28 -14.5t1 -39.5l-15 -74q-5 -25 -18 -39.5t-35 -14.5q-19 0 -27.5 7.5t-15.5 16t-17.5 16t-32.5 7.5h-217
l-42 -132q22 11 59 22.5t88 11.5z" />
    <glyph glyph-name="six" unicode="6" horiz-adv-x="546" 
d="M356 448q41 0 72.5 -15t51 -43.5t25 -69.5t-5.5 -93t-37 -95t-63.5 -74t-85.5 -48t-102 -17q-61 0 -107.5 22t-74 64.5t-34.5 106t11 146.5q17 80 49 148.5t77 118.5t103 79t127 29q50 0 87.5 -14.5t61 -36t33 -48t4.5 -50.5q-4 -20 -16 -35.5t-27.5 -26.5t-34.5 -17
t-37 -6q-15 0 -23.5 3t-13 9t-6 15t-2.5 20q-1 25 -3.5 45t-8.5 34.5t-16 22t-27 7.5q-40 0 -75 -62.5t-59 -181.5q29 27 67.5 45t89.5 18zM236 71q22 0 47 36t37 113q6 39 3 66t-11.5 44t-21 24.5t-26.5 7.5q-23 0 -46.5 -24t-34.5 -61q-6 -57 -4.5 -96.5t9 -64t20.5 -35
t28 -10.5z" />
    <glyph glyph-name="seven" unicode="7" horiz-adv-x="459" 
d="M488 700q51 0 41 -41q-2 -11 -9 -27.5t-16 -34.5t-18 -34.5t-15 -28.5l-277 -493q-10 -18 -19.5 -29.5t-33.5 -11.5h-97q-21 0 -22 10.5t12 30.5l352 524h-200q-22 0 -35 -7.5t-24 -16t-23 -16t-31 -7.5q-23 0 -31 15.5t2 38.5l30 74q10 23 22 38.5t38 15.5h354z" />
    <glyph glyph-name="eight" unicode="8" horiz-adv-x="555" 
d="M404 374q65 -22 92.5 -69t13.5 -113q-9 -45 -35.5 -82t-66.5 -63t-92.5 -40t-114.5 -14t-108.5 14t-76 40t-40 63t-0.5 82q14 66 62 113t122 69q-55 20 -79 60.5t-12 96.5q9 40 33 72.5t60.5 55.5t85 35.5t105.5 12.5q115 0 170 -47.5t38 -128.5q-12 -56 -53 -96.5
t-104 -60.5zM328 629q-25 0 -46 -26t-29 -82q-8 -57 6 -83t39 -26t46 26t29 83q8 56 -6 82t-39 26zM227 71q34 0 62 31.5t37 100.5q10 68 -9.5 99.5t-53.5 31.5t-61.5 -31.5t-37.5 -99.5q-9 -69 10.5 -100.5t52.5 -31.5z" />
    <glyph glyph-name="nine" unicode="9" horiz-adv-x="546" 
d="M333 707q61 0 107.5 -22t74 -64.5t34.5 -106t-11 -146.5q-17 -79 -48.5 -148t-77 -119t-103.5 -79t-127 -29q-50 0 -87.5 14.5t-60.5 36t-32.5 48t-4.5 50.5q4 20 15.5 35.5t27.5 26.5t34.5 17t36.5 6q29 0 36.5 -12t8.5 -35q2 -49 12 -79t44 -30q40 0 75 62.5t58 181.5
q-29 -27 -67.5 -44.5t-89.5 -17.5q-41 0 -72.5 15t-50.5 43t-24.5 69t5.5 93t37 95t63.5 74t85 48t101.5 17zM281 338q23 0 46.5 24t34.5 61q6 57 4.5 96.5t-9.5 64t-21 35t-28 10.5q-11 0 -23 -9t-23.5 -27.5t-21 -46.5t-15.5 -66q-6 -39 -3 -66t11.5 -44t21 -24.5
t26.5 -7.5z" />
    <glyph glyph-name="colon" unicode=":" horiz-adv-x="192" 
d="M118 368q-35 0 -53.5 21t-10.5 59t35.5 58.5t62.5 20.5t53.5 -20.5t10.5 -58.5t-35.5 -59t-62.5 -21zM74 159q35 0 53.5 -20.5t10.5 -58.5t-35.5 -59t-62.5 -21t-53.5 21t-10.5 59t35.5 58.5t62.5 20.5z" />
    <glyph glyph-name="semicolon" unicode=";" horiz-adv-x="192" 
d="M118 368q-35 0 -53.5 21t-10.5 59t35.5 58.5t62.5 20.5t53.5 -20.5t10.5 -58.5t-35.5 -59t-62.5 -21zM74 159q35 0 53 -21.5t9 -64.5q-8 -37 -27.5 -68.5t-43.5 -54t-49.5 -35.5t-44.5 -13q-8 0 -13.5 4.5t-3.5 12.5q2 10 11 18.5t19.5 16.5t20 17t11.5 19q2 7 -6.5 12.5
t-17.5 14t-15.5 23t-0.5 40.5q8 38 35.5 58.5t62.5 20.5z" />
    <glyph glyph-name="less" unicode="&#x3c;" horiz-adv-x="431" 
d="M463 492q-6 -24 -40 -42l-328 -168l256 -169q28 -18 22 -42l-6 -30q-3 -14 -13 -14q-7 0 -20 8l-296 195q-28 17 -22 42l4 19q6 25 40 43l379 195q16 8 23 8q10 0 7 -15z" />
    <glyph glyph-name="equal" unicode="=" horiz-adv-x="431" 
d="M426 386q30 0 26 -25l-7 -30q-4 -24 -36 -24h-338q-32 0 -26 24l6 30q6 25 37 25h338zM398 256q32 0 26 -24l-6 -30q-6 -24 -37 -24h-337q-32 0 -26 24l6 30q6 24 36 24h338z" />
    <glyph glyph-name="greater" unicode="&#x3e;" horiz-adv-x="431" 
d="M398 334q28 -19 22 -43l-4 -19q-6 -25 -40 -43l-379 -194q-16 -8 -23 -8q-10 0 -7 14l6 30q6 24 40 42l328 169l-256 168q-28 18 -22 42l6 30q3 14 13 14q7 0 20 -8z" />
    <glyph glyph-name="question" unicode="?" horiz-adv-x="455" 
d="M304 707q105 0 150 -50t28 -129q-9 -41 -30 -71t-48.5 -53.5t-58 -43t-57.5 -40t-47 -43.5t-26 -53q-8 -32 -31 -32h-30q-24 0 -18 32q10 47 25 79t32.5 56t36 43t35 39t29.5 44.5t21 60.5q8 39 -2.5 61t-34.5 22q-17 0 -29.5 -9t-22.5 -24.5t-18.5 -37t-17.5 -45.5
q-8 -23 -21.5 -35t-42.5 -12q-38 0 -62.5 22.5t-16.5 62.5q5 23 25 50t53 50.5t78.5 39.5t100.5 16zM160 152q35 0 53.5 -20.5t10.5 -58.5t-35.5 -59t-62.5 -21t-53.5 21t-10.5 59t35.5 58.5t62.5 20.5z" />
    <glyph glyph-name="at" unicode="@" horiz-adv-x="797" 
d="M774 594q35 -54 35 -127t-34 -161q-13 -33 -38 -75t-60.5 -78.5t-80.5 -62t-98 -25.5q-30 0 -50 8.5t-30.5 22.5t-14 33t-0.5 41q-30 -42 -72.5 -73.5t-100.5 -31.5q-38 0 -62.5 17t-34 48.5t-4 76t26.5 99.5t50.5 99.5t64.5 76t74.5 48.5t79.5 17q43 0 67 -18t34 -48
q12 11 27.5 22t31.5 19.5t32 13.5t28 5q13 0 18.5 -8t-1.5 -26l-86 -220q-22 -57 -21 -89t32 -32q19 0 37.5 12.5t34.5 32.5t29.5 45t22.5 50q26 76 25 139.5t-27 109t-75.5 71t-120.5 25.5t-139 -25.5t-127 -71t-105 -109t-73 -139.5t-26 -139.5t27 -109t76 -71t121 -25.5
q44 0 81.5 10t73.5 27q8 4 14.5 2t7.5 -9l2 -16q1 -7 -4.5 -13.5t-13.5 -10.5q-48 -19 -95.5 -29t-95.5 -10q-81 0 -140.5 27.5t-91.5 78.5q-35 54 -35 127t34 161q32 81 86.5 153t125 125.5t154 84.5t173.5 31q80 0 139.5 -27.5t91.5 -78.5zM323 149q16 0 33.5 14
t34.5 38.5t34 58t32 72.5l17 44q4 26 1 46q-2 17 -12 31.5t-33 14.5q-42 0 -74.5 -43.5t-55.5 -122.5q-23 -78 -13 -115.5t36 -37.5z" />
    <glyph glyph-name="A" unicode="A" 
d="M541 144q3 -22 9.5 -34.5t12.5 -22t9.5 -19.5t0.5 -27q-5 -20 -20.5 -30.5t-35.5 -10.5h-164q-28 0 -39.5 9t-6.5 32q3 16 12.5 26t18.5 20.5t14.5 26.5t2.5 44l-10 79h-212l-42 -79q-15 -29 -16 -45t3.5 -26.5t9 -20t1.5 -25.5q-5 -23 -20 -32t-43 -9h-59
q-20 0 -31 10.5t-7 30.5q4 17 12 27t18 19.5t22 22t23 34.5l219 412q11 21 9.5 33t-7 21.5t-11 20t-1.5 28.5q5 20 20 30.5t35 10.5h162q25 0 34.5 -10.5t12.5 -30.5zM335 315l-31 244l-129 -244h160z" />
    <glyph glyph-name="B" unicode="B" horiz-adv-x="620" 
d="M-46 41q4 19 13.5 29.5t20.5 19.5t21 20.5t14 33.5l88 412q5 22 0 33.5t-12 20.5t-12 19.5t-1 29.5q5 22 21.5 31.5t41.5 9.5h254q57 0 100 -12.5t70 -35t37 -54.5t2 -71q-11 -53 -54.5 -91.5t-113.5 -55.5q85 -17 116.5 -65.5t16.5 -119.5q-19 -90 -95 -142.5
t-199 -52.5h-283q-25 0 -38 9.5t-8 31.5zM429 516q1 27 -7.5 47t-22.5 33t-32 19.5t-36 6.5q-11 0 -21.5 -10.5t-15.5 -30.5l-36 -171h61q45 0 76.5 26t33.5 80zM284 78q45 0 77.5 30.5t37.5 96.5q2 33 -5.5 57t-21.5 39.5t-32.5 23t-38.5 7.5h-60l-40 -188
q-5 -27 2.5 -46.5t30.5 -19.5h50z" />
    <glyph glyph-name="C" unicode="C" horiz-adv-x="566" 
d="M224 -7q-65 0 -114 25.5t-78 72t-37 112.5t9 147q18 81 56.5 147t91 112.5t115.5 72t129 25.5q55 0 94 -17t63 -42.5t33 -55.5t4 -55q-4 -20 -15.5 -35.5t-27.5 -26.5t-35 -17t-37 -6q-29 0 -37 12t-7 35q2 60 -12.5 95t-52.5 35q-24 0 -49 -16t-47 -45t-40 -70t-29 -92
q-17 -80 -13.5 -135t21 -89.5t47 -50t63.5 -15.5q46 0 75 16t48 35t32 35t27 16q20 0 15 -23q-7 -32 -30 -67.5t-60 -65.5t-88 -49.5t-114 -19.5z" />
    <glyph glyph-name="D" unicode="D" horiz-adv-x="643" 
d="M-46 41q4 19 13.5 29.5t20.5 19.5t21 20.5t14 33.5l88 412q5 22 0 33.5t-12 20.5t-12 19.5t-1 29.5q5 22 21.5 31.5t41.5 9.5h231q74 0 130 -24.5t90 -70.5t44 -110.5t-7 -144.5t-54 -144.5t-90.5 -110.5t-120 -70.5t-141.5 -24.5h-231q-25 0 -38 9.5t-8 31.5zM444 350
q9 70 1.5 121.5t-24.5 85t-42.5 49.5t-52.5 16q-12 0 -22.5 -10.5t-14.5 -30.5l-89 -437q-6 -27 2 -46.5t30 -19.5h25q31 0 61 16t55 49.5t43.5 85t27.5 121.5z" />
    <glyph glyph-name="E" unicode="E" horiz-adv-x="535" 
d="M-46 41q4 19 13.5 29.5t20.5 19.5t21 20.5t14 33.5l88 412q5 22 0 33.5t-12 20.5t-12 19.5t-1 29.5q5 22 21.5 31.5t41.5 9.5h384q25 0 38 -9.5t8 -31.5l-7 -30q-5 -25 -17.5 -39.5t-34.5 -14.5q-19 0 -28 7.5t-16 16t-17 16t-32 7.5h-96q-11 0 -21.5 -10.5t-15.5 -30.5
l-39 -185h89q22 0 35 7.5t24 16t22.5 16t30.5 7.5q23 0 29 -14.5t1 -39.5l-14 -64q-5 -25 -17.5 -39.5t-34.5 -14.5q-19 0 -28 7.5t-16 16t-17 16t-32 7.5h-89l-37 -174q-5 -27 2.5 -46.5t30.5 -19.5h64q27 0 44.5 11t32 23.5t29.5 23.5t37 11q23 0 27.5 -14t-4.5 -37
l-16 -45q-10 -23 -24.5 -37t-41.5 -14h-382q-25 0 -38 9.5t-8 31.5z" />
    <glyph glyph-name="F" unicode="F" horiz-adv-x="514" 
d="M-46 41q4 19 13.5 29.5t20.5 19.5t21 20.5t14 33.5l88 412q5 22 0 33.5t-12 20.5t-12 19.5t-1 29.5q5 22 21.5 31.5t41.5 9.5h384q25 0 38 -9.5t8 -31.5l-7 -30q-5 -25 -17.5 -39.5t-34.5 -14.5q-19 0 -28 7.5t-16 16t-17 16t-32 7.5h-96q-11 0 -21.5 -10.5t-15.5 -30.5
l-40 -192h88q22 0 35 7.5t24 16t23 16t31 7.5q22 0 28 -14.5t1 -39.5l-13 -64q-5 -25 -18 -39.5t-35 -14.5q-19 0 -27.5 7.5t-15.5 16t-17.5 16t-32.5 7.5h-88l-36 -167q-4 -22 0.5 -33.5t11.5 -20.5t12.5 -19.5t1.5 -29.5q-5 -22 -21.5 -31.5t-41.5 -9.5h-164
q-25 0 -38 9.5t-8 31.5z" />
    <glyph glyph-name="G" unicode="G" horiz-adv-x="630" 
d="M565 350q25 0 38 -9.5t8 -31.5q-4 -19 -13.5 -29.5t-20.5 -19.5t-20.5 -20.5t-14.5 -33.5l-35 -165q-5 -22 -21.5 -31.5t-41.5 -9.5h-35q-28 0 -37.5 10.5t-7.5 30.5l3 33q-25 -32 -67.5 -56.5t-102.5 -24.5q-57 0 -101 24t-70.5 69t-33 109.5t10.5 146.5q19 88 57.5 156
t91 114.5t115 70.5t129.5 24q56 0 99 -17t70.5 -42.5t39.5 -55.5t7 -55q-4 -20 -15.5 -35.5t-27.5 -26.5t-35 -17t-37 -6q-29 0 -37 12t-7 35q2 60 -19.5 95t-66.5 35q-27 0 -53 -16t-49 -45t-41 -70t-29 -92q-17 -80 -15 -135t16.5 -89.5t39.5 -50t55 -15.5q20 0 35.5 7.5
t26.5 19.5t17.5 26t7.5 26l1 11q2 23 -5.5 34.5t-17 20t-16 19t-2.5 29.5q5 22 21.5 31.5t41.5 9.5h164z" />
    <glyph glyph-name="H" unicode="H" horiz-adv-x="683" 
d="M-46 41q4 19 13.5 29.5t20.5 19.5t21 20.5t14 33.5l88 412q5 22 0 33.5t-12 20.5t-12 19.5t-1 29.5q5 22 21 31.5t42 9.5h163q25 0 38 -9.5t8 -31.5q-4 -19 -13.5 -29.5t-20.5 -19.5t-20.5 -20.5t-14.5 -33.5l-35 -165h192l35 165q5 22 0 33.5t-11.5 20.5t-12 19.5
t-1.5 29.5q5 22 21.5 31.5t41.5 9.5h164q25 0 37.5 -9.5t7.5 -31.5q-4 -19 -13.5 -29t-20 -19.5t-20 -21t-14.5 -33.5l-88 -412q-4 -22 0.5 -33.5t11.5 -20.5t12 -19.5t1 -29.5q-5 -22 -21.5 -31.5t-41.5 -9.5h-164q-25 0 -37.5 9.5t-7.5 31.5q4 19 13.5 29.5t20 19.5
t20.5 20.5t15 33.5l36 169h-193l-36 -169q-4 -22 0.5 -33.5t11.5 -20.5t12 -19.5t1 -29.5q-5 -22 -21 -31.5t-41 -9.5h-164q-25 0 -38 9.5t-8 31.5z" />
    <glyph glyph-name="I" unicode="I" horiz-adv-x="313" 
d="M358 659q-4 -19 -13.5 -29t-20.5 -19.5t-20.5 -21t-14.5 -33.5l-88 -412q-4 -22 0.5 -33.5t11.5 -20.5t12.5 -19.5t1.5 -29.5q-5 -22 -21.5 -31.5t-41.5 -9.5h-164q-25 0 -38 9.5t-8 31.5q4 19 13.5 29.5t20.5 19.5t21 20.5t14 33.5l88 412q5 22 0 33.5t-12 20.5
t-12 19.5t-1 29.5q5 22 21.5 31.5t41.5 9.5h163q26 0 38.5 -9.5t7.5 -31.5z" />
    <glyph glyph-name="J" unicode="J" horiz-adv-x="525" 
d="M142 -7q-54 0 -92 17.5t-61 43t-31 55t-3 54.5q4 20 16 36t27.5 27t34.5 17t37 6q29 0 37.5 -12.5t7.5 -35.5q-1 -30 -0.5 -54t5 -41t13.5 -26t25 -9q36 0 58 30.5t37 102.5l75 352q5 22 0 33.5t-12 20.5t-12 19.5t-1 29.5q5 22 21.5 31.5t41.5 9.5h164q25 0 37.5 -9.5
t7.5 -31.5q-4 -19 -13.5 -29t-20 -19.5t-20.5 -21t-15 -33.5l-63 -296q-16 -77 -47 -128.5t-71.5 -82t-87.5 -43.5t-95 -13z" />
    <glyph glyph-name="K" unicode="K" horiz-adv-x="637" 
d="M0 0q-25 0 -38 9.5t-8 31.5q4 19 13.5 29t20.5 19.5t21 21t14 33.5l88 412q5 22 0 33.5t-12 20.5t-12 19.5t-1 29.5q5 22 21 31.5t42 9.5h163q25 0 38 -9.5t8 -31.5q-4 -19 -13.5 -29.5t-20.5 -19.5t-20.5 -20.5t-14.5 -33.5l-29 -134l193 142q30 22 36 33.5t2.5 20
t-10 17.5t-3.5 24q8 41 59 41h111q21 0 28 -11t3 -28q-3 -16 -12 -26t-25.5 -21t-41.5 -27t-60 -43l-124 -94l96 -306q7 -21 19 -32.5t23.5 -21t18.5 -20t3 -29.5q-10 -41 -60 -41h-122q-27 0 -38.5 12t-16.5 29l-79 291l-22 -17l-37 -171q-4 -22 0.5 -33.5t11.5 -20.5
t12 -19.5t1 -29.5q-5 -22 -21 -31.5t-41 -9.5h-164z" />
    <glyph glyph-name="L" unicode="L" horiz-adv-x="516" 
d="M-46 41q4 19 13.5 29.5t20.5 19.5t21 20.5t14 33.5l88 412q5 22 0 33.5t-12 20.5t-12 19.5t-1 29.5q5 22 21 31.5t42 9.5h163q25 0 38 -9.5t8 -31.5q-4 -19 -13.5 -29.5t-20.5 -19.5t-20.5 -20.5t-14.5 -33.5l-88 -412q-5 -27 2.5 -46.5t29.5 -19.5h65q27 0 45 11
t32.5 23.5t29.5 23.5t37 11q23 0 27.5 -14t-4.5 -37l-17 -46q-9 -23 -24 -36.5t-42 -13.5h-382q-25 0 -38 9.5t-8 31.5z" />
    <glyph glyph-name="M" unicode="M" horiz-adv-x="804" 
d="M703 144q-2 -22 3 -33.5t11.5 -20.5t10.5 -19.5t0 -29.5q-5 -22 -21 -31.5t-42 -9.5h-156q-25 0 -38 9.5t-8 31.5q4 19 13.5 29.5t19.5 19.5t18.5 20.5t10.5 33.5l37 345l-216 -458q-10 -22 -27 -31.5t-42 -9.5q-49 0 -50 41l-26 457l-110 -344q-7 -22 -3.5 -33.5
t10 -20.5t11.5 -19.5t1 -29.5q-5 -22 -21.5 -31.5t-41.5 -9.5h-57q-25 0 -38 9.5t-8 31.5q4 19 13 29.5t19 19.5t20 20.5t17 33.5l131 412q7 22 4 33.5t-9 20.5t-11 19.5t-1 29.5q5 22 21.5 31.5t41.5 9.5h139q25 0 36 -9t13 -32l12 -366l170 366q11 23 26 32t40 9h137
q25 0 37.5 -9.5t7.5 -31.5q-4 -19 -13 -29.5t-18.5 -19.5t-18 -20.5t-11.5 -33.5z" />
    <glyph glyph-name="N" unicode="N" horiz-adv-x="644" 
d="M690 659q-4 -19 -13.5 -29t-20.5 -19.5t-20.5 -21t-14.5 -33.5l-88 -412q-4 -22 0.5 -33.5t11.5 -20.5t12 -19.5t1 -29.5q-5 -22 -21 -31.5t-42 -9.5h-129q-25 0 -33 10.5t-14 30.5l-141 452l-74 -349q-5 -22 0 -33.5t11.5 -20.5t12 -19.5t1.5 -29.5q-5 -22 -21.5 -31.5
t-41.5 -9.5h-66q-25 0 -38 9.5t-8 31.5q4 19 13.5 29.5t20.5 19.5t21 20.5t14 33.5l88 412q5 22 0 33.5t-12 20.5t-12 19.5t-1 29.5q5 22 21 31.5t42 9.5h128q25 0 33.5 -10.5t14.5 -30.5l141 -453l74 350q5 22 0 33.5t-11.5 20.5t-12 19.5t-1.5 29.5q5 22 21.5 31.5
t41.5 9.5h66q25 0 38 -9.5t8 -31.5z" />
    <glyph glyph-name="O" unicode="O" horiz-adv-x="645" 
d="M4 350q17 81 53 147t87 112.5t115.5 72t137.5 25.5q74 0 127.5 -25.5t84.5 -72t39 -112.5t-10 -147q-17 -81 -53 -147t-87 -112.5t-115 -72t-138 -25.5q-73 0 -126.5 25.5t-84.5 72t-39 112.5t9 147zM445 350q9 72 6.5 124.5t-15 87t-33 51t-46.5 16.5q-25 0 -50 -16.5
t-46 -51t-37.5 -87t-25.5 -124.5t-6.5 -124.5t15 -87t33 -51t46.5 -16.5t50.5 16.5t45.5 51t37.5 87t25.5 124.5z" />
    <glyph glyph-name="P" unicode="P" horiz-adv-x="589" 
d="M618 487q-10 -48 -35 -87.5t-62.5 -67.5t-86 -43t-107.5 -15h-98l-28 -130q-4 -22 0.5 -33.5t11.5 -20.5t12 -19.5t1 -29.5q-5 -22 -21 -31.5t-41 -9.5h-164q-25 0 -38 9.5t-8 31.5q4 19 13.5 29.5t20.5 19.5t21 20.5t14 33.5l88 412q5 22 0 33.5t-12 20.5t-12 19.5
t-1 29.5q5 22 21 31.5t42 9.5h268q115 0 168 -58t33 -155zM321 352q51 0 82.5 38t33.5 97q2 29 -4.5 53.5t-19.5 42.5t-31 28.5t-41 10.5q-38 0 -47 -41l-35 -164q-5 -27 3 -46t30 -19h29z" />
    <glyph glyph-name="Q" unicode="Q" horiz-adv-x="650" 
d="M639 350q-16 -73 -46 -133t-73 -105.5t-96.5 -74.5t-115.5 -39q1 -14 10.5 -20.5t25.5 -9.5t38 -3h47q51 0 39 -58q-8 -37 -37.5 -65t-71.5 -28q-25 0 -52.5 8t-48.5 28t-31 55t0 88q-69 3 -119 30t-78.5 73.5t-35.5 110.5t10 143q18 81 54 147t87 112.5t115 72t137 25.5
q74 0 127.5 -25.5t84.5 -72t39 -112.5t-9 -147zM286 71q26 0 50.5 16.5t45.5 51t37.5 87t25.5 124.5t6 124.5t-15.5 87t-32.5 51t-46 16.5q-25 0 -50 -16.5t-46 -51t-37.5 -87t-25.5 -124.5t-6.5 -124.5t15 -87t33 -51t46.5 -16.5z" />
    <glyph glyph-name="R" unicode="R" horiz-adv-x="627" 
d="M500 144q9 -21 22 -32.5t24 -21t17.5 -20t2.5 -29.5q-10 -41 -60 -41h-101q-27 0 -38 12.5t-17 28.5l-88 233h-33l-28 -130q-4 -22 0.5 -33.5t11.5 -20.5t12 -19.5t1 -29.5q-5 -22 -21 -31.5t-41 -9.5h-164q-25 0 -38 9.5t-8 31.5q4 19 13.5 29.5t20.5 19.5t21 20.5
t14 33.5l88 412q5 22 0 33.5t-12 20.5t-12 19.5t-1 29.5q5 22 21 31.5t42 9.5h268q115 0 168 -58t33 -155q-17 -75 -63.5 -125.5t-118.5 -72.5zM437 487q2 29 -4.5 53.5t-19.5 42.5t-31 28.5t-41 10.5q-38 0 -47 -41l-35 -164q-5 -27 3 -46t30 -19h29q51 0 82.5 38t33.5 97z
" />
    <glyph glyph-name="S" unicode="S" horiz-adv-x="552" 
d="M246 560q-6 -30 13 -53.5t51 -45t70 -44.5t68 -52.5t46.5 -68.5t4.5 -93q-9 -42 -33.5 -80t-63 -67t-90.5 -46t-117 -17q-58 0 -101 16t-71 39.5t-39.5 51t-6.5 49.5q4 20 15.5 35.5t27.5 26.5t34.5 17t36.5 6q29 0 36.5 -12t8.5 -35q1 -25 6 -46t15.5 -36.5t27 -24.5
t40.5 -9q32 0 56.5 22t32.5 61q8 36 -11 63t-50.5 50.5t-69 46.5t-68.5 51t-47.5 63.5t-6.5 83.5q8 40 32.5 75.5t62 62t88 42t110.5 15.5q52 0 94 -14.5t70 -36t41 -48t8 -50.5q-4 -20 -15.5 -35.5t-27 -26.5t-34.5 -17t-37 -6q-15 0 -23.5 3t-13 9t-6 15t-2.5 20
q-2 50 -20.5 79.5t-62.5 29.5q-29 0 -50.5 -18.5t-28.5 -50.5z" />
    <glyph glyph-name="T" unicode="T" horiz-adv-x="582" 
d="M607 700q25 0 37.5 -9.5t7.5 -31.5l-6 -30q-5 -25 -18 -39.5t-35 -14.5q-19 0 -27.5 7.5t-15.5 16t-17 16t-32 7.5h-63l-102 -478q-4 -22 0.5 -33.5t11.5 -20.5t12 -19.5t1 -29.5q-5 -22 -21.5 -31.5t-41.5 -9.5h-164q-25 0 -37.5 9.5t-7.5 31.5q4 19 13.5 29.5
t20.5 19.5t21 20.5t14 33.5l101 478h-63q-22 0 -35 -7.5t-24 -16t-22.5 -16t-30.5 -7.5q-22 0 -28.5 14.5t-1.5 39.5l7 30q5 22 21.5 31.5t41.5 9.5h483z" />
    <glyph glyph-name="U" unicode="U" horiz-adv-x="649" 
d="M654 700q25 0 37.5 -9.5t7.5 -31.5q-4 -19 -13.5 -29t-20 -19.5t-20 -21t-14.5 -33.5l-75 -350q-10 -48 -36 -87.5t-65 -67t-89 -43t-108 -15.5q-62 0 -109 15t-76.5 43t-40.5 67t-1 88l75 350q5 22 0 33.5t-12 20.5t-12 19.5t-1 29.5q5 22 21 31.5t42 9.5h163
q25 0 38 -9.5t8 -31.5q-4 -19 -13.5 -29.5t-20.5 -19.5t-20.5 -20.5t-14.5 -33.5l-70 -329q-6 -30 -3 -55.5t16 -44.5t36.5 -30t57.5 -11q33 0 59.5 10.5t47 29t33.5 43t19 51.5l71 336q5 22 0 33.5t-12 20.5t-12 19.5t-1 29.5q5 22 21.5 31.5t41.5 9.5h65z" />
    <glyph glyph-name="V" unicode="V" 
d="M666 700q20 0 31.5 -10.5t6.5 -30.5q-3 -16 -11 -26t-18.5 -20t-22 -22.5t-23.5 -34.5l-273 -515q-11 -20 -25 -30.5t-39 -10.5h-88q-25 0 -35 10.5t-12 30.5l-65 515q-3 22 -9.5 34.5t-12.5 22.5t-9.5 20t0.5 26q4 20 19.5 30.5t35.5 10.5h166q28 0 39 -9t6 -32
q-3 -16 -12.5 -25.5t-18.5 -20.5t-14.5 -26.5t-1.5 -44.5l50 -400l207 400q15 29 16 45t-3.5 26.5t-9 20t-1.5 25.5q5 23 20.5 32t43.5 9h63z" />
    <glyph glyph-name="W" unicode="W" horiz-adv-x="949" 
d="M982 700q20 0 31 -10.5t6 -30.5q-3 -16 -11 -26t-18.5 -20t-22 -22.5t-22.5 -34.5l-259 -515q-11 -20 -25 -30.5t-40 -10.5h-84q-25 0 -34.5 10.5t-11.5 30.5l-18 243l-133 -243q-11 -20 -25 -30.5t-39 -10.5h-87q-25 0 -34.5 10.5t-11.5 30.5l-51 515q-2 22 -8.5 34.5
t-13 22.5t-10 20t0.5 26q4 20 19.5 30.5t35.5 10.5h164q28 0 39 -9t6 -32q-3 -16 -12 -25.5t-17.5 -20.5t-14.5 -26.5t-3 -44.5l38 -396l148 275l-10 135q-1 22 -7.5 34.5t-13 22.5t-10.5 20t0 26q5 20 20 30.5t35 10.5h162q28 0 39 -9t6 -32q-3 -16 -11.5 -25.5t-17 -20
t-14.5 -26.5t-4 -45l26 -387l191 387q14 29 15 45t-3 26.5t-8.5 20t-1.5 25.5q5 23 20 32t43 9h62z" />
    <glyph glyph-name="X" unicode="X" horiz-adv-x="578" 
d="M479 144q8 -19 16.5 -31.5t14.5 -22.5t8 -21t-1 -28q-5 -20 -20 -30.5t-35 -10.5h-172q-28 0 -39 9t-6 32q3 16 14 27t20.5 22.5t13 27t-7.5 40.5l-52 121l-105 -121q-24 -27 -28 -43t-0.5 -27t9 -21t2.5 -26q-5 -23 -20 -32t-43 -9h-81q-20 0 -31 10.5t-7 30.5
q3 16 10.5 26t19 20t26.5 23t34 34l183 205l-89 207q-8 20 -17.5 32t-17 22.5t-11 21.5t0.5 27q5 20 20 30.5t35 10.5h172q28 0 39 -9t6 -32q-3 -16 -13 -27t-18 -23t-10.5 -27t8.5 -40l48 -103l89 103q24 28 28.5 43.5t0.5 26.5t-9.5 21t-2.5 26q5 23 20 32t43 9h79
q20 0 31.5 -10.5t6.5 -30.5q-3 -15 -10.5 -25.5t-18.5 -20.5t-26 -23t-34 -34l-169 -189z" />
    <glyph glyph-name="Y" unicode="Y" horiz-adv-x="596" 
d="M628 700q20 0 31.5 -10.5t6.5 -30.5q-3 -15 -11 -25t-19.5 -20t-26.5 -23t-32 -35l-191 -244l-36 -168q-4 -22 0.5 -33.5t11.5 -20.5t12 -19.5t1 -29.5q-5 -22 -21.5 -31.5t-41.5 -9.5h-163q-26 0 -38.5 9.5t-7.5 31.5q4 19 13.5 29.5t20.5 19.5t21 20.5t14 33.5l33 156
l-99 256q-7 20 -16.5 32.5t-17 22.5t-11.5 21t0 27q4 20 19.5 30.5t35.5 10.5h184q28 0 39.5 -9t6.5 -32q-3 -16 -12.5 -27t-17.5 -22.5t-10.5 -26.5t7.5 -41l54 -136l106 136q23 29 27 45t0.5 26.5t-9 20t-2.5 25.5q5 23 20.5 32t43.5 9h75z" />
    <glyph glyph-name="Z" unicode="Z" horiz-adv-x="546" 
d="M457 147q23 0 28 -13.5t-5 -37.5l-15 -38q-9 -23 -24.5 -40.5t-43.5 -17.5h-416q-50 0 -42 41q3 12 9 22.5t15 21.5t20.5 24.5t25.5 32.5l360 480h-148q-22 0 -35 -7.5t-24 -16t-23 -16t-31 -7.5q-22 0 -28 14.5t-1 39.5l6 30q5 22 21.5 31.5t41.5 9.5h397q50 0 42 -41
q-3 -12 -8 -21.5t-13 -21t-19.5 -25t-26.5 -33.5l-362 -480h156q27 0 44.5 11t32 23.5t29.5 23.5t37 11z" />
    <glyph glyph-name="bracketleft" unicode="[" horiz-adv-x="236" 
d="M289 754q32 0 26 -25l-6 -30q-6 -24 -37 -24h-61l-146 -686h61q31 0 27 -24l-7 -30q-4 -24 -36 -24h-169q-24 0 -18 31l166 780q6 32 31 32h169z" />
    <glyph glyph-name="backslash" unicode="\" horiz-adv-x="360" 
d="M269 -58q5 -31 -20 -31h-30q-24 0 -29 31l-118 780q-5 32 20 32h30q24 0 29 -32z" />
    <glyph glyph-name="bracketright" unicode="]" horiz-adv-x="236" 
d="M276 754q24 0 18 -32l-166 -780q-8 -31 -31 -31h-169q-32 0 -26 24l6 30q6 24 37 24h61l146 686h-62q-30 0 -26 24l7 30q4 25 36 25h169z" />
    <glyph glyph-name="asciicircum" unicode="^" horiz-adv-x="391" 
d="M391 458q12 -31 -13 -31h-23q-24 0 -35 31l-64 176l-139 -176q-12 -15 -23.5 -23t-25.5 -8h-22q-25 0 0 31l166 210q25 31 48 31h19q24 0 36 -31z" />
    <glyph glyph-name="underscore" unicode="_" horiz-adv-x="403" 
d="M354 -21q32 0 26 -25l-6 -30q-6 -24 -37 -24h-309q-32 0 -26 24l6 30q6 25 37 25h309z" />
    <glyph glyph-name="grave" unicode="`" horiz-adv-x="202" 
d="M95 745q17 -20 33 -38q13 -15 26 -30.5t21 -23.5q8 -10 9 -18t-9 -17l-11 -11q-8 -8 -16 -8q-9 0 -19 10q-8 8 -23.5 21.5t-30.5 27.5q-18 15 -37 33q-17 18 0 34l22 21q8 8 16 8q10 0 19 -9z" />
    <glyph glyph-name="a" unicode="a" horiz-adv-x="601" 
d="M579 164q9 0 13 -8.5t4 -17.5q0 -23 -13.5 -48.5t-36.5 -47t-54 -35.5t-67 -14q-54 0 -75.5 30.5t-19.5 77.5q-27 -45 -69.5 -76.5t-105.5 -31.5q-46 0 -78.5 20.5t-50.5 58t-20.5 91t11.5 119.5t39.5 119t61 90.5t78.5 58t91 20.5q52 0 84.5 -22t51.5 -57q12 14 28 26.5
t33.5 23t35 16.5t32.5 6q16 0 24.5 -9.5t3.5 -31.5l-70 -328q-13 -59 15 -59q11 0 18 4.5t13 10t11 10t12 4.5zM250 107q38 0 69.5 55t51.5 150l11 53q-1 31 -9 55q-6 21 -20.5 38t-42.5 17q-49 0 -79.5 -52t-41.5 -146q-5 -47 -2 -79.5t11.5 -52.5t22 -29t29.5 -9z" />
    <glyph glyph-name="b" unicode="b" horiz-adv-x="578" 
d="M422 570q46 0 78.5 -20.5t50.5 -58t21 -90.5t-11 -119t-40 -119.5t-61 -91t-78 -58t-92 -20.5q-52 0 -84.5 22t-51.5 57q-12 -13 -28 -26t-33.5 -23.5t-35 -16.5t-32.5 -6q-16 0 -24.5 9.5t-3.5 31.5l112 526q5 22 0 33.5t-12 19.5t-12.5 17t-1.5 26q4 19 26.5 35.5
t50.5 29t56 19.5t43 7q25 0 37 -10.5t7 -38.5l-50 -233q27 42 68 70t101 28zM388 287q5 47 2.5 81.5t-11.5 57t-22 33.5t-29 11q-19 0 -36.5 -16.5t-33.5 -45.5t-29 -69.5t-23 -87.5l-11 -53q1 -31 9 -55q7 -20 21.5 -37.5t41.5 -17.5q50 0 80 52t41 147z" />
    <glyph glyph-name="c" unicode="c" horiz-adv-x="482" 
d="M203 -7q-59 0 -101 20.5t-65.5 58t-29 91t8.5 119.5t45 119t74.5 90.5t96 58t109.5 20.5q39 0 70.5 -11t53 -28.5t31 -40t4.5 -46.5q-3 -16 -15.5 -30.5t-29 -25t-34.5 -16.5t-33 -6q-23 0 -29.5 11.5t-5.5 30.5q2 48 -11.5 69.5t-37.5 21.5q-18 0 -35.5 -13t-32.5 -36.5
t-26.5 -55t-19.5 -67.5q-14 -64 -10.5 -106.5t18.5 -67t38 -34.5t47 -10q34 0 55.5 9.5t36 21.5t26 21.5t24.5 9.5q9 0 12 -6t1 -15q-4 -21 -23 -48.5t-50 -51.5t-72 -40.5t-90 -16.5z" />
    <glyph glyph-name="d" unicode="d" horiz-adv-x="611" 
d="M575 754q25 0 37 -10.5t7 -38.5l-109 -511q-13 -59 15 -59q11 0 18 4.5t13 10t11 10t12 4.5q9 0 13 -8.5t4 -17.5q0 -23 -13.5 -48.5t-36.5 -47t-54 -35.5t-67 -14q-52 0 -73.5 28t-21.5 73q-29 -44 -69.5 -72.5t-98.5 -28.5q-45 0 -79 20.5t-53.5 58t-23 91t10.5 119.5
t40 119t61.5 90.5t78 58t90.5 20.5q51 0 79 -25t41 -65l18 87q5 22 0 33.5t-12 19.5t-12.5 17t-1.5 26q4 19 26.5 35.5t50.5 29t56 19.5t43 7zM253 107q31 0 53 22.5t41 67.5l11 54q7 34 11.5 75.5t1.5 77.5t-16.5 60.5t-41.5 24.5q-43 0 -76.5 -52t-43.5 -146
q-11 -94 8.5 -139t51.5 -45z" />
    <glyph glyph-name="e" unicode="e" horiz-adv-x="477" 
d="M438 150q-4 -21 -23 -48.5t-50 -51.5t-72 -40.5t-90 -16.5q-59 0 -101 20.5t-65.5 58t-29 91t8.5 119.5t44.5 119t72.5 90.5t93.5 58t107.5 20.5q45 0 78 -13t53.5 -35t27.5 -51.5t0 -62.5q-17 -81 -94 -123t-220 -43q0 -39 8.5 -64.5t23.5 -40.5t34 -21.5t38 -6.5
q34 0 55.5 9.5t36 21.5t26 21.5t24.5 9.5q9 0 12 -6t1 -15zM297 499q-26 0 -46 -24.5t-34 -58t-22.5 -69t-11.5 -57.5q72 1 110 26t49 74q11 50 -5 79.5t-40 29.5z" />
    <glyph glyph-name="f" unicode="f" horiz-adv-x="344" 
d="M388 516q-4 -24 -36 -24h-80l-96 -452q-10 -46 -32 -89t-56.5 -76t-81 -53t-104.5 -20q-41 0 -71.5 10t-50 23.5t-28 28.5t-6.5 26q3 16 14 30.5t26 25.5t31.5 17t31.5 6q20 0 27 -8.5t9 -26.5q1 -11 3 -23t6.5 -22t13 -16.5t22.5 -6.5q26 0 41 26.5t29 91.5l108 508h-44
q-32 0 -26 24l5 23q4 24 36 24h44q8 35 26 70t46.5 63.5t68 46.5t89.5 18q39 0 66 -10t43 -23.5t22 -28.5t4 -26q-3 -16 -14 -30.5t-26 -25.5t-31.5 -17t-31.5 -6q-20 0 -27.5 8.5t-9.5 26.5q-1 11 -2.5 23t-5 22t-9.5 16.5t-16 6.5q-11 0 -22 -12t-16 -36q-3 -15 -3 -30
t2 -28q1 -15 4 -28h87q32 0 26 -24z" />
    <glyph glyph-name="g" unicode="g" horiz-adv-x="567" 
d="M552 563q16 0 24.5 -9.5t3.5 -31.5l-103 -482q-10 -46 -32.5 -89t-58.5 -76t-85 -53t-112 -20q-47 0 -79 10t-51.5 23.5t-27 28.5t-5.5 26q3 16 14 30.5t26 25.5t31.5 17t31.5 6q20 0 27.5 -8.5t9.5 -26.5q1 -11 3.5 -23t8.5 -22t15.5 -16.5t23.5 -6.5q26 0 48.5 26
t36.5 92l22 108q-27 -42 -68 -70.5t-101 -28.5q-45 0 -78 20.5t-51 58t-20.5 91t11.5 119.5t39.5 119t61 90.5t78.5 58t91 20.5q52 0 85 -22t51 -57q12 14 28 26.5t33.5 23t35 16.5t32.5 6zM250 93q19 0 36.5 16.5t33 46t28.5 69.5t23 87l12 53q-1 31 -9 55q-7 21 -21.5 38
t-42.5 17q-49 0 -79 -52t-41 -146q-10 -94 9 -139t51 -45z" />
    <glyph glyph-name="h" unicode="h" horiz-adv-x="588" 
d="M565 164q9 0 13 -8.5t4 -17.5q0 -23 -13.5 -48.5t-36.5 -47t-54 -35.5t-67 -14q-33 0 -53.5 12.5t-30.5 33.5t-10.5 49t5.5 60l50 236q8 38 4 55t-23 17t-38.5 -19.5t-37.5 -51t-34.5 -71t-30 -78.5t-23.5 -74.5t-15 -58.5l-13 -62q-8 -41 -59 -41h-63q-50 0 -42 41
l111 526q5 22 0 33.5t-12 19.5t-12.5 17t-1.5 26q4 19 26.5 35.5t50.5 29t56 19.5t43 7q25 0 37 -10.5t7 -38.5l-63 -296q16 32 35.5 61.5t44.5 51.5t54.5 35t65.5 13q38 0 61 -12.5t35 -33.5t13.5 -49t-5.5 -60l-47 -221q-13 -59 15 -59q11 0 18 4.5t13 10t11 10t12 4.5z
" />
    <glyph glyph-name="i" unicode="i" horiz-adv-x="287" 
d="M233 754q41 0 63 -20t14 -57t-38.5 -56.5t-71.5 -19.5t-62.5 19.5t-13.5 56.5t38 57t71 20zM265 164q9 0 13 -8.5t4 -17.5q0 -23 -13.5 -48.5t-36.5 -47t-54 -35.5t-67 -14q-33 0 -54 12.5t-31 33.5t-10.5 49t6.5 60l49 229q5 22 0 33t-12 19.5t-12.5 17t-2.5 25.5
q4 20 26.5 36.5t50.5 28.5t56 19t43 7q25 0 37.5 -10.5t6.5 -37.5l-68 -321q-13 -59 15 -59q11 0 18 4.5t13 10t11 10t12 4.5z" />
    <glyph glyph-name="j" unicode="j" horiz-adv-x="265" 
d="M245 754q42 0 63.5 -20t13.5 -57t-38 -56.5t-71 -19.5t-63 19.5t-14 56.5t38 57t71 20zM233 563q25 0 37 -10.5t7 -37.5l-101 -475q-10 -46 -32 -89t-56.5 -76t-81.5 -53t-105 -20q-41 0 -71 10t-49.5 23.5t-28.5 28.5t-7 26q4 16 15 30.5t26 25.5t31.5 17t31.5 6
q20 0 27 -8.5t9 -26.5q1 -11 3 -23t6.5 -22t13 -16.5t22.5 -6.5q26 0 41 26t29 92l83 393q5 22 0 33.5t-12 19.5t-12.5 17t-1.5 25q4 20 26.5 36.5t50.5 28.5t56 19t43 7z" />
    <glyph glyph-name="k" unicode="k" horiz-adv-x="548" 
d="M513 164q9 0 13 -8.5t4 -17.5q0 -23 -10.5 -48.5t-29.5 -47t-45.5 -35.5t-59.5 -14q-28 0 -48.5 10.5t-34.5 28t-23 39.5t-16 46l-39 136q-5 -2 -10 -5t-10 -5l-43 -202q-8 -41 -59 -41h-63q-50 0 -42 41l111 526q5 22 0 33.5t-12 19.5t-12.5 17t-1.5 26q4 19 26.5 35.5
t50.5 29t56 19.5t43 7q25 0 37 -10.5t7 -38.5l-84 -395q44 26 81.5 47.5t65.5 41t43.5 37t15.5 35.5q0 11 -2.5 17.5t-6 12t-6 10.5t-2.5 13q0 18 13.5 28.5t38.5 10.5h52q24 0 38 -14t14 -40q0 -19 -10 -38t-33 -40t-59.5 -45t-89.5 -54l37 -138q11 -38 24 -48.5t27 -10.5
q11 0 18.5 4.5t13 10t10.5 10t12 4.5z" />
    <glyph glyph-name="l" unicode="l" horiz-adv-x="296" 
d="M260 754q25 0 37 -10.5t7 -38.5l-109 -511q-12 -59 16 -59q10 0 17 4.5t13 10t11.5 10t12.5 4.5q9 0 13 -8.5t4 -17.5q0 -23 -13.5 -48.5t-36.5 -47t-54 -35.5t-67 -14q-33 0 -54 12.5t-31 33.5t-10.5 49t6.5 60l88 419q5 22 0 33.5t-12 19.5t-12.5 17t-1.5 26
q4 19 26.5 35.5t50.5 29t56 19.5t43 7z" />
    <glyph glyph-name="m" unicode="m" horiz-adv-x="900" 
d="M877 164q10 0 13.5 -8.5t3.5 -17.5q0 -23 -13 -48.5t-36 -47t-54 -35.5t-67 -14q-33 0 -54 12.5t-31 33.5t-10.5 49t6.5 60l50 236q8 38 3.5 55t-23.5 17t-38.5 -20t-37.5 -52t-34.5 -71.5t-30.5 -79t-23.5 -74.5t-14.5 -58l-13 -60q-8 -41 -59 -41h-63q-51 0 -41 41
l72 343q8 38 4 55t-24 17q-19 0 -38 -20t-37.5 -52t-35 -71.5t-30 -79t-23.5 -74.5t-15 -58l-12 -60q-8 -41 -60 -41h-62q-50 0 -42 41l71 336q5 22 -0.5 33t-12.5 19.5t-12.5 17t-1.5 25.5q4 20 26.5 36.5t50.5 28.5t56 19t43 7q25 0 37 -10.5t7 -37.5l-23 -106
q16 32 36 61.5t44.5 51.5t54.5 35t66 13q38 0 61 -12.5t34.5 -33.5t13 -49t-5.5 -60l-1 -6q16 32 35.5 61.5t44.5 51.5t54.5 35t65.5 13q38 0 61 -12.5t35 -33.5t13.5 -49t-5.5 -60l-47 -221q-12 -59 16 -59q10 0 17 4.5t13 10t11 10t12 4.5z" />
    <glyph glyph-name="n" unicode="n" horiz-adv-x="597" 
d="M49 0q-52 0 -42 41l70 336q5 22 0 33t-12 19.5t-12.5 17t-1.5 25.5q4 20 26.5 36.5t50.5 28.5t56 19t43 7q25 0 37 -10.5t7 -37.5l-23 -106q16 32 35.5 61.5t44.5 51.5t54.5 35t65.5 13q38 0 61 -12.5t35 -33.5t13.5 -49t-5.5 -60l-47 -221q-12 -59 16 -59q10 0 17 4.5
t13 10t11.5 10t12.5 4.5q9 0 13 -8.5t4 -17.5q0 -23 -13.5 -48.5t-36.5 -47t-54 -35.5t-67 -14q-33 0 -54 12.5t-31 33.5t-10.5 49t6.5 60l50 236q8 38 4 55t-24 17q-19 0 -38.5 -20t-37.5 -52t-34.5 -71.5t-30.5 -79t-23.5 -74.5t-14.5 -58l-12 -60q-10 -41 -60 -41h-62z
" />
    <glyph glyph-name="o" unicode="o" horiz-adv-x="543" 
d="M210 -7q-56 0 -99 19t-69 56t-34 91t7 123t45.5 122.5t72.5 90.5t93 56t107 19t98.5 -19t69 -56t34.5 -90.5t-7 -122.5t-45.5 -123t-72.5 -91t-93 -56t-107 -19zM298 499q-17 0 -34 -15.5t-31.5 -43.5t-26 -68t-17.5 -90q-12 -100 5 -159t51 -59q17 0 34 15.5t31.5 44
t26 68.5t17.5 90t4.5 90t-9.5 68t-21 43.5t-30 15.5z" />
    <glyph glyph-name="p" unicode="p" horiz-adv-x="586" 
d="M431 570q45 0 77.5 -20.5t50.5 -58t21 -90.5t-11 -119t-39.5 -119.5t-61 -91t-78.5 -58t-91 -20.5q-45 0 -75.5 16.5t-50.5 44.5l-43 -204q-8 -41 -59 -41h-63q-50 0 -42 41l111 527q5 22 0 33t-12 19.5t-12.5 17t-1.5 25.5q4 20 26.5 36.5t50.5 28.5t56 19t43 7
q25 0 37 -10.5t7 -37.5l-9 -43q27 42 68 70t101 28zM396 287q5 47 2.5 81.5t-11 57t-22 33.5t-29.5 11q-19 0 -36.5 -16t-32.5 -45t-28 -68t-23 -86l-13 -58q0 -5 2 -22.5t9.5 -37t22 -34.5t39.5 -15q49 0 79 52t41 147z" />
    <glyph glyph-name="q" unicode="q" horiz-adv-x="567" 
d="M553 563q15 0 23.5 -9.5t3.5 -31.5l-111 -526q-5 -22 0 -33.5t12 -19.5t12.5 -17t1.5 -26q-4 -19 -26.5 -35.5t-50.5 -29t-56 -19.5t-43 -7q-25 0 -37 10.5t-7 38.5l50 234q-27 -42 -68 -70.5t-101 -28.5q-46 0 -78.5 20.5t-50.5 58t-21 91t11 119.5t40 119t61 90.5
t78 58t92 20.5q52 0 84.5 -22t50.5 -57q12 14 28 26.5t34 23t35.5 16.5t32.5 6zM383 365q-1 31 -9 55q-7 21 -21.5 38t-42.5 17q-49 0 -79 -52t-41 -146q-5 -47 -2.5 -82t11.5 -57.5t22 -33.5t29 -11q19 0 36.5 16.5t33.5 46t29 69.5t23 87z" />
    <glyph glyph-name="r" unicode="r" horiz-adv-x="448" 
d="M487 468q-4 -17 -11.5 -34.5t-19 -31t-26.5 -22t-33 -8.5t-28.5 7.5t-18.5 16.5t-16 16.5t-21 7.5q-10 0 -23.5 -10t-26.5 -28.5t-24.5 -45.5t-18.5 -60l-49 -235q-10 -41 -60 -41h-62q-50 0 -42 41l70 336q5 22 0 33.5t-12 19.5t-12.5 17t-1.5 25q4 20 26.5 36.5
t50.5 28.5t56 19t43 7q25 0 37 -10.5t7 -37.5l-15 -70q30 52 75.5 88.5t101.5 36.5q43 0 53.5 -28t0.5 -74z" />
    <glyph glyph-name="s" unicode="s" horiz-adv-x="481" 
d="M237 452q-5 -25 11 -44t42 -36.5t57 -36t56 -42.5t38 -55.5t4 -74.5q-7 -34 -28 -64.5t-54 -54t-76.5 -37.5t-97.5 -14q-43 0 -79 12t-60 30t-35.5 40.5t-7.5 43.5q3 17 15.5 31t29 25t34.5 17t33 6q23 0 29.5 -12t5.5 -31q-2 -48 13.5 -69.5t47.5 -21.5q29 0 49.5 15.5
t26.5 43.5q6 29 -9.5 50.5t-41 40.5t-56.5 38t-56.5 41.5t-39 51t-5.5 67.5q7 32 26.5 61t50.5 50.5t71.5 34t89.5 12.5q42 0 76 -10.5t57 -27t34 -36t7 -38.5q-4 -16 -16.5 -30.5t-29 -25t-34 -16.5t-32.5 -6q-24 0 -29.5 12t-6.5 30q-2 43 -16.5 60t-39.5 17
q-14 0 -31.5 -12t-22.5 -35z" />
    <glyph glyph-name="t" unicode="t" horiz-adv-x="339" 
d="M315 164q8 0 11 -6t1 -15q-4 -21 -19.5 -47.5t-40 -49t-57.5 -38t-74 -15.5q-25 0 -49 8t-41 26.5t-23.5 50t3.5 79.5l72 335h-37q-31 0 -27 24l5 23q6 24 37 24q26 0 46.5 10t37 25.5t30 33t26.5 33t25.5 25.5t27.5 10q16 0 24.5 -9.5t3.5 -31.5l-20 -96h79q32 0 26 -24
l-4 -23q-6 -24 -37 -24h-80l-61 -290q-10 -46 -4.5 -69.5t33.5 -23.5q17 0 28.5 8.5t21 19t18 19t18.5 8.5z" />
    <glyph glyph-name="u" unicode="u" horiz-adv-x="582" 
d="M560 164q9 0 13 -8.5t4 -17.5q0 -23 -13.5 -48.5t-36.5 -47t-54 -35.5t-67 -14q-28 0 -47.5 9t-30.5 25t-14.5 37.5t-1.5 46.5q-31 -50 -76.5 -84t-110.5 -34q-37 0 -60.5 12.5t-35 33.5t-13 49t5.5 60l48 229q5 22 0 33t-12 19.5t-12.5 17t-1.5 25.5q4 20 26.5 36.5
t50.5 28.5t56 19t43 7q25 0 37 -10.5t6 -37.5l-71 -336q-8 -38 -2 -55t29 -17q24 0 45 19t38.5 49t30 66.5t19.5 70.5l14 65q5 22 0 33t-12 19.5t-12.5 17t-2.5 25.5q4 20 26.5 36.5t50.5 28.5t56 19t43 7q25 0 37.5 -10.5t6.5 -37.5l-68 -321q-13 -59 15 -59q11 0 18 4.5
t13 10t11 10t12 4.5z" />
    <glyph glyph-name="v" unicode="v" horiz-adv-x="509" 
d="M448 570q36 0 51 -22t15 -51q0 -30 -7 -79.5t-23 -105.5t-42 -113t-63 -102.5t-86.5 -74.5t-112.5 -29q-50 0 -80.5 18t-45.5 46t-17 61.5t5 63.5l39 187q7 32 3.5 45.5t-18.5 13.5q-10 0 -17.5 -4.5t-13.5 -10t-11 -10t-12 -4.5q-9 0 -13 9t-4 17q0 23 11.5 48.5
t32.5 47t51.5 35.5t68.5 14q37 0 59 -12.5t32.5 -33.5t11 -49t-6.5 -60l-50 -237q-7 -34 0.5 -58t38.5 -24t55 13t41.5 33.5t29.5 44.5t19 46q12 40 13 70t-4 53.5t-13.5 42.5t-16 36t-11.5 33t0 35q7 32 30.5 49.5t60.5 17.5z" />
    <glyph glyph-name="w" unicode="w" horiz-adv-x="805" 
d="M754 570q36 0 51 -22t15 -51q0 -30 -7 -79.5t-23 -105.5t-42 -113t-63 -102.5t-86.5 -74.5t-112.5 -29q-58 0 -89.5 23.5t-43.5 58.5q-34 -39 -77 -60.5t-103 -21.5q-48 0 -77 18t-43 46t-16 61.5t5 63.5l39 187q7 32 3.5 45.5t-18.5 13.5q-10 0 -17.5 -4.5t-13.5 -10
t-11 -10t-12 -4.5q-9 0 -13 9t-4 17q0 23 11.5 48.5t32.5 47t51.5 35.5t68.5 14q36 0 58.5 -12.5t33 -33.5t11 -49t-6.5 -60l-50 -237q-8 -34 -3 -58t35 -24q26 0 45.5 13t34 33.5t25 44.5t16.5 46l61 289q10 41 60 41h62q50 0 42 -41l-72 -344q-7 -34 0.5 -58t38.5 -24
t55 13t41.5 33.5t29.5 44.5t19 46q12 40 13 70t-4 53.5t-13.5 42.5t-16 36t-11.5 33t0 35q7 32 30.5 49.5t60.5 17.5z" />
    <glyph glyph-name="x" unicode="x" horiz-adv-x="535" 
d="M503 570q29 0 48 -16t19 -50q0 -37 -17.5 -64t-50.5 -34q-12 -3 -23 -1.5t-21.5 4.5t-20 5.5t-18.5 2.5q-18 0 -37 -19t-43 -79l44 -125q10 -29 21 -44t28 -15q11 0 18 4.5t12.5 10t10.5 10t12 4.5q9 0 12.5 -8.5t3.5 -17.5q0 -23 -8.5 -48.5t-25 -47t-40.5 -35.5
t-55 -14q-34 0 -61.5 19.5t-44.5 70.5l-37 106q-16 -39 -39.5 -74.5t-50.5 -62.5t-57 -43t-60 -16q-29 0 -48 16t-19 50q0 37 17.5 64t50.5 34q12 3 24 1.5t23 -4.5t22.5 -6t22.5 -3t22 4.5t22.5 15.5t23.5 31.5t25 51.5l-42 121q-10 29 -21 44t-28 15q-11 0 -18 -4.5
t-12 -10t-10 -10t-12 -4.5q-9 0 -13 9t-4 17q0 23 9 48.5t25.5 47t40.5 35.5t54 14q34 0 61.5 -19.5t44.5 -70.5l35 -100q15 38 34.5 72.5t43 60.5t50.5 41.5t57 15.5z" />
    <glyph glyph-name="y" unicode="y" horiz-adv-x="508" 
d="M466 570q37 0 51.5 -22t14.5 -51q0 -42 -22 -96t-58 -119l-182 -327q-17 -31 -36.5 -58.5t-44 -48.5t-55 -33.5t-69.5 -12.5t-67 11t-45 27t-23.5 33.5t-3.5 31.5q3 16 14 30.5t26 25t31.5 16.5t31.5 6q20 0 27.5 -8.5t9.5 -26.5q1 -11 1 -25.5t2 -27t8.5 -21t20.5 -8.5
q19 0 30.5 14.5t15.5 30.5q9 45 4.5 95.5t-15.5 116.5l-25 142q-10 58 -19.5 90.5t-17.5 48.5t-15.5 20t-14.5 4q-10 0 -16 -4.5t-10.5 -10t-9 -10t-11.5 -4.5q-9 0 -12.5 9t-3.5 17q0 24 10 49.5t28 46.5t42.5 35t53.5 14q39 0 63.5 -15.5t39 -39.5t21 -53t10.5 -57
l40 -285l64 113q22 39 31.5 69t11 53.5t-2.5 42.5t-8.5 36t-7.5 33.5t1 35.5q16 67 91 67z" />
    <glyph glyph-name="z" unicode="z" horiz-adv-x="483" 
d="M501 563q13 0 16 -8t-10 -23l-325 -374q29 20 65 20q20 0 37 -6.5t34 -15t35 -15t39 -6.5q14 0 22.5 4.5t14.5 10t11 10t12 4.5q9 0 13 -9t4 -17q0 -24 -8.5 -49.5t-25 -46.5t-40.5 -35t-56 -14q-25 0 -50.5 8.5t-51 18.5t-51.5 18.5t-53 8.5q-24 0 -43.5 -8t-34.5 -22
q-19 -17 -42 -17h-21q-13 0 -16 8t10 23l325 374q-14 -9 -30 -14.5t-34 -5.5q-19 0 -36 6.5t-33.5 15t-33 15t-36.5 6.5q-13 0 -21.5 -4.5t-14.5 -10t-11.5 -10t-12.5 -4.5q-9 0 -13 9t-4 17q0 24 8.5 49.5t25 46.5t41 35t55.5 14q24 0 48 -8.5t48.5 -18.5t50 -18.5
t52.5 -8.5q24 0 43.5 8.5t35.5 22.5q18 16 41 16h21z" />
    <glyph glyph-name="braceleft" unicode="{" horiz-adv-x="205" 
d="M274 718q-21 -10 -33.5 -28t-19.5 -50q-3 -15 -4.5 -39t-2.5 -51.5t-3 -54t-6 -45.5q-8 -37 -29.5 -60t-44.5 -36q-27 -15 -58 -22q29 -7 49 -21q17 -13 29 -35.5t4 -60.5q-4 -19 -13.5 -45.5t-20 -54t-19.5 -52t-12 -39.5q-7 -32 -2 -49.5t22 -28.5q5 -2 5.5 -8.5
t-4.5 -11.5l-7 -8q-4 -7 -14 -7q-39 1 -63.5 13t-37.5 29t-16 37.5t1 39.5q5 25 14 52t19 53t18 49t12 41q5 26 -5.5 43.5t-33.5 22.5q-9 2 -13 9.5t-2 16.5l6 31q2 9 9.5 16.5t17.5 9.5q25 5 43.5 22.5t23.5 42.5q4 18 5.5 41.5t2.5 49.5t3.5 53t7.5 52q4 19 16 39.5
t32.5 37.5t50 28.5t68.5 13.5q9 0 12 -7l3 -8q2 -6 -1 -12t-9 -9z" />
    <glyph glyph-name="bar" unicode="|" horiz-adv-x="109" 
d="M144 700q24 0 18 -31l-136 -638q-6 -31 -31 -31h-30q-23 0 -17 31l135 638q8 31 31 31h30z" />
    <glyph glyph-name="braceright" unicode="}" horiz-adv-x="205" 
d="M188 374q9 -2 13 -9.5t2 -16.5l-6 -31q-2 -9 -9.5 -16.5t-17.5 -9.5q-25 -5 -43 -22.5t-24 -43.5q-4 -18 -5.5 -41t-2.5 -49t-3.5 -53t-7.5 -52q-4 -19 -16 -39.5t-32.5 -37.5t-50 -29t-68.5 -13q-9 0 -12 7l-3 8q-2 5 1 11.5t9 8.5q21 11 33.5 28.5t19.5 49.5
q3 15 4.5 39.5t2.5 52t3 54t6 45.5q8 38 29.5 60.5t44.5 35.5q27 14 59 21q-29 7 -49 22q-18 13 -30 36t-4 60q4 19 13.5 45.5t20 54t19.5 51.5t12 39q7 32 2 50t-22 28q-5 3 -5.5 9t4.5 12l7 8q5 7 14 7q39 -2 63.5 -13.5t37.5 -28.5t16 -37.5t-1 -39.5q-5 -25 -14 -52
t-19 -53t-18 -49.5t-12 -41.5q-5 -25 5.5 -42.5t33.5 -22.5z" />
    <glyph glyph-name="asciitilde" unicode="~" horiz-adv-x="372" 
d="M379 325q12 -5 8 -17q-13 -32 -41.5 -51.5t-70.5 -19.5q-15 0 -34.5 4.5t-39.5 10t-40 10t-37 4.5q-23 0 -34 -5.5t-18 -15.5q-7 -11 -17 -8l-11 4q-5 2 -8 6.5t-1 10.5q13 31 42 50.5t71 19.5q15 0 34.5 -4.5t39.5 -9.5t40 -9.5t36 -4.5q23 0 34.5 5t18.5 15q7 11 17 8z
" />
    <glyph glyph-name="exclamdown" unicode="&#xa1;" horiz-adv-x="244" 
d="M149 411q-35 0 -53.5 21t-10.5 59t35.5 58.5t62.5 20.5t53.5 -20.5t10.5 -58.5t-35.5 -59t-62.5 -21zM155 371q24 0 18 -32q-14 -66 -19.5 -122t-7.5 -104.5t-4.5 -91t-10.5 -81.5q-8 -37 -29.5 -60.5t-50.5 -23.5h-41q-29 0 -40 23.5t-3 60.5q8 39 24 81.5t34 91
t36.5 104.5t32.5 122q8 32 31 32h30z" />
    <glyph glyph-name="cent" unicode="&#xa2;" horiz-adv-x="475" 
d="M298 568q-18 0 -35.5 -13t-32.5 -36.5t-26.5 -55t-19.5 -67.5q-14 -64 -10.5 -106.5t18.5 -67t38 -34.5t47 -10q34 0 55.5 9.5t36 21.5t26 21.5t24.5 9.5q8 0 11.5 -6t1.5 -15q-4 -19 -20 -44t-42 -47.5t-61.5 -40t-77.5 -23.5l-8 -36q-6 -31 -31 -31h-30q-25 0 -17 31
l7 37q-95 15 -131.5 90.5t-10.5 194.5q12 57 37 104.5t59.5 84t77 60.5t89.5 34l9 40q6 31 30 31h30q14 0 17.5 -8t0.5 -23l-7 -35q35 -2 63.5 -13.5t47 -29t27 -39t3.5 -43.5q-3 -16 -15.5 -30.5t-29 -25.5t-34.5 -17t-33 -6q-23 0 -29.5 12t-5.5 31q2 48 -11.5 69.5
t-37.5 21.5z" />
    <glyph glyph-name="sterling" unicode="&#xa3;" horiz-adv-x="566" 
d="M467 183q23 0 31 -15.5t-2 -38.5l-30 -74q-10 -24 -21.5 -39.5t-37.5 -15.5h-431q-32 0 -26 25l11 51q6 24 36 24q24 0 46 9.5t39.5 25t30 35.5t16.5 41q4 20 4 41h-103q-32 0 -26 24l6 30q6 24 36 24h66q-9 21 -19 42t-17.5 43t-10.5 46.5t3 52.5q9 40 33 75.5t62 62
t88.5 42t110.5 15.5q52 0 94 -14t70 -36t41 -48.5t8 -50.5q-4 -20 -15.5 -35.5t-27.5 -26.5t-34.5 -17t-37.5 -6q-29 0 -36 12.5t-8 35.5q-2 49 -21 78.5t-62 29.5q-33 0 -55.5 -22t-29.5 -54q-6 -30 -2.5 -58t11 -55t15 -54.5t9.5 -57.5h103q32 0 26 -24l-6 -30
q-6 -24 -37 -24h-94q-12 -36 -38.5 -66.5t-62.5 -49.5h182q22 0 35 7.5t24 16t23 16t31 7.5z" />
    <glyph glyph-name="yen" unicode="&#xa5;" horiz-adv-x="596" 
d="M629 700q20 0 31 -10.5t6 -30.5q-3 -15 -10.5 -25t-19 -19.5t-26.5 -22.5t-33 -35l-152 -190h53q30 0 26 -24l-7 -30q-4 -24 -36 -24h-80l-11 -51h80q32 0 26 -25l-6 -30q-6 -24 -37 -24h-79l-4 -15q-4 -22 0.5 -33.5t11.5 -20.5t12.5 -19t1.5 -29q-5 -23 -21.5 -32.5
t-41.5 -9.5h-164q-25 0 -37.5 9.5t-7.5 32.5q4 19 13.5 29t20 19t20.5 20.5t14 33.5l4 15h-80q-32 0 -26 24l6 30q6 25 36 25h80l11 51h-80q-32 0 -26 24l7 30q4 24 36 24h40l-73 190q-8 20 -17.5 32t-17 22t-11 21t-0.5 27q5 20 20.5 30.5t35.5 10.5h164q28 0 39.5 -9
t6.5 -32q-4 -16 -13 -26.5t-16.5 -21.5t-10 -26.5t6.5 -41.5l59 -168l131 168q23 29 27 44.5t0.5 26t-8.5 20t-2 25.5q5 23 20 32t43 9h65z" />
    <glyph glyph-name="section" unicode="&#xa7;" horiz-adv-x="574" 
d="M538 281q-12 -55 -57 -101t-121 -69q23 -13 43 -28t33.5 -33.5t18.5 -41.5t-1 -52q-8 -39 -32 -72t-61 -57.5t-87 -38.5t-111 -14q-52 0 -93.5 14t-69.5 36t-41.5 48.5t-8.5 50.5q4 20 16 35.5t27.5 26.5t34.5 17t37 6q29 0 36.5 -12.5t8.5 -34.5q2 -50 20.5 -79.5
t62.5 -29.5q29 0 51.5 14.5t28.5 40.5q6 27 -16 46t-57 35.5t-76.5 33.5t-75 40.5t-52 56.5t-8.5 81q12 55 57 101t121 69q-23 13 -43 28t-33.5 33.5t-19 41.5t0.5 52q8 39 32 72t61.5 57.5t87.5 38.5t110 14q52 0 94 -14.5t70 -36t41 -48t8 -50.5q-4 -20 -15.5 -35.5
t-27 -26.5t-34.5 -17t-37 -6q-29 0 -36.5 12t-8.5 35q-2 50 -20.5 79.5t-62.5 29.5q-29 0 -52 -14.5t-28 -40.5q-6 -27 16 -46t57 -35.5t76.5 -33.5t75 -40.5t52 -56.5t8.5 -81zM175 274q-5 -24 4 -43t28 -35t44.5 -29t53.5 -27q35 21 46 67q5 24 -4 43t-28 35t-44.5 29.5
t-53.5 26.5q-17 -10 -29 -27t-17 -40z" />
    <glyph glyph-name="dieresis" unicode="&#xa8;" horiz-adv-x="323" 
d="M102 740q28 0 42.5 -16.5t8.5 -46.5q-7 -31 -28.5 -47.5t-49.5 -16.5q-29 0 -43.5 16.5t-7.5 47.5q6 30 27.5 46.5t50.5 16.5zM264 740q28 0 43 -16.5t8 -46.5q-7 -31 -28.5 -47.5t-49.5 -16.5t-43 16.5t-8 47.5q6 30 27.5 46.5t50.5 16.5z" />
    <glyph glyph-name="copyright" unicode="&#xa9;" horiz-adv-x="700" 
d="M424 700q76 0 134 -25.5t93.5 -72t47.5 -111t-5 -141.5q-16 -77 -55 -141.5t-94.5 -111t-124.5 -72t-145 -25.5t-134 25.5t-93.5 72t-47.5 111t5 141.5t55.5 141.5t94 111t124.5 72t145 25.5zM286 51q65 0 123.5 22t106 61.5t80.5 94.5t47 121t4.5 121t-40 94.5t-80 61.5
t-114.5 22t-123.5 -22t-106 -61.5t-80.5 -94.5t-47 -121t-4.5 -121t40 -94.5t80 -61.5t114.5 -22zM387 529q-32 0 -58 -40.5t-39 -101.5q-11 -53 -7.5 -87.5t16.5 -55t33 -28.5t41 -8q29 0 47.5 8t31.5 17.5t22.5 17.5t21.5 8q14 0 11 -17q-4 -18 -20 -40.5t-42.5 -42.5
t-62 -33.5t-78.5 -13.5q-103 0 -145 64.5t-19 173.5q11 54 37.5 98t63.5 75t83 48t95 17q34 0 61.5 -9t46 -23.5t27 -33t4.5 -38.5q-3 -13 -13.5 -25t-24.5 -21t-29.5 -14t-28.5 -5q-21 0 -26.5 10t-4.5 25q1 40 -11 57.5t-33 17.5z" />
    <glyph glyph-name="ordfeminine" unicode="&#xaa;" horiz-adv-x="340" 
d="M313 449q-3 -15 0 -23t8 -13.5t8.5 -11.5t1.5 -17q-3 -13 -15 -24.5t-28 -20t-33 -13t-30 -4.5q-17 0 -25.5 7t-4.5 25l3 15q-19 -23 -44.5 -37.5t-60.5 -14.5q-36 0 -55.5 23t-10.5 67q6 26 22 50t42 42t62 28.5t81 10.5l10 45q8 35 2 56.5t-26 21.5q-14 0 -23 -14.5
t-20 -47.5q-4 -13 -12.5 -21t-23.5 -8q-22 0 -40.5 14t-13.5 40q3 11 14 26t30 28.5t46 22.5t62 9q62 0 89 -31t18 -75zM227 505q-25 0 -42 -8t-28 -19.5t-16 -25t-6 -25.5q-1 -16 6.5 -24.5t19.5 -8.5q22 0 37 22.5t25 70.5z" />
    <glyph glyph-name="guillemotleft" unicode="&#xab;" horiz-adv-x="495" 
d="M520 418q-6 -25 -41 -42l-183 -94l143 -95q27 -17 23 -42l-7 -30q-3 -14 -12 -14q-7 0 -20 8l-184 121q-28 18 -22 42l4 19q4 23 40 42l235 121q16 8 23 8q10 0 7 -14zM246 187q27 -17 23 -42l-7 -30q-3 -14 -12 -14q-7 0 -20 8l-184 121q-28 18 -22 42l4 19q4 23 40 42
l235 121q16 8 23 8q10 0 7 -14l-6 -30q-6 -25 -41 -42l-183 -94z" />
    <glyph glyph-name="registered" unicode="&#xae;" horiz-adv-x="508" 
d="M328 700q53 0 93 -18t65 -50t33 -76.5t-3 -98.5q-12 -53 -39 -97.5t-65.5 -76.5t-86 -50t-100.5 -18q-52 0 -92 18t-65 50t-33 76.5t3 97.5q11 54 38 98.5t65.5 76.5t86.5 50t100 18zM233 254q44 0 84 15t72.5 42t55 64.5t31.5 82.5q10 45 3.5 82t-27.5 64t-54.5 42
t-77.5 15t-84 -15t-72 -42t-54.5 -64t-32.5 -82q-9 -45 -2.5 -82.5t27 -64.5t54 -42t77.5 -15zM357 368q4 -9 10 -14.5t11 -9t8.5 -8t1.5 -12.5q-3 -18 -27 -18h-40q-13 0 -18.5 5t-7.5 13l-40 113h-15l-15 -69q-2 -9 0.5 -14.5t5.5 -9.5t6 -8.5t1 -12.5q-4 -17 -29 -17h-70
q-25 0 -21 17q2 8 6.5 12.5t9 8.5t9 9.5t6.5 14.5l38 179q2 9 0 14.5t-5.5 9t-6 8t-0.5 12.5q4 18 29 18h111q54 0 79 -24t17 -62q-6 -28 -27.5 -49t-54.5 -30zM282 471q22 0 36.5 13.5t15.5 38.5q1 26 -13.5 39t-33.5 13q-17 0 -22 -17l-12 -58q-2 -12 1.5 -20.5t14.5 -8.5
h13z" />
    <glyph glyph-name="macron" unicode="&#xaf;" horiz-adv-x="289" 
d="M251 712q30 0 26 -24l-5 -23q-6 -24 -37 -24h-195q-30 0 -26 24l5 23q6 24 36 24h196z" />
    <glyph glyph-name="degree" unicode="&#xb0;" horiz-adv-x="228" 
d="M189 703q43 0 64.5 -28t12.5 -71q-9 -44 -43 -72t-77 -28t-64.5 28t-12.5 72q10 43 43.5 71t76.5 28zM158 561q15 0 30.5 9.5t20.5 32.5q5 24 -6.5 33.5t-25.5 9.5q-15 0 -30.5 -9.5t-20.5 -33.5q-5 -23 6 -32.5t26 -9.5z" />
    <glyph glyph-name="plusminus" unicode="&#xb1;" horiz-adv-x="431" 
d="M256 252l-21 -102h129q32 0 26 -24l-6 -30q-6 -25 -36 -25h-338q-32 0 -26 25l6 30q6 24 37 24h129l22 102h-130q-30 0 -26 24l7 30q4 25 36 25h130l27 129q8 32 31 32h30q24 0 18 -32l-28 -129h130q30 0 26 -25l-7 -30q-4 -24 -36 -24h-130z" />
    <glyph glyph-name="twosuperior" unicode="&#xb2;" horiz-adv-x="309" 
d="M285 421q13 0 17 -8.5t-1 -21.5l-17 -41q-5 -13 -12 -21t-21 -8h-215q-27 0 -23 22q6 27 23.5 51.5t40.5 48t49.5 46t49.5 44.5t39.5 44t21.5 44q10 46 -21 46q-19 0 -31.5 -18.5t-25.5 -45.5q-13 -26 -43 -26q-20 0 -34 12.5t-9 34.5q3 12 14 27t29.5 28t44 22t57.5 9
q35 0 59.5 -9.5t39 -25.5t19.5 -37t0 -44q-7 -31 -24.5 -54.5t-41 -41t-50.5 -30.5t-51.5 -25t-44.5 -23.5t-30 -24.5h129q12 0 19 4t13 9t13 9t17 4z" />
    <glyph glyph-name="threesuperior" unicode="&#xb3;" horiz-adv-x="312" 
d="M202 550q29 0 52 -7t39 -20.5t22.5 -34t0.5 -47.5q-12 -55 -58 -89.5t-111 -34.5q-34 0 -58 9t-39 22t-21 28t-3 27q5 22 24 34.5t39 12.5q17 0 24 -7t8 -19q1 -14 2 -25.5t4 -20t9.5 -13.5t18.5 -5q15 0 30.5 17.5t19.5 60.5q3 42 -11.5 60t-41.5 18q-7 0 -11.5 4
t-2.5 14q2 11 9.5 18.5t24.5 20.5l78 58h-87q-12 0 -19.5 -4t-13.5 -8.5t-12.5 -8.5t-16.5 -4q-14 0 -18 8.5t1 20.5l17 41q5 13 12 21.5t21 8.5h202q29 0 23 -23q-3 -14 -15.5 -25t-31.5 -25l-113 -83h3z" />
    <glyph glyph-name="acute" unicode="&#xb4;" horiz-adv-x="202" 
d="M198 725q10 -15 -15 -34q-27 -18 -51 -33q-20 -14 -41 -27.5t-33 -21.5q-15 -10 -23 -10q-9 0 -13 8l-7 11q-5 9 -1 17t16 18q11 8 30.5 23.5t39.5 30.5q23 18 49 38q14 9 23 9q8 0 13 -8z" />
    <glyph glyph-name="periodcentered" unicode="&#xb7;" horiz-adv-x="192" 
d="M101 202q-35 0 -54 21t-11 59t35.5 58.5t62.5 20.5t53.5 -20.5t10.5 -58.5t-35 -59t-62 -21z" />
    <glyph glyph-name="cedilla" unicode="&#xb8;" horiz-adv-x="228" 
d="M114 -36q42 0 57.5 -26t6.5 -68q-4 -21 -15 -42.5t-28 -38t-40 -27t-51 -10.5q-29 0 -47.5 11t-27.5 21q-5 5 -3.5 12.5t7.5 12.5l8 7q6 6 13.5 6.5t12.5 -4.5q7 -8 18 -15.5t27 -7.5q18 0 34 23t19 57q3 33 -6 42.5t-18 9.5q-11 0 -19 -7.5t-14.5 -16.5t-14.5 -16.5
t-19 -7.5h-8q-24 0 -15 25l53 132q9 24 34 24h8q14 0 17 -6t-2 -18l-34 -86q9 6 21 10t26 4z" />
    <glyph glyph-name="onesuperior" unicode="&#xb9;" horiz-adv-x="188" 
d="M157 400q-3 -12 0 -18.5t6.5 -11.5t6.5 -10.5t1 -16.5q-3 -12 -12 -17t-23 -5h-97q-30 0 -25 22q2 11 7.5 16.5t11.5 10.5t11 11.5t8 18.5l43 203q3 12 0 17t-7.5 8.5t-8 7t-1.5 12.5q2 11 13 21t26.5 18.5t33 13.5t33.5 5q21 0 27.5 -9.5t2.5 -24.5z" />
    <glyph glyph-name="ordmasculine" unicode="&#xba;" horiz-adv-x="383" 
d="M267 710q39 0 68.5 -14t47 -39.5t22.5 -62t-4 -81.5q-10 -45 -30.5 -81t-49 -61.5t-64 -39.5t-74.5 -14t-68.5 14t-47 39.5t-22.5 61.5t4 81q10 45 30.5 81.5t49 62t64 39.5t74.5 14zM204 360q26 0 49 37t34 116q11 80 -2 117t-39 37t-49 -37t-34 -117q-11 -79 2 -116
t39 -37z" />
    <glyph glyph-name="guillemotright" unicode="&#xbb;" horiz-adv-x="495" 
d="M296 272q-5 -23 -40 -42l-236 -121q-16 -8 -23 -8q-10 0 -7 14l7 30q4 25 40 42l183 95l-143 94q-28 17 -22 42l6 30q3 14 13 14q7 0 20 -8l183 -121q27 -18 23 -42zM470 333q27 -18 23 -42l-4 -19q-6 -23 -41 -42l-235 -121q-16 -8 -23 -8q-10 0 -7 14l7 30q4 25 40 42
l183 95l-143 94q-28 17 -22 42l6 30q3 14 13 14q7 0 20 -8z" />
    <glyph glyph-name="questiondown" unicode="&#xbf;" horiz-adv-x="484" 
d="M291 411q-35 0 -54 21t-11 59t35.5 58.5t62.5 20.5t53.5 -20.5t10.5 -58.5t-35 -59t-62 -21zM147 -144q-52 0 -90 13t-60.5 37t-29.5 57t2 72q9 41 30 71t49 54t58 43.5t57 39.5t47 43t26 53q6 32 31 32h30q25 0 17 -32q-10 -47 -25 -79t-32 -56t-35.5 -43t-35 -39
t-29.5 -45t-21 -60q-8 -39 2.5 -61t33.5 -22q17 0 30 9t23 24.5t18.5 37t17.5 45.5q8 23 21.5 35t42.5 12q37 0 62 -22.5t17 -62.5q-5 -23 -25 -50t-53 -50.5t-78.5 -39.5t-100.5 -16z" />
    <glyph glyph-name="Agrave" unicode="&#xc0;" 
d="M366 882q17 -20 33 -38q13 -15 26 -30.5t21 -23.5q8 -10 8.5 -18t-8.5 -17l-12 -11q-8 -8 -16 -8q-9 0 -19 10q-8 8 -23 21.5t-30 27.5q-18 15 -37 33q-18 18 0 34l21 21q8 8 17 8q10 0 19 -9zM541 144q3 -22 9.5 -34.5t12.5 -22t9.5 -19.5t0.5 -27q-5 -20 -20.5 -30.5
t-35.5 -10.5h-164q-28 0 -39.5 9t-6.5 32q3 16 12.5 26t18.5 20.5t14.5 26.5t2.5 44l-10 79h-212l-42 -79q-15 -29 -16 -45t3.5 -26.5t9 -20t1.5 -25.5q-5 -23 -20 -32t-43 -9h-59q-20 0 -31 10.5t-7 30.5q4 17 12 27t18 19.5t22 22t23 34.5l219 412q11 21 9.5 33t-7 21.5
t-11 20t-1.5 28.5q5 20 20 30.5t35 10.5h162q25 0 34.5 -10.5t12.5 -30.5zM335 315l-31 244l-129 -244h160z" />
    <glyph glyph-name="Aacute" unicode="&#xc1;" 
d="M468 862q11 -15 -15 -34q-27 -18 -51 -33q-20 -14 -41 -27.5t-33 -21.5q-15 -10 -23 -10t-13 8l-6 11q-6 9 -1.5 17t16.5 18q11 8 30.5 23.5t39.5 30.5q23 18 49 38q14 9 22 9q9 0 13 -8zM541 144q3 -22 9.5 -34.5t12.5 -22t9.5 -19.5t0.5 -27q-5 -20 -20.5 -30.5
t-35.5 -10.5h-164q-28 0 -39.5 9t-6.5 32q3 16 12.5 26t18.5 20.5t14.5 26.5t2.5 44l-10 79h-212l-42 -79q-15 -29 -16 -45t3.5 -26.5t9 -20t1.5 -25.5q-5 -23 -20 -32t-43 -9h-59q-20 0 -31 10.5t-7 30.5q4 17 12 27t18 19.5t22 22t23 34.5l219 412q11 21 9.5 33t-7 21.5
t-11 20t-1.5 28.5q5 20 20 30.5t35 10.5h162q25 0 34.5 -10.5t12.5 -30.5zM335 315l-31 244l-129 -244h160z" />
    <glyph glyph-name="Acircumflex" unicode="&#xc2;" 
d="M491 783q6 -10 6 -17.5t-10 -15.5l-11 -8q-7 -6 -14 -6q-9 0 -17 11q-5 5 -14 16.5t-19 23.5q-11 13 -24 29q-19 -16 -36 -29q-14 -12 -28.5 -23.5t-21.5 -16.5q-13 -11 -22 -11q-6 0 -11 6l-8 8q-6 8 -3 15.5t13 17.5l102 95q9 8 16 11t15 3t14 -3t12 -11zM541 144
q3 -22 9.5 -34.5t12.5 -22t9.5 -19.5t0.5 -27q-5 -20 -20.5 -30.5t-35.5 -10.5h-164q-28 0 -39.5 9t-6.5 32q3 16 12.5 26t18.5 20.5t14.5 26.5t2.5 44l-10 79h-212l-42 -79q-15 -29 -16 -45t3.5 -26.5t9 -20t1.5 -25.5q-5 -23 -20 -32t-43 -9h-59q-20 0 -31 10.5t-7 30.5
q4 17 12 27t18 19.5t22 22t23 34.5l219 412q11 21 9.5 33t-7 21.5t-11 20t-1.5 28.5q5 20 20 30.5t35 10.5h162q25 0 34.5 -10.5t12.5 -30.5zM335 315l-31 244l-129 -244h160z" />
    <glyph glyph-name="Atilde" unicode="&#xc3;" 
d="M510 856q13 -4 8 -17q-13 -32 -34.5 -51.5t-47.5 -19.5q-12 0 -24 4.5t-24 10t-23 10t-20 4.5q-8 0 -16.5 -4.5t-15.5 -14.5q-6 -10 -17 -8l-12 2q-5 1 -7.5 6t-0.5 10q13 32 34.5 51.5t47.5 19.5q12 0 24.5 -4.5t24 -9.5t22.5 -9.5t20 -4.5q8 0 16.5 4t15.5 14t17 8z
M541 144q3 -22 9.5 -34.5t12.5 -22t9.5 -19.5t0.5 -27q-5 -20 -20.5 -30.5t-35.5 -10.5h-164q-28 0 -39.5 9t-6.5 32q3 16 12.5 26t18.5 20.5t14.5 26.5t2.5 44l-10 79h-212l-42 -79q-15 -29 -16 -45t3.5 -26.5t9 -20t1.5 -25.5q-5 -23 -20 -32t-43 -9h-59q-20 0 -31 10.5
t-7 30.5q4 17 12 27t18 19.5t22 22t23 34.5l219 412q11 21 9.5 33t-7 21.5t-11 20t-1.5 28.5q5 20 20 30.5t35 10.5h162q25 0 34.5 -10.5t12.5 -30.5zM335 315l-31 244l-129 -244h160z" />
    <glyph glyph-name="Adieresis" unicode="&#xc4;" 
d="M309 877q29 0 43.5 -16.5t8.5 -46.5q-7 -31 -28.5 -47.5t-50.5 -16.5q-28 0 -42.5 16.5t-8.5 47.5q7 30 28.5 46.5t49.5 16.5zM472 877q28 0 42.5 -16.5t8.5 -46.5q-7 -31 -28.5 -47.5t-49.5 -16.5q-29 0 -43.5 16.5t-7.5 47.5q6 30 27.5 46.5t50.5 16.5zM541 144
q3 -22 9.5 -34.5t12.5 -22t9.5 -19.5t0.5 -27q-5 -20 -20.5 -30.5t-35.5 -10.5h-164q-28 0 -39.5 9t-6.5 32q3 16 12.5 26t18.5 20.5t14.5 26.5t2.5 44l-10 79h-212l-42 -79q-15 -29 -16 -45t3.5 -26.5t9 -20t1.5 -25.5q-5 -23 -20 -32t-43 -9h-59q-20 0 -31 10.5t-7 30.5
q4 17 12 27t18 19.5t22 22t23 34.5l219 412q11 21 9.5 33t-7 21.5t-11 20t-1.5 28.5q5 20 20 30.5t35 10.5h162q25 0 34.5 -10.5t12.5 -30.5zM335 315l-31 244l-129 -244h160z" />
    <glyph glyph-name="Aring" unicode="&#xc5;" 
d="M541 144q3 -22 9.5 -34.5t12.5 -22t9.5 -19.5t0.5 -27q-5 -20 -20.5 -30.5t-35.5 -10.5h-164q-28 0 -39.5 9t-6.5 32q3 16 12.5 26t18.5 20.5t14.5 26.5t2.5 44l-10 79h-212l-42 -79q-15 -29 -16 -45t3.5 -26.5t9 -20t1.5 -25.5q-5 -23 -20 -32t-43 -9h-59
q-20 0 -31 10.5t-7 30.5q4 17 12 27t18 19.5t22 22t23 34.5l219 412q11 21 9.5 33t-7 21.5t-11 20t-1.5 28.5q5 20 20 30.5t35 10.5h73q-36 5 -54 30t-8 70q10 48 43 74t76 26q44 0 66 -26t11 -74q-9 -45 -37.5 -70t-66.5 -30h59q25 0 34.5 -10.5t12.5 -30.5zM362 731
q29 0 52 18t30 51q8 33 -7.5 50.5t-44.5 17.5t-52 -17.5t-30 -50.5t8 -51t44 -18zM335 315l-31 244l-129 -244h160z" />
    <glyph glyph-name="AE" unicode="&#xc6;" horiz-adv-x="853" 
d="M759 147q23 0 27.5 -14t-4.5 -37l-17 -45q-9 -23 -23.5 -37t-42.5 -14h-382q-25 0 -37.5 9.5t-7.5 31.5q4 19 13.5 29.5t20 19.5t20.5 20.5t15 33.5l22 105h-187l-71 -91q-23 -29 -27 -45t-1 -26.5t8.5 -20t2.5 -25.5q-5 -23 -20 -32t-43 -9h-57q-20 0 -31.5 10.5
t-6.5 30.5q3 16 11 25.5t20 19.5t26.5 23t31.5 35l319 412q17 22 20 34.5t0.5 22.5t-6 20t-0.5 26q5 20 20.5 30.5t35.5 10.5h443q25 0 37.5 -9.5t7.5 -31.5l-6 -30q-5 -25 -17.5 -39.5t-35.5 -14.5q-19 0 -27.5 7.5t-15.5 16t-17 16t-32 7.5h-96q-12 0 -22.5 -10.5
t-14.5 -30.5l-39 -185h88q22 0 35 7.5t24 16t23 16t31 7.5q22 0 28 -14.5t1 -39.5l-13 -64q-5 -25 -18 -39.5t-35 -14.5q-19 0 -27.5 7.5t-15.5 16t-17.5 16t-32.5 7.5h-88l-37 -174q-6 -27 2 -46.5t30 -19.5h65q27 0 44.5 11t32 23.5t29.5 23.5t37 11zM433 579l-196 -252
h143z" />
    <glyph glyph-name="Ccedilla" unicode="&#xc7;" horiz-adv-x="566" 
d="M224 -7h-11l-17 -43q10 6 22 10t26 4q42 0 57 -26t7 -68q-5 -21 -16 -42.5t-28 -38t-40 -27t-51 -10.5q-29 0 -47 11t-27 21q-5 5 -3.5 12.5t7.5 12.5l8 7q6 6 13.5 6.5t11.5 -4.5q7 -8 18 -15.5t28 -7.5t33.5 23t18.5 57q3 33 -5.5 42.5t-18.5 9.5q-11 0 -18.5 -7.5
t-14.5 -16.5t-14.5 -16.5t-18.5 -7.5h-9q-23 0 -14 25l38 96q-49 12 -85 42t-56.5 75t-24.5 104t11 129q18 81 56.5 147t91 112.5t115.5 72t129 25.5q55 0 94 -17t63 -42.5t33 -55.5t4 -55q-4 -20 -15.5 -35.5t-27.5 -26.5t-35 -17t-37 -6q-29 0 -37 12t-7 35q2 60 -12.5 95
t-52.5 35q-24 0 -49 -16t-47 -45t-40 -70t-29 -92q-17 -80 -13.5 -135t21 -89.5t47 -50t63.5 -15.5q46 0 75 16t48 35t32 35t27 16q20 0 15 -23q-7 -32 -30 -67.5t-60 -65.5t-88 -49.5t-114 -19.5z" />
    <glyph glyph-name="Egrave" unicode="&#xc8;" horiz-adv-x="535" 
d="M356 882q17 -20 33 -38q14 -15 27 -30.5t20 -23.5q8 -10 9 -18t-9 -17l-11 -11q-8 -8 -16 -8q-9 0 -19 10q-8 8 -23.5 21.5t-30.5 27.5q-18 15 -37 33q-17 18 0 34l22 21q8 8 16 8q10 0 19 -9zM-46 41q4 19 13.5 29.5t20.5 19.5t21 20.5t14 33.5l88 412q5 22 0 33.5
t-12 20.5t-12 19.5t-1 29.5q5 22 21.5 31.5t41.5 9.5h384q25 0 38 -9.5t8 -31.5l-7 -30q-5 -25 -17.5 -39.5t-34.5 -14.5q-19 0 -28 7.5t-16 16t-17 16t-32 7.5h-96q-11 0 -21.5 -10.5t-15.5 -30.5l-39 -185h89q22 0 35 7.5t24 16t22.5 16t30.5 7.5q23 0 29 -14.5t1 -39.5
l-14 -64q-5 -25 -17.5 -39.5t-34.5 -14.5q-19 0 -28 7.5t-16 16t-17 16t-32 7.5h-89l-37 -174q-5 -27 2.5 -46.5t30.5 -19.5h64q27 0 44.5 11t32 23.5t29.5 23.5t37 11q23 0 27.5 -14t-4.5 -37l-16 -45q-10 -23 -24.5 -37t-41.5 -14h-382q-25 0 -38 9.5t-8 31.5z" />
    <glyph glyph-name="Eacute" unicode="&#xc9;" horiz-adv-x="535" 
d="M459 862q10 -15 -15 -34q-27 -18 -51 -33q-20 -14 -41 -27.5t-33 -21.5q-15 -10 -23 -10q-9 0 -13 8l-7 11q-5 9 -1 17t16 18q11 8 30.5 23.5t39.5 30.5q23 18 49 38q14 9 23 9q8 0 13 -8zM-46 41q4 19 13.5 29.5t20.5 19.5t21 20.5t14 33.5l88 412q5 22 0 33.5t-12 20.5
t-12 19.5t-1 29.5q5 22 21.5 31.5t41.5 9.5h384q25 0 38 -9.5t8 -31.5l-7 -30q-5 -25 -17.5 -39.5t-34.5 -14.5q-19 0 -28 7.5t-16 16t-17 16t-32 7.5h-96q-11 0 -21.5 -10.5t-15.5 -30.5l-39 -185h89q22 0 35 7.5t24 16t22.5 16t30.5 7.5q23 0 29 -14.5t1 -39.5l-14 -64
q-5 -25 -17.5 -39.5t-34.5 -14.5q-19 0 -28 7.5t-16 16t-17 16t-32 7.5h-89l-37 -174q-5 -27 2.5 -46.5t30.5 -19.5h64q27 0 44.5 11t32 23.5t29.5 23.5t37 11q23 0 27.5 -14t-4.5 -37l-16 -45q-10 -23 -24.5 -37t-41.5 -14h-382q-25 0 -38 9.5t-8 31.5z" />
    <glyph glyph-name="Ecircumflex" unicode="&#xca;" horiz-adv-x="535" 
d="M482 783q6 -10 5.5 -17.5t-9.5 -15.5l-12 -8q-7 -6 -14 -6q-8 0 -17 11q-5 5 -14 16.5t-18 23.5q-11 13 -24 29q-19 -16 -36 -29q-14 -12 -28.5 -23.5t-21.5 -16.5q-14 -11 -22 -11q-6 0 -12 6l-7 8q-12 13 10 33l101 95q10 8 17 11t15 3t14 -3t12 -11zM-46 41
q4 19 13.5 29.5t20.5 19.5t21 20.5t14 33.5l88 412q5 22 0 33.5t-12 20.5t-12 19.5t-1 29.5q5 22 21.5 31.5t41.5 9.5h384q25 0 38 -9.5t8 -31.5l-7 -30q-5 -25 -17.5 -39.5t-34.5 -14.5q-19 0 -28 7.5t-16 16t-17 16t-32 7.5h-96q-11 0 -21.5 -10.5t-15.5 -30.5l-39 -185
h89q22 0 35 7.5t24 16t22.5 16t30.5 7.5q23 0 29 -14.5t1 -39.5l-14 -64q-5 -25 -17.5 -39.5t-34.5 -14.5q-19 0 -28 7.5t-16 16t-17 16t-32 7.5h-89l-37 -174q-5 -27 2.5 -46.5t30.5 -19.5h64q27 0 44.5 11t32 23.5t29.5 23.5t37 11q23 0 27.5 -14t-4.5 -37l-16 -45
q-10 -23 -24.5 -37t-41.5 -14h-382q-25 0 -38 9.5t-8 31.5z" />
    <glyph glyph-name="Edieresis" unicode="&#xcb;" horiz-adv-x="535" 
d="M300 877q28 0 43 -16.5t8 -46.5q-7 -31 -28.5 -47.5t-49.5 -16.5t-43 16.5t-8 47.5q6 30 27.5 46.5t50.5 16.5zM462 877q29 0 43.5 -16.5t7.5 -46.5q-6 -31 -27.5 -47.5t-50.5 -16.5q-28 0 -42.5 16.5t-8.5 47.5q7 30 28.5 46.5t49.5 16.5zM-46 41q4 19 13.5 29.5
t20.5 19.5t21 20.5t14 33.5l88 412q5 22 0 33.5t-12 20.5t-12 19.5t-1 29.5q5 22 21.5 31.5t41.5 9.5h384q25 0 38 -9.5t8 -31.5l-7 -30q-5 -25 -17.5 -39.5t-34.5 -14.5q-19 0 -28 7.5t-16 16t-17 16t-32 7.5h-96q-11 0 -21.5 -10.5t-15.5 -30.5l-39 -185h89q22 0 35 7.5
t24 16t22.5 16t30.5 7.5q23 0 29 -14.5t1 -39.5l-14 -64q-5 -25 -17.5 -39.5t-34.5 -14.5q-19 0 -28 7.5t-16 16t-17 16t-32 7.5h-89l-37 -174q-5 -27 2.5 -46.5t30.5 -19.5h64q27 0 44.5 11t32 23.5t29.5 23.5t37 11q23 0 27.5 -14t-4.5 -37l-16 -45q-10 -23 -24.5 -37
t-41.5 -14h-382q-25 0 -38 9.5t-8 31.5z" />
    <glyph glyph-name="Igrave" unicode="&#xcc;" horiz-adv-x="313" 
d="M245 882q17 -20 33 -38q14 -15 27 -30.5t20 -23.5q8 -10 9 -18t-9 -17l-11 -11q-8 -8 -16 -8q-9 0 -19 10q-8 8 -23.5 21.5t-30.5 27.5q-18 15 -37 33q-17 18 0 34l22 21q8 8 16 8q10 0 19 -9zM358 659q-4 -19 -13.5 -29t-20.5 -19.5t-20.5 -21t-14.5 -33.5l-88 -412
q-4 -22 0.5 -33.5t11.5 -20.5t12.5 -19.5t1.5 -29.5q-5 -22 -21.5 -31.5t-41.5 -9.5h-164q-25 0 -38 9.5t-8 31.5q4 19 13.5 29.5t20.5 19.5t21 20.5t14 33.5l88 412q5 22 0 33.5t-12 20.5t-12 19.5t-1 29.5q5 22 21.5 31.5t41.5 9.5h163q26 0 38.5 -9.5t7.5 -31.5z" />
    <glyph glyph-name="Iacute" unicode="&#xcd;" horiz-adv-x="313" 
d="M348 862q10 -15 -15 -34q-27 -18 -51 -33q-20 -14 -41 -27.5t-33 -21.5q-15 -10 -23 -10q-9 0 -13 8l-7 11q-5 9 -1 17t16 18q11 8 30.5 23.5t39.5 30.5q23 18 49 38q14 9 23 9q8 0 13 -8zM358 659q-4 -19 -13.5 -29t-20.5 -19.5t-20.5 -21t-14.5 -33.5l-88 -412
q-4 -22 0.5 -33.5t11.5 -20.5t12.5 -19.5t1.5 -29.5q-5 -22 -21.5 -31.5t-41.5 -9.5h-164q-25 0 -38 9.5t-8 31.5q4 19 13.5 29.5t20.5 19.5t21 20.5t14 33.5l88 412q5 22 0 33.5t-12 20.5t-12 19.5t-1 29.5q5 22 21.5 31.5t41.5 9.5h163q26 0 38.5 -9.5t7.5 -31.5z" />
    <glyph glyph-name="Icircumflex" unicode="&#xce;" horiz-adv-x="313" 
d="M371 783q6 -10 5.5 -17.5t-9.5 -15.5l-12 -8q-7 -6 -14 -6q-8 0 -17 11q-5 5 -14 16.5t-18 23.5q-11 13 -24 29q-19 -16 -36 -29q-14 -12 -28.5 -23.5t-21.5 -16.5q-14 -11 -22 -11q-6 0 -12 6l-7 8q-12 13 10 33l101 95q10 8 17 11t15 3t14 -3t12 -11zM358 659
q-4 -19 -13.5 -29t-20.5 -19.5t-20.5 -21t-14.5 -33.5l-88 -412q-4 -22 0.5 -33.5t11.5 -20.5t12.5 -19.5t1.5 -29.5q-5 -22 -21.5 -31.5t-41.5 -9.5h-164q-25 0 -38 9.5t-8 31.5q4 19 13.5 29.5t20.5 19.5t21 20.5t14 33.5l88 412q5 22 0 33.5t-12 20.5t-12 19.5t-1 29.5
q5 22 21.5 31.5t41.5 9.5h163q26 0 38.5 -9.5t7.5 -31.5z" />
    <glyph glyph-name="Idieresis" unicode="&#xcf;" horiz-adv-x="313" 
d="M189 877q28 0 43 -16.5t8 -46.5q-7 -31 -28.5 -47.5t-49.5 -16.5t-43 16.5t-8 47.5q6 30 27.5 46.5t50.5 16.5zM351 877q29 0 43.5 -16.5t7.5 -46.5q-6 -31 -27.5 -47.5t-50.5 -16.5q-28 0 -42.5 16.5t-8.5 47.5q7 30 28.5 46.5t49.5 16.5zM358 659q-4 -19 -13.5 -29
t-20.5 -19.5t-20.5 -21t-14.5 -33.5l-88 -412q-4 -22 0.5 -33.5t11.5 -20.5t12.5 -19.5t1.5 -29.5q-5 -22 -21.5 -31.5t-41.5 -9.5h-164q-25 0 -38 9.5t-8 31.5q4 19 13.5 29.5t20.5 19.5t21 20.5t14 33.5l88 412q5 22 0 33.5t-12 20.5t-12 19.5t-1 29.5q5 22 21.5 31.5
t41.5 9.5h163q26 0 38.5 -9.5t7.5 -31.5z" />
    <glyph glyph-name="Eth" unicode="&#xd0;" horiz-adv-x="643" 
d="M-46 41q4 19 13.5 29.5t20.5 19.5t21 20.5t14 33.5l32 148h-15q-32 0 -26 25l6 30q6 24 37 24h14l40 185q5 22 0 33.5t-12 20.5t-12 19.5t-1 29.5q5 22 21.5 31.5t41.5 9.5h231q74 0 130 -24.5t90 -70.5t44 -110.5t-7 -144.5t-54 -144.5t-90.5 -110.5t-120 -70.5
t-141.5 -24.5h-231q-25 0 -38 9.5t-8 31.5zM444 350q9 70 1.5 121.5t-24.5 85t-42.5 49.5t-52.5 16q-12 0 -22.5 -10.5t-14.5 -30.5l-43 -210h6q32 0 26 -25l-6 -29q-6 -25 -37 -25h-5l-30 -148q-6 -27 2 -46.5t30 -19.5h25q31 0 61 16t55 49.5t43.5 85t27.5 121.5z" />
    <glyph glyph-name="Ntilde" unicode="&#xd1;" horiz-adv-x="644" 
d="M555 856q13 -4 8 -17q-13 -32 -34.5 -51.5t-47.5 -19.5q-12 0 -24 4.5t-24 10t-23 10t-20 4.5q-8 0 -16.5 -4.5t-15.5 -14.5q-6 -10 -17 -8l-12 2q-5 1 -7.5 6t-0.5 10q13 32 34.5 51.5t47.5 19.5q12 0 24.5 -4.5t24 -9.5t22.5 -9.5t20 -4.5q8 0 16.5 4t15.5 14t17 8z
M690 659q-4 -19 -13.5 -29t-20.5 -19.5t-20.5 -21t-14.5 -33.5l-88 -412q-4 -22 0.5 -33.5t11.5 -20.5t12 -19.5t1 -29.5q-5 -22 -21 -31.5t-42 -9.5h-129q-25 0 -33 10.5t-14 30.5l-141 452l-74 -349q-5 -22 0 -33.5t11.5 -20.5t12 -19.5t1.5 -29.5q-5 -22 -21.5 -31.5
t-41.5 -9.5h-66q-25 0 -38 9.5t-8 31.5q4 19 13.5 29.5t20.5 19.5t21 20.5t14 33.5l88 412q5 22 0 33.5t-12 20.5t-12 19.5t-1 29.5q5 22 21 31.5t42 9.5h128q25 0 33.5 -10.5t14.5 -30.5l141 -453l74 350q5 22 0 33.5t-11.5 20.5t-12 19.5t-1.5 29.5q5 22 21.5 31.5
t41.5 9.5h66q25 0 38 -9.5t8 -31.5z" />
    <glyph glyph-name="Ograve" unicode="&#xd2;" horiz-adv-x="645" 
d="M431 882q17 -20 33 -38q14 -15 27 -30.5t20 -23.5q8 -10 9 -18t-9 -17l-11 -11q-8 -8 -16 -8q-9 0 -19 10q-8 8 -23.5 21.5t-30.5 27.5q-18 15 -37 33q-17 18 0 34l22 21q8 8 16 8q10 0 19 -9zM4 350q17 81 53 147t87 112.5t115.5 72t137.5 25.5q74 0 127.5 -25.5
t84.5 -72t39 -112.5t-10 -147q-17 -81 -53 -147t-87 -112.5t-115 -72t-138 -25.5q-73 0 -126.5 25.5t-84.5 72t-39 112.5t9 147zM445 350q9 72 6.5 124.5t-15 87t-33 51t-46.5 16.5q-25 0 -50 -16.5t-46 -51t-37.5 -87t-25.5 -124.5t-6.5 -124.5t15 -87t33 -51t46.5 -16.5
t50.5 16.5t45.5 51t37.5 87t25.5 124.5z" />
    <glyph glyph-name="Oacute" unicode="&#xd3;" horiz-adv-x="645" 
d="M534 862q10 -15 -15 -34q-27 -18 -51 -33q-20 -14 -41 -27.5t-33 -21.5q-15 -10 -23 -10q-9 0 -13 8l-7 11q-5 9 -1 17t16 18q11 8 30.5 23.5t39.5 30.5q23 18 49 38q14 9 23 9q8 0 13 -8zM4 350q17 81 53 147t87 112.5t115.5 72t137.5 25.5q74 0 127.5 -25.5t84.5 -72
t39 -112.5t-10 -147q-17 -81 -53 -147t-87 -112.5t-115 -72t-138 -25.5q-73 0 -126.5 25.5t-84.5 72t-39 112.5t9 147zM445 350q9 72 6.5 124.5t-15 87t-33 51t-46.5 16.5q-25 0 -50 -16.5t-46 -51t-37.5 -87t-25.5 -124.5t-6.5 -124.5t15 -87t33 -51t46.5 -16.5t50.5 16.5
t45.5 51t37.5 87t25.5 124.5z" />
    <glyph glyph-name="Ocircumflex" unicode="&#xd4;" horiz-adv-x="645" 
d="M557 783q6 -10 5.5 -17.5t-9.5 -15.5l-12 -8q-7 -6 -14 -6q-8 0 -17 11q-5 5 -14 16.5t-18 23.5q-11 13 -24 29q-19 -16 -36 -29q-14 -12 -28.5 -23.5t-21.5 -16.5q-14 -11 -22 -11q-6 0 -12 6l-7 8q-12 13 10 33l101 95q10 8 17 11t15 3t14 -3t12 -11zM4 350
q17 81 53 147t87 112.5t115.5 72t137.5 25.5q74 0 127.5 -25.5t84.5 -72t39 -112.5t-10 -147q-17 -81 -53 -147t-87 -112.5t-115 -72t-138 -25.5q-73 0 -126.5 25.5t-84.5 72t-39 112.5t9 147zM445 350q9 72 6.5 124.5t-15 87t-33 51t-46.5 16.5q-25 0 -50 -16.5t-46 -51
t-37.5 -87t-25.5 -124.5t-6.5 -124.5t15 -87t33 -51t46.5 -16.5t50.5 16.5t45.5 51t37.5 87t25.5 124.5z" />
    <glyph glyph-name="Otilde" unicode="&#xd5;" horiz-adv-x="645" 
d="M555 856q14 -4 9 -17q-14 -32 -35 -51.5t-48 -19.5q-12 0 -24 4.5t-23.5 10t-22.5 10t-20 4.5q-8 0 -16.5 -4.5t-16.5 -14.5q-5 -10 -16 -8l-12 2q-6 1 -8.5 6t0.5 10q13 32 34 51.5t48 19.5q12 0 24 -4.5t24 -9.5t23 -9.5t20 -4.5q8 0 16.5 4t15.5 14q6 10 16 8zM4 350
q17 81 53 147t87 112.5t115.5 72t137.5 25.5q74 0 127.5 -25.5t84.5 -72t39 -112.5t-10 -147q-17 -81 -53 -147t-87 -112.5t-115 -72t-138 -25.5q-73 0 -126.5 25.5t-84.5 72t-39 112.5t9 147zM445 350q9 72 6.5 124.5t-15 87t-33 51t-46.5 16.5q-25 0 -50 -16.5t-46 -51
t-37.5 -87t-25.5 -124.5t-6.5 -124.5t15 -87t33 -51t46.5 -16.5t50.5 16.5t45.5 51t37.5 87t25.5 124.5z" />
    <glyph glyph-name="Odieresis" unicode="&#xd6;" horiz-adv-x="645" 
d="M375 877q28 0 43 -16.5t8 -46.5q-7 -31 -28.5 -47.5t-49.5 -16.5t-43 16.5t-8 47.5q6 30 27.5 46.5t50.5 16.5zM537 877q29 0 43.5 -16.5t7.5 -46.5q-6 -31 -27.5 -47.5t-50.5 -16.5q-28 0 -43 16.5t-8 47.5q7 30 28.5 46.5t49.5 16.5zM4 350q17 81 53 147t87 112.5
t115.5 72t137.5 25.5q74 0 127.5 -25.5t84.5 -72t39 -112.5t-10 -147q-17 -81 -53 -147t-87 -112.5t-115 -72t-138 -25.5q-73 0 -126.5 25.5t-84.5 72t-39 112.5t9 147zM445 350q9 72 6.5 124.5t-15 87t-33 51t-46.5 16.5q-25 0 -50 -16.5t-46 -51t-37.5 -87t-25.5 -124.5
t-6.5 -124.5t15 -87t33 -51t46.5 -16.5t50.5 16.5t45.5 51t37.5 87t25.5 124.5z" />
    <glyph glyph-name="multiply" unicode="&#xd7;" horiz-adv-x="351" 
d="M368 412q8 -9 4 -18.5t-17 -20.5l-111 -91l72 -92q16 -22 -3 -39l-26 -22q-8 -7 -18 -7q-11 0 -20 12l-72 92l-112 -92q-15 -12 -26 -12q-8 0 -14 7l-17 22q-13 17 14 39l111 92l-72 91q-18 22 3 39l26 22q8 7 18 7q11 0 20 -12l72 -92l111 92q15 12 27 12q8 0 14 -7z
" />
    <glyph glyph-name="Oslash" unicode="&#xd8;" horiz-adv-x="655" 
d="M544 671q69 -42 93 -124t0 -197q-17 -81 -53 -147t-87 -112.5t-115 -72t-138 -25.5q-48 0 -85 10l-25 -43q-17 -31 -42 -31h-30q-25 0 -6 31l40 70q-69 41 -93 123t0 197q17 81 53 147t87 112.5t115.5 72t137.5 25.5q48 0 85 -10l25 43q17 31 42 31h30q25 0 6 -31z
M196 350q-6 -47 -6.5 -85t2.5 -68l228 394q-12 20 -28.5 29t-35.5 9q-52 0 -96.5 -67.5t-63.5 -211.5zM284 71q52 0 96.5 67.5t63.5 211.5q6 47 6.5 85t-2.5 68l-228 -394q25 -38 64 -38z" />
    <glyph glyph-name="Ugrave" unicode="&#xd9;" horiz-adv-x="649" 
d="M433 882q17 -20 33 -38q14 -15 27 -30.5t20 -23.5q8 -10 9 -18t-9 -17l-11 -11q-8 -8 -16 -8q-9 0 -19 10q-8 8 -23.5 21.5t-30.5 27.5q-18 15 -37 33q-17 18 0 34l22 21q8 8 16 8q10 0 19 -9zM654 700q25 0 37.5 -9.5t7.5 -31.5q-4 -19 -13.5 -29t-20 -19.5t-20 -21
t-14.5 -33.5l-75 -350q-10 -48 -36 -87.5t-65 -67t-89 -43t-108 -15.5q-62 0 -109 15t-76.5 43t-40.5 67t-1 88l75 350q5 22 0 33.5t-12 20.5t-12 19.5t-1 29.5q5 22 21 31.5t42 9.5h163q25 0 38 -9.5t8 -31.5q-4 -19 -13.5 -29.5t-20.5 -19.5t-20.5 -20.5t-14.5 -33.5
l-70 -329q-6 -30 -3 -55.5t16 -44.5t36.5 -30t57.5 -11q33 0 59.5 10.5t47 29t33.5 43t19 51.5l71 336q5 22 0 33.5t-12 20.5t-12 19.5t-1 29.5q5 22 21.5 31.5t41.5 9.5h65z" />
    <glyph glyph-name="Uacute" unicode="&#xda;" horiz-adv-x="649" 
d="M536 862q10 -15 -15 -34q-27 -18 -51 -33q-20 -14 -41 -27.5t-33 -21.5q-15 -10 -23 -10q-9 0 -13 8l-7 11q-5 9 -1 17t16 18q11 8 30.5 23.5t39.5 30.5q23 18 49 38q14 9 23 9q8 0 13 -8zM654 700q25 0 37.5 -9.5t7.5 -31.5q-4 -19 -13.5 -29t-20 -19.5t-20 -21
t-14.5 -33.5l-75 -350q-10 -48 -36 -87.5t-65 -67t-89 -43t-108 -15.5q-62 0 -109 15t-76.5 43t-40.5 67t-1 88l75 350q5 22 0 33.5t-12 20.5t-12 19.5t-1 29.5q5 22 21 31.5t42 9.5h163q25 0 38 -9.5t8 -31.5q-4 -19 -13.5 -29.5t-20.5 -19.5t-20.5 -20.5t-14.5 -33.5
l-70 -329q-6 -30 -3 -55.5t16 -44.5t36.5 -30t57.5 -11q33 0 59.5 10.5t47 29t33.5 43t19 51.5l71 336q5 22 0 33.5t-12 20.5t-12 19.5t-1 29.5q5 22 21.5 31.5t41.5 9.5h65z" />
    <glyph glyph-name="Ucircumflex" unicode="&#xdb;" horiz-adv-x="649" 
d="M559 783q6 -10 5.5 -17.5t-9.5 -15.5l-12 -8q-7 -6 -14 -6q-8 0 -17 11q-5 5 -14 16.5t-18 23.5q-11 13 -24 29q-19 -16 -36 -29q-14 -12 -28.5 -23.5t-21.5 -16.5q-14 -11 -22 -11q-6 0 -12 6l-7 8q-12 13 10 33l101 95q10 8 17 11t15 3t14 -3t12 -11zM654 700
q25 0 37.5 -9.5t7.5 -31.5q-4 -19 -13.5 -29t-20 -19.5t-20 -21t-14.5 -33.5l-75 -350q-10 -48 -36 -87.5t-65 -67t-89 -43t-108 -15.5q-62 0 -109 15t-76.5 43t-40.5 67t-1 88l75 350q5 22 0 33.5t-12 20.5t-12 19.5t-1 29.5q5 22 21 31.5t42 9.5h163q25 0 38 -9.5t8 -31.5
q-4 -19 -13.5 -29.5t-20.5 -19.5t-20.5 -20.5t-14.5 -33.5l-70 -329q-6 -30 -3 -55.5t16 -44.5t36.5 -30t57.5 -11q33 0 59.5 10.5t47 29t33.5 43t19 51.5l71 336q5 22 0 33.5t-12 20.5t-12 19.5t-1 29.5q5 22 21.5 31.5t41.5 9.5h65z" />
    <glyph glyph-name="Udieresis" unicode="&#xdc;" horiz-adv-x="649" 
d="M377 877q28 0 43 -16.5t8 -46.5q-7 -31 -28.5 -47.5t-49.5 -16.5t-43 16.5t-8 47.5q6 30 27.5 46.5t50.5 16.5zM539 877q29 0 43.5 -16.5t7.5 -46.5q-6 -31 -27.5 -47.5t-50.5 -16.5q-28 0 -43 16.5t-8 47.5q7 30 28.5 46.5t49.5 16.5zM654 700q25 0 37.5 -9.5t7.5 -31.5
q-4 -19 -13.5 -29t-20 -19.5t-20 -21t-14.5 -33.5l-75 -350q-10 -48 -36 -87.5t-65 -67t-89 -43t-108 -15.5q-62 0 -109 15t-76.5 43t-40.5 67t-1 88l75 350q5 22 0 33.5t-12 20.5t-12 19.5t-1 29.5q5 22 21 31.5t42 9.5h163q25 0 38 -9.5t8 -31.5q-4 -19 -13.5 -29.5
t-20.5 -19.5t-20.5 -20.5t-14.5 -33.5l-70 -329q-6 -30 -3 -55.5t16 -44.5t36.5 -30t57.5 -11q33 0 59.5 10.5t47 29t33.5 43t19 51.5l71 336q5 22 0 33.5t-12 20.5t-12 19.5t-1 29.5q5 22 21.5 31.5t41.5 9.5h65z" />
    <glyph glyph-name="Yacute" unicode="&#xdd;" horiz-adv-x="596" 
d="M509 862q11 -15 -15 -34q-27 -18 -51 -33q-20 -14 -41 -27.5t-33 -21.5q-15 -10 -23 -10t-13 8l-6 11q-6 9 -1.5 17t16.5 18q11 8 30.5 23.5t39.5 30.5q23 18 49 38q14 9 22 9q9 0 13 -8zM628 700q20 0 31.5 -10.5t6.5 -30.5q-3 -15 -11 -25t-19.5 -20t-26.5 -23t-32 -35
l-191 -244l-36 -168q-4 -22 0.5 -33.5t11.5 -20.5t12 -19.5t1 -29.5q-5 -22 -21.5 -31.5t-41.5 -9.5h-163q-26 0 -38.5 9.5t-7.5 31.5q4 19 13.5 29.5t20.5 19.5t21 20.5t14 33.5l33 156l-99 256q-7 20 -16.5 32.5t-17 22.5t-11.5 21t0 27q4 20 19.5 30.5t35.5 10.5h184
q28 0 39.5 -9t6.5 -32q-3 -16 -12.5 -27t-17.5 -22.5t-10.5 -26.5t7.5 -41l54 -136l106 136q23 29 27 45t0.5 26.5t-9 20t-2.5 25.5q5 23 20.5 32t43.5 9h75z" />
    <glyph glyph-name="Thorn" unicode="&#xde;" horiz-adv-x="630" 
d="M371 622q68 0 120.5 -19.5t85.5 -55t44.5 -85.5t-1.5 -112t-45.5 -112t-80 -85.5t-108 -55t-130.5 -19.5h-68l-8 -37q-5 -22 -21.5 -31.5t-41.5 -9.5h-124q-46 3 -38 41q4 19 13.5 29.5t20 19.5t20.5 20.5t15 33.5l87 412q5 22 0 33.5t-12 21t-12 19.5t-1 29
q5 20 19.5 29.5t36.5 11.5h124q25 0 37.5 -9.5t7.5 -31.5l-8 -37h68zM274 157q27 0 52 11.5t46 35t35.5 60t19.5 86.5t-3 86.5t-24.5 60t-38.5 35t-46 11.5q-12 0 -22.5 -10.5t-14.5 -29.5l-60 -281q-5 -27 3 -46t30 -19h23z" />
    <glyph glyph-name="germandbls" unicode="&#xdf;" horiz-adv-x="618" 
d="M441 380q84 -18 116 -67.5t17 -117.5q-19 -90 -97.5 -139t-216.5 -49h-29q-32 0 -26 24l6 30q6 25 37 25h35q45 0 76.5 26.5t36.5 92.5q2 33 -5 57t-20.5 39.5t-31.5 23t-39 7.5q-32 0 -26 24l6 30q6 25 37 25q44 0 76 25.5t34 79.5q1 27 -7 47t-20 33t-27 19.5t-28 6.5
q-23 0 -38.5 -22t-23.5 -61l-106 -498q-5 -22 -21.5 -31.5t-41.5 -9.5h-117q-25 0 -37.5 9.5t-7.5 31.5q4 19 13.5 29.5t20 19.5t20.5 20.5t15 33.5l66 311q10 47 37 91.5t67.5 78.5t93 54.5t115.5 20.5q115 0 170.5 -47t38.5 -126q-11 -53 -54.5 -91.5t-113.5 -55.5z" />
    <glyph glyph-name="agrave" unicode="&#xe0;" horiz-adv-x="601" 
d="M389 745q17 -20 33 -38q14 -15 27 -30.5t20 -23.5q8 -10 9 -18t-9 -17l-11 -11q-8 -8 -16 -8q-9 0 -19 10q-8 8 -23.5 21.5t-30.5 27.5q-18 15 -37 33q-17 18 0 34l22 21q8 8 16 8q10 0 19 -9zM579 164q9 0 13 -8.5t4 -17.5q0 -23 -13.5 -48.5t-36.5 -47t-54 -35.5
t-67 -14q-54 0 -75.5 30.5t-19.5 77.5q-27 -45 -69.5 -76.5t-105.5 -31.5q-46 0 -78.5 20.5t-50.5 58t-20.5 91t11.5 119.5t39.5 119t61 90.5t78.5 58t91 20.5q52 0 84.5 -22t51.5 -57q12 14 28 26.5t33.5 23t35 16.5t32.5 6q16 0 24.5 -9.5t3.5 -31.5l-70 -328
q-13 -59 15 -59q11 0 18 4.5t13 10t11 10t12 4.5zM250 107q38 0 69.5 55t51.5 150l11 53q-1 31 -9 55q-6 21 -20.5 38t-42.5 17q-49 0 -79.5 -52t-41.5 -146q-5 -47 -2 -79.5t11.5 -52.5t22 -29t29.5 -9z" />
    <glyph glyph-name="aacute" unicode="&#xe1;" horiz-adv-x="601" 
d="M492 725q10 -15 -15 -34q-27 -18 -51 -33q-20 -14 -41 -27.5t-33 -21.5q-15 -10 -23 -10q-9 0 -13 8l-7 11q-5 9 -1 17t16 18q11 8 30.5 23.5t39.5 30.5q23 18 49 38q14 9 23 9q8 0 13 -8zM579 164q9 0 13 -8.5t4 -17.5q0 -23 -13.5 -48.5t-36.5 -47t-54 -35.5t-67 -14
q-54 0 -75.5 30.5t-19.5 77.5q-27 -45 -69.5 -76.5t-105.5 -31.5q-46 0 -78.5 20.5t-50.5 58t-20.5 91t11.5 119.5t39.5 119t61 90.5t78.5 58t91 20.5q52 0 84.5 -22t51.5 -57q12 14 28 26.5t33.5 23t35 16.5t32.5 6q16 0 24.5 -9.5t3.5 -31.5l-70 -328q-13 -59 15 -59
q11 0 18 4.5t13 10t11 10t12 4.5zM250 107q38 0 69.5 55t51.5 150l11 53q-1 31 -9 55q-6 21 -20.5 38t-42.5 17q-49 0 -79.5 -52t-41.5 -146q-5 -47 -2 -79.5t11.5 -52.5t22 -29t29.5 -9z" />
    <glyph glyph-name="acircumflex" unicode="&#xe2;" horiz-adv-x="601" 
d="M515 646q6 -10 5.5 -17.5t-9.5 -15.5l-12 -8q-7 -6 -14 -6q-8 0 -17 11q-5 5 -14 16.5t-18 23.5q-11 13 -24 29q-19 -16 -36 -29q-14 -12 -28.5 -23.5t-21.5 -16.5q-14 -11 -22 -11q-6 0 -12 6l-7 8q-12 13 10 33l101 95q10 8 17 11t15 3t14 -3t12 -11zM579 164
q9 0 13 -8.5t4 -17.5q0 -23 -13.5 -48.5t-36.5 -47t-54 -35.5t-67 -14q-54 0 -75.5 30.5t-19.5 77.5q-27 -45 -69.5 -76.5t-105.5 -31.5q-46 0 -78.5 20.5t-50.5 58t-20.5 91t11.5 119.5t39.5 119t61 90.5t78.5 58t91 20.5q52 0 84.5 -22t51.5 -57q12 14 28 26.5t33.5 23
t35 16.5t32.5 6q16 0 24.5 -9.5t3.5 -31.5l-70 -328q-13 -59 15 -59q11 0 18 4.5t13 10t11 10t12 4.5zM250 107q38 0 69.5 55t51.5 150l11 53q-1 31 -9 55q-6 21 -20.5 38t-42.5 17q-49 0 -79.5 -52t-41.5 -146q-5 -47 -2 -79.5t11.5 -52.5t22 -29t29.5 -9z" />
    <glyph glyph-name="atilde" unicode="&#xe3;" horiz-adv-x="601" 
d="M513 719q14 -4 9 -17q-14 -32 -35 -51.5t-48 -19.5q-12 0 -24 4.5t-23.5 10t-22.5 10t-20 4.5q-8 0 -16.5 -4.5t-16.5 -14.5q-5 -10 -16 -8l-12 2q-6 1 -8.5 6t0.5 10q13 32 34 51.5t48 19.5q12 0 24 -4.5t24 -9.5t23 -9.5t20 -4.5q8 0 16.5 4t15.5 14q6 10 16 8z
M579 164q9 0 13 -8.5t4 -17.5q0 -23 -13.5 -48.5t-36.5 -47t-54 -35.5t-67 -14q-54 0 -75.5 30.5t-19.5 77.5q-27 -45 -69.5 -76.5t-105.5 -31.5q-46 0 -78.5 20.5t-50.5 58t-20.5 91t11.5 119.5t39.5 119t61 90.5t78.5 58t91 20.5q52 0 84.5 -22t51.5 -57q12 14 28 26.5
t33.5 23t35 16.5t32.5 6q16 0 24.5 -9.5t3.5 -31.5l-70 -328q-13 -59 15 -59q11 0 18 4.5t13 10t11 10t12 4.5zM250 107q38 0 69.5 55t51.5 150l11 53q-1 31 -9 55q-6 21 -20.5 38t-42.5 17q-49 0 -79.5 -52t-41.5 -146q-5 -47 -2 -79.5t11.5 -52.5t22 -29t29.5 -9z" />
    <glyph glyph-name="adieresis" unicode="&#xe4;" horiz-adv-x="601" 
d="M333 740q28 0 43 -16.5t8 -46.5q-7 -31 -28.5 -47.5t-49.5 -16.5t-43 16.5t-8 47.5q6 30 27.5 46.5t50.5 16.5zM495 740q29 0 43.5 -16.5t7.5 -46.5q-6 -31 -27.5 -47.5t-50.5 -16.5q-28 0 -42.5 16.5t-8.5 47.5q7 30 28.5 46.5t49.5 16.5zM579 164q9 0 13 -8.5t4 -17.5
q0 -23 -13.5 -48.5t-36.5 -47t-54 -35.5t-67 -14q-54 0 -75.5 30.5t-19.5 77.5q-27 -45 -69.5 -76.5t-105.5 -31.5q-46 0 -78.5 20.5t-50.5 58t-20.5 91t11.5 119.5t39.5 119t61 90.5t78.5 58t91 20.5q52 0 84.5 -22t51.5 -57q12 14 28 26.5t33.5 23t35 16.5t32.5 6
q16 0 24.5 -9.5t3.5 -31.5l-70 -328q-13 -59 15 -59q11 0 18 4.5t13 10t11 10t12 4.5zM250 107q38 0 69.5 55t51.5 150l11 53q-1 31 -9 55q-6 21 -20.5 38t-42.5 17q-49 0 -79.5 -52t-41.5 -146q-5 -47 -2 -79.5t11.5 -52.5t22 -29t29.5 -9z" />
    <glyph glyph-name="aring" unicode="&#xe5;" horiz-adv-x="601" 
d="M579 164q9 0 13 -8.5t4 -17.5q0 -23 -13.5 -48.5t-36.5 -47t-54 -35.5t-67 -14q-54 0 -75.5 30.5t-19.5 77.5q-27 -45 -69.5 -76.5t-105.5 -31.5q-46 0 -78.5 20.5t-50.5 58t-20.5 91t11.5 119.5t39.5 119t61 90.5t78.5 58t91 20.5h12q-23 11 -34 34.5t-3 58.5
q11 48 44 74t76 26t65.5 -26t11.5 -74t-43 -74t-74 -27q29 -9 48.5 -27t32.5 -44q12 14 28 26.5t33.5 23t35 16.5t32.5 6q16 0 24.5 -9.5t3.5 -31.5l-70 -328q-13 -59 15 -59q11 0 18 4.5t13 10t11 10t12 4.5zM346 594q29 0 51.5 18t30.5 51q7 33 -8.5 50.5t-44.5 17.5
t-51.5 -17.5t-30.5 -50.5q-7 -33 8.5 -51t44.5 -18zM250 107q38 0 69.5 55t51.5 150l11 53q-1 31 -9 55q-6 21 -20.5 38t-42.5 17q-49 0 -79.5 -52t-41.5 -146q-5 -47 -2 -79.5t11.5 -52.5t22 -29t29.5 -9z" />
    <glyph glyph-name="ae" unicode="&#xe6;" horiz-adv-x="818" 
d="M774 150q-4 -21 -23 -48.5t-49.5 -51.5t-71.5 -40.5t-91 -16.5q-75 0 -121.5 32t-64.5 90q-14 -22 -33.5 -44t-44 -39t-54 -28t-65.5 -11q-46 0 -78.5 20.5t-50.5 58t-20.5 91t11.5 119.5t39.5 119t61 90.5t78.5 58t91 20.5q32 0 56 -8.5t42 -23.5t30.5 -35t21.5 -44
q46 54 105.5 82.5t126.5 28.5q45 0 78 -13t53.5 -35t27.5 -51.5t0 -62.5q-17 -81 -93.5 -123t-219.5 -43q-1 -39 8 -64.5t23.5 -40.5t33.5 -21.5t38 -6.5q34 0 55.5 9.5t36.5 21.5t26.5 21.5t24.5 9.5q8 0 11 -6t1 -15zM633 499q-26 0 -45.5 -24.5t-33.5 -58t-22.5 -69
t-11.5 -57.5q72 1 110 26t49 74q5 25 3 45t-9 34.5t-17.5 22t-22.5 7.5zM251 107q26 0 49.5 27t42.5 76q2 42 12.5 83.5t27.5 79.5q0 10 -3 27t-10.5 33.5t-21.5 29t-37 12.5q-49 0 -79.5 -52t-41.5 -146q-5 -47 -2 -79.5t11.5 -52.5t22 -29t29.5 -9z" />
    <glyph glyph-name="ccedilla" unicode="&#xe7;" horiz-adv-x="482" 
d="M203 -7h-12l-17 -43q10 6 22 10t26 4q42 0 57 -26t7 -68q-5 -21 -16 -42.5t-28 -38t-40 -27t-51 -10.5q-29 0 -47 11t-27 21q-5 5 -3.5 12.5t7.5 12.5l8 7q6 6 13.5 6.5t11.5 -4.5q7 -8 18 -15.5t28 -7.5t33.5 23t18.5 57q3 33 -5.5 42.5t-18.5 9.5q-11 0 -18.5 -7.5
t-14.5 -16.5t-14.5 -16.5t-18.5 -7.5h-9q-23 0 -14 25l38 96q-83 21 -114 95t-7 187q14 66 45 119t74.5 90.5t96 58t109.5 20.5q39 0 70.5 -11t53 -28.5t31 -40t4.5 -46.5q-3 -16 -15.5 -30.5t-29 -25t-34.5 -16.5t-33 -6q-23 0 -29.5 11.5t-5.5 30.5q2 48 -11.5 69.5
t-37.5 21.5q-18 0 -35.5 -13t-32.5 -36.5t-26.5 -55t-19.5 -67.5q-14 -64 -10.5 -106.5t18.5 -67t38 -34.5t47 -10q34 0 55.5 9.5t36 21.5t26 21.5t24.5 9.5q9 0 12 -6t1 -15q-4 -21 -23 -48.5t-50 -51.5t-72 -40.5t-90 -16.5z" />
    <glyph glyph-name="egrave" unicode="&#xe8;" horiz-adv-x="477" 
d="M327 745q17 -20 33 -38q14 -15 27 -30.5t20 -23.5q8 -10 9 -18t-9 -17l-11 -11q-8 -8 -16 -8q-9 0 -19 10q-8 8 -23.5 21.5t-30.5 27.5q-18 15 -37 33q-17 18 0 34l22 21q8 8 16 8q10 0 19 -9zM438 150q-4 -21 -23 -48.5t-50 -51.5t-72 -40.5t-90 -16.5q-59 0 -101 20.5
t-65.5 58t-29 91t8.5 119.5t44.5 119t72.5 90.5t93.5 58t107.5 20.5q45 0 78 -13t53.5 -35t27.5 -51.5t0 -62.5q-17 -81 -94 -123t-220 -43q0 -39 8.5 -64.5t23.5 -40.5t34 -21.5t38 -6.5q34 0 55.5 9.5t36 21.5t26 21.5t24.5 9.5q9 0 12 -6t1 -15zM297 499q-26 0 -46 -24.5
t-34 -58t-22.5 -69t-11.5 -57.5q72 1 110 26t49 74q11 50 -5 79.5t-40 29.5z" />
    <glyph glyph-name="eacute" unicode="&#xe9;" horiz-adv-x="477" 
d="M430 725q10 -15 -15 -34q-27 -18 -51 -33q-20 -14 -41 -27.5t-33 -21.5q-15 -10 -23 -10q-9 0 -13 8l-7 11q-5 9 -1 17t16 18q11 8 30.5 23.5t39.5 30.5q23 18 49 38q14 9 23 9q8 0 13 -8zM438 150q-4 -21 -23 -48.5t-50 -51.5t-72 -40.5t-90 -16.5q-59 0 -101 20.5
t-65.5 58t-29 91t8.5 119.5t44.5 119t72.5 90.5t93.5 58t107.5 20.5q45 0 78 -13t53.5 -35t27.5 -51.5t0 -62.5q-17 -81 -94 -123t-220 -43q0 -39 8.5 -64.5t23.5 -40.5t34 -21.5t38 -6.5q34 0 55.5 9.5t36 21.5t26 21.5t24.5 9.5q9 0 12 -6t1 -15zM297 499q-26 0 -46 -24.5
t-34 -58t-22.5 -69t-11.5 -57.5q72 1 110 26t49 74q11 50 -5 79.5t-40 29.5z" />
    <glyph glyph-name="ecircumflex" unicode="&#xea;" horiz-adv-x="477" 
d="M453 646q6 -10 5.5 -17.5t-9.5 -15.5l-12 -8q-7 -6 -14 -6q-8 0 -17 11q-5 5 -14 16.5t-18 23.5q-11 13 -24 29q-19 -16 -36 -29q-14 -12 -28.5 -23.5t-21.5 -16.5q-14 -11 -22 -11q-6 0 -12 6l-7 8q-12 13 10 33l101 95q10 8 17 11t15 3t14 -3t12 -11zM438 150
q-4 -21 -23 -48.5t-50 -51.5t-72 -40.5t-90 -16.5q-59 0 -101 20.5t-65.5 58t-29 91t8.5 119.5t44.5 119t72.5 90.5t93.5 58t107.5 20.5q45 0 78 -13t53.5 -35t27.5 -51.5t0 -62.5q-17 -81 -94 -123t-220 -43q0 -39 8.5 -64.5t23.5 -40.5t34 -21.5t38 -6.5q34 0 55.5 9.5
t36 21.5t26 21.5t24.5 9.5q9 0 12 -6t1 -15zM297 499q-26 0 -46 -24.5t-34 -58t-22.5 -69t-11.5 -57.5q72 1 110 26t49 74q11 50 -5 79.5t-40 29.5z" />
    <glyph glyph-name="edieresis" unicode="&#xeb;" horiz-adv-x="477" 
d="M271 740q28 0 43 -16.5t8 -46.5q-7 -31 -28.5 -47.5t-49.5 -16.5t-43 16.5t-8 47.5q6 30 27.5 46.5t50.5 16.5zM433 740q29 0 43.5 -16.5t7.5 -46.5q-6 -31 -27.5 -47.5t-50.5 -16.5q-28 0 -42.5 16.5t-8.5 47.5q7 30 28.5 46.5t49.5 16.5zM438 150q-4 -21 -23 -48.5
t-50 -51.5t-72 -40.5t-90 -16.5q-59 0 -101 20.5t-65.5 58t-29 91t8.5 119.5t44.5 119t72.5 90.5t93.5 58t107.5 20.5q45 0 78 -13t53.5 -35t27.5 -51.5t0 -62.5q-17 -81 -94 -123t-220 -43q0 -39 8.5 -64.5t23.5 -40.5t34 -21.5t38 -6.5q34 0 55.5 9.5t36 21.5t26 21.5
t24.5 9.5q9 0 12 -6t1 -15zM297 499q-26 0 -46 -24.5t-34 -58t-22.5 -69t-11.5 -57.5q72 1 110 26t49 74q11 50 -5 79.5t-40 29.5z" />
    <glyph glyph-name="igrave" unicode="&#xec;" horiz-adv-x="287" 
d="M212 745q17 -20 33 -38q14 -15 27 -30.5t20 -23.5q8 -10 9 -18t-9 -17l-11 -11q-8 -8 -16 -8q-9 0 -19 10q-8 8 -23.5 21.5t-30.5 27.5q-18 15 -37 33q-17 18 0 34l22 21q8 8 16 8q10 0 19 -9zM265 164q9 0 13 -8.5t4 -17.5q0 -23 -13.5 -48.5t-36.5 -47t-54 -35.5
t-67 -14q-33 0 -54 12.5t-31 33.5t-10.5 49t6.5 60l49 229q5 22 0 33t-12 19.5t-12.5 17t-2.5 25.5q4 20 26.5 36.5t50.5 28.5t56 19t43 7q25 0 37.5 -10.5t6.5 -37.5l-68 -321q-13 -59 15 -59q11 0 18 4.5t13 10t11 10t12 4.5z" />
    <glyph glyph-name="iacute" unicode="&#xed;" horiz-adv-x="287" 
d="M315 725q10 -15 -15 -34q-27 -18 -51 -33q-20 -14 -41 -27.5t-33 -21.5q-15 -10 -23 -10q-9 0 -13 8l-7 11q-5 9 -1 17t16 18q11 8 30.5 23.5t39.5 30.5q23 18 49 38q14 9 23 9q8 0 13 -8zM265 164q9 0 13 -8.5t4 -17.5q0 -23 -13.5 -48.5t-36.5 -47t-54 -35.5t-67 -14
q-33 0 -54 12.5t-31 33.5t-10.5 49t6.5 60l49 229q5 22 0 33t-12 19.5t-12.5 17t-2.5 25.5q4 20 26.5 36.5t50.5 28.5t56 19t43 7q25 0 37.5 -10.5t6.5 -37.5l-68 -321q-13 -59 15 -59q11 0 18 4.5t13 10t11 10t12 4.5z" />
    <glyph glyph-name="icircumflex" unicode="&#xee;" horiz-adv-x="287" 
d="M338 646q6 -10 5.5 -17.5t-9.5 -15.5l-12 -8q-7 -6 -14 -6q-8 0 -17 11q-5 5 -14 16.5t-18 23.5q-11 13 -24 29q-19 -16 -36 -29q-14 -12 -28.5 -23.5t-21.5 -16.5q-14 -11 -22 -11q-6 0 -12 6l-7 8q-12 13 10 33l101 95q10 8 17 11t15 3t14 -3t12 -11zM265 164
q9 0 13 -8.5t4 -17.5q0 -23 -13.5 -48.5t-36.5 -47t-54 -35.5t-67 -14q-33 0 -54 12.5t-31 33.5t-10.5 49t6.5 60l49 229q5 22 0 33t-12 19.5t-12.5 17t-2.5 25.5q4 20 26.5 36.5t50.5 28.5t56 19t43 7q25 0 37.5 -10.5t6.5 -37.5l-68 -321q-13 -59 15 -59q11 0 18 4.5
t13 10t11 10t12 4.5z" />
    <glyph glyph-name="idieresis" unicode="&#xef;" horiz-adv-x="287" 
d="M156 740q28 0 43 -16.5t8 -46.5q-7 -31 -28.5 -47.5t-49.5 -16.5t-43 16.5t-8 47.5q6 30 27.5 46.5t50.5 16.5zM318 740q29 0 43.5 -16.5t7.5 -46.5q-6 -31 -27.5 -47.5t-50.5 -16.5q-28 0 -42.5 16.5t-8.5 47.5q7 30 28.5 46.5t49.5 16.5zM265 164q9 0 13 -8.5t4 -17.5
q0 -23 -13.5 -48.5t-36.5 -47t-54 -35.5t-67 -14q-33 0 -54 12.5t-31 33.5t-10.5 49t6.5 60l49 229q5 22 0 33t-12 19.5t-12.5 17t-2.5 25.5q4 20 26.5 36.5t50.5 28.5t56 19t43 7q25 0 37.5 -10.5t6.5 -37.5l-68 -321q-13 -59 15 -59q11 0 18 4.5t13 10t11 10t12 4.5z" />
    <glyph glyph-name="ntilde" unicode="&#xf1;" horiz-adv-x="597" 
d="M491 719q14 -4 9 -17q-14 -32 -35 -51.5t-48 -19.5q-12 0 -24 4.5t-23.5 10t-22.5 10t-20 4.5q-8 0 -16.5 -4.5t-16.5 -14.5q-5 -10 -16 -8l-12 2q-6 1 -8.5 6t0.5 10q13 32 34 51.5t48 19.5q12 0 24 -4.5t24 -9.5t23 -9.5t20 -4.5q8 0 16.5 4t15.5 14q6 10 16 8zM49 0
q-52 0 -42 41l70 336q5 22 0 33t-12 19.5t-12.5 17t-1.5 25.5q4 20 26.5 36.5t50.5 28.5t56 19t43 7q25 0 37 -10.5t7 -37.5l-23 -106q16 32 35.5 61.5t44.5 51.5t54.5 35t65.5 13q38 0 61 -12.5t35 -33.5t13.5 -49t-5.5 -60l-47 -221q-6 -32 -2.5 -45.5t18.5 -13.5
q10 0 17 4.5t13 10t11.5 10t12.5 4.5q9 0 13 -8.5t4 -17.5q0 -23 -13.5 -48.5t-36.5 -47t-54 -35.5t-67 -14q-33 0 -54 12.5t-31 33.5t-10.5 49t6.5 60l50 236q8 38 4 55t-24 17q-19 0 -38.5 -20t-37.5 -52t-34.5 -71.5t-30.5 -79t-23.5 -74.5t-14.5 -58l-12 -60
q-10 -41 -60 -41h-62z" />
    <glyph glyph-name="ograve" unicode="&#xf2;" horiz-adv-x="543" 
d="M360 745q17 -20 33 -38q14 -15 27 -30.5t20 -23.5q8 -10 9 -18t-9 -17l-11 -11q-8 -8 -16 -8q-9 0 -19 10q-8 8 -23.5 21.5t-30.5 27.5q-18 15 -37 33q-17 18 0 34l22 21q8 8 16 8q10 0 19 -9zM210 -7q-56 0 -99 19t-69 56t-34 91t7 123t45.5 122.5t72.5 90.5t93 56
t107 19t98.5 -19t69 -56t34.5 -90.5t-7 -122.5t-45.5 -123t-72.5 -91t-93 -56t-107 -19zM298 499q-17 0 -34 -15.5t-31.5 -43.5t-26 -68t-17.5 -90q-12 -100 5 -159t51 -59q17 0 34 15.5t31.5 44t26 68.5t17.5 90t4.5 90t-9.5 68t-21 43.5t-30 15.5z" />
    <glyph glyph-name="oacute" unicode="&#xf3;" horiz-adv-x="543" 
d="M463 725q10 -15 -15 -34q-27 -18 -51 -33q-20 -14 -41 -27.5t-33 -21.5q-15 -10 -23 -10q-9 0 -13 8l-7 11q-5 9 -1 17t16 18q11 8 30.5 23.5t39.5 30.5q23 18 49 38q14 9 23 9q8 0 13 -8zM210 -7q-56 0 -99 19t-69 56t-34 91t7 123t45.5 122.5t72.5 90.5t93 56t107 19
t98.5 -19t69 -56t34.5 -90.5t-7 -122.5t-45.5 -123t-72.5 -91t-93 -56t-107 -19zM298 499q-17 0 -34 -15.5t-31.5 -43.5t-26 -68t-17.5 -90q-12 -100 5 -159t51 -59q17 0 34 15.5t31.5 44t26 68.5t17.5 90t4.5 90t-9.5 68t-21 43.5t-30 15.5z" />
    <glyph glyph-name="ocircumflex" unicode="&#xf4;" horiz-adv-x="543" 
d="M486 646q6 -10 5.5 -17.5t-9.5 -15.5l-12 -8q-7 -6 -14 -6q-8 0 -17 11q-5 5 -14 16.5t-18 23.5q-11 13 -24 29q-19 -16 -36 -29q-14 -12 -28.5 -23.5t-21.5 -16.5q-14 -11 -22 -11q-6 0 -12 6l-7 8q-12 13 10 33l101 95q10 8 17 11t15 3t14 -3t12 -11zM210 -7
q-56 0 -99 19t-69 56t-34 91t7 123t45.5 122.5t72.5 90.5t93 56t107 19t98.5 -19t69 -56t34.5 -90.5t-7 -122.5t-45.5 -123t-72.5 -91t-93 -56t-107 -19zM298 499q-17 0 -34 -15.5t-31.5 -43.5t-26 -68t-17.5 -90q-12 -100 5 -159t51 -59q17 0 34 15.5t31.5 44t26 68.5
t17.5 90t4.5 90t-9.5 68t-21 43.5t-30 15.5z" />
    <glyph glyph-name="otilde" unicode="&#xf5;" horiz-adv-x="543" 
d="M484 719q14 -4 9 -17q-14 -32 -35 -51.5t-48 -19.5q-12 0 -24 4.5t-23.5 10t-22.5 10t-20 4.5q-8 0 -16.5 -4.5t-16.5 -14.5q-5 -10 -16 -8l-12 2q-6 1 -8.5 6t0.5 10q13 32 34 51.5t48 19.5q12 0 24 -4.5t24 -9.5t23 -9.5t20 -4.5q8 0 16.5 4t15.5 14q6 10 16 8zM210 -7
q-56 0 -99 19t-69 56t-34 91t7 123t45.5 122.5t72.5 90.5t93 56t107 19t98.5 -19t69 -56t34.5 -90.5t-7 -122.5t-45.5 -123t-72.5 -91t-93 -56t-107 -19zM298 499q-17 0 -34 -15.5t-31.5 -43.5t-26 -68t-17.5 -90q-12 -100 5 -159t51 -59q17 0 34 15.5t31.5 44t26 68.5
t17.5 90t4.5 90t-9.5 68t-21 43.5t-30 15.5z" />
    <glyph glyph-name="odieresis" unicode="&#xf6;" horiz-adv-x="543" 
d="M284 740q28 0 43 -16.5t8 -46.5q-7 -31 -28.5 -47.5t-49.5 -16.5t-43 16.5t-8 47.5q6 30 27.5 46.5t50.5 16.5zM446 740q29 0 43.5 -16.5t7.5 -46.5q-6 -31 -27.5 -47.5t-50.5 -16.5q-28 0 -42.5 16.5t-8.5 47.5q7 30 28.5 46.5t49.5 16.5zM210 -7q-56 0 -99 19t-69 56
t-34 91t7 123t45.5 122.5t72.5 90.5t93 56t107 19t98.5 -19t69 -56t34.5 -90.5t-7 -122.5t-45.5 -123t-72.5 -91t-93 -56t-107 -19zM298 499q-17 0 -34 -15.5t-31.5 -43.5t-26 -68t-17.5 -90q-12 -100 5 -159t51 -59q17 0 34 15.5t31.5 44t26 68.5t17.5 90t4.5 90t-9.5 68
t-21 43.5t-30 15.5z" />
    <glyph glyph-name="divide" unicode="&#xf7;" horiz-adv-x="431" 
d="M235 339q-35 0 -53.5 20.5t-10.5 58.5t35.5 59t62.5 21t53.5 -21t10.5 -59t-35.5 -58.5t-62.5 -20.5zM400 321q32 0 26 -25l-6 -29q-6 -25 -37 -25h-337q-31 0 -27 25l7 29q4 25 36 25h338zM210 224q35 0 54 -20.5t11 -58.5t-35.5 -59t-62.5 -21t-53.5 21t-10.5 59
t35 58.5t62 20.5z" />
    <glyph glyph-name="oslash" unicode="&#xf8;" horiz-adv-x="534" 
d="M445 536q51 -33 70.5 -97t-0.5 -157q-15 -69 -45 -123t-72 -91t-93 -56t-107 -19q-35 0 -62 7l-23 -40q-19 -31 -42 -31h-30q-25 0 -6 31l38 67q-51 33 -70.5 97.5t0.5 157.5q15 69 45.5 122.5t72.5 90.5t93 56t107 19q34 0 61 -7l23 40q9 15 19 23t24 8h30q25 0 6 -31z
M177 282q-3 -23 -4 -43.5t-1 -39.5l155 267q-17 33 -42 33q-17 0 -33.5 -15.5t-31 -43.5t-26 -68t-17.5 -90zM233 64q17 0 34 15.5t31.5 44t26 68.5t17.5 90q2 23 3.5 43.5t0.5 38.5l-154 -267q16 -33 41 -33z" />
    <glyph glyph-name="ugrave" unicode="&#xf9;" horiz-adv-x="582" 
d="M320 745q17 -20 33 -38q13 -15 26 -30.5t21 -23.5q8 -10 8.5 -18t-8.5 -17l-12 -11q-8 -8 -16 -8q-9 0 -19 10q-8 8 -23 21.5t-30 27.5q-18 15 -37 33q-18 18 0 34l21 21q8 8 17 8q10 0 19 -9zM560 164q9 0 13 -8.5t4 -17.5q0 -23 -13.5 -48.5t-36.5 -47t-54 -35.5
t-67 -14q-28 0 -47.5 9t-30.5 25t-14.5 37.5t-1.5 46.5q-31 -50 -76.5 -84t-110.5 -34q-37 0 -60.5 12.5t-35 33.5t-13 49t5.5 60l48 229q5 22 0 33t-12 19.5t-12.5 17t-1.5 25.5q4 20 26.5 36.5t50.5 28.5t56 19t43 7q25 0 37 -10.5t6 -37.5l-71 -336q-8 -38 -2 -55t29 -17
q24 0 45 19t38.5 49t30 66.5t19.5 70.5l14 65q5 22 0 33t-12 19.5t-12.5 17t-2.5 25.5q4 20 26.5 36.5t50.5 28.5t56 19t43 7q25 0 37.5 -10.5t6.5 -37.5l-68 -321q-13 -59 15 -59q11 0 18 4.5t13 10t11 10t12 4.5z" />
    <glyph glyph-name="uacute" unicode="&#xfa;" horiz-adv-x="582" 
d="M422 725q11 -15 -15 -34q-27 -18 -51 -33q-20 -14 -41 -27.5t-33 -21.5q-15 -10 -23 -10t-13 8l-6 11q-6 9 -1.5 17t16.5 18q11 8 30.5 23.5t39.5 30.5q23 18 49 38q14 9 22 9q9 0 13 -8zM560 164q9 0 13 -8.5t4 -17.5q0 -23 -13.5 -48.5t-36.5 -47t-54 -35.5t-67 -14
q-28 0 -47.5 9t-30.5 25t-14.5 37.5t-1.5 46.5q-31 -50 -76.5 -84t-110.5 -34q-37 0 -60.5 12.5t-35 33.5t-13 49t5.5 60l48 229q5 22 0 33t-12 19.5t-12.5 17t-1.5 25.5q4 20 26.5 36.5t50.5 28.5t56 19t43 7q25 0 37 -10.5t6 -37.5l-71 -336q-8 -38 -2 -55t29 -17
q24 0 45 19t38.5 49t30 66.5t19.5 70.5l14 65q5 22 0 33t-12 19.5t-12.5 17t-2.5 25.5q4 20 26.5 36.5t50.5 28.5t56 19t43 7q25 0 37.5 -10.5t6.5 -37.5l-68 -321q-13 -59 15 -59q11 0 18 4.5t13 10t11 10t12 4.5z" />
    <glyph glyph-name="ucircumflex" unicode="&#xfb;" horiz-adv-x="582" 
d="M445 646q6 -10 6 -17.5t-10 -15.5l-11 -8q-7 -6 -14 -6q-9 0 -17 11q-5 5 -14 16.5t-19 23.5q-11 13 -24 29q-19 -16 -36 -29q-14 -12 -28.5 -23.5t-21.5 -16.5q-13 -11 -22 -11q-6 0 -11 6l-8 8q-6 8 -3 15.5t13 17.5l102 95q9 8 16 11t15 3t14 -3t12 -11zM560 164
q9 0 13 -8.5t4 -17.5q0 -23 -13.5 -48.5t-36.5 -47t-54 -35.5t-67 -14q-28 0 -47.5 9t-30.5 25t-14.5 37.5t-1.5 46.5q-31 -50 -76.5 -84t-110.5 -34q-37 0 -60.5 12.5t-35 33.5t-13 49t5.5 60l48 229q5 22 0 33t-12 19.5t-12.5 17t-1.5 25.5q4 20 26.5 36.5t50.5 28.5
t56 19t43 7q25 0 37 -10.5t6 -37.5l-71 -336q-8 -38 -2 -55t29 -17q24 0 45 19t38.5 49t30 66.5t19.5 70.5l14 65q5 22 0 33t-12 19.5t-12.5 17t-2.5 25.5q4 20 26.5 36.5t50.5 28.5t56 19t43 7q25 0 37.5 -10.5t6.5 -37.5l-68 -321q-13 -59 15 -59q11 0 18 4.5t13 10t11 10
t12 4.5z" />
    <glyph glyph-name="udieresis" unicode="&#xfc;" horiz-adv-x="582" 
d="M263 740q29 0 43.5 -16.5t8.5 -46.5q-7 -31 -28.5 -47.5t-50.5 -16.5q-28 0 -42.5 16.5t-8.5 47.5q7 30 28.5 46.5t49.5 16.5zM426 740q28 0 42.5 -16.5t8.5 -46.5q-7 -31 -28.5 -47.5t-49.5 -16.5q-29 0 -43.5 16.5t-7.5 47.5q6 30 27.5 46.5t50.5 16.5zM560 164
q9 0 13 -8.5t4 -17.5q0 -23 -13.5 -48.5t-36.5 -47t-54 -35.5t-67 -14q-28 0 -47.5 9t-30.5 25t-14.5 37.5t-1.5 46.5q-31 -50 -76.5 -84t-110.5 -34q-37 0 -60.5 12.5t-35 33.5t-13 49t5.5 60l48 229q5 22 0 33t-12 19.5t-12.5 17t-1.5 25.5q4 20 26.5 36.5t50.5 28.5
t56 19t43 7q25 0 37 -10.5t6 -37.5l-71 -336q-8 -38 -2 -55t29 -17q24 0 45 19t38.5 49t30 66.5t19.5 70.5l14 65q5 22 0 33t-12 19.5t-12.5 17t-2.5 25.5q4 20 26.5 36.5t50.5 28.5t56 19t43 7q25 0 37.5 -10.5t6.5 -37.5l-68 -321q-13 -59 15 -59q11 0 18 4.5t13 10t11 10
t12 4.5z" />
    <glyph glyph-name="yacute" unicode="&#xfd;" horiz-adv-x="508" 
d="M405 725q11 -15 -15 -34q-27 -18 -51 -33q-20 -14 -41 -27.5t-33 -21.5q-15 -10 -23 -10t-13 8l-6 11q-6 9 -1.5 17t16.5 18q11 8 30.5 23.5t39.5 30.5q23 18 49 38q14 9 22 9q9 0 13 -8zM466 570q37 0 51.5 -22t14.5 -51q0 -42 -22 -96t-58 -119l-182 -327
q-17 -31 -36.5 -58.5t-44 -48.5t-55 -33.5t-69.5 -12.5t-67 11t-45 27t-23.5 33.5t-3.5 31.5q3 16 14 30.5t26 25t31.5 16.5t31.5 6q20 0 27.5 -8.5t9.5 -26.5q1 -11 1 -25.5t2 -27t8.5 -21t20.5 -8.5q19 0 30.5 14.5t15.5 30.5q9 45 4.5 95.5t-15.5 116.5l-25 142
q-10 58 -19.5 90.5t-17.5 48.5t-15.5 20t-14.5 4q-10 0 -16 -4.5t-10.5 -10t-9 -10t-11.5 -4.5q-9 0 -12.5 9t-3.5 17q0 24 10 49.5t28 46.5t42.5 35t53.5 14q39 0 63.5 -15.5t39 -39.5t21 -53t10.5 -57l40 -285l64 113q22 39 31.5 69t11 53.5t-2.5 42.5t-8.5 36t-7.5 33.5
t1 35.5q16 67 91 67z" />
    <glyph glyph-name="thorn" unicode="&#xfe;" horiz-adv-x="590" 
d="M119 -150q-10 -41 -60 -41h-62q-50 0 -42 41l153 718q5 22 0 33t-12 19.5t-12.5 17t-2.5 25.5q4 20 26.5 36.5t50.5 28.5t56 19t43 7q25 0 37.5 -10.5t6.5 -37.5l-50 -234q28 41 69 70t100 29q46 0 78.5 -20.5t50.5 -58t21 -91t-11 -119.5t-39.5 -119.5t-61 -91
t-78.5 -58t-92 -20.5q-45 0 -75.5 17t-49.5 45zM266 88q49 0 79 52.5t41 146.5t-8.5 139t-51.5 45q-19 0 -36.5 -16.5t-33 -46t-28.5 -69.5t-23 -87l-12 -53q1 -31 9 -55q7 -21 22 -38.5t42 -17.5z" />
    <glyph glyph-name="ydieresis" unicode="&#xff;" horiz-adv-x="508" 
d="M246 740q29 0 43.5 -16.5t8.5 -46.5q-7 -31 -28.5 -47.5t-50.5 -16.5q-28 0 -42.5 16.5t-8.5 47.5q7 30 28.5 46.5t49.5 16.5zM409 740q28 0 42.5 -16.5t8.5 -46.5q-7 -31 -28.5 -47.5t-49.5 -16.5q-29 0 -43.5 16.5t-7.5 47.5q6 30 27.5 46.5t50.5 16.5zM466 570
q37 0 51.5 -22t14.5 -51q0 -42 -22 -96t-58 -119l-182 -327q-17 -31 -36.5 -58.5t-44 -48.5t-55 -33.5t-69.5 -12.5t-67 11t-45 27t-23.5 33.5t-3.5 31.5q3 16 14 30.5t26 25t31.5 16.5t31.5 6q20 0 27.5 -8.5t9.5 -26.5q1 -11 1 -25.5t2 -27t8.5 -21t20.5 -8.5
q19 0 30.5 14.5t15.5 30.5q9 45 4.5 95.5t-15.5 116.5l-25 142q-10 58 -19.5 90.5t-17.5 48.5t-15.5 20t-14.5 4q-10 0 -16 -4.5t-10.5 -10t-9 -10t-11.5 -4.5q-9 0 -12.5 9t-3.5 17q0 24 10 49.5t28 46.5t42.5 35t53.5 14q39 0 63.5 -15.5t39 -39.5t21 -53t10.5 -57
l40 -285l64 113q22 39 31.5 69t11 53.5t-2.5 42.5t-8.5 36t-7.5 33.5t1 35.5q16 67 91 67z" />
    <glyph glyph-name="Amacron" unicode="&#x100;" 
d="M482 849q32 0 26 -24l-4 -23q-6 -24 -37 -24h-195q-32 0 -26 24l5 23q4 24 36 24h195zM541 144q3 -22 9.5 -34.5t12.5 -22t9.5 -19.5t0.5 -27q-5 -20 -20.5 -30.5t-35.5 -10.5h-164q-28 0 -39.5 9t-6.5 32q3 16 12.5 26t18.5 20.5t14.5 26.5t2.5 44l-10 79h-212l-42 -79
q-15 -29 -16 -45t3.5 -26.5t9 -20t1.5 -25.5q-5 -23 -20 -32t-43 -9h-59q-20 0 -31 10.5t-7 30.5q4 17 12 27t18 19.5t22 22t23 34.5l219 412q11 21 9.5 33t-7 21.5t-11 20t-1.5 28.5q5 20 20 30.5t35 10.5h162q25 0 34.5 -10.5t12.5 -30.5zM335 315l-31 244l-129 -244h160z
" />
    <glyph glyph-name="amacron" unicode="&#x101;" horiz-adv-x="601" 
d="M506 712q30 0 26 -24l-5 -23q-6 -24 -36 -24h-196q-30 0 -26 24l5 23q6 24 37 24h195zM579 164q9 0 13 -8.5t4 -17.5q0 -23 -13.5 -48.5t-36.5 -47t-54 -35.5t-67 -14q-54 0 -75.5 30.5t-19.5 77.5q-27 -45 -69.5 -76.5t-105.5 -31.5q-46 0 -78.5 20.5t-50.5 58t-20.5 91
t11.5 119.5t39.5 119t61 90.5t78.5 58t91 20.5q52 0 84.5 -22t51.5 -57q12 14 28 26.5t33.5 23t35 16.5t32.5 6q16 0 24.5 -9.5t3.5 -31.5l-70 -328q-13 -59 15 -59q11 0 18 4.5t13 10t11 10t12 4.5zM250 107q38 0 69.5 55t51.5 150l11 53q-1 31 -9 55q-6 21 -20.5 38
t-42.5 17q-49 0 -79.5 -52t-41.5 -146q-5 -47 -2 -79.5t11.5 -52.5t22 -29t29.5 -9z" />
    <glyph glyph-name="Abreve" unicode="&#x102;" 
d="M464 864q6 0 9.5 -4.5t1.5 -10.5q-14 -42 -45.5 -64t-70.5 -22t-61.5 22t-18.5 64q1 6 6.5 10.5t11.5 4.5h15q10 0 12 -10q2 -14 15 -21t33 -7q21 0 37 7t23 21q7 10 16 10h16zM541 144q3 -22 9.5 -34.5t12.5 -22t9.5 -19.5t0.5 -27q-5 -20 -20.5 -30.5t-35.5 -10.5h-164
q-28 0 -39.5 9t-6.5 32q3 16 12.5 26t18.5 20.5t14.5 26.5t2.5 44l-10 79h-212l-42 -79q-15 -29 -16 -45t3.5 -26.5t9 -20t1.5 -25.5q-5 -23 -20 -32t-43 -9h-59q-20 0 -31 10.5t-7 30.5q4 17 12 27t18 19.5t22 22t23 34.5l219 412q11 21 9.5 33t-7 21.5t-11 20t-1.5 28.5
q5 20 20 30.5t35 10.5h162q25 0 34.5 -10.5t12.5 -30.5zM335 315l-31 244l-129 -244h160z" />
    <glyph glyph-name="abreve" unicode="&#x103;" horiz-adv-x="601" 
d="M487 727q6 0 9.5 -4.5t1.5 -10.5q-14 -42 -45 -64t-71 -22q-39 0 -61.5 22t-17.5 64q1 6 6 10.5t11 4.5h16q11 0 11 -10q2 -14 15 -21t34 -7q20 0 36 7t24 21q5 10 16 10h15zM579 164q9 0 13 -8.5t4 -17.5q0 -23 -13.5 -48.5t-36.5 -47t-54 -35.5t-67 -14
q-54 0 -75.5 30.5t-19.5 77.5q-27 -45 -69.5 -76.5t-105.5 -31.5q-46 0 -78.5 20.5t-50.5 58t-20.5 91t11.5 119.5t39.5 119t61 90.5t78.5 58t91 20.5q52 0 84.5 -22t51.5 -57q12 14 28 26.5t33.5 23t35 16.5t32.5 6q16 0 24.5 -9.5t3.5 -31.5l-70 -328q-13 -59 15 -59
q11 0 18 4.5t13 10t11 10t12 4.5zM250 107q38 0 69.5 55t51.5 150l11 53q-1 31 -9 55q-6 21 -20.5 38t-42.5 17q-49 0 -79.5 -52t-41.5 -146q-5 -47 -2 -79.5t11.5 -52.5t22 -29t29.5 -9z" />
    <glyph glyph-name="Aogonek" unicode="&#x104;" 
d="M541 144q3 -22 9.5 -34.5t12.5 -22t9.5 -19.5t0.5 -27q-5 -20 -20.5 -30.5t-35.5 -10.5h-61q-23 -32 -35.5 -56.5t-18.5 -53.5q-5 -23 2.5 -39.5t24.5 -21.5q5 -2 7 -6.5t0 -9.5l-6 -16q-5 -12 -18 -12q-53 4 -71 32.5t-8 72.5q6 29 21.5 56t39.5 54h-41q-28 0 -39.5 9
t-6.5 32q3 16 12.5 26t18.5 20.5t14.5 26.5t2.5 44l-10 79h-212l-42 -79q-15 -29 -16 -45t3.5 -26.5t9 -20t1.5 -25.5q-5 -23 -20 -32t-43 -9h-59q-20 0 -31 10.5t-7 30.5q4 17 12 27t18 19.5t22 22t23 34.5l219 412q11 21 9.5 33t-7 21.5t-11 20t-1.5 28.5q5 20 20 30.5
t35 10.5h162q25 0 34.5 -10.5t12.5 -30.5zM335 315l-31 244l-129 -244h160z" />
    <glyph glyph-name="aogonek" unicode="&#x105;" horiz-adv-x="601" 
d="M579 164q9 0 13 -8.5t4 -17.5q0 -23 -13.5 -48.5t-36.5 -47t-54 -35.5t-67 -14h-2q-21 -30 -32.5 -53t-16.5 -49q-5 -24 2 -40.5t24 -21.5q12 -4 7 -16l-6 -16q-2 -5 -7 -8.5t-10 -3.5q-53 4 -71 32.5t-9 73.5q13 56 67 115q-23 13 -32.5 38t-8.5 57q-27 -45 -69.5 -76.5
t-105.5 -31.5q-46 0 -78.5 20.5t-50.5 58t-20.5 91t11.5 119.5t39.5 119t61 90.5t78.5 58t91 20.5q52 0 84.5 -22t51.5 -57q12 14 28 26.5t33.5 23t35 16.5t32.5 6q16 0 24.5 -9.5t3.5 -31.5l-70 -328q-13 -59 15 -59q11 0 18 4.5t13 10t11 10t12 4.5zM250 107q38 0 69.5 55
t51.5 150l11 53q-1 31 -9 55q-6 21 -20.5 38t-42.5 17q-49 0 -79.5 -52t-41.5 -146q-5 -47 -2 -79.5t11.5 -52.5t22 -29t29.5 -9z" />
    <glyph glyph-name="Cacute" unicode="&#x106;" horiz-adv-x="566" 
d="M494 862q11 -15 -15 -34q-27 -18 -51 -33q-20 -14 -41 -27.5t-33 -21.5q-15 -10 -23 -10t-13 8l-6 11q-6 9 -1.5 17t16.5 18q11 8 30.5 23.5t39.5 30.5q23 18 49 38q14 9 22 9q9 0 13 -8zM224 -7q-65 0 -114 25.5t-78 72t-37 112.5t9 147q18 81 56.5 147t91 112.5
t115.5 72t129 25.5q55 0 94 -17t63 -42.5t33 -55.5t4 -55q-4 -20 -15.5 -35.5t-27.5 -26.5t-35 -17t-37 -6q-29 0 -37 12t-7 35q2 60 -12.5 95t-52.5 35q-24 0 -49 -16t-47 -45t-40 -70t-29 -92q-17 -80 -13.5 -135t21 -89.5t47 -50t63.5 -15.5q46 0 75 16t48 35t32 35
t27 16q20 0 15 -23q-7 -32 -30 -67.5t-60 -65.5t-88 -49.5t-114 -19.5z" />
    <glyph glyph-name="cacute" unicode="&#x107;" horiz-adv-x="482" 
d="M432 725q11 -15 -15 -34q-27 -18 -51 -33q-20 -14 -41 -27.5t-33 -21.5q-15 -10 -23 -10t-13 8l-6 11q-6 9 -1.5 17t16.5 18q11 8 30.5 23.5t39.5 30.5q23 18 49 38q14 9 22 9q9 0 13 -8zM203 -7q-59 0 -101 20.5t-65.5 58t-29 91t8.5 119.5t45 119t74.5 90.5t96 58
t109.5 20.5q39 0 70.5 -11t53 -28.5t31 -40t4.5 -46.5q-3 -16 -15.5 -30.5t-29 -25t-34.5 -16.5t-33 -6q-23 0 -29.5 11.5t-5.5 30.5q2 48 -11.5 69.5t-37.5 21.5q-18 0 -35.5 -13t-32.5 -36.5t-26.5 -55t-19.5 -67.5q-14 -64 -10.5 -106.5t18.5 -67t38 -34.5t47 -10
q34 0 55.5 9.5t36 21.5t26 21.5t24.5 9.5q9 0 12 -6t1 -15q-4 -21 -23 -48.5t-50 -51.5t-72 -40.5t-90 -16.5z" />
    <glyph glyph-name="Ccaron" unicode="&#x10c;" horiz-adv-x="566" 
d="M407 745q-9 -8 -16 -10.5t-15 -2.5t-14 2.5t-12 10.5l-61 95q-6 10 -6 17.5t10 15.5l11 9q8 6 14 6q9 0 18 -11q5 -5 14 -17t18 -23q11 -14 24 -29q19 15 36 29q15 11 29 23t21 17q13 11 22 11q7 0 11 -6l8 -9q11 -14 -10 -33zM224 -7q-65 0 -114 25.5t-78 72t-37 112.5
t9 147q18 81 56.5 147t91 112.5t115.5 72t129 25.5q55 0 94 -17t63 -42.5t33 -55.5t4 -55q-4 -20 -15.5 -35.5t-27.5 -26.5t-35 -17t-37 -6q-29 0 -37 12t-7 35q2 60 -12.5 95t-52.5 35q-24 0 -49 -16t-47 -45t-40 -70t-29 -92q-17 -80 -13.5 -135t21 -89.5t47 -50
t63.5 -15.5q46 0 75 16t48 35t32 35t27 16q20 0 15 -23q-7 -32 -30 -67.5t-60 -65.5t-88 -49.5t-114 -19.5z" />
    <glyph glyph-name="ccaron" unicode="&#x10d;" horiz-adv-x="482" 
d="M345 608q-9 -8 -16 -10.5t-15 -2.5t-14 2.5t-12 10.5l-61 95q-6 10 -6 17.5t10 15.5l11 9q8 6 14 6q9 0 18 -11q5 -5 14 -17t18 -23q11 -14 24 -29q19 15 36 29q15 11 29 23t21 17q13 11 22 11q7 0 11 -6l8 -9q11 -14 -10 -33zM203 -7q-59 0 -101 20.5t-65.5 58t-29 91
t8.5 119.5t45 119t74.5 90.5t96 58t109.5 20.5q39 0 70.5 -11t53 -28.5t31 -40t4.5 -46.5q-3 -16 -15.5 -30.5t-29 -25t-34.5 -16.5t-33 -6q-23 0 -29.5 11.5t-5.5 30.5q2 48 -11.5 69.5t-37.5 21.5q-18 0 -35.5 -13t-32.5 -36.5t-26.5 -55t-19.5 -67.5
q-14 -64 -10.5 -106.5t18.5 -67t38 -34.5t47 -10q34 0 55.5 9.5t36 21.5t26 21.5t24.5 9.5q9 0 12 -6t1 -15q-4 -21 -23 -48.5t-50 -51.5t-72 -40.5t-90 -16.5z" />
    <glyph glyph-name="Dcaron" unicode="&#x10e;" horiz-adv-x="643" 
d="M386 745q-10 -8 -17 -10.5t-15 -2.5t-14 2.5t-11 10.5l-62 95q-12 20 4 33l12 9q8 6 14 6q8 0 17 -11q5 -5 14 -17t19 -23q11 -14 23 -29q19 15 36 29q15 11 29 23t21 17q14 11 22 11q6 0 12 -6l7 -9q12 -13 -10 -33zM-46 41q4 19 13.5 29.5t20.5 19.5t21 20.5t14 33.5
l88 412q5 22 0 33.5t-12 20.5t-12 19.5t-1 29.5q5 22 21.5 31.5t41.5 9.5h231q74 0 130 -24.5t90 -70.5t44 -110.5t-7 -144.5t-54 -144.5t-90.5 -110.5t-120 -70.5t-141.5 -24.5h-231q-25 0 -38 9.5t-8 31.5zM444 350q9 70 1.5 121.5t-24.5 85t-42.5 49.5t-52.5 16
q-12 0 -22.5 -10.5t-14.5 -30.5l-89 -437q-6 -27 2 -46.5t30 -19.5h25q31 0 61 16t55 49.5t43.5 85t27.5 121.5z" />
    <glyph glyph-name="dcaron" unicode="&#x10f;" horiz-adv-x="813" 
d="M575 754q25 0 37 -10.5t7 -38.5l-109 -511q-13 -59 15 -59q11 0 18 4.5t13 10t11 10t12 4.5q9 0 13 -8.5t4 -17.5q0 -23 -13.5 -48.5t-36.5 -47t-54 -35.5t-67 -14q-52 0 -73.5 28t-21.5 73q-29 -44 -69.5 -72.5t-98.5 -28.5q-45 0 -79 20.5t-53.5 58t-23 91t10.5 119.5
t40 119t61.5 90.5t78 58t90.5 20.5q51 0 79 -25t41 -65l18 87q5 22 0 33.5t-12 19.5t-12.5 17t-1.5 26q4 19 26.5 35.5t50.5 29t56 19.5t43 7zM611 443q-9 0 -14.5 6.5t-3.5 16.5q11 59 15 107.5t12 84.5q4 19 14.5 30.5t24.5 11.5h35q14 0 20 -11.5t2 -30.5
q-8 -36 -24.5 -84.5t-30.5 -107.5q-2 -10 -10 -16.5t-18 -6.5h-22zM253 107q31 0 53 22.5t41 67.5l11 54q7 34 11.5 75.5t1.5 77.5t-16.5 60.5t-41.5 24.5q-43 0 -76.5 -52t-43.5 -146q-11 -94 8.5 -139t51.5 -45z" />
    <glyph glyph-name="Dcroat" unicode="&#x110;" horiz-adv-x="643" 
d="M-46 41q4 19 13.5 29.5t20.5 19.5t21 20.5t14 33.5l32 148h-15q-32 0 -26 25l6 30q6 24 37 24h14l40 185q5 22 0 33.5t-12 20.5t-12 19.5t-1 29.5q5 22 21.5 31.5t41.5 9.5h231q74 0 130 -24.5t90 -70.5t44 -110.5t-7 -144.5t-54 -144.5t-90.5 -110.5t-120 -70.5
t-141.5 -24.5h-231q-25 0 -38 9.5t-8 31.5zM444 350q9 70 1.5 121.5t-24.5 85t-42.5 49.5t-52.5 16q-12 0 -22.5 -10.5t-14.5 -30.5l-43 -210h6q32 0 26 -25l-6 -29q-6 -25 -37 -25h-5l-30 -148q-6 -27 2 -46.5t30 -19.5h25q31 0 61 16t55 49.5t43.5 85t27.5 121.5z" />
    <glyph glyph-name="dcroat" unicode="&#x111;" horiz-adv-x="611" 
d="M575 754q25 0 37 -10.5t7 -38.5l-20 -90h12q32 0 26 -24l-5 -23q-4 -24 -36 -24h-12l-74 -350q-13 -59 15 -59q11 0 18 4.5t13 10t11 10t12 4.5q9 0 13 -8.5t4 -17.5q0 -23 -13.5 -48.5t-36.5 -47t-54 -35.5t-67 -14q-52 0 -73.5 28t-21.5 73q-29 -44 -69.5 -72.5
t-98.5 -28.5q-45 0 -79 20.5t-53.5 58t-23 91t10.5 119.5t40 119t61.5 90.5t78 58t90.5 20.5q51 0 79 -25t41 -65l13 64h-19q-32 0 -26 24l5 23q4 24 36 24h1q-4 5 -8 9.5t-7 10t-4 12t1 16.5q4 19 26.5 35.5t50.5 29t56 19.5t43 7zM253 107q31 0 53 22.5t41 67.5l11 54
q7 34 11.5 75.5t1.5 77.5t-16.5 60.5t-41.5 24.5q-43 0 -76.5 -52t-43.5 -146q-11 -94 8.5 -139t51.5 -45z" />
    <glyph glyph-name="Emacron" unicode="&#x112;" horiz-adv-x="535" 
d="M473 849q30 0 26 -24l-5 -23q-6 -24 -36 -24h-196q-30 0 -26 24l5 23q6 24 37 24h195zM-46 41q4 19 13.5 29.5t20.5 19.5t21 20.5t14 33.5l88 412q5 22 0 33.5t-12 20.5t-12 19.5t-1 29.5q5 22 21.5 31.5t41.5 9.5h384q25 0 38 -9.5t8 -31.5l-7 -30q-5 -25 -17.5 -39.5
t-34.5 -14.5q-19 0 -28 7.5t-16 16t-17 16t-32 7.5h-96q-11 0 -21.5 -10.5t-15.5 -30.5l-39 -185h89q22 0 35 7.5t24 16t22.5 16t30.5 7.5q23 0 29 -14.5t1 -39.5l-14 -64q-5 -25 -17.5 -39.5t-34.5 -14.5q-19 0 -28 7.5t-16 16t-17 16t-32 7.5h-89l-37 -174
q-5 -27 2.5 -46.5t30.5 -19.5h64q27 0 44.5 11t32 23.5t29.5 23.5t37 11q23 0 27.5 -14t-4.5 -37l-16 -45q-10 -23 -24.5 -37t-41.5 -14h-382q-25 0 -38 9.5t-8 31.5z" />
    <glyph glyph-name="emacron" unicode="&#x113;" horiz-adv-x="477" 
d="M444 712q30 0 26 -24l-5 -23q-6 -24 -36 -24h-196q-30 0 -26 24l5 23q6 24 37 24h195zM438 150q-4 -21 -23 -48.5t-50 -51.5t-72 -40.5t-90 -16.5q-59 0 -101 20.5t-65.5 58t-29 91t8.5 119.5t44.5 119t72.5 90.5t93.5 58t107.5 20.5q45 0 78 -13t53.5 -35t27.5 -51.5
t0 -62.5q-17 -81 -94 -123t-220 -43q0 -39 8.5 -64.5t23.5 -40.5t34 -21.5t38 -6.5q34 0 55.5 9.5t36 21.5t26 21.5t24.5 9.5q9 0 12 -6t1 -15zM297 499q-26 0 -46 -24.5t-34 -58t-22.5 -69t-11.5 -57.5q72 1 110 26t49 74q11 50 -5 79.5t-40 29.5z" />
    <glyph glyph-name="Edotaccent" unicode="&#x116;" horiz-adv-x="535" 
d="M381 877q29 0 43.5 -16.5t7.5 -46.5q-6 -31 -27.5 -47.5t-50.5 -16.5q-28 0 -43 16.5t-8 47.5q7 30 28.5 46.5t49.5 16.5zM-46 41q4 19 13.5 29.5t20.5 19.5t21 20.5t14 33.5l88 412q5 22 0 33.5t-12 20.5t-12 19.5t-1 29.5q5 22 21.5 31.5t41.5 9.5h384q25 0 38 -9.5
t8 -31.5l-7 -30q-5 -25 -17.5 -39.5t-34.5 -14.5q-19 0 -28 7.5t-16 16t-17 16t-32 7.5h-96q-11 0 -21.5 -10.5t-15.5 -30.5l-39 -185h89q22 0 35 7.5t24 16t22.5 16t30.5 7.5q23 0 29 -14.5t1 -39.5l-14 -64q-5 -25 -17.5 -39.5t-34.5 -14.5q-19 0 -28 7.5t-16 16t-17 16
t-32 7.5h-89l-37 -174q-5 -27 2.5 -46.5t30.5 -19.5h64q27 0 44.5 11t32 23.5t29.5 23.5t37 11q23 0 27.5 -14t-4.5 -37l-16 -45q-10 -23 -24.5 -37t-41.5 -14h-382q-25 0 -38 9.5t-8 31.5z" />
    <glyph glyph-name="edotaccent" unicode="&#x117;" horiz-adv-x="477" 
d="M352 740q29 0 43.5 -16.5t7.5 -46.5q-6 -31 -27.5 -47.5t-50.5 -16.5q-28 0 -43 16.5t-8 47.5q7 30 28.5 46.5t49.5 16.5zM438 150q-4 -21 -23 -48.5t-50 -51.5t-72 -40.5t-90 -16.5q-59 0 -101 20.5t-65.5 58t-29 91t8.5 119.5t44.5 119t72.5 90.5t93.5 58t107.5 20.5
q45 0 78 -13t53.5 -35t27.5 -51.5t0 -62.5q-17 -81 -94 -123t-220 -43q0 -39 8.5 -64.5t23.5 -40.5t34 -21.5t38 -6.5q34 0 55.5 9.5t36 21.5t26 21.5t24.5 9.5q9 0 12 -6t1 -15zM297 499q-26 0 -46 -24.5t-34 -58t-22.5 -69t-11.5 -57.5q72 1 110 26t49 74q11 50 -5 79.5
t-40 29.5z" />
    <glyph glyph-name="Eogonek" unicode="&#x118;" horiz-adv-x="535" 
d="M-46 41q4 19 13.5 29.5t20.5 19.5t21 20.5t14 33.5l88 412q5 22 0 33.5t-12 20.5t-12 19.5t-1 29.5q5 22 21.5 31.5t41.5 9.5h384q25 0 38 -9.5t8 -31.5l-7 -30q-5 -25 -17.5 -39.5t-34.5 -14.5q-19 0 -28 7.5t-16 16t-17 16t-32 7.5h-96q-11 0 -21.5 -10.5t-15.5 -30.5
l-39 -185h89q22 0 35 7.5t24 16t22.5 16t30.5 7.5q23 0 29 -14.5t1 -39.5l-14 -64q-5 -25 -17.5 -39.5t-34.5 -14.5q-19 0 -28 7.5t-16 16t-17 16t-32 7.5h-89l-37 -174q-5 -27 2.5 -46.5t30.5 -19.5h64q27 0 44.5 11t32 23.5t29.5 23.5t37 11q23 0 27.5 -14t-4.5 -37
l-16 -45q-10 -23 -24.5 -37t-41.5 -14h-146q-23 -32 -35.5 -56.5t-18.5 -53.5q-5 -23 2.5 -39.5t24.5 -21.5q5 -2 7 -6.5t0 -9.5l-6 -16q-5 -12 -18 -12q-53 4 -71 32.5t-8 72.5q6 29 21.5 56t39.5 54h-174q-25 0 -38 9.5t-8 31.5z" />
    <glyph glyph-name="eogonek" unicode="&#x119;" horiz-adv-x="477" 
d="M438 150q-4 -21 -22 -47t-47.5 -50t-69 -41t-86.5 -19q-21 -30 -32 -53t-17 -50q-5 -23 2 -39.5t24 -21.5q12 -3 8 -16l-6 -16q-5 -12 -18 -12q-53 4 -71 32.5t-9 72.5q12 53 59 107q-92 17 -127 92t-10 193q14 66 44.5 119t72.5 90.5t93.5 58t107.5 20.5q45 0 78 -13
t53.5 -35t27.5 -51.5t0 -62.5q-17 -81 -94 -123t-220 -43q0 -39 8.5 -64.5t23.5 -40.5t34 -21.5t38 -6.5q34 0 55.5 9.5t36 21.5t26 21.5t24.5 9.5q9 0 12 -6t1 -15zM297 499q-26 0 -46 -24.5t-34 -58t-22.5 -69t-11.5 -57.5q72 1 110 26t49 74q11 50 -5 79.5t-40 29.5z" />
    <glyph glyph-name="Gbreve" unicode="&#x11e;" horiz-adv-x="630" 
d="M502 864q6 0 9.5 -4.5t1.5 -10.5q-14 -42 -45.5 -64t-70.5 -22t-61.5 22t-18.5 64q1 6 6.5 10.5t11.5 4.5h15q10 0 12 -10q2 -14 15 -21t33 -7q21 0 37 7t23 21q7 10 16 10h16zM565 350q25 0 38 -9.5t8 -31.5q-4 -19 -13.5 -29.5t-20.5 -19.5t-20.5 -20.5t-14.5 -33.5
l-35 -165q-5 -22 -21.5 -31.5t-41.5 -9.5h-35q-28 0 -37.5 10.5t-7.5 30.5l3 33q-25 -32 -67.5 -56.5t-102.5 -24.5q-57 0 -101 24t-70.5 69t-33 109.5t10.5 146.5q19 88 57.5 156t91 114.5t115 70.5t129.5 24q56 0 99 -17t70.5 -42.5t39.5 -55.5t7 -55q-4 -20 -15.5 -35.5
t-27.5 -26.5t-35 -17t-37 -6q-29 0 -37 12t-7 35q2 60 -19.5 95t-66.5 35q-27 0 -53 -16t-49 -45t-41 -70t-29 -92q-17 -80 -15 -135t16.5 -89.5t39.5 -50t55 -15.5q20 0 35.5 7.5t26.5 19.5t17.5 26t7.5 26l1 11q2 23 -5.5 34.5t-17 20t-16 19t-2.5 29.5q5 22 21.5 31.5
t41.5 9.5h164z" />
    <glyph glyph-name="gbreve" unicode="&#x11f;" horiz-adv-x="567" 
d="M470 727q6 0 9.5 -4.5t1.5 -10.5q-14 -42 -45 -64t-71 -22q-39 0 -61.5 22t-17.5 64q1 6 6 10.5t11 4.5h16q11 0 11 -10q2 -14 15 -21t34 -7q20 0 36 7t24 21q5 10 16 10h15zM552 563q16 0 24.5 -9.5t3.5 -31.5l-103 -482q-10 -46 -32.5 -89t-58.5 -76t-85 -53t-112 -20
q-47 0 -79 10t-51.5 23.5t-27 28.5t-5.5 26q3 16 14 30.5t26 25.5t31.5 17t31.5 6q20 0 27.5 -8.5t9.5 -26.5q1 -11 3.5 -23t8.5 -22t15.5 -16.5t23.5 -6.5q26 0 48.5 26t36.5 92l22 108q-27 -42 -68 -70.5t-101 -28.5q-45 0 -78 20.5t-51 58t-20.5 91t11.5 119.5t39.5 119
t61 90.5t78.5 58t91 20.5q52 0 85 -22t51 -57q12 14 28 26.5t33.5 23t35 16.5t32.5 6zM250 93q19 0 36.5 16.5t33 46t28.5 69.5t23 87l12 53q-1 31 -9 55q-7 21 -21.5 38t-42.5 17q-49 0 -79 -52t-41 -146q-10 -94 9 -139t51 -45z" />
    <glyph glyph-name="Gdotaccent" unicode="&#x120;" horiz-adv-x="630" 
d="M439 877q28 0 42.5 -16.5t8.5 -46.5q-7 -31 -28.5 -47.5t-49.5 -16.5q-29 0 -43.5 16.5t-8.5 47.5q7 30 28.5 46.5t50.5 16.5zM565 350q25 0 38 -9.5t8 -31.5q-4 -19 -13.5 -29.5t-20.5 -19.5t-20.5 -20.5t-14.5 -33.5l-35 -165q-5 -22 -21.5 -31.5t-41.5 -9.5h-35
q-28 0 -37.5 10.5t-7.5 30.5l3 33q-25 -32 -67.5 -56.5t-102.5 -24.5q-57 0 -101 24t-70.5 69t-33 109.5t10.5 146.5q19 88 57.5 156t91 114.5t115 70.5t129.5 24q56 0 99 -17t70.5 -42.5t39.5 -55.5t7 -55q-4 -20 -15.5 -35.5t-27.5 -26.5t-35 -17t-37 -6q-29 0 -37 12
t-7 35q2 60 -19.5 95t-66.5 35q-27 0 -53 -16t-49 -45t-41 -70t-29 -92q-17 -80 -15 -135t16.5 -89.5t39.5 -50t55 -15.5q20 0 35.5 7.5t26.5 19.5t17.5 26t7.5 26l1 11q2 23 -5.5 34.5t-17 20t-16 19t-2.5 29.5q5 22 21.5 31.5t41.5 9.5h164z" />
    <glyph glyph-name="gdotaccent" unicode="&#x121;" horiz-adv-x="567" 
d="M397 740q29 0 43.5 -16.5t7.5 -46.5q-6 -31 -27.5 -47.5t-50.5 -16.5q-28 0 -43 16.5t-8 47.5q7 30 28.5 46.5t49.5 16.5zM552 563q16 0 24.5 -9.5t3.5 -31.5l-103 -482q-10 -46 -32.5 -89t-58.5 -76t-85 -53t-112 -20q-47 0 -79 10t-51.5 23.5t-27 28.5t-5.5 26
q3 16 14 30.5t26 25.5t31.5 17t31.5 6q20 0 27.5 -8.5t9.5 -26.5q1 -11 3.5 -23t8.5 -22t15.5 -16.5t23.5 -6.5q26 0 48.5 26t36.5 92l22 108q-27 -42 -68 -70.5t-101 -28.5q-45 0 -78 20.5t-51 58t-20.5 91t11.5 119.5t39.5 119t61 90.5t78.5 58t91 20.5q52 0 85 -22
t51 -57q12 14 28 26.5t33.5 23t35 16.5t32.5 6zM250 93q19 0 36.5 16.5t33 46t28.5 69.5t23 87l12 53q-1 31 -9 55q-7 21 -21.5 38t-42.5 17q-49 0 -79 -52t-41 -146q-10 -94 9 -139t51 -45z" />
    <glyph glyph-name="Imacron" unicode="&#x12a;" horiz-adv-x="313" 
d="M362 849q30 0 26 -24l-5 -23q-6 -24 -36 -24h-196q-30 0 -26 24l5 23q6 24 37 24h195zM358 659q-4 -19 -13.5 -29t-20.5 -19.5t-20.5 -21t-14.5 -33.5l-88 -412q-4 -22 0.5 -33.5t11.5 -20.5t12.5 -19.5t1.5 -29.5q-5 -22 -21.5 -31.5t-41.5 -9.5h-164q-25 0 -38 9.5
t-8 31.5q4 19 13.5 29.5t20.5 19.5t21 20.5t14 33.5l88 412q5 22 0 33.5t-12 20.5t-12 19.5t-1 29.5q5 22 21.5 31.5t41.5 9.5h163q26 0 38.5 -9.5t7.5 -31.5z" />
    <glyph glyph-name="imacron" unicode="&#x12b;" horiz-adv-x="287" 
d="M329 712q30 0 26 -24l-5 -23q-6 -24 -36 -24h-196q-30 0 -26 24l5 23q6 24 37 24h195zM265 164q9 0 13 -8.5t4 -17.5q0 -23 -13.5 -48.5t-36.5 -47t-54 -35.5t-67 -14q-33 0 -54 12.5t-31 33.5t-10.5 49t6.5 60l49 229q5 22 0 33t-12 19.5t-12.5 17t-2.5 25.5
q4 20 26.5 36.5t50.5 28.5t56 19t43 7q25 0 37.5 -10.5t6.5 -37.5l-68 -321q-13 -59 15 -59q11 0 18 4.5t13 10t11 10t12 4.5z" />
    <glyph glyph-name="Idotaccent" unicode="&#x130;" horiz-adv-x="313" 
d="M270 877q29 0 43.5 -16.5t7.5 -46.5q-6 -31 -27.5 -47.5t-50.5 -16.5q-28 0 -43 16.5t-8 47.5q7 30 28.5 46.5t49.5 16.5zM358 659q-4 -19 -13.5 -29t-20.5 -19.5t-20.5 -21t-14.5 -33.5l-88 -412q-4 -22 0.5 -33.5t11.5 -20.5t12.5 -19.5t1.5 -29.5q-5 -22 -21.5 -31.5
t-41.5 -9.5h-164q-25 0 -38 9.5t-8 31.5q4 19 13.5 29.5t20.5 19.5t21 20.5t14 33.5l88 412q5 22 0 33.5t-12 20.5t-12 19.5t-1 29.5q5 22 21.5 31.5t41.5 9.5h163q26 0 38.5 -9.5t7.5 -31.5z" />
    <glyph glyph-name="dotlessi" unicode="&#x131;" horiz-adv-x="287" 
d="M265 164q9 0 13 -8.5t4 -17.5q0 -23 -13.5 -48.5t-36.5 -47t-54 -35.5t-67 -14q-33 0 -54 12.5t-31 33.5t-10.5 49t6.5 60l49 229q5 22 0 33t-12 19.5t-12.5 17t-2.5 25.5q4 20 26.5 36.5t50.5 28.5t56 19t43 7q25 0 37.5 -10.5t6.5 -37.5l-68 -321q-13 -59 15 -59
q11 0 18 4.5t13 10t11 10t12 4.5z" />
    <glyph glyph-name="Lslash" unicode="&#x141;" horiz-adv-x="516" 
d="M-46 41q4 19 13.5 29.5t20.5 19.5t21 20.5t14 33.5l21 98h-22q-32 0 -26 25l6 30q6 24 36 24h23l50 235q5 22 0 33.5t-12 20.5t-12 19.5t-1 29.5q5 22 21 31.5t42 9.5h163q25 0 38 -9.5t8 -31.5q-4 -19 -13.5 -29.5t-20.5 -19.5t-20.5 -20.5t-14.5 -33.5l-50 -235h137
q32 0 26 -24l-6 -30q-6 -25 -37 -25h-137l-21 -98q-5 -27 2.5 -46.5t29.5 -19.5h65q27 0 45 11t32.5 23.5t29.5 23.5t37 11q23 0 27.5 -14t-4.5 -37l-17 -46q-9 -23 -24 -36.5t-42 -13.5h-382q-25 0 -38 9.5t-8 31.5z" />
    <glyph glyph-name="lslash" unicode="&#x142;" horiz-adv-x="296" 
d="M260 754q25 0 37 -10.5t7 -38.5l-83 -391h25q32 0 26 -25l-5 -22q-4 -25 -36 -25h-25l-11 -48q-12 -59 16 -59q10 0 17 4.5t13 10t11.5 10t12.5 4.5q9 0 13 -8.5t4 -17.5q0 -23 -13.5 -48.5t-36.5 -47t-54 -35.5t-67 -14q-33 0 -54 12.5t-31 33.5t-10.5 49t6.5 60l20 94
h-6q-32 0 -26 25l4 22q6 25 37 25h6l53 253q5 22 0 33.5t-12 19.5t-12.5 17t-1.5 26q4 19 26.5 35.5t50.5 29t56 19.5t43 7z" />
    <glyph glyph-name="Nacute" unicode="&#x143;" horiz-adv-x="644" 
d="M533 862q11 -15 -15 -34q-27 -18 -51 -33q-20 -14 -41 -27.5t-33 -21.5q-15 -10 -23 -10t-13 8l-6 11q-6 9 -1.5 17t16.5 18q11 8 30.5 23.5t39.5 30.5q23 18 49 38q14 9 22 9q9 0 13 -8zM690 659q-4 -19 -13.5 -29t-20.5 -19.5t-20.5 -21t-14.5 -33.5l-88 -412
q-4 -22 0.5 -33.5t11.5 -20.5t12 -19.5t1 -29.5q-5 -22 -21 -31.5t-42 -9.5h-129q-25 0 -33 10.5t-14 30.5l-141 452l-74 -349q-5 -22 0 -33.5t11.5 -20.5t12 -19.5t1.5 -29.5q-5 -22 -21.5 -31.5t-41.5 -9.5h-66q-25 0 -38 9.5t-8 31.5q4 19 13.5 29.5t20.5 19.5t21 20.5
t14 33.5l88 412q5 22 0 33.5t-12 20.5t-12 19.5t-1 29.5q5 22 21 31.5t42 9.5h128q25 0 33.5 -10.5t14.5 -30.5l141 -453l74 350q5 22 0 33.5t-11.5 20.5t-12 19.5t-1.5 29.5q5 22 21.5 31.5t41.5 9.5h66q25 0 38 -9.5t8 -31.5z" />
    <glyph glyph-name="nacute" unicode="&#x144;" horiz-adv-x="597" 
d="M470 725q10 -15 -15 -34q-27 -18 -51 -33q-20 -14 -41 -27.5t-33 -21.5q-15 -10 -23 -10q-9 0 -13 8l-7 11q-5 9 -1 17t16 18q11 8 30.5 23.5t39.5 30.5q23 18 49 38q14 9 23 9q8 0 13 -8zM49 0q-52 0 -42 41l70 336q5 22 0 33t-12 19.5t-12.5 17t-1.5 25.5
q4 20 26.5 36.5t50.5 28.5t56 19t43 7q25 0 37 -10.5t7 -37.5l-23 -106q16 32 35.5 61.5t44.5 51.5t54.5 35t65.5 13q38 0 61 -12.5t35 -33.5t13.5 -49t-5.5 -60l-47 -221q-6 -32 -2.5 -45.5t18.5 -13.5q10 0 17 4.5t13 10t11.5 10t12.5 4.5q9 0 13 -8.5t4 -17.5
q0 -23 -13.5 -48.5t-36.5 -47t-54 -35.5t-67 -14q-33 0 -54 12.5t-31 33.5t-10.5 49t6.5 60l50 236q8 38 4 55t-24 17q-19 0 -38.5 -20t-37.5 -52t-34.5 -71.5t-30.5 -79t-23.5 -74.5t-14.5 -58l-12 -60q-10 -41 -60 -41h-62z" />
    <glyph glyph-name="Ncaron" unicode="&#x147;" horiz-adv-x="644" 
d="M446 745q-9 -8 -16 -10.5t-15 -2.5t-14 2.5t-12 10.5l-61 95q-6 10 -6 17.5t10 15.5l11 9q8 6 14 6q9 0 18 -11q5 -5 14 -17t18 -23q11 -14 24 -29q19 15 36 29q15 11 29 23t21 17q13 11 22 11q7 0 11 -6l8 -9q11 -14 -10 -33zM690 659q-4 -19 -13.5 -29t-20.5 -19.5
t-20.5 -21t-14.5 -33.5l-88 -412q-4 -22 0.5 -33.5t11.5 -20.5t12 -19.5t1 -29.5q-5 -22 -21 -31.5t-42 -9.5h-129q-25 0 -33 10.5t-14 30.5l-141 452l-74 -349q-5 -22 0 -33.5t11.5 -20.5t12 -19.5t1.5 -29.5q-5 -22 -21.5 -31.5t-41.5 -9.5h-66q-25 0 -38 9.5t-8 31.5
q4 19 13.5 29.5t20.5 19.5t21 20.5t14 33.5l88 412q5 22 0 33.5t-12 20.5t-12 19.5t-1 29.5q5 22 21 31.5t42 9.5h128q25 0 33.5 -10.5t14.5 -30.5l141 -453l74 350q5 22 0 33.5t-11.5 20.5t-12 19.5t-1.5 29.5q5 22 21.5 31.5t41.5 9.5h66q25 0 38 -9.5t8 -31.5z" />
    <glyph glyph-name="ncaron" unicode="&#x148;" horiz-adv-x="597" 
d="M383 608q-10 -8 -17 -10.5t-15 -2.5t-14 2.5t-11 10.5l-62 95q-12 20 4 33l12 9q8 6 14 6q8 0 17 -11q5 -5 14 -17t19 -23q11 -14 23 -29q19 15 36 29q15 11 29 23t21 17q14 11 22 11q6 0 12 -6l7 -9q12 -13 -10 -33zM49 0q-52 0 -42 41l70 336q5 22 0 33t-12 19.5
t-12.5 17t-1.5 25.5q4 20 26.5 36.5t50.5 28.5t56 19t43 7q25 0 37 -10.5t7 -37.5l-23 -106q16 32 35.5 61.5t44.5 51.5t54.5 35t65.5 13q38 0 61 -12.5t35 -33.5t13.5 -49t-5.5 -60l-47 -221q-6 -32 -2.5 -45.5t18.5 -13.5q10 0 17 4.5t13 10t11.5 10t12.5 4.5q9 0 13 -8.5
t4 -17.5q0 -23 -13.5 -48.5t-36.5 -47t-54 -35.5t-67 -14q-33 0 -54 12.5t-31 33.5t-10.5 49t6.5 60l50 236q8 38 4 55t-24 17q-19 0 -38.5 -20t-37.5 -52t-34.5 -71.5t-30.5 -79t-23.5 -74.5t-14.5 -58l-12 -60q-10 -41 -60 -41h-62z" />
    <glyph glyph-name="Omacron" unicode="&#x14c;" horiz-adv-x="645" 
d="M548 849q32 0 26 -24l-5 -23q-6 -24 -36 -24h-196q-30 0 -26 24l5 23q6 24 37 24h195zM4 350q17 81 53 147t87 112.5t115.5 72t137.5 25.5q74 0 127.5 -25.5t84.5 -72t39 -112.5t-10 -147q-17 -81 -53 -147t-87 -112.5t-115 -72t-138 -25.5q-73 0 -126.5 25.5t-84.5 72
t-39 112.5t9 147zM445 350q9 72 6.5 124.5t-15 87t-33 51t-46.5 16.5q-25 0 -50 -16.5t-46 -51t-37.5 -87t-25.5 -124.5t-6.5 -124.5t15 -87t33 -51t46.5 -16.5t50.5 16.5t45.5 51t37.5 87t25.5 124.5z" />
    <glyph glyph-name="omacron" unicode="&#x14d;" horiz-adv-x="543" 
d="M477 712q30 0 26 -24l-5 -23q-6 -24 -36 -24h-196q-30 0 -26 24l5 23q6 24 37 24h195zM210 -7q-56 0 -99 19t-69 56t-34 91t7 123t45.5 122.5t72.5 90.5t93 56t107 19t98.5 -19t69 -56t34.5 -90.5t-7 -122.5t-45.5 -123t-72.5 -91t-93 -56t-107 -19zM298 499
q-17 0 -34 -15.5t-31.5 -43.5t-26 -68t-17.5 -90q-12 -100 5 -159t51 -59q17 0 34 15.5t31.5 44t26 68.5t17.5 90t4.5 90t-9.5 68t-21 43.5t-30 15.5z" />
    <glyph glyph-name="Ohungarumlaut" unicode="&#x150;" horiz-adv-x="645" 
d="M471 862q10 -15 -15 -34q-27 -18 -51 -33q-20 -14 -41 -27.5t-33 -21.5q-15 -10 -23 -10q-9 0 -13 8l-7 11q-5 9 -1 17t16 18q11 8 30.5 23.5t39.5 30.5q23 18 49 38q14 9 23 9q8 0 13 -8zM597 862q10 -15 -15 -34q-27 -18 -51 -33q-20 -14 -41 -27.5t-33 -21.5
q-15 -10 -23 -10q-9 0 -13 8l-7 11q-5 9 -1 17t16 18q11 8 30.5 23.5t39.5 30.5q23 18 49 38q14 9 23 9t13 -8zM4 350q17 81 53 147t87 112.5t115.5 72t137.5 25.5q74 0 127.5 -25.5t84.5 -72t39 -112.5t-10 -147q-17 -81 -53 -147t-87 -112.5t-115 -72t-138 -25.5
q-73 0 -126.5 25.5t-84.5 72t-39 112.5t9 147zM445 350q9 72 6.5 124.5t-15 87t-33 51t-46.5 16.5q-25 0 -50 -16.5t-46 -51t-37.5 -87t-25.5 -124.5t-6.5 -124.5t15 -87t33 -51t46.5 -16.5t50.5 16.5t45.5 51t37.5 87t25.5 124.5z" />
    <glyph glyph-name="ohungarumlaut" unicode="&#x151;" horiz-adv-x="543" 
d="M400 725q10 -15 -15 -34q-27 -18 -51 -33q-20 -14 -41 -27.5t-33 -21.5q-15 -10 -23 -10q-9 0 -13 8l-7 11q-5 9 -1 17t16 18q11 8 30.5 23.5t39.5 30.5q23 18 49 38q14 9 23 9q8 0 13 -8zM526 725q10 -15 -15 -34q-27 -18 -51 -33q-20 -14 -41 -27.5t-33 -21.5
q-15 -10 -23 -10q-9 0 -13 8l-7 11q-5 9 -1 17t16 18q11 8 30.5 23.5t39.5 30.5q23 18 49 38q14 9 23 9t13 -8zM210 -7q-56 0 -99 19t-69 56t-34 91t7 123t45.5 122.5t72.5 90.5t93 56t107 19t98.5 -19t69 -56t34.5 -90.5t-7 -122.5t-45.5 -123t-72.5 -91t-93 -56t-107 -19z
M298 499q-17 0 -34 -15.5t-31.5 -43.5t-26 -68t-17.5 -90q-12 -100 5 -159t51 -59q17 0 34 15.5t31.5 44t26 68.5t17.5 90t4.5 90t-9.5 68t-21 43.5t-30 15.5z" />
    <glyph glyph-name="OE" unicode="&#x152;" horiz-adv-x="938" 
d="M844 147q23 0 27.5 -14t-4.5 -37l-17 -45q-9 -23 -24 -37t-42 -14h-335q-24 0 -36.5 9t-9.5 29q-38 -22 -80 -33.5t-89 -11.5q-70 0 -120 25.5t-79 72t-36 112.5t11 147q17 81 52 147t83.5 112.5t109.5 72t130 25.5q92 0 151 -45q5 20 21.5 29t40.5 9h338q25 0 37.5 -9.5
t7.5 -31.5l-6 -30q-5 -25 -18 -39.5t-35 -14.5q-19 0 -27.5 7.5t-16 16t-17.5 16t-32 7.5h-95q-12 0 -22.5 -10.5t-14.5 -30.5l-40 -185h89q22 0 35 7.5t24 16t22.5 16t30.5 7.5q23 0 29 -14.5t1 -39.5l-14 -64q-5 -25 -17.5 -39.5t-34.5 -14.5q-19 0 -28 7.5t-16 16t-17 16
t-32 7.5h-88l-37 -174q-6 -27 2 -46.5t30 -19.5h64q27 0 45 11t32.5 23.5t29.5 23.5t37 11zM300 71q27 0 53 16.5t48 51t39 87t26 124.5t5 124.5t-17.5 87t-35.5 51t-49 16.5t-53 -16.5t-48 -51t-39 -87t-26 -124.5t-5 -124.5t17.5 -87t35.5 -51t49 -16.5z" />
    <glyph glyph-name="oe" unicode="&#x153;" horiz-adv-x="817" 
d="M761 171q8 0 11 -6t1 -15q-4 -21 -23 -48.5t-49.5 -51.5t-71.5 -40.5t-91 -16.5q-102 0 -153 60q-80 -60 -180 -60q-56 0 -99 19t-69 56t-34 91t7 123t45.5 122.5t72.5 90.5t93 56t106 19q106 0 159 -64q40 31 86 47.5t97 16.5q45 0 78 -13t53.5 -35t27.5 -51.5t0 -62.5
q-17 -81 -94 -123t-220 -43q0 -39 8.5 -64.5t23.5 -40.5t34 -21.5t38 -6.5q34 0 55.5 9.5t36.5 21.5t26.5 21.5t24.5 9.5zM632 499q-26 0 -45.5 -24.5t-34 -58t-23 -69t-11.5 -57.5q72 1 110.5 26t48.5 74q11 50 -5 79.5t-40 29.5zM240 64q17 0 34 15.5t31.5 44t26 68.5
t17.5 90q11 99 -5.5 158t-51.5 59q-17 0 -34 -15.5t-31.5 -43.5t-25.5 -68t-17 -90q-12 -100 4.5 -159t51.5 -59z" />
    <glyph glyph-name="Racute" unicode="&#x154;" horiz-adv-x="627" 
d="M465 862q10 -15 -15 -34q-27 -18 -51 -33q-20 -14 -41 -27.5t-33 -21.5q-15 -10 -23 -10q-9 0 -13 8l-7 11q-5 9 -1 17t16 18q11 8 30.5 23.5t39.5 30.5q23 18 49 38q14 9 23 9q8 0 13 -8zM500 144q9 -21 22 -32.5t24 -21t17.5 -20t2.5 -29.5q-10 -41 -60 -41h-101
q-27 0 -38 12.5t-17 28.5l-88 233h-33l-28 -130q-4 -22 0.5 -33.5t11.5 -20.5t12 -19.5t1 -29.5q-5 -22 -21 -31.5t-41 -9.5h-164q-25 0 -38 9.5t-8 31.5q4 19 13.5 29.5t20.5 19.5t21 20.5t14 33.5l88 412q5 22 0 33.5t-12 20.5t-12 19.5t-1 29.5q5 22 21 31.5t42 9.5h268
q115 0 168 -58t33 -155q-17 -75 -63.5 -125.5t-118.5 -72.5zM437 487q2 29 -4.5 53.5t-19.5 42.5t-31 28.5t-41 10.5q-38 0 -47 -41l-35 -164q-5 -27 3 -46t30 -19h29q51 0 82.5 38t33.5 97z" />
    <glyph glyph-name="racute" unicode="&#x155;" horiz-adv-x="448" 
d="M415 725q11 -15 -15 -34q-27 -18 -51 -33q-20 -14 -41 -27.5t-33 -21.5q-15 -10 -23 -10t-13 8l-6 11q-6 9 -1.5 17t16.5 18q11 8 30.5 23.5t39.5 30.5q23 18 49 38q14 9 22 9q9 0 13 -8zM487 468q-4 -17 -11.5 -34.5t-19 -31t-26.5 -22t-33 -8.5t-28.5 7.5t-18.5 16.5
t-16 16.5t-21 7.5q-10 0 -23.5 -10t-26.5 -28.5t-24.5 -45.5t-18.5 -60l-49 -235q-10 -41 -60 -41h-62q-50 0 -42 41l70 336q5 22 0 33.5t-12 19.5t-12.5 17t-1.5 25q4 20 26.5 36.5t50.5 28.5t56 19t43 7q25 0 37 -10.5t7 -37.5l-15 -70q30 52 75.5 88.5t101.5 36.5
q43 0 53.5 -28t0.5 -74z" />
    <glyph glyph-name="Rcaron" unicode="&#x158;" horiz-adv-x="627" 
d="M378 745q-10 -8 -17 -10.5t-15 -2.5t-14 2.5t-11 10.5l-62 95q-12 20 4 33l12 9q8 6 14 6q8 0 17 -11q5 -5 14 -17t19 -23q11 -14 23 -29q19 15 36 29q15 11 29 23t21 17q14 11 22 11q6 0 12 -6l7 -9q12 -13 -10 -33zM500 144q9 -21 22 -32.5t24 -21t17.5 -20t2.5 -29.5
q-10 -41 -60 -41h-101q-27 0 -38 12.5t-17 28.5l-88 233h-33l-28 -130q-4 -22 0.5 -33.5t11.5 -20.5t12 -19.5t1 -29.5q-5 -22 -21 -31.5t-41 -9.5h-164q-25 0 -38 9.5t-8 31.5q4 19 13.5 29.5t20.5 19.5t21 20.5t14 33.5l88 412q5 22 0 33.5t-12 20.5t-12 19.5t-1 29.5
q5 22 21 31.5t42 9.5h268q115 0 168 -58t33 -155q-17 -75 -63.5 -125.5t-118.5 -72.5zM437 487q2 29 -4.5 53.5t-19.5 42.5t-31 28.5t-41 10.5q-38 0 -47 -41l-35 -164q-5 -27 3 -46t30 -19h29q51 0 82.5 38t33.5 97z" />
    <glyph glyph-name="rcaron" unicode="&#x159;" horiz-adv-x="448" 
d="M328 608q-9 -8 -16 -10.5t-15 -2.5t-14 2.5t-12 10.5l-61 95q-6 10 -6 17.5t10 15.5l11 9q8 6 14 6q9 0 18 -11q5 -5 14 -17t18 -23q11 -14 24 -29q19 15 36 29q15 11 29 23t21 17q13 11 22 11q7 0 11 -6l8 -9q11 -14 -10 -33zM487 468q-4 -17 -11.5 -34.5t-19 -31
t-26.5 -22t-33 -8.5t-28.5 7.5t-18.5 16.5t-16 16.5t-21 7.5q-10 0 -23.5 -10t-26.5 -28.5t-24.5 -45.5t-18.5 -60l-49 -235q-10 -41 -60 -41h-62q-50 0 -42 41l70 336q5 22 0 33.5t-12 19.5t-12.5 17t-1.5 25q4 20 26.5 36.5t50.5 28.5t56 19t43 7q25 0 37 -10.5t7 -37.5
l-15 -70q30 52 75.5 88.5t101.5 36.5q43 0 53.5 -28t0.5 -74z" />
    <glyph glyph-name="Sacute" unicode="&#x15a;" horiz-adv-x="552" 
d="M467 862q11 -15 -15 -34q-27 -18 -51 -33q-20 -14 -41 -27.5t-33 -21.5q-15 -10 -23 -10t-13 8l-6 11q-6 9 -1.5 17t16.5 18q11 8 30.5 23.5t39.5 30.5q23 18 49 38q14 9 22 9q9 0 13 -8zM246 560q-6 -30 13 -53.5t51 -45t70 -44.5t68 -52.5t46.5 -68.5t4.5 -93
q-9 -42 -33.5 -80t-63 -67t-90.5 -46t-117 -17q-58 0 -101 16t-71 39.5t-39.5 51t-6.5 49.5q4 20 15.5 35.5t27.5 26.5t34.5 17t36.5 6q29 0 36.5 -12t8.5 -35q1 -25 6 -46t15.5 -36.5t27 -24.5t40.5 -9q32 0 56.5 22t32.5 61q8 36 -11 63t-50.5 50.5t-69 46.5t-68.5 51
t-47.5 63.5t-6.5 83.5q8 40 32.5 75.5t62 62t88 42t110.5 15.5q52 0 94 -14.5t70 -36t41 -48t8 -50.5q-4 -20 -15.5 -35.5t-27 -26.5t-34.5 -17t-37 -6q-15 0 -23.5 3t-13 9t-6 15t-2.5 20q-2 50 -20.5 79.5t-62.5 29.5q-29 0 -50.5 -18.5t-28.5 -50.5z" />
    <glyph glyph-name="sacute" unicode="&#x15b;" horiz-adv-x="481" 
d="M432 725q10 -15 -15 -34q-27 -18 -51 -33q-20 -14 -41 -27.5t-33 -21.5q-15 -10 -23 -10q-9 0 -13 8l-7 11q-5 9 -1 17t16 18q11 8 30.5 23.5t39.5 30.5q23 18 49 38q14 9 23 9q8 0 13 -8zM237 452q-5 -25 11 -44t42 -36.5t57 -36t56 -42.5t38 -55.5t4 -74.5
q-7 -34 -28 -64.5t-54 -54t-76.5 -37.5t-97.5 -14q-43 0 -79 12t-60 30t-35.5 40.5t-7.5 43.5q3 17 15.5 31t29 25t34.5 17t33 6q23 0 29.5 -12t5.5 -31q-2 -48 13.5 -69.5t47.5 -21.5q29 0 49.5 15.5t26.5 43.5q6 29 -9.5 50.5t-41 40.5t-56.5 38t-56.5 41.5t-39 51
t-5.5 67.5q7 32 26.5 61t50.5 50.5t71.5 34t89.5 12.5q42 0 76 -10.5t57 -27t34 -36t7 -38.5q-4 -16 -16.5 -30.5t-29 -25t-34 -16.5t-32.5 -6q-24 0 -29.5 12t-6.5 30q-2 43 -16.5 60t-39.5 17q-14 0 -31.5 -12t-22.5 -35z" />
    <glyph glyph-name="Scedilla" unicode="&#x15e;" horiz-adv-x="552" 
d="M246 560q-6 -30 13 -53.5t51 -45t70 -44.5t68 -52.5t46.5 -68.5t4.5 -93q-9 -42 -33.5 -80t-63 -67t-90.5 -46t-117 -17h-9l-17 -43q10 6 22 10t26 4q42 0 57 -26t7 -68q-5 -21 -16 -42.5t-28 -38t-40 -27t-51 -10.5q-29 0 -47 11t-27 21q-5 5 -3.5 12.5t7.5 12.5l8 7
q6 6 13.5 6.5t11.5 -4.5q7 -8 18 -15.5t28 -7.5t33.5 23t18.5 57q3 33 -5.5 42.5t-18.5 9.5q-11 0 -18.5 -7.5t-14.5 -16.5t-14.5 -16.5t-18.5 -7.5h-9q-23 0 -14 25l38 95q-42 8 -73 25t-50.5 38.5t-27.5 44.5t-4 42q4 20 15.5 35.5t27.5 26.5t34.5 17t36.5 6
q29 0 36.5 -12t8.5 -35q1 -25 6 -46t15.5 -36.5t27 -24.5t40.5 -9q32 0 56.5 22t32.5 61q8 36 -11 63t-50.5 50.5t-69 46.5t-68.5 51t-47.5 63.5t-6.5 83.5q8 40 32.5 75.5t62 62t88 42t110.5 15.5q52 0 94 -14.5t70 -36t41 -48t8 -50.5q-4 -20 -15.5 -35.5t-27 -26.5
t-34.5 -17t-37 -6q-15 0 -23.5 3t-13 9t-6 15t-2.5 20q-2 50 -20.5 79.5t-62.5 29.5q-29 0 -50.5 -18.5t-28.5 -50.5z" />
    <glyph glyph-name="scedilla" unicode="&#x15f;" horiz-adv-x="481" 
d="M237 452q-5 -25 11 -44t42 -36.5t57 -35.5t56 -42t38 -55.5t4 -75.5q-7 -34 -28 -64.5t-53.5 -54t-76 -37.5t-96.5 -14l-17 -43q9 6 21 10t26 4q42 0 57.5 -26t6.5 -68q-4 -21 -15 -42.5t-28 -38t-40 -27t-51 -10.5q-29 0 -47.5 11t-27.5 21q-5 5 -3.5 12.5t7.5 12.5l8 7
q6 6 13.5 6.5t12.5 -4.5q7 -8 18 -15.5t27 -7.5q18 0 34 23t19 57q3 33 -6 42.5t-18 9.5q-11 0 -19 -7.5t-14.5 -16.5t-14.5 -16.5t-19 -7.5h-8q-24 0 -15 25l38 94q-32 6 -57.5 19.5t-43 30t-25 35t-3.5 36.5q3 17 15.5 31t29 25t34.5 17t33 6q23 0 29.5 -12t5.5 -31
q-2 -48 13.5 -69.5t47.5 -21.5q29 0 49.5 15.5t26.5 43.5q6 29 -9.5 50.5t-41 40.5t-56.5 38t-56.5 41.5t-39 51t-5.5 67.5q7 32 26.5 61t50.5 50.5t71.5 34t89.5 12.5q42 0 76 -10.5t57 -27t34 -36t7 -38.5q-4 -16 -16.5 -30.5t-29 -25t-34 -16.5t-32.5 -6q-24 0 -29.5 12
t-6.5 30q-2 43 -16.5 60t-39.5 17q-14 0 -31.5 -12t-22.5 -35z" />
    <glyph glyph-name="Scaron" unicode="&#x160;" horiz-adv-x="552" 
d="M380 745q-9 -8 -16 -10.5t-15 -2.5t-14 2.5t-12 10.5l-61 95q-6 10 -6 17.5t10 15.5l11 9q8 6 14 6q9 0 18 -11q5 -5 14 -17t18 -23q11 -14 24 -29q19 15 36 29q15 11 29 23t21 17q13 11 22 11q7 0 11 -6l8 -9q11 -14 -10 -33zM246 560q-6 -30 13 -53.5t51 -45t70 -44.5
t68 -52.5t46.5 -68.5t4.5 -93q-9 -42 -33.5 -80t-63 -67t-90.5 -46t-117 -17q-58 0 -101 16t-71 39.5t-39.5 51t-6.5 49.5q4 20 15.5 35.5t27.5 26.5t34.5 17t36.5 6q29 0 36.5 -12t8.5 -35q1 -25 6 -46t15.5 -36.5t27 -24.5t40.5 -9q32 0 56.5 22t32.5 61q8 36 -11 63
t-50.5 50.5t-69 46.5t-68.5 51t-47.5 63.5t-6.5 83.5q8 40 32.5 75.5t62 62t88 42t110.5 15.5q52 0 94 -14.5t70 -36t41 -48t8 -50.5q-4 -20 -15.5 -35.5t-27 -26.5t-34.5 -17t-37 -6q-15 0 -23.5 3t-13 9t-6 15t-2.5 20q-2 50 -20.5 79.5t-62.5 29.5q-29 0 -50.5 -18.5
t-28.5 -50.5z" />
    <glyph glyph-name="scaron" unicode="&#x161;" horiz-adv-x="481" 
d="M345 608q-10 -8 -17 -10.5t-15 -2.5t-14 2.5t-11 10.5l-62 95q-12 20 4 33l12 9q8 6 14 6q8 0 17 -11q5 -5 14 -17t19 -23q11 -14 23 -29q19 15 36 29q15 11 29 23t21 17q14 11 22 11q6 0 12 -6l7 -9q12 -13 -10 -33zM237 452q-5 -25 11 -44t42 -36.5t57 -36t56 -42.5
t38 -55.5t4 -74.5q-7 -34 -28 -64.5t-54 -54t-76.5 -37.5t-97.5 -14q-43 0 -79 12t-60 30t-35.5 40.5t-7.5 43.5q3 17 15.5 31t29 25t34.5 17t33 6q23 0 29.5 -12t5.5 -31q-2 -48 13.5 -69.5t47.5 -21.5q29 0 49.5 15.5t26.5 43.5q6 29 -9.5 50.5t-41 40.5t-56.5 38
t-56.5 41.5t-39 51t-5.5 67.5q7 32 26.5 61t50.5 50.5t71.5 34t89.5 12.5q42 0 76 -10.5t57 -27t34 -36t7 -38.5q-4 -16 -16.5 -30.5t-29 -25t-34 -16.5t-32.5 -6q-24 0 -29.5 12t-6.5 30q-2 43 -16.5 60t-39.5 17q-14 0 -31.5 -12t-22.5 -35z" />
    <glyph glyph-name="Umacron" unicode="&#x16a;" horiz-adv-x="649" 
d="M550 849q32 0 26 -24l-5 -23q-6 -24 -36 -24h-196q-30 0 -26 24l5 23q6 24 37 24h195zM654 700q25 0 37.5 -9.5t7.5 -31.5q-4 -19 -13.5 -29t-20 -19.5t-20 -21t-14.5 -33.5l-75 -350q-10 -48 -36 -87.5t-65 -67t-89 -43t-108 -15.5q-62 0 -109 15t-76.5 43t-40.5 67
t-1 88l75 350q5 22 0 33.5t-12 20.5t-12 19.5t-1 29.5q5 22 21 31.5t42 9.5h163q25 0 38 -9.5t8 -31.5q-4 -19 -13.5 -29.5t-20.5 -19.5t-20.5 -20.5t-14.5 -33.5l-70 -329q-6 -30 -3 -55.5t16 -44.5t36.5 -30t57.5 -11q33 0 59.5 10.5t47 29t33.5 43t19 51.5l71 336
q5 22 0 33.5t-12 20.5t-12 19.5t-1 29.5q5 22 21.5 31.5t41.5 9.5h65z" />
    <glyph glyph-name="umacron" unicode="&#x16b;" horiz-adv-x="582" 
d="M436 712q32 0 26 -24l-4 -23q-6 -24 -37 -24h-195q-32 0 -26 24l5 23q4 24 36 24h195zM560 164q9 0 13 -8.5t4 -17.5q0 -23 -13.5 -48.5t-36.5 -47t-54 -35.5t-67 -14q-28 0 -47.5 9t-30.5 25t-14.5 37.5t-1.5 46.5q-31 -50 -76.5 -84t-110.5 -34q-37 0 -60.5 12.5
t-35 33.5t-13 49t5.5 60l48 229q5 22 0 33t-12 19.5t-12.5 17t-1.5 25.5q4 20 26.5 36.5t50.5 28.5t56 19t43 7q25 0 37 -10.5t6 -37.5l-71 -336q-8 -38 -2 -55t29 -17q24 0 45 19t38.5 49t30 66.5t19.5 70.5l14 65q5 22 0 33t-12 19.5t-12.5 17t-2.5 25.5q4 20 26.5 36.5
t50.5 28.5t56 19t43 7q25 0 37.5 -10.5t6.5 -37.5l-68 -321q-13 -59 15 -59q11 0 18 4.5t13 10t11 10t12 4.5z" />
    <glyph glyph-name="Uring" unicode="&#x16e;" horiz-adv-x="649" 
d="M466 900q43 0 65.5 -26t11.5 -74t-44 -74.5t-76 -26.5t-65.5 26.5t-11.5 74.5t44 74t76 26zM430 731q29 0 51.5 18t30.5 51q7 33 -8.5 50.5t-44.5 17.5t-51.5 -17.5t-30.5 -50.5q-7 -33 8.5 -51t44.5 -18zM654 700q25 0 37.5 -9.5t7.5 -31.5q-4 -19 -13.5 -29t-20 -19.5
t-20 -21t-14.5 -33.5l-75 -350q-10 -48 -36 -87.5t-65 -67t-89 -43t-108 -15.5q-62 0 -109 15t-76.5 43t-40.5 67t-1 88l75 350q5 22 0 33.5t-12 20.5t-12 19.5t-1 29.5q5 22 21 31.5t42 9.5h163q25 0 38 -9.5t8 -31.5q-4 -19 -13.5 -29.5t-20.5 -19.5t-20.5 -20.5
t-14.5 -33.5l-70 -329q-6 -30 -3 -55.5t16 -44.5t36.5 -30t57.5 -11q33 0 59.5 10.5t47 29t33.5 43t19 51.5l71 336q5 22 0 33.5t-12 20.5t-12 19.5t-1 29.5q5 22 21.5 31.5t41.5 9.5h65z" />
    <glyph glyph-name="uring" unicode="&#x16f;" horiz-adv-x="582" 
d="M352 763q43 0 65.5 -26t11.5 -74q-10 -48 -43 -74.5t-76 -26.5t-65.5 26.5t-11.5 74.5q10 48 43 74t76 26zM316 594q29 0 52 18t30 51q8 33 -7.5 50.5t-44.5 17.5t-52 -17.5t-30 -50.5t8 -51t44 -18zM560 164q9 0 13 -8.5t4 -17.5q0 -23 -13.5 -48.5t-36.5 -47t-54 -35.5
t-67 -14q-28 0 -47.5 9t-30.5 25t-14.5 37.5t-1.5 46.5q-31 -50 -76.5 -84t-110.5 -34q-37 0 -60.5 12.5t-35 33.5t-13 49t5.5 60l48 229q5 22 0 33t-12 19.5t-12.5 17t-1.5 25.5q4 20 26.5 36.5t50.5 28.5t56 19t43 7q25 0 37 -10.5t6 -37.5l-71 -336q-8 -38 -2 -55t29 -17
q24 0 45 19t38.5 49t30 66.5t19.5 70.5l14 65q5 22 0 33t-12 19.5t-12.5 17t-2.5 25.5q4 20 26.5 36.5t50.5 28.5t56 19t43 7q25 0 37.5 -10.5t6.5 -37.5l-68 -321q-13 -59 15 -59q11 0 18 4.5t13 10t11 10t12 4.5z" />
    <glyph glyph-name="Uhungarumlaut" unicode="&#x170;" horiz-adv-x="649" 
d="M473 862q10 -15 -15 -34q-27 -18 -51 -33q-20 -14 -41 -27.5t-33 -21.5q-15 -10 -23 -10q-9 0 -13 8l-7 11q-5 9 -1 17t16 18q11 8 30.5 23.5t39.5 30.5q23 18 49 38q14 9 23 9q8 0 13 -8zM599 862q10 -15 -15 -34q-27 -18 -51 -33q-20 -14 -41 -27.5t-33 -21.5
q-15 -10 -23 -10q-9 0 -13 8l-7 11q-5 9 -1 17t16 18q11 8 30.5 23.5t39.5 30.5q23 18 49 38q14 9 23 9t13 -8zM654 700q25 0 37.5 -9.5t7.5 -31.5q-4 -19 -13.5 -29t-20 -19.5t-20 -21t-14.5 -33.5l-75 -350q-10 -48 -36 -87.5t-65 -67t-89 -43t-108 -15.5q-62 0 -109 15
t-76.5 43t-40.5 67t-1 88l75 350q5 22 0 33.5t-12 20.5t-12 19.5t-1 29.5q5 22 21 31.5t42 9.5h163q25 0 38 -9.5t8 -31.5q-4 -19 -13.5 -29.5t-20.5 -19.5t-20.5 -20.5t-14.5 -33.5l-70 -329q-6 -30 -3 -55.5t16 -44.5t36.5 -30t57.5 -11q33 0 59.5 10.5t47 29t33.5 43
t19 51.5l71 336q5 22 0 33.5t-12 20.5t-12 19.5t-1 29.5q5 22 21.5 31.5t41.5 9.5h65z" />
    <glyph glyph-name="uhungarumlaut" unicode="&#x171;" horiz-adv-x="582" 
d="M359 725q11 -15 -15 -34q-27 -18 -51 -33q-20 -14 -41 -27.5t-33 -21.5q-15 -10 -23 -10t-13 8l-6 11q-6 9 -2 17t17 18q11 8 30.5 23.5t39.5 30.5q23 18 49 38q14 9 22 9q9 0 13 -8zM485 725q11 -15 -15 -34q-27 -18 -50 -33q-21 -14 -42 -27.5t-33 -21.5
q-15 -10 -23 -10t-12 8l-7 11q-6 9 -1.5 17t16.5 18q11 8 30.5 23.5t39.5 30.5q23 18 49 38q14 9 22 9q9 0 13 -8zM560 164q9 0 13 -8.5t4 -17.5q0 -23 -13.5 -48.5t-36.5 -47t-54 -35.5t-67 -14q-28 0 -47.5 9t-30.5 25t-14.5 37.5t-1.5 46.5q-31 -50 -76.5 -84t-110.5 -34
q-37 0 -60.5 12.5t-35 33.5t-13 49t5.5 60l48 229q5 22 0 33t-12 19.5t-12.5 17t-1.5 25.5q4 20 26.5 36.5t50.5 28.5t56 19t43 7q25 0 37 -10.5t6 -37.5l-71 -336q-8 -38 -2 -55t29 -17q24 0 45 19t38.5 49t30 66.5t19.5 70.5l14 65q5 22 0 33t-12 19.5t-12.5 17t-2.5 25.5
q4 20 26.5 36.5t50.5 28.5t56 19t43 7q25 0 37.5 -10.5t6.5 -37.5l-68 -321q-13 -59 15 -59q11 0 18 4.5t13 10t11 10t12 4.5z" />
    <glyph glyph-name="Uogonek" unicode="&#x172;" horiz-adv-x="649" 
d="M654 700q25 0 37.5 -9.5t7.5 -31.5q-4 -19 -13.5 -29.5t-20 -19.5t-20 -20.5t-14.5 -33.5l-75 -350q-19 -88 -87.5 -144t-169.5 -67q-22 -31 -33.5 -54.5t-16.5 -50.5q-5 -23 2 -39.5t24 -21.5q12 -4 7 -16l-6 -16q-5 -12 -17 -12q-54 4 -71.5 32.5t-8.5 72.5
q5 27 19.5 52.5t36.5 50.5q-56 3 -98.5 19t-69.5 44t-36.5 66t0.5 84l75 350q5 22 0 33.5t-12 20.5t-12 19.5t-1 29.5q5 22 21 31.5t42 9.5h163q25 0 38 -9.5t8 -31.5q-4 -19 -13.5 -29.5t-20.5 -19.5t-20.5 -20.5t-14.5 -33.5l-70 -329q-6 -30 -3 -55.5t16 -44.5t36.5 -30
t57.5 -11q33 0 59.5 10.5t47 29t33.5 43t19 51.5l71 336q5 22 0 33.5t-12 20.5t-12 19.5t-1 29.5q5 22 21.5 31.5t41.5 9.5h65z" />
    <glyph glyph-name="uogonek" unicode="&#x173;" horiz-adv-x="582" 
d="M560 164q9 0 13 -8.5t4 -17.5q0 -23 -13.5 -48.5t-36.5 -47t-54 -35.5t-67 -14h-3q-20 -30 -31.5 -53t-16.5 -50q-5 -23 2 -39.5t24 -21.5q12 -4 7 -16l-6 -16q-2 -5 -7 -8.5t-10 -3.5q-53 4 -71 32.5t-9 72.5q7 30 24 58.5t43 57.5q-25 14 -34 42t-6 63
q-31 -50 -76.5 -84t-110.5 -34q-37 0 -60.5 12.5t-35 33.5t-13 49t5.5 60l48 229q5 22 0 33t-12 19.5t-12.5 17t-1.5 25.5q4 20 26.5 36.5t50.5 28.5t56 19t43 7q25 0 37 -10.5t6 -37.5l-71 -336q-8 -38 -2 -55t29 -17q24 0 45 19t38.5 49t30 66.5t19.5 70.5l14 65
q5 22 0 33t-12 19.5t-12.5 17t-2.5 25.5q4 20 26.5 36.5t50.5 28.5t56 19t43 7q25 0 37.5 -10.5t6.5 -37.5l-68 -321q-13 -59 15 -59q11 0 18 4.5t13 10t11 10t12 4.5z" />
    <glyph glyph-name="Ydieresis" unicode="&#x178;" horiz-adv-x="596" 
d="M350 877q29 0 43.5 -16.5t8.5 -46.5q-7 -31 -28.5 -47.5t-50.5 -16.5q-28 0 -42.5 16.5t-8.5 47.5q7 30 28.5 46.5t49.5 16.5zM513 877q28 0 42.5 -16.5t8.5 -46.5q-7 -31 -28.5 -47.5t-49.5 -16.5q-29 0 -43.5 16.5t-7.5 47.5q6 30 27.5 46.5t50.5 16.5zM628 700
q20 0 31.5 -10.5t6.5 -30.5q-3 -15 -11 -25t-19.5 -20t-26.5 -23t-32 -35l-191 -244l-36 -168q-4 -22 0.5 -33.5t11.5 -20.5t12 -19.5t1 -29.5q-5 -22 -21.5 -31.5t-41.5 -9.5h-163q-26 0 -38.5 9.5t-7.5 31.5q4 19 13.5 29.5t20.5 19.5t21 20.5t14 33.5l33 156l-99 256
q-7 20 -16.5 32.5t-17 22.5t-11.5 21t0 27q4 20 19.5 30.5t35.5 10.5h184q28 0 39.5 -9t6.5 -32q-3 -16 -12.5 -27t-17.5 -22.5t-10.5 -26.5t7.5 -41l54 -136l106 136q23 29 27 45t0.5 26.5t-9 20t-2.5 25.5q5 23 20.5 32t43.5 9h75z" />
    <glyph glyph-name="Zacute" unicode="&#x179;" horiz-adv-x="546" 
d="M454 862q11 -15 -15 -34q-27 -18 -51 -33q-20 -14 -41 -27.5t-33 -21.5q-15 -10 -23 -10t-13 8l-6 11q-6 9 -1.5 17t16.5 18q11 8 30.5 23.5t39.5 30.5q23 18 49 38q14 9 22 9q9 0 13 -8zM457 147q23 0 28 -13.5t-5 -37.5l-15 -38q-9 -23 -24.5 -40.5t-43.5 -17.5h-416
q-50 0 -42 41q3 12 9 22.5t15 21.5t20.5 24.5t25.5 32.5l360 480h-148q-22 0 -35 -7.5t-24 -16t-23 -16t-31 -7.5q-22 0 -28 14.5t-1 39.5l6 30q5 22 21.5 31.5t41.5 9.5h397q50 0 42 -41q-3 -12 -8 -21.5t-13 -21t-19.5 -25t-26.5 -33.5l-362 -480h156q27 0 44.5 11
t32 23.5t29.5 23.5t37 11z" />
    <glyph glyph-name="zacute" unicode="&#x17a;" horiz-adv-x="483" 
d="M453 725q10 -15 -15 -34q-27 -18 -51 -33q-20 -14 -41 -27.5t-33 -21.5q-15 -10 -23 -10q-9 0 -13 8l-7 11q-5 9 -1 17t16 18q11 8 30.5 23.5t39.5 30.5q23 18 49 38q14 9 23 9q8 0 13 -8zM501 563q13 0 16 -8t-10 -23l-325 -374q29 20 65 20q20 0 37 -6.5t34 -15t35 -15
t39 -6.5q14 0 22.5 4.5t14.5 10t11 10t12 4.5q9 0 13 -9t4 -17q0 -24 -8.5 -49.5t-25 -46.5t-40.5 -35t-56 -14q-25 0 -50.5 8.5t-51 18.5t-51.5 18.5t-53 8.5q-24 0 -43.5 -8t-34.5 -22q-19 -17 -42 -17h-21q-13 0 -16 8t10 23l325 374q-14 -9 -30 -14.5t-34 -5.5
q-19 0 -36 6.5t-33.5 15t-33 15t-36.5 6.5q-13 0 -21.5 -4.5t-14.5 -10t-11.5 -10t-12.5 -4.5q-9 0 -13 9t-4 17q0 24 8.5 49.5t25 46.5t41 35t55.5 14q24 0 48 -8.5t48.5 -18.5t50 -18.5t52.5 -8.5q24 0 43.5 8.5t35.5 22.5q18 16 41 16h21z" />
    <glyph glyph-name="Zdotaccent" unicode="&#x17b;" horiz-adv-x="546" 
d="M377 877q28 0 42.5 -16.5t8.5 -46.5q-7 -31 -28.5 -47.5t-49.5 -16.5q-29 0 -43.5 16.5t-8.5 47.5q7 30 28.5 46.5t50.5 16.5zM457 147q23 0 28 -13.5t-5 -37.5l-15 -38q-9 -23 -24.5 -40.5t-43.5 -17.5h-416q-50 0 -42 41q3 12 9 22.5t15 21.5t20.5 24.5t25.5 32.5
l360 480h-148q-22 0 -35 -7.5t-24 -16t-23 -16t-31 -7.5q-22 0 -28 14.5t-1 39.5l6 30q5 22 21.5 31.5t41.5 9.5h397q50 0 42 -41q-3 -12 -8 -21.5t-13 -21t-19.5 -25t-26.5 -33.5l-362 -480h156q27 0 44.5 11t32 23.5t29.5 23.5t37 11z" />
    <glyph glyph-name="zdotaccent" unicode="&#x17c;" horiz-adv-x="483" 
d="M375 740q29 0 43.5 -16.5t7.5 -46.5q-6 -31 -27.5 -47.5t-50.5 -16.5q-28 0 -43 16.5t-8 47.5q7 30 28.5 46.5t49.5 16.5zM501 563q13 0 16 -8t-10 -23l-325 -374q29 20 65 20q20 0 37 -6.5t34 -15t35 -15t39 -6.5q14 0 22.5 4.5t14.5 10t11 10t12 4.5q9 0 13 -9t4 -17
q0 -24 -8.5 -49.5t-25 -46.5t-40.5 -35t-56 -14q-25 0 -50.5 8.5t-51 18.5t-51.5 18.5t-53 8.5q-24 0 -43.5 -8t-34.5 -22q-19 -17 -42 -17h-21q-13 0 -16 8t10 23l325 374q-14 -9 -30 -14.5t-34 -5.5q-19 0 -36 6.5t-33.5 15t-33 15t-36.5 6.5q-13 0 -21.5 -4.5t-14.5 -10
t-11.5 -10t-12.5 -4.5q-9 0 -13 9t-4 17q0 24 8.5 49.5t25 46.5t41 35t55.5 14q24 0 48 -8.5t48.5 -18.5t50 -18.5t52.5 -8.5q24 0 43.5 8.5t35.5 22.5q18 16 41 16h21z" />
    <glyph glyph-name="Zcaron" unicode="&#x17d;" horiz-adv-x="546" 
d="M367 745q-9 -8 -16 -10.5t-15 -2.5t-14 2.5t-12 10.5l-61 95q-6 10 -6 17.5t10 15.5l11 9q8 6 14 6q9 0 18 -11q5 -5 14 -17t18 -23q11 -14 24 -29q19 15 36 29q15 11 29 23t21 17q13 11 22 11q7 0 11 -6l8 -9q11 -14 -10 -33zM457 147q23 0 28 -13.5t-5 -37.5l-15 -38
q-9 -23 -24.5 -40.5t-43.5 -17.5h-416q-50 0 -42 41q3 12 9 22.5t15 21.5t20.5 24.5t25.5 32.5l360 480h-148q-22 0 -35 -7.5t-24 -16t-23 -16t-31 -7.5q-22 0 -28 14.5t-1 39.5l6 30q5 22 21.5 31.5t41.5 9.5h397q50 0 42 -41q-3 -12 -8 -21.5t-13 -21t-19.5 -25
t-26.5 -33.5l-362 -480h156q27 0 44.5 11t32 23.5t29.5 23.5t37 11z" />
    <glyph glyph-name="zcaron" unicode="&#x17e;" horiz-adv-x="483" 
d="M366 608q-10 -8 -17 -10.5t-15 -2.5t-14 2.5t-11 10.5l-62 95q-12 20 4 33l12 9q8 6 14 6q8 0 17 -11q5 -5 14 -17t19 -23q11 -14 23 -29q19 15 36 29q15 11 29 23t21 17q14 11 22 11q6 0 12 -6l7 -9q12 -13 -10 -33zM501 563q13 0 16 -8t-10 -23l-325 -374q29 20 65 20
q20 0 37 -6.5t34 -15t35 -15t39 -6.5q14 0 22.5 4.5t14.5 10t11 10t12 4.5q9 0 13 -9t4 -17q0 -24 -8.5 -49.5t-25 -46.5t-40.5 -35t-56 -14q-25 0 -50.5 8.5t-51 18.5t-51.5 18.5t-53 8.5q-24 0 -43.5 -8t-34.5 -22q-19 -17 -42 -17h-21q-13 0 -16 8t10 23l325 374
q-14 -9 -30 -14.5t-34 -5.5q-19 0 -36 6.5t-33.5 15t-33 15t-36.5 6.5q-13 0 -21.5 -4.5t-14.5 -10t-11.5 -10t-12.5 -4.5q-9 0 -13 9t-4 17q0 24 8.5 49.5t25 46.5t41 35t55.5 14q24 0 48 -8.5t48.5 -18.5t50 -18.5t52.5 -8.5q24 0 43.5 8.5t35.5 22.5q18 16 41 16h21z" />
    <glyph glyph-name="florin" unicode="&#x192;" horiz-adv-x="333" 
d="M86 492h-44q-32 0 -26 24l5 23q6 24 36 24h45q7 35 25 70t47 63.5t68.5 46.5t89.5 18q39 0 66 -10t42.5 -23.5t21.5 -28.5t4 -26q-3 -16 -14 -30.5t-26 -25.5t-31.5 -17t-31.5 -6q-20 0 -27.5 8.5t-9.5 26.5q-1 11 -2.5 23t-5 22t-9.5 16.5t-16 6.5q-11 0 -22 -12
t-16 -36q-3 -15 -3 -30t2 -28q1 -15 4 -28h87q32 0 26 -24l-5 -23q-4 -24 -36 -24h-80l-104 -492q-7 -35 -25.5 -70t-47.5 -63.5t-68.5 -46.5t-89.5 -18q-39 0 -65.5 10t-42.5 23.5t-22 28.5t-4 26q3 16 14 30.5t26 25.5t31.5 17t31.5 6q20 0 27.5 -8.5t9.5 -26.5
q1 -11 2 -23t4 -22t8.5 -16.5t15.5 -6.5q23 0 31 34q8 40 9 94t15 120z" />
    <glyph glyph-name="circumflex" unicode="&#x2c6;" horiz-adv-x="270" 
d="M255 646q6 -10 6 -17.5t-10 -15.5l-11 -8q-7 -6 -14 -6q-9 0 -17 11q-5 5 -14 16.5t-19 23.5q-11 13 -24 29q-19 -16 -36 -29q-14 -12 -28.5 -23.5t-21.5 -16.5q-13 -11 -22 -11q-6 0 -11 6l-8 8q-6 8 -3 15.5t13 17.5l102 95q9 8 16 11t15 3t14 -3t12 -11z" />
    <glyph glyph-name="caron" unicode="&#x2c7;" horiz-adv-x="270" 
d="M146 608q-9 -8 -16 -10.5t-15 -2.5t-14 2.5t-12 10.5l-61 95q-6 10 -6 17.5t10 15.5l11 9q8 6 14 6q9 0 17 -11q5 -5 14 -17t19 -23q11 -14 24 -29q19 15 36 29q15 11 29 23t21 17q13 11 22 11q7 0 11 -6l8 -9q10 -13 -10 -33z" />
    <glyph glyph-name="breve" unicode="&#x2d8;" horiz-adv-x="226" 
d="M207 727q6 0 9.5 -4.5t1.5 -10.5q-14 -42 -45.5 -64t-70.5 -22t-61.5 22t-18.5 64q1 6 6.5 10.5t11.5 4.5h15q10 0 12 -10q2 -14 15 -21t33 -7q21 0 37 7t23 21q7 10 16 10h16z" />
    <glyph glyph-name="dotaccent" unicode="&#x2d9;" horiz-adv-x="161" 
d="M92 740q28 0 43 -16.5t8 -46.5q-7 -31 -28.5 -47.5t-49.5 -16.5q-29 0 -43.5 16.5t-7.5 47.5q6 30 27.5 46.5t50.5 16.5z" />
    <glyph glyph-name="ring" unicode="&#x2da;" horiz-adv-x="228" 
d="M129 763q43 0 65.5 -26t11.5 -74t-44 -74.5t-76 -26.5t-65 26.5t-12 74.5q11 48 44 74t76 26zM93 594q29 0 52 18t30 51t-8.5 50.5t-44.5 17.5t-51.5 -17.5t-30.5 -50.5q-7 -33 8.5 -51t44.5 -18z" />
    <glyph glyph-name="ogonek" unicode="&#x2db;" horiz-adv-x="151" 
d="M82 -171q12 -4 7 -16l-6 -16q-5 -12 -18 -12q-53 4 -71 32.5t-8 73.5q8 38 33 73.5t65 72.5q4 4 11 4h21q8 0 10.5 -6.5t-2.5 -14.5q-31 -41 -46 -69.5t-23 -59.5q-5 -24 2.5 -40.5t24.5 -21.5z" />
    <glyph glyph-name="tilde" unicode="&#x2dc;" horiz-adv-x="263" 
d="M244 719q14 -4 9 -17q-13 -32 -34.5 -51.5t-48.5 -19.5q-12 0 -24 4.5t-23.5 10t-22.5 10t-20 4.5q-8 0 -16.5 -4.5t-15.5 -14.5q-6 -10 -17 -8l-12 2q-6 1 -8 6t0 10q13 32 34 51.5t48 19.5q12 0 24 -4.5t24 -9.5t23 -9.5t20 -4.5q8 0 16.5 4t15.5 14t17 8z" />
    <glyph glyph-name="hungarumlaut" unicode="&#x2dd;" horiz-adv-x="328" 
d="M198 725q10 -15 -15 -34q-27 -18 -51 -33q-20 -14 -41 -27.5t-33 -21.5q-15 -10 -23 -10q-9 0 -13 8l-7 11q-5 9 -1 17t16 18q11 8 30.5 23.5t39.5 30.5q23 18 49 38q14 9 23 9q8 0 13 -8zM324 725q10 -16 -15 -34q-27 -18 -51 -33q-20 -14 -41 -27.5t-33 -21.5
q-15 -10 -23 -10q-9 0 -13 8l-7 11q-5 9 -1 17t16 18q11 8 30.5 23.5t39.5 30.5q23 18 49 38q14 9 23 9t13 -8z" />
    <glyph glyph-name="endash" unicode="&#x2013;" horiz-adv-x="431" 
d="M64 242q-32 0 -26 25l6 30q6 24 36 24h338q32 0 26 -24l-6 -30q-6 -25 -37 -25h-337z" />
    <glyph glyph-name="emdash" unicode="&#x2014;" horiz-adv-x="644" 
d="M64 242q-32 0 -26 25l6 30q6 24 36 24h552q32 0 26 -24l-6 -30q-6 -25 -37 -25h-551z" />
    <glyph glyph-name="quoteleft" unicode="&#x2018;" horiz-adv-x="192" 
d="M116 443q-35 0 -53.5 22t-9.5 65q8 37 27.5 68t43.5 53.5t49.5 35.5t44.5 13q9 0 14 -4.5t3 -12.5q-2 -10 -11 -18t-19.5 -16.5t-19.5 -17t-11 -18.5q-2 -7 6 -12.5t17.5 -14t15.5 -23t1 -40.5q-8 -38 -35.5 -59t-62.5 -21z" />
    <glyph glyph-name="quoteright" unicode="&#x2019;" horiz-adv-x="192" 
d="M170 700q35 0 53.5 -22t9.5 -65q-8 -37 -27.5 -68t-43.5 -53.5t-49.5 -35.5t-44.5 -13q-9 0 -14 4.5t-3 12.5q2 10 11 18.5t19.5 16.5t20 17t11.5 19q2 8 -6.5 13t-17.5 13.5t-15.5 23t-0.5 39.5q8 38 35 59t62 21z" />
    <glyph glyph-name="quotesinglbase" unicode="&#x201a;" horiz-adv-x="192" 
d="M113 159q35 0 53.5 -21.5t8.5 -64.5q-7 -37 -27 -68.5t-44 -54t-49 -35.5t-44 -13q-9 0 -14.5 4.5t-3.5 12.5q2 10 11.5 18.5t20 16.5t19.5 17t11 19q2 7 -6.5 12.5t-17.5 14t-15.5 23t-0.5 40.5q8 38 35.5 58.5t62.5 20.5z" />
    <glyph glyph-name="quotedblleft" unicode="&#x201c;" horiz-adv-x="404" 
d="M328 443q-35 0 -53.5 22t-9.5 65q8 37 27.5 68t43.5 53.5t49.5 35.5t44.5 13q9 0 14 -4.5t3 -12.5q-2 -10 -11 -18t-19.5 -16.5t-20 -17t-11.5 -18.5q-1 -7 7 -12.5t17.5 -14t15.5 -23t1 -40.5q-8 -38 -35.5 -59t-62.5 -21zM116 443q-35 0 -53.5 22t-9.5 65q8 37 27.5 68
t43.5 53.5t49.5 35.5t44.5 13q9 0 14 -4.5t3 -12.5q-2 -10 -11 -18t-19.5 -16.5t-19.5 -17t-11 -18.5q-2 -7 6 -12.5t17.5 -14t15.5 -23t1 -40.5q-8 -38 -35.5 -59t-62.5 -21z" />
    <glyph glyph-name="quotedblright" unicode="&#x201d;" horiz-adv-x="404" 
d="M170 700q35 0 53.5 -22t9.5 -65q-8 -37 -27.5 -68t-43.5 -53.5t-49.5 -35.5t-44.5 -13q-9 0 -14 4.5t-3 12.5q2 10 11 18.5t19.5 16.5t20 17t11.5 19q2 8 -6.5 13t-17.5 13.5t-15.5 23t-0.5 39.5q8 38 35 59t62 21zM382 700q35 0 53.5 -22t9.5 -65q-8 -37 -27.5 -68
t-43.5 -53.5t-49.5 -35.5t-44.5 -13q-9 0 -14 4.5t-3 12.5q2 10 11 18.5t19.5 16.5t20 17t11.5 19q2 8 -6.5 13t-18 13.5t-15.5 23t-1 39.5q8 38 35.5 59t62.5 21z" />
    <glyph glyph-name="quotedblbase" unicode="&#x201e;" horiz-adv-x="404" 
d="M113 159q35 0 53.5 -21.5t8.5 -64.5q-7 -37 -27 -68.5t-44 -54t-49 -35.5t-44 -13q-9 0 -14.5 4.5t-3.5 12.5q2 10 11.5 18.5t20 16.5t19.5 17t11 19q2 7 -6.5 12.5t-17.5 14t-15.5 23t-0.5 40.5q8 38 35.5 58.5t62.5 20.5zM325 159q35 0 53 -21.5t9 -64.5
q-8 -37 -27.5 -68.5t-43.5 -54t-49.5 -35.5t-44.5 -13q-20 0 -17 17q2 10 11.5 18.5t20 16.5t19.5 17t11 19q2 7 -6.5 12.5t-17.5 14t-15.5 23t-0.5 40.5q8 38 35.5 58.5t62.5 20.5z" />
    <glyph glyph-name="dagger" unicode="&#x2020;" horiz-adv-x="288" 
d="M287 563q32 0 26 -24l-6 -30q-6 -24 -37 -24h-58l-97 -454q-6 -31 -30 -31h-30q-14 0 -17.5 8t-0.5 23l96 454h-58q-32 0 -26 24l6 30q6 24 37 24h58l23 106q6 31 30 31h30q14 0 17.5 -8t0.5 -23l-23 -106h59z" />
    <glyph glyph-name="bullet" unicode="&#x2022;" horiz-adv-x="277" 
d="M129 161q-54 0 -81.5 31t-15.5 90q12 58 53.5 89t95.5 31t82 -31t15 -89q-12 -59 -53.5 -90t-95.5 -31z" />
    <glyph glyph-name="ellipsis" unicode="&#x2026;" horiz-adv-x="644" 
d="M113 159q35 0 53.5 -20.5t10.5 -58.5t-35.5 -59t-62.5 -21t-53.5 21t-10.5 59t35.5 58.5t62.5 20.5zM339 159q35 0 53.5 -20.5t10.5 -58.5t-35.5 -59t-62.5 -21t-53.5 21t-10.5 59t35.5 58.5t62.5 20.5zM565 159q35 0 53.5 -20.5t10.5 -58.5t-35.5 -59t-62.5 -21
t-53.5 21t-10.5 59t35.5 58.5t62.5 20.5z" />
    <glyph glyph-name="guilsinglleft" unicode="&#x2039;" horiz-adv-x="303" 
d="M327 418q-6 -25 -41 -42l-183 -94l143 -95q27 -17 23 -42l-7 -30q-3 -14 -12 -14q-7 0 -20 8l-184 121q-28 18 -22 42l4 19q4 23 40 42l235 121q16 8 23 8q10 0 7 -14z" />
    <glyph glyph-name="guilsinglright" unicode="&#x203a;" horiz-adv-x="303" 
d="M277 333q27 -18 23 -42l-4 -19q-5 -23 -40 -42l-236 -121q-16 -8 -23 -8q-10 0 -7 14l7 30q4 25 40 42l183 95l-143 94q-28 17 -22 42l6 30q3 14 13 14q7 0 20 -8z" />
    <glyph glyph-name="fraction" unicode="&#x2044;" horiz-adv-x="415" 
d="M480 700q23 0 1 -31l-475 -637q-23 -32 -47 -32h-23q-24 0 -1 32l474 637q24 31 48 31h23z" />
    <glyph glyph-name="Euro" unicode="&#x20ac;" horiz-adv-x="628" 
d="M428 629q-43 0 -85 -47t-67 -128h110q32 0 26 -24l-6 -30q-6 -24 -37 -24h-112q-4 -27 -6 -51h107q32 0 26 -24l-6 -30q-3 -14 -12 -19t-24 -5h-90q9 -71 45 -101t84 -30q46 0 74.5 16t48 35t32.5 35t27 16q19 0 14 -23q-7 -32 -29.5 -67.5t-59.5 -65.5t-88 -49.5
t-114 -19.5q-54 0 -97 17.5t-73 50.5t-46 80t-16 105h-50q-32 0 -26 25l6 30q6 24 37 24h40q2 13 5 25.5t6 25.5h-41q-30 0 -26 24l7 30q4 24 36 24h52q26 59 65 106t85.5 80t99.5 50.5t107 17.5q55 0 94.5 -17.5t63.5 -43t33 -55.5t3 -55q-4 -20 -15.5 -35.5t-27 -26.5
t-34.5 -17t-37 -6q-29 0 -37.5 12t-7.5 35q2 60 -12 95t-52 35z" />
    <glyph glyph-name="trademark" unicode="&#x2122;" horiz-adv-x="548" 
d="M492 487q-1 -8 1 -12.5t4 -8t4 -7.5t0 -11q-3 -16 -24 -16h-67q-21 0 -17 16q2 7 5.5 11t7 7.5t6.5 8t4 12.5l13 118l-73 -158q-9 -15 -33 -15t-26 15l-9 159l-36 -119q-3 -8 -1.5 -12.5t4 -8t4.5 -7.5t0 -12q-4 -15 -24 -15h-29q-21 0 -18 15q2 8 5.5 11.5t7.5 7t7.5 8
t6.5 13.5l50 158q3 8 1.5 12.5t-4 8t-4 7.5t-0.5 11q4 16 24 16h57q18 0 19 -16l6 -145l67 145q8 16 26 16h57q21 0 18 -16q-1 -7 -4.5 -11t-7.5 -7.5t-7 -8t-4 -12.5zM250 666q-5 -21 -20 -21q-7 0 -10.5 3t-6.5 6t-6.5 6t-12.5 3h-24l-37 -176q-2 -8 0 -12.5t4.5 -8
t4.5 -7.5t0 -12q-3 -15 -24 -15h-70q-20 0 -17 15q2 8 5.5 12t7.5 7.5t8 8t5 12.5l38 176h-24q-9 0 -14 -3t-9 -6t-8.5 -6t-12.5 -3q-16 0 -11 21l4 18q3 16 24 16h192q21 0 18 -16z" />
    <glyph glyph-name="minus" unicode="&#x2212;" horiz-adv-x="431" 
d="M64 242q-32 0 -26 25l6 30q6 24 36 24h338q32 0 26 -24l-6 -30q-6 -25 -37 -25h-337z" />
    </font>
</defs>
</svg>
