<?xml version="1.0" standalone="no"?>
<!DOCTYPE svg PUBLIC "-//W3C//DTD SVG 1.1//EN" "http://www.w3.org/Graphics/SVG/1.1/DTD/svg11.dtd" >
<svg xmlns="http://www.w3.org/2000/svg" xmlns:xlink="http://www.w3.org/1999/xlink" version="1.1">
<metadata>
Created by FontForge 20201107 at Mon Jan 10 21:23:55 2022
 By 
Copyright 2021 Milligram by Cosimo Lorenzo Pancini. All rights reserved.
</metadata>
<defs>
<font id="MilligramTrial-ExtraboldItalic" horiz-adv-x="0" >
  <font-face 
    font-family="Milligram Trial Extrabold"
    font-weight="800"
    font-style="italic"
    font-stretch="normal"
    units-per-em="1000"
    panose-1="0 0 0 0 0 0 0 0 0 0"
    ascent="800"
    descent="-200"
    x-height="537"
    cap-height="693"
    bbox="-174 -184 1296 1062"
    underline-thickness="0"
    underline-position="0"
    slope="-10"
    unicode-range="U+000D-F8FF"
  />
<missing-glyph horiz-adv-x="461" 
d="M121 693h247v-693h-247v693zM233 346l-82 289v-577zM323 26l-79 278l-78 -278h157zM245 389l78 277h-157zM338 58v577l-82 -288z" />
    <glyph glyph-name=".notdef" horiz-adv-x="461" 
d="M121 693h247v-693h-247v693zM233 346l-82 289v-577zM323 26l-79 278l-78 -278h157zM245 389l78 277h-157zM338 58v577l-82 -288z" />
    <glyph glyph-name=".null" horiz-adv-x="600" 
 />
    <glyph glyph-name="nonmarkingreturn" unicode="&#xd;" horiz-adv-x="600" 
 />
    <glyph glyph-name="space" unicode=" " horiz-adv-x="229" 
 />
    <glyph glyph-name="exclam" unicode="!" horiz-adv-x="313" 
d="M100 470l39 223h184l-39 -223l-81 -228h-101zM42 137q30 31 95 31q44 0 70.5 -20t26.5 -59q0 -41 -31 -72.5t-96 -31.5q-43 0 -69 20t-26 60q0 41 30 72z" />
    <glyph glyph-name="quotedbl" unicode="&#x22;" horiz-adv-x="435" 
d="M132 693h132l-45 -273h-132zM318 693h132l-44 -273h-132z" />
    <glyph glyph-name="numbersign" unicode="#" horiz-adv-x="644" 
d="M315 118h-98l-39 -118h-136l39 118h-106l39 117h106l38 115h-115l39 118h115l34 101h136l-34 -101h98l34 101h137l-34 -101h110l-40 -118h-109l-39 -115h121l-40 -117h-120l-39 -118h-136zM354 235l38 115h-98l-38 -115h98z" />
    <glyph glyph-name="dollar" unicode="$" horiz-adv-x="583" 
d="M414 740l-14 -78q87 -13 136 -61t54 -119l-145 -38q-1 29 -17.5 53t-49.5 36l-24 -132q106 -26 154.5 -69t48.5 -111q0 -54 -29 -100t-89.5 -75.5t-152.5 -32.5l-13 -76h-70l14 79q-89 10 -144 60t-69 140l142 38q6 -45 28.5 -71.5t65.5 -36.5l23 132q-90 20 -141 69
t-51 124q0 45 24.5 89.5t83 75.5t152.5 31l13 73h70zM242.5 444q13.5 -14 45.5 -25l21 122q-40 -3 -60 -20.5t-20 -38.5q0 -24 13.5 -38zM375.5 160.5q22.5 16.5 22.5 41.5q0 20 -15 33.5t-53 25.5l-21 -120q44 3 66.5 19.5z" />
    <glyph glyph-name="percent" unicode="%" horiz-adv-x="818" 
d="M579 693h146l-457 -693h-145zM130 659q50 45 130 45q66 0 100.5 -33t34.5 -94q0 -25 -4 -46q-15 -86 -65 -133t-129 -47q-67 0 -101.5 33.5t-34.5 96.5q0 20 5 50q14 83 64 128zM217 459q20 0 34 19t20 53q2 16 2 22q0 42 -33 42q-25 0 -40.5 -25t-15.5 -67q0 -44 33 -44
zM519 291.5q50 46.5 128 46.5q67 0 102 -33.5t35 -96.5q0 -19 -5 -49q-14 -84 -64 -129t-129 -45q-67 0 -101.5 33t-34.5 95q0 23 4 46q15 86 65 132.5zM572 136q0 -20 8 -31t24 -11q21 0 35 17t19 48q3 15 3 27q0 21 -8 32.5t-24 11.5q-20 0 -34.5 -18.5t-20.5 -52.5
q-2 -16 -2 -23z" />
    <glyph glyph-name="ampersand" unicode="&#x26;" horiz-adv-x="719" 
d="M65.5 30q-62.5 45 -62.5 126q0 64 39 119t132 104q-28 56 -28 106q0 55 25 106t78 83.5t134 32.5q78 0 128 -41t50 -105q0 -118 -184 -209q23 -30 45 -56l57 -66q63 69 90 158l125 -25q-41 -129 -127 -222q22 -17 38 -23t34 -6q15 0 30 4l1 -117q-38 -13 -79 -13
q-40 0 -71.5 11t-75.5 48q-108 -60 -222 -60q-94 0 -156.5 45zM198 136.5q23 -17.5 60 -17.5q46 0 94 20l-63 75l-54 69q-60 -44 -60 -100q0 -29 23 -46.5zM318 443q50 26 73 50.5t23 50.5q0 19 -12 30.5t-36 11.5q-33 0 -50.5 -23t-17.5 -52t20 -68z" />
    <glyph glyph-name="quotesingle" unicode="'" horiz-adv-x="256" 
d="M132 693h142l-48 -273h-142z" />
    <glyph glyph-name="parenleft" unicode="(" horiz-adv-x="368" 
d="M85 26q-35 97 -35 197q0 125 65.5 269t220.5 272l87 -65q-105 -136 -150 -255t-45 -241q0 -86 12.5 -162.5t31.5 -129.5l-93 -56q-59 74 -94 171z" />
    <glyph glyph-name="parenright" unicode=")" horiz-adv-x="369" 
d="M298 594q35 -97 35 -197q0 -125 -65.5 -269t-220.5 -272l-87 65q105 136 150 255t45 241q0 86 -12.5 162.5t-31.5 129.5l93 56q59 -74 94 -171z" />
    <glyph glyph-name="asterisk" unicode="*" horiz-adv-x="422" 
d="M87 420l97 86l-115 26l52 99l105 -53l9 123h105l-36 -123l126 53l15 -100l-125 -25l67 -86l-94 -64l-49 104l-86 -104z" />
    <glyph glyph-name="plus" unicode="+" horiz-adv-x="484" 
d="M68 392l125 -1l20 124h145l-23 -124l125 1l-25 -138l-124 1l-20 -123h-145l23 123l-125 -1z" />
    <glyph glyph-name="comma" unicode="," horiz-adv-x="297" 
d="M49 -53.5q31 22.5 35 50.5q-38 5 -58 23.5t-20 51.5q0 50 31.5 79t86.5 29q49 0 76 -24t27 -67q0 -61 -27 -114t-85 -88.5t-147 -41.5l-6 73q56 6 87 28.5z" />
    <glyph glyph-name="hyphen" unicode="-" horiz-adv-x="394" 
d="M53 365h321l-25 -141h-321z" />
    <glyph glyph-name="period" unicode="." horiz-adv-x="294" 
d="M23.5 6q-27.5 21 -27.5 62q0 44 33 77t102 33q46 0 73.5 -20.5t27.5 -61.5q0 -42 -32 -76.5t-103 -34.5q-46 0 -73.5 21z" />
    <glyph glyph-name="slash" unicode="/" horiz-adv-x="477" 
d="M400 724h156l-472 -869h-155z" />
    <glyph glyph-name="zero" unicode="0" horiz-adv-x="1292" 
d="M42 462h486q4 56 44.5 94t96.5 38t96.5 -38t44.5 -94h486v-193h-1254v193zM78 118h-36v31h93l-41 -78h38v-31h-95zM41 247h50v-11h-38v-26h33v-11h-33v-29h-12v77zM94 392v-86h39v86h28v35h-96v-35h29zM101 247h12v-47q0 -9 5.5 -14.5t13.5 -5.5t14 6t6 14v47h12v-47
q0 -14 -9 -22.5t-23 -8.5q-13 0 -22 9t-9 22v47zM142 149h79v-30h-44v-9h38v-30h-38v-10h45v-30h-80v109zM207 306v35h8l15 -35h41l-21 46q14 12 14 32q0 18 -13.5 30.5t-32.5 12.5h-50v-121h39zM179 247h12v-66h35v-11h-47v77zM207 394h10q3 0 5.5 -3t2.5 -7t-2.5 -7.5
t-5.5 -3.5h-10v21zM226 149h87v-31h-26v-78h-35v78h-26v31zM237 247h12v-66h36v-11h-48v77zM315 306v121h-38v-121h38zM338 149h40l37 -109h-38l-4 17h-31l-5 -17h-36zM331 247l22 -57l22 57h14l-32 -77h-8l-32 77h14zM363 306l5 19h34l5 -19h42l-41 121h-45l-41 -121h41z
M365 86l-7 26h-1l-7 -26h15zM384 386h1l8 -29h-17zM399 247h50v-11h-38v-22h33v-10h-33v-23h38v-11h-50v77zM421 149h79v-30h-44v-16h37v-29h-37v-34h-35v109zM538 306v33h-43v88h-39v-121h82zM462 247h29q11 0 18 -7t7 -18q0 -14 -12 -21l15 -31h-14l-13 28h-18v-28h-12v77
zM491 208q5 0 9 4t4 10t-4 10t-9 4h-17v-28h17zM521 135.5q17 16.5 42 16.5t42 -16.5t17 -40.5q0 -25 -17 -41.5t-42 -16.5t-42 16.5t-17 41.5q0 24 17 40.5zM525 189q13 -9 26 -9q14 0 14 12q0 7 -17 12q-12 5 -17 9.5t-5 13.5q0 10 7 16t19 6q10 0 20 -5v-13q-9 7 -20 7
q-6 0 -10 -3t-4 -8t3.5 -7.5t12.5 -5.5q23 -9 23 -22q0 -11 -7.5 -17t-18.5 -6q-14 0 -26 7v13zM546 76.5q7 -7.5 17 -7.5t17 7.5t7 18.5t-7 18t-17 7t-17 -7t-7 -18t7 -18.5zM574 367l167 166h-171q-29 -35 -29 -81q0 -49 33 -85zM669 325q48 0 85 32h-170q37 -32 85 -32z
M754 547q-38 33 -85 33q-49 0 -85 -33h170zM589 247h12v-77h-12v77zM767 371q29 35 29 81q0 48 -32 85l-166 -166h169zM625.5 237.5q11.5 11.5 28.5 11.5t28.5 -11.5t11.5 -28.5t-11.5 -28.5t-28.5 -11.5t-28.5 11.5t-11.5 28.5t11.5 28.5zM634 188q8 -8 20 -8q11 0 19 8
t8 21q0 12 -8 20t-19 8q-12 0 -20 -8t-8 -20q0 -13 8 -21zM630 149h36l33 -58v58h35v-109h-36l-34 53l1 -53h-35v109zM706 248h6l49 -55v54h12v-79h-6l-49 54v-52h-12v78zM740 149h86v-31h-25v-78h-35v78h-26v31zM807 213h458l-13 11l8 7l25 -24l-25 -24l-8 7l13 11h-458v12
zM839.5 321q18.5 -18 46.5 -18t47 18t19 46q0 27 -19 45t-47 18t-46.5 -18t-18.5 -45q0 -28 18.5 -46zM841 143q12 9 33 9q14 0 32 -8v-34q-6 5 -15.5 8t-16.5 3q-11 0 -11 -4q0 -3 2.5 -4.5t5.5 -2t6 -1.5q36 -8 36 -35q0 -17 -12.5 -27t-31.5 -10q-22 0 -38 10v37
q25 -16 38 -16q9 0 9 6q0 4 -7 6t-10 3q-17 6 -24.5 13.5t-7.5 21.5q0 16 12 25zM867 387q8 8 19 8q12 0 19.5 -8t7.5 -20q0 -13 -7.5 -21t-19.5 -8q-11 0 -19 8t-8 21q0 12 8 20zM923 65.5q5 4.5 13 4.5q7 0 12 -4.5t5 -11.5t-5 -12t-12 -5q-8 0 -13 5t-5 12t5 11.5z
M976 135.5q17 16.5 42 16.5q13 0 23 -6v-33q-12 7 -22 7t-17.5 -7t-7.5 -18t7 -18.5t18 -7.5q15 0 25 10l-1 -35q-14 -7 -26 -7q-24 0 -41 16.5t-17 41.5q0 24 17 40.5zM999 306l-1 59l38 -59h40v121h-39v-64l-37 64h-40v-121h39zM1064.5 135.5q17.5 16.5 42.5 16.5
t42 -16.5t17 -40.5q0 -25 -17 -41.5t-42 -16.5q-26 0 -43 16.5t-17 41.5q0 24 17.5 40.5zM1089 76.5q7 -7.5 18 -7.5q10 0 17 7.5t7 18.5q0 10 -7 17.5t-17 7.5t-17.5 -7t-7.5 -18t7 -18.5zM1170 306v33h-43v88h-39v-121h82zM1192 354v-48h39v48l41 73h-45l-16 -36l-15 36
h-46zM1173 149h35l26 -50l26 50h35v-109h-34v43l-14 -27h-25l-14 27v-43h-35v109z" />
    <glyph glyph-name="one" unicode="1" horiz-adv-x="1292" 
d="M42 462h486q4 56 44.5 94t96.5 38t96.5 -38t44.5 -94h486v-193h-1254v193zM78 118h-36v31h93l-41 -78h38v-31h-95zM41 247h50v-11h-38v-26h33v-11h-33v-29h-12v77zM94 392v-86h39v86h28v35h-96v-35h29zM101 247h12v-47q0 -9 5.5 -14.5t13.5 -5.5t14 6t6 14v47h12v-47
q0 -14 -9 -22.5t-23 -8.5q-13 0 -22 9t-9 22v47zM142 149h79v-30h-44v-9h38v-30h-38v-10h45v-30h-80v109zM207 306v35h8l15 -35h41l-21 46q14 12 14 32q0 18 -13.5 30.5t-32.5 12.5h-50v-121h39zM179 247h12v-66h35v-11h-47v77zM207 394h10q3 0 5.5 -3t2.5 -7t-2.5 -7.5
t-5.5 -3.5h-10v21zM226 149h87v-31h-26v-78h-35v78h-26v31zM237 247h12v-66h36v-11h-48v77zM315 306v121h-38v-121h38zM338 149h40l37 -109h-38l-4 17h-31l-5 -17h-36zM331 247l22 -57l22 57h14l-32 -77h-8l-32 77h14zM363 306l5 19h34l5 -19h42l-41 121h-45l-41 -121h41z
M365 86l-7 26h-1l-7 -26h15zM384 386h1l8 -29h-17zM399 247h50v-11h-38v-22h33v-10h-33v-23h38v-11h-50v77zM421 149h79v-30h-44v-16h37v-29h-37v-34h-35v109zM538 306v33h-43v88h-39v-121h82zM462 247h29q11 0 18 -7t7 -18q0 -14 -12 -21l15 -31h-14l-13 28h-18v-28h-12v77
zM491 208q5 0 9 4t4 10t-4 10t-9 4h-17v-28h17zM521 135.5q17 16.5 42 16.5t42 -16.5t17 -40.5q0 -25 -17 -41.5t-42 -16.5t-42 16.5t-17 41.5q0 24 17 40.5zM525 189q13 -9 26 -9q14 0 14 12q0 7 -17 12q-12 5 -17 9.5t-5 13.5q0 10 7 16t19 6q10 0 20 -5v-13q-9 7 -20 7
q-6 0 -10 -3t-4 -8t3.5 -7.5t12.5 -5.5q23 -9 23 -22q0 -11 -7.5 -17t-18.5 -6q-14 0 -26 7v13zM546 76.5q7 -7.5 17 -7.5t17 7.5t7 18.5t-7 18t-17 7t-17 -7t-7 -18t7 -18.5zM574 367l167 166h-171q-29 -35 -29 -81q0 -49 33 -85zM669 325q48 0 85 32h-170q37 -32 85 -32z
M754 547q-38 33 -85 33q-49 0 -85 -33h170zM589 247h12v-77h-12v77zM767 371q29 35 29 81q0 48 -32 85l-166 -166h169zM625.5 237.5q11.5 11.5 28.5 11.5t28.5 -11.5t11.5 -28.5t-11.5 -28.5t-28.5 -11.5t-28.5 11.5t-11.5 28.5t11.5 28.5zM634 188q8 -8 20 -8q11 0 19 8
t8 21q0 12 -8 20t-19 8q-12 0 -20 -8t-8 -20q0 -13 8 -21zM630 149h36l33 -58v58h35v-109h-36l-34 53l1 -53h-35v109zM706 248h6l49 -55v54h12v-79h-6l-49 54v-52h-12v78zM740 149h86v-31h-25v-78h-35v78h-26v31zM807 213h458l-13 11l8 7l25 -24l-25 -24l-8 7l13 11h-458v12
zM839.5 321q18.5 -18 46.5 -18t47 18t19 46q0 27 -19 45t-47 18t-46.5 -18t-18.5 -45q0 -28 18.5 -46zM841 143q12 9 33 9q14 0 32 -8v-34q-6 5 -15.5 8t-16.5 3q-11 0 -11 -4q0 -3 2.5 -4.5t5.5 -2t6 -1.5q36 -8 36 -35q0 -17 -12.5 -27t-31.5 -10q-22 0 -38 10v37
q25 -16 38 -16q9 0 9 6q0 4 -7 6t-10 3q-17 6 -24.5 13.5t-7.5 21.5q0 16 12 25zM867 387q8 8 19 8q12 0 19.5 -8t7.5 -20q0 -13 -7.5 -21t-19.5 -8q-11 0 -19 8t-8 21q0 12 8 20zM923 65.5q5 4.5 13 4.5q7 0 12 -4.5t5 -11.5t-5 -12t-12 -5q-8 0 -13 5t-5 12t5 11.5z
M976 135.5q17 16.5 42 16.5q13 0 23 -6v-33q-12 7 -22 7t-17.5 -7t-7.5 -18t7 -18.5t18 -7.5q15 0 25 10l-1 -35q-14 -7 -26 -7q-24 0 -41 16.5t-17 41.5q0 24 17 40.5zM999 306l-1 59l38 -59h40v121h-39v-64l-37 64h-40v-121h39zM1064.5 135.5q17.5 16.5 42.5 16.5
t42 -16.5t17 -40.5q0 -25 -17 -41.5t-42 -16.5q-26 0 -43 16.5t-17 41.5q0 24 17.5 40.5zM1089 76.5q7 -7.5 18 -7.5q10 0 17 7.5t7 18.5q0 10 -7 17.5t-17 7.5t-17.5 -7t-7.5 -18t7 -18.5zM1170 306v33h-43v88h-39v-121h82zM1192 354v-48h39v48l41 73h-45l-16 -36l-15 36
h-46zM1173 149h35l26 -50l26 50h35v-109h-34v43l-14 -27h-25l-14 27v-43h-35v109z" />
    <glyph glyph-name="two" unicode="2" horiz-adv-x="1292" 
d="M42 462h486q4 56 44.5 94t96.5 38t96.5 -38t44.5 -94h486v-193h-1254v193zM78 118h-36v31h93l-41 -78h38v-31h-95zM41 247h50v-11h-38v-26h33v-11h-33v-29h-12v77zM94 392v-86h39v86h28v35h-96v-35h29zM101 247h12v-47q0 -9 5.5 -14.5t13.5 -5.5t14 6t6 14v47h12v-47
q0 -14 -9 -22.5t-23 -8.5q-13 0 -22 9t-9 22v47zM142 149h79v-30h-44v-9h38v-30h-38v-10h45v-30h-80v109zM207 306v35h8l15 -35h41l-21 46q14 12 14 32q0 18 -13.5 30.5t-32.5 12.5h-50v-121h39zM179 247h12v-66h35v-11h-47v77zM207 394h10q3 0 5.5 -3t2.5 -7t-2.5 -7.5
t-5.5 -3.5h-10v21zM226 149h87v-31h-26v-78h-35v78h-26v31zM237 247h12v-66h36v-11h-48v77zM315 306v121h-38v-121h38zM338 149h40l37 -109h-38l-4 17h-31l-5 -17h-36zM331 247l22 -57l22 57h14l-32 -77h-8l-32 77h14zM363 306l5 19h34l5 -19h42l-41 121h-45l-41 -121h41z
M365 86l-7 26h-1l-7 -26h15zM384 386h1l8 -29h-17zM399 247h50v-11h-38v-22h33v-10h-33v-23h38v-11h-50v77zM421 149h79v-30h-44v-16h37v-29h-37v-34h-35v109zM538 306v33h-43v88h-39v-121h82zM462 247h29q11 0 18 -7t7 -18q0 -14 -12 -21l15 -31h-14l-13 28h-18v-28h-12v77
zM491 208q5 0 9 4t4 10t-4 10t-9 4h-17v-28h17zM521 135.5q17 16.5 42 16.5t42 -16.5t17 -40.5q0 -25 -17 -41.5t-42 -16.5t-42 16.5t-17 41.5q0 24 17 40.5zM525 189q13 -9 26 -9q14 0 14 12q0 7 -17 12q-12 5 -17 9.5t-5 13.5q0 10 7 16t19 6q10 0 20 -5v-13q-9 7 -20 7
q-6 0 -10 -3t-4 -8t3.5 -7.5t12.5 -5.5q23 -9 23 -22q0 -11 -7.5 -17t-18.5 -6q-14 0 -26 7v13zM546 76.5q7 -7.5 17 -7.5t17 7.5t7 18.5t-7 18t-17 7t-17 -7t-7 -18t7 -18.5zM574 367l167 166h-171q-29 -35 -29 -81q0 -49 33 -85zM669 325q48 0 85 32h-170q37 -32 85 -32z
M754 547q-38 33 -85 33q-49 0 -85 -33h170zM589 247h12v-77h-12v77zM767 371q29 35 29 81q0 48 -32 85l-166 -166h169zM625.5 237.5q11.5 11.5 28.5 11.5t28.5 -11.5t11.5 -28.5t-11.5 -28.5t-28.5 -11.5t-28.5 11.5t-11.5 28.5t11.5 28.5zM634 188q8 -8 20 -8q11 0 19 8
t8 21q0 12 -8 20t-19 8q-12 0 -20 -8t-8 -20q0 -13 8 -21zM630 149h36l33 -58v58h35v-109h-36l-34 53l1 -53h-35v109zM706 248h6l49 -55v54h12v-79h-6l-49 54v-52h-12v78zM740 149h86v-31h-25v-78h-35v78h-26v31zM807 213h458l-13 11l8 7l25 -24l-25 -24l-8 7l13 11h-458v12
zM839.5 321q18.5 -18 46.5 -18t47 18t19 46q0 27 -19 45t-47 18t-46.5 -18t-18.5 -45q0 -28 18.5 -46zM841 143q12 9 33 9q14 0 32 -8v-34q-6 5 -15.5 8t-16.5 3q-11 0 -11 -4q0 -3 2.5 -4.5t5.5 -2t6 -1.5q36 -8 36 -35q0 -17 -12.5 -27t-31.5 -10q-22 0 -38 10v37
q25 -16 38 -16q9 0 9 6q0 4 -7 6t-10 3q-17 6 -24.5 13.5t-7.5 21.5q0 16 12 25zM867 387q8 8 19 8q12 0 19.5 -8t7.5 -20q0 -13 -7.5 -21t-19.5 -8q-11 0 -19 8t-8 21q0 12 8 20zM923 65.5q5 4.5 13 4.5q7 0 12 -4.5t5 -11.5t-5 -12t-12 -5q-8 0 -13 5t-5 12t5 11.5z
M976 135.5q17 16.5 42 16.5q13 0 23 -6v-33q-12 7 -22 7t-17.5 -7t-7.5 -18t7 -18.5t18 -7.5q15 0 25 10l-1 -35q-14 -7 -26 -7q-24 0 -41 16.5t-17 41.5q0 24 17 40.5zM999 306l-1 59l38 -59h40v121h-39v-64l-37 64h-40v-121h39zM1064.5 135.5q17.5 16.5 42.5 16.5
t42 -16.5t17 -40.5q0 -25 -17 -41.5t-42 -16.5q-26 0 -43 16.5t-17 41.5q0 24 17.5 40.5zM1089 76.5q7 -7.5 18 -7.5q10 0 17 7.5t7 18.5q0 10 -7 17.5t-17 7.5t-17.5 -7t-7.5 -18t7 -18.5zM1170 306v33h-43v88h-39v-121h82zM1192 354v-48h39v48l41 73h-45l-16 -36l-15 36
h-46zM1173 149h35l26 -50l26 50h35v-109h-34v43l-14 -27h-25l-14 27v-43h-35v109z" />
    <glyph glyph-name="three" unicode="3" horiz-adv-x="1292" 
d="M42 462h486q4 56 44.5 94t96.5 38t96.5 -38t44.5 -94h486v-193h-1254v193zM78 118h-36v31h93l-41 -78h38v-31h-95zM41 247h50v-11h-38v-26h33v-11h-33v-29h-12v77zM94 392v-86h39v86h28v35h-96v-35h29zM101 247h12v-47q0 -9 5.5 -14.5t13.5 -5.5t14 6t6 14v47h12v-47
q0 -14 -9 -22.5t-23 -8.5q-13 0 -22 9t-9 22v47zM142 149h79v-30h-44v-9h38v-30h-38v-10h45v-30h-80v109zM207 306v35h8l15 -35h41l-21 46q14 12 14 32q0 18 -13.5 30.5t-32.5 12.5h-50v-121h39zM179 247h12v-66h35v-11h-47v77zM207 394h10q3 0 5.5 -3t2.5 -7t-2.5 -7.5
t-5.5 -3.5h-10v21zM226 149h87v-31h-26v-78h-35v78h-26v31zM237 247h12v-66h36v-11h-48v77zM315 306v121h-38v-121h38zM338 149h40l37 -109h-38l-4 17h-31l-5 -17h-36zM331 247l22 -57l22 57h14l-32 -77h-8l-32 77h14zM363 306l5 19h34l5 -19h42l-41 121h-45l-41 -121h41z
M365 86l-7 26h-1l-7 -26h15zM384 386h1l8 -29h-17zM399 247h50v-11h-38v-22h33v-10h-33v-23h38v-11h-50v77zM421 149h79v-30h-44v-16h37v-29h-37v-34h-35v109zM538 306v33h-43v88h-39v-121h82zM462 247h29q11 0 18 -7t7 -18q0 -14 -12 -21l15 -31h-14l-13 28h-18v-28h-12v77
zM491 208q5 0 9 4t4 10t-4 10t-9 4h-17v-28h17zM521 135.5q17 16.5 42 16.5t42 -16.5t17 -40.5q0 -25 -17 -41.5t-42 -16.5t-42 16.5t-17 41.5q0 24 17 40.5zM525 189q13 -9 26 -9q14 0 14 12q0 7 -17 12q-12 5 -17 9.5t-5 13.5q0 10 7 16t19 6q10 0 20 -5v-13q-9 7 -20 7
q-6 0 -10 -3t-4 -8t3.5 -7.5t12.5 -5.5q23 -9 23 -22q0 -11 -7.5 -17t-18.5 -6q-14 0 -26 7v13zM546 76.5q7 -7.5 17 -7.5t17 7.5t7 18.5t-7 18t-17 7t-17 -7t-7 -18t7 -18.5zM574 367l167 166h-171q-29 -35 -29 -81q0 -49 33 -85zM669 325q48 0 85 32h-170q37 -32 85 -32z
M754 547q-38 33 -85 33q-49 0 -85 -33h170zM589 247h12v-77h-12v77zM767 371q29 35 29 81q0 48 -32 85l-166 -166h169zM625.5 237.5q11.5 11.5 28.5 11.5t28.5 -11.5t11.5 -28.5t-11.5 -28.5t-28.5 -11.5t-28.5 11.5t-11.5 28.5t11.5 28.5zM634 188q8 -8 20 -8q11 0 19 8
t8 21q0 12 -8 20t-19 8q-12 0 -20 -8t-8 -20q0 -13 8 -21zM630 149h36l33 -58v58h35v-109h-36l-34 53l1 -53h-35v109zM706 248h6l49 -55v54h12v-79h-6l-49 54v-52h-12v78zM740 149h86v-31h-25v-78h-35v78h-26v31zM807 213h458l-13 11l8 7l25 -24l-25 -24l-8 7l13 11h-458v12
zM839.5 321q18.5 -18 46.5 -18t47 18t19 46q0 27 -19 45t-47 18t-46.5 -18t-18.5 -45q0 -28 18.5 -46zM841 143q12 9 33 9q14 0 32 -8v-34q-6 5 -15.5 8t-16.5 3q-11 0 -11 -4q0 -3 2.5 -4.5t5.5 -2t6 -1.5q36 -8 36 -35q0 -17 -12.5 -27t-31.5 -10q-22 0 -38 10v37
q25 -16 38 -16q9 0 9 6q0 4 -7 6t-10 3q-17 6 -24.5 13.5t-7.5 21.5q0 16 12 25zM867 387q8 8 19 8q12 0 19.5 -8t7.5 -20q0 -13 -7.5 -21t-19.5 -8q-11 0 -19 8t-8 21q0 12 8 20zM923 65.5q5 4.5 13 4.5q7 0 12 -4.5t5 -11.5t-5 -12t-12 -5q-8 0 -13 5t-5 12t5 11.5z
M976 135.5q17 16.5 42 16.5q13 0 23 -6v-33q-12 7 -22 7t-17.5 -7t-7.5 -18t7 -18.5t18 -7.5q15 0 25 10l-1 -35q-14 -7 -26 -7q-24 0 -41 16.5t-17 41.5q0 24 17 40.5zM999 306l-1 59l38 -59h40v121h-39v-64l-37 64h-40v-121h39zM1064.5 135.5q17.5 16.5 42.5 16.5
t42 -16.5t17 -40.5q0 -25 -17 -41.5t-42 -16.5q-26 0 -43 16.5t-17 41.5q0 24 17.5 40.5zM1089 76.5q7 -7.5 18 -7.5q10 0 17 7.5t7 18.5q0 10 -7 17.5t-17 7.5t-17.5 -7t-7.5 -18t7 -18.5zM1170 306v33h-43v88h-39v-121h82zM1192 354v-48h39v48l41 73h-45l-16 -36l-15 36
h-46zM1173 149h35l26 -50l26 50h35v-109h-34v43l-14 -27h-25l-14 27v-43h-35v109z" />
    <glyph glyph-name="four" unicode="4" horiz-adv-x="1292" 
d="M42 462h486q4 56 44.5 94t96.5 38t96.5 -38t44.5 -94h486v-193h-1254v193zM78 118h-36v31h93l-41 -78h38v-31h-95zM41 247h50v-11h-38v-26h33v-11h-33v-29h-12v77zM94 392v-86h39v86h28v35h-96v-35h29zM101 247h12v-47q0 -9 5.5 -14.5t13.5 -5.5t14 6t6 14v47h12v-47
q0 -14 -9 -22.5t-23 -8.5q-13 0 -22 9t-9 22v47zM142 149h79v-30h-44v-9h38v-30h-38v-10h45v-30h-80v109zM207 306v35h8l15 -35h41l-21 46q14 12 14 32q0 18 -13.5 30.5t-32.5 12.5h-50v-121h39zM179 247h12v-66h35v-11h-47v77zM207 394h10q3 0 5.5 -3t2.5 -7t-2.5 -7.5
t-5.5 -3.5h-10v21zM226 149h87v-31h-26v-78h-35v78h-26v31zM237 247h12v-66h36v-11h-48v77zM315 306v121h-38v-121h38zM338 149h40l37 -109h-38l-4 17h-31l-5 -17h-36zM331 247l22 -57l22 57h14l-32 -77h-8l-32 77h14zM363 306l5 19h34l5 -19h42l-41 121h-45l-41 -121h41z
M365 86l-7 26h-1l-7 -26h15zM384 386h1l8 -29h-17zM399 247h50v-11h-38v-22h33v-10h-33v-23h38v-11h-50v77zM421 149h79v-30h-44v-16h37v-29h-37v-34h-35v109zM538 306v33h-43v88h-39v-121h82zM462 247h29q11 0 18 -7t7 -18q0 -14 -12 -21l15 -31h-14l-13 28h-18v-28h-12v77
zM491 208q5 0 9 4t4 10t-4 10t-9 4h-17v-28h17zM521 135.5q17 16.5 42 16.5t42 -16.5t17 -40.5q0 -25 -17 -41.5t-42 -16.5t-42 16.5t-17 41.5q0 24 17 40.5zM525 189q13 -9 26 -9q14 0 14 12q0 7 -17 12q-12 5 -17 9.5t-5 13.5q0 10 7 16t19 6q10 0 20 -5v-13q-9 7 -20 7
q-6 0 -10 -3t-4 -8t3.5 -7.5t12.5 -5.5q23 -9 23 -22q0 -11 -7.5 -17t-18.5 -6q-14 0 -26 7v13zM546 76.5q7 -7.5 17 -7.5t17 7.5t7 18.5t-7 18t-17 7t-17 -7t-7 -18t7 -18.5zM574 367l167 166h-171q-29 -35 -29 -81q0 -49 33 -85zM669 325q48 0 85 32h-170q37 -32 85 -32z
M754 547q-38 33 -85 33q-49 0 -85 -33h170zM589 247h12v-77h-12v77zM767 371q29 35 29 81q0 48 -32 85l-166 -166h169zM625.5 237.5q11.5 11.5 28.5 11.5t28.5 -11.5t11.5 -28.5t-11.5 -28.5t-28.5 -11.5t-28.5 11.5t-11.5 28.5t11.5 28.5zM634 188q8 -8 20 -8q11 0 19 8
t8 21q0 12 -8 20t-19 8q-12 0 -20 -8t-8 -20q0 -13 8 -21zM630 149h36l33 -58v58h35v-109h-36l-34 53l1 -53h-35v109zM706 248h6l49 -55v54h12v-79h-6l-49 54v-52h-12v78zM740 149h86v-31h-25v-78h-35v78h-26v31zM807 213h458l-13 11l8 7l25 -24l-25 -24l-8 7l13 11h-458v12
zM839.5 321q18.5 -18 46.5 -18t47 18t19 46q0 27 -19 45t-47 18t-46.5 -18t-18.5 -45q0 -28 18.5 -46zM841 143q12 9 33 9q14 0 32 -8v-34q-6 5 -15.5 8t-16.5 3q-11 0 -11 -4q0 -3 2.5 -4.5t5.5 -2t6 -1.5q36 -8 36 -35q0 -17 -12.5 -27t-31.5 -10q-22 0 -38 10v37
q25 -16 38 -16q9 0 9 6q0 4 -7 6t-10 3q-17 6 -24.5 13.5t-7.5 21.5q0 16 12 25zM867 387q8 8 19 8q12 0 19.5 -8t7.5 -20q0 -13 -7.5 -21t-19.5 -8q-11 0 -19 8t-8 21q0 12 8 20zM923 65.5q5 4.5 13 4.5q7 0 12 -4.5t5 -11.5t-5 -12t-12 -5q-8 0 -13 5t-5 12t5 11.5z
M976 135.5q17 16.5 42 16.5q13 0 23 -6v-33q-12 7 -22 7t-17.5 -7t-7.5 -18t7 -18.5t18 -7.5q15 0 25 10l-1 -35q-14 -7 -26 -7q-24 0 -41 16.5t-17 41.5q0 24 17 40.5zM999 306l-1 59l38 -59h40v121h-39v-64l-37 64h-40v-121h39zM1064.5 135.5q17.5 16.5 42.5 16.5
t42 -16.5t17 -40.5q0 -25 -17 -41.5t-42 -16.5q-26 0 -43 16.5t-17 41.5q0 24 17.5 40.5zM1089 76.5q7 -7.5 18 -7.5q10 0 17 7.5t7 18.5q0 10 -7 17.5t-17 7.5t-17.5 -7t-7.5 -18t7 -18.5zM1170 306v33h-43v88h-39v-121h82zM1192 354v-48h39v48l41 73h-45l-16 -36l-15 36
h-46zM1173 149h35l26 -50l26 50h35v-109h-34v43l-14 -27h-25l-14 27v-43h-35v109z" />
    <glyph glyph-name="five" unicode="5" horiz-adv-x="1292" 
d="M42 462h486q4 56 44.5 94t96.5 38t96.5 -38t44.5 -94h486v-193h-1254v193zM78 118h-36v31h93l-41 -78h38v-31h-95zM41 247h50v-11h-38v-26h33v-11h-33v-29h-12v77zM94 392v-86h39v86h28v35h-96v-35h29zM101 247h12v-47q0 -9 5.5 -14.5t13.5 -5.5t14 6t6 14v47h12v-47
q0 -14 -9 -22.5t-23 -8.5q-13 0 -22 9t-9 22v47zM142 149h79v-30h-44v-9h38v-30h-38v-10h45v-30h-80v109zM207 306v35h8l15 -35h41l-21 46q14 12 14 32q0 18 -13.5 30.5t-32.5 12.5h-50v-121h39zM179 247h12v-66h35v-11h-47v77zM207 394h10q3 0 5.5 -3t2.5 -7t-2.5 -7.5
t-5.5 -3.5h-10v21zM226 149h87v-31h-26v-78h-35v78h-26v31zM237 247h12v-66h36v-11h-48v77zM315 306v121h-38v-121h38zM338 149h40l37 -109h-38l-4 17h-31l-5 -17h-36zM331 247l22 -57l22 57h14l-32 -77h-8l-32 77h14zM363 306l5 19h34l5 -19h42l-41 121h-45l-41 -121h41z
M365 86l-7 26h-1l-7 -26h15zM384 386h1l8 -29h-17zM399 247h50v-11h-38v-22h33v-10h-33v-23h38v-11h-50v77zM421 149h79v-30h-44v-16h37v-29h-37v-34h-35v109zM538 306v33h-43v88h-39v-121h82zM462 247h29q11 0 18 -7t7 -18q0 -14 -12 -21l15 -31h-14l-13 28h-18v-28h-12v77
zM491 208q5 0 9 4t4 10t-4 10t-9 4h-17v-28h17zM521 135.5q17 16.5 42 16.5t42 -16.5t17 -40.5q0 -25 -17 -41.5t-42 -16.5t-42 16.5t-17 41.5q0 24 17 40.5zM525 189q13 -9 26 -9q14 0 14 12q0 7 -17 12q-12 5 -17 9.5t-5 13.5q0 10 7 16t19 6q10 0 20 -5v-13q-9 7 -20 7
q-6 0 -10 -3t-4 -8t3.5 -7.5t12.5 -5.5q23 -9 23 -22q0 -11 -7.5 -17t-18.5 -6q-14 0 -26 7v13zM546 76.5q7 -7.5 17 -7.5t17 7.5t7 18.5t-7 18t-17 7t-17 -7t-7 -18t7 -18.5zM574 367l167 166h-171q-29 -35 -29 -81q0 -49 33 -85zM669 325q48 0 85 32h-170q37 -32 85 -32z
M754 547q-38 33 -85 33q-49 0 -85 -33h170zM589 247h12v-77h-12v77zM767 371q29 35 29 81q0 48 -32 85l-166 -166h169zM625.5 237.5q11.5 11.5 28.5 11.5t28.5 -11.5t11.5 -28.5t-11.5 -28.5t-28.5 -11.5t-28.5 11.5t-11.5 28.5t11.5 28.5zM634 188q8 -8 20 -8q11 0 19 8
t8 21q0 12 -8 20t-19 8q-12 0 -20 -8t-8 -20q0 -13 8 -21zM630 149h36l33 -58v58h35v-109h-36l-34 53l1 -53h-35v109zM706 248h6l49 -55v54h12v-79h-6l-49 54v-52h-12v78zM740 149h86v-31h-25v-78h-35v78h-26v31zM807 213h458l-13 11l8 7l25 -24l-25 -24l-8 7l13 11h-458v12
zM839.5 321q18.5 -18 46.5 -18t47 18t19 46q0 27 -19 45t-47 18t-46.5 -18t-18.5 -45q0 -28 18.5 -46zM841 143q12 9 33 9q14 0 32 -8v-34q-6 5 -15.5 8t-16.5 3q-11 0 -11 -4q0 -3 2.5 -4.5t5.5 -2t6 -1.5q36 -8 36 -35q0 -17 -12.5 -27t-31.5 -10q-22 0 -38 10v37
q25 -16 38 -16q9 0 9 6q0 4 -7 6t-10 3q-17 6 -24.5 13.5t-7.5 21.5q0 16 12 25zM867 387q8 8 19 8q12 0 19.5 -8t7.5 -20q0 -13 -7.5 -21t-19.5 -8q-11 0 -19 8t-8 21q0 12 8 20zM923 65.5q5 4.5 13 4.5q7 0 12 -4.5t5 -11.5t-5 -12t-12 -5q-8 0 -13 5t-5 12t5 11.5z
M976 135.5q17 16.5 42 16.5q13 0 23 -6v-33q-12 7 -22 7t-17.5 -7t-7.5 -18t7 -18.5t18 -7.5q15 0 25 10l-1 -35q-14 -7 -26 -7q-24 0 -41 16.5t-17 41.5q0 24 17 40.5zM999 306l-1 59l38 -59h40v121h-39v-64l-37 64h-40v-121h39zM1064.5 135.5q17.5 16.5 42.5 16.5
t42 -16.5t17 -40.5q0 -25 -17 -41.5t-42 -16.5q-26 0 -43 16.5t-17 41.5q0 24 17.5 40.5zM1089 76.5q7 -7.5 18 -7.5q10 0 17 7.5t7 18.5q0 10 -7 17.5t-17 7.5t-17.5 -7t-7.5 -18t7 -18.5zM1170 306v33h-43v88h-39v-121h82zM1192 354v-48h39v48l41 73h-45l-16 -36l-15 36
h-46zM1173 149h35l26 -50l26 50h35v-109h-34v43l-14 -27h-25l-14 27v-43h-35v109z" />
    <glyph glyph-name="six" unicode="6" horiz-adv-x="1292" 
d="M42 462h486q4 56 44.5 94t96.5 38t96.5 -38t44.5 -94h486v-193h-1254v193zM78 118h-36v31h93l-41 -78h38v-31h-95zM41 247h50v-11h-38v-26h33v-11h-33v-29h-12v77zM94 392v-86h39v86h28v35h-96v-35h29zM101 247h12v-47q0 -9 5.5 -14.5t13.5 -5.5t14 6t6 14v47h12v-47
q0 -14 -9 -22.5t-23 -8.5q-13 0 -22 9t-9 22v47zM142 149h79v-30h-44v-9h38v-30h-38v-10h45v-30h-80v109zM207 306v35h8l15 -35h41l-21 46q14 12 14 32q0 18 -13.5 30.5t-32.5 12.5h-50v-121h39zM179 247h12v-66h35v-11h-47v77zM207 394h10q3 0 5.5 -3t2.5 -7t-2.5 -7.5
t-5.5 -3.5h-10v21zM226 149h87v-31h-26v-78h-35v78h-26v31zM237 247h12v-66h36v-11h-48v77zM315 306v121h-38v-121h38zM338 149h40l37 -109h-38l-4 17h-31l-5 -17h-36zM331 247l22 -57l22 57h14l-32 -77h-8l-32 77h14zM363 306l5 19h34l5 -19h42l-41 121h-45l-41 -121h41z
M365 86l-7 26h-1l-7 -26h15zM384 386h1l8 -29h-17zM399 247h50v-11h-38v-22h33v-10h-33v-23h38v-11h-50v77zM421 149h79v-30h-44v-16h37v-29h-37v-34h-35v109zM538 306v33h-43v88h-39v-121h82zM462 247h29q11 0 18 -7t7 -18q0 -14 -12 -21l15 -31h-14l-13 28h-18v-28h-12v77
zM491 208q5 0 9 4t4 10t-4 10t-9 4h-17v-28h17zM521 135.5q17 16.5 42 16.5t42 -16.5t17 -40.5q0 -25 -17 -41.5t-42 -16.5t-42 16.5t-17 41.5q0 24 17 40.5zM525 189q13 -9 26 -9q14 0 14 12q0 7 -17 12q-12 5 -17 9.5t-5 13.5q0 10 7 16t19 6q10 0 20 -5v-13q-9 7 -20 7
q-6 0 -10 -3t-4 -8t3.5 -7.5t12.5 -5.5q23 -9 23 -22q0 -11 -7.5 -17t-18.5 -6q-14 0 -26 7v13zM546 76.5q7 -7.5 17 -7.5t17 7.5t7 18.5t-7 18t-17 7t-17 -7t-7 -18t7 -18.5zM574 367l167 166h-171q-29 -35 -29 -81q0 -49 33 -85zM669 325q48 0 85 32h-170q37 -32 85 -32z
M754 547q-38 33 -85 33q-49 0 -85 -33h170zM589 247h12v-77h-12v77zM767 371q29 35 29 81q0 48 -32 85l-166 -166h169zM625.5 237.5q11.5 11.5 28.5 11.5t28.5 -11.5t11.5 -28.5t-11.5 -28.5t-28.5 -11.5t-28.5 11.5t-11.5 28.5t11.5 28.5zM634 188q8 -8 20 -8q11 0 19 8
t8 21q0 12 -8 20t-19 8q-12 0 -20 -8t-8 -20q0 -13 8 -21zM630 149h36l33 -58v58h35v-109h-36l-34 53l1 -53h-35v109zM706 248h6l49 -55v54h12v-79h-6l-49 54v-52h-12v78zM740 149h86v-31h-25v-78h-35v78h-26v31zM807 213h458l-13 11l8 7l25 -24l-25 -24l-8 7l13 11h-458v12
zM839.5 321q18.5 -18 46.5 -18t47 18t19 46q0 27 -19 45t-47 18t-46.5 -18t-18.5 -45q0 -28 18.5 -46zM841 143q12 9 33 9q14 0 32 -8v-34q-6 5 -15.5 8t-16.5 3q-11 0 -11 -4q0 -3 2.5 -4.5t5.5 -2t6 -1.5q36 -8 36 -35q0 -17 -12.5 -27t-31.5 -10q-22 0 -38 10v37
q25 -16 38 -16q9 0 9 6q0 4 -7 6t-10 3q-17 6 -24.5 13.5t-7.5 21.5q0 16 12 25zM867 387q8 8 19 8q12 0 19.5 -8t7.5 -20q0 -13 -7.5 -21t-19.5 -8q-11 0 -19 8t-8 21q0 12 8 20zM923 65.5q5 4.5 13 4.5q7 0 12 -4.5t5 -11.5t-5 -12t-12 -5q-8 0 -13 5t-5 12t5 11.5z
M976 135.5q17 16.5 42 16.5q13 0 23 -6v-33q-12 7 -22 7t-17.5 -7t-7.5 -18t7 -18.5t18 -7.5q15 0 25 10l-1 -35q-14 -7 -26 -7q-24 0 -41 16.5t-17 41.5q0 24 17 40.5zM999 306l-1 59l38 -59h40v121h-39v-64l-37 64h-40v-121h39zM1064.5 135.5q17.5 16.5 42.5 16.5
t42 -16.5t17 -40.5q0 -25 -17 -41.5t-42 -16.5q-26 0 -43 16.5t-17 41.5q0 24 17.5 40.5zM1089 76.5q7 -7.5 18 -7.5q10 0 17 7.5t7 18.5q0 10 -7 17.5t-17 7.5t-17.5 -7t-7.5 -18t7 -18.5zM1170 306v33h-43v88h-39v-121h82zM1192 354v-48h39v48l41 73h-45l-16 -36l-15 36
h-46zM1173 149h35l26 -50l26 50h35v-109h-34v43l-14 -27h-25l-14 27v-43h-35v109z" />
    <glyph glyph-name="seven" unicode="7" horiz-adv-x="1292" 
d="M42 462h486q4 56 44.5 94t96.5 38t96.5 -38t44.5 -94h486v-193h-1254v193zM78 118h-36v31h93l-41 -78h38v-31h-95zM41 247h50v-11h-38v-26h33v-11h-33v-29h-12v77zM94 392v-86h39v86h28v35h-96v-35h29zM101 247h12v-47q0 -9 5.5 -14.5t13.5 -5.5t14 6t6 14v47h12v-47
q0 -14 -9 -22.5t-23 -8.5q-13 0 -22 9t-9 22v47zM142 149h79v-30h-44v-9h38v-30h-38v-10h45v-30h-80v109zM207 306v35h8l15 -35h41l-21 46q14 12 14 32q0 18 -13.5 30.5t-32.5 12.5h-50v-121h39zM179 247h12v-66h35v-11h-47v77zM207 394h10q3 0 5.5 -3t2.5 -7t-2.5 -7.5
t-5.5 -3.5h-10v21zM226 149h87v-31h-26v-78h-35v78h-26v31zM237 247h12v-66h36v-11h-48v77zM315 306v121h-38v-121h38zM338 149h40l37 -109h-38l-4 17h-31l-5 -17h-36zM331 247l22 -57l22 57h14l-32 -77h-8l-32 77h14zM363 306l5 19h34l5 -19h42l-41 121h-45l-41 -121h41z
M365 86l-7 26h-1l-7 -26h15zM384 386h1l8 -29h-17zM399 247h50v-11h-38v-22h33v-10h-33v-23h38v-11h-50v77zM421 149h79v-30h-44v-16h37v-29h-37v-34h-35v109zM538 306v33h-43v88h-39v-121h82zM462 247h29q11 0 18 -7t7 -18q0 -14 -12 -21l15 -31h-14l-13 28h-18v-28h-12v77
zM491 208q5 0 9 4t4 10t-4 10t-9 4h-17v-28h17zM521 135.5q17 16.5 42 16.5t42 -16.5t17 -40.5q0 -25 -17 -41.5t-42 -16.5t-42 16.5t-17 41.5q0 24 17 40.5zM525 189q13 -9 26 -9q14 0 14 12q0 7 -17 12q-12 5 -17 9.5t-5 13.5q0 10 7 16t19 6q10 0 20 -5v-13q-9 7 -20 7
q-6 0 -10 -3t-4 -8t3.5 -7.5t12.5 -5.5q23 -9 23 -22q0 -11 -7.5 -17t-18.5 -6q-14 0 -26 7v13zM546 76.5q7 -7.5 17 -7.5t17 7.5t7 18.5t-7 18t-17 7t-17 -7t-7 -18t7 -18.5zM574 367l167 166h-171q-29 -35 -29 -81q0 -49 33 -85zM669 325q48 0 85 32h-170q37 -32 85 -32z
M754 547q-38 33 -85 33q-49 0 -85 -33h170zM589 247h12v-77h-12v77zM767 371q29 35 29 81q0 48 -32 85l-166 -166h169zM625.5 237.5q11.5 11.5 28.5 11.5t28.5 -11.5t11.5 -28.5t-11.5 -28.5t-28.5 -11.5t-28.5 11.5t-11.5 28.5t11.5 28.5zM634 188q8 -8 20 -8q11 0 19 8
t8 21q0 12 -8 20t-19 8q-12 0 -20 -8t-8 -20q0 -13 8 -21zM630 149h36l33 -58v58h35v-109h-36l-34 53l1 -53h-35v109zM706 248h6l49 -55v54h12v-79h-6l-49 54v-52h-12v78zM740 149h86v-31h-25v-78h-35v78h-26v31zM807 213h458l-13 11l8 7l25 -24l-25 -24l-8 7l13 11h-458v12
zM839.5 321q18.5 -18 46.5 -18t47 18t19 46q0 27 -19 45t-47 18t-46.5 -18t-18.5 -45q0 -28 18.5 -46zM841 143q12 9 33 9q14 0 32 -8v-34q-6 5 -15.5 8t-16.5 3q-11 0 -11 -4q0 -3 2.5 -4.5t5.5 -2t6 -1.5q36 -8 36 -35q0 -17 -12.5 -27t-31.5 -10q-22 0 -38 10v37
q25 -16 38 -16q9 0 9 6q0 4 -7 6t-10 3q-17 6 -24.5 13.5t-7.5 21.5q0 16 12 25zM867 387q8 8 19 8q12 0 19.5 -8t7.5 -20q0 -13 -7.5 -21t-19.5 -8q-11 0 -19 8t-8 21q0 12 8 20zM923 65.5q5 4.5 13 4.5q7 0 12 -4.5t5 -11.5t-5 -12t-12 -5q-8 0 -13 5t-5 12t5 11.5z
M976 135.5q17 16.5 42 16.5q13 0 23 -6v-33q-12 7 -22 7t-17.5 -7t-7.5 -18t7 -18.5t18 -7.5q15 0 25 10l-1 -35q-14 -7 -26 -7q-24 0 -41 16.5t-17 41.5q0 24 17 40.5zM999 306l-1 59l38 -59h40v121h-39v-64l-37 64h-40v-121h39zM1064.5 135.5q17.5 16.5 42.5 16.5
t42 -16.5t17 -40.5q0 -25 -17 -41.5t-42 -16.5q-26 0 -43 16.5t-17 41.5q0 24 17.5 40.5zM1089 76.5q7 -7.5 18 -7.5q10 0 17 7.5t7 18.5q0 10 -7 17.5t-17 7.5t-17.5 -7t-7.5 -18t7 -18.5zM1170 306v33h-43v88h-39v-121h82zM1192 354v-48h39v48l41 73h-45l-16 -36l-15 36
h-46zM1173 149h35l26 -50l26 50h35v-109h-34v43l-14 -27h-25l-14 27v-43h-35v109z" />
    <glyph glyph-name="eight" unicode="8" horiz-adv-x="1292" 
d="M42 462h486q4 56 44.5 94t96.5 38t96.5 -38t44.5 -94h486v-193h-1254v193zM78 118h-36v31h93l-41 -78h38v-31h-95zM41 247h50v-11h-38v-26h33v-11h-33v-29h-12v77zM94 392v-86h39v86h28v35h-96v-35h29zM101 247h12v-47q0 -9 5.5 -14.5t13.5 -5.5t14 6t6 14v47h12v-47
q0 -14 -9 -22.5t-23 -8.5q-13 0 -22 9t-9 22v47zM142 149h79v-30h-44v-9h38v-30h-38v-10h45v-30h-80v109zM207 306v35h8l15 -35h41l-21 46q14 12 14 32q0 18 -13.5 30.5t-32.5 12.5h-50v-121h39zM179 247h12v-66h35v-11h-47v77zM207 394h10q3 0 5.5 -3t2.5 -7t-2.5 -7.5
t-5.5 -3.5h-10v21zM226 149h87v-31h-26v-78h-35v78h-26v31zM237 247h12v-66h36v-11h-48v77zM315 306v121h-38v-121h38zM338 149h40l37 -109h-38l-4 17h-31l-5 -17h-36zM331 247l22 -57l22 57h14l-32 -77h-8l-32 77h14zM363 306l5 19h34l5 -19h42l-41 121h-45l-41 -121h41z
M365 86l-7 26h-1l-7 -26h15zM384 386h1l8 -29h-17zM399 247h50v-11h-38v-22h33v-10h-33v-23h38v-11h-50v77zM421 149h79v-30h-44v-16h37v-29h-37v-34h-35v109zM538 306v33h-43v88h-39v-121h82zM462 247h29q11 0 18 -7t7 -18q0 -14 -12 -21l15 -31h-14l-13 28h-18v-28h-12v77
zM491 208q5 0 9 4t4 10t-4 10t-9 4h-17v-28h17zM521 135.5q17 16.5 42 16.5t42 -16.5t17 -40.5q0 -25 -17 -41.5t-42 -16.5t-42 16.5t-17 41.5q0 24 17 40.5zM525 189q13 -9 26 -9q14 0 14 12q0 7 -17 12q-12 5 -17 9.5t-5 13.5q0 10 7 16t19 6q10 0 20 -5v-13q-9 7 -20 7
q-6 0 -10 -3t-4 -8t3.5 -7.5t12.5 -5.5q23 -9 23 -22q0 -11 -7.5 -17t-18.5 -6q-14 0 -26 7v13zM546 76.5q7 -7.5 17 -7.5t17 7.5t7 18.5t-7 18t-17 7t-17 -7t-7 -18t7 -18.5zM574 367l167 166h-171q-29 -35 -29 -81q0 -49 33 -85zM669 325q48 0 85 32h-170q37 -32 85 -32z
M754 547q-38 33 -85 33q-49 0 -85 -33h170zM589 247h12v-77h-12v77zM767 371q29 35 29 81q0 48 -32 85l-166 -166h169zM625.5 237.5q11.5 11.5 28.5 11.5t28.5 -11.5t11.5 -28.5t-11.5 -28.5t-28.5 -11.5t-28.5 11.5t-11.5 28.5t11.5 28.5zM634 188q8 -8 20 -8q11 0 19 8
t8 21q0 12 -8 20t-19 8q-12 0 -20 -8t-8 -20q0 -13 8 -21zM630 149h36l33 -58v58h35v-109h-36l-34 53l1 -53h-35v109zM706 248h6l49 -55v54h12v-79h-6l-49 54v-52h-12v78zM740 149h86v-31h-25v-78h-35v78h-26v31zM807 213h458l-13 11l8 7l25 -24l-25 -24l-8 7l13 11h-458v12
zM839.5 321q18.5 -18 46.5 -18t47 18t19 46q0 27 -19 45t-47 18t-46.5 -18t-18.5 -45q0 -28 18.5 -46zM841 143q12 9 33 9q14 0 32 -8v-34q-6 5 -15.5 8t-16.5 3q-11 0 -11 -4q0 -3 2.5 -4.5t5.5 -2t6 -1.5q36 -8 36 -35q0 -17 -12.5 -27t-31.5 -10q-22 0 -38 10v37
q25 -16 38 -16q9 0 9 6q0 4 -7 6t-10 3q-17 6 -24.5 13.5t-7.5 21.5q0 16 12 25zM867 387q8 8 19 8q12 0 19.5 -8t7.5 -20q0 -13 -7.5 -21t-19.5 -8q-11 0 -19 8t-8 21q0 12 8 20zM923 65.5q5 4.5 13 4.5q7 0 12 -4.5t5 -11.5t-5 -12t-12 -5q-8 0 -13 5t-5 12t5 11.5z
M976 135.5q17 16.5 42 16.5q13 0 23 -6v-33q-12 7 -22 7t-17.5 -7t-7.5 -18t7 -18.5t18 -7.5q15 0 25 10l-1 -35q-14 -7 -26 -7q-24 0 -41 16.5t-17 41.5q0 24 17 40.5zM999 306l-1 59l38 -59h40v121h-39v-64l-37 64h-40v-121h39zM1064.5 135.5q17.5 16.5 42.5 16.5
t42 -16.5t17 -40.5q0 -25 -17 -41.5t-42 -16.5q-26 0 -43 16.5t-17 41.5q0 24 17.5 40.5zM1089 76.5q7 -7.5 18 -7.5q10 0 17 7.5t7 18.5q0 10 -7 17.5t-17 7.5t-17.5 -7t-7.5 -18t7 -18.5zM1170 306v33h-43v88h-39v-121h82zM1192 354v-48h39v48l41 73h-45l-16 -36l-15 36
h-46zM1173 149h35l26 -50l26 50h35v-109h-34v43l-14 -27h-25l-14 27v-43h-35v109z" />
    <glyph glyph-name="nine" unicode="9" horiz-adv-x="1292" 
d="M42 462h486q4 56 44.5 94t96.5 38t96.5 -38t44.5 -94h486v-193h-1254v193zM78 118h-36v31h93l-41 -78h38v-31h-95zM41 247h50v-11h-38v-26h33v-11h-33v-29h-12v77zM94 392v-86h39v86h28v35h-96v-35h29zM101 247h12v-47q0 -9 5.5 -14.5t13.5 -5.5t14 6t6 14v47h12v-47
q0 -14 -9 -22.5t-23 -8.5q-13 0 -22 9t-9 22v47zM142 149h79v-30h-44v-9h38v-30h-38v-10h45v-30h-80v109zM207 306v35h8l15 -35h41l-21 46q14 12 14 32q0 18 -13.5 30.5t-32.5 12.5h-50v-121h39zM179 247h12v-66h35v-11h-47v77zM207 394h10q3 0 5.5 -3t2.5 -7t-2.5 -7.5
t-5.5 -3.5h-10v21zM226 149h87v-31h-26v-78h-35v78h-26v31zM237 247h12v-66h36v-11h-48v77zM315 306v121h-38v-121h38zM338 149h40l37 -109h-38l-4 17h-31l-5 -17h-36zM331 247l22 -57l22 57h14l-32 -77h-8l-32 77h14zM363 306l5 19h34l5 -19h42l-41 121h-45l-41 -121h41z
M365 86l-7 26h-1l-7 -26h15zM384 386h1l8 -29h-17zM399 247h50v-11h-38v-22h33v-10h-33v-23h38v-11h-50v77zM421 149h79v-30h-44v-16h37v-29h-37v-34h-35v109zM538 306v33h-43v88h-39v-121h82zM462 247h29q11 0 18 -7t7 -18q0 -14 -12 -21l15 -31h-14l-13 28h-18v-28h-12v77
zM491 208q5 0 9 4t4 10t-4 10t-9 4h-17v-28h17zM521 135.5q17 16.5 42 16.5t42 -16.5t17 -40.5q0 -25 -17 -41.5t-42 -16.5t-42 16.5t-17 41.5q0 24 17 40.5zM525 189q13 -9 26 -9q14 0 14 12q0 7 -17 12q-12 5 -17 9.5t-5 13.5q0 10 7 16t19 6q10 0 20 -5v-13q-9 7 -20 7
q-6 0 -10 -3t-4 -8t3.5 -7.5t12.5 -5.5q23 -9 23 -22q0 -11 -7.5 -17t-18.5 -6q-14 0 -26 7v13zM546 76.5q7 -7.5 17 -7.5t17 7.5t7 18.5t-7 18t-17 7t-17 -7t-7 -18t7 -18.5zM574 367l167 166h-171q-29 -35 -29 -81q0 -49 33 -85zM669 325q48 0 85 32h-170q37 -32 85 -32z
M754 547q-38 33 -85 33q-49 0 -85 -33h170zM589 247h12v-77h-12v77zM767 371q29 35 29 81q0 48 -32 85l-166 -166h169zM625.5 237.5q11.5 11.5 28.5 11.5t28.5 -11.5t11.5 -28.5t-11.5 -28.5t-28.5 -11.5t-28.5 11.5t-11.5 28.5t11.5 28.5zM634 188q8 -8 20 -8q11 0 19 8
t8 21q0 12 -8 20t-19 8q-12 0 -20 -8t-8 -20q0 -13 8 -21zM630 149h36l33 -58v58h35v-109h-36l-34 53l1 -53h-35v109zM706 248h6l49 -55v54h12v-79h-6l-49 54v-52h-12v78zM740 149h86v-31h-25v-78h-35v78h-26v31zM807 213h458l-13 11l8 7l25 -24l-25 -24l-8 7l13 11h-458v12
zM839.5 321q18.5 -18 46.5 -18t47 18t19 46q0 27 -19 45t-47 18t-46.5 -18t-18.5 -45q0 -28 18.5 -46zM841 143q12 9 33 9q14 0 32 -8v-34q-6 5 -15.5 8t-16.5 3q-11 0 -11 -4q0 -3 2.5 -4.5t5.5 -2t6 -1.5q36 -8 36 -35q0 -17 -12.5 -27t-31.5 -10q-22 0 -38 10v37
q25 -16 38 -16q9 0 9 6q0 4 -7 6t-10 3q-17 6 -24.5 13.5t-7.5 21.5q0 16 12 25zM867 387q8 8 19 8q12 0 19.5 -8t7.5 -20q0 -13 -7.5 -21t-19.5 -8q-11 0 -19 8t-8 21q0 12 8 20zM923 65.5q5 4.5 13 4.5q7 0 12 -4.5t5 -11.5t-5 -12t-12 -5q-8 0 -13 5t-5 12t5 11.5z
M976 135.5q17 16.5 42 16.5q13 0 23 -6v-33q-12 7 -22 7t-17.5 -7t-7.5 -18t7 -18.5t18 -7.5q15 0 25 10l-1 -35q-14 -7 -26 -7q-24 0 -41 16.5t-17 41.5q0 24 17 40.5zM999 306l-1 59l38 -59h40v121h-39v-64l-37 64h-40v-121h39zM1064.5 135.5q17.5 16.5 42.5 16.5
t42 -16.5t17 -40.5q0 -25 -17 -41.5t-42 -16.5q-26 0 -43 16.5t-17 41.5q0 24 17.5 40.5zM1089 76.5q7 -7.5 18 -7.5q10 0 17 7.5t7 18.5q0 10 -7 17.5t-17 7.5t-17.5 -7t-7.5 -18t7 -18.5zM1170 306v33h-43v88h-39v-121h82zM1192 354v-48h39v48l41 73h-45l-16 -36l-15 36
h-46zM1173 149h35l26 -50l26 50h35v-109h-34v43l-14 -27h-25l-14 27v-43h-35v109z" />
    <glyph glyph-name="colon" unicode=":" horiz-adv-x="295" 
d="M24.5 6q-27.5 21 -27.5 62q0 44 33 77t102 33q46 0 73.5 -20.5t27.5 -61.5q0 -42 -32 -76.5t-103 -34.5q-46 0 -73.5 21zM89.5 378q-27.5 21 -27.5 62q0 44 33 77t102 33q46 0 73.5 -20.5t27.5 -61.5q0 -42 -32 -76.5t-103 -34.5q-46 0 -73.5 21z" />
    <glyph glyph-name="semicolon" unicode=";" horiz-adv-x="301" 
d="M49 -53.5q31 22.5 35 50.5q-38 5 -58 23.5t-20 51.5q0 50 31.5 79t86.5 29q49 0 76 -24t27 -67q0 -61 -27 -114t-85 -88.5t-147 -41.5l-6 73q56 6 87 28.5zM93.5 379q-27.5 21 -27.5 62q0 44 33 77t102 33q46 0 73.5 -20.5t27.5 -61.5q0 -42 -32 -76.5t-103 -34.5
q-46 0 -73.5 21z" />
    <glyph glyph-name="less" unicode="&#x3c;" horiz-adv-x="600" 
d="M575 394l-361 -112l-1 -6l322 -113l-29 -156l-484 204l26 143l556 205z" />
    <glyph glyph-name="equal" unicode="=" horiz-adv-x="484" 
d="M82 472l196 -2l196 2l-22 -118l-193 3l-198 -3zM49 285l196 -3l195 3l-20 -118l-195 2l-197 -2z" />
    <glyph glyph-name="greater" unicode="&#x3e;" horiz-adv-x="600" 
d="M30 173l361 112l1 6l-322 113l29 156l484 -204l-26 -143l-556 -205z" />
    <glyph glyph-name="question" unicode="?" horiz-adv-x="538" 
d="M324 434q46 38 46 77q0 23 -16 36t-42 13q-38 0 -61.5 -21.5t-40.5 -67.5l-147 42q24 71 92 133t191 62q94 0 150.5 -45.5t56.5 -124.5q0 -70 -56.5 -132.5t-188.5 -93.5l-24 -83h-122l16 140q100 27 146 65zM120.5 137q30.5 31 95.5 31q44 0 70 -20t26 -59
q0 -41 -31 -72.5t-96 -31.5q-43 0 -69 20t-26 60q0 41 30.5 72z" />
    <glyph glyph-name="at" unicode="@" horiz-adv-x="800" 
d="M169 -79.5q-74 37.5 -115.5 106t-41.5 158.5q0 97 45 202t147.5 179t263.5 74q88 0 162 -34.5t117.5 -96.5t43.5 -142q0 -67 -23.5 -136.5t-75.5 -116.5t-132 -47q-52 0 -85.5 27t-31.5 76h-2q-25 -41 -61 -61t-71 -20q-46 0 -76.5 29t-30.5 86q0 50 21.5 109t63.5 100.5
t100 41.5q34 0 59.5 -13.5t33.5 -34.5l11 39h125l-61 -200q-9 -29 -9 -46q0 -34 34 -34q35 0 58 32.5t33.5 76t10.5 75.5q0 87 -60.5 138.5t-164.5 51.5q-114 0 -189 -56t-109 -135t-34 -149q0 -99 59.5 -158t164.5 -59q49 0 102 13t96 39l29 -82q-52 -33 -115 -51.5
t-124 -18.5q-94 0 -168 37.5zM376 201q21 0 36.5 20t24 46.5t8.5 42.5t-7.5 24.5t-21.5 8.5q-19 0 -34.5 -19t-24.5 -44.5t-9 -42.5q0 -36 28 -36z" />
    <glyph glyph-name="A" unicode="A" horiz-adv-x="702" 
d="M130 346l170 347h250l49 -347l54 -346h-209l-10 122l-108 2l-104 -1l-53 -123h-215zM352 270l70 1l-4 49l-22 185h-4l-84 -185l-21 -49z" />
    <glyph glyph-name="B" unicode="B" horiz-adv-x="659" 
d="M63 347l58 346h321q104 0 166 -37.5t62 -119.5q0 -65 -35 -113.5t-117 -62.5l-1 -3q119 -21 119 -136q0 -94 -73 -157.5t-239 -63.5h-325zM318 133q58 0 90.5 23.5t32.5 66.5q0 36 -22 53t-68 17h-107l-26 -160h100zM365 419q57 0 83.5 26t26.5 63q0 59 -82 59h-99
l-27 -148h98z" />
    <glyph glyph-name="C" unicode="C" horiz-adv-x="681" 
d="M178 22q-70 37 -107.5 106t-37.5 163q0 125 46.5 219.5t131.5 146t198 51.5q130 0 207.5 -67t87.5 -183l-186 -48q-4 72 -33 103.5t-82 31.5q-49 0 -86 -31t-57 -88t-20 -133q0 -69 30.5 -107t84.5 -38q100 0 140 136l170 -49q-24 -116 -111 -183t-211 -67q-95 0 -165 37
z" />
    <glyph glyph-name="D" unicode="D" horiz-adv-x="707" 
d="M63 347l58 346h245q171 0 254.5 -70t83.5 -215q0 -101 -44.5 -193.5t-146.5 -153.5t-262 -61h-252zM274 167q82 0 132.5 32.5t72 82t21.5 102.5q0 75 -38 109t-120 34h-51l-34 -180l-29 -180h46z" />
    <glyph glyph-name="E" unicode="E" horiz-adv-x="597" 
d="M63 346l58 347h520l-28 -156h-319l-22 -118h293l-23 -135h-294l-21 -128h329l-28 -156h-529z" />
    <glyph glyph-name="F" unicode="F" horiz-adv-x="567" 
d="M63 346l58 347h500l-28 -156h-299l-24 -131h288l-26 -145h-288l-43 -261h-202z" />
    <glyph glyph-name="G" unicode="G" horiz-adv-x="699" 
d="M162 22q-62 37 -95.5 106t-33.5 163q0 125 46.5 219.5t131.5 146t198 51.5q130 0 208 -66t87 -178l-186 -52q-3 70 -31.5 101.5t-80.5 31.5q-77 0 -121.5 -68.5t-44.5 -183.5q0 -70 29 -110.5t85 -40.5q50 0 86.5 32t50.5 89l-142 -2l21 122h320l-35 -189l-24 -194h-124
l-2 72q-36 -45 -89 -66t-108 -21q-84 0 -146 37z" />
    <glyph glyph-name="H" unicode="H" horiz-adv-x="715" 
d="M469 267l-112 2l-112 -2l-44 -267h-202l64 346l58 347h202l-48 -260l111 -2l112 2l43 260h203l-65 -347l-57 -346h-203z" />
    <glyph glyph-name="I" unicode="I" horiz-adv-x="295" 
d="M63 346l58 347h202l-64 -347l-58 -346h-202z" />
    <glyph glyph-name="J" unicode="J" horiz-adv-x="433" 
d="M-34 0l58 155q30 -6 55 -6q48 0 75.5 28.5t38.5 86.5l41 225l34 204h203l-38 -204l-35 -208q-26 -154 -104 -225t-206 -71q-62 0 -122 15z" />
    <glyph glyph-name="K" unicode="K" horiz-adv-x="683" 
d="M63 346l58 347h202l-47 -257l230 257h231l-265 -276l162 -417h-206l-99 267l-101 -105l-27 -162h-202z" />
    <glyph glyph-name="L" unicode="L" horiz-adv-x="549" 
d="M72 395l49 298h202l-54 -298l-39 -229h283l-30 -166h-484z" />
    <glyph glyph-name="M" unicode="M" horiz-adv-x="871" 
d="M60 329l61 364h251l31 -256l25 -186h4l91 186l119 256h257l-60 -331l-61 -362h-176l51 271l35 201h-2l-103 -209l-124 -263h-141l-32 262l-30 210h-2l-35 -201l-44 -271h-176z" />
    <glyph glyph-name="N" unicode="N" horiz-adv-x="704" 
d="M63 346l58 347h212l77 -233l61 -187h2l29 163l44 257h187l-65 -346l-57 -347h-213l-76 234l-61 186h-2l-29 -163l-45 -257h-186z" />
    <glyph glyph-name="O" unicode="O" horiz-adv-x="738" 
d="M177.5 22q-70.5 37 -107.5 105.5t-37 162.5q0 126 47.5 220.5t135.5 146t204 51.5q97 0 167.5 -36.5t108 -105.5t37.5 -163q0 -125 -47.5 -220t-135.5 -146.5t-204 -51.5q-98 0 -168.5 37zM271 186q31 -38 89 -38q49 0 86.5 32.5t58 90t20.5 130.5q0 69 -30.5 106.5
t-88.5 37.5q-49 0 -87 -32.5t-58.5 -90t-20.5 -129.5q0 -69 31 -107z" />
    <glyph glyph-name="P" unicode="P" horiz-adv-x="657" 
d="M63 347l58 346h291q128 0 196 -52t68 -157q0 -62 -31 -123t-108.5 -104t-206.5 -43h-93l-36 -214h-202zM360 366q64 0 93 30t29 69q0 35 -22 52t-68 17h-99l-30 -168h97z" />
    <glyph glyph-name="Q" unicode="Q" horiz-adv-x="738" 
d="M177.5 22q-70.5 37 -107.5 105.5t-37 162.5q0 126 47.5 220.5t135.5 146t204 51.5q97 0 167.5 -36.5t108 -105.5t37.5 -163q0 -104 -33 -187.5t-95 -138.5l114 -101l-180 -88l-111 104q-36 -7 -82 -7q-98 0 -168.5 37zM271 186q31 -38 89 -38q49 0 86.5 32.5t58 90
t20.5 130.5q0 69 -30.5 106.5t-88.5 37.5q-49 0 -87 -32.5t-58.5 -90t-20.5 -129.5q0 -69 31 -107z" />
    <glyph glyph-name="R" unicode="R" horiz-adv-x="674" 
d="M63 347l58 346h315q121 0 181.5 -48t60.5 -146q0 -66 -33 -122.5t-110 -86.5q32 -17 48 -47.5t16 -77.5q0 -17 -2 -61q-3 -34 -3 -66q0 -24 3 -38h-204q-4 20 -4 50q0 17 2 55t2 55q0 43 -18.5 58t-63.5 15h-71l-39 -233h-202zM357 371q63 0 94.5 27.5t31.5 70.5
q0 33 -22 49t-69 16h-99l-29 -163h93z" />
    <glyph glyph-name="S" unicode="S" horiz-adv-x="624" 
d="M86 42.5q-77 57.5 -84 165.5l164 41q7 -55 39.5 -81.5t89.5 -26.5q52 0 78 17.5t26 45.5q0 27 -25.5 43.5t-90.5 32.5q-101 24 -156 76.5t-55 141.5q0 49 26.5 96.5t90 80.5t165.5 33q131 0 200 -54t79 -149l-173 -44q-3 41 -30 67t-79 26q-40 0 -62.5 -16t-22.5 -42
t21 -41t73 -28q124 -30 180 -81.5t56 -132.5q0 -60 -29 -111.5t-95.5 -84t-173.5 -32.5q-135 0 -212 57.5z" />
    <glyph glyph-name="T" unicode="T" horiz-adv-x="545" 
d="M178 287l42 250h-164l27 156h528l-27 -156h-164l-46 -250l-47 -287h-203z" />
    <glyph glyph-name="U" unicode="U" horiz-adv-x="695" 
d="M102.5 41.5q-67.5 56.5 -67.5 174.5q0 44 11 104l33 179l33 194h203l-38 -194l-34 -209q-4 -24 -4 -49q0 -45 20.5 -69t66.5 -24q58 0 88.5 35.5t44.5 105.5l39 211l32 193h203l-37 -194l-29 -178q-29 -175 -114.5 -255.5t-246.5 -80.5q-136 0 -203.5 56.5z" />
    <glyph glyph-name="V" unicode="V" horiz-adv-x="682" 
d="M131 367l-55 326h205l21 -263l23 -222h4l96 222l112 263h218l-169 -327l-180 -366h-223z" />
    <glyph glyph-name="W" unicode="W" horiz-adv-x="925" 
d="M89 371l-13 322h198l-10 -280l-1 -203h3l90 216l103 267h153l8 -266l17 -217h3l68 202l90 281h200l-123 -321l-135 -372h-231l-12 231l-10 193h-2l-76 -193l-95 -231h-224z" />
    <glyph glyph-name="X" unicode="X" horiz-adv-x="699" 
d="M221 357l-134 336h217l78 -203h2l148 203h224l-247 -335l141 -358h-218l-86 226h-2l-166 -226h-224z" />
    <glyph glyph-name="Y" unicode="Y" horiz-adv-x="668" 
d="M229 241l-153 452h215l64 -252h3l157 252h226l-315 -452l-40 -241h-203z" />
    <glyph glyph-name="Z" unicode="Z" horiz-adv-x="600" 
d="M-3 157l205 197l166 173h-300l29 166h557l-27 -157l-211 -202l-161 -168h310l-29 -166h-567z" />
    <glyph glyph-name="bracketleft" unicode="[" horiz-adv-x="356" 
d="M129 738h288l-23 -132h-123l-106 -599h123l-23 -131h-288z" />
    <glyph glyph-name="backslash" unicode="\" horiz-adv-x="477" 
d="M393 -145l-472 869h156l471 -869h-155z" />
    <glyph glyph-name="bracketright" unicode="]" horiz-adv-x="356" 
d="M241 -124h-288l23 132h123l106 599h-123l23 131h288z" />
    <glyph glyph-name="asciicircum" unicode="^" horiz-adv-x="477" 
d="M246 693h134l82 -246h-102l-63 155l-117 -155h-102z" />
    <glyph glyph-name="underscore" unicode="_" horiz-adv-x="501" 
d="M-56 -51h501l-13 -72h-501z" />
    <glyph glyph-name="grave" unicode="`" horiz-adv-x="250" 
d="M107 783h167l11 -166h-106z" />
    <glyph glyph-name="a" unicode="a" horiz-adv-x="611" 
d="M54 35.5q-45 50.5 -45 146.5q0 76 26 161t85 146.5t153 61.5q48 0 88.5 -23t56.5 -59h2l11 68h186l-50 -269l-44 -268h-187l12 68h-2q-28 -37 -73.5 -60t-93.5 -23q-80 0 -125 50.5zM272 138q40 0 66.5 29t38 68.5t11.5 70.5q0 92 -72 92q-40 0 -66 -27t-37.5 -65.5
t-11.5 -75.5q0 -92 71 -92z" />
    <glyph glyph-name="b" unicode="b" horiz-adv-x="611" 
d="M249.5 8.5q-40.5 23.5 -55.5 59.5h-3l-11 -68h-186l60 328l62 365h186l-40 -224h2q29 36 74.5 59t93.5 23q82 0 126 -49.5t44 -145.5q0 -76 -25.5 -162t-84.5 -147.5t-153 -61.5q-49 0 -89.5 23.5zM241.5 161q19.5 -23 53.5 -23q40 0 66 27.5t37.5 66.5t11.5 76
q0 90 -71 90q-41 0 -67.5 -27.5t-38 -66t-11.5 -71.5q0 -49 19.5 -72z" />
    <glyph glyph-name="c" unicode="c" horiz-adv-x="561" 
d="M79.5 49q-65.5 64 -65.5 180q0 63 30.5 138t100.5 129.5t180 54.5q112 0 177.5 -53t72.5 -140l-175 -44q-3 91 -83 91q-39 0 -65 -27.5t-38 -68t-12 -79.5q0 -47 23 -72.5t58 -25.5q36 0 62 23.5t39 69.5l163 -46q-29 -92 -101 -143t-183 -51q-118 0 -183.5 64z" />
    <glyph glyph-name="d" unicode="d" horiz-adv-x="611" 
d="M53.5 36q-44.5 50 -44.5 146q0 76 26 161.5t85 147t152 61.5q49 0 89.5 -23.5t56.5 -59.5h2l38 224h187l-67 -365l-55 -328h-187l12 68h-2q-28 -37 -73 -59.5t-94 -22.5q-81 0 -125.5 50zM272 139q41 0 67 27t38 65.5t12 72.5q0 48 -19 71.5t-54 23.5q-40 0 -66 -27
t-37.5 -66.5t-11.5 -76.5q0 -90 71 -90z" />
    <glyph glyph-name="e" unicode="e" horiz-adv-x="576" 
d="M79.5 49q-65.5 64 -65.5 179q0 65 30 140t100 129.5t183 54.5q120 0 176 -63.5t56 -175.5q0 -39 -6 -81h-353v-5q0 -51 23.5 -76t64.5 -25q34 0 60 23.5t38 61.5l149 -42q-29 -76 -97.5 -130t-174.5 -54q-118 0 -183.5 64zM395 335q5 83 -73 83q-38 0 -64 -22.5
t-40 -60.5h177z" />
    <glyph glyph-name="f" unicode="f" horiz-adv-x="403" 
d="M112 400l-87 -2l25 139h83q0 34 14 82.5t63 92t144 43.5q36 0 72.5 -8.5t66.5 -27.5l-44 -132q-31 21 -72 21q-32 0 -48.5 -20.5t-11.5 -50.5h124l-24 -139l-125 2l-67 -400h-186z" />
    <glyph glyph-name="g" unicode="g" horiz-adv-x="612" 
d="M46 -130.5q-54 43.5 -69 127.5l151 41q6 -42 28.5 -61.5t66.5 -19.5q60 0 91 36.5t42 106.5l3 15h-3q-27 -32 -73.5 -54t-92.5 -22q-80 0 -127 49t-47 148q0 63 25 136t84 126t153 53q48 0 87 -23t55 -58h2l11 67h186l-67 -380q-32 -180 -120.5 -255.5t-218.5 -75.5
q-113 0 -167 43.5zM226.5 201q18.5 -23 53.5 -23q39 0 64.5 22.5t37 54.5t11.5 60q0 36 -18.5 59.5t-55.5 23.5q-36 0 -61 -20.5t-37.5 -51t-12.5 -61.5q0 -41 18.5 -64z" />
    <glyph glyph-name="h" unicode="h" horiz-adv-x="610" 
d="M42 256l74 437h185l-42 -227h2q28 39 76.5 62t97.5 23q76 0 113.5 -35.5t37.5 -109.5q0 -30 -6 -68l-14 -82l-42 -256h-186l48 256l8 46q3 17 3 29q0 60 -63 60q-40 0 -70 -28.5t-38 -78.5l-4 -28l-43 -256h-185z" />
    <glyph glyph-name="i" unicode="i" horiz-adv-x="268" 
d="M44 270l44 267q29 -10 91 -10t95 10l-50 -267l-45 -270h-185zM129.5 712q28.5 19 85.5 19q50 0 73 -14.5t23 -45.5q0 -6 -2 -20q-8 -42 -36.5 -60.5t-85.5 -18.5q-49 0 -72 14t-23 44q0 13 2 21q7 42 35.5 61z" />
    <glyph glyph-name="j" unicode="j" horiz-adv-x="262" 
d="M-139 -153l47 134q21 -8 37 -8q41 0 53 64l85 500q29 -10 91 -10t95 10l-75 -407l-15 -88q-21 -118 -73 -166.5t-146 -48.5q-41 0 -99 20zM124.5 712q28.5 19 85.5 19q50 0 73 -14.5t23 -45.5q0 -6 -2 -20q-8 -42 -36.5 -60.5t-85.5 -18.5q-49 0 -72 14t-23 44q0 13 2 21
q7 42 35.5 61z" />
    <glyph glyph-name="k" unicode="k" horiz-adv-x="591" 
d="M58 353l58 340h185l-61 -332l171 176h209l-215 -207l141 -330h-195l-83 199l-66 -64l-23 -135h-185z" />
    <glyph glyph-name="l" unicode="l" horiz-adv-x="268" 
d="M58 353l58 340h185l-62 -340l-60 -353h-185z" />
    <glyph glyph-name="m" unicode="m" horiz-adv-x="903" 
d="M42 256l46 281h186l-16 -71h2q29 39 76.5 62t91.5 23q52 0 86 -25.5t44 -75.5h2q31 48 83 74.5t100 26.5q138 0 138 -143q0 -30 -6 -66l-15 -86l-43 -256h-185l48 256l8 53q2 9 2 26q0 28 -13 42t-35 14q-34 0 -61.5 -28t-34.5 -75l-5 -32l-43 -256h-186l48 256l9 53
q2 16 2 23q0 28 -13 43.5t-35 15.5q-33 0 -61 -28t-35 -75l-5 -32l-43 -256h-185z" />
    <glyph glyph-name="n" unicode="n" horiz-adv-x="610" 
d="M42 256l46 281h186l-15 -71h2q29 40 76 62.5t101 22.5q74 0 111 -35.5t37 -112.5q0 -32 -8 -78l-12 -69l-42 -256h-186l48 256l8 47q2 9 2 26q0 63 -60 63q-41 0 -70.5 -28.5t-38.5 -78.5l-5 -29l-43 -256h-185z" />
    <glyph glyph-name="o" unicode="o" horiz-adv-x="599" 
d="M83.5 49.5q-68.5 64.5 -68.5 178.5q0 72 31.5 146.5t102 125.5t180.5 51q118 0 187 -64t69 -178q0 -72 -32 -146.5t-103 -126t-181 -51.5q-117 0 -185.5 64.5zM224.5 161q21.5 -25 58.5 -25q55 0 84.5 49.5t29.5 118.5q0 46 -22.5 71t-59.5 25q-54 0 -83 -49.5
t-29 -118.5q0 -46 21.5 -71z" />
    <glyph glyph-name="p" unicode="p" horiz-adv-x="611" 
d="M33 209l55 328h187l-12 -68h2q28 36 74 59t93 23q81 0 125.5 -50.5t44.5 -146.5q0 -75 -25.5 -160.5t-84.5 -147t-153 -61.5q-49 0 -89.5 23.5t-56.5 59.5h-2l-39 -228h-187zM241 161q19 -23 52 -23q41 0 67 27.5t38 66.5t12 76q0 90 -71 90q-41 0 -67.5 -28t-38 -66
t-11.5 -71q0 -49 19 -72z" />
    <glyph glyph-name="q" unicode="q" horiz-adv-x="611" 
d="M308 -160l41 228h-2q-29 -36 -74.5 -59.5t-92.5 -23.5q-82 0 -126.5 50t-44.5 146q0 76 25.5 161.5t85 147t153.5 61.5q51 0 90 -22.5t54 -59.5h3l11 68h187l-61 -328l-62 -369h-187zM272 138q41 0 67 28t38 66.5t12 72.5q0 47 -19.5 70t-54.5 23q-39 0 -64.5 -27
t-37 -66t-11.5 -76q0 -91 70 -91z" />
    <glyph glyph-name="r" unicode="r" horiz-adv-x="398" 
d="M42 256l46 281h186l-17 -80h2q24 40 65 67t103 27q12 0 20 -2l-32 -184q-28 5 -45 5q-128 0 -151 -131l-6 -31l-34 -208h-185z" />
    <glyph glyph-name="s" unicode="s" horiz-adv-x="526" 
d="M57.5 30q-64.5 45 -73.5 123l159 39q7 -36 26.5 -54.5t69.5 -18.5q70 0 70 41q0 19 -19.5 31t-70.5 19q-83 14 -131 55t-48 111q0 76 61.5 126t186.5 50q102 0 164.5 -40t75.5 -118l-162 -42q-4 36 -23 51t-56 15q-30 0 -44.5 -9.5t-14.5 -24.5q0 -17 20.5 -27.5
t84.5 -24.5q87 -19 126 -59t39 -109q0 -45 -24 -85.5t-81.5 -67t-151.5 -26.5q-119 0 -183.5 45z" />
    <glyph glyph-name="t" unicode="t" horiz-adv-x="422" 
d="M97 21q-39 36 -39 110q0 44 13 114l29 155l-77 -2l24 139h76l28 157h182l-28 -157h145l-24 -139l-147 2l-29 -171q-3 -18 -3 -33q0 -64 56 -64q32 0 63 9l11 -125q-34 -14 -73 -22.5t-74 -8.5q-94 0 -133 36z" />
    <glyph glyph-name="u" unicode="u" horiz-adv-x="605" 
d="M563 281l-46 -281h-186l15 71h-2q-24 -38 -73 -61.5t-98 -23.5q-74 0 -111.5 35.5t-37.5 112.5q0 32 8 78l12 69l42 256h186l-48 -256l-8 -46q-2 -9 -2 -26q0 -63 62 -63q36 0 65 28.5t37 75.5l5 31l43 256h185z" />
    <glyph glyph-name="v" unicode="v" horiz-adv-x="567" 
d="M353 0h-234l-73 537h186l33 -365h3l158 365h190z" />
    <glyph glyph-name="w" unicode="w" horiz-adv-x="811" 
d="M46 537h183l1 -357h3l141 357h160l22 -357h2l121 357h181l-224 -537h-200l-17 319h-2l-129 -319h-206z" />
    <glyph glyph-name="x" unicode="x" horiz-adv-x="584" 
d="M159 273l-106 264h202l47 -176h2l113 176h208l-196 -264l109 -273h-202l-53 184h-2l-123 -184h-207z" />
    <glyph glyph-name="y" unicode="y" horiz-adv-x="567" 
d="M24 -168q-33 5 -62 16l55 131q12 -3 29.5 -5t29.5 -2q24 0 40.5 6.5t31.5 21.5l-102 537h186l43 -327h2l148 327h192l-228 -452q-67 -135 -135.5 -196.5t-169.5 -61.5q-27 0 -60 5z" />
    <glyph glyph-name="z" unicode="z" horiz-adv-x="512" 
d="M-2 135l284 255h-236l26 147h461l-24 -136l-283 -254h243l-26 -147h-469z" />
    <glyph glyph-name="braceleft" unicode="{" horiz-adv-x="374" 
d="M114.5 -86q-46.5 38 -46.5 113q0 24 4 47l15 86q3 15 3 28q0 26 -15.5 39.5t-51.5 13.5l24 131q45 0 64.5 19.5t27.5 61.5l21 121q15 83 68.5 123.5t148.5 40.5h57l-22 -131h-17q-34 0 -48 -9.5t-20 -37.5l-18 -104q-14 -72 -38.5 -106t-80.5 -45q39 -9 55.5 -30
t16.5 -58q0 -25 -6 -60l-19 -105q-1 -6 -1 -15q0 -18 11.5 -24.5t40.5 -6.5h18l-23 -130h-37q-85 0 -131.5 38z" />
    <glyph glyph-name="bar" unicode="|" horiz-adv-x="254" 
d="M282 693l-139 -793h-162l140 793h161z" />
    <glyph glyph-name="braceright" unicode="}" horiz-adv-x="374" 
d="M272.5 699q46.5 -38 46.5 -113q0 -24 -4 -47l-15 -86q-3 -15 -3 -28q0 -26 15.5 -39.5t51.5 -13.5l-24 -131q-45 0 -64.5 -19.5t-27.5 -61.5l-21 -121q-15 -83 -68.5 -123.5t-148.5 -40.5h-57l22 131h17q34 0 48 9.5t20 37.5l18 104q14 72 38.5 106t80.5 45
q-39 9 -55.5 30t-16.5 58q0 26 6 60l19 105q1 6 1 15q0 18 -11.5 24.5t-40.5 6.5h-18l23 130h37q85 0 131.5 -38z" />
    <glyph glyph-name="asciitilde" unicode="~" horiz-adv-x="543" 
d="M192 389q33 0 58 -14t56 -39q19 -16 32.5 -24.5t26.5 -8.5q20 0 29 18t17 58h105q-13 -93 -51 -143.5t-109 -50.5q-33 0 -58 13.5t-55 38.5q-19 16 -32.5 24.5t-26.5 8.5q-20 0 -29.5 -18.5t-15.5 -56.5h-105q27 194 158 194z" />
    <glyph glyph-name="DEL" horiz-adv-x="600" 
 />
    <glyph glyph-name="uni00A0" unicode="&#xa0;" horiz-adv-x="229" 
 />
    <glyph glyph-name="exclamdown" unicode="&#xa1;" horiz-adv-x="313" 
d="M213 67l-39 -223h-184l39 223l81 228h101zM110 520.5q31 31.5 96 31.5q43 0 69 -20t26 -60q0 -41 -30 -72t-95 -31q-44 0 -70.5 20t-26.5 59q0 41 31 72.5z" />
    <glyph glyph-name="cent" unicode="&#xa2;" horiz-adv-x="559" 
d="M406 693l-14 -77q87 -10 138 -56.5t60 -121.5l-156 -41q-3 73 -65 85l-49 -277q34 5 59 27.5t38 60.5l141 -40q-33 -83 -99.5 -130t-162.5 -52l-12 -71h-70l13 73q-94 13 -147.5 73t-53.5 151q0 65 28.5 136.5t95.5 124.5t173 59l13 76h70zM251 211l47 267
q-48 -17 -75.5 -68t-27.5 -103q0 -75 56 -96z" />
    <glyph glyph-name="sterling" unicode="&#xa3;" horiz-adv-x="682" 
d="M28 25q-35 30 -35 81q0 60 44.5 92t111.5 32q38 0 81 -15q-3 25 -12.5 47.5t-28.5 60.5h-121l9 52h87q-25 61 -25 115q0 47 26.5 95t88 80.5t158.5 32.5q85 0 144 -28.5t89.5 -77t32.5 -109.5l-186 -48q-1 48 -22 74t-63 26q-44 0 -63 -22t-19 -50q0 -19 5.5 -39.5
t16.5 -48.5h150l-10 -52h-120q15 -49 15 -84q0 -41 -21 -89q26 -12 43.5 -18.5t32.5 -6.5q54 0 65 113l147 -42q-23 -101 -65.5 -151t-119.5 -50q-42 0 -81 18t-82 50q-71 -68 -179 -68q-59 0 -94 30zM146 92q41 0 65 35q-34 21 -60 21q-37 0 -37 -29q0 -27 32 -27z" />
    <glyph glyph-name="currency" unicode="&#xa4;" horiz-adv-x="470" 
d="M126 146l-66 -56l-60 71l68 57q-11 27 -11 55q0 15 3 31q9 49 39 88l-48 57l84 71l47 -55q47 22 93 22q45 0 83 -22l65 55l59 -71l-65 -57q10 -30 10 -60q0 -8 -2 -28q-9 -47 -40 -86l46 -57l-83 -71l-47 56q-45 -24 -91 -24t-84 24zM177.5 241q19.5 -20 49.5 -20
q24 0 47.5 14t38 36t14.5 46q0 30 -20 50.5t-50 20.5q-24 0 -47 -13.5t-37.5 -36.5t-14.5 -48q0 -29 19.5 -49z" />
    <glyph glyph-name="yen" unicode="&#xa5;" horiz-adv-x="668" 
d="M210 141h-149l11 61h150l7 39l-2 6h-146l10 61h115l-130 385h224l63 -252h3l158 252h217l-268 -385h120l-10 -61h-153l-4 -6l-6 -39h155l-11 -61h-155l-23 -141h-203z" />
    <glyph glyph-name="brokenbar" unicode="&#xa6;" horiz-adv-x="254" 
d="M282 693l-57 -328h-162l58 328h161zM39 228h162l-58 -328h-162z" />
    <glyph glyph-name="section" unicode="&#xa7;" horiz-adv-x="526" 
d="M40.5 -64q-59.5 42 -59.5 116l169 41q-2 -32 17 -50t58 -18q32 0 50 12t22 32q3 20 -14 34.5t-66 25.5q-104 21 -152.5 53.5t-48.5 90.5q0 14 3 30q5 31 23.5 61.5t45.5 53.5q-28 31 -28 80q0 17 3 36q14 80 85 127t178 47q110 0 170 -42t59 -116l-169 -41q2 32 -17 50
t-58 18q-32 0 -50 -12t-22 -32q-3 -20 14 -34.5t66 -25.5q104 -21 152.5 -53.5t48.5 -90.5q0 -13 -3 -30q-5 -31 -24 -62t-45 -53q29 -32 29 -80q0 -16 -3 -36q-14 -80 -85.5 -127t-178.5 -47q-110 0 -169.5 42zM205.5 274.5q16.5 -11.5 55.5 -18.5q30 -4 57 -12
q29 28 29 56q0 16 -16.5 27.5t-55.5 18.5q-31 5 -56 12q-30 -29 -30 -56q0 -16 16.5 -27.5z" />
    <glyph glyph-name="dieresis" unicode="&#xa8;" horiz-adv-x="385" 
d="M98.5 624.5q-17.5 14.5 -17.5 41.5q0 4 2 16q6 35 30 54.5t62 19.5q33 0 50.5 -15t17.5 -42q0 -5 -2 -17q-7 -35 -31 -53.5t-61 -18.5q-33 0 -50.5 14.5zM320 736.5q24 19.5 61 19.5q33 0 51 -15t18 -42q0 -5 -2 -17q-7 -35 -31 -53.5t-61 -18.5q-33 0 -50.5 14t-17.5 41
q0 5 2 17q6 35 30 54.5z" />
    <glyph glyph-name="copyright" unicode="&#xa9;" horiz-adv-x="772" 
d="M193.5 27.5q-76.5 41.5 -118 115t-41.5 168.5q0 97 43.5 188t132.5 149.5t219 58.5q97 0 174 -41.5t120 -116t43 -168.5q0 -96 -43.5 -187t-132.5 -149.5t-219 -58.5q-101 0 -177.5 41.5zM130.5 177q34.5 -61 98 -95.5t147.5 -34.5q108 0 182 48.5t110 124t36 155.5
q0 79 -35.5 140.5t-99.5 96t-145 34.5q-108 0 -182 -48.5t-110 -124.5t-36 -156q0 -79 34.5 -140zM222.5 422.5q22.5 53.5 72.5 91.5t127 38q76 0 121.5 -36.5t52.5 -98.5l-122 -32q-3 59 -52 59q-41 0 -63.5 -36t-22.5 -84q0 -35 15 -51t39 -16q23 0 43.5 16.5t31.5 47.5
l112 -31q-27 -66 -77 -103.5t-122 -37.5q-79 0 -128.5 46.5t-49.5 125.5q0 48 22.5 101.5z" />
    <glyph glyph-name="ordfeminine" unicode="&#xaa;" horiz-adv-x="395" 
d="M73 375q-24 20 -24 53q0 10 1 16q12 66 66.5 86t137.5 20h13l2 11q1 5 1 13q0 31 -35 31q-41 0 -52 -48l-96 22q17 54 62.5 85.5t112.5 31.5q129 0 129 -105q0 -16 -3 -34l-16 -89l-2 -13q0 -12 11 -12q9 0 21 5l1 -80q-27 -12 -72 -12q-34 0 -50.5 12t-15.5 43l1 6h-1
q-18 -30 -52 -46t-74 -16q-42 0 -66 20zM30 308h354l-16 -91h-354zM177 443.5q7 -5.5 19 -5.5q20 0 38.5 15.5t22.5 40.5l1 2h-14q-38 0 -56 -8t-18 -29q0 -10 7 -15.5z" />
    <glyph glyph-name="guillemotleft" unicode="&#xab;" horiz-adv-x="616" 
d="M27 219l16 88l238 193l69 -70l-174 -176l113 -169l-82 -70zM289 293l240 207l69 -70l-173 -176l112 -169l-82 -70l-177 211z" />
    <glyph glyph-name="logicalnot" unicode="&#xac;" horiz-adv-x="536" 
d="M343 278h-305l27 154h464l-48 -270h-158z" />
    <glyph glyph-name="uni00AD" unicode="&#xad;" 
 />
    <glyph glyph-name="registered" unicode="&#xae;" horiz-adv-x="411" 
d="M105.5 380q-43.5 43 -43.5 109q0 55 26 105t76 81t118 31q45 0 80.5 -20.5t55.5 -55.5t20 -78q0 -53 -26 -102.5t-76 -81t-119 -31.5q-68 0 -111.5 43zM136.5 409q34.5 -35 87.5 -35q47 0 87 23.5t63.5 63.5t23.5 85q0 52 -35 87t-88 35q-48 0 -87.5 -24t-62.5 -63.5
t-23 -84.5q0 -52 34.5 -87zM177 528l15 92h77q37 0 56 -15.5t14 -43.5q-7 -35 -37 -49q8 -3 13.5 -11.5t5.5 -19.5q1 -9 1 -24t1 -20h-64q-2 12 -2 32q0 19 -15 19h-11l-9 -51h-62zM254 535q18 0 21 18v4q0 13 -16 13h-14l-6 -35h15z" />
    <glyph glyph-name="macron" unicode="&#xaf;" horiz-adv-x="384" 
d="M122 730h304l-19 -102h-304z" />
    <glyph glyph-name="degree" unicode="&#xb0;" horiz-adv-x="357" 
d="M129 473.5q-31 31.5 -31 77.5q0 41 22.5 77t59 58t76.5 22q48 0 79.5 -31.5t31.5 -78.5q0 -40 -22.5 -76.5t-59.5 -58t-76 -21.5q-49 0 -80 31.5zM176 519.5q17 -17.5 44 -17.5q33 0 59.5 26.5t26.5 59.5q0 26 -16.5 43.5t-43.5 17.5q-33 0 -60 -26.5t-27 -59.5
q0 -26 17 -43.5z" />
    <glyph glyph-name="plusminus" unicode="&#xb1;" horiz-adv-x="484" 
d="M68 392l125 -1l20 124h145l-23 -124l125 1l-25 -138l-124 1l-18 -110l124 1l-25 -138l-194 2l-197 -2l24 138l123 -1l21 110l-125 -1z" />
    <glyph glyph-name="acute" unicode="&#xb4;" horiz-adv-x="250" 
d="M88 617l71 166h166l-131 -166h-106z" />
    <glyph glyph-name="uni00B5" unicode="&#xb5;" horiz-adv-x="673" 
d="M89 537h192l-49 -277q-3 -16 -3 -31q0 -74 75 -74q38 0 71 23.5t54 63.5l53 295h191l-95 -537h-191l15 83q-31 -46 -67.5 -71.5t-89.5 -25.5q-62 0 -79 47l-23 -199h-179z" />
    <glyph glyph-name="paragraph" unicode="&#xb6;" horiz-adv-x="835" 
d="M521 -100l73 390l67 403h202l-74 -403l-65 -390h-203zM156 632q83 61 212 61h206l-74 -403l-65 -390h-189l55 303h-19q-113 0 -174.5 46.5t-61.5 141.5q0 32 5 57q22 123 105 184z" />
    <glyph glyph-name="periodcentered" unicode="&#xb7;" horiz-adv-x="294" 
d="M56.5 192q-27.5 21 -27.5 62q0 44 33 77t102 33q46 0 73.5 -20.5t27.5 -61.5q0 -42 -32 -76.5t-103 -34.5q-46 0 -73.5 21z" />
    <glyph glyph-name="cedilla" unicode="&#xb8;" horiz-adv-x="271" 
d="M-36 -161l24 60q26 -8 48 -8q33 0 33 24q0 10 -12.5 15t-41.5 7l52 74l69 -1l-28 -49q35 -4 51.5 -15.5t16.5 -32.5q0 -41 -33.5 -64t-90.5 -23q-49 0 -88 13z" />
    <glyph glyph-name="ordmasculine" unicode="&#xba;" horiz-adv-x="392" 
d="M105.5 390.5q-39.5 35.5 -39.5 97.5q0 12 4 38q13 77 69 123.5t133 46.5q67 0 106 -36t39 -98q0 -18 -3 -36q-14 -78 -70 -124.5t-133 -46.5q-66 0 -105.5 35.5zM30 308h354l-16 -91h-354zM192 500q0 -45 37 -45q23 0 38.5 18.5t21.5 52.5q2 9 2 24q0 45 -37 45
q-23 0 -38.5 -18t-20.5 -51q-3 -13 -3 -26z" />
    <glyph glyph-name="guillemotright" unicode="&#xbb;" horiz-adv-x="616" 
d="M584 294l-16 -88l-238 -193l-69 70l174 176l-113 169l82 70zM186 259l-112 169l82 70l177 -211l-11 -67l-240 -207l-69 70z" />
    <glyph glyph-name="questiondown" unicode="&#xbf;" horiz-adv-x="538" 
d="M214 106q-46 -38 -46 -77q0 -23 16 -36t42 -13q38 0 61.5 21.5t40.5 67.5l147 -42q-24 -71 -92 -132.5t-191 -61.5q-94 0 -150.5 45t-56.5 124q0 70 56.5 132t188.5 93l24 82h122l-16 -139q-100 -26 -146 -64zM257 521q31 31 96 31q43 0 69 -20t26 -60q0 -41 -30.5 -71.5
t-95.5 -30.5q-44 0 -70 20t-26 59q0 41 31 72z" />
    <glyph glyph-name="Agrave" unicode="&#xc0;" horiz-adv-x="702" 
d="M130 346l170 347h250l49 -347l54 -346h-209l-10 122l-108 2l-104 -1l-53 -123h-215zM352 270l70 1l-4 49l-22 185h-4l-84 -185l-21 -49zM306 882h176l13 -143h-106z" />
    <glyph glyph-name="Aacute" unicode="&#xc1;" horiz-adv-x="702" 
d="M130 346l170 347h250l49 -347l54 -346h-209l-10 122l-108 2l-104 -1l-53 -123h-215zM352 270l70 1l-4 49l-22 185h-4l-84 -185l-21 -49zM377 739l64 143h175l-133 -143h-106z" />
    <glyph glyph-name="Acircumflex" unicode="&#xc2;" horiz-adv-x="702" 
d="M130 346l170 347h250l49 -347l54 -346h-209l-10 122l-108 2l-104 -1l-53 -123h-215zM352 270l70 1l-4 49l-22 185h-4l-84 -185l-21 -49zM392 881h134l81 -143h-113l-50 54l-69 -54h-113z" />
    <glyph glyph-name="Atilde" unicode="&#xc3;" horiz-adv-x="702" 
d="M130 346l170 347h250l49 -347l54 -346h-209l-10 122l-108 2l-104 -1l-53 -123h-215zM352 270l70 1l-4 49l-22 185h-4l-84 -185l-21 -49zM307.5 847.5q32.5 40.5 86.5 40.5q25 0 41.5 -8t34.5 -21q9 -7 18 -12t18 -5q18 0 26 11.5t12 34.5h85q-9 -69 -42 -109.5t-87 -40.5
q-24 0 -40.5 7.5t-35.5 21.5q-11 9 -19 13t-17 4q-18 0 -26 -11.5t-11 -34.5h-85q9 69 41.5 109.5z" />
    <glyph glyph-name="Adieresis" unicode="&#xc4;" horiz-adv-x="702" 
d="M130 346l170 347h250l49 -347l54 -346h-209l-10 122l-108 2l-104 -1l-53 -123h-215zM352 270l70 1l-4 49l-22 185h-4l-84 -185l-21 -49zM280.5 752.5q-17.5 14.5 -17.5 40.5q0 42 25 66t68 24q33 0 50.5 -15t17.5 -41q0 -5 -2 -17q-6 -35 -30 -53.5t-62 -18.5
q-32 0 -49.5 14.5zM495.5 859q25.5 24 67.5 24q33 0 50.5 -15t17.5 -41q0 -5 -2 -17q-7 -35 -30.5 -53.5t-61.5 -18.5q-32 0 -49.5 14.5t-17.5 40.5q0 42 25.5 66z" />
    <glyph glyph-name="Aring" unicode="&#xc5;" horiz-adv-x="702" 
d="M130 346l170 347h250l49 -347l54 -346h-209l-10 122l-108 2l-104 -1l-53 -123h-215zM352 270l70 1l-4 49l-22 185h-4l-84 -185l-21 -49zM375 755.5q-21 18.5 -21 49.5q0 45 32 74t78 29q36 0 57 -18.5t21 -50.5q0 -44 -31.5 -73t-77.5 -29q-37 0 -58 18.5zM421.5 796
q7.5 -7 21.5 -7q18 0 29 11t11 30q0 13 -7.5 19.5t-21.5 6.5q-17 0 -28.5 -11t-11.5 -30q0 -12 7.5 -19z" />
    <glyph glyph-name="AE" unicode="&#xc6;" horiz-adv-x="981" 
d="M200 346l232 347h593l-27 -156h-280l-21 -118h253l-24 -135h-253l-21 -128h288l-28 -156h-489l23 123l-95 1l-101 -1l-77 -123h-219zM405 270l69 1l14 75l31 191h-7l-168 -266z" />
    <glyph glyph-name="Ccedilla" unicode="&#xc7;" horiz-adv-x="681" 
d="M324 -15l-13 -24q36 -4 53 -15.5t17 -33.5q0 -41 -33.5 -63.5t-93.5 -22.5q-26 0 -50 3.5t-38 9.5l23 58q24 -7 47 -7q34 0 34 24q0 10 -11.5 15.5t-39.5 9.5l38 55q-106 23 -165 100.5t-59 196.5q0 125 46.5 219.5t131.5 146t198 51.5q130 0 207.5 -67t87.5 -183
l-186 -48q-4 72 -33 103.5t-82 31.5q-49 0 -86 -31t-57 -88t-20 -133q0 -69 30.5 -107t84.5 -38q100 0 140 136l170 -49q-24 -116 -111 -183t-211 -67h-19z" />
    <glyph glyph-name="Egrave" unicode="&#xc8;" horiz-adv-x="597" 
d="M63 346l58 347h520l-28 -156h-319l-22 -118h293l-23 -135h-294l-21 -128h329l-28 -156h-529zM270 882h176l13 -143h-106z" />
    <glyph glyph-name="Eacute" unicode="&#xc9;" horiz-adv-x="597" 
d="M63 346l58 347h520l-28 -156h-319l-22 -118h293l-23 -135h-294l-21 -128h329l-28 -156h-529zM341 739l64 143h175l-133 -143h-106z" />
    <glyph glyph-name="Ecircumflex" unicode="&#xca;" horiz-adv-x="597" 
d="M63 346l58 347h520l-28 -156h-319l-22 -118h293l-23 -135h-294l-21 -128h329l-28 -156h-529zM356 881h134l81 -143h-113l-50 54l-69 -54h-113z" />
    <glyph glyph-name="Edieresis" unicode="&#xcb;" horiz-adv-x="597" 
d="M63 346l58 347h520l-28 -156h-319l-22 -118h293l-23 -135h-294l-21 -128h329l-28 -156h-529zM244.5 752.5q-17.5 14.5 -17.5 40.5q0 42 25 66t68 24q33 0 50.5 -15t17.5 -41q0 -5 -2 -17q-6 -35 -30 -53.5t-62 -18.5q-32 0 -49.5 14.5zM459.5 859q25.5 24 67.5 24
q33 0 50.5 -15t17.5 -41q0 -5 -2 -17q-7 -35 -30.5 -53.5t-61.5 -18.5q-32 0 -49.5 14.5t-17.5 40.5q0 42 25.5 66z" />
    <glyph glyph-name="Igrave" unicode="&#xcc;" horiz-adv-x="295" 
d="M63 346l58 347h202l-64 -347l-58 -346h-202zM102 882h176l13 -143h-106z" />
    <glyph glyph-name="Iacute" unicode="&#xcd;" horiz-adv-x="295" 
d="M63 346l58 347h202l-64 -347l-58 -346h-202zM173 739l64 143h175l-133 -143h-106z" />
    <glyph glyph-name="Icircumflex" unicode="&#xce;" horiz-adv-x="295" 
d="M63 346l58 347h202l-64 -347l-58 -346h-202zM188 881h134l81 -143h-113l-50 54l-69 -54h-113z" />
    <glyph glyph-name="Idieresis" unicode="&#xcf;" horiz-adv-x="295" 
d="M63 346l58 347h202l-64 -347l-58 -346h-202zM76.5 752.5q-17.5 14.5 -17.5 40.5q0 42 25 66t68 24q33 0 50.5 -15t17.5 -41q0 -5 -2 -17q-6 -35 -30 -53.5t-62 -18.5q-32 0 -49.5 14.5zM291.5 859q25.5 24 67.5 24q33 0 50.5 -15t17.5 -41q0 -5 -2 -17
q-7 -35 -30.5 -53.5t-61.5 -18.5q-32 0 -49.5 14.5t-17.5 40.5q0 42 25.5 66z" />
    <glyph glyph-name="Eth" unicode="&#xd0;" horiz-adv-x="707" 
d="M56 311l-70 -1l14 76l69 -1l52 308h245q171 0 254.5 -70t83.5 -215q0 -101 -44.5 -193.5t-146.5 -153.5t-262 -61h-252zM274 167q82 0 132.5 32.5t72 82t21.5 102.5q0 75 -38 109t-120 34h-51l-27 -142l101 1l-14 -76l-100 1l-23 -144h46z" />
    <glyph glyph-name="Ntilde" unicode="&#xd1;" horiz-adv-x="704" 
d="M63 346l58 347h212l77 -233l61 -187h2l29 163l44 257h187l-65 -346l-57 -347h-213l-76 234l-61 186h-2l-29 -163l-45 -257h-186zM308.5 847.5q32.5 40.5 86.5 40.5q25 0 41.5 -8t34.5 -21q9 -7 18 -12t18 -5q18 0 26 11.5t12 34.5h85q-9 -69 -42 -109.5t-87 -40.5
q-24 0 -40.5 7.5t-35.5 21.5q-11 9 -19 13t-17 4q-18 0 -26 -11.5t-11 -34.5h-85q9 69 41.5 109.5z" />
    <glyph glyph-name="Ograve" unicode="&#xd2;" horiz-adv-x="738" 
d="M177.5 22q-70.5 37 -107.5 105.5t-37 162.5q0 126 47.5 220.5t135.5 146t204 51.5q97 0 167.5 -36.5t108 -105.5t37.5 -163q0 -125 -47.5 -220t-135.5 -146.5t-204 -51.5q-98 0 -168.5 37zM271 186q31 -38 89 -38q49 0 86.5 32.5t58 90t20.5 130.5q0 69 -30.5 106.5
t-88.5 37.5q-49 0 -87 -32.5t-58.5 -90t-20.5 -129.5q0 -69 31 -107zM324 882h176l13 -143h-106z" />
    <glyph glyph-name="Oacute" unicode="&#xd3;" horiz-adv-x="738" 
d="M177.5 22q-70.5 37 -107.5 105.5t-37 162.5q0 126 47.5 220.5t135.5 146t204 51.5q97 0 167.5 -36.5t108 -105.5t37.5 -163q0 -125 -47.5 -220t-135.5 -146.5t-204 -51.5q-98 0 -168.5 37zM271 186q31 -38 89 -38q49 0 86.5 32.5t58 90t20.5 130.5q0 69 -30.5 106.5
t-88.5 37.5q-49 0 -87 -32.5t-58.5 -90t-20.5 -129.5q0 -69 31 -107zM395 739l64 143h175l-133 -143h-106z" />
    <glyph glyph-name="Ocircumflex" unicode="&#xd4;" horiz-adv-x="738" 
d="M177.5 22q-70.5 37 -107.5 105.5t-37 162.5q0 126 47.5 220.5t135.5 146t204 51.5q97 0 167.5 -36.5t108 -105.5t37.5 -163q0 -125 -47.5 -220t-135.5 -146.5t-204 -51.5q-98 0 -168.5 37zM271 186q31 -38 89 -38q49 0 86.5 32.5t58 90t20.5 130.5q0 69 -30.5 106.5
t-88.5 37.5q-49 0 -87 -32.5t-58.5 -90t-20.5 -129.5q0 -69 31 -107zM410 881h134l81 -143h-113l-50 54l-69 -54h-113z" />
    <glyph glyph-name="Otilde" unicode="&#xd5;" horiz-adv-x="738" 
d="M177.5 22q-70.5 37 -107.5 105.5t-37 162.5q0 126 47.5 220.5t135.5 146t204 51.5q97 0 167.5 -36.5t108 -105.5t37.5 -163q0 -125 -47.5 -220t-135.5 -146.5t-204 -51.5q-98 0 -168.5 37zM271 186q31 -38 89 -38q49 0 86.5 32.5t58 90t20.5 130.5q0 69 -30.5 106.5
t-88.5 37.5q-49 0 -87 -32.5t-58.5 -90t-20.5 -129.5q0 -69 31 -107zM325.5 847.5q32.5 40.5 86.5 40.5q25 0 41.5 -8t34.5 -21q9 -7 18 -12t18 -5q18 0 26 11.5t12 34.5h85q-9 -69 -42 -109.5t-87 -40.5q-24 0 -40.5 7.5t-35.5 21.5q-11 9 -19 13t-17 4q-18 0 -26 -11.5
t-11 -34.5h-85q9 69 41.5 109.5z" />
    <glyph glyph-name="Odieresis" unicode="&#xd6;" horiz-adv-x="738" 
d="M177.5 22q-70.5 37 -107.5 105.5t-37 162.5q0 126 47.5 220.5t135.5 146t204 51.5q97 0 167.5 -36.5t108 -105.5t37.5 -163q0 -125 -47.5 -220t-135.5 -146.5t-204 -51.5q-98 0 -168.5 37zM271 186q31 -38 89 -38q49 0 86.5 32.5t58 90t20.5 130.5q0 69 -30.5 106.5
t-88.5 37.5q-49 0 -87 -32.5t-58.5 -90t-20.5 -129.5q0 -69 31 -107zM298.5 752.5q-17.5 14.5 -17.5 40.5q0 42 25 66t68 24q33 0 50.5 -15t17.5 -41q0 -5 -2 -17q-6 -35 -30 -53.5t-62 -18.5q-32 0 -49.5 14.5zM513.5 859q25.5 24 67.5 24q33 0 50.5 -15t17.5 -41
q0 -5 -2 -17q-7 -35 -30.5 -53.5t-61.5 -18.5q-32 0 -49.5 14.5t-17.5 40.5q0 42 25.5 66z" />
    <glyph glyph-name="multiply" unicode="&#xd7;" horiz-adv-x="519" 
d="M188 503l88 -90l102 74l102 -102l-104 -72l89 -87l-115 -80l-86 88l-102 -73l-102 103l103 70l-89 88z" />
    <glyph glyph-name="Oslash" unicode="&#xd8;" horiz-adv-x="738" 
d="M141 45l-59 -60l-56 45l64 66q-57 77 -57 194q0 126 47.5 220.5t135.5 146t204 51.5q127 0 206 -61l60 61l56 -45l-65 -67q56 -78 56 -193q0 -125 -47.5 -220t-135.5 -146.5t-204 -51.5q-127 0 -205 60zM243 253l250 256q-30 36 -87 36q-49 0 -87 -32.5t-58.5 -90
t-20.5 -129.5q0 -22 3 -40zM360 148q49 0 86.5 32.5t58 90t20.5 130.5q0 13 -2 37l-249 -256q31 -34 86 -34z" />
    <glyph glyph-name="Ugrave" unicode="&#xd9;" horiz-adv-x="695" 
d="M102.5 41.5q-67.5 56.5 -67.5 174.5q0 44 11 104l33 179l33 194h203l-38 -194l-34 -209q-4 -24 -4 -49q0 -45 20.5 -69t66.5 -24q58 0 88.5 35.5t44.5 105.5l39 211l32 193h203l-37 -194l-29 -178q-29 -175 -114.5 -255.5t-246.5 -80.5q-136 0 -203.5 56.5zM303 882h176
l13 -143h-106z" />
    <glyph glyph-name="Uacute" unicode="&#xda;" horiz-adv-x="695" 
d="M102.5 41.5q-67.5 56.5 -67.5 174.5q0 44 11 104l33 179l33 194h203l-38 -194l-34 -209q-4 -24 -4 -49q0 -45 20.5 -69t66.5 -24q58 0 88.5 35.5t44.5 105.5l39 211l32 193h203l-37 -194l-29 -178q-29 -175 -114.5 -255.5t-246.5 -80.5q-136 0 -203.5 56.5zM374 739
l64 143h175l-133 -143h-106z" />
    <glyph glyph-name="Ucircumflex" unicode="&#xdb;" horiz-adv-x="695" 
d="M102.5 41.5q-67.5 56.5 -67.5 174.5q0 44 11 104l33 179l33 194h203l-38 -194l-34 -209q-4 -24 -4 -49q0 -45 20.5 -69t66.5 -24q58 0 88.5 35.5t44.5 105.5l39 211l32 193h203l-37 -194l-29 -178q-29 -175 -114.5 -255.5t-246.5 -80.5q-136 0 -203.5 56.5zM388 881h134
l81 -143h-113l-50 54l-69 -54h-113z" />
    <glyph glyph-name="Udieresis" unicode="&#xdc;" horiz-adv-x="695" 
d="M102.5 41.5q-67.5 56.5 -67.5 174.5q0 44 11 104l33 179l33 194h203l-38 -194l-34 -209q-4 -24 -4 -49q0 -45 20.5 -69t66.5 -24q58 0 88.5 35.5t44.5 105.5l39 211l32 193h203l-37 -194l-29 -178q-29 -175 -114.5 -255.5t-246.5 -80.5q-136 0 -203.5 56.5zM277.5 752.5
q-17.5 14.5 -17.5 40.5q0 42 25 66t68 24q33 0 50.5 -15t17.5 -41q0 -5 -2 -17q-6 -35 -30 -53.5t-62 -18.5q-32 0 -49.5 14.5zM492.5 859q25.5 24 67.5 24q33 0 50.5 -15t17.5 -41q0 -5 -2 -17q-7 -35 -30.5 -53.5t-61.5 -18.5q-32 0 -49.5 14.5t-17.5 40.5q0 42 25.5 66z
" />
    <glyph glyph-name="Yacute" unicode="&#xdd;" horiz-adv-x="668" 
d="M229 241l-153 452h215l64 -252h3l157 252h226l-315 -452l-40 -241h-203zM360 739l64 143h175l-133 -143h-106z" />
    <glyph glyph-name="Thorn" unicode="&#xde;" horiz-adv-x="668" 
d="M63 346l58 347h202l-15 -80h99q129 0 196.5 -52t67.5 -163q0 -74 -32 -143.5t-111.5 -116.5t-210.5 -47h-101l-15 -91h-202zM333 243q73 0 109 37t36 91q0 83 -91 83h-108l-20 -108l-17 -103h91z" />
    <glyph glyph-name="germandbls" unicode="&#xdf;" horiz-adv-x="637" 
d="M234 5l22 124q32 -9 71 -9q51 0 77.5 26t26.5 61q0 73 -110 73h-30l24 140h17q51 0 75 26t24 57q0 27 -17 42.5t-46 15.5q-89 0 -109 -116l-78 -445h-187l73 416q27 147 112.5 219.5t214.5 72.5q93 0 153 -44.5t60 -124.5q0 -34 -15.5 -69.5t-51 -63.5t-92.5 -37v-3
q75 -5 117.5 -44.5t42.5 -108.5q0 -53 -29 -103.5t-89.5 -84t-151.5 -33.5q-67 0 -104 13z" />
    <glyph glyph-name="agrave" unicode="&#xe0;" horiz-adv-x="611" 
d="M54 35.5q-45 50.5 -45 146.5q0 76 26 161t85 146.5t153 61.5q48 0 88.5 -23t56.5 -59h2l11 68h186l-50 -269l-44 -268h-187l12 68h-2q-28 -37 -73.5 -60t-93.5 -23q-80 0 -125 50.5zM272 138q40 0 66.5 29t38 68.5t11.5 70.5q0 92 -72 92q-40 0 -66 -27t-37.5 -65.5
t-11.5 -75.5q0 -92 71 -92zM251 783h167l11 -166h-106z" />
    <glyph glyph-name="aacute" unicode="&#xe1;" horiz-adv-x="611" 
d="M54 35.5q-45 50.5 -45 146.5q0 76 26 161t85 146.5t153 61.5q48 0 88.5 -23t56.5 -59h2l11 68h186l-50 -269l-44 -268h-187l12 68h-2q-28 -37 -73.5 -60t-93.5 -23q-80 0 -125 50.5zM272 138q40 0 66.5 29t38 68.5t11.5 70.5q0 92 -72 92q-40 0 -66 -27t-37.5 -65.5
t-11.5 -75.5q0 -92 71 -92zM312 617l71 166h166l-131 -166h-106z" />
    <glyph glyph-name="acircumflex" unicode="&#xe2;" horiz-adv-x="611" 
d="M54 35.5q-45 50.5 -45 146.5q0 76 26 161t85 146.5t153 61.5q48 0 88.5 -23t56.5 -59h2l11 68h186l-50 -269l-44 -268h-187l12 68h-2q-28 -37 -73.5 -60t-93.5 -23q-80 0 -125 50.5zM272 138q40 0 66.5 29t38 68.5t11.5 70.5q0 92 -72 92q-40 0 -66 -27t-37.5 -65.5
t-11.5 -75.5q0 -92 71 -92zM331 783h134l76 -166h-103l-56 75l-83 -75h-103z" />
    <glyph glyph-name="atilde" unicode="&#xe3;" horiz-adv-x="611" 
d="M54 35.5q-45 50.5 -45 146.5q0 76 26 161t85 146.5t153 61.5q48 0 88.5 -23t56.5 -59h2l11 68h186l-50 -269l-44 -268h-187l12 68h-2q-28 -37 -73.5 -60t-93.5 -23q-80 0 -125 50.5zM272 138q40 0 66.5 29t38 68.5t11.5 70.5q0 92 -72 92q-40 0 -66 -27t-37.5 -65.5
t-11.5 -75.5q0 -92 71 -92zM241.5 721.5q32.5 40.5 86.5 40.5q25 0 42 -7.5t34 -20.5q12 -9 19.5 -12.5t16.5 -3.5q18 0 26 11t12 33h85q-9 -70 -42 -110t-88 -40q-24 0 -41 7.5t-34 20.5q-3 2 -14 9t-22 7q-18 0 -26 -11t-12 -33h-84q9 69 41.5 109.5z" />
    <glyph glyph-name="adieresis" unicode="&#xe4;" horiz-adv-x="611" 
d="M54 35.5q-45 50.5 -45 146.5q0 76 26 161t85 146.5t153 61.5q48 0 88.5 -23t56.5 -59h2l11 68h186l-50 -269l-44 -268h-187l12 68h-2q-28 -37 -73.5 -60t-93.5 -23q-80 0 -125 50.5zM272 138q40 0 66.5 29t38 68.5t11.5 70.5q0 92 -72 92q-40 0 -66 -27t-37.5 -65.5
t-11.5 -75.5q0 -92 71 -92zM213.5 624.5q-17.5 14.5 -17.5 41.5q0 4 2 16q6 35 30 54.5t62 19.5q33 0 50.5 -15t17.5 -42q0 -5 -2 -17q-7 -35 -31 -53.5t-61 -18.5q-33 0 -50.5 14.5zM435 736.5q24 19.5 61 19.5q33 0 51 -15t18 -42q0 -5 -2 -17q-7 -35 -31 -53.5t-61 -18.5
q-33 0 -50.5 14t-17.5 41q0 5 2 17q6 35 30 54.5z" />
    <glyph glyph-name="aring" unicode="&#xe5;" horiz-adv-x="611" 
d="M54 35.5q-45 50.5 -45 146.5q0 76 26 161t85 146.5t153 61.5q48 0 88.5 -23t56.5 -59h2l11 68h186l-50 -269l-44 -268h-187l12 68h-2q-28 -37 -73.5 -60t-93.5 -23q-80 0 -125 50.5zM272 138q40 0 66.5 29t38 68.5t11.5 70.5q0 92 -72 92q-40 0 -66 -27t-37.5 -65.5
t-11.5 -75.5q0 -92 71 -92zM301.5 627.5q-24.5 21.5 -24.5 56.5q0 51 36 84.5t89 33.5q42 0 66 -21.5t24 -57.5q0 -5 -2 -19q-8 -44 -42 -71t-81 -27q-41 0 -65.5 21.5zM349 670q10 -9 28 -9q22 0 37 14.5t15 38.5q0 16 -10 25t-27 9q-22 0 -37.5 -15t-15.5 -38
q0 -16 10 -25z" />
    <glyph glyph-name="ae" unicode="&#xe6;" horiz-adv-x="866" 
d="M450.5 12q-47.5 27 -72.5 78q-56 -61 -113.5 -83t-121.5 -22q-71 0 -109.5 35t-38.5 101q0 88 80 138t257 50h27l3 17q3 17 3 29q0 59 -62 59q-44 0 -68 -25t-31 -63l-146 34q26 88 96.5 139.5t171.5 51.5q108 0 152 -58q68 58 159 58q109 0 160.5 -63t51.5 -173
q0 -39 -6 -83h-342v-5q0 -51 23 -76t63 -25q28 0 54 22t37 60l145 -41q-27 -76 -95.5 -129t-166.5 -53q-63 0 -110.5 27zM227 111q24 0 49.5 14t44.5 38.5t22 55.5l1 5h-24q-76 0 -109.5 -16.5t-33.5 -54.5q0 -42 50 -42zM701 335q3 41 -14 65.5t-58 24.5q-74 0 -108 -90
h180z" />
    <glyph glyph-name="ccedilla" unicode="&#xe7;" horiz-adv-x="561" 
d="M147 -170.5q-24 3.5 -38 9.5l23 58q24 -7 47 -7q34 0 34 24q0 10 -11.5 15.5t-39.5 9.5l36 52q-88 17 -136 78t-48 160q0 63 30.5 138t100.5 129.5t180 54.5q112 0 177.5 -53t72.5 -140l-175 -44q-3 91 -83 91q-39 0 -65 -27.5t-38 -68t-12 -79.5q0 -47 23 -72.5
t58 -25.5q36 0 62 23.5t39 69.5l163 -46q-29 -91 -99.5 -142t-180.5 -52l-13 -24q36 -4 53 -15.5t17 -33.5q0 -41 -33.5 -63.5t-93.5 -22.5q-26 0 -50 3.5z" />
    <glyph glyph-name="egrave" unicode="&#xe8;" horiz-adv-x="576" 
d="M79.5 49q-65.5 64 -65.5 179q0 65 30 140t100 129.5t183 54.5q120 0 176 -63.5t56 -175.5q0 -39 -6 -81h-353v-5q0 -51 23.5 -76t64.5 -25q34 0 60 23.5t38 61.5l149 -42q-29 -76 -97.5 -130t-174.5 -54q-118 0 -183.5 64zM395 335q5 83 -73 83q-38 0 -64 -22.5
t-40 -60.5h177zM237 783h167l11 -166h-106z" />
    <glyph glyph-name="eacute" unicode="&#xe9;" horiz-adv-x="576" 
d="M79.5 49q-65.5 64 -65.5 179q0 65 30 140t100 129.5t183 54.5q120 0 176 -63.5t56 -175.5q0 -39 -6 -81h-353v-5q0 -51 23.5 -76t64.5 -25q34 0 60 23.5t38 61.5l149 -42q-29 -76 -97.5 -130t-174.5 -54q-118 0 -183.5 64zM395 335q5 83 -73 83q-38 0 -64 -22.5
t-40 -60.5h177zM297 617l71 166h166l-131 -166h-106z" />
    <glyph glyph-name="ecircumflex" unicode="&#xea;" horiz-adv-x="576" 
d="M79.5 49q-65.5 64 -65.5 179q0 65 30 140t100 129.5t183 54.5q120 0 176 -63.5t56 -175.5q0 -39 -6 -81h-353v-5q0 -51 23.5 -76t64.5 -25q34 0 60 23.5t38 61.5l149 -42q-29 -76 -97.5 -130t-174.5 -54q-118 0 -183.5 64zM395 335q5 83 -73 83q-38 0 -64 -22.5
t-40 -60.5h177zM317 783h134l76 -166h-103l-56 75l-83 -75h-103z" />
    <glyph glyph-name="edieresis" unicode="&#xeb;" horiz-adv-x="576" 
d="M79.5 49q-65.5 64 -65.5 179q0 65 30 140t100 129.5t183 54.5q120 0 176 -63.5t56 -175.5q0 -39 -6 -81h-353v-5q0 -51 23.5 -76t64.5 -25q34 0 60 23.5t38 61.5l149 -42q-29 -76 -97.5 -130t-174.5 -54q-118 0 -183.5 64zM395 335q5 83 -73 83q-38 0 -64 -22.5
t-40 -60.5h177zM199.5 624.5q-17.5 14.5 -17.5 41.5q0 4 2 16q6 35 30 54.5t62 19.5q33 0 50.5 -15t17.5 -42q0 -5 -2 -17q-7 -35 -31 -53.5t-61 -18.5q-33 0 -50.5 14.5zM421 736.5q24 19.5 61 19.5q33 0 51 -15t18 -42q0 -5 -2 -17q-7 -35 -31 -53.5t-61 -18.5
q-33 0 -50.5 14t-17.5 41q0 5 2 17q6 35 30 54.5z" />
    <glyph glyph-name="igrave" unicode="&#xec;" horiz-adv-x="268" 
d="M44 270l44 267h186l-50 -267l-45 -270h-185zM77 783h167l11 -166h-106z" />
    <glyph glyph-name="iacute" unicode="&#xed;" horiz-adv-x="268" 
d="M44 270l44 267h186l-50 -267l-45 -270h-185zM138 617l71 166h166l-131 -166h-106z" />
    <glyph glyph-name="icircumflex" unicode="&#xee;" horiz-adv-x="268" 
d="M44 270l44 267h186l-50 -267l-45 -270h-185zM157 783h134l76 -166h-103l-56 75l-83 -75h-103z" />
    <glyph glyph-name="idieresis" unicode="&#xef;" horiz-adv-x="268" 
d="M44 270l44 267h186l-50 -267l-45 -270h-185zM39.5 624.5q-17.5 14.5 -17.5 41.5q0 4 2 16q6 35 30 54.5t62 19.5q33 0 50.5 -15t17.5 -42q0 -5 -2 -17q-7 -35 -31 -53.5t-61 -18.5q-33 0 -50.5 14.5zM261 736.5q24 19.5 61 19.5q33 0 51 -15t18 -42q0 -5 -2 -17
q-7 -35 -31 -53.5t-61 -18.5q-33 0 -50.5 14t-17.5 41q0 5 2 17q6 35 30 54.5z" />
    <glyph glyph-name="eth" unicode="&#xf0;" horiz-adv-x="606" 
d="M65.5 36.5q-61.5 51.5 -61.5 141.5q0 63 31 124.5t92.5 101.5t147.5 40q99 0 141 -59v8q0 88 -83 139l-87 -75l-42 52l61 53q-37 11 -89 19l26 126q106 -8 187 -37l100 86l44 -52l-77 -66q73 -44 106 -115.5t33 -169.5q0 -161 -82 -264.5t-265 -103.5q-121 0 -182.5 51.5
zM213.5 146.5q21.5 -21.5 58.5 -21.5q58 0 84 38t26 86q0 37 -21 57t-56 20q-55 0 -84 -35t-29 -86q0 -37 21.5 -58.5z" />
    <glyph glyph-name="ntilde" unicode="&#xf1;" horiz-adv-x="610" 
d="M42 256l46 281h186l-15 -71h2q29 40 76 62.5t101 22.5q74 0 111 -35.5t37 -112.5q0 -32 -8 -78l-12 -69l-42 -256h-186l48 256l8 47q2 9 2 26q0 63 -60 63q-41 0 -70.5 -28.5t-38.5 -78.5l-5 -29l-43 -256h-185zM281.5 721.5q32.5 40.5 86.5 40.5q25 0 42 -7.5t34 -20.5
q12 -9 19.5 -12.5t16.5 -3.5q18 0 26 11t12 33h85q-9 -70 -42 -110t-88 -40q-24 0 -41 7.5t-34 20.5q-3 2 -14 9t-22 7q-18 0 -26 -11t-12 -33h-84q9 69 41.5 109.5z" />
    <glyph glyph-name="ograve" unicode="&#xf2;" horiz-adv-x="599" 
d="M83.5 49.5q-68.5 64.5 -68.5 178.5q0 72 31.5 146.5t102 125.5t180.5 51q118 0 187 -64t69 -178q0 -72 -32 -146.5t-103 -126t-181 -51.5q-117 0 -185.5 64.5zM224.5 161q21.5 -25 58.5 -25q55 0 84.5 49.5t29.5 118.5q0 46 -22.5 71t-59.5 25q-54 0 -83 -49.5
t-29 -118.5q0 -46 21.5 -71zM244 783h167l11 -166h-106z" />
    <glyph glyph-name="oacute" unicode="&#xf3;" horiz-adv-x="599" 
d="M83.5 49.5q-68.5 64.5 -68.5 178.5q0 72 31.5 146.5t102 125.5t180.5 51q118 0 187 -64t69 -178q0 -72 -32 -146.5t-103 -126t-181 -51.5q-117 0 -185.5 64.5zM224.5 161q21.5 -25 58.5 -25q55 0 84.5 49.5t29.5 118.5q0 46 -22.5 71t-59.5 25q-54 0 -83 -49.5
t-29 -118.5q0 -46 21.5 -71zM304 617l71 166h166l-131 -166h-106z" />
    <glyph glyph-name="ocircumflex" unicode="&#xf4;" horiz-adv-x="599" 
d="M83.5 49.5q-68.5 64.5 -68.5 178.5q0 72 31.5 146.5t102 125.5t180.5 51q118 0 187 -64t69 -178q0 -72 -32 -146.5t-103 -126t-181 -51.5q-117 0 -185.5 64.5zM224.5 161q21.5 -25 58.5 -25q55 0 84.5 49.5t29.5 118.5q0 46 -22.5 71t-59.5 25q-54 0 -83 -49.5
t-29 -118.5q0 -46 21.5 -71zM323 783h134l76 -166h-103l-56 75l-83 -75h-103z" />
    <glyph glyph-name="otilde" unicode="&#xf5;" horiz-adv-x="599" 
d="M83.5 49.5q-68.5 64.5 -68.5 178.5q0 72 31.5 146.5t102 125.5t180.5 51q118 0 187 -64t69 -178q0 -72 -32 -146.5t-103 -126t-181 -51.5q-117 0 -185.5 64.5zM224.5 161q21.5 -25 58.5 -25q55 0 84.5 49.5t29.5 118.5q0 46 -22.5 71t-59.5 25q-54 0 -83 -49.5
t-29 -118.5q0 -46 21.5 -71zM234.5 721.5q32.5 40.5 86.5 40.5q25 0 42 -7.5t34 -20.5q12 -9 19.5 -12.5t16.5 -3.5q18 0 26 11t12 33h85q-9 -70 -42 -110t-88 -40q-24 0 -41 7.5t-34 20.5q-3 2 -14 9t-22 7q-18 0 -26 -11t-12 -33h-84q9 69 41.5 109.5z" />
    <glyph glyph-name="odieresis" unicode="&#xf6;" horiz-adv-x="599" 
d="M83.5 49.5q-68.5 64.5 -68.5 178.5q0 72 31.5 146.5t102 125.5t180.5 51q118 0 187 -64t69 -178q0 -72 -32 -146.5t-103 -126t-181 -51.5q-117 0 -185.5 64.5zM224.5 161q21.5 -25 58.5 -25q55 0 84.5 49.5t29.5 118.5q0 46 -22.5 71t-59.5 25q-54 0 -83 -49.5
t-29 -118.5q0 -46 21.5 -71zM206.5 624.5q-17.5 14.5 -17.5 41.5q0 4 2 16q6 35 30 54.5t62 19.5q33 0 50.5 -15t17.5 -42q0 -5 -2 -17q-7 -35 -31 -53.5t-61 -18.5q-33 0 -50.5 14.5zM428 736.5q24 19.5 61 19.5q33 0 51 -15t18 -42q0 -5 -2 -17q-7 -35 -31 -53.5
t-61 -18.5q-33 0 -50.5 14t-17.5 41q0 5 2 17q6 35 30 54.5z" />
    <glyph glyph-name="divide" unicode="&#xf7;" horiz-adv-x="484" 
d="M66 379l195 -3l196 3l-20 -112l-193 3l-198 -3zM158 202q31 27 77 27q36 0 58 -17.5t22 -47.5q0 -44 -31 -71t-77 -27q-37 0 -58.5 17t-21.5 48q0 44 31 71zM220 553q31 27 78 27q36 0 57.5 -17.5t21.5 -47.5q0 -44 -31 -71t-77 -27q-37 0 -58.5 17.5t-21.5 48.5
q0 43 31 70z" />
    <glyph glyph-name="oslash" unicode="&#xf8;" horiz-adv-x="599" 
d="M107 30l-43 -44l-43 38l44 45q-50 63 -50 159q0 72 31.5 146.5t102 125.5t180.5 51q99 0 162 -45l44 45l43 -38l-44 -45q51 -62 51 -159q0 -72 -32 -146.5t-103 -126t-181 -51.5q-97 0 -162 45zM204 212l165 169q-22 19 -54 19q-54 0 -83 -49.5t-29 -118.5q0 -14 1 -20z
M283 136q55 0 84.5 49.5t29.5 118.5q0 8 -2 22l-165 -170q20 -20 53 -20z" />
    <glyph glyph-name="ugrave" unicode="&#xf9;" horiz-adv-x="605" 
d="M563 281l-46 -281h-186l15 71h-2q-24 -38 -73 -61.5t-98 -23.5q-74 0 -111.5 35.5t-37.5 112.5q0 32 8 78l12 69l42 256h186l-48 -256l-8 -46q-2 -9 -2 -26q0 -63 62 -63q36 0 65 28.5t37 75.5l5 31l43 256h185zM248 783h167l11 -166h-106z" />
    <glyph glyph-name="uacute" unicode="&#xfa;" horiz-adv-x="605" 
d="M563 281l-46 -281h-186l15 71h-2q-24 -38 -73 -61.5t-98 -23.5q-74 0 -111.5 35.5t-37.5 112.5q0 32 8 78l12 69l42 256h186l-48 -256l-8 -46q-2 -9 -2 -26q0 -63 62 -63q36 0 65 28.5t37 75.5l5 31l43 256h185zM309 617l71 166h166l-131 -166h-106z" />
    <glyph glyph-name="ucircumflex" unicode="&#xfb;" horiz-adv-x="605" 
d="M563 281l-46 -281h-186l15 71h-2q-24 -38 -73 -61.5t-98 -23.5q-74 0 -111.5 35.5t-37.5 112.5q0 32 8 78l12 69l42 256h186l-48 -256l-8 -46q-2 -9 -2 -26q0 -63 62 -63q36 0 65 28.5t37 75.5l5 31l43 256h185zM328 783h134l76 -166h-103l-56 75l-83 -75h-103z" />
    <glyph glyph-name="udieresis" unicode="&#xfc;" horiz-adv-x="605" 
d="M563 281l-46 -281h-186l15 71h-2q-24 -38 -73 -61.5t-98 -23.5q-74 0 -111.5 35.5t-37.5 112.5q0 32 8 78l12 69l42 256h186l-48 -256l-8 -46q-2 -9 -2 -26q0 -63 62 -63q36 0 65 28.5t37 75.5l5 31l43 256h185zM210.5 624.5q-17.5 14.5 -17.5 41.5q0 4 2 16
q6 35 30 54.5t62 19.5q33 0 50.5 -15t17.5 -42q0 -5 -2 -17q-7 -35 -31 -53.5t-61 -18.5q-33 0 -50.5 14.5zM432 736.5q24 19.5 61 19.5q33 0 51 -15t18 -42q0 -5 -2 -17q-7 -35 -31 -53.5t-61 -18.5q-33 0 -50.5 14t-17.5 41q0 5 2 17q6 35 30 54.5z" />
    <glyph glyph-name="yacute" unicode="&#xfd;" horiz-adv-x="567" 
d="M24 -168q-33 5 -62 16l55 131q12 -3 29.5 -5t29.5 -2q24 0 40.5 6.5t31.5 21.5l-102 537h186l43 -327h2l148 327h192l-228 -452q-67 -135 -135.5 -196.5t-169.5 -61.5q-27 0 -60 5zM288 617l71 166h166l-131 -166h-106z" />
    <glyph glyph-name="thorn" unicode="&#xfe;" horiz-adv-x="611" 
d="M45 271l71 422h186l-40 -224h2q28 36 74.5 59t95.5 23q79 0 123.5 -50.5t44.5 -146.5q0 -84 -27.5 -169t-87 -142.5t-149.5 -57.5q-49 0 -89.5 23.5t-56.5 59.5h-2l-39 -228h-186zM240.5 161q19.5 -23 51.5 -23q41 0 67.5 27t38 67t11.5 79q0 87 -71 87
q-41 0 -67.5 -28.5t-38 -67t-11.5 -67.5q0 -51 19.5 -74z" />
    <glyph glyph-name="ydieresis" unicode="&#xff;" horiz-adv-x="567" 
d="M24 -168q-33 5 -62 16l55 131q12 -3 29.5 -5t29.5 -2q24 0 40.5 6.5t31.5 21.5l-102 537h186l43 -327h2l148 327h192l-228 -452q-67 -135 -135.5 -196.5t-169.5 -61.5q-27 0 -60 5zM190.5 624.5q-17.5 14.5 -17.5 41.5q0 4 2 16q6 35 30 54.5t62 19.5q33 0 50.5 -15
t17.5 -42q0 -5 -2 -17q-7 -35 -31 -53.5t-61 -18.5q-33 0 -50.5 14.5zM412 736.5q24 19.5 61 19.5q33 0 51 -15t18 -42q0 -5 -2 -17q-7 -35 -31 -53.5t-61 -18.5q-33 0 -50.5 14t-17.5 41q0 5 2 17q6 35 30 54.5z" />
    <glyph glyph-name="Amacron" unicode="&#x100;" horiz-adv-x="702" 
d="M130 346l170 347h250l49 -347l54 -346h-209l-10 122l-108 2l-104 -1l-53 -123h-215zM352 270l70 1l-4 49l-22 185h-4l-84 -185l-21 -49zM302 849h304l-18 -103h-304z" />
    <glyph glyph-name="amacron" unicode="&#x101;" horiz-adv-x="611" 
d="M54 35.5q-45 50.5 -45 146.5q0 76 26 161t85 146.5t153 61.5q48 0 88.5 -23t56.5 -59h2l11 68h186l-50 -269l-44 -268h-187l12 68h-2q-28 -37 -73.5 -60t-93.5 -23q-80 0 -125 50.5zM272 138q40 0 66.5 29t38 68.5t11.5 70.5q0 92 -72 92q-40 0 -66 -27t-37.5 -65.5
t-11.5 -75.5q0 -92 71 -92zM241 730h298l-19 -102h-298z" />
    <glyph glyph-name="Abreve" unicode="&#x102;" horiz-adv-x="702" 
d="M130 346l170 347h250l49 -347l54 -346h-209l-10 122l-108 2l-104 -1l-53 -123h-215zM352 270l70 1l-4 49l-22 185h-4l-84 -185l-21 -49zM329 766.5q-36 32.5 -36 87.5q0 16 3 34h103q-1 -6 -1 -16q0 -47 50 -47q32 0 48.5 16.5t24.5 46.5h103q-8 -69 -59.5 -111.5
t-131.5 -42.5q-68 0 -104 32.5z" />
    <glyph glyph-name="abreve" unicode="&#x103;" horiz-adv-x="611" 
d="M54 35.5q-45 50.5 -45 146.5q0 76 26 161t85 146.5t153 61.5q48 0 88.5 -23t56.5 -59h2l11 68h186l-50 -269l-44 -268h-187l12 68h-2q-28 -37 -73.5 -60t-93.5 -23q-80 0 -125 50.5zM272 138q40 0 66.5 29t38 68.5t11.5 70.5q0 92 -72 92q-40 0 -66 -27t-37.5 -65.5
t-11.5 -75.5q0 -92 71 -92zM264 637.5q-35 33.5 -35 95.5q0 24 4 45h99q-2 -18 -2 -25q0 -26 11.5 -38.5t40.5 -12.5q36 0 53 18.5t25 57.5h100q-10 -82 -61 -128t-133 -46q-67 0 -102 33.5z" />
    <glyph glyph-name="Aogonek" unicode="&#x104;" horiz-adv-x="702" 
d="M130 346l170 347h250l49 -347l54 -346h1q-35 -19 -53.5 -40.5t-18.5 -35.5q0 -19 31 -19q24 0 46 9l9 -76q-33 -11 -60 -16.5t-57 -5.5q-45 0 -69.5 15.5t-24.5 45.5q0 33 24 61.5t81 61.5h-118l-10 122l-108 2l-104 -1l-53 -123h-215zM352 270l70 1l-4 49l-22 185h-4
l-84 -185l-21 -49z" />
    <glyph glyph-name="aogonek" unicode="&#x105;" horiz-adv-x="611" 
d="M54 35.5q-45 50.5 -45 146.5q0 76 26 161t85 146.5t153 61.5q48 0 88.5 -23t56.5 -59h2l11 68h186l-50 -269l-44 -268q-35 -19 -53.5 -40.5t-18.5 -35.5q0 -19 31 -19q24 0 46 9l9 -76q-33 -11 -60 -16.5t-57 -5.5q-45 0 -69.5 15.5t-24.5 45.5q0 33 24 61.5t81 61.5h-95
l12 68h-2q-28 -37 -73.5 -60t-93.5 -23q-80 0 -125 50.5zM272 138q40 0 66.5 29t38 68.5t11.5 70.5q0 92 -72 92q-40 0 -66 -27t-37.5 -65.5t-11.5 -75.5q0 -92 71 -92z" />
    <glyph glyph-name="Cacute" unicode="&#x106;" horiz-adv-x="681" 
d="M178 22q-70 37 -107.5 106t-37.5 163q0 125 46.5 219.5t131.5 146t198 51.5q130 0 207.5 -67t87.5 -183l-186 -48q-4 72 -33 103.5t-82 31.5q-49 0 -86 -31t-57 -88t-20 -133q0 -69 30.5 -107t84.5 -38q100 0 140 136l170 -49q-24 -116 -111 -183t-211 -67q-95 0 -165 37
zM392 739l64 143h175l-133 -143h-106z" />
    <glyph glyph-name="cacute" unicode="&#x107;" horiz-adv-x="561" 
d="M79.5 49q-65.5 64 -65.5 180q0 63 30.5 138t100.5 129.5t180 54.5q112 0 177.5 -53t72.5 -140l-175 -44q-3 91 -83 91q-39 0 -65 -27.5t-38 -68t-12 -79.5q0 -47 23 -72.5t58 -25.5q36 0 62 23.5t39 69.5l163 -46q-29 -92 -101 -143t-183 -51q-118 0 -183.5 64zM310 617
l71 166h166l-131 -166h-106z" />
    <glyph glyph-name="Ccircumflex" unicode="&#x108;" horiz-adv-x="681" 
d="M178 22q-70 37 -107.5 106t-37.5 163q0 125 46.5 219.5t131.5 146t198 51.5q130 0 207.5 -67t87.5 -183l-186 -48q-4 72 -33 103.5t-82 31.5q-49 0 -86 -31t-57 -88t-20 -133q0 -69 30.5 -107t84.5 -38q100 0 140 136l170 -49q-24 -116 -111 -183t-211 -67q-95 0 -165 37
zM407 881h134l81 -143h-113l-50 54l-69 -54h-113z" />
    <glyph glyph-name="ccircumflex" unicode="&#x109;" horiz-adv-x="561" 
d="M79.5 49q-65.5 64 -65.5 180q0 63 30.5 138t100.5 129.5t180 54.5q112 0 177.5 -53t72.5 -140l-175 -44q-3 91 -83 91q-39 0 -65 -27.5t-38 -68t-12 -79.5q0 -47 23 -72.5t58 -25.5q36 0 62 23.5t39 69.5l163 -46q-29 -92 -101 -143t-183 -51q-118 0 -183.5 64zM329 783
h134l76 -166h-103l-56 75l-83 -75h-103z" />
    <glyph glyph-name="Cdotaccent" unicode="&#x10a;" horiz-adv-x="681" 
d="M178 22q-70 37 -107.5 106t-37.5 163q0 125 46.5 219.5t131.5 146t198 51.5q130 0 207.5 -67t87.5 -183l-186 -48q-4 72 -33 103.5t-82 31.5q-49 0 -86 -31t-57 -88t-20 -133q0 -69 30.5 -107t84.5 -38q100 0 140 136l170 -49q-24 -116 -111 -183t-211 -67q-95 0 -165 37
zM391.5 749.5q-20.5 15.5 -20.5 44.5q0 47 28.5 73.5t77.5 26.5q38 0 58 -16.5t20 -46.5q0 -6 -2 -18q-7 -38 -34 -58.5t-70 -20.5q-37 0 -57.5 15.5z" />
    <glyph glyph-name="cdotaccent" unicode="&#x10b;" horiz-adv-x="561" 
d="M79.5 49q-65.5 64 -65.5 180q0 63 30.5 138t100.5 129.5t180 54.5q112 0 177.5 -53t72.5 -140l-175 -44q-3 91 -83 91q-39 0 -65 -27.5t-38 -68t-12 -79.5q0 -47 23 -72.5t58 -25.5q36 0 62 23.5t39 69.5l163 -46q-29 -92 -101 -143t-183 -51q-118 0 -183.5 64z
M308.5 625q-20.5 16 -20.5 45q0 6 2 18q7 38 34.5 59t70.5 21q38 0 58 -16t20 -46q0 -6 -2 -18q-7 -38 -34 -58.5t-70 -20.5q-38 0 -58.5 16z" />
    <glyph glyph-name="Ccaron" unicode="&#x10c;" horiz-adv-x="681" 
d="M178 22q-70 37 -107.5 106t-37.5 163q0 125 46.5 219.5t131.5 146t198 51.5q130 0 207.5 -67t87.5 -183l-186 -48q-4 72 -33 103.5t-82 31.5q-49 0 -86 -31t-57 -88t-20 -133q0 -69 30.5 -107t84.5 -38q100 0 140 136l170 -49q-24 -116 -111 -183t-211 -67q-95 0 -165 37
zM414 881l51 -53l69 53h112l-129 -143h-135l-80 143h112z" />
    <glyph glyph-name="ccaron" unicode="&#x10d;" horiz-adv-x="561" 
d="M79.5 49q-65.5 64 -65.5 180q0 63 30.5 138t100.5 129.5t180 54.5q112 0 177.5 -53t72.5 -140l-175 -44q-3 91 -83 91q-39 0 -65 -27.5t-38 -68t-12 -79.5q0 -47 23 -72.5t58 -25.5q36 0 62 23.5t39 69.5l163 -46q-29 -92 -101 -143t-183 -51q-118 0 -183.5 64zM325 774
l57 -75l82 75h103l-135 -166h-134l-76 166h103z" />
    <glyph glyph-name="Dcaron" unicode="&#x10e;" horiz-adv-x="707" 
d="M63 347l58 346h245q171 0 254.5 -70t83.5 -215q0 -101 -44.5 -193.5t-146.5 -153.5t-262 -61h-252zM274 167q82 0 132.5 32.5t72 82t21.5 102.5q0 75 -38 109t-120 34h-51l-34 -180l-29 -180h46zM321 881l51 -53l69 53h112l-129 -143h-135l-80 143h112z" />
    <glyph glyph-name="dcaron" unicode="&#x10f;" horiz-adv-x="707" 
d="M53.5 36q-44.5 50 -44.5 146q0 76 26 161.5t85 147t152 61.5q49 0 89.5 -23.5t56.5 -59.5h2l38 224h187l-67 -365l-55 -328h-187l12 68h-2q-28 -37 -73 -59.5t-94 -22.5q-81 0 -125.5 50zM272 139q41 0 67 27t38 65.5t12 72.5q0 48 -19 71.5t-54 23.5q-40 0 -66 -27
t-37.5 -66.5t-11.5 -76.5q0 -90 71 -90zM676 693h128l-59 -240h-94z" />
    <glyph glyph-name="Dcroat" unicode="&#x110;" horiz-adv-x="707" 
d="M56 311l-70 -1l14 76l69 -1l52 308h245q171 0 254.5 -70t83.5 -215q0 -101 -44.5 -193.5t-146.5 -153.5t-262 -61h-252zM274 167q82 0 132.5 32.5t72 82t21.5 102.5q0 75 -38 109t-120 34h-51l-27 -142l101 1l-14 -76l-100 1l-23 -144h46z" />
    <glyph glyph-name="dcroat" unicode="&#x111;" horiz-adv-x="611" 
d="M53.5 36q-44.5 50 -44.5 146q0 76 26 161.5t85 147t152 61.5q49 0 89.5 -23.5t56.5 -59.5h2l18 106l-111 -1l14 76l109 -1l8 44h187l-8 -44l69 1l-14 -76l-69 1l-45 -247l-55 -328h-187l12 68h-2q-28 -37 -73 -59.5t-94 -22.5q-81 0 -125.5 50zM272 139q41 0 67 27
t38 65.5t12 72.5q0 48 -19 71.5t-54 23.5q-40 0 -66 -27t-37.5 -66.5t-11.5 -76.5q0 -90 71 -90z" />
    <glyph glyph-name="Emacron" unicode="&#x112;" horiz-adv-x="597" 
d="M63 346l58 347h520l-28 -156h-319l-22 -118h293l-23 -135h-294l-21 -128h329l-28 -156h-529zM266 849h304l-18 -103h-304z" />
    <glyph glyph-name="emacron" unicode="&#x113;" horiz-adv-x="576" 
d="M79.5 49q-65.5 64 -65.5 179q0 65 30 140t100 129.5t183 54.5q120 0 176 -63.5t56 -175.5q0 -39 -6 -81h-353v-5q0 -51 23.5 -76t64.5 -25q34 0 60 23.5t38 61.5l149 -42q-29 -76 -97.5 -130t-174.5 -54q-118 0 -183.5 64zM395 335q5 83 -73 83q-38 0 -64 -22.5
t-40 -60.5h177zM226 730h298l-19 -102h-298z" />
    <glyph glyph-name="Ebreve" unicode="&#x114;" horiz-adv-x="597" 
d="M63 346l58 347h520l-28 -156h-319l-22 -118h293l-23 -135h-294l-21 -128h329l-28 -156h-529zM293 766.5q-36 32.5 -36 87.5q0 16 3 34h103q-1 -6 -1 -16q0 -47 50 -47q32 0 48.5 16.5t24.5 46.5h103q-8 -69 -59.5 -111.5t-131.5 -42.5q-68 0 -104 32.5z" />
    <glyph glyph-name="ebreve" unicode="&#x115;" horiz-adv-x="576" 
d="M79.5 49q-65.5 64 -65.5 179q0 65 30 140t100 129.5t183 54.5q120 0 176 -63.5t56 -175.5q0 -39 -6 -81h-353v-5q0 -51 23.5 -76t64.5 -25q34 0 60 23.5t38 61.5l149 -42q-29 -76 -97.5 -130t-174.5 -54q-118 0 -183.5 64zM395 335q5 83 -73 83q-38 0 -64 -22.5
t-40 -60.5h177zM250 637.5q-35 33.5 -35 95.5q0 24 4 45h99q-2 -18 -2 -25q0 -26 11.5 -38.5t40.5 -12.5q36 0 53 18.5t25 57.5h100q-10 -82 -61 -128t-133 -46q-67 0 -102 33.5z" />
    <glyph glyph-name="Edotaccent" unicode="&#x116;" horiz-adv-x="597" 
d="M63 346l58 347h520l-28 -156h-319l-22 -118h293l-23 -135h-294l-21 -128h329l-28 -156h-529zM340.5 749.5q-20.5 15.5 -20.5 44.5q0 47 28.5 73.5t77.5 26.5q38 0 58 -16.5t20 -46.5q0 -6 -2 -18q-7 -38 -34 -58.5t-70 -20.5q-37 0 -57.5 15.5z" />
    <glyph glyph-name="edotaccent" unicode="&#x117;" horiz-adv-x="576" 
d="M79.5 49q-65.5 64 -65.5 179q0 65 30 140t100 129.5t183 54.5q120 0 176 -63.5t56 -175.5q0 -39 -6 -81h-353v-5q0 -51 23.5 -76t64.5 -25q34 0 60 23.5t38 61.5l149 -42q-29 -76 -97.5 -130t-174.5 -54q-118 0 -183.5 64zM395 335q5 83 -73 83q-38 0 -64 -22.5
t-40 -60.5h177zM295.5 625q-20.5 16 -20.5 45q0 6 2 18q7 38 34.5 59t70.5 21q38 0 58 -16t20 -46q0 -6 -2 -18q-7 -38 -34 -58.5t-70 -20.5q-38 0 -58.5 16z" />
    <glyph glyph-name="Eogonek" unicode="&#x118;" horiz-adv-x="597" 
d="M63 346l58 347h520l-28 -156h-319l-22 -118h293l-23 -135h-294l-21 -128h329l-28 -156q-35 -19 -53.5 -40.5t-18.5 -35.5q0 -19 31 -19q24 0 46 9l9 -76q-33 -11 -60 -16.5t-57 -5.5q-45 0 -69.5 15.5t-24.5 45.5q0 33 24 61.5t81 61.5h-437z" />
    <glyph glyph-name="eogonek" unicode="&#x119;" horiz-adv-x="576" 
d="M238.5 -143.5q-24.5 15.5 -24.5 45.5q0 23 11 42.5t35 40.5q-116 1 -181 65t-65 178q0 65 30 140t100 129.5t183 54.5q120 0 176 -63.5t56 -175.5q0 -39 -6 -81h-353v-5q0 -51 23.5 -76t64.5 -25q34 0 60 23.5t38 61.5l149 -42q-19 -50 -57 -93.5t-94 -67.5
q-22 -16 -33.5 -32t-11.5 -27q0 -19 31 -19q24 0 46 9l9 -76q-33 -11 -60 -16.5t-57 -5.5q-45 0 -69.5 15.5zM395 335q5 83 -73 83q-38 0 -64 -22.5t-40 -60.5h177z" />
    <glyph glyph-name="Ecaron" unicode="&#x11a;" horiz-adv-x="597" 
d="M63 346l58 347h520l-28 -156h-319l-22 -118h293l-23 -135h-294l-21 -128h329l-28 -156h-529zM363 881l51 -53l69 53h112l-129 -143h-135l-80 143h112z" />
    <glyph glyph-name="ecaron" unicode="&#x11b;" horiz-adv-x="576" 
d="M79.5 49q-65.5 64 -65.5 179q0 65 30 140t100 129.5t183 54.5q120 0 176 -63.5t56 -175.5q0 -39 -6 -81h-353v-5q0 -51 23.5 -76t64.5 -25q34 0 60 23.5t38 61.5l149 -42q-29 -76 -97.5 -130t-174.5 -54q-118 0 -183.5 64zM395 335q5 83 -73 83q-38 0 -64 -22.5
t-40 -60.5h177zM313 774l57 -75l82 75h103l-135 -166h-134l-76 166h103z" />
    <glyph glyph-name="Gcircumflex" unicode="&#x11c;" horiz-adv-x="699" 
d="M162 22q-62 37 -95.5 106t-33.5 163q0 125 46.5 219.5t131.5 146t198 51.5q130 0 208 -66t87 -178l-186 -52q-3 70 -31.5 101.5t-80.5 31.5q-77 0 -121.5 -68.5t-44.5 -183.5q0 -70 29 -110.5t85 -40.5q50 0 86.5 32t50.5 89l-142 -2l21 122h320l-35 -189l-24 -194h-124
l-2 72q-36 -45 -89 -66t-108 -21q-84 0 -146 37zM394 881h134l81 -143h-113l-50 54l-69 -54h-113z" />
    <glyph glyph-name="gcircumflex" unicode="&#x11d;" horiz-adv-x="612" 
d="M46 -130.5q-54 43.5 -69 127.5l151 41q6 -42 28.5 -61.5t66.5 -19.5q60 0 91 36.5t42 106.5l3 15h-3q-27 -32 -73.5 -54t-92.5 -22q-80 0 -127 49t-47 148q0 63 25 136t84 126t153 53q48 0 87 -23t55 -58h2l11 67h186l-67 -380q-32 -180 -120.5 -255.5t-218.5 -75.5
q-113 0 -167 43.5zM226.5 201q18.5 -23 53.5 -23q39 0 64.5 22.5t37 54.5t11.5 60q0 36 -18.5 59.5t-55.5 23.5q-36 0 -61 -20.5t-37.5 -51t-12.5 -61.5q0 -41 18.5 -64zM333 783h134l76 -166h-103l-56 75l-83 -75h-103z" />
    <glyph glyph-name="Gbreve" unicode="&#x11e;" horiz-adv-x="699" 
d="M162 22q-62 37 -95.5 106t-33.5 163q0 125 46.5 219.5t131.5 146t198 51.5q130 0 208 -66t87 -178l-186 -52q-3 70 -31.5 101.5t-80.5 31.5q-77 0 -121.5 -68.5t-44.5 -183.5q0 -70 29 -110.5t85 -40.5q50 0 86.5 32t50.5 89l-142 -2l21 122h320l-35 -189l-24 -194h-124
l-2 72q-36 -45 -89 -66t-108 -21q-84 0 -146 37zM331 766.5q-36 32.5 -36 87.5q0 16 3 34h103q-1 -6 -1 -16q0 -47 50 -47q32 0 48.5 16.5t24.5 46.5h103q-8 -69 -59.5 -111.5t-131.5 -42.5q-68 0 -104 32.5z" />
    <glyph glyph-name="gbreve" unicode="&#x11f;" horiz-adv-x="612" 
d="M46 -130.5q-54 43.5 -69 127.5l151 41q6 -42 28.5 -61.5t66.5 -19.5q60 0 91 36.5t42 106.5l3 15h-3q-27 -32 -73.5 -54t-92.5 -22q-80 0 -127 49t-47 148q0 63 25 136t84 126t153 53q48 0 87 -23t55 -58h2l11 67h186l-67 -380q-32 -180 -120.5 -255.5t-218.5 -75.5
q-113 0 -167 43.5zM226.5 201q18.5 -23 53.5 -23q39 0 64.5 22.5t37 54.5t11.5 60q0 36 -18.5 59.5t-55.5 23.5q-36 0 -61 -20.5t-37.5 -51t-12.5 -61.5q0 -41 18.5 -64zM266 637.5q-35 33.5 -35 95.5q0 24 4 45h99q-2 -18 -2 -25q0 -26 11.5 -38.5t40.5 -12.5q36 0 53 18.5
t25 57.5h100q-10 -82 -61 -128t-133 -46q-67 0 -102 33.5z" />
    <glyph glyph-name="Gdotaccent" unicode="&#x120;" horiz-adv-x="699" 
d="M162 22q-62 37 -95.5 106t-33.5 163q0 125 46.5 219.5t131.5 146t198 51.5q130 0 208 -66t87 -178l-186 -52q-3 70 -31.5 101.5t-80.5 31.5q-77 0 -121.5 -68.5t-44.5 -183.5q0 -70 29 -110.5t85 -40.5q50 0 86.5 32t50.5 89l-142 -2l21 122h320l-35 -189l-24 -194h-124
l-2 72q-36 -45 -89 -66t-108 -21q-84 0 -146 37zM378.5 749.5q-20.5 15.5 -20.5 44.5q0 47 28.5 73.5t77.5 26.5q38 0 58 -16.5t20 -46.5q0 -6 -2 -18q-7 -38 -34 -58.5t-70 -20.5q-37 0 -57.5 15.5z" />
    <glyph glyph-name="gdotaccent" unicode="&#x121;" horiz-adv-x="612" 
d="M46 -130.5q-54 43.5 -69 127.5l151 41q6 -42 28.5 -61.5t66.5 -19.5q60 0 91 36.5t42 106.5l3 15h-3q-27 -32 -73.5 -54t-92.5 -22q-80 0 -127 49t-47 148q0 63 25 136t84 126t153 53q48 0 87 -23t55 -58h2l11 67h186l-67 -380q-32 -180 -120.5 -255.5t-218.5 -75.5
q-113 0 -167 43.5zM226.5 201q18.5 -23 53.5 -23q39 0 64.5 22.5t37 54.5t11.5 60q0 36 -18.5 59.5t-55.5 23.5q-36 0 -61 -20.5t-37.5 -51t-12.5 -61.5q0 -41 18.5 -64zM311.5 625q-20.5 16 -20.5 45q0 6 2 18q7 38 34.5 59t70.5 21q38 0 58 -16t20 -46q0 -6 -2 -18
q-7 -38 -34 -58.5t-70 -20.5q-38 0 -58.5 16z" />
    <glyph glyph-name="uni0122" unicode="&#x122;" horiz-adv-x="699" 
d="M162 22q-62 37 -95.5 106t-33.5 163q0 125 46.5 219.5t131.5 146t198 51.5q130 0 208 -66t87 -178l-186 -52q-3 70 -31.5 101.5t-80.5 31.5q-77 0 -121.5 -68.5t-44.5 -183.5q0 -70 29 -110.5t85 -40.5q50 0 86.5 32t50.5 89l-142 -2l21 122h320l-35 -189l-24 -194h-124
l-2 72q-36 -45 -89 -66t-108 -21q-84 0 -146 37zM234 -142q24 0 37 5t12 13q-36 -1 -51.5 11.5t-11.5 29.5q4 21 24 34.5t55 13.5q64 0 64 -44q0 -8 -1 -13q-14 -86 -149 -87l-6 38q10 -1 27 -1z" />
    <glyph glyph-name="uni0123" unicode="&#x123;" horiz-adv-x="612" 
d="M46 -130.5q-54 43.5 -69 127.5l151 41q6 -42 28.5 -61.5t66.5 -19.5q60 0 91 36.5t42 106.5l3 15h-3q-27 -32 -73.5 -54t-92.5 -22q-80 0 -127 49t-47 148q0 63 25 136t84 126t153 53q48 0 87 -23t55 -58h2l11 67h186l-67 -380q-32 -180 -120.5 -255.5t-218.5 -75.5
q-113 0 -167 43.5zM226.5 201q18.5 -23 53.5 -23q39 0 64.5 22.5t37 54.5t11.5 60q0 36 -18.5 59.5t-55.5 23.5q-36 0 -61 -20.5t-37.5 -51t-12.5 -61.5q0 -41 18.5 -64zM308 665q0 27 13.5 55t47.5 49t90 21l5 -38q-33 1 -54 -11.5t-22 -28.5l14 1q50 0 50 -36
q0 -25 -21 -44t-60 -19q-63 0 -63 51z" />
    <glyph glyph-name="Hcircumflex" unicode="&#x124;" horiz-adv-x="715" 
d="M469 267l-112 2l-112 -2l-44 -267h-202l64 346l58 347h202l-48 -260l111 -2l112 2l43 260h203l-65 -347l-57 -346h-203zM398 881h134l81 -143h-113l-50 54l-69 -54h-113z" />
    <glyph glyph-name="hcircumflex" unicode="&#x125;" horiz-adv-x="610" 
d="M42 256l74 437h185l-42 -227h2q28 39 76.5 62t97.5 23q76 0 113.5 -35.5t37.5 -109.5q0 -30 -6 -68l-14 -82l-42 -256h-186l48 256l8 46q3 17 3 29q0 60 -63 60q-40 0 -70 -28.5t-38 -78.5l-4 -28l-43 -256h-185zM177 868h134l81 -143h-113l-50 54l-69 -54h-113z" />
    <glyph glyph-name="Hbar" unicode="&#x126;" horiz-adv-x="715" 
d="M469 267l-112 2l-112 -2l-44 -267h-202l64 346l31 183h-61l14 76h59l15 88h202l-17 -90l107 -1l113 1l15 90h203l-17 -88h59l-14 -76h-59l-34 -183l-57 -346h-203zM386 431l112 2l16 98l-112 1l-109 -1l-18 -98z" />
    <glyph glyph-name="hbar" unicode="&#x127;" horiz-adv-x="610" 
d="M42 256l52 309l-70 -1l14 76l69 -1l9 54h185l-10 -54l112 1l-14 -76l-112 1l-18 -99h2q28 39 76.5 62t97.5 23q76 0 113.5 -35.5t37.5 -109.5q0 -30 -6 -68l-14 -82l-42 -256h-186l48 256l8 46q3 17 3 29q0 60 -63 60q-40 0 -70 -28.5t-38 -78.5l-4 -28l-43 -256h-185z
" />
    <glyph glyph-name="Itilde" unicode="&#x128;" horiz-adv-x="295" 
d="M63 346l58 347h202l-64 -347l-58 -346h-202zM103.5 847.5q32.5 40.5 86.5 40.5q25 0 41.5 -8t34.5 -21q9 -7 18 -12t18 -5q18 0 26 11.5t12 34.5h85q-9 -69 -42 -109.5t-87 -40.5q-24 0 -40.5 7.5t-35.5 21.5q-11 9 -19 13t-17 4q-18 0 -26 -11.5t-11 -34.5h-85
q9 69 41.5 109.5z" />
    <glyph glyph-name="itilde" unicode="&#x129;" horiz-adv-x="268" 
d="M44 270l44 267h186l-50 -267l-45 -270h-185zM68.5 721.5q32.5 40.5 86.5 40.5q25 0 42 -7.5t34 -20.5q12 -9 19.5 -12.5t16.5 -3.5q18 0 26 11t12 33h85q-9 -70 -42 -110t-88 -40q-24 0 -41 7.5t-34 20.5q-3 2 -14 9t-22 7q-18 0 -26 -11t-12 -33h-84q9 69 41.5 109.5z
" />
    <glyph glyph-name="Imacron" unicode="&#x12a;" horiz-adv-x="295" 
d="M63 346l58 347h202l-64 -347l-58 -346h-202zM98 849h304l-18 -103h-304z" />
    <glyph glyph-name="imacron" unicode="&#x12b;" horiz-adv-x="268" 
d="M44 270l44 267h186l-50 -267l-45 -270h-185zM67 730h298l-19 -102h-298z" />
    <glyph glyph-name="Ibreve" unicode="&#x12c;" horiz-adv-x="295" 
d="M63 346l58 347h202l-64 -347l-58 -346h-202zM125 766.5q-36 32.5 -36 87.5q0 16 3 34h103q-1 -6 -1 -16q0 -47 50 -47q32 0 48.5 16.5t24.5 46.5h103q-8 -69 -59.5 -111.5t-131.5 -42.5q-68 0 -104 32.5z" />
    <glyph glyph-name="ibreve" unicode="&#x12d;" horiz-adv-x="268" 
d="M44 270l44 267h186l-50 -267l-45 -270h-185zM90 637.5q-35 33.5 -35 95.5q0 24 4 45h99q-2 -18 -2 -25q0 -26 11.5 -38.5t40.5 -12.5q36 0 53 18.5t25 57.5h100q-10 -82 -61 -128t-133 -46q-67 0 -102 33.5z" />
    <glyph glyph-name="Iogonek" unicode="&#x12e;" horiz-adv-x="295" 
d="M63 346l58 347h202l-64 -347l-58 -346h-51q-35 -19 -53.5 -40.5t-18.5 -35.5q0 -19 31 -19q24 0 46 9l9 -76q-33 -11 -60 -16.5t-57 -5.5q-45 0 -69.5 15.5t-24.5 45.5q0 33 24 61.5t81 61.5h-59z" />
    <glyph glyph-name="iogonek" unicode="&#x12f;" horiz-adv-x="268" 
d="M44 270l44 267h186l-50 -267l-45 -270h-29q-35 -19 -53.5 -40.5t-18.5 -35.5q0 -19 31 -19q24 0 46 9l9 -76q-33 -11 -60 -16.5t-57 -5.5q-45 0 -69.5 15.5t-24.5 45.5q0 33 24 61.5t81 61.5h-64zM151.5 747q27.5 21 70.5 21q38 0 58 -16t20 -46q0 -6 -2 -18
q-7 -38 -34 -58.5t-70 -20.5q-38 0 -58.5 16t-20.5 45q0 6 2 18q7 38 34.5 59z" />
    <glyph glyph-name="Idotaccent" unicode="&#x130;" horiz-adv-x="295" 
d="M63 346l58 347h202l-64 -347l-58 -346h-202zM172.5 749.5q-20.5 15.5 -20.5 44.5q0 47 28.5 73.5t77.5 26.5q38 0 58 -16.5t20 -46.5q0 -6 -2 -18q-7 -38 -34 -58.5t-70 -20.5q-37 0 -57.5 15.5z" />
    <glyph glyph-name="dotlessi" unicode="&#x131;" horiz-adv-x="268" 
d="M44 270l44 267h186l-50 -267l-45 -270h-185z" />
    <glyph glyph-name="IJ" unicode="&#x132;" horiz-adv-x="727" 
d="M63 346l58 347h202l-64 -347l-58 -346h-202zM261 0l58 155q30 -6 55 -6q48 0 75.5 28.5t38.5 86.5l41 225l34 204h203l-38 -204l-35 -208q-26 -154 -104 -225t-206 -71q-62 0 -122 15z" />
    <glyph glyph-name="ij" unicode="&#x133;" horiz-adv-x="268" 
d="M115 586q-23 14 -23 44q0 13 2 21q7 42 35.5 61t85.5 19q50 0 73 -14.5t23 -45.5q0 -6 -2 -20q-8 -42 -36.5 -60.5t-85.5 -18.5q-49 0 -72 14zM-87 -19q21 -8 37 -8q31 0 46 38l31 169l61 357q29 -10 91 -10t95 10l-58 -312l-37 -225h-4q-24 -94 -74.5 -133.5
t-135.5 -39.5q-41 0 -99 20z" />
    <glyph glyph-name="Jcircumflex" unicode="&#x134;" horiz-adv-x="433" 
d="M-34 0l58 155q30 -6 55 -6q48 0 75.5 28.5t38.5 86.5l41 225l34 204h203l-38 -204l-35 -208q-26 -154 -104 -225t-206 -71q-62 0 -122 15zM336 881h134l81 -143h-113l-50 54l-69 -54h-113z" />
    <glyph glyph-name="jcircumflex" unicode="&#x135;" horiz-adv-x="262" 
d="M-138 -152l47 133q19 -8 36 -8q41 0 53 64l17 94l68 406h186l-75 -407l-15 -88q-21 -118 -73 -166.5t-146 -48.5q-43 0 -98 21zM153 783h134l76 -166h-103l-56 75l-83 -75h-103z" />
    <glyph glyph-name="uni0136" unicode="&#x136;" horiz-adv-x="683" 
d="M63 346l58 347h202l-47 -257l230 257h231l-265 -276l162 -417h-206l-99 267l-101 -105l-27 -162h-202zM218 -142q24 0 37 5t12 13q-36 -1 -51.5 11.5t-11.5 29.5q4 21 24 34.5t55 13.5q64 0 64 -44q0 -8 -1 -13q-14 -86 -149 -87l-6 38q10 -1 27 -1z" />
    <glyph glyph-name="uni0137" unicode="&#x137;" horiz-adv-x="591" 
d="M58 353l58 340h185l-61 -332l171 176h209l-215 -207l141 -330h-195l-83 199l-66 -64l-23 -135h-185zM171 -142q24 0 37 5t12 13q-36 -1 -51.5 11.5t-11.5 29.5q4 21 24 34.5t55 13.5q64 0 64 -44q0 -8 -1 -13q-14 -86 -149 -87l-6 38q10 -1 27 -1z" />
    <glyph glyph-name="kgreenlandic" unicode="&#x138;" horiz-adv-x="591" 
d="M58 353l30 184h186l-33 -176l170 176h209l-216 -207l142 -330h-194l-83 200l-67 -65l-23 -135h-185z" />
    <glyph glyph-name="Lacute" unicode="&#x139;" horiz-adv-x="549" 
d="M72 395l49 298h202l-54 -298l-39 -229h283l-30 -166h-484zM179 739l64 143h175l-133 -143h-106z" />
    <glyph glyph-name="lacute" unicode="&#x13a;" horiz-adv-x="268" 
d="M58 353l58 340h185l-62 -340l-60 -353h-185zM158 726l64 143h175l-133 -143h-106z" />
    <glyph glyph-name="uni013B" unicode="&#x13b;" horiz-adv-x="549" 
d="M72 395l49 298h202l-54 -298l-39 -229h283l-30 -166h-484zM150 -142q24 0 37 5t12 13q-36 -1 -51.5 11.5t-11.5 29.5q4 21 24 34.5t55 13.5q64 0 64 -44q0 -8 -1 -13q-14 -86 -149 -87l-6 38q10 -1 27 -1z" />
    <glyph glyph-name="uni013C" unicode="&#x13c;" horiz-adv-x="268" 
d="M58 353l58 340h185l-62 -340l-60 -353h-185zM14 -142q24 0 37 5t12 13q-36 -1 -51.5 11.5t-11.5 29.5q4 21 24 34.5t55 13.5q64 0 64 -44q0 -8 -1 -13q-14 -86 -149 -87l-6 38q10 -1 27 -1z" />
    <glyph glyph-name="Lcaron" unicode="&#x13d;" horiz-adv-x="549" 
d="M72 395l49 298h202l-54 -298l-39 -229h283l-30 -166h-484zM471 693h128l-59 -240h-94z" />
    <glyph glyph-name="lcaron" unicode="&#x13e;" horiz-adv-x="367" 
d="M58 353l58 340h185l-62 -340l-60 -353h-185zM336 693h128l-59 -240h-94z" />
    <glyph glyph-name="Ldot" unicode="&#x13f;" horiz-adv-x="549" 
d="M72 395l49 298h202l-54 -298l-39 -229h283l-30 -166h-484zM334.5 459.5q28.5 28.5 89.5 28.5q40 0 64 -18t24 -53q0 -37 -28 -67t-90 -30q-41 0 -64.5 18t-23.5 54q0 39 28.5 67.5z" />
    <glyph glyph-name="ldot" unicode="&#x140;" horiz-adv-x="381" 
d="M58 353l58 340h185l-62 -340l-60 -353h-185zM279.5 395q21.5 22 67.5 22q31 0 49 -13.5t18 -40.5q0 -28 -21 -51t-68 -23q-31 0 -49 14t-18 41q0 29 21.5 51z" />
    <glyph glyph-name="Lslash" unicode="&#x141;" horiz-adv-x="549" 
d="M44 244l-41 -22l-27 67l84 43l12 63l49 298h202l-45 -247l47 25l27 -66l-89 -45l-33 -194h283l-30 -166h-484z" />
    <glyph glyph-name="lslash" unicode="&#x142;" horiz-adv-x="268" 
d="M39 251l-53 -29l-27 67l96 49l3 15l58 340h185l-46 -250l53 28l27 -66l-95 -48l-1 -4l-60 -353h-185z" />
    <glyph glyph-name="Nacute" unicode="&#x143;" horiz-adv-x="704" 
d="M63 346l58 347h212l77 -233l61 -187h2l29 163l44 257h187l-65 -346l-57 -347h-213l-76 234l-61 186h-2l-29 -163l-45 -257h-186zM378 739l64 143h175l-133 -143h-106z" />
    <glyph glyph-name="nacute" unicode="&#x144;" horiz-adv-x="610" 
d="M42 256l46 281h186l-15 -71h2q29 40 76 62.5t101 22.5q74 0 111 -35.5t37 -112.5q0 -32 -8 -78l-12 -69l-42 -256h-186l48 256l8 47q2 9 2 26q0 63 -60 63q-41 0 -70.5 -28.5t-38.5 -78.5l-5 -29l-43 -256h-185zM351 617l71 166h166l-131 -166h-106z" />
    <glyph glyph-name="uni0145" unicode="&#x145;" horiz-adv-x="704" 
d="M63 346l58 347h212l77 -233l61 -187h2l29 163l44 257h187l-65 -346l-57 -347h-213l-76 234l-61 186h-2l-29 -163l-45 -257h-186zM233 -142q24 0 37 5t12 13q-36 -1 -51.5 11.5t-11.5 29.5q4 21 24 34.5t55 13.5q64 0 64 -44q0 -8 -1 -13q-14 -86 -149 -87l-6 38
q10 -1 27 -1z" />
    <glyph glyph-name="uni0146" unicode="&#x146;" horiz-adv-x="610" 
d="M42 256l46 281h186l-15 -71h2q29 40 76 62.5t101 22.5q74 0 111 -35.5t37 -112.5q0 -32 -8 -78l-12 -69l-42 -256h-186l48 256l8 47q2 9 2 26q0 63 -60 63q-41 0 -70.5 -28.5t-38.5 -78.5l-5 -29l-43 -256h-185zM184 -142q24 0 37 5t12 13q-36 -1 -51.5 11.5t-11.5 29.5
q4 21 24 34.5t55 13.5q64 0 64 -44q0 -8 -1 -13q-14 -86 -149 -87l-6 38q10 -1 27 -1z" />
    <glyph glyph-name="Ncaron" unicode="&#x147;" horiz-adv-x="704" 
d="M63 346l58 347h212l77 -233l61 -187h2l29 163l44 257h187l-65 -346l-57 -347h-213l-76 234l-61 186h-2l-29 -163l-45 -257h-186zM400 881l51 -53l69 53h112l-129 -143h-135l-80 143h112z" />
    <glyph glyph-name="ncaron" unicode="&#x148;" horiz-adv-x="610" 
d="M42 256l46 281h186l-15 -71h2q29 40 76 62.5t101 22.5q74 0 111 -35.5t37 -112.5q0 -32 -8 -78l-12 -69l-42 -256h-186l48 256l8 47q2 9 2 26q0 63 -60 63q-41 0 -70.5 -28.5t-38.5 -78.5l-5 -29l-43 -256h-185zM366 774l57 -75l82 75h103l-135 -166h-134l-76 166h103z
" />
    <glyph glyph-name="Eng" unicode="&#x14a;" horiz-adv-x="704" 
d="M258 -166q-39 7 -65 17l49 122q35 -10 68 -10q34 0 54.5 11.5t32.5 35.5l-75 224l-61 186h-2l-35 -194l-39 -226h-186l64 346l58 347h212l138 -420h2l35 197l38 223h187l-65 -346l-41 -252q-23 -137 -98.5 -202.5t-196.5 -65.5q-35 0 -74 7z" />
    <glyph glyph-name="eng" unicode="&#x14b;" horiz-adv-x="610" 
d="M42 256l46 281h186l-15 -71h2q29 40 76 62.5t101 22.5q74 0 110.5 -36.5t36.5 -113.5q0 -37 -7 -76l-12 -69l-35 -214q-20 -118 -72 -166.5t-147 -48.5q-41 0 -98 21l47 133q19 -8 37 -8q20 0 30.5 15t16.5 48l41 220l8 47q2 9 2 25q0 31 -16 47.5t-44 16.5
q-42 0 -71 -28t-37 -76l-6 -32l-43 -256h-185z" />
    <glyph glyph-name="Omacron" unicode="&#x14c;" horiz-adv-x="738" 
d="M177.5 22q-70.5 37 -107.5 105.5t-37 162.5q0 126 47.5 220.5t135.5 146t204 51.5q97 0 167.5 -36.5t108 -105.5t37.5 -163q0 -125 -47.5 -220t-135.5 -146.5t-204 -51.5q-98 0 -168.5 37zM271 186q31 -38 89 -38q49 0 86.5 32.5t58 90t20.5 130.5q0 69 -30.5 106.5
t-88.5 37.5q-49 0 -87 -32.5t-58.5 -90t-20.5 -129.5q0 -69 31 -107zM320 849h304l-18 -103h-304z" />
    <glyph glyph-name="omacron" unicode="&#x14d;" horiz-adv-x="599" 
d="M83.5 49.5q-68.5 64.5 -68.5 178.5q0 72 31.5 146.5t102 125.5t180.5 51q118 0 187 -64t69 -178q0 -72 -32 -146.5t-103 -126t-181 -51.5q-117 0 -185.5 64.5zM224.5 161q21.5 -25 58.5 -25q55 0 84.5 49.5t29.5 118.5q0 46 -22.5 71t-59.5 25q-54 0 -83 -49.5
t-29 -118.5q0 -46 21.5 -71zM233 730h298l-19 -102h-298z" />
    <glyph glyph-name="Obreve" unicode="&#x14e;" horiz-adv-x="738" 
d="M177.5 22q-70.5 37 -107.5 105.5t-37 162.5q0 126 47.5 220.5t135.5 146t204 51.5q97 0 167.5 -36.5t108 -105.5t37.5 -163q0 -125 -47.5 -220t-135.5 -146.5t-204 -51.5q-98 0 -168.5 37zM271 186q31 -38 89 -38q49 0 86.5 32.5t58 90t20.5 130.5q0 69 -30.5 106.5
t-88.5 37.5q-49 0 -87 -32.5t-58.5 -90t-20.5 -129.5q0 -69 31 -107zM347 766.5q-36 32.5 -36 87.5q0 16 3 34h103q-1 -6 -1 -16q0 -47 50 -47q32 0 48.5 16.5t24.5 46.5h103q-8 -69 -59.5 -111.5t-131.5 -42.5q-68 0 -104 32.5z" />
    <glyph glyph-name="obreve" unicode="&#x14f;" horiz-adv-x="599" 
d="M83.5 49.5q-68.5 64.5 -68.5 178.5q0 72 31.5 146.5t102 125.5t180.5 51q118 0 187 -64t69 -178q0 -72 -32 -146.5t-103 -126t-181 -51.5q-117 0 -185.5 64.5zM224.5 161q21.5 -25 58.5 -25q55 0 84.5 49.5t29.5 118.5q0 46 -22.5 71t-59.5 25q-54 0 -83 -49.5
t-29 -118.5q0 -46 21.5 -71zM257 637.5q-35 33.5 -35 95.5q0 24 4 45h99q-2 -18 -2 -25q0 -26 11.5 -38.5t40.5 -12.5q36 0 53 18.5t25 57.5h100q-10 -82 -61 -128t-133 -46q-67 0 -102 33.5z" />
    <glyph glyph-name="Ohungarumlaut" unicode="&#x150;" horiz-adv-x="738" 
d="M177.5 22q-70.5 37 -107.5 105.5t-37 162.5q0 126 47.5 220.5t135.5 146t204 51.5q97 0 167.5 -36.5t108 -105.5t37.5 -163q0 -125 -47.5 -220t-135.5 -146.5t-204 -51.5q-98 0 -168.5 37zM271 186q31 -38 89 -38q49 0 86.5 32.5t58 90t20.5 130.5q0 69 -30.5 106.5
t-88.5 37.5q-49 0 -87 -32.5t-58.5 -90t-20.5 -129.5q0 -69 31 -107zM562 882h144l-134 -143h-96zM382 882h134l-99 -143h-99z" />
    <glyph glyph-name="ohungarumlaut" unicode="&#x151;" horiz-adv-x="599" 
d="M83.5 49.5q-68.5 64.5 -68.5 178.5q0 72 31.5 146.5t102 125.5t180.5 51q118 0 187 -64t69 -178q0 -72 -32 -146.5t-103 -126t-181 -51.5q-117 0 -185.5 64.5zM224.5 161q21.5 -25 58.5 -25q55 0 84.5 49.5t29.5 118.5q0 46 -22.5 71t-59.5 25q-54 0 -83 -49.5
t-29 -118.5q0 -46 21.5 -71zM484 783h135l-139 -166h-96zM304 783h125l-104 -166h-99z" />
    <glyph glyph-name="OE" unicode="&#x152;" horiz-adv-x="999" 
d="M170.5 22q-64.5 37 -101 106t-36.5 162q0 125 47.5 219.5t135.5 146.5t206 52q91 0 145 -46h1l5 31h470l-28 -156h-289l-22 -118h263l-24 -135h-263l-21 -128h298l-27 -156h-479l5 31q-62 -46 -138 -46q-83 0 -147.5 37zM267.5 185.5q27.5 -37.5 78.5 -37.5q59 0 96.5 42
t54 102t16.5 117q0 136 -106 136q-49 0 -87 -31.5t-59 -88.5t-21 -132q0 -70 27.5 -107.5z" />
    <glyph glyph-name="oe" unicode="&#x153;" horiz-adv-x="907" 
d="M121 12.5q-52 27.5 -80.5 78.5t-28.5 120q0 70 32 149t103 135t180 56q55 0 97 -19t69 -55q72 74 179 74q111 0 164 -60.5t53 -167.5q0 -48 -8 -91h-339v-5q0 -52 21 -76.5t58 -24.5q33 0 59.5 22t40.5 60l144 -41q-29 -75 -96.5 -128.5t-163.5 -53.5q-121 0 -176 77
q-75 -77 -189 -77q-67 0 -119 27.5zM219 160.5q19 -24.5 50 -24.5q37 0 61.5 26.5t36 66t11.5 79.5q0 44 -19 68.5t-51 24.5q-34 0 -58.5 -26t-37 -66t-12.5 -80q0 -44 19 -68.5zM723 335q2 42 -15 66t-56 24q-57 0 -91 -90h162z" />
    <glyph glyph-name="Racute" unicode="&#x154;" horiz-adv-x="674" 
d="M63 347l58 346h315q121 0 181.5 -48t60.5 -146q0 -66 -33 -122.5t-110 -86.5q32 -17 48 -47.5t16 -77.5q0 -17 -2 -61q-3 -34 -3 -66q0 -24 3 -38h-204q-4 20 -4 50q0 17 2 55t2 55q0 43 -18.5 58t-63.5 15h-71l-39 -233h-202zM357 371q63 0 94.5 27.5t31.5 70.5
q0 33 -22 49t-69 16h-99l-29 -163h93zM309 739l64 143h175l-133 -143h-106z" />
    <glyph glyph-name="racute" unicode="&#x155;" horiz-adv-x="398" 
d="M42 256l46 281h186l-17 -80h2q24 40 65 67t103 27q12 0 20 -2l-32 -184q-28 5 -45 5q-128 0 -151 -131l-6 -31l-34 -208h-185zM216 617l71 166h166l-131 -166h-106z" />
    <glyph glyph-name="uni0156" unicode="&#x156;" horiz-adv-x="674" 
d="M63 347l58 346h315q121 0 181.5 -48t60.5 -146q0 -66 -33 -122.5t-110 -86.5q32 -17 48 -47.5t16 -77.5q0 -17 -2 -61q-3 -34 -3 -66q0 -24 3 -38h-204q-4 20 -4 50q0 17 2 55t2 55q0 43 -18.5 58t-63.5 15h-71l-39 -233h-202zM357 371q63 0 94.5 27.5t31.5 70.5
q0 33 -22 49t-69 16h-99l-29 -163h93zM217 -142q24 0 37 5t12 13q-36 -1 -51.5 11.5t-11.5 29.5q4 21 24 34.5t55 13.5q64 0 64 -44q0 -8 -1 -13q-14 -86 -149 -87l-6 38q10 -1 27 -1z" />
    <glyph glyph-name="uni0157" unicode="&#x157;" horiz-adv-x="398" 
d="M42 256l46 281h186l-17 -80h2q24 40 65 67t103 27q12 0 20 -2l-32 -184q-28 5 -45 5q-128 0 -151 -131l-6 -31l-34 -208h-185zM13 -142q24 0 37 5t12 13q-36 -1 -51.5 11.5t-11.5 29.5q4 21 24 34.5t55 13.5q64 0 64 -44q0 -8 -1 -13q-14 -86 -149 -87l-6 38q10 -1 27 -1
z" />
    <glyph glyph-name="Rcaron" unicode="&#x158;" horiz-adv-x="674" 
d="M63 347l58 346h315q121 0 181.5 -48t60.5 -146q0 -66 -33 -122.5t-110 -86.5q32 -17 48 -47.5t16 -77.5q0 -17 -2 -61q-3 -34 -3 -66q0 -24 3 -38h-204q-4 20 -4 50q0 17 2 55t2 55q0 43 -18.5 58t-63.5 15h-71l-39 -233h-202zM357 371q63 0 94.5 27.5t31.5 70.5
q0 33 -22 49t-69 16h-99l-29 -163h93zM330 881l51 -53l69 53h112l-129 -143h-135l-80 143h112z" />
    <glyph glyph-name="rcaron" unicode="&#x159;" horiz-adv-x="398" 
d="M42 256l46 281h186l-17 -80h2q24 40 65 67t103 27q12 0 20 -2l-32 -184q-28 5 -45 5q-128 0 -151 -131l-6 -31l-34 -208h-185zM231 774l57 -75l82 75h103l-135 -166h-134l-76 166h103z" />
    <glyph glyph-name="Sacute" unicode="&#x15a;" horiz-adv-x="624" 
d="M86 42.5q-77 57.5 -84 165.5l164 41q7 -55 39.5 -81.5t89.5 -26.5q52 0 78 17.5t26 45.5q0 27 -25.5 43.5t-90.5 32.5q-101 24 -156 76.5t-55 141.5q0 49 26.5 96.5t90 80.5t165.5 33q131 0 200 -54t79 -149l-173 -44q-3 41 -30 67t-79 26q-40 0 -62.5 -16t-22.5 -42
t21 -41t73 -28q124 -30 180 -81.5t56 -132.5q0 -60 -29 -111.5t-95.5 -84t-173.5 -32.5q-135 0 -212 57.5zM324 739l64 143h175l-133 -143h-106z" />
    <glyph glyph-name="sacute" unicode="&#x15b;" horiz-adv-x="526" 
d="M57.5 30q-64.5 45 -73.5 123l159 39q7 -36 26.5 -54.5t69.5 -18.5q70 0 70 41q0 19 -19.5 31t-70.5 19q-83 14 -131 55t-48 111q0 76 61.5 126t186.5 50q102 0 164.5 -40t75.5 -118l-162 -42q-4 36 -23 51t-56 15q-30 0 -44.5 -9.5t-14.5 -24.5q0 -17 20.5 -27.5
t84.5 -24.5q87 -19 126 -59t39 -109q0 -45 -24 -85.5t-81.5 -67t-151.5 -26.5q-119 0 -183.5 45zM265 617l71 166h166l-131 -166h-106z" />
    <glyph glyph-name="Scircumflex" unicode="&#x15c;" horiz-adv-x="624" 
d="M86 42.5q-77 57.5 -84 165.5l164 41q7 -55 39.5 -81.5t89.5 -26.5q52 0 78 17.5t26 45.5q0 27 -25.5 43.5t-90.5 32.5q-101 24 -156 76.5t-55 141.5q0 49 26.5 96.5t90 80.5t165.5 33q131 0 200 -54t79 -149l-173 -44q-3 41 -30 67t-79 26q-40 0 -62.5 -16t-22.5 -42
t21 -41t73 -28q124 -30 180 -81.5t56 -132.5q0 -60 -29 -111.5t-95.5 -84t-173.5 -32.5q-135 0 -212 57.5zM338 881h134l81 -143h-113l-50 54l-69 -54h-113z" />
    <glyph glyph-name="scircumflex" unicode="&#x15d;" horiz-adv-x="526" 
d="M57.5 30q-64.5 45 -73.5 123l159 39q7 -36 26.5 -54.5t69.5 -18.5q70 0 70 41q0 19 -19.5 31t-70.5 19q-83 14 -131 55t-48 111q0 76 61.5 126t186.5 50q102 0 164.5 -40t75.5 -118l-162 -42q-4 36 -23 51t-56 15q-30 0 -44.5 -9.5t-14.5 -24.5q0 -17 20.5 -27.5
t84.5 -24.5q87 -19 126 -59t39 -109q0 -45 -24 -85.5t-81.5 -67t-151.5 -26.5q-119 0 -183.5 45zM284 783h134l76 -166h-103l-56 75l-83 -75h-103z" />
    <glyph glyph-name="Scedilla" unicode="&#x15e;" horiz-adv-x="624" 
d="M292 -15l-13 -24q36 -4 53 -15.5t17 -33.5q0 -41 -33.5 -63.5t-93.5 -22.5q-26 0 -50 3.5t-38 9.5l23 58q24 -7 47 -7q34 0 34 24q0 10 -11.5 15.5t-39.5 9.5l36 51q-101 15 -157.5 70.5t-63.5 147.5l164 41q7 -55 39.5 -81.5t89.5 -26.5q52 0 78 17.5t26 45.5
q0 27 -25.5 43.5t-90.5 32.5q-101 24 -156 76.5t-55 141.5q0 49 26.5 96.5t90 80.5t165.5 33q131 0 200 -54t79 -149l-173 -44q-3 41 -30 67t-79 26q-40 0 -62.5 -16t-22.5 -42t21 -41t73 -28q124 -30 180 -81.5t56 -132.5q0 -60 -29 -111.5t-95.5 -84t-173.5 -32.5h-6z" />
    <glyph glyph-name="scedilla" unicode="&#x15f;" horiz-adv-x="526" 
d="M122 -170.5q-24 3.5 -38 9.5l23 58q24 -7 47 -7q34 0 34 24q0 10 -11.5 15.5t-39.5 9.5l35 51q-86 12 -133.5 54.5t-54.5 108.5l159 39q7 -36 26.5 -54.5t69.5 -18.5q70 0 70 41q0 19 -19.5 31t-70.5 19q-83 14 -131 55t-48 111q0 76 61.5 126t186.5 50q102 0 164.5 -40
t75.5 -118l-162 -42q-4 36 -23 51t-56 15q-30 0 -44.5 -9.5t-14.5 -24.5q0 -17 20.5 -27.5t84.5 -24.5q87 -19 126 -59t39 -109q0 -45 -24 -85.5t-81.5 -67t-150.5 -26.5l-13 -24q36 -4 53 -15.5t17 -33.5q0 -41 -33.5 -63.5t-93.5 -22.5q-26 0 -50 3.5z" />
    <glyph glyph-name="Scaron" unicode="&#x160;" horiz-adv-x="624" 
d="M86 42.5q-77 57.5 -84 165.5l164 41q7 -55 39.5 -81.5t89.5 -26.5q52 0 78 17.5t26 45.5q0 27 -25.5 43.5t-90.5 32.5q-101 24 -156 76.5t-55 141.5q0 49 26.5 96.5t90 80.5t165.5 33q131 0 200 -54t79 -149l-173 -44q-3 41 -30 67t-79 26q-40 0 -62.5 -16t-22.5 -42
t21 -41t73 -28q124 -30 180 -81.5t56 -132.5q0 -60 -29 -111.5t-95.5 -84t-173.5 -32.5q-135 0 -212 57.5zM345 881l51 -53l69 53h112l-129 -143h-135l-80 143h112z" />
    <glyph glyph-name="scaron" unicode="&#x161;" horiz-adv-x="526" 
d="M57.5 30q-64.5 45 -73.5 123l159 39q7 -36 26.5 -54.5t69.5 -18.5q70 0 70 41q0 19 -19.5 31t-70.5 19q-83 14 -131 55t-48 111q0 76 61.5 126t186.5 50q102 0 164.5 -40t75.5 -118l-162 -42q-4 36 -23 51t-56 15q-30 0 -44.5 -9.5t-14.5 -24.5q0 -17 20.5 -27.5
t84.5 -24.5q87 -19 126 -59t39 -109q0 -45 -24 -85.5t-81.5 -67t-151.5 -26.5q-119 0 -183.5 45zM280 774l57 -75l82 75h103l-135 -166h-134l-76 166h103z" />
    <glyph glyph-name="uni0162" unicode="&#x162;" horiz-adv-x="545" 
d="M178 287l42 250h-164l27 156h528l-27 -156h-164l-46 -250l-47 -287h-65l-21 -39q36 -4 53 -15.5t17 -33.5q0 -41 -33.5 -63.5t-93.5 -22.5q-26 0 -50 3.5t-38 9.5l23 58q24 -7 47 -7q34 0 34 24q0 10 -11.5 15.5t-39.5 9.5l42 61h-67z" />
    <glyph glyph-name="uni0163" unicode="&#x163;" horiz-adv-x="422" 
d="M119 -170.5q-24 3.5 -38 9.5l23 58q24 -7 47 -7q34 0 34 24q0 10 -11.5 15.5t-39.5 9.5l35 51q-60 11 -85.5 46t-25.5 95q0 44 13 114l29 155l-77 -2l24 139h76l28 157h182l-28 -157h145l-24 -139l-147 2l-29 -171q-3 -18 -3 -33q0 -64 56 -64q32 0 63 9l11 -125
q-65 -28 -138 -31l-13 -24q36 -4 53 -15.5t17 -33.5q0 -41 -33.5 -63.5t-93.5 -22.5q-26 0 -50 3.5z" />
    <glyph glyph-name="Tcaron" unicode="&#x164;" horiz-adv-x="545" 
d="M178 287l42 250h-164l27 156h528l-27 -156h-164l-46 -250l-47 -287h-203zM320 881l51 -53l69 53h112l-129 -143h-135l-80 143h112z" />
    <glyph glyph-name="tcaron" unicode="&#x165;" horiz-adv-x="422" 
d="M97 21q-39 36 -39 110q0 44 13 114l29 155l-77 -2l24 139h76l28 157h182l-28 -157h145l-24 -139l-147 2l-29 -171q-3 -18 -3 -33q0 -64 56 -64q32 0 63 9l11 -125q-34 -14 -73 -22.5t-74 -8.5q-94 0 -133 36zM416 840h128l-59 -240h-94z" />
    <glyph glyph-name="Tbar" unicode="&#x166;" horiz-adv-x="545" 
d="M172 254l-84 -1l14 76l83 -1l35 209h-164l27 156h528l-27 -156h-164l-38 -209l85 1l-14 -76l-84 1l-42 -254h-203z" />
    <glyph glyph-name="tbar" unicode="&#x167;" horiz-adv-x="422" 
d="M97 21q-39 36 -39 110q0 44 13 114l3 16l-77 -1l14 76l77 -1l12 65l-77 -2l24 139h76l28 157h182l-28 -157h145l-24 -139l-147 2l-11 -65l108 1l-14 -76l-107 1l-5 -32q-3 -18 -3 -33q0 -64 56 -64q32 0 63 9l11 -125q-34 -14 -73 -22.5t-74 -8.5q-94 0 -133 36z" />
    <glyph glyph-name="Utilde" unicode="&#x168;" horiz-adv-x="695" 
d="M102.5 41.5q-67.5 56.5 -67.5 174.5q0 44 11 104l33 179l33 194h203l-38 -194l-34 -209q-4 -24 -4 -49q0 -45 20.5 -69t66.5 -24q58 0 88.5 35.5t44.5 105.5l39 211l32 193h203l-37 -194l-29 -178q-29 -175 -114.5 -255.5t-246.5 -80.5q-136 0 -203.5 56.5zM304.5 847.5
q32.5 40.5 86.5 40.5q25 0 41.5 -8t34.5 -21q9 -7 18 -12t18 -5q18 0 26 11.5t12 34.5h85q-9 -69 -42 -109.5t-87 -40.5q-24 0 -40.5 7.5t-35.5 21.5q-11 9 -19 13t-17 4q-18 0 -26 -11.5t-11 -34.5h-85q9 69 41.5 109.5z" />
    <glyph glyph-name="utilde" unicode="&#x169;" horiz-adv-x="605" 
d="M563 281l-46 -281h-186l15 71h-2q-24 -38 -73 -61.5t-98 -23.5q-74 0 -111.5 35.5t-37.5 112.5q0 32 8 78l12 69l42 256h186l-48 -256l-8 -46q-2 -9 -2 -26q0 -63 62 -63q36 0 65 28.5t37 75.5l5 31l43 256h185zM239.5 721.5q32.5 40.5 86.5 40.5q25 0 42 -7.5t34 -20.5
q12 -9 19.5 -12.5t16.5 -3.5q18 0 26 11t12 33h85q-9 -70 -42 -110t-88 -40q-24 0 -41 7.5t-34 20.5q-3 2 -14 9t-22 7q-18 0 -26 -11t-12 -33h-84q9 69 41.5 109.5z" />
    <glyph glyph-name="Umacron" unicode="&#x16a;" horiz-adv-x="695" 
d="M102.5 41.5q-67.5 56.5 -67.5 174.5q0 44 11 104l33 179l33 194h203l-38 -194l-34 -209q-4 -24 -4 -49q0 -45 20.5 -69t66.5 -24q58 0 88.5 35.5t44.5 105.5l39 211l32 193h203l-37 -194l-29 -178q-29 -175 -114.5 -255.5t-246.5 -80.5q-136 0 -203.5 56.5zM299 849h304
l-18 -103h-304z" />
    <glyph glyph-name="umacron" unicode="&#x16b;" horiz-adv-x="605" 
d="M563 281l-46 -281h-186l15 71h-2q-24 -38 -73 -61.5t-98 -23.5q-74 0 -111.5 35.5t-37.5 112.5q0 32 8 78l12 69l42 256h186l-48 -256l-8 -46q-2 -9 -2 -26q0 -63 62 -63q36 0 65 28.5t37 75.5l5 31l43 256h185zM238 730h298l-19 -102h-298z" />
    <glyph glyph-name="Ubreve" unicode="&#x16c;" horiz-adv-x="695" 
d="M102.5 41.5q-67.5 56.5 -67.5 174.5q0 44 11 104l33 179l33 194h203l-38 -194l-34 -209q-4 -24 -4 -49q0 -45 20.5 -69t66.5 -24q58 0 88.5 35.5t44.5 105.5l39 211l32 193h203l-37 -194l-29 -178q-29 -175 -114.5 -255.5t-246.5 -80.5q-136 0 -203.5 56.5zM326 766.5
q-36 32.5 -36 87.5q0 16 3 34h103q-1 -6 -1 -16q0 -47 50 -47q32 0 48.5 16.5t24.5 46.5h103q-8 -69 -59.5 -111.5t-131.5 -42.5q-68 0 -104 32.5z" />
    <glyph glyph-name="ubreve" unicode="&#x16d;" horiz-adv-x="605" 
d="M563 281l-46 -281h-186l15 71h-2q-24 -38 -73 -61.5t-98 -23.5q-74 0 -111.5 35.5t-37.5 112.5q0 32 8 78l12 69l42 256h186l-48 -256l-8 -46q-2 -9 -2 -26q0 -63 62 -63q36 0 65 28.5t37 75.5l5 31l43 256h185zM261 637.5q-35 33.5 -35 95.5q0 24 4 45h99q-2 -18 -2 -25
q0 -26 11.5 -38.5t40.5 -12.5q36 0 53 18.5t25 57.5h100q-10 -82 -61 -128t-133 -46q-67 0 -102 33.5z" />
    <glyph glyph-name="Uring" unicode="&#x16e;" horiz-adv-x="695" 
d="M102.5 41.5q-67.5 56.5 -67.5 174.5q0 44 11 104l33 179l33 194h203l-38 -194l-34 -209q-4 -24 -4 -49q0 -45 20.5 -69t66.5 -24q58 0 88.5 35.5t44.5 105.5l39 211l32 193h203l-37 -194l-29 -178q-29 -175 -114.5 -255.5t-246.5 -80.5q-136 0 -203.5 56.5zM372 755.5
q-21 18.5 -21 49.5q0 45 32 74t78 29q36 0 57 -18.5t21 -50.5q0 -44 -31.5 -73t-77.5 -29q-37 0 -58 18.5zM418.5 796q7.5 -7 21.5 -7q18 0 29 11t11 30q0 13 -7.5 19.5t-21.5 6.5q-17 0 -28.5 -11t-11.5 -30q0 -12 7.5 -19z" />
    <glyph glyph-name="uring" unicode="&#x16f;" horiz-adv-x="605" 
d="M563 281l-46 -281h-186l15 71h-2q-24 -38 -73 -61.5t-98 -23.5q-74 0 -111.5 35.5t-37.5 112.5q0 32 8 78l12 69l42 256h186l-48 -256l-8 -46q-2 -9 -2 -26q0 -63 62 -63q36 0 65 28.5t37 75.5l5 31l43 256h185zM298.5 627.5q-24.5 21.5 -24.5 56.5q0 51 36 84.5t89 33.5
q42 0 66 -21.5t24 -57.5q0 -5 -2 -19q-8 -44 -42 -71t-81 -27q-41 0 -65.5 21.5zM346 670q10 -9 28 -9q22 0 37 14.5t15 38.5q0 16 -10 25t-27 9q-22 0 -37.5 -15t-15.5 -38q0 -16 10 -25z" />
    <glyph glyph-name="Uhungarumlaut" unicode="&#x170;" horiz-adv-x="695" 
d="M102.5 41.5q-67.5 56.5 -67.5 174.5q0 44 11 104l33 179l33 194h203l-38 -194l-34 -209q-4 -24 -4 -49q0 -45 20.5 -69t66.5 -24q58 0 88.5 35.5t44.5 105.5l39 211l32 193h203l-37 -194l-29 -178q-29 -175 -114.5 -255.5t-246.5 -80.5q-136 0 -203.5 56.5zM541 882h144
l-134 -143h-96zM361 882h134l-99 -143h-99z" />
    <glyph glyph-name="uhungarumlaut" unicode="&#x171;" horiz-adv-x="605" 
d="M563 281l-46 -281h-186l15 71h-2q-24 -38 -73 -61.5t-98 -23.5q-74 0 -111.5 35.5t-37.5 112.5q0 32 8 78l12 69l42 256h186l-48 -256l-8 -46q-2 -9 -2 -26q0 -63 62 -63q36 0 65 28.5t37 75.5l5 31l43 256h185zM489 783h135l-139 -166h-96zM309 783h125l-104 -166h-99z
" />
    <glyph glyph-name="Uogonek" unicode="&#x172;" horiz-adv-x="695" 
d="M102.5 41.5q-67.5 56.5 -67.5 174.5q0 44 11 104l33 179l33 194h203l-38 -194l-34 -209q-4 -24 -4 -49q0 -45 20.5 -69t66.5 -24q58 0 88.5 35.5t44.5 105.5l39 211l32 193h203l-37 -194l-29 -178q-20 -123 -67.5 -198.5t-127.5 -108.5q-17 -14 -26 -28t-9 -24
q0 -19 31 -19q24 0 46 9l9 -76q-33 -11 -60 -16.5t-57 -5.5q-45 0 -69.5 15.5t-24.5 45.5q0 38 33 71q-12 -1 -39 -1q-136 0 -203.5 56.5z" />
    <glyph glyph-name="uogonek" unicode="&#x173;" horiz-adv-x="605" 
d="M563 281l-46 -281q-35 -19 -53.5 -40.5t-18.5 -35.5q0 -19 31 -19q24 0 46 9l9 -76q-33 -11 -60 -16.5t-57 -5.5q-45 0 -69.5 15.5t-24.5 45.5q0 33 24 61.5t81 61.5h-94l15 71h-2q-24 -38 -73 -61.5t-98 -23.5q-74 0 -111.5 35.5t-37.5 112.5q0 32 8 78l12 69l42 256
h186l-48 -256l-8 -46q-2 -9 -2 -26q0 -63 62 -63q36 0 65 28.5t37 75.5l5 31l43 256h185z" />
    <glyph glyph-name="Wcircumflex" unicode="&#x174;" horiz-adv-x="925" 
d="M89 371l-13 322h198l-10 -280l-1 -203h3l90 216l103 267h153l8 -266l17 -217h3l68 202l90 281h200l-123 -321l-135 -372h-231l-12 231l-10 193h-2l-76 -193l-95 -231h-224zM503 881h134l81 -143h-113l-50 54l-69 -54h-113z" />
    <glyph glyph-name="wcircumflex" unicode="&#x175;" horiz-adv-x="811" 
d="M46 537h183l1 -357h3l141 357h160l22 -357h2l121 357h181l-224 -537h-200l-17 319h-2l-129 -319h-206zM429 783h134l76 -166h-103l-56 75l-83 -75h-103z" />
    <glyph glyph-name="Ycircumflex" unicode="&#x176;" horiz-adv-x="668" 
d="M229 241l-153 452h215l64 -252h3l157 252h226l-315 -452l-40 -241h-203zM375 881h134l81 -143h-113l-50 54l-69 -54h-113z" />
    <glyph glyph-name="ycircumflex" unicode="&#x177;" horiz-adv-x="567" 
d="M24 -168q-33 5 -62 16l55 131q12 -3 29.5 -5t29.5 -2q24 0 40.5 6.5t31.5 21.5l-102 537h186l43 -327h2l148 327h192l-228 -452q-67 -135 -135.5 -196.5t-169.5 -61.5q-27 0 -60 5zM307 783h134l76 -166h-103l-56 75l-83 -75h-103z" />
    <glyph glyph-name="Ydieresis" unicode="&#x178;" horiz-adv-x="668" 
d="M229 241l-153 452h215l64 -252h3l157 252h226l-315 -452l-40 -241h-203zM263.5 752.5q-17.5 14.5 -17.5 40.5q0 42 25 66t68 24q33 0 50.5 -15t17.5 -41q0 -5 -2 -17q-6 -35 -30 -53.5t-62 -18.5q-32 0 -49.5 14.5zM478.5 859q25.5 24 67.5 24q33 0 50.5 -15t17.5 -41
q0 -5 -2 -17q-7 -35 -30.5 -53.5t-61.5 -18.5q-32 0 -49.5 14.5t-17.5 40.5q0 42 25.5 66z" />
    <glyph glyph-name="Zacute" unicode="&#x179;" horiz-adv-x="600" 
d="M-3 157l205 197l166 173h-300l29 166h557l-27 -157l-211 -202l-161 -168h310l-29 -166h-567zM326 739l64 143h175l-133 -143h-106z" />
    <glyph glyph-name="zacute" unicode="&#x17a;" horiz-adv-x="512" 
d="M-2 135l284 255h-236l26 147h461l-24 -136l-283 -254h243l-26 -147h-469zM261 617l71 166h166l-131 -166h-106z" />
    <glyph glyph-name="Zdotaccent" unicode="&#x17b;" horiz-adv-x="600" 
d="M-3 157l205 197l166 173h-300l29 166h557l-27 -157l-211 -202l-161 -168h310l-29 -166h-567zM324.5 749.5q-20.5 15.5 -20.5 44.5q0 47 28.5 73.5t77.5 26.5q38 0 58 -16.5t20 -46.5q0 -6 -2 -18q-7 -38 -34 -58.5t-70 -20.5q-37 0 -57.5 15.5z" />
    <glyph glyph-name="zdotaccent" unicode="&#x17c;" horiz-adv-x="512" 
d="M-2 135l284 255h-236l26 147h461l-24 -136l-283 -254h243l-26 -147h-469zM258.5 625q-20.5 16 -20.5 45q0 6 2 18q7 38 34.5 59t70.5 21q38 0 58 -16t20 -46q0 -6 -2 -18q-7 -38 -34 -58.5t-70 -20.5q-38 0 -58.5 16z" />
    <glyph glyph-name="Zcaron" unicode="&#x17d;" horiz-adv-x="600" 
d="M-3 157l205 197l166 173h-300l29 166h557l-27 -157l-211 -202l-161 -168h310l-29 -166h-567zM347 881l51 -53l69 53h112l-129 -143h-135l-80 143h112z" />
    <glyph glyph-name="zcaron" unicode="&#x17e;" horiz-adv-x="512" 
d="M-2 135l284 255h-236l26 147h461l-24 -136l-283 -254h243l-26 -147h-469zM276 774l57 -75l82 75h103l-135 -166h-134l-76 166h103z" />
    <glyph glyph-name="florin" unicode="&#x192;" horiz-adv-x="557" 
d="M190 313l-87 -2l45 138h93l21 57q39 102 94 151.5t140 49.5q80 0 131 -35l-62 -131q-24 21 -62 21q-27 0 -45.5 -17t-27.5 -47l-17 -49h127l-45 -138l-124 2l-39 -120q-30 -98 -91.5 -152.5t-147.5 -54.5q-36 0 -72.5 9t-62.5 28l61 131q28 -21 68 -21q37 0 59 57z" />
    <glyph glyph-name="AEacute" unicode="&#x1fc;" horiz-adv-x="981" 
d="M200 346l232 347h593l-27 -156h-280l-21 -118h253l-24 -135h-253l-21 -128h288l-28 -156h-489l23 123l-95 1l-101 -1l-77 -123h-219zM405 270l69 1l14 75l31 191h-7l-168 -266zM715 739l64 143h175l-133 -143h-106z" />
    <glyph glyph-name="aeacute" unicode="&#x1fd;" horiz-adv-x="866" 
d="M450.5 12q-47.5 27 -72.5 78q-56 -61 -113.5 -83t-121.5 -22q-71 0 -109.5 35t-38.5 101q0 88 80 138t257 50h27l3 17q3 17 3 29q0 59 -62 59q-44 0 -68 -25t-31 -63l-146 34q26 88 96.5 139.5t171.5 51.5q108 0 152 -58q68 58 159 58q109 0 160.5 -63t51.5 -173
q0 -39 -6 -83h-342v-5q0 -51 23 -76t63 -25q28 0 54 22t37 60l145 -41q-27 -76 -95.5 -129t-166.5 -53q-63 0 -110.5 27zM227 111q24 0 49.5 14t44.5 38.5t22 55.5l1 5h-24q-76 0 -109.5 -16.5t-33.5 -54.5q0 -42 50 -42zM701 335q3 41 -14 65.5t-58 24.5q-74 0 -108 -90
h180zM454 617l71 166h166l-131 -166h-106z" />
    <glyph glyph-name="Oslashacute" unicode="&#x1fe;" horiz-adv-x="738" 
d="M141 45l-59 -60l-56 45l64 66q-57 77 -57 194q0 126 47.5 220.5t135.5 146t204 51.5q127 0 206 -61l60 61l56 -45l-65 -67q56 -78 56 -193q0 -125 -47.5 -220t-135.5 -146.5t-204 -51.5q-127 0 -205 60zM243 253l250 256q-30 36 -87 36q-49 0 -87 -32.5t-58.5 -90
t-20.5 -129.5q0 -22 3 -40zM360 148q49 0 86.5 32.5t58 90t20.5 130.5q0 13 -2 37l-249 -256q31 -34 86 -34zM395 739l64 143h175l-133 -143h-106z" />
    <glyph glyph-name="oslashacute" unicode="&#x1ff;" horiz-adv-x="599" 
d="M107 30l-43 -44l-43 38l44 45q-50 63 -50 159q0 72 31.5 146.5t102 125.5t180.5 51q99 0 162 -45l44 45l43 -38l-44 -45q51 -62 51 -159q0 -72 -32 -146.5t-103 -126t-181 -51.5q-97 0 -162 45zM204 212l165 169q-22 19 -54 19q-54 0 -83 -49.5t-29 -118.5q0 -14 1 -20z
M283 136q55 0 84.5 49.5t29.5 118.5q0 8 -2 22l-165 -170q20 -20 53 -20zM304 617l71 166h166l-131 -166h-106z" />
    <glyph glyph-name="uni0218" unicode="&#x218;" horiz-adv-x="624" 
d="M86 42.5q-77 57.5 -84 165.5l164 41q7 -55 39.5 -81.5t89.5 -26.5q52 0 78 17.5t26 45.5q0 27 -25.5 43.5t-90.5 32.5q-101 24 -156 76.5t-55 141.5q0 49 26.5 96.5t90 80.5t165.5 33q131 0 200 -54t79 -149l-173 -44q-3 41 -30 67t-79 26q-40 0 -62.5 -16t-22.5 -42
t21 -41t73 -28q124 -30 180 -81.5t56 -132.5q0 -60 -29 -111.5t-95.5 -84t-173.5 -32.5q-135 0 -212 57.5zM191 -142q24 0 37 5t12 13q-36 -1 -51.5 11.5t-11.5 29.5q4 21 24 34.5t55 13.5q64 0 64 -44q0 -8 -1 -13q-14 -86 -149 -87l-6 38q10 -1 27 -1z" />
    <glyph glyph-name="uni0219" unicode="&#x219;" horiz-adv-x="526" 
d="M57.5 30q-64.5 45 -73.5 123l159 39q7 -36 26.5 -54.5t69.5 -18.5q70 0 70 41q0 19 -19.5 31t-70.5 19q-83 14 -131 55t-48 111q0 76 61.5 126t186.5 50q102 0 164.5 -40t75.5 -118l-162 -42q-4 36 -23 51t-56 15q-30 0 -44.5 -9.5t-14.5 -24.5q0 -17 20.5 -27.5
t84.5 -24.5q87 -19 126 -59t39 -109q0 -45 -24 -85.5t-81.5 -67t-151.5 -26.5q-119 0 -183.5 45zM141 -142q24 0 37 5t12 13q-36 -1 -51.5 11.5t-11.5 29.5q4 21 24 34.5t55 13.5q64 0 64 -44q0 -8 -1 -13q-14 -86 -149 -87l-6 38q10 -1 27 -1z" />
    <glyph glyph-name="uni021A" unicode="&#x21a;" horiz-adv-x="545" 
d="M178 287l42 250h-164l27 156h528l-27 -156h-164l-46 -250l-47 -287h-203zM153 -142q24 0 37 5t12 13q-36 -1 -51.5 11.5t-11.5 29.5q4 21 24 34.5t55 13.5q64 0 64 -44q0 -8 -1 -13q-14 -86 -149 -87l-6 38q10 -1 27 -1z" />
    <glyph glyph-name="uni021B" unicode="&#x21b;" horiz-adv-x="422" 
d="M97 21q-39 36 -39 110q0 44 13 114l29 155l-77 -2l24 139h76l28 157h182l-28 -157h145l-24 -139l-147 2l-29 -171q-3 -18 -3 -33q0 -64 56 -64q32 0 63 9l11 -125q-34 -14 -73 -22.5t-74 -8.5q-94 0 -133 36zM139 -142q24 0 37 5t12 13q-36 -1 -51.5 11.5t-11.5 29.5
q4 21 24 34.5t55 13.5q64 0 64 -44q0 -8 -1 -13q-14 -86 -149 -87l-6 38q10 -1 27 -1z" />
    <glyph glyph-name="uni0237" unicode="&#x237;" horiz-adv-x="262" 
d="M-138 -152l47 133q19 -8 36 -8q41 0 53 64l17 94l68 406h186l-75 -407l-15 -88q-21 -118 -73 -166.5t-146 -48.5q-43 0 -98 21z" />
    <glyph glyph-name="uni02B0" unicode="&#x2b0;" horiz-adv-x="415" 
d="M87 518l44 262h124l-25 -134h1q18 23 49 36.5t59 13.5q47 0 70 -20.5t23 -64.5q0 -19 -4 -39l-10 -54l-25 -154h-125l29 154l5 27q1 4 1 11q0 33 -36 33q-21 0 -36.5 -14t-19.5 -39l-4 -18l-25 -154h-124z" />
    <glyph glyph-name="uni02B2" unicode="&#x2b2;" horiz-adv-x="199" 
d="M-17 272l30 89q13 -5 19 -5q10 0 17.5 9t10.5 26l9 55l41 241q18 -7 60 -7q44 0 64 7l-44 -242l-10 -53q-12 -73 -45 -102.5t-92 -29.5q-27 0 -60 12zM137 794.5q19 12.5 56 12.5q33 0 48 -9t15 -28q0 -9 -1 -14q-5 -27 -23.5 -39t-55.5 -12q-33 0 -48.5 9t-15.5 29
q0 8 1 13q5 26 24 38.5z" />
    <glyph glyph-name="uni02B7" unicode="&#x2b7;" horiz-adv-x="499" 
d="M72 687h126l-3 -203h2l77 203h106l12 -203h2l62 203h118l-132 -323h-133l-8 181h-1l-71 -181h-137z" />
    <glyph glyph-name="uni02B8" unicode="&#x2b8;" horiz-adv-x="350" 
d="M21 274l36 87q8 -2 18.5 -3t17.5 -1q23 0 39 11l-60 319h129l20 -185h1l79 185h125l-127 -259q-44 -88 -87 -128t-111 -40q-44 0 -80 14z" />
    <glyph glyph-name="circumflex" unicode="&#x2c6;" horiz-adv-x="424" 
d="M236 783h134l76 -166h-103l-56 75l-83 -75h-103z" />
    <glyph glyph-name="caron" unicode="&#x2c7;" horiz-adv-x="424" 
d="M232 774l57 -75l82 75h103l-135 -166h-134l-76 166h103z" />
    <glyph glyph-name="breve" unicode="&#x2d8;" horiz-adv-x="408" 
d="M161 637.5q-35 33.5 -35 95.5q0 24 4 45h99q-2 -18 -2 -25q0 -26 11.5 -38.5t40.5 -12.5q36 0 53 18.5t25 57.5h100q-10 -82 -61 -128t-133 -46q-67 0 -102 33.5z" />
    <glyph glyph-name="dotaccent" unicode="&#x2d9;" horiz-adv-x="272" 
d="M137.5 625q-20.5 16 -20.5 45q0 6 2 18q7 38 34.5 59t70.5 21q38 0 58 -16t20 -46q0 -6 -2 -18q-7 -38 -34 -58.5t-70 -20.5q-38 0 -58.5 16z" />
    <glyph glyph-name="ring" unicode="&#x2da;" horiz-adv-x="291" 
d="M139.5 627.5q-24.5 21.5 -24.5 56.5q0 51 36 84.5t89 33.5q42 0 66 -21.5t24 -57.5q0 -5 -2 -19q-8 -44 -42 -71t-81 -27q-41 0 -65.5 21.5zM187 670q10 -9 28 -9q22 0 37 14.5t15 38.5q0 16 -10 25t-27 9q-22 0 -37.5 -15t-15.5 -38q0 -16 10 -25z" />
    <glyph glyph-name="ogonek" unicode="&#x2db;" horiz-adv-x="299" 
d="M-1.5 -158.5q-24.5 15.5 -24.5 45.5q0 36 28 66.5t95 66.5l74 -10q-35 -19 -53.5 -40.5t-18.5 -35.5q0 -19 31 -19q24 0 46 9l9 -76q-33 -11 -60 -16.5t-57 -5.5q-45 0 -69.5 15.5z" />
    <glyph glyph-name="tilde" unicode="&#x2dc;" horiz-adv-x="405" 
d="M136.5 721.5q32.5 40.5 86.5 40.5q25 0 41.5 -8t34.5 -21q9 -7 18 -12t18 -5q18 0 26 11.5t12 34.5h85q-9 -70 -42 -110t-88 -40q-24 0 -41 7.5t-34 20.5q-9 7 -18 12t-18 5q-18 0 -26 -11t-12 -34h-84q9 69 41.5 109.5z" />
    <glyph glyph-name="hungarumlaut" unicode="&#x2dd;" horiz-adv-x="443" 
d="M359 783h135l-139 -166h-96zM179 783h125l-104 -166h-99z" />
    <glyph glyph-name="uni02E1" unicode="&#x2e1;" horiz-adv-x="206" 
d="M97 576l34 204h124l-38 -204l-35 -212h-124z" />
    <glyph glyph-name="uni02E2" unicode="&#x2e2;" horiz-adv-x="353" 
d="M83 381.5q-34 26.5 -37 74.5l107 26q2 -21 14.5 -32t38.5 -11q37 0 37 25q0 9 -12 14.5t-41 9.5q-49 6 -79.5 27t-30.5 59q0 6 2 18q9 50 54.5 77t111.5 27q132 0 140 -94l-107 -28q-4 39 -43 39q-13 0 -22 -5.5t-9 -15.5t13 -16t51 -12q50 -9 74.5 -27t24.5 -54
q0 -5 -2 -21q-9 -51 -54 -79t-122 -28q-75 0 -109 26.5z" />
    <glyph glyph-name="uni02E3" unicode="&#x2e3;" horiz-adv-x="363" 
d="M136 528l-61 159h140l23 -103h1l61 103h134l-114 -159l62 -164h-139l-25 107h-1l-67 -107h-135z" />
    <glyph glyph-name="gravecomb" unicode="&#x300;" 
d="M107 783h167l11 -166h-106z" />
    <glyph glyph-name="acutecomb" unicode="&#x301;" 
d="M88 617l71 166h166l-131 -166h-106z" />
    <glyph glyph-name="uni0302" unicode="&#x302;" 
d="M236 783h134l76 -166h-103l-56 75l-83 -75h-103z" />
    <glyph glyph-name="tildecomb" unicode="&#x303;" 
d="M136.5 721.5q32.5 40.5 86.5 40.5q25 0 42 -7.5t34 -20.5q12 -9 19.5 -12.5t16.5 -3.5q18 0 26 11t12 33h85q-9 -70 -42 -110t-88 -40q-24 0 -41 7.5t-34 20.5q-3 2 -14 9t-22 7q-18 0 -26 -11t-12 -33h-84q9 69 41.5 109.5z" />
    <glyph glyph-name="uni0304" unicode="&#x304;" 
d="M125 730h298l-19 -102h-298z" />
    <glyph glyph-name="uni0306" unicode="&#x306;" 
d="M161 637.5q-35 33.5 -35 95.5q0 24 4 45h99q-2 -18 -2 -25q0 -26 11.5 -38.5t40.5 -12.5q36 0 53 18.5t25 57.5h100q-10 -82 -61 -128t-133 -46q-67 0 -102 33.5z" />
    <glyph glyph-name="uni0307" unicode="&#x307;" 
d="M137.5 625q-20.5 16 -20.5 45q0 6 2 18q7 38 34.5 59t70.5 21q38 0 58 -16t20 -46q0 -6 -2 -18q-7 -38 -34 -58.5t-70 -20.5q-38 0 -58.5 16z" />
    <glyph glyph-name="uni0308" unicode="&#x308;" 
d="M98.5 624.5q-17.5 14.5 -17.5 41.5q0 4 2 16q6 35 30 54.5t62 19.5q33 0 50.5 -15t17.5 -42q0 -5 -2 -17q-7 -35 -31 -53.5t-61 -18.5q-33 0 -50.5 14.5zM320 736.5q24 19.5 61 19.5q33 0 51 -15t18 -42q0 -5 -2 -17q-7 -35 -31 -53.5t-61 -18.5q-33 0 -50.5 14t-17.5 41
q0 5 2 17q6 35 30 54.5z" />
    <glyph glyph-name="hookabovecomb" unicode="&#x309;" 
d="M187.5 678q11.5 13 11.5 28q0 17 -29 17q-21 0 -36 -5l-6 53q13 5 36.5 10t40.5 5q40 0 61 -14.5t21 -42.5q0 -39 -30 -71t-76 -53l-28 44q23 16 34.5 29z" />
    <glyph glyph-name="uni030A" unicode="&#x30a;" 
d="M139.5 627.5q-24.5 21.5 -24.5 56.5q0 51 36 84.5t89 33.5q42 0 66 -21.5t24 -57.5q0 -5 -2 -19q-8 -44 -42 -71t-81 -27q-41 0 -65.5 21.5zM187 670q10 -9 28 -9q22 0 37 14.5t15 38.5q0 16 -10 25t-27 9q-22 0 -37.5 -15t-15.5 -38q0 -16 10 -25z" />
    <glyph glyph-name="uni030B" unicode="&#x30b;" 
d="M359 783h135l-139 -166h-96zM179 783h125l-104 -166h-99z" />
    <glyph glyph-name="uni030C" unicode="&#x30c;" 
d="M232 774l57 -75l82 75h103l-135 -166h-134l-76 166h103z" />
    <glyph glyph-name="uni030F" unicode="&#x30f;" 
d="M210 617l-79 166h134l41 -166h-96zM445 783l19 -166h-99l-44 166h124z" />
    <glyph glyph-name="uni0311" unicode="&#x311;" 
d="M397 748q36 -32 36 -90q0 -23 -6 -52h-100q2 20 2 26q0 25 -12 37.5t-41 12.5q-35 0 -52 -18.5t-26 -57.5h-99q15 83 65.5 128.5t129.5 45.5q67 0 103 -32z" />
    <glyph glyph-name="uni0313" unicode="&#x313;" 
d="M124 665q0 27 13.5 55t47.5 49t90 21l5 -38q-33 1 -54 -11.5t-22 -28.5l14 1q50 0 50 -36q0 -25 -21 -44t-60 -19q-63 0 -63 51z" />
    <glyph glyph-name="uni031B" unicode="&#x31b;" 
d="M161.5 540q24.5 4 34.5 14.5t14 32.5l8 45h108l-9 -51q-12 -72 -61 -103t-132 -31q-15 0 -47 2l10 88q50 -1 74.5 3z" />
    <glyph glyph-name="uni0326" unicode="&#x326;" 
d="M-24 -142q24 0 37 5t12 13q-36 -1 -51.5 11.5t-11.5 29.5q4 21 24 34.5t55 13.5q64 0 64 -44q0 -8 -1 -13q-14 -86 -149 -87l-6 38q10 -1 27 -1z" />
    <glyph glyph-name="uni0327" unicode="&#x327;" 
d="M2 -170.5q-24 3.5 -38 9.5l23 58q24 -7 47 -7q34 0 34 24q0 10 -11.5 15.5t-39.5 9.5l50 72l69 -1l-27 -49q36 -4 53 -15.5t17 -33.5q0 -41 -33.5 -63.5t-93.5 -22.5q-26 0 -50 3.5z" />
    <glyph glyph-name="uni0328" unicode="&#x328;" 
d="M-1.5 -158.5q-24.5 15.5 -24.5 45.5q0 35 28 65.5t94 67.5l75 -10q-35 -19 -53.5 -40.5t-18.5 -35.5q0 -19 31 -19q24 0 46 9l9 -76q-33 -11 -60 -16.5t-57 -5.5q-45 0 -69.5 15.5z" />
    <glyph glyph-name="uni0335" unicode="&#x335;" 
d="M47 328l180 -2l185 2l-14 -76l-183 2l-182 -2z" />
    <glyph glyph-name="uni0336" unicode="&#x336;" 
d="M58 328l366 -3l373 3l-14 -76l-370 3l-369 -3z" />
    <glyph glyph-name="uni0337" unicode="&#x337;" 
d="M35 232l174 88l175 94l27 -66l-177 -90l-172 -93z" />
    <glyph glyph-name="uni0338" unicode="&#x338;" 
d="M473 551l43 -38l-514 -527l-43 38z" />
    <glyph glyph-name="pi" unicode="&#x3c0;" horiz-adv-x="653" 
d="M377 20q-33 35 -33 100q0 27 6 58l39 222h-124l-70 -400h-170l71 400h-73l24 137h618l-25 -137h-88l-39 -223q-1 -5 -1 -13q0 -32 31 -32q23 0 54 9l11 -125q-33 -14 -67.5 -22.5t-62.5 -8.5q-68 0 -101 35z" />
    <glyph glyph-name="uni0401" unicode="&#x401;" horiz-adv-x="597" 
d="M63 346l58 347h520l-28 -156h-319l-22 -118h293l-23 -135h-294l-21 -128h329l-28 -156h-529zM252.5 780.5q-17.5 14.5 -17.5 41.5q0 4 2 16q6 35 30 54.5t62 19.5q33 0 50.5 -15t17.5 -42q0 -5 -2 -17q-7 -35 -31 -53.5t-61 -18.5q-33 0 -50.5 14.5zM474 892.5
q24 19.5 61 19.5q33 0 51 -15t18 -42q0 -5 -2 -17q-7 -35 -31 -53.5t-61 -18.5q-33 0 -50.5 14t-17.5 41q0 5 2 17q6 35 30 54.5z" />
    <glyph glyph-name="uni0410" unicode="&#x410;" horiz-adv-x="702" 
d="M130 346l170 347h250l49 -347l54 -346h-209l-10 122l-108 2l-104 -1l-53 -123h-215zM352 270l70 1l-4 49l-22 185h-4l-84 -185l-21 -49z" />
    <glyph glyph-name="uni0411" unicode="&#x411;" horiz-adv-x="641" 
d="M63 347l58 346h510l-26 -147h-314l-21 -111h115q114 0 176 -45t62 -136q0 -57 -27.5 -114.5t-98 -98.5t-190.5 -41h-308zM302 133q62 0 91 29.5t29 68.5q0 34 -22.5 51.5t-63.5 17.5h-90l-28 -167h84z" />
    <glyph glyph-name="uni0412" unicode="&#x412;" horiz-adv-x="659" 
d="M63 347l58 346h321q104 0 166 -37.5t62 -119.5q0 -65 -35 -113.5t-117 -62.5l-1 -3q119 -21 119 -136q0 -94 -73 -157.5t-239 -63.5h-325zM318 133q58 0 90.5 23.5t32.5 66.5q0 36 -22 53t-68 17h-107l-26 -160h100zM365 419q57 0 83.5 26t26.5 63q0 59 -82 59h-99
l-27 -148h98z" />
    <glyph glyph-name="uni0413" unicode="&#x413;" horiz-adv-x="536" 
d="M54 298l67 395h481l-29 -166h-280l-42 -229l-50 -298h-202z" />
    <glyph glyph-name="uni0414" unicode="&#x414;" horiz-adv-x="780" 
d="M-10 166h41q22 0 38.5 14.5t31.5 55.5q21 59 45 163t58 294h562l-65 -347l-30 -180h76l-52 -297h-193l23 131h-371l-23 -131h-193zM479 166l34 180l30 182l-87 3l-87 -3q-39 -188 -71 -280q-21 -61 -51 -80v-2h232z" />
    <glyph glyph-name="uni0415" unicode="&#x415;" horiz-adv-x="597" 
d="M63 346l58 347h520l-28 -156h-319l-22 -118h293l-23 -135h-294l-21 -128h329l-28 -156h-529z" />
    <glyph glyph-name="uni0416" unicode="&#x416;" horiz-adv-x="992" 
d="M618 272h-23l-45 -272h-203l51 272h-20l-206 -272h-218l282 361l-144 332h217l93 -258h25l42 258h203l-48 -258h19l184 258h223l-261 -332l154 -361h-215z" />
    <glyph glyph-name="uni0417" unicode="&#x417;" horiz-adv-x="612" 
d="M133.5 607q36.5 44 97 72.5t143.5 28.5q119 0 180 -42t61 -124q0 -57 -39 -110t-113 -73q58 -13 85 -49t27 -94q0 -55 -31 -107.5t-100 -88t-177 -35.5q-131 0 -194.5 55.5t-69.5 154.5l175 42q10 -103 104 -103q51 0 77 26.5t26 64.5t-29 53t-80 15h-83l21 120h83
q62 0 93 26t31 65q0 28 -17.5 42.5t-46.5 14.5q-83 0 -115 -93l-160 46q15 49 51.5 93z" />
    <glyph glyph-name="uni0418" unicode="&#x418;" horiz-adv-x="704" 
d="M424 0l46 257l29 163h-2l-286 -420h-212l64 347l58 346h186l-45 -257l-29 -163h2l285 420h213l-65 -347l-57 -346h-187z" />
    <glyph glyph-name="uni0419" unicode="&#x419;" horiz-adv-x="704" 
d="M424 0l46 257l29 163h-2l-286 -420h-212l64 347l58 346h186l-45 -257l-29 -163h2l285 420h213l-65 -347l-57 -346h-187zM328.5 761q-35.5 30 -35.5 87q0 17 3 36h100q-2 -16 -2 -21q0 -23 12.5 -35t41.5 -12q35 0 52 16.5t24 51.5h100q-9 -73 -59 -113t-132 -40
q-69 0 -104.5 30z" />
    <glyph glyph-name="uni041A" unicode="&#x41a;" horiz-adv-x="683" 
d="M283 272h-36l-46 -272h-202l64 346l58 347h202l-48 -258h33l203 258h229l-287 -333l181 -360h-213z" />
    <glyph glyph-name="uni041B" unicode="&#x41b;" horiz-adv-x="762" 
d="M-39 1l59 151q21 -3 33 -3q19 0 32.5 11.5t27.5 50.5q47 132 109 482h569l-65 -347l-57 -346h-203l65 346l30 182l-87 3l-80 -3q-48 -231 -91 -350q-41 -115 -100.5 -154t-128.5 -39q-61 0 -113 16z" />
    <glyph glyph-name="uni041C" unicode="&#x41c;" horiz-adv-x="871" 
d="M60 329l61 364h251l31 -256l25 -186h4l91 186l119 256h257l-60 -331l-61 -362h-176l51 271l35 201h-2l-103 -209l-124 -263h-141l-32 262l-30 210h-2l-35 -201l-44 -271h-176z" />
    <glyph glyph-name="uni041D" unicode="&#x41d;" horiz-adv-x="715" 
d="M469 267l-112 2l-112 -2l-44 -267h-202l64 346l58 347h202l-48 -260l111 -2l112 2l43 260h203l-65 -347l-57 -346h-203z" />
    <glyph glyph-name="uni041E" unicode="&#x41e;" horiz-adv-x="738" 
d="M177.5 22q-70.5 37 -107.5 105.5t-37 162.5q0 126 47.5 220.5t135.5 146t204 51.5q97 0 167.5 -36.5t108 -105.5t37.5 -163q0 -125 -47.5 -220t-135.5 -146.5t-204 -51.5q-98 0 -168.5 37zM271 186q31 -38 89 -38q49 0 86.5 32.5t58 90t20.5 130.5q0 69 -30.5 106.5
t-88.5 37.5q-49 0 -87 -32.5t-58.5 -90t-20.5 -129.5q0 -69 31 -107z" />
    <glyph glyph-name="uni041F" unicode="&#x41f;" horiz-adv-x="715" 
d="M483 346l30 181l-110 4l-111 -3l-33 -182l-58 -346h-202l64 346l58 347h623l-65 -347l-57 -346h-203z" />
    <glyph glyph-name="uni0420" unicode="&#x420;" horiz-adv-x="657" 
d="M63 347l58 346h291q128 0 196 -52t68 -157q0 -62 -31 -123t-108.5 -104t-206.5 -43h-93l-36 -214h-202zM360 366q64 0 93 30t29 69q0 35 -22 52t-68 17h-99l-30 -168h97z" />
    <glyph glyph-name="uni0421" unicode="&#x421;" horiz-adv-x="681" 
d="M178 22q-70 37 -107.5 106t-37.5 163q0 125 46.5 219.5t131.5 146t198 51.5q130 0 207.5 -67t87.5 -183l-186 -48q-4 72 -33 103.5t-82 31.5q-49 0 -86 -31t-57 -88t-20 -133q0 -69 30.5 -107t84.5 -38q100 0 140 136l170 -49q-24 -116 -111 -183t-211 -67q-95 0 -165 37
z" />
    <glyph glyph-name="uni0422" unicode="&#x422;" horiz-adv-x="545" 
d="M178 287l42 250h-164l27 156h528l-27 -156h-164l-46 -250l-47 -287h-203z" />
    <glyph glyph-name="uni0423" unicode="&#x423;" horiz-adv-x="630" 
d="M-4 -6l44 174q36 -6 53 -6q25 0 47.5 7t46.5 29l-111 495h206l46 -278h2l156 278h218l-314 -504q-54 -87 -103 -131.5t-95 -58.5t-107 -14q-50 0 -89 9z" />
    <glyph glyph-name="uni0424" unicode="&#x424;" horiz-adv-x="868" 
d="M302 62q-130 3 -201 66.5t-71 179.5q0 66 36 139t119.5 127t215.5 57l13 75h196l-14 -75q129 -4 199 -67t70 -179q0 -65 -36 -138t-119 -127.5t-215 -57.5l-12 -75h-195zM330 218l23 129l22 128q-56 -3 -89.5 -29t-47 -61t-13.5 -68q0 -93 105 -99zM610.5 247.5
q33.5 26.5 47 61.5t13.5 68q0 92 -105 98l-25 -128l-21 -129q57 3 90.5 29.5z" />
    <glyph glyph-name="uni0425" unicode="&#x425;" horiz-adv-x="699" 
d="M221 357l-134 336h217l78 -203h2l148 203h224l-247 -335l141 -358h-218l-86 226h-2l-166 -226h-224z" />
    <glyph glyph-name="uni0426" unicode="&#x426;" horiz-adv-x="749" 
d="M63 347l58 346h202l-64 -346l-30 -182l109 -3l101 4l34 181l58 346h203l-65 -346l-30 -181h77l-52 -297h-193l23 131h-495z" />
    <glyph glyph-name="uni0427" unicode="&#x427;" horiz-adv-x="662" 
d="M58 416q0 35 7 73l36 204h199l-35 -197q-3 -16 -3 -30q0 -36 21 -51.5t64 -15.5q44 0 93 11l48 283h202l-66 -346l-56 -347h-202l46 255q-78 -19 -150 -19q-204 0 -204 180z" />
    <glyph glyph-name="uni0428" unicode="&#x428;" horiz-adv-x="1010" 
d="M63 347l58 346h199l-65 -346l-30 -182l83 -3l82 3l34 182l58 346h195l-64 -346l-30 -182l79 -3l86 3l33 182l58 346h199l-64 -346l-58 -347h-917z" />
    <glyph glyph-name="uni0429" unicode="&#x429;" horiz-adv-x="1043" 
d="M63 347l58 346h199l-65 -346l-30 -182l81 -3l79 3l34 182l58 346h195l-64 -346l-30 -182l79 -3l81 3l33 182l58 346h199l-64 -346l-30 -181h76l-52 -297h-193l23 131h-789z" />
    <glyph glyph-name="uni042A" unicode="&#x42a;" horiz-adv-x="736" 
d="M174 343l30 176h-152l31 174h345l-40 -214h77q126 0 193.5 -51.5t67.5 -145.5q0 -65 -32 -129.5t-106 -108.5t-191 -44h-287zM397 147q68 0 98 33t30 77q0 79 -96 79h-66l-31 -189h65z" />
    <glyph glyph-name="uni042B" unicode="&#x42b;" horiz-adv-x="935" 
d="M67 370l54 323h196l-40 -214h74q128 0 194.5 -53t66.5 -156q0 -61 -31.5 -123t-105.5 -104.5t-193 -42.5h-283zM282 147q69 0 99.5 33t30.5 77q0 79 -97 79h-63l-32 -189h62zM704 346l57 347h203l-65 -347l-57 -346h-203z" />
    <glyph glyph-name="uni042C" unicode="&#x42c;" horiz-adv-x="638" 
d="M67 370l54 323h196l-40 -214h88q128 0 195 -53.5t67 -155.5q0 -61 -31.5 -123t-105.5 -104.5t-193 -42.5h-298zM297 147q68 0 98.5 33t30.5 77q0 79 -97 79h-77l-32 -189h77z" />
    <glyph glyph-name="uni042D" unicode="&#x42d;" horiz-adv-x="681" 
d="M91.5 52q-77.5 67 -87.5 183l186 48q4 -72 34 -103.5t88 -31.5q57 0 97 32t60 93l-98 2l-114 -2l28 155l112 -2l92 2q-4 54 -33 85.5t-83 31.5q-52 0 -95.5 -32t-64.5 -104l-170 49q29 117 116 183.5t207 66.5q95 0 165 -37t107.5 -106t37.5 -163q0 -125 -47 -219.5
t-132 -146t-198 -51.5q-130 0 -207.5 67z" />
    <glyph glyph-name="uni042E" unicode="&#x42e;" horiz-adv-x="1010" 
d="M417 60q-78 75 -84 207h-87l-45 -267h-202l64 346l58 347h202l-48 -260h74q34 129 127 202t226 73q93 0 161 -36.5t105 -105.5t37 -163q0 -125 -47 -219.5t-132.5 -146.5t-196.5 -52q-134 0 -212 75zM562 186.5q29 -38.5 80 -38.5q45 0 80.5 31.5t55.5 89t20 132.5
q0 68 -29.5 106t-80.5 38q-45 0 -80 -31.5t-55 -88.5t-20 -132q0 -68 29 -106.5z" />
    <glyph glyph-name="uni042F" unicode="&#x42f;" horiz-adv-x="676" 
d="M380 0l40 218h-71q-43 0 -76 -25t-49 -73q-25 -80 -47 -120h-210q16 32 36.5 90t23.5 67q17 46 45 74.5t71 45.5q-76 42 -76 159q0 62 32 120.5t104 97.5t186 39h315l-64 -346l-58 -347h-202zM352 356h93l31 178h-99q-67 0 -93.5 -32.5t-26.5 -77.5q0 -68 95 -68z" />
    <glyph glyph-name="uni0430" unicode="&#x430;" horiz-adv-x="611" 
d="M54 35.5q-45 50.5 -45 146.5q0 76 26 161t85 146.5t153 61.5q48 0 88.5 -23t56.5 -59h2l11 68h186l-50 -269l-44 -268h-187l12 68h-2q-28 -37 -73.5 -60t-93.5 -23q-80 0 -125 50.5zM272 138q40 0 66.5 29t38 68.5t11.5 70.5q0 92 -72 92q-40 0 -66 -27t-37.5 -65.5
t-11.5 -75.5q0 -92 71 -92z" />
    <glyph glyph-name="uni0431" unicode="&#x431;" horiz-adv-x="602" 
d="M85.5 45q-64.5 60 -64.5 180q0 116 41 216t132.5 167.5t235.5 80.5l44 4q14 1 97 10l44 4l-23 -135q-33 -5 -86 -10l-52 -6l-35 -3q-67 -8 -105 -35t-61 -90q59 51 144 51q86 0 137.5 -47t51.5 -136q0 -63 -30 -135t-99.5 -124t-181.5 -52q-125 0 -189.5 60zM227.5 146
q19.5 -21 58.5 -21t64 23.5t36.5 57t11.5 66.5q0 40 -18.5 60.5t-54.5 20.5q-42 0 -68 -22.5t-37.5 -55t-11.5 -62.5q0 -46 19.5 -67z" />
    <glyph glyph-name="uni0432" unicode="&#x432;" horiz-adv-x="574" 
d="M44 269l44 268h287q187 0 187 -119q0 -113 -123 -139l-1 -3q51 -10 75 -36t24 -73q0 -68 -56 -117.5t-193 -49.5h-294zM274 117q44 0 65.5 16t21.5 45q0 26 -15.5 36.5t-49.5 10.5h-87l-19 -108h84zM310 326q41 0 59.5 18t18.5 46q0 37 -56 37h-88l-18 -101h84z" />
    <glyph glyph-name="uni0433" unicode="&#x433;" horiz-adv-x="417" 
d="M42 256l46 281h377l-25 -140h-193l-31 -168l-37 -229h-185z" />
    <glyph glyph-name="uni0434" unicode="&#x434;" horiz-adv-x="672" 
d="M-5 141h39q27 0 42 25.5t28 80.5q24 95 59 290h471l-42 -221l-31 -175h76l-48 -272h-173l23 131h-295l-23 -131h-174zM383 141l23 127l21 125l-54 2l-68 -2q-18 -96 -40 -171q-17 -52 -44 -79l-1 -2h163z" />
    <glyph glyph-name="uni0435" unicode="&#x435;" horiz-adv-x="576" 
d="M79.5 49q-65.5 64 -65.5 179q0 65 30 140t100 129.5t183 54.5q120 0 176 -63.5t56 -175.5q0 -39 -6 -81h-353v-5q0 -51 23.5 -76t64.5 -25q34 0 60 23.5t38 61.5l149 -42q-29 -76 -97.5 -130t-174.5 -54q-118 0 -183.5 64zM395 335q5 83 -73 83q-38 0 -64 -22.5
t-40 -60.5h177z" />
    <glyph glyph-name="uni0436" unicode="&#x436;" horiz-adv-x="855" 
d="M514 195h-11l-33 -195h-179l36 195h-8l-163 -195h-205l244 276l-129 261h196l80 -196h11l33 196h178l-36 -196h9l140 196h208l-223 -261l148 -276h-196z" />
    <glyph glyph-name="uni0437" unicode="&#x437;" horiz-adv-x="509" 
d="M54 26q-59 41 -78 120l162 40q6 -32 25.5 -48.5t58.5 -16.5q33 0 52.5 15t19.5 39q0 22 -20.5 33.5t-54.5 11.5h-72l18 105h72q43 0 64 17.5t21 40.5q0 17 -12.5 26.5t-35.5 9.5q-57 0 -81 -60l-153 45q20 60 85.5 103.5t171.5 43.5q99 0 150 -35t51 -100
q0 -48 -29.5 -88t-87.5 -54q45 -14 67 -43.5t22 -71.5q0 -46 -25 -85.5t-81.5 -64t-144.5 -24.5q-106 0 -165 41z" />
    <glyph glyph-name="uni0438" unicode="&#x438;" horiz-adv-x="609" 
d="M44 269l44 268h174l-31 -178l-18 -103h2l92 117l126 164h182l-49 -268l-45 -269h-174l32 178l18 103h-2l-96 -120l-123 -161h-182z" />
    <glyph glyph-name="uni0439" unicode="&#x439;" horiz-adv-x="609" 
d="M44 269l44 268h174l-31 -178l-18 -103h2l92 117l126 164h182l-49 -268l-45 -269h-174l32 178l18 103h-2l-96 -120l-123 -161h-182zM262 637.5q-35 33.5 -35 95.5q0 24 4 45h99q-2 -18 -2 -25q0 -26 11.5 -38.5t40.5 -12.5q36 0 53 18.5t25 57.5h100q-10 -82 -61 -128
t-133 -46q-67 0 -102 33.5z" />
    <glyph glyph-name="uni043A" unicode="&#x43a;" horiz-adv-x="591" 
d="M45 273l43 264h186l-35 -191h16l155 191h210l-240 -264l166 -273h-196l-111 195h-27l-33 -195h-185z" />
    <glyph glyph-name="uni043B" unicode="&#x43b;" horiz-adv-x="640" 
d="M5.5 -11.5q-27.5 3.5 -46.5 10.5l46 135q19 -4 34 -4q18 0 29 13t18 45q29 114 72 328l4 21h484l-51 -269l-44 -268h-186l45 233l27 161l-65 1l-68 -1l-47 -212q-26 -107 -72.5 -152t-128.5 -45q-23 0 -50.5 3.5z" />
    <glyph glyph-name="uni043C" unicode="&#x43c;" horiz-adv-x="755" 
d="M41 251l47 286h227l29 -169l23 -132h3l69 132l87 169h235l-46 -251l-48 -286h-166l37 194l26 145h-3l-77 -154l-94 -185h-121l-28 184l-23 155h-2l-25 -145l-33 -194h-164z" />
    <glyph glyph-name="uni043D" unicode="&#x43d;" horiz-adv-x="619" 
d="M383 200l-86 1l-84 -1l-34 -200h-185l50 268l44 269h186l-36 -194l84 -2l86 2l32 194h186l-52 -269l-43 -268h-186z" />
    <glyph glyph-name="uni043E" unicode="&#x43e;" horiz-adv-x="599" 
d="M83.5 49.5q-68.5 64.5 -68.5 178.5q0 72 31.5 146.5t102 125.5t180.5 51q118 0 187 -64t69 -178q0 -72 -32 -146.5t-103 -126t-181 -51.5q-117 0 -185.5 64.5zM224.5 161q21.5 -25 58.5 -25q55 0 84.5 49.5t29.5 118.5q0 46 -22.5 71t-59.5 25q-54 0 -83 -49.5
t-29 -118.5q0 -46 21.5 -71z" />
    <glyph glyph-name="uni043F" unicode="&#x43f;" horiz-adv-x="618" 
d="M394 268l21 126l-84 2l-84 -2l-23 -126l-45 -268h-185l50 268l44 269h536l-51 -269l-44 -268h-186z" />
    <glyph glyph-name="uni0440" unicode="&#x440;" horiz-adv-x="611" 
d="M33 209l55 328h187l-12 -68h2q28 36 74 59t93 23q81 0 125.5 -50.5t44.5 -146.5q0 -75 -25.5 -160.5t-84.5 -147t-153 -61.5q-49 0 -89.5 23.5t-56.5 59.5h-2l-39 -228h-187zM241 161q19 -23 52 -23q41 0 67 27.5t38 66.5t12 76q0 90 -71 90q-41 0 -67.5 -28t-38 -66
t-11.5 -71q0 -49 19 -72z" />
    <glyph glyph-name="uni0441" unicode="&#x441;" horiz-adv-x="561" 
d="M79.5 49q-65.5 64 -65.5 180q0 63 30.5 138t100.5 129.5t180 54.5q112 0 177.5 -53t72.5 -140l-175 -44q-3 91 -83 91q-39 0 -65 -27.5t-38 -68t-12 -79.5q0 -47 23 -72.5t58 -25.5q36 0 62 23.5t39 69.5l163 -46q-29 -92 -101 -143t-183 -51q-118 0 -183.5 64z" />
    <glyph glyph-name="uni0442" unicode="&#x442;" horiz-adv-x="462" 
d="M135 233l29 166l-141 -1l24 139h462l-24 -139l-138 1l-30 -166l-40 -233h-185z" />
    <glyph glyph-name="uni0443" unicode="&#x443;" horiz-adv-x="567" 
d="M24 -168q-33 5 -62 16l55 131q12 -3 29.5 -5t29.5 -2q24 0 40.5 6.5t31.5 21.5l-102 537h186l43 -327h2l148 327h192l-228 -452q-67 -135 -135.5 -196.5t-169.5 -61.5q-27 0 -60 5z" />
    <glyph glyph-name="uni0444" unicode="&#x444;" horiz-adv-x="804" 
d="M269 -7q-75 4 -132.5 34t-89.5 83.5t-32 125.5q0 67 33.5 137t112.5 120t205 52l25 148h172l-27 -149q75 -4 132 -34t89 -83.5t32 -124.5q0 -68 -33.5 -138t-112.5 -120t-205 -52l-26 -152h-171zM224.5 167q27.5 -30 69.5 -36l26 143l23 134q-71 -4 -108.5 -52.5
t-37.5 -113.5q0 -45 27.5 -75zM570 182q37 49 37 113q0 46 -27 75.5t-69 35.5l-24 -132l-25 -145q71 4 108 53z" />
    <glyph glyph-name="uni0445" unicode="&#x445;" horiz-adv-x="584" 
d="M159 273l-106 264h202l47 -176h2l113 176h208l-196 -264l109 -273h-202l-53 184h-2l-123 -184h-207z" />
    <glyph glyph-name="uni0446" unicode="&#x446;" horiz-adv-x="653" 
d="M44 269l44 268h186l-44 -233l-27 -161l81 -2l77 2l29 161l38 233h186l-45 -233l-28 -163h77l-48 -272h-174l23 131h-425z" />
    <glyph glyph-name="uni0447" unicode="&#x447;" horiz-adv-x="572" 
d="M34 295q0 28 6 62l31 180h182l-26 -148q-3 -16 -3 -29q0 -27 15 -39.5t49 -12.5q32 0 67 7l37 222h186l-49 -267l-45 -270h-186l32 170q-88 -22 -140 -22q-156 0 -156 147z" />
    <glyph glyph-name="uni0448" unicode="&#x448;" horiz-adv-x="894" 
d="M44 269l44 268h186l-46 -240l-25 -154l69 -2l70 2l27 154l40 240h172l-46 -240l-26 -154l69 -2l70 2l28 154l39 240h186l-51 -268l-44 -269h-812z" />
    <glyph glyph-name="uni0449" unicode="&#x449;" horiz-adv-x="930" 
d="M697 0h-703l50 269l44 268h186l-46 -240l-25 -154l69 -2l65 2l27 154l40 240h172l-46 -240l-26 -154l69 -2l65 2l28 154l39 240h186l-51 -268l-22 -128h77l-48 -272h-173z" />
    <glyph glyph-name="uni044A" unicode="&#x44a;" horiz-adv-x="627" 
d="M129 269l21 128h-127l24 140h302l-32 -174h82q95 0 149.5 -39t54.5 -120q0 -50 -26 -96.5t-85.5 -77t-152.5 -30.5h-261zM326 117q48 0 72 21t24 56q0 27 -18.5 40.5t-51.5 13.5h-54l-23 -131h51z" />
    <glyph glyph-name="uni044B" unicode="&#x44b;" horiz-adv-x="833" 
d="M44 269l44 268h176l-31 -174h83q94 0 148.5 -39t54.5 -120q0 -50 -26 -96.5t-85 -77t-152 -30.5h-262zM242 117q48 0 72 21t24 56q0 26 -19 40t-51 14h-55l-23 -131h52zM609 270l45 267h186l-50 -267l-45 -270h-186z" />
    <glyph glyph-name="uni044C" unicode="&#x44c;" horiz-adv-x="554" 
d="M44 269l44 268h176l-31 -174h94q94 0 148.5 -39t54.5 -120q0 -50 -26 -96.5t-85 -77t-152 -30.5h-273zM253 117q48 0 72 20.5t24 55.5q0 27 -19 41t-51 14h-66l-23 -131h63z" />
    <glyph glyph-name="uni044D" unicode="&#x44d;" horiz-adv-x="554" 
d="M54 35q-62 50 -73 138l165 45q4 -100 93 -100q44 0 73 26.5t43 69.5l-56 1l-88 -1l20 115l88 -2l51 1q-3 47 -28.5 69t-65.5 22t-69.5 -24.5t-43.5 -73.5l-148 45q27 85 102 135t179 50q115 0 179 -62.5t64 -175.5q0 -74 -30.5 -149.5t-100.5 -127t-181 -51.5t-173 50z
" />
    <glyph glyph-name="uni044E" unicode="&#x44e;" horiz-adv-x="852" 
d="M367.5 41.5q-64.5 56.5 -71.5 158.5l-39 1l-45 -1l-33 -200h-185l50 270l44 267h186l-36 -195l43 -1l33 1q29 90 97 149.5t175 59.5q116 0 184 -63t68 -176q0 -73 -31.5 -148.5t-100 -127t-174.5 -51.5q-100 0 -164.5 56.5zM489 160.5q20 -24.5 55 -24.5t59 27t35.5 66.5
t11.5 77.5q0 45 -19.5 69.5t-54.5 24.5q-36 0 -60 -27t-35.5 -66.5t-11.5 -77.5q0 -45 20 -69.5z" />
    <glyph glyph-name="uni044F" unicode="&#x44f;" horiz-adv-x="584" 
d="M-2 70q16 42 23 58q14 33 35 51.5t56 29.5q-31 18 -47 49t-16 71q0 45 23.5 92t86 81.5t171.5 34.5h260l-50 -268l-44 -269h-186l28 153h-49q-69 0 -88 -61q-9 -25 -20.5 -51.5t-18.5 -40.5h-193q9 16 29 70zM244 286q17 -12 53 -12h63l21 121h-67q-45 0 -66 -20.5
t-21 -45.5q0 -31 17 -43z" />
    <glyph glyph-name="uni0451" unicode="&#x451;" horiz-adv-x="576" 
d="M79.5 49q-65.5 64 -65.5 179q0 65 30 140t100 129.5t183 54.5q120 0 176 -63.5t56 -175.5q0 -39 -6 -81h-353v-5q0 -51 23.5 -76t64.5 -25q34 0 60 23.5t38 61.5l149 -42q-29 -76 -97.5 -130t-174.5 -54q-118 0 -183.5 64zM395 335q5 83 -73 83q-38 0 -64 -22.5
t-40 -60.5h177zM199.5 624.5q-17.5 14.5 -17.5 41.5q0 4 2 16q6 35 30 54.5t62 19.5q33 0 50.5 -15t17.5 -42q0 -5 -2 -17q-7 -35 -31 -53.5t-61 -18.5q-33 0 -50.5 14.5zM421 736.5q24 19.5 61 19.5q33 0 51 -15t18 -42q0 -5 -2 -17q-7 -35 -31 -53.5t-61 -18.5
q-33 0 -50.5 14t-17.5 41q0 5 2 17q6 35 30 54.5z" />
    <glyph glyph-name="Wgrave" unicode="&#x1e80;" horiz-adv-x="925" 
d="M89 371l-13 322h198l-10 -280l-1 -203h3l90 216l103 267h153l8 -266l17 -217h3l68 202l90 281h200l-123 -321l-135 -372h-231l-12 231l-10 193h-2l-76 -193l-95 -231h-224zM418 882h176l13 -143h-106z" />
    <glyph glyph-name="wgrave" unicode="&#x1e81;" horiz-adv-x="811" 
d="M46 537h183l1 -357h3l141 357h160l22 -357h2l121 357h181l-224 -537h-200l-17 319h-2l-129 -319h-206zM349 783h167l11 -166h-106z" />
    <glyph glyph-name="Wacute" unicode="&#x1e82;" horiz-adv-x="925" 
d="M89 371l-13 322h198l-10 -280l-1 -203h3l90 216l103 267h153l8 -266l17 -217h3l68 202l90 281h200l-123 -321l-135 -372h-231l-12 231l-10 193h-2l-76 -193l-95 -231h-224zM489 739l64 143h175l-133 -143h-106z" />
    <glyph glyph-name="wacute" unicode="&#x1e83;" horiz-adv-x="811" 
d="M46 537h183l1 -357h3l141 357h160l22 -357h2l121 357h181l-224 -537h-200l-17 319h-2l-129 -319h-206zM410 617l71 166h166l-131 -166h-106z" />
    <glyph glyph-name="Wdieresis" unicode="&#x1e84;" horiz-adv-x="925" 
d="M89 371l-13 322h198l-10 -280l-1 -203h3l90 216l103 267h153l8 -266l17 -217h3l68 202l90 281h200l-123 -321l-135 -372h-231l-12 231l-10 193h-2l-76 -193l-95 -231h-224zM392.5 752.5q-17.5 14.5 -17.5 40.5q0 42 25 66t68 24q33 0 50.5 -15t17.5 -41q0 -5 -2 -17
q-6 -35 -30 -53.5t-62 -18.5q-32 0 -49.5 14.5zM607.5 859q25.5 24 67.5 24q33 0 50.5 -15t17.5 -41q0 -5 -2 -17q-7 -35 -30.5 -53.5t-61.5 -18.5q-32 0 -49.5 14.5t-17.5 40.5q0 42 25.5 66z" />
    <glyph glyph-name="wdieresis" unicode="&#x1e85;" horiz-adv-x="811" 
d="M46 537h183l1 -357h3l141 357h160l22 -357h2l121 357h181l-224 -537h-200l-17 319h-2l-129 -319h-206zM312.5 624.5q-17.5 14.5 -17.5 41.5q0 4 2 16q6 35 30 54.5t62 19.5q33 0 50.5 -15t17.5 -42q0 -5 -2 -17q-7 -35 -31 -53.5t-61 -18.5q-33 0 -50.5 14.5zM534 736.5
q24 19.5 61 19.5q33 0 51 -15t18 -42q0 -5 -2 -17q-7 -35 -31 -53.5t-61 -18.5q-33 0 -50.5 14t-17.5 41q0 5 2 17q6 35 30 54.5z" />
    <glyph glyph-name="Ygrave" unicode="&#x1ef2;" horiz-adv-x="668" 
d="M229 241l-153 452h215l64 -252h3l157 252h226l-315 -452l-40 -241h-203zM289 882h176l13 -143h-106z" />
    <glyph glyph-name="ygrave" unicode="&#x1ef3;" horiz-adv-x="567" 
d="M24 -168q-33 5 -62 16l55 131q12 -3 29.5 -5t29.5 -2q24 0 40.5 6.5t31.5 21.5l-102 537h186l43 -327h2l148 327h192l-228 -452q-67 -135 -135.5 -196.5t-169.5 -61.5q-27 0 -60 5zM228 783h167l11 -166h-106z" />
    <glyph glyph-name="uni2002" unicode="&#x2002;" horiz-adv-x="500" 
 />
    <glyph glyph-name="uni2003" unicode="&#x2003;" horiz-adv-x="1000" 
 />
    <glyph glyph-name="uni2004" unicode="&#x2004;" horiz-adv-x="333" 
 />
    <glyph glyph-name="uni2005" unicode="&#x2005;" horiz-adv-x="250" 
 />
    <glyph glyph-name="uni2006" unicode="&#x2006;" horiz-adv-x="167" 
 />
    <glyph glyph-name="uni2007" unicode="&#x2007;" horiz-adv-x="600" 
 />
    <glyph glyph-name="uni2008" unicode="&#x2008;" horiz-adv-x="294" 
 />
    <glyph glyph-name="uni200B" unicode="&#x200b;" 
 />
    <glyph glyph-name="uni200C" unicode="&#x200c;" 
 />
    <glyph glyph-name="uni2010" unicode="&#x2010;" horiz-adv-x="394" 
d="M53 365h321l-25 -141h-321z" />
    <glyph glyph-name="figuredash" unicode="&#x2012;" horiz-adv-x="574" 
d="M53 365h501l-25 -141h-501z" />
    <glyph glyph-name="endash" unicode="&#x2013;" horiz-adv-x="501" 
d="M17 365h501l-25 -141h-501z" />
    <glyph glyph-name="emdash" unicode="&#x2014;" horiz-adv-x="1000" 
d="M17 365h1000l-25 -141h-1000z" />
    <glyph glyph-name="quoteleft" unicode="&#x2018;" horiz-adv-x="277" 
d="M238.5 617.5q-28.5 -20.5 -32.5 -47.5q35 -4 54 -21.5t19 -48.5q0 -46 -29.5 -73t-80.5 -27q-46 0 -71 22t-25 63q0 57 25 106t79 82t137 39l6 -68q-53 -6 -81.5 -26.5z" />
    <glyph glyph-name="quoteright" unicode="&#x2019;" horiz-adv-x="277" 
d="M142 506q29 21 32 47q-72 9 -72 70q0 47 29 74t80 27q46 0 71 -22.5t25 -62.5q0 -57 -25 -106t-79 -82t-137 -39l-5 68q52 5 81 26z" />
    <glyph glyph-name="quotesinglbase" unicode="&#x201a;" horiz-adv-x="276" 
d="M46 -50q29 21 32 47q-72 9 -72 70q0 47 29 74t80 27q46 0 71 -22.5t25 -62.5q0 -57 -25 -106t-79 -82t-137 -39l-5 68q52 5 81 26z" />
    <glyph glyph-name="quotedblleft" unicode="&#x201c;" horiz-adv-x="488" 
d="M453 618.5q-28 -20.5 -32 -47.5q70 -9 70 -70q0 -46 -28 -73t-78 -27q-44 0 -68.5 22t-24.5 62q0 57 24 106t76.5 82t132.5 39l6 -68q-50 -5 -78 -25.5zM96 591q24 49 76.5 82t132.5 39l5 -68q-50 -5 -78 -25.5t-32 -47.5q71 -9 71 -70q0 -46 -28.5 -73t-78.5 -27
q-44 0 -68 22t-24 62q0 57 24 106z" />
    <glyph glyph-name="quotedblright" unicode="&#x201d;" horiz-adv-x="488" 
d="M139 505q28 21 32 47q-70 9 -70 70q0 47 28 74t78 27q44 0 68 -22.5t24 -62.5q0 -57 -24 -106t-76.5 -82t-132.5 -39l-5 68q50 5 78 26zM360 505q28 21 31 47q-70 9 -70 70q0 47 28.5 74t77.5 27q45 0 69 -22.5t24 -62.5q0 -57 -24 -106t-76.5 -82t-132.5 -39l-5 68
q50 5 78 26z" />
    <glyph glyph-name="quotedblbase" unicode="&#x201e;" horiz-adv-x="488" 
d="M41 -50q28 21 32 47q-70 9 -70 70q0 47 28 74t78 27q44 0 68 -22.5t24 -62.5q0 -57 -24 -106t-76.5 -82t-132.5 -39l-5 68q50 5 78 26zM262 -50q28 21 31 47q-70 9 -70 70q0 47 28.5 74t77.5 27q45 0 69 -22.5t24 -62.5q0 -57 -24 -106t-76.5 -82t-132.5 -39l-5 68
q50 5 78 26z" />
    <glyph glyph-name="dagger" unicode="&#x2020;" horiz-adv-x="468" 
d="M389 693l-37 -146l159 10l-26 -145l-154 10l-36 -263h-161l57 263l-157 -10l26 145l153 -10l14 146h162z" />
    <glyph glyph-name="daggerdbl" unicode="&#x2021;" horiz-adv-x="461" 
d="M159 241l-157 -10l23 131l154 -10l8 71l17 70l-158 -10l24 131l153 -10l7 103h155l-29 -103l158 10l-24 -131l-153 10l-9 -70l-17 -71l158 10l-22 -131l-155 10l-7 -103h-155z" />
    <glyph glyph-name="bullet" unicode="&#x2022;" horiz-adv-x="380" 
d="M81 176q-33 25 -33 74q0 53 39.5 92.5t122.5 39.5q56 0 89 -25t33 -73q0 -31 -15 -61t-51.5 -51t-95.5 -21q-56 0 -89 25z" />
    <glyph glyph-name="ellipsis" unicode="&#x2026;" horiz-adv-x="881" 
d="M23.5 6q-27.5 21 -27.5 62q0 44 33 77t102 33q46 0 73.5 -20.5t27.5 -61.5q0 -42 -32 -76.5t-103 -34.5q-46 0 -73.5 21zM317.5 6q-27.5 21 -27.5 62q0 44 33 77t102 33q46 0 73.5 -20.5t27.5 -61.5q0 -42 -32 -76.5t-103 -34.5q-46 0 -73.5 21zM611.5 6
q-27.5 21 -27.5 62q0 44 33 77t102 33q46 0 73.5 -20.5t27.5 -61.5q0 -42 -32 -76.5t-103 -34.5q-46 0 -73.5 21z" />
    <glyph glyph-name="uni202F" unicode="&#x202f;" horiz-adv-x="193" 
 />
    <glyph glyph-name="perthousand" unicode="&#x2030;" horiz-adv-x="1032" 
d="M579 693h146l-457 -693h-145zM130 659q50 45 130 45q66 0 100.5 -33t34.5 -94q0 -25 -4 -46q-15 -86 -65 -133t-129 -47q-67 0 -101.5 33.5t-34.5 96.5q0 20 5 50q14 83 64 128zM217 459q20 0 34 19t20 53q2 16 2 22q0 42 -33 42q-25 0 -40.5 -25t-15.5 -67q0 -44 33 -44
zM519 291.5q50 46.5 128 46.5q66 0 102 -34q46 34 113 34t101.5 -33t34.5 -95q0 -21 -5 -51q-14 -84 -63.5 -129t-129.5 -45q-66 0 -101 32q-46 -32 -113 -32t-101.5 33t-34.5 95q0 23 4 46q15 86 65 132.5zM572 136q0 -20 8 -31t24 -11q21 0 35 17t19 48q3 15 3 27
q0 21 -8 32.5t-24 11.5q-20 0 -34.5 -18.5t-20.5 -52.5q-2 -16 -2 -23zM786 135q0 -20 8.5 -30.5t24.5 -10.5q20 0 34 17t20 48q2 10 2 26q0 45 -32 45q-20 0 -34.5 -18.5t-19.5 -52.5q-3 -13 -3 -24z" />
    <glyph glyph-name="guilsinglleft" unicode="&#x2039;" horiz-adv-x="368" 
d="M27 219l16 88l238 193l69 -70l-174 -176l113 -169l-82 -70z" />
    <glyph glyph-name="guilsinglright" unicode="&#x203a;" horiz-adv-x="368" 
d="M337 296l-16 -88l-238 -193l-69 70l174 176l-113 169l82 70z" />
    <glyph glyph-name="uni207F" unicode="&#x207f;" horiz-adv-x="404" 
d="M84 518l28 169h124l-9 -41h1q19 25 48 38t60 13q44 0 66 -20.5t22 -63.5q0 -21 -4 -41l-10 -54l-25 -154h-125l29 154l5 28q1 4 1 11q0 16 -8.5 24.5t-23.5 8.5q-22 0 -36 -14t-19 -40l-4 -18l-25 -154h-124z" />
    <glyph glyph-name="franc" unicode="&#x20a3;" horiz-adv-x="591" 
d="M54 102h-75l12 64h75l35 183l55 334h488l-28 -156h-287l-22 -118h268l-25 -145h-268l-16 -98h170l-11 -64h-170l-15 -92h-203z" />
    <glyph glyph-name="lira" unicode="&#x20a4;" horiz-adv-x="682" 
d="M28 25q-35 30 -35 81q0 60 44.5 92t111.5 32q38 0 81 -15q-3 26 -13 48h-158l9 53h124l-20 41h-97l10 53h66q-12 41 -12 80q0 47 26.5 95t88 80.5t158.5 32.5q85 0 144 -28.5t89.5 -77t32.5 -109.5l-186 -48q-1 48 -22 74t-63 26q-44 0 -63 -22t-19 -50q0 -23 10 -53h170
l-10 -53h-141l15 -41h119l-9 -53h-98q1 -8 1 -24q0 -41 -21 -89q26 -12 43.5 -18.5t32.5 -6.5q54 0 65 113l147 -42q-23 -101 -65.5 -151t-119.5 -50q-42 0 -81 18t-82 50q-71 -68 -179 -68q-59 0 -94 30zM146 92q41 0 65 35q-34 21 -60 21q-37 0 -37 -29q0 -27 32 -27z" />
    <glyph glyph-name="uni20A6" unicode="&#x20a6;" horiz-adv-x="728" 
d="M92 326h-73l8 50h74l51 307h182l70 -230l26 -77h70l10 56l44 251h165l-58 -307h77l-8 -50h-77l-53 -316h-183l-69 229l-30 87h-66l-55 -316h-164zM301 376l-25 73h-2l-13 -73h40zM475 244h3l14 82h-45z" />
    <glyph glyph-name="peseta" unicode="&#x20a7;" horiz-adv-x="729" 
d="M85 347l7 42h-62l11 63h62l39 234h294q127 0 192.5 -47t65.5 -147q0 -26 -2 -40h61l-12 -63h-61q-31 -117 -115 -171.5t-221 -54.5h-94l-26 -156h-202zM372 316q45 0 73.5 17t43.5 56h-200l-13 -73h96zM501 452q1 39 -22 57t-70 18h-96l-13 -75h201z" />
    <glyph glyph-name="uni20A8" unicode="&#x20a8;" horiz-adv-x="1129" 
d="M63 347l56 336h274q117 0 178 -44t61 -134q0 -31 -5 -56q-11 -59 -41.5 -103t-79.5 -68q31 -16 46.5 -44t15.5 -72v-42q0 -85 4 -110h-200q-4 32 -4 71l1 54q0 44 -21 66.5t-59 22.5h-60l-36 -214h-192zM333 355q99 0 114 89q3 14 3 25q0 62 -80 62h-88l-31 -176h82z
M778 194q2 -37 20.5 -57t61.5 -20q29 0 46.5 11.5t21.5 34.5q4 20 -14.5 33.5t-70.5 19.5q-75 11 -119.5 44t-44.5 93t33 103.5t90.5 66t127.5 22.5q98 0 148.5 -37t55.5 -114l-153 -40q-2 37 -18.5 53.5t-46.5 16.5q-27 0 -42.5 -12.5t-15.5 -35.5q0 -17 20.5 -28t74.5 -20
q78 -12 116 -42t38 -85q0 -16 -3 -36q-14 -79 -82 -124t-182 -45q-110 0 -160.5 41.5t-53.5 118.5z" />
    <glyph glyph-name="uni20A9" unicode="&#x20a9;" horiz-adv-x="925" 
d="M89 371v3h-90l13 70h74l-10 249h203l-8 -249h98l96 249h153l7 -249h99l80 249h194l-95 -249h70l-12 -70h-85l-1 -2l-135 -372h-231l-12 231l-7 143h-25l-56 -143l-95 -231h-224zM271 208l69 166h-70l-2 -166h3zM642 208h3l56 166h-71z" />
    <glyph glyph-name="uni20AA" unicode="&#x20aa;" horiz-adv-x="846" 
d="M120 686h327q95 0 137.5 -34.5t42.5 -109.5q0 -30 -6 -68l-44 -249h-124l39 216q5 28 5 44q0 38 -22 53t-76 15h-159l-95 -545h-145zM300 473h123l-59 -331h166q43 0 67 10.5t37 35.5t21 72l75 426h144l-83 -468q-19 -107 -83 -158.5t-178 -51.5h-312z" />
    <glyph glyph-name="dong" unicode="&#x20ab;" horiz-adv-x="631" 
d="M79.5 145.5q-41.5 47.5 -41.5 124.5q0 21 5 51q11 65 45 116t82 79.5t101 28.5q46 0 81.5 -21.5t51.5 -57.5h2l20 115l-112 -1l13 76l111 -1l7 38h186l-7 -38l56 1l-14 -76l-56 1l-43 -234l-38 -234h-186l12 65h-3q-28 -37 -72 -58.5t-95 -21.5q-64 0 -105.5 47.5z
M-17 59h592l-12 -69h-592zM233 252q17 -18 49 -18q34 0 62.5 23t35.5 65q2 12 2 18q0 31 -19 50t-50 19q-43 0 -70 -31.5t-27 -77.5q0 -30 17 -48z" />
    <glyph glyph-name="Euro" unicode="&#x20ac;" horiz-adv-x="716" 
d="M179 74.5q-77 68.5 -87 188.5h-85l11 61h74q0 15 4 45h-70l11 61h71q33 121 122 189.5t216 68.5q133 0 208 -63t84 -174l-170 -42q-7 66 -37 95t-83 29q-51 0 -87.5 -27t-56.5 -76h209l-10 -61h-216q-4 -28 -4 -45h212l-11 -61h-199q8 -49 38.5 -75.5t78.5 -26.5
q53 0 89 29t56 96l155 -44q-23 -111 -107 -173.5t-212 -62.5q-127 0 -204 68.5z" />
    <glyph glyph-name="uni20AD" unicode="&#x20ad;" horiz-adv-x="745" 
d="M305 318h-10l-50 -308h-203l58 308h-83l11 62h83l50 303h203l-58 -303h9l238 303h228l-268 -303h192l-12 -62h-176l161 -308h-215z" />
    <glyph glyph-name="uni20AE" unicode="&#x20ae;" horiz-adv-x="545" 
d="M150 138l-121 -41l12 64l121 41l10 55l-121 -41l11 65l122 41l32 197l-164 -1l31 175h528l-30 -175l-165 1l-23 -126l122 41l-12 -64l-121 -41l-8 -42l-2 -13l121 41l-11 -65l-121 -41l-34 -209h-203z" />
    <glyph glyph-name="uni20B1" unicode="&#x20b1;" horiz-adv-x="729" 
d="M85 347l3 16h-63l8 43h62l6 34h-62l7 44h62l34 202h294q130 0 195.5 -49t62.5 -153h64l-7 -44h-61l-2 -13l-4 -21h61l-8 -43h-65q-35 -104 -117 -152t-211 -48h-94l-26 -156h-202zM372 316q37 0 62.5 11t41.5 36h-192l-8 -47h96zM494 406l4 19q2 10 2 15h-202l-6 -34h202
zM497 484q-16 43 -88 43h-96l-8 -43h192z" />
    <glyph glyph-name="uni20B2" unicode="&#x20b2;" horiz-adv-x="694" 
d="M468 749l-11 -63q111 -10 174.5 -72.5t67.5 -158.5l-172 -52q-8 54 -32.5 86t-65.5 40l-25 -142h283l-33 -173l-23 -194h-124l-3 70q-31 -38 -75 -59t-92 -25l-12 -69h-70l12 71q-110 12 -174 84.5t-64 193.5q0 85 35 174.5t115.5 154.5t207.5 72l11 62h70zM236 204.5
q21 -33.5 58 -47.5l65 370q-75 -16 -109.5 -86.5t-34.5 -153.5q0 -49 21 -82.5zM493 266l-110 -1l-21 -116q99 7 131 117z" />
    <glyph glyph-name="uni20B8" unicode="&#x20b8;" horiz-adv-x="545" 
d="M165 214l27 162l-165 -1l28 161h529l-29 -161l-163 1l-32 -162l-33 -214h-203zM85 693h526l-16 -94h-526z" />
    <glyph glyph-name="uni20B9" unicode="&#x20b9;" horiz-adv-x="564" 
d="M20 261l19 106h151q107 0 145 62h-284l16 90h285q-8 32 -38.5 50t-82.5 18h-153l17 98h533l-17 -98h-137q20 -29 25 -68h100l-16 -90h-99q-28 -75 -96 -117t-174 -43l229 -258h-213z" />
    <glyph glyph-name="uni20BA" unicode="&#x20ba;" horiz-adv-x="631" 
d="M94 253l-93 -31l11 64l93 32l10 55l-94 -32l11 65l95 32l43 245h187l-31 -178l159 54l-12 -64l-158 -54l-10 -55l159 54l-11 -65l-159 -54l-29 -163q79 0 125.5 33.5t60.5 106.5l167 -1q-25 -144 -123.5 -215.5t-251.5 -71.5h-192z" />
    <glyph glyph-name="uni20BC" unicode="&#x20bc;" horiz-adv-x="694" 
d="M140 467.5q83 81.5 219 89.5l26 150h78l-27 -152q105 -12 164.5 -75t59.5 -166q0 -28 -7 -70l-42 -234h-172l43 242q4 28 4 40q0 45 -20 74.5t-56 38.5l-70 -395h-78l70 395q-49 -12 -82 -51.5t-44 -101.5l-42 -242h-173l42 234q24 142 107 223.5z" />
    <glyph glyph-name="uni20BD" unicode="&#x20bd;" horiz-adv-x="707" 
d="M98 271l14 76l57 336h294q127 0 193.5 -46.5t66.5 -139.5q0 -22 -5 -55q-22 -127 -106.5 -182t-233.5 -55h-93l-10 -61h162l-12 -64h-161l-12 -70h-202l13 70h-88l12 64h88l11 61h-88l11 66h89zM408 343q53 0 82 23.5t38 73.5q2 14 2 20q0 64 -90 64h-100l-31 -181h99z
" />
    <glyph glyph-name="uni2113" unicode="&#x2113;" horiz-adv-x="483" 
d="M101 19q-29 25 -29 82q0 19 3 43l-57 -29l-13 73l66 36l25 14q1 5 8 28l70 218q35 110 102 169.5t142 59.5q48 0 75 -27.5t27 -75.5q0 -11 -4 -37q-17 -93 -87 -176t-211 -171q-14 -44 -14 -67q0 -47 46 -47q32 0 64 19.5t72 59.5l40 -64q-109 -133 -237 -133
q-59 0 -88 25zM367.5 450.5q39.5 53.5 49.5 111.5q1 6 1 16q0 30 -23 30q-22 0 -44 -29t-40 -81l-53 -154q70 53 109.5 106.5z" />
    <glyph glyph-name="uni2116" unicode="&#x2116;" horiz-adv-x="1097" 
d="M63 346l58 347h212l77 -233l61 -187h2l29 163l44 257h187l-65 -346l-57 -347h-213l-76 234l-61 186h-2l-29 -163l-45 -257h-186zM809.5 390.5q-39.5 35.5 -39.5 97.5q0 12 4 38q13 77 69 123.5t133 46.5q67 0 106 -36t39 -98q0 -18 -3 -36q-14 -78 -70 -124.5t-133 -46.5
q-66 0 -105.5 35.5zM734 308h354l-16 -91h-354zM896 500q0 -45 37 -45q23 0 38.5 18.5t21.5 52.5q2 9 2 24q0 45 -37 45q-23 0 -38.5 -18t-20.5 -51q-3 -13 -3 -26z" />
    <glyph glyph-name="trademark" unicode="&#x2122;" horiz-adv-x="736" 
d="M126 483l19 113l-79 -1l17 98h268l-17 -98l-78 1l-21 -113l-22 -137h-113zM354 510l30 183h141l12 -117l12 -87h2l41 87l53 117h141l-29 -164l-32 -183h-97l24 130l18 98h-1l-49 -101l-59 -127h-74l-13 127l-14 101h-1l-18 -98l-20 -130h-98z" />
    <glyph glyph-name="uni2126" unicode="&#x2126;" horiz-adv-x="744" 
d="M12 164l116 -8q-40 43 -63.5 90.5t-23.5 109.5q0 33 5 59q12 69 60 135.5t135.5 111t208.5 44.5q107 0 175.5 -35.5t99 -91.5t30.5 -120q0 -16 -4 -44q-15 -84 -60 -143t-113 -115l117 7l-29 -164h-308l25 140q66 71 100 125t46 126q3 15 3 29q0 48 -31 77t-84 29
q-59 0 -104 -37.5t-56 -97.5q-5 -32 -5 -54q0 -49 14.5 -88t49.5 -109l-25 -140h-308z" />
    <glyph glyph-name="estimated" unicode="&#x212e;" horiz-adv-x="789" 
d="M191 33q-73 36 -117.5 103t-44.5 153q0 34 5 60q16 94 80 175.5t158.5 130t198.5 48.5q85 0 158 -36t116.5 -102t43.5 -154q0 -30 -6 -62l-2 -8h-604q-5 0 -6 -4l-34 -193q-4 -21 23 -51.5t77.5 -52.5t113.5 -22q71 0 140 31t121 85h55q-64 -64 -148.5 -100.5
t-171.5 -36.5q-83 0 -156 36zM181 360h461l7 6l34 194q3 19 -27.5 48.5t-81.5 51.5t-106 22q-54 0 -113 -22t-100 -52.5t-45 -51.5l-34 -190q-1 -6 5 -6z" />
    <glyph glyph-name="arrowleft" unicode="&#x2190;" horiz-adv-x="702" 
d="M295 396h370l-28 -157h-370l84 -196h-150l-132 274l229 276h150z" />
    <glyph glyph-name="arrowup" unicode="&#x2191;" horiz-adv-x="702" 
d="M454 407l-65 -371h-157l65 371l-217 -120l27 151l305 180l244 -180l-27 -151z" />
    <glyph glyph-name="arrowright" unicode="&#x2192;" horiz-adv-x="702" 
d="M418 196h-370l28 157h370l-85 196h152l130 -273l-227 -276h-152z" />
    <glyph glyph-name="arrowdown" unicode="&#x2193;" horiz-adv-x="702" 
d="M256 172l66 370h156l-65 -370l217 120l-27 -152l-305 -179l-244 179l27 152z" />
    <glyph glyph-name="uni2196" unicode="&#x2196;" horiz-adv-x="702" 
d="M384 427l216 -262l-130 -111l-216 262l-93 -223l-88 107l122 320l335 67l87 -105z" />
    <glyph glyph-name="uni2197" unicode="&#x2197;" horiz-adv-x="702" 
d="M466 313l-309 -263l-91 112l309 261l-214 54l124 107l310 -67l10 -321l-125 -107z" />
    <glyph glyph-name="uni2198" unicode="&#x2198;" horiz-adv-x="702" 
d="M331 176l-216 262l130 111l217 -262l92 223l88 -105l-123 -323l-334 -67l-87 107z" />
    <glyph glyph-name="uni2199" unicode="&#x2199;" horiz-adv-x="702" 
d="M258 338l309 262l90 -110l-308 -263l214 -53l-124 -107l-311 66l-10 322l125 106z" />
    <glyph glyph-name="uni2206" unicode="&#x2206;" horiz-adv-x="744" 
d="M-30 93l384 607h190l167 -607l-16 -93h-741zM514 128l-101 371l-232 -371h333z" />
    <glyph glyph-name="product" unicode="&#x220f;" horiz-adv-x="912" 
d="M225 551h-167l27 149h895l-27 -149h-166l-114 -647h-183l114 647h-198l-114 -647h-181z" />
    <glyph glyph-name="summation" unicode="&#x2211;" horiz-adv-x="607" 
d="M0 135l249 217l-175 213l24 135h557l-29 -166h-313l136 -182l-201 -186h320l-30 -166h-562z" />
    <glyph glyph-name="minus" unicode="&#x2212;" horiz-adv-x="484" 
d="M68 392l196 -2l196 2l-25 -138l-194 2l-197 -2z" />
    <glyph glyph-name="uni2215" unicode="&#x2215;" horiz-adv-x="240" 
d="M335 693h146l-510 -693h-145z" />
    <glyph glyph-name="infinity" unicode="&#x221e;" horiz-adv-x="922" 
d="M124 154q-43 22 -68 63.5t-25 97.5q0 58 31 117t90 97.5t138 38.5q76 0 123 -27.5t82 -83.5q54 55 110 83t128 28q82 0 134 -49t52 -136q0 -56 -30 -114.5t-88 -97.5t-137 -39q-77 0 -124.5 27.5t-82.5 83.5q-53 -55 -109 -83t-128 -28q-53 0 -96 22zM202 280
q20 -21 53 -21q40 0 72.5 21.5t73.5 69.5q-23 47 -48 69t-66 22q-31 0 -55 -15.5t-37 -40t-13 -49.5q0 -35 20 -56zM597.5 281.5q25.5 -22.5 65.5 -22.5q31 0 55 15.5t37 40t13 50.5q0 34 -20 55t-54 21q-39 0 -71.5 -22t-72.5 -69q22 -46 47.5 -68.5z" />
    <glyph glyph-name="approxequal" unicode="&#x2248;" horiz-adv-x="544" 
d="M219 534q33 0 59 -7.5t58 -20.5q21 -9 35 -13.5t28 -4.5q19 0 28 14t14 42h105q-24 -174 -157 -174q-32 0 -58.5 7.5t-59.5 20.5q-22 9 -36 13t-27 4q-18 0 -26.5 -13.5t-13.5 -41.5h-105q24 174 156 174zM75 277q37 46 107 46q33 0 59.5 -7.5t58.5 -20.5q41 -18 62 -18
q19 0 27.5 13.5t13.5 42.5h106q-12 -83 -49.5 -129t-108.5 -46q-31 0 -57.5 7.5t-59.5 20.5q-22 9 -36 13.5t-27 4.5q-18 0 -26.5 -13.5t-14.5 -42.5h-105q13 83 50 129z" />
    <glyph glyph-name="notequal" unicode="&#x2260;" horiz-adv-x="484" 
d="M82 472l196 -2h33l83 114l64 -42l-51 -71l67 1l-22 -118l-129 2l-54 -74l171 3l-20 -118l-195 2h-38l-71 -98l-65 42l40 55l-63 -1l21 118l126 -2l53 74l-167 -3z" />
    <glyph glyph-name="lessequal" unicode="&#x2264;" horiz-adv-x="599" 
d="M503 -10l-258 3l-258 -3l18 98l257 -3l253 3l-487 152l25 143l551 177l-26 -149l-359 -94l-1 -5l327 -83l-24 -143z" />
    <glyph glyph-name="greaterequal" unicode="&#x2265;" horiz-adv-x="600" 
d="M15 88l25 146l356 82l1 6l-325 93l27 145l489 -177l-25 -143l-541 -152l251 -3l259 3l-18 -98l-256 3l-260 -3z" />
    <glyph glyph-name="filledbox" unicode="&#x25a0;" horiz-adv-x="702" 
d="M579 459l-68 -388h-388l68 388h388z" />
    <glyph glyph-name="triagup" unicode="&#x25b2;" horiz-adv-x="702" 
d="M526 52h-426l288 426z" />
    <glyph glyph-name="uni25B3" unicode="&#x25b3;" horiz-adv-x="702" 
d="M526 52h-426l288 426zM412 131l-55 171l-115 -171h170z" />
    <glyph glyph-name="uni25B6" unicode="&#x25b6;" horiz-adv-x="702" 
d="M101 53l75 426l388 -213z" />
    <glyph glyph-name="uni25B7" unicode="&#x25b7;" horiz-adv-x="702" 
d="M101 53l75 426l388 -213zM388 266l-156 85l-30 -170z" />
    <glyph glyph-name="triagdn" unicode="&#x25bc;" horiz-adv-x="702" 
d="M313 52l-138 426h426z" />
    <glyph glyph-name="uni25BD" unicode="&#x25bd;" horiz-adv-x="702" 
d="M313 52l-138 426h426zM344 228l116 171h-171z" />
    <glyph glyph-name="uni25C0" unicode="&#x25c0;" horiz-adv-x="702" 
d="M601 478l-75 -426l-388 213z" />
    <glyph glyph-name="uni25C1" unicode="&#x25c1;" horiz-adv-x="702" 
d="M601 478l-75 -426l-388 213zM469 180l30 170l-185 -85z" />
    <glyph glyph-name="uni25C6" unicode="&#x25c6;" horiz-adv-x="702" 
d="M625 265l-322 -274l-227 274l323 275z" />
    <glyph glyph-name="lozenge" unicode="&#x25ca;" horiz-adv-x="702" 
d="M421 659l162 -329l-280 -332l-162 332zM336 184l124 146l-72 145l-124 -145z" />
    <glyph glyph-name="uniF8FF" unicode="&#xf8ff;" horiz-adv-x="1292" 
d="M42 462h486q4 56 44.5 94t96.5 38t96.5 -38t44.5 -94h486v-193h-1254v193zM78 118h-36v31h93l-41 -78h38v-31h-95zM41 247h50v-11h-38v-26h33v-11h-33v-29h-12v77zM94 392v-86h39v86h28v35h-96v-35h29zM101 247h12v-47q0 -9 5.5 -14.5t13.5 -5.5t14 6t6 14v47h12v-47
q0 -14 -9 -22.5t-23 -8.5q-13 0 -22 9t-9 22v47zM142 149h79v-30h-44v-9h38v-30h-38v-10h45v-30h-80v109zM207 306v35h8l15 -35h41l-21 46q14 12 14 32q0 18 -13.5 30.5t-32.5 12.5h-50v-121h39zM179 247h12v-66h35v-11h-47v77zM207 394h10q3 0 5.5 -3t2.5 -7t-2.5 -7.5
t-5.5 -3.5h-10v21zM226 149h87v-31h-26v-78h-35v78h-26v31zM237 247h12v-66h36v-11h-48v77zM315 306v121h-38v-121h38zM338 149h40l37 -109h-38l-4 17h-31l-5 -17h-36zM331 247l22 -57l22 57h14l-32 -77h-8l-32 77h14zM363 306l5 19h34l5 -19h42l-41 121h-45l-41 -121h41z
M365 86l-7 26h-1l-7 -26h15zM384 386h1l8 -29h-17zM399 247h50v-11h-38v-22h33v-10h-33v-23h38v-11h-50v77zM421 149h79v-30h-44v-16h37v-29h-37v-34h-35v109zM538 306v33h-43v88h-39v-121h82zM462 247h29q11 0 18 -7t7 -18q0 -14 -12 -21l15 -31h-14l-13 28h-18v-28h-12v77
zM491 208q5 0 9 4t4 10t-4 10t-9 4h-17v-28h17zM521 135.5q17 16.5 42 16.5t42 -16.5t17 -40.5q0 -25 -17 -41.5t-42 -16.5t-42 16.5t-17 41.5q0 24 17 40.5zM525 189q13 -9 26 -9q14 0 14 12q0 7 -17 12q-12 5 -17 9.5t-5 13.5q0 10 7 16t19 6q10 0 20 -5v-13q-9 7 -20 7
q-6 0 -10 -3t-4 -8t3.5 -7.5t12.5 -5.5q23 -9 23 -22q0 -11 -7.5 -17t-18.5 -6q-14 0 -26 7v13zM546 76.5q7 -7.5 17 -7.5t17 7.5t7 18.5t-7 18t-17 7t-17 -7t-7 -18t7 -18.5zM574 367l167 166h-171q-29 -35 -29 -81q0 -49 33 -85zM669 325q48 0 85 32h-170q37 -32 85 -32z
M754 547q-38 33 -85 33q-49 0 -85 -33h170zM589 247h12v-77h-12v77zM767 371q29 35 29 81q0 48 -32 85l-166 -166h169zM625.5 237.5q11.5 11.5 28.5 11.5t28.5 -11.5t11.5 -28.5t-11.5 -28.5t-28.5 -11.5t-28.5 11.5t-11.5 28.5t11.5 28.5zM634 188q8 -8 20 -8q11 0 19 8
t8 21q0 12 -8 20t-19 8q-12 0 -20 -8t-8 -20q0 -13 8 -21zM630 149h36l33 -58v58h35v-109h-36l-34 53l1 -53h-35v109zM706 248h6l49 -55v54h12v-79h-6l-49 54v-52h-12v78zM740 149h86v-31h-25v-78h-35v78h-26v31zM807 213h458l-13 11l8 7l25 -24l-25 -24l-8 7l13 11h-458v12
zM839.5 321q18.5 -18 46.5 -18t47 18t19 46q0 27 -19 45t-47 18t-46.5 -18t-18.5 -45q0 -28 18.5 -46zM841 143q12 9 33 9q14 0 32 -8v-34q-6 5 -15.5 8t-16.5 3q-11 0 -11 -4q0 -3 2.5 -4.5t5.5 -2t6 -1.5q36 -8 36 -35q0 -17 -12.5 -27t-31.5 -10q-22 0 -38 10v37
q25 -16 38 -16q9 0 9 6q0 4 -7 6t-10 3q-17 6 -24.5 13.5t-7.5 21.5q0 16 12 25zM867 387q8 8 19 8q12 0 19.5 -8t7.5 -20q0 -13 -7.5 -21t-19.5 -8q-11 0 -19 8t-8 21q0 12 8 20zM923 65.5q5 4.5 13 4.5q7 0 12 -4.5t5 -11.5t-5 -12t-12 -5q-8 0 -13 5t-5 12t5 11.5z
M976 135.5q17 16.5 42 16.5q13 0 23 -6v-33q-12 7 -22 7t-17.5 -7t-7.5 -18t7 -18.5t18 -7.5q15 0 25 10l-1 -35q-14 -7 -26 -7q-24 0 -41 16.5t-17 41.5q0 24 17 40.5zM999 306l-1 59l38 -59h40v121h-39v-64l-37 64h-40v-121h39zM1064.5 135.5q17.5 16.5 42.5 16.5
t42 -16.5t17 -40.5q0 -25 -17 -41.5t-42 -16.5q-26 0 -43 16.5t-17 41.5q0 24 17.5 40.5zM1089 76.5q7 -7.5 18 -7.5q10 0 17 7.5t7 18.5q0 10 -7 17.5t-17 7.5t-17.5 -7t-7.5 -18t7 -18.5zM1170 306v33h-43v88h-39v-121h82zM1192 354v-48h39v48l41 73h-45l-16 -36l-15 36
h-46zM1173 149h35l26 -50l26 50h35v-109h-34v43l-14 -27h-25l-14 27v-43h-35v109z" />
    <glyph glyph-name="dotlessi.ss01" horiz-adv-x="268" 
d="M44 270l44 267h186l-50 -267l-45 -270h-185z" />
    <glyph glyph-name="uni0237.ss01" horiz-adv-x="288" 
d="M-79 -167.5q-32 5.5 -56 15.5l49 117q22 -5 47 -5q23 0 38.5 14.5t21.5 48.5l19 108l69 406h185l-90 -495q-20 -117 -75 -166t-150 -49q-26 0 -58 5.5z" />
    <glyph glyph-name="i.ss01" horiz-adv-x="268" 
d="M44 270l44 267h186l-50 -267l-45 -270h-185zM122 726h185l-24 -138h-186z" />
    <glyph glyph-name="j.ss01" horiz-adv-x="288" 
d="M-79 -167.5q-32 5.5 -56 15.5l49 117q22 -5 47 -5q23 0 38.5 14.5t21.5 48.5l19 108l69 406h185l-90 -495q-20 -117 -75 -166t-150 -49q-26 0 -58 5.5zM143 726h185l-24 -138h-186z" />
    <glyph glyph-name="g.ss02" horiz-adv-x="592" 
d="M-53 -72q0 38 20.5 66.5t58.5 54.5q-26 26 -26 62q0 70 87 138q-31 36 -31 88q0 16 3 32q15 83 88 132.5t180 49.5q55 0 98.5 -15.5t69.5 -43.5q24 51 57.5 74.5t67.5 23.5l13 -1l-9 -140q-5 1 -15 1q-27 0 -48.5 -19.5t-32.5 -61.5q-14 -83 -87 -133t-178 -50
q-44 0 -87 10q-13 -18 -13 -32q0 -11 10 -16.5t34 -6.5l180 -2q77 -1 117.5 -29.5t40.5 -79.5q0 -17 -2 -26q-16 -95 -110.5 -136.5t-244.5 -41.5q-241 0 -241 102zM132.5 -67q27.5 -12 92.5 -12q77 0 110.5 13.5t33.5 41.5q0 11 -11 17.5t-33 7.5l-114 2q-47 0 -82 6
q-15 -16 -19 -39q-5 -25 22.5 -37zM240 321.5q17 -14.5 45 -14.5q35 0 59.5 20.5t24.5 51.5q0 23 -17 37.5t-46 14.5q-34 0 -58.5 -21t-24.5 -51q0 -23 17 -37.5z" />
    <glyph glyph-name="a.ss03" horiz-adv-x="602" 
d="M38.5 21.5q-43.5 36.5 -43.5 101.5q0 85 81 135.5t259 50.5h27l3 17q3 15 3 29q0 59 -64 59q-43 0 -68.5 -26t-34.5 -67l-146 34q28 93 96.5 144.5t170.5 51.5q110 0 167 -46.5t57 -133.5q0 -21 -5 -53l-28 -157q-2 -9 -2 -22q0 -12 4.5 -17t15.5 -5q15 0 35 9l2 -120
q-46 -19 -101 -19q-54 0 -84.5 22t-28.5 69l3 15h-2q-31 -52 -82.5 -80t-119.5 -28q-71 0 -114.5 36.5zM190.5 122.5q13.5 -11.5 36.5 -11.5q26 0 52.5 14t45 38.5t21.5 55.5l1 5h-24q-77 0 -111.5 -17t-34.5 -53q0 -20 13.5 -31.5z" />
    <glyph glyph-name="Q.ss04" horiz-adv-x="738" 
d="M177.5 22q-70.5 37 -107.5 105.5t-37 162.5q0 126 47.5 220.5t135.5 146t204 51.5q97 0 167.5 -36.5t108 -105.5t37.5 -163q0 -99 -30 -179.5t-87 -135.5l61 -92l-150 -106l-71 108q-55 -13 -110 -13q-98 0 -168.5 37zM270.5 187q30.5 -38 86.5 -39l142 108q26 61 26 145
q0 69 -30.5 106.5t-88.5 37.5q-49 0 -87 -32.5t-58.5 -90t-20.5 -129.5q0 -68 30.5 -106z" />
    <glyph glyph-name="aacute.ss03" horiz-adv-x="602" 
d="M38.5 21.5q-43.5 36.5 -43.5 101.5q0 85 81 135.5t259 50.5h27l3 17q3 15 3 29q0 59 -64 59q-43 0 -68.5 -26t-34.5 -67l-146 34q28 93 96.5 144.5t170.5 51.5q110 0 167 -46.5t57 -133.5q0 -21 -5 -53l-28 -157q-2 -9 -2 -22q0 -12 4.5 -17t15.5 -5q15 0 35 9l2 -120
q-46 -19 -101 -19q-54 0 -84.5 22t-28.5 69l3 15h-2q-31 -52 -82.5 -80t-119.5 -28q-71 0 -114.5 36.5zM190.5 122.5q13.5 -11.5 36.5 -11.5q26 0 52.5 14t45 38.5t21.5 55.5l1 5h-24q-77 0 -111.5 -17t-34.5 -53q0 -20 13.5 -31.5zM302 617l71 166h166l-131 -166h-106z" />
    <glyph glyph-name="abreve.ss03" horiz-adv-x="602" 
d="M38.5 21.5q-43.5 36.5 -43.5 101.5q0 85 81 135.5t259 50.5h27l3 17q3 15 3 29q0 59 -64 59q-43 0 -68.5 -26t-34.5 -67l-146 34q28 93 96.5 144.5t170.5 51.5q110 0 167 -46.5t57 -133.5q0 -21 -5 -53l-28 -157q-2 -9 -2 -22q0 -12 4.5 -17t15.5 -5q15 0 35 9l2 -120
q-46 -19 -101 -19q-54 0 -84.5 22t-28.5 69l3 15h-2q-31 -52 -82.5 -80t-119.5 -28q-71 0 -114.5 36.5zM190.5 122.5q13.5 -11.5 36.5 -11.5q26 0 52.5 14t45 38.5t21.5 55.5l1 5h-24q-77 0 -111.5 -17t-34.5 -53q0 -20 13.5 -31.5zM255 637.5q-35 33.5 -35 95.5q0 24 4 45
h99q-2 -18 -2 -25q0 -26 11.5 -38.5t40.5 -12.5q36 0 53 18.5t25 57.5h100q-10 -82 -61 -128t-133 -46q-67 0 -102 33.5z" />
    <glyph glyph-name="acircumflex.ss03" horiz-adv-x="602" 
d="M38.5 21.5q-43.5 36.5 -43.5 101.5q0 85 81 135.5t259 50.5h27l3 17q3 15 3 29q0 59 -64 59q-43 0 -68.5 -26t-34.5 -67l-146 34q28 93 96.5 144.5t170.5 51.5q110 0 167 -46.5t57 -133.5q0 -21 -5 -53l-28 -157q-2 -9 -2 -22q0 -12 4.5 -17t15.5 -5q15 0 35 9l2 -120
q-46 -19 -101 -19q-54 0 -84.5 22t-28.5 69l3 15h-2q-31 -52 -82.5 -80t-119.5 -28q-71 0 -114.5 36.5zM190.5 122.5q13.5 -11.5 36.5 -11.5q26 0 52.5 14t45 38.5t21.5 55.5l1 5h-24q-77 0 -111.5 -17t-34.5 -53q0 -20 13.5 -31.5zM322 783h134l76 -166h-103l-56 75
l-83 -75h-103z" />
    <glyph glyph-name="adieresis.ss03" horiz-adv-x="602" 
d="M38.5 21.5q-43.5 36.5 -43.5 101.5q0 85 81 135.5t259 50.5h27l3 17q3 15 3 29q0 59 -64 59q-43 0 -68.5 -26t-34.5 -67l-146 34q28 93 96.5 144.5t170.5 51.5q110 0 167 -46.5t57 -133.5q0 -21 -5 -53l-28 -157q-2 -9 -2 -22q0 -12 4.5 -17t15.5 -5q15 0 35 9l2 -120
q-46 -19 -101 -19q-54 0 -84.5 22t-28.5 69l3 15h-2q-31 -52 -82.5 -80t-119.5 -28q-71 0 -114.5 36.5zM190.5 122.5q13.5 -11.5 36.5 -11.5q26 0 52.5 14t45 38.5t21.5 55.5l1 5h-24q-77 0 -111.5 -17t-34.5 -53q0 -20 13.5 -31.5zM204.5 624.5q-17.5 14.5 -17.5 41.5
q0 4 2 16q6 35 30 54.5t62 19.5q33 0 50.5 -15t17.5 -42q0 -5 -2 -17q-7 -35 -31 -53.5t-61 -18.5q-33 0 -50.5 14.5zM426 736.5q24 19.5 61 19.5q33 0 51 -15t18 -42q0 -5 -2 -17q-7 -35 -31 -53.5t-61 -18.5q-33 0 -50.5 14t-17.5 41q0 5 2 17q6 35 30 54.5z" />
    <glyph glyph-name="agrave.ss03" horiz-adv-x="602" 
d="M38.5 21.5q-43.5 36.5 -43.5 101.5q0 85 81 135.5t259 50.5h27l3 17q3 15 3 29q0 59 -64 59q-43 0 -68.5 -26t-34.5 -67l-146 34q28 93 96.5 144.5t170.5 51.5q110 0 167 -46.5t57 -133.5q0 -21 -5 -53l-28 -157q-2 -9 -2 -22q0 -12 4.5 -17t15.5 -5q15 0 35 9l2 -120
q-46 -19 -101 -19q-54 0 -84.5 22t-28.5 69l3 15h-2q-31 -52 -82.5 -80t-119.5 -28q-71 0 -114.5 36.5zM190.5 122.5q13.5 -11.5 36.5 -11.5q26 0 52.5 14t45 38.5t21.5 55.5l1 5h-24q-77 0 -111.5 -17t-34.5 -53q0 -20 13.5 -31.5zM242 783h167l11 -166h-106z" />
    <glyph glyph-name="amacron.ss03" horiz-adv-x="602" 
d="M38.5 21.5q-43.5 36.5 -43.5 101.5q0 85 81 135.5t259 50.5h27l3 17q3 15 3 29q0 59 -64 59q-43 0 -68.5 -26t-34.5 -67l-146 34q28 93 96.5 144.5t170.5 51.5q110 0 167 -46.5t57 -133.5q0 -21 -5 -53l-28 -157q-2 -9 -2 -22q0 -12 4.5 -17t15.5 -5q15 0 35 9l2 -120
q-46 -19 -101 -19q-54 0 -84.5 22t-28.5 69l3 15h-2q-31 -52 -82.5 -80t-119.5 -28q-71 0 -114.5 36.5zM190.5 122.5q13.5 -11.5 36.5 -11.5q26 0 52.5 14t45 38.5t21.5 55.5l1 5h-24q-77 0 -111.5 -17t-34.5 -53q0 -20 13.5 -31.5zM231 730h298l-19 -102h-298z" />
    <glyph glyph-name="aogonek.ss03" horiz-adv-x="602" 
d="M38.5 21.5q-43.5 36.5 -43.5 101.5q0 85 81 135.5t259 50.5h27l3 17q3 15 3 29q0 59 -64 59q-43 0 -68.5 -26t-34.5 -67l-146 34q28 93 96.5 144.5t170.5 51.5q110 0 167 -46.5t57 -133.5q0 -21 -5 -53l-28 -157q-2 -9 -2 -22q0 -12 4.5 -17t15.5 -5q15 0 35 9l2 -119v-1
l-6 -2q-32 -19 -49 -39t-17 -34q0 -19 31 -19q24 0 46 9l9 -76q-33 -11 -60 -16.5t-57 -5.5q-45 0 -69.5 15.5t-24.5 45.5q0 29 17 53t57 51q-45 4 -69 26t-22 64l3 15h-2q-31 -52 -82.5 -80t-119.5 -28q-71 0 -114.5 36.5zM190.5 122.5q13.5 -11.5 36.5 -11.5q26 0 52.5 14
t45 38.5t21.5 55.5l1 5h-24q-77 0 -111.5 -17t-34.5 -53q0 -20 13.5 -31.5z" />
    <glyph glyph-name="aring.ss03" horiz-adv-x="602" 
d="M38.5 21.5q-43.5 36.5 -43.5 101.5q0 85 81 135.5t259 50.5h27l3 17q3 15 3 29q0 59 -64 59q-43 0 -68.5 -26t-34.5 -67l-146 34q28 93 96.5 144.5t170.5 51.5q110 0 167 -46.5t57 -133.5q0 -21 -5 -53l-28 -157q-2 -9 -2 -22q0 -12 4.5 -17t15.5 -5q15 0 35 9l2 -120
q-46 -19 -101 -19q-54 0 -84.5 22t-28.5 69l3 15h-2q-31 -52 -82.5 -80t-119.5 -28q-71 0 -114.5 36.5zM190.5 122.5q13.5 -11.5 36.5 -11.5q26 0 52.5 14t45 38.5t21.5 55.5l1 5h-24q-77 0 -111.5 -17t-34.5 -53q0 -20 13.5 -31.5zM291.5 627.5q-24.5 21.5 -24.5 56.5
q0 51 36 84.5t89 33.5q42 0 66 -21.5t24 -57.5q0 -5 -2 -19q-8 -44 -42 -71t-81 -27q-41 0 -65.5 21.5zM339 670q10 -9 28 -9q22 0 37 14.5t15 38.5q0 16 -10 25t-27 9q-22 0 -37.5 -15t-15.5 -38q0 -16 10 -25z" />
    <glyph glyph-name="atilde.ss03" horiz-adv-x="602" 
d="M38.5 21.5q-43.5 36.5 -43.5 101.5q0 85 81 135.5t259 50.5h27l3 17q3 15 3 29q0 59 -64 59q-43 0 -68.5 -26t-34.5 -67l-146 34q28 93 96.5 144.5t170.5 51.5q110 0 167 -46.5t57 -133.5q0 -21 -5 -53l-28 -157q-2 -9 -2 -22q0 -12 4.5 -17t15.5 -5q15 0 35 9l2 -120
q-46 -19 -101 -19q-54 0 -84.5 22t-28.5 69l3 15h-2q-31 -52 -82.5 -80t-119.5 -28q-71 0 -114.5 36.5zM190.5 122.5q13.5 -11.5 36.5 -11.5q26 0 52.5 14t45 38.5t21.5 55.5l1 5h-24q-77 0 -111.5 -17t-34.5 -53q0 -20 13.5 -31.5zM232.5 721.5q32.5 40.5 86.5 40.5
q25 0 42 -7.5t34 -20.5q12 -9 19.5 -12.5t16.5 -3.5q18 0 26 11t12 33h85q-9 -70 -42 -110t-88 -40q-24 0 -41 7.5t-34 20.5q-3 2 -14 9t-22 7q-18 0 -26 -11t-12 -33h-84q9 69 41.5 109.5z" />
    <glyph glyph-name="asuperior" horiz-adv-x="395" 
d="M73 375q-24 20 -24 53q0 10 1 16q12 66 66.5 86t137.5 20h13l2 11q1 5 1 13q0 31 -35 31q-41 0 -52 -48l-96 22q17 54 62.5 85.5t112.5 31.5q129 0 129 -105q0 -16 -3 -34l-16 -89l-2 -13q0 -12 11 -12q9 0 21 5l1 -80q-27 -12 -72 -12q-34 0 -50.5 12t-15.5 43l1 6h-1
q-18 -30 -52 -46t-74 -16q-42 0 -66 20zM177 443.5q7 -5.5 19 -5.5q20 0 38.5 15.5t22.5 40.5l1 2h-14q-38 0 -56 -8t-18 -29q0 -10 7 -15.5z" />
    <glyph glyph-name="bsuperior" horiz-adv-x="400" 
d="M224.5 367.5q-23.5 12.5 -34.5 35.5h-1l-7 -39h-124l37 200l36 216h124l-23 -131h1q18 21 46 34t56 13q48 0 74 -28.5t26 -84.5q0 -25 -6 -57q-15 -85 -56.5 -128t-98.5 -43q-26 0 -49.5 12.5zM208 502q0 -22 10 -33.5t27 -11.5q44 0 58 69q2 16 2 22q0 22 -9 34t-27 12
q-22 0 -37 -17.5t-21 -50.5q-3 -13 -3 -24z" />
    <glyph glyph-name="csuperior" horiz-adv-x="371" 
d="M98 390.5q-40 35.5 -40 97.5q0 12 4 38q13 78 68.5 124t133.5 46q72 0 108 -30t35 -86l-119 -31q0 25 -10 37.5t-28 12.5q-49 0 -62 -73q-3 -15 -3 -26q0 -25 11 -36t28 -11t32.5 13t23.5 38l108 -31q-18 -56 -64.5 -87t-114.5 -31q-71 0 -111 35.5z" />
    <glyph glyph-name="dsuperior" horiz-adv-x="400" 
d="M83 384q-26 29 -26 86q0 30 5 56q15 85 55.5 127.5t98.5 42.5q27 0 50.5 -13t33.5 -34h1l23 131h125l-40 -216l-33 -200h-125l6 39h-1q-17 -23 -45 -35.5t-56 -12.5q-46 0 -72 29zM186 502q0 -45 36 -45q21 0 36 17.5t22 51.5q2 8 2 23q0 22 -9.5 33.5t-26.5 11.5
q-22 0 -37 -17.5t-21 -50.5q-2 -9 -2 -24z" />
    <glyph glyph-name="esuperior" horiz-adv-x="365" 
d="M97 390.5q-39 35.5 -39 97.5q0 12 4 38q14 78 67 124t130 46q137 0 137 -135q0 -27 -6 -59h-209q-1 -53 45 -53q18 0 33 11t23 31l96 -27q-19 -45 -62 -77t-112 -32q-68 0 -107 35.5zM286 568q1 21 -7.5 33t-27.5 12q-40 0 -56 -45h91z" />
    <glyph glyph-name="fsuperior" horiz-adv-x="277" 
d="M125 596l-51 -1l17 92h48q0 14 2 24q20 110 136 110q53 0 88 -23l-29 -88q-17 13 -42 13q-12 0 -21 -6.5t-11 -16.5v-3q0 -6 1 -10h70l-16 -92l-72 1l-39 -232h-124z" />
    <glyph glyph-name="gsuperior" horiz-adv-x="399" 
d="M78 285.5q-33 26.5 -43 78.5l100 28q-35 7 -55 33t-20 70q0 23 4 43q13 76 54 117t99 41q26 0 49.5 -13t33.5 -34h1l6 38h125l-39 -223q-20 -110 -76.5 -157.5t-135.5 -47.5q-70 0 -103 26.5zM150.5 356.5q11.5 -10.5 37.5 -10.5q32 0 49 19.5t25 59.5l1 7h-1
q-17 -19 -45 -31t-55 -12q-10 0 -26 2q3 -24 14.5 -34.5zM198.5 492.5q9.5 -11.5 27.5 -11.5q23 0 40 19.5t17 50.5q0 19 -9.5 31t-28.5 12q-25 0 -40.5 -21t-15.5 -50q0 -19 9.5 -30.5z" />
    <glyph glyph-name="isuperior" horiz-adv-x="201" 
d="M86 527l26 160q20 -7 64 -7q41 0 61 7l-30 -160l-27 -163h-125zM139 794.5q19 12.5 56 12.5q33 0 48.5 -9t15.5 -29q0 -8 -1 -13q-5 -27 -23.5 -39t-57.5 -12q-33 0 -48 9t-15 29q0 8 1 13q5 26 24 38.5z" />
    <glyph glyph-name="ksuperior" horiz-adv-x="385" 
d="M97 576l34 204h124l-36 -195l93 102h138l-128 -125l82 -198h-132l-43 108l-35 -34l-12 -74h-124z" />
    <glyph glyph-name="msuperior" horiz-adv-x="588" 
d="M87 518l28 169h124l-10 -41h2q18 23 48 36.5t54 13.5q65 0 78 -59h1q22 27 54 43t59 16q80 0 80 -83q0 -20 -4 -40l-10 -55l-25 -154h-124l28 154l6 29q1 3 1 10q0 15 -7.5 23.5t-18.5 8.5q-17 0 -30.5 -14t-17.5 -39l-4 -18l-25 -154h-124l28 154l6 29l1 9q0 15 -7.5 24
t-18.5 9q-18 0 -31.5 -14.5t-17.5 -38.5l-3 -18l-25 -154h-124z" />
    <glyph glyph-name="osuperior" horiz-adv-x="392" 
d="M105.5 390.5q-39.5 35.5 -39.5 97.5q0 12 4 38q13 77 69 123.5t133 46.5q67 0 106 -36t39 -98q0 -18 -3 -36q-14 -78 -70 -124.5t-133 -46.5q-66 0 -105.5 35.5zM192 500q0 -45 37 -45q23 0 38.5 18.5t21.5 52.5q2 9 2 24q0 45 -37 45q-23 0 -38.5 -18t-20.5 -51
q-3 -13 -3 -26z" />
    <glyph glyph-name="psuperior" horiz-adv-x="400" 
d="M81 487l34 200h124l-6 -39h1q17 22 45.5 35t55.5 13q47 0 73 -28.5t26 -86.5q0 -30 -5 -55q-15 -85 -56 -128t-99 -43q-27 0 -50.5 13t-34.5 35h-1l-23 -135h-124zM208 502q0 -22 10 -33.5t27 -11.5q44 0 58 69q2 16 2 22q0 22 -9 34t-27 12q-22 0 -37.5 -17.5
t-20.5 -50.5q-3 -13 -3 -24z" />
    <glyph glyph-name="qsuperior" horiz-adv-x="400" 
d="M234 268l23 135h-1q-16 -21 -44.5 -34.5t-56.5 -13.5q-47 0 -73 28.5t-26 85.5q0 26 6 57q15 85 56 127.5t98 42.5q27 0 50.5 -13t33.5 -35h1l6 39h125l-36 -200l-37 -219h-125zM186 502q0 -45 36 -45q21 0 36 17.5t22 51.5q2 8 2 23q0 22 -9.5 33.5t-26.5 11.5
q-22 0 -37 -17.5t-21 -50.5q-2 -9 -2 -24z" />
    <glyph glyph-name="rsuperior" horiz-adv-x="275" 
d="M87 518l28 169h124l-10 -47h2q34 56 99 56q10 0 11 -1l-22 -123q-20 2 -27 2q-75 0 -87 -70l-4 -22l-19 -118h-124z" />
    <glyph glyph-name="tsuperior" horiz-adv-x="296" 
d="M126.5 377q-24.5 22 -24.5 69q0 23 9 72l14 78l-45 -1l16 92h44l10 54l129 42l-17 -96h85l-16 -92l-85 1l-15 -88q-2 -14 -2 -18q0 -19 9 -28t23 -9q15 0 35 4l8 -82q-20 -9 -46 -14.5t-48 -5.5q-59 0 -83.5 22z" />
    <glyph glyph-name="usuperior" horiz-adv-x="407" 
d="M411 534l-28 -170h-125l9 41h-1q-19 -24 -48.5 -37t-56.5 -13q-87 0 -87 84q0 20 4 40l9 55l26 153h124l-29 -153l-5 -28q-1 -4 -1 -12q0 -15 8 -23.5t23 -8.5q19 0 34.5 14.5t19.5 39.5l3 18l25 153h124z" />
    <glyph glyph-name="vsuperior" horiz-adv-x="371" 
d="M282 364h-158l-42 323h129l15 -209h1l85 209h124z" />
    <glyph glyph-name="zsuperior" horiz-adv-x="338" 
d="M57 454l161 136h-135l17 97h284l-16 -90l-160 -135h139l-17 -98h-289z" />
    <glyph glyph-name="periodcentered.case" horiz-adv-x="294" 
d="M72.5 285q-27.5 21 -27.5 62q0 44 33 77t102 33q46 0 73.5 -20.5t27.5 -61.5q0 -42 -32 -76.5t-103 -34.5q-46 0 -73.5 21z" />
    <glyph glyph-name="bullet.case" horiz-adv-x="381" 
d="M98 269q-33 25 -33 74q0 53 39.5 92.5t122.5 39.5q56 0 89 -25t33 -73q0 -31 -15 -61t-51.5 -51t-95.5 -21q-56 0 -89 25z" />
    <glyph glyph-name="slash.case" horiz-adv-x="477" 
d="M400 724h156l-458 -786h-155z" />
    <glyph glyph-name="backslash.case" horiz-adv-x="477" 
d="M379 -62l-458 786h156l457 -786h-155z" />
    <glyph glyph-name="period.ss01" horiz-adv-x="252" 
d="M17 169h184l-31 -169h-184z" />
    <glyph glyph-name="comma.ss01" horiz-adv-x="252" 
d="M55 5h-69l29 164h185l-20 -115q-16 -91 -73 -143.5t-149 -67.5l-2 76q84 15 99 86z" />
    <glyph glyph-name="colon.ss01" horiz-adv-x="252" 
d="M17 169h184l-31 -169h-184zM82 537h184l-31 -169h-184z" />
    <glyph glyph-name="semicolon.ss01" horiz-adv-x="252" 
d="M81 537h184l-31 -169h-184zM55 5h-69l29 164h185l-20 -115q-16 -91 -73 -143.5t-149 -67.5l-2 76q84 15 99 86z" />
    <glyph glyph-name="ellipsis.ss01" horiz-adv-x="756" 
d="M17 169h184l-31 -169h-184zM269 169h184l-31 -169h-184zM521 169h184l-31 -169h-184z" />
    <glyph glyph-name="exclam.ss01" horiz-adv-x="277" 
d="M82 470l39 223h185l-40 -223l-82 -228h-101zM30 169h182l-30 -169h-182z" />
    <glyph glyph-name="exclamdown.ss01" horiz-adv-x="277" 
d="M195 67l-39 -223h-185l40 223l82 228h101zM95 537h182l-30 -169h-182z" />
    <glyph glyph-name="question.ss01" horiz-adv-x="538" 
d="M324 434q46 38 46 77q0 23 -16 36t-42 13q-38 0 -61.5 -21.5t-40.5 -67.5l-147 42q24 71 92 133t191 62q94 0 150.5 -45.5t56.5 -124.5q0 -70 -56.5 -132.5t-188.5 -93.5l-24 -83h-122l16 140q100 27 146 65zM124 169h182l-30 -169h-182z" />
    <glyph glyph-name="questiondown.ss01" horiz-adv-x="538" 
d="M214 106q-46 -38 -46 -77q0 -23 16 -36t42 -13q38 0 61.5 21.5t40.5 67.5l147 -42q-24 -71 -92 -132.5t-191 -61.5q-94 0 -150.5 45t-56.5 124q0 70 56.5 132t188.5 93l24 82h122l-16 -139q-100 -26 -146 -64zM262 537h182l-30 -168h-182z" />
    <glyph glyph-name="periodcentered.ss01" horiz-adv-x="244" 
d="M46 355h184l-31 -169h-184z" />
    <glyph glyph-name="period.tf" horiz-adv-x="669" 
d="M212.5 6q-27.5 21 -27.5 62q0 44 33 77t102 33q46 0 73.5 -20.5t27.5 -61.5q0 -42 -32 -76.5t-103 -34.5q-46 0 -73.5 21z" />
    <glyph glyph-name="comma.tf" horiz-adv-x="669" 
d="M242 -53.5q31 22.5 35 50.5q-38 5 -58 23.5t-20 51.5q0 50 31.5 79t86.5 29q49 0 76 -24t27 -67q0 -61 -27 -114t-85 -88.5t-147 -41.5l-6 73q56 6 87 28.5z" />
    <glyph glyph-name="colon.tf" horiz-adv-x="669" 
d="M213.5 6q-27.5 21 -27.5 62q0 44 33 77t102 33q46 0 73.5 -20.5t27.5 -61.5q0 -42 -32 -76.5t-103 -34.5q-46 0 -73.5 21zM278.5 378q-27.5 21 -27.5 62q0 44 33 77t102 33q46 0 73.5 -20.5t27.5 -61.5q0 -42 -32 -76.5t-103 -34.5q-46 0 -73.5 21z" />
    <glyph glyph-name="semicolon.tf" horiz-adv-x="669" 
d="M238 -53.5q31 22.5 35 50.5q-38 5 -58 23.5t-20 51.5q0 50 31.5 79t86.5 29q49 0 76 -24t27 -67q0 -61 -27 -114t-85 -88.5t-147 -41.5l-6 73q56 6 87 28.5zM282.5 379q-27.5 21 -27.5 62q0 44 33 77t102 33q46 0 73.5 -20.5t27.5 -61.5q0 -42 -32 -76.5t-103 -34.5
q-46 0 -73.5 21z" />
    <glyph glyph-name="periodcentered.case.ss01" horiz-adv-x="244" 
d="M63 448h184l-31 -169h-184z" />
    <glyph glyph-name="bullet.case.ss01" horiz-adv-x="381" 
d="M98 269q-33 25 -33 74q0 53 39.5 92.5t122.5 39.5q56 0 89 -25t33 -73q0 -31 -15 -61t-51.5 -51t-95.5 -21q-56 0 -89 25z" />
    <glyph glyph-name="period.tf.ss01" horiz-adv-x="669" 
d="M206 169h184l-31 -169h-184z" />
    <glyph glyph-name="comma.tf.ss01" horiz-adv-x="669" 
d="M248 5h-69l29 164h185l-20 -115q-16 -91 -73 -143.5t-149 -67.5l-2 76q84 15 99 86z" />
    <glyph glyph-name="colon.tf.ss01" horiz-adv-x="669" 
d="M206 169h184l-31 -169h-184zM271 537h184l-31 -169h-184z" />
    </font>
</defs>
</svg>
