<?xml version="1.0" standalone="no"?>
<!DOCTYPE svg PUBLIC "-//W3C//DTD SVG 1.1//EN" "http://www.w3.org/Graphics/SVG/1.1/DTD/svg11.dtd" >
<svg xmlns="http://www.w3.org/2000/svg" xmlns:xlink="http://www.w3.org/1999/xlink" version="1.1">
<metadata>
Created by FontForge 20201107 at Thu May  5 17:13:00 2022
 By 
Copyright 2021 Milligram by Cosimo Lorenzo Pancini. All rights reserved.
</metadata>
<defs>
<font id="MilligramTrial-Medium" horiz-adv-x="0" >
  <font-face 
    font-family="Milligram Trial Medium"
    font-weight="500"
    font-stretch="normal"
    units-per-em="1000"
    panose-1="0 0 0 0 0 0 0 0 0 0"
    ascent="800"
    descent="-200"
    x-height="530"
    cap-height="693"
    bbox="-129 -176 1296 1022"
    underline-thickness="0"
    underline-position="0"
    unicode-range="U+000D-F8FF"
  />
<missing-glyph horiz-adv-x="370" 
d="M61 693h247v-693h-247v693zM173 346l-82 289v-577zM263 26l-79 278l-78 -278h157zM185 389l78 277h-157zM278 58v577l-82 -288z" />
    <glyph glyph-name=".notdef" horiz-adv-x="370" 
d="M61 693h247v-693h-247v693zM173 346l-82 289v-577zM263 26l-79 278l-78 -278h157zM185 389l78 277h-157zM278 58v577l-82 -288z" />
    <glyph glyph-name=".null" horiz-adv-x="600" 
 />
    <glyph glyph-name="nonmarkingreturn" unicode="&#xd;" horiz-adv-x="600" 
 />
    <glyph glyph-name="space" unicode=" " horiz-adv-x="246" 
 />
    <glyph glyph-name="exclam" unicode="!" horiz-adv-x="281" 
d="M79 452v241h123v-241l-24 -240h-75zM82 110q21 19 59 19t58.5 -19t20.5 -53t-20.5 -53t-58.5 -19t-59 19t-21 53t21 53z" />
    <glyph glyph-name="quotedbl" unicode="&#x22;" horiz-adv-x="395" 
d="M66 693h100v-264h-100v264zM230 693h101v-264h-101v264z" />
    <glyph glyph-name="numbersign" unicode="#" horiz-adv-x="593" 
d="M335 131h-125l-20 -131h-100l20 131h-106l13 85h105l22 142h-112l14 86h111l17 116h100l-17 -116h125l17 116h102l-18 -116h107l-14 -86h-106l-21 -142h114l-14 -85h-113l-20 -131h-101zM347 216l22 142h-125l-22 -142h125z" />
    <glyph glyph-name="dollar" unicode="$" horiz-adv-x="559" 
d="M317 736v-78q85 -12 135.5 -59.5t63.5 -121.5l-103 -29q-5 40 -29.5 69.5t-66.5 41.5v-176q113 -26 162 -72t49 -118q0 -83 -58.5 -130t-152.5 -54v-76h-70v77q-94 8 -151.5 57.5t-71.5 137.5l98 27q13 -55 42 -85.5t83 -39.5v185q-100 23 -147.5 69t-47.5 120
q0 82 52.5 128.5t142.5 51.5v75h70zM182.5 433q18.5 -18 64.5 -32v164q-38 -5 -60.5 -27t-22.5 -57q0 -30 18.5 -48zM391 132.5q25 22.5 25 57.5q0 28 -23.5 49t-75.5 36v-170q49 5 74 27.5z" />
    <glyph glyph-name="percent" unicode="%" horiz-adv-x="748" 
d="M64.5 412q-38.5 45 -38.5 124q0 77 38.5 120.5t109.5 43.5q70 0 108.5 -43.5t38.5 -120.5q0 -79 -38.5 -124t-108.5 -45q-71 0 -109.5 45zM135 471q14 -24 39 -24t39 24t14 65q0 38 -14 60.5t-39 22.5t-39 -22.5t-14 -60.5q0 -41 14 -65zM488 693h108l-331 -693h-107z
M465.5 273.5q38.5 44.5 108.5 44.5q71 0 109.5 -44t38.5 -122t-38.5 -122.5t-109.5 -44.5q-70 0 -108.5 44.5t-38.5 122.5q0 77 38.5 121.5zM535 88.5q14 -23.5 39 -23.5t39 23.5t14 63.5q0 39 -14 62.5t-39 23.5t-39 -23.5t-14 -62.5q0 -40 14 -63.5z" />
    <glyph glyph-name="ampersand" unicode="&#x26;" horiz-adv-x="648" 
d="M136 7.5q-51 21.5 -80.5 63t-29.5 98.5q0 61 28 107t97 94q-73 92 -73 173q0 72 46 118t141 46q83 0 132 -41.5t49 -107.5q0 -57 -32.5 -105t-110.5 -98l137 -152q50 85 67 222l105 -18q-27 -176 -100 -280q31 -29 52 -38t45 -9q10 0 22 3l12 -87q-31 -11 -59 -11
q-37 0 -68 14t-73 52q-82 -65 -193 -65q-63 0 -114 21.5zM179 113q32 -26 86 -26q59 0 107 37l-9 10l-146 162q-70 -56 -70 -114q0 -43 32 -69zM241 426q55 35 76.5 64t21.5 61q0 29 -19 46.5t-57 17.5q-37 0 -55.5 -20t-18.5 -52q0 -49 52 -117z" />
    <glyph glyph-name="quotesingle" unicode="'" horiz-adv-x="235" 
d="M66 693h103v-264h-103v264z" />
    <glyph glyph-name="parenleft" unicode="(" horiz-adv-x="315" 
d="M102.5 67q-46.5 114 -46.5 236t47 236t129 206l59 -40q-49 -85 -78.5 -190t-29.5 -212t29.5 -212t78.5 -190l-59 -40q-83 92 -129.5 206z" />
    <glyph glyph-name="parenright" unicode=")" horiz-adv-x="315" 
d="M102.5 91q29.5 105 29.5 212t-29.5 212t-78.5 190l59 40q82 -92 129 -206t47 -236t-46.5 -236t-129.5 -206l-59 40q49 85 78.5 190z" />
    <glyph glyph-name="asterisk" unicode="*" horiz-adv-x="396" 
d="M65 427l84 94l-121 23l26 80l115 -53l-13 125h84l-15 -125l117 53l26 -81l-123 -22l84 -94l-67 -50l-64 107l-66 -107z" />
    <glyph glyph-name="plus" unicode="+" horiz-adv-x="471" 
d="M55 366l132 -1l-2 130h101l-1 -130l131 1v-95l-131 1l1 -128h-101l2 128l-132 -1v95z" />
    <glyph glyph-name="comma" unicode="," horiz-adv-x="226" 
d="M85 -52.5q21 21.5 19 43.5q-67 10 -67 72q0 33 21 51.5t58 18.5q78 0 78 -86q0 -65 -35.5 -116.5t-122.5 -63.5l-15 50q43 9 64 30.5z" />
    <glyph glyph-name="hyphen" unicode="-" horiz-adv-x="381" 
d="M45 344h291v-103h-291v103z" />
    <glyph glyph-name="period" unicode="." horiz-adv-x="236" 
d="M58.5 4q-20.5 19 -20.5 54q0 34 20.5 53t59.5 19t60 -19t21 -53q0 -35 -21 -54t-60 -19t-59.5 19z" />
    <glyph glyph-name="slash" unicode="/" horiz-adv-x="442" 
d="M322 725h116l-319 -870h-115z" />
    <glyph glyph-name="zero" unicode="0" horiz-adv-x="1309" 
d="M42 462h486q4 56 44.5 94t96.5 38t96.5 -38t44.5 -94h486v-193h-1254v193zM78 118h-36v31h93l-41 -78h38v-31h-95zM41 247h50v-11h-38v-26h33v-11h-33v-29h-12v77zM94 392v-86h39v86h28v35h-96v-35h29zM101 247h12v-47q0 -9 5.5 -14.5t13.5 -5.5t14 6t6 14v47h12v-47
q0 -14 -9 -22.5t-23 -8.5q-13 0 -22 9t-9 22v47zM142 149h79v-30h-44v-9h38v-30h-38v-10h45v-30h-80v109zM207 306v35h8l15 -35h41l-21 46q14 12 14 32q0 18 -13.5 30.5t-32.5 12.5h-50v-121h39zM179 247h12v-66h35v-11h-47v77zM207 394h10q3 0 5.5 -3t2.5 -7t-2.5 -7.5
t-5.5 -3.5h-10v21zM226 149h87v-31h-26v-78h-35v78h-26v31zM237 247h12v-66h36v-11h-48v77zM315 306v121h-38v-121h38zM338 149h40l37 -109h-38l-4 17h-31l-5 -17h-36zM331 247l22 -57l22 57h14l-32 -77h-8l-32 77h14zM363 306l5 19h34l5 -19h42l-41 121h-45l-41 -121h41z
M365 86l-7 26h-1l-7 -26h15zM384 386h1l8 -29h-17zM399 247h50v-11h-38v-22h33v-10h-33v-23h38v-11h-50v77zM421 149h79v-30h-44v-16h37v-29h-37v-34h-35v109zM538 306v33h-43v88h-39v-121h82zM462 247h29q11 0 18 -7t7 -18q0 -14 -12 -21l15 -31h-14l-13 28h-18v-28h-12v77
zM491 208q5 0 9 4t4 10t-4 10t-9 4h-17v-28h17zM521 135.5q17 16.5 42 16.5t42 -16.5t17 -40.5q0 -25 -17 -41.5t-42 -16.5t-42 16.5t-17 41.5q0 24 17 40.5zM525 189q13 -9 26 -9q14 0 14 12q0 7 -17 12q-12 5 -17 9.5t-5 13.5q0 10 7 16t19 6q10 0 20 -5v-13q-9 7 -20 7
q-6 0 -10 -3t-4 -8t3.5 -7.5t12.5 -5.5q23 -9 23 -22q0 -11 -7.5 -17t-18.5 -6q-14 0 -26 7v13zM546 76.5q7 -7.5 17 -7.5t17 7.5t7 18.5t-7 18t-17 7t-17 -7t-7 -18t7 -18.5zM574 367l167 166h-171q-29 -35 -29 -81q0 -49 33 -85zM669 325q48 0 85 32h-170q37 -32 85 -32z
M754 547q-38 33 -85 33q-49 0 -85 -33h170zM589 247h12v-77h-12v77zM767 371q29 35 29 81q0 48 -32 85l-166 -166h169zM625.5 237.5q11.5 11.5 28.5 11.5t28.5 -11.5t11.5 -28.5t-11.5 -28.5t-28.5 -11.5t-28.5 11.5t-11.5 28.5t11.5 28.5zM634 188q8 -8 20 -8q11 0 19 8
t8 21q0 12 -8 20t-19 8q-12 0 -20 -8t-8 -20q0 -13 8 -21zM630 149h36l33 -58v58h35v-109h-36l-34 53l1 -53h-35v109zM706 248h6l49 -55v54h12v-79h-6l-49 54v-52h-12v78zM740 149h86v-31h-25v-78h-35v78h-26v31zM807 213h458l-13 11l8 7l25 -24l-25 -24l-8 7l13 11h-458v12
zM839.5 321q18.5 -18 46.5 -18t47 18t19 46q0 27 -19 45t-47 18t-46.5 -18t-18.5 -45q0 -28 18.5 -46zM841 143q12 9 33 9q14 0 32 -8v-34q-6 5 -15.5 8t-16.5 3q-11 0 -11 -4q0 -3 2.5 -4.5t5.5 -2t6 -1.5q36 -8 36 -35q0 -17 -12.5 -27t-31.5 -10q-22 0 -38 10v37
q25 -16 38 -16q9 0 9 6q0 4 -7 6t-10 3q-17 6 -24.5 13.5t-7.5 21.5q0 16 12 25zM867 387q8 8 19 8q12 0 19.5 -8t7.5 -20q0 -13 -7.5 -21t-19.5 -8q-11 0 -19 8t-8 21q0 12 8 20zM923 65.5q5 4.5 13 4.5q7 0 12 -4.5t5 -11.5t-5 -12t-12 -5q-8 0 -13 5t-5 12t5 11.5z
M976 135.5q17 16.5 42 16.5q13 0 23 -6v-33q-12 7 -22 7t-17.5 -7t-7.5 -18t7 -18.5t18 -7.5q15 0 25 10l-1 -35q-14 -7 -26 -7q-24 0 -41 16.5t-17 41.5q0 24 17 40.5zM999 306l-1 59l38 -59h40v121h-39v-64l-37 64h-40v-121h39zM1064.5 135.5q17.5 16.5 42.5 16.5
t42 -16.5t17 -40.5q0 -25 -17 -41.5t-42 -16.5q-26 0 -43 16.5t-17 41.5q0 24 17.5 40.5zM1089 76.5q7 -7.5 18 -7.5q10 0 17 7.5t7 18.5q0 10 -7 17.5t-17 7.5t-17.5 -7t-7.5 -18t7 -18.5zM1170 306v33h-43v88h-39v-121h82zM1192 354v-48h39v48l41 73h-45l-16 -36l-15 36
h-46zM1173 149h35l26 -50l26 50h35v-109h-34v43l-14 -27h-25l-14 27v-43h-35v109z" />
    <glyph glyph-name="one" unicode="1" horiz-adv-x="1309" 
d="M42 462h486q4 56 44.5 94t96.5 38t96.5 -38t44.5 -94h486v-193h-1254v193zM78 118h-36v31h93l-41 -78h38v-31h-95zM41 247h50v-11h-38v-26h33v-11h-33v-29h-12v77zM94 392v-86h39v86h28v35h-96v-35h29zM101 247h12v-47q0 -9 5.5 -14.5t13.5 -5.5t14 6t6 14v47h12v-47
q0 -14 -9 -22.5t-23 -8.5q-13 0 -22 9t-9 22v47zM142 149h79v-30h-44v-9h38v-30h-38v-10h45v-30h-80v109zM207 306v35h8l15 -35h41l-21 46q14 12 14 32q0 18 -13.5 30.5t-32.5 12.5h-50v-121h39zM179 247h12v-66h35v-11h-47v77zM207 394h10q3 0 5.5 -3t2.5 -7t-2.5 -7.5
t-5.5 -3.5h-10v21zM226 149h87v-31h-26v-78h-35v78h-26v31zM237 247h12v-66h36v-11h-48v77zM315 306v121h-38v-121h38zM338 149h40l37 -109h-38l-4 17h-31l-5 -17h-36zM331 247l22 -57l22 57h14l-32 -77h-8l-32 77h14zM363 306l5 19h34l5 -19h42l-41 121h-45l-41 -121h41z
M365 86l-7 26h-1l-7 -26h15zM384 386h1l8 -29h-17zM399 247h50v-11h-38v-22h33v-10h-33v-23h38v-11h-50v77zM421 149h79v-30h-44v-16h37v-29h-37v-34h-35v109zM538 306v33h-43v88h-39v-121h82zM462 247h29q11 0 18 -7t7 -18q0 -14 -12 -21l15 -31h-14l-13 28h-18v-28h-12v77
zM491 208q5 0 9 4t4 10t-4 10t-9 4h-17v-28h17zM521 135.5q17 16.5 42 16.5t42 -16.5t17 -40.5q0 -25 -17 -41.5t-42 -16.5t-42 16.5t-17 41.5q0 24 17 40.5zM525 189q13 -9 26 -9q14 0 14 12q0 7 -17 12q-12 5 -17 9.5t-5 13.5q0 10 7 16t19 6q10 0 20 -5v-13q-9 7 -20 7
q-6 0 -10 -3t-4 -8t3.5 -7.5t12.5 -5.5q23 -9 23 -22q0 -11 -7.5 -17t-18.5 -6q-14 0 -26 7v13zM546 76.5q7 -7.5 17 -7.5t17 7.5t7 18.5t-7 18t-17 7t-17 -7t-7 -18t7 -18.5zM574 367l167 166h-171q-29 -35 -29 -81q0 -49 33 -85zM669 325q48 0 85 32h-170q37 -32 85 -32z
M754 547q-38 33 -85 33q-49 0 -85 -33h170zM589 247h12v-77h-12v77zM767 371q29 35 29 81q0 48 -32 85l-166 -166h169zM625.5 237.5q11.5 11.5 28.5 11.5t28.5 -11.5t11.5 -28.5t-11.5 -28.5t-28.5 -11.5t-28.5 11.5t-11.5 28.5t11.5 28.5zM634 188q8 -8 20 -8q11 0 19 8
t8 21q0 12 -8 20t-19 8q-12 0 -20 -8t-8 -20q0 -13 8 -21zM630 149h36l33 -58v58h35v-109h-36l-34 53l1 -53h-35v109zM706 248h6l49 -55v54h12v-79h-6l-49 54v-52h-12v78zM740 149h86v-31h-25v-78h-35v78h-26v31zM807 213h458l-13 11l8 7l25 -24l-25 -24l-8 7l13 11h-458v12
zM839.5 321q18.5 -18 46.5 -18t47 18t19 46q0 27 -19 45t-47 18t-46.5 -18t-18.5 -45q0 -28 18.5 -46zM841 143q12 9 33 9q14 0 32 -8v-34q-6 5 -15.5 8t-16.5 3q-11 0 -11 -4q0 -3 2.5 -4.5t5.5 -2t6 -1.5q36 -8 36 -35q0 -17 -12.5 -27t-31.5 -10q-22 0 -38 10v37
q25 -16 38 -16q9 0 9 6q0 4 -7 6t-10 3q-17 6 -24.5 13.5t-7.5 21.5q0 16 12 25zM867 387q8 8 19 8q12 0 19.5 -8t7.5 -20q0 -13 -7.5 -21t-19.5 -8q-11 0 -19 8t-8 21q0 12 8 20zM923 65.5q5 4.5 13 4.5q7 0 12 -4.5t5 -11.5t-5 -12t-12 -5q-8 0 -13 5t-5 12t5 11.5z
M976 135.5q17 16.5 42 16.5q13 0 23 -6v-33q-12 7 -22 7t-17.5 -7t-7.5 -18t7 -18.5t18 -7.5q15 0 25 10l-1 -35q-14 -7 -26 -7q-24 0 -41 16.5t-17 41.5q0 24 17 40.5zM999 306l-1 59l38 -59h40v121h-39v-64l-37 64h-40v-121h39zM1064.5 135.5q17.5 16.5 42.5 16.5
t42 -16.5t17 -40.5q0 -25 -17 -41.5t-42 -16.5q-26 0 -43 16.5t-17 41.5q0 24 17.5 40.5zM1089 76.5q7 -7.5 18 -7.5q10 0 17 7.5t7 18.5q0 10 -7 17.5t-17 7.5t-17.5 -7t-7.5 -18t7 -18.5zM1170 306v33h-43v88h-39v-121h82zM1192 354v-48h39v48l41 73h-45l-16 -36l-15 36
h-46zM1173 149h35l26 -50l26 50h35v-109h-34v43l-14 -27h-25l-14 27v-43h-35v109z" />
    <glyph glyph-name="two" unicode="2" horiz-adv-x="1309" 
d="M42 462h486q4 56 44.5 94t96.5 38t96.5 -38t44.5 -94h486v-193h-1254v193zM78 118h-36v31h93l-41 -78h38v-31h-95zM41 247h50v-11h-38v-26h33v-11h-33v-29h-12v77zM94 392v-86h39v86h28v35h-96v-35h29zM101 247h12v-47q0 -9 5.5 -14.5t13.5 -5.5t14 6t6 14v47h12v-47
q0 -14 -9 -22.5t-23 -8.5q-13 0 -22 9t-9 22v47zM142 149h79v-30h-44v-9h38v-30h-38v-10h45v-30h-80v109zM207 306v35h8l15 -35h41l-21 46q14 12 14 32q0 18 -13.5 30.5t-32.5 12.5h-50v-121h39zM179 247h12v-66h35v-11h-47v77zM207 394h10q3 0 5.5 -3t2.5 -7t-2.5 -7.5
t-5.5 -3.5h-10v21zM226 149h87v-31h-26v-78h-35v78h-26v31zM237 247h12v-66h36v-11h-48v77zM315 306v121h-38v-121h38zM338 149h40l37 -109h-38l-4 17h-31l-5 -17h-36zM331 247l22 -57l22 57h14l-32 -77h-8l-32 77h14zM363 306l5 19h34l5 -19h42l-41 121h-45l-41 -121h41z
M365 86l-7 26h-1l-7 -26h15zM384 386h1l8 -29h-17zM399 247h50v-11h-38v-22h33v-10h-33v-23h38v-11h-50v77zM421 149h79v-30h-44v-16h37v-29h-37v-34h-35v109zM538 306v33h-43v88h-39v-121h82zM462 247h29q11 0 18 -7t7 -18q0 -14 -12 -21l15 -31h-14l-13 28h-18v-28h-12v77
zM491 208q5 0 9 4t4 10t-4 10t-9 4h-17v-28h17zM521 135.5q17 16.5 42 16.5t42 -16.5t17 -40.5q0 -25 -17 -41.5t-42 -16.5t-42 16.5t-17 41.5q0 24 17 40.5zM525 189q13 -9 26 -9q14 0 14 12q0 7 -17 12q-12 5 -17 9.5t-5 13.5q0 10 7 16t19 6q10 0 20 -5v-13q-9 7 -20 7
q-6 0 -10 -3t-4 -8t3.5 -7.5t12.5 -5.5q23 -9 23 -22q0 -11 -7.5 -17t-18.5 -6q-14 0 -26 7v13zM546 76.5q7 -7.5 17 -7.5t17 7.5t7 18.5t-7 18t-17 7t-17 -7t-7 -18t7 -18.5zM574 367l167 166h-171q-29 -35 -29 -81q0 -49 33 -85zM669 325q48 0 85 32h-170q37 -32 85 -32z
M754 547q-38 33 -85 33q-49 0 -85 -33h170zM589 247h12v-77h-12v77zM767 371q29 35 29 81q0 48 -32 85l-166 -166h169zM625.5 237.5q11.5 11.5 28.5 11.5t28.5 -11.5t11.5 -28.5t-11.5 -28.5t-28.5 -11.5t-28.5 11.5t-11.5 28.5t11.5 28.5zM634 188q8 -8 20 -8q11 0 19 8
t8 21q0 12 -8 20t-19 8q-12 0 -20 -8t-8 -20q0 -13 8 -21zM630 149h36l33 -58v58h35v-109h-36l-34 53l1 -53h-35v109zM706 248h6l49 -55v54h12v-79h-6l-49 54v-52h-12v78zM740 149h86v-31h-25v-78h-35v78h-26v31zM807 213h458l-13 11l8 7l25 -24l-25 -24l-8 7l13 11h-458v12
zM839.5 321q18.5 -18 46.5 -18t47 18t19 46q0 27 -19 45t-47 18t-46.5 -18t-18.5 -45q0 -28 18.5 -46zM841 143q12 9 33 9q14 0 32 -8v-34q-6 5 -15.5 8t-16.5 3q-11 0 -11 -4q0 -3 2.5 -4.5t5.5 -2t6 -1.5q36 -8 36 -35q0 -17 -12.5 -27t-31.5 -10q-22 0 -38 10v37
q25 -16 38 -16q9 0 9 6q0 4 -7 6t-10 3q-17 6 -24.5 13.5t-7.5 21.5q0 16 12 25zM867 387q8 8 19 8q12 0 19.5 -8t7.5 -20q0 -13 -7.5 -21t-19.5 -8q-11 0 -19 8t-8 21q0 12 8 20zM923 65.5q5 4.5 13 4.5q7 0 12 -4.5t5 -11.5t-5 -12t-12 -5q-8 0 -13 5t-5 12t5 11.5z
M976 135.5q17 16.5 42 16.5q13 0 23 -6v-33q-12 7 -22 7t-17.5 -7t-7.5 -18t7 -18.5t18 -7.5q15 0 25 10l-1 -35q-14 -7 -26 -7q-24 0 -41 16.5t-17 41.5q0 24 17 40.5zM999 306l-1 59l38 -59h40v121h-39v-64l-37 64h-40v-121h39zM1064.5 135.5q17.5 16.5 42.5 16.5
t42 -16.5t17 -40.5q0 -25 -17 -41.5t-42 -16.5q-26 0 -43 16.5t-17 41.5q0 24 17.5 40.5zM1089 76.5q7 -7.5 18 -7.5q10 0 17 7.5t7 18.5q0 10 -7 17.5t-17 7.5t-17.5 -7t-7.5 -18t7 -18.5zM1170 306v33h-43v88h-39v-121h82zM1192 354v-48h39v48l41 73h-45l-16 -36l-15 36
h-46zM1173 149h35l26 -50l26 50h35v-109h-34v43l-14 -27h-25l-14 27v-43h-35v109z" />
    <glyph glyph-name="three" unicode="3" horiz-adv-x="1309" 
d="M42 462h486q4 56 44.5 94t96.5 38t96.5 -38t44.5 -94h486v-193h-1254v193zM78 118h-36v31h93l-41 -78h38v-31h-95zM41 247h50v-11h-38v-26h33v-11h-33v-29h-12v77zM94 392v-86h39v86h28v35h-96v-35h29zM101 247h12v-47q0 -9 5.5 -14.5t13.5 -5.5t14 6t6 14v47h12v-47
q0 -14 -9 -22.5t-23 -8.5q-13 0 -22 9t-9 22v47zM142 149h79v-30h-44v-9h38v-30h-38v-10h45v-30h-80v109zM207 306v35h8l15 -35h41l-21 46q14 12 14 32q0 18 -13.5 30.5t-32.5 12.5h-50v-121h39zM179 247h12v-66h35v-11h-47v77zM207 394h10q3 0 5.5 -3t2.5 -7t-2.5 -7.5
t-5.5 -3.5h-10v21zM226 149h87v-31h-26v-78h-35v78h-26v31zM237 247h12v-66h36v-11h-48v77zM315 306v121h-38v-121h38zM338 149h40l37 -109h-38l-4 17h-31l-5 -17h-36zM331 247l22 -57l22 57h14l-32 -77h-8l-32 77h14zM363 306l5 19h34l5 -19h42l-41 121h-45l-41 -121h41z
M365 86l-7 26h-1l-7 -26h15zM384 386h1l8 -29h-17zM399 247h50v-11h-38v-22h33v-10h-33v-23h38v-11h-50v77zM421 149h79v-30h-44v-16h37v-29h-37v-34h-35v109zM538 306v33h-43v88h-39v-121h82zM462 247h29q11 0 18 -7t7 -18q0 -14 -12 -21l15 -31h-14l-13 28h-18v-28h-12v77
zM491 208q5 0 9 4t4 10t-4 10t-9 4h-17v-28h17zM521 135.5q17 16.5 42 16.5t42 -16.5t17 -40.5q0 -25 -17 -41.5t-42 -16.5t-42 16.5t-17 41.5q0 24 17 40.5zM525 189q13 -9 26 -9q14 0 14 12q0 7 -17 12q-12 5 -17 9.5t-5 13.5q0 10 7 16t19 6q10 0 20 -5v-13q-9 7 -20 7
q-6 0 -10 -3t-4 -8t3.5 -7.5t12.5 -5.5q23 -9 23 -22q0 -11 -7.5 -17t-18.5 -6q-14 0 -26 7v13zM546 76.5q7 -7.5 17 -7.5t17 7.5t7 18.5t-7 18t-17 7t-17 -7t-7 -18t7 -18.5zM574 367l167 166h-171q-29 -35 -29 -81q0 -49 33 -85zM669 325q48 0 85 32h-170q37 -32 85 -32z
M754 547q-38 33 -85 33q-49 0 -85 -33h170zM589 247h12v-77h-12v77zM767 371q29 35 29 81q0 48 -32 85l-166 -166h169zM625.5 237.5q11.5 11.5 28.5 11.5t28.5 -11.5t11.5 -28.5t-11.5 -28.5t-28.5 -11.5t-28.5 11.5t-11.5 28.5t11.5 28.5zM634 188q8 -8 20 -8q11 0 19 8
t8 21q0 12 -8 20t-19 8q-12 0 -20 -8t-8 -20q0 -13 8 -21zM630 149h36l33 -58v58h35v-109h-36l-34 53l1 -53h-35v109zM706 248h6l49 -55v54h12v-79h-6l-49 54v-52h-12v78zM740 149h86v-31h-25v-78h-35v78h-26v31zM807 213h458l-13 11l8 7l25 -24l-25 -24l-8 7l13 11h-458v12
zM839.5 321q18.5 -18 46.5 -18t47 18t19 46q0 27 -19 45t-47 18t-46.5 -18t-18.5 -45q0 -28 18.5 -46zM841 143q12 9 33 9q14 0 32 -8v-34q-6 5 -15.5 8t-16.5 3q-11 0 -11 -4q0 -3 2.5 -4.5t5.5 -2t6 -1.5q36 -8 36 -35q0 -17 -12.5 -27t-31.5 -10q-22 0 -38 10v37
q25 -16 38 -16q9 0 9 6q0 4 -7 6t-10 3q-17 6 -24.5 13.5t-7.5 21.5q0 16 12 25zM867 387q8 8 19 8q12 0 19.5 -8t7.5 -20q0 -13 -7.5 -21t-19.5 -8q-11 0 -19 8t-8 21q0 12 8 20zM923 65.5q5 4.5 13 4.5q7 0 12 -4.5t5 -11.5t-5 -12t-12 -5q-8 0 -13 5t-5 12t5 11.5z
M976 135.5q17 16.5 42 16.5q13 0 23 -6v-33q-12 7 -22 7t-17.5 -7t-7.5 -18t7 -18.5t18 -7.5q15 0 25 10l-1 -35q-14 -7 -26 -7q-24 0 -41 16.5t-17 41.5q0 24 17 40.5zM999 306l-1 59l38 -59h40v121h-39v-64l-37 64h-40v-121h39zM1064.5 135.5q17.5 16.5 42.5 16.5
t42 -16.5t17 -40.5q0 -25 -17 -41.5t-42 -16.5q-26 0 -43 16.5t-17 41.5q0 24 17.5 40.5zM1089 76.5q7 -7.5 18 -7.5q10 0 17 7.5t7 18.5q0 10 -7 17.5t-17 7.5t-17.5 -7t-7.5 -18t7 -18.5zM1170 306v33h-43v88h-39v-121h82zM1192 354v-48h39v48l41 73h-45l-16 -36l-15 36
h-46zM1173 149h35l26 -50l26 50h35v-109h-34v43l-14 -27h-25l-14 27v-43h-35v109z" />
    <glyph glyph-name="four" unicode="4" horiz-adv-x="1309" 
d="M42 462h486q4 56 44.5 94t96.5 38t96.5 -38t44.5 -94h486v-193h-1254v193zM78 118h-36v31h93l-41 -78h38v-31h-95zM41 247h50v-11h-38v-26h33v-11h-33v-29h-12v77zM94 392v-86h39v86h28v35h-96v-35h29zM101 247h12v-47q0 -9 5.5 -14.5t13.5 -5.5t14 6t6 14v47h12v-47
q0 -14 -9 -22.5t-23 -8.5q-13 0 -22 9t-9 22v47zM142 149h79v-30h-44v-9h38v-30h-38v-10h45v-30h-80v109zM207 306v35h8l15 -35h41l-21 46q14 12 14 32q0 18 -13.5 30.5t-32.5 12.5h-50v-121h39zM179 247h12v-66h35v-11h-47v77zM207 394h10q3 0 5.5 -3t2.5 -7t-2.5 -7.5
t-5.5 -3.5h-10v21zM226 149h87v-31h-26v-78h-35v78h-26v31zM237 247h12v-66h36v-11h-48v77zM315 306v121h-38v-121h38zM338 149h40l37 -109h-38l-4 17h-31l-5 -17h-36zM331 247l22 -57l22 57h14l-32 -77h-8l-32 77h14zM363 306l5 19h34l5 -19h42l-41 121h-45l-41 -121h41z
M365 86l-7 26h-1l-7 -26h15zM384 386h1l8 -29h-17zM399 247h50v-11h-38v-22h33v-10h-33v-23h38v-11h-50v77zM421 149h79v-30h-44v-16h37v-29h-37v-34h-35v109zM538 306v33h-43v88h-39v-121h82zM462 247h29q11 0 18 -7t7 -18q0 -14 -12 -21l15 -31h-14l-13 28h-18v-28h-12v77
zM491 208q5 0 9 4t4 10t-4 10t-9 4h-17v-28h17zM521 135.5q17 16.5 42 16.5t42 -16.5t17 -40.5q0 -25 -17 -41.5t-42 -16.5t-42 16.5t-17 41.5q0 24 17 40.5zM525 189q13 -9 26 -9q14 0 14 12q0 7 -17 12q-12 5 -17 9.5t-5 13.5q0 10 7 16t19 6q10 0 20 -5v-13q-9 7 -20 7
q-6 0 -10 -3t-4 -8t3.5 -7.5t12.5 -5.5q23 -9 23 -22q0 -11 -7.5 -17t-18.5 -6q-14 0 -26 7v13zM546 76.5q7 -7.5 17 -7.5t17 7.5t7 18.5t-7 18t-17 7t-17 -7t-7 -18t7 -18.5zM574 367l167 166h-171q-29 -35 -29 -81q0 -49 33 -85zM669 325q48 0 85 32h-170q37 -32 85 -32z
M754 547q-38 33 -85 33q-49 0 -85 -33h170zM589 247h12v-77h-12v77zM767 371q29 35 29 81q0 48 -32 85l-166 -166h169zM625.5 237.5q11.5 11.5 28.5 11.5t28.5 -11.5t11.5 -28.5t-11.5 -28.5t-28.5 -11.5t-28.5 11.5t-11.5 28.5t11.5 28.5zM634 188q8 -8 20 -8q11 0 19 8
t8 21q0 12 -8 20t-19 8q-12 0 -20 -8t-8 -20q0 -13 8 -21zM630 149h36l33 -58v58h35v-109h-36l-34 53l1 -53h-35v109zM706 248h6l49 -55v54h12v-79h-6l-49 54v-52h-12v78zM740 149h86v-31h-25v-78h-35v78h-26v31zM807 213h458l-13 11l8 7l25 -24l-25 -24l-8 7l13 11h-458v12
zM839.5 321q18.5 -18 46.5 -18t47 18t19 46q0 27 -19 45t-47 18t-46.5 -18t-18.5 -45q0 -28 18.5 -46zM841 143q12 9 33 9q14 0 32 -8v-34q-6 5 -15.5 8t-16.5 3q-11 0 -11 -4q0 -3 2.5 -4.5t5.5 -2t6 -1.5q36 -8 36 -35q0 -17 -12.5 -27t-31.5 -10q-22 0 -38 10v37
q25 -16 38 -16q9 0 9 6q0 4 -7 6t-10 3q-17 6 -24.5 13.5t-7.5 21.5q0 16 12 25zM867 387q8 8 19 8q12 0 19.5 -8t7.5 -20q0 -13 -7.5 -21t-19.5 -8q-11 0 -19 8t-8 21q0 12 8 20zM923 65.5q5 4.5 13 4.5q7 0 12 -4.5t5 -11.5t-5 -12t-12 -5q-8 0 -13 5t-5 12t5 11.5z
M976 135.5q17 16.5 42 16.5q13 0 23 -6v-33q-12 7 -22 7t-17.5 -7t-7.5 -18t7 -18.5t18 -7.5q15 0 25 10l-1 -35q-14 -7 -26 -7q-24 0 -41 16.5t-17 41.5q0 24 17 40.5zM999 306l-1 59l38 -59h40v121h-39v-64l-37 64h-40v-121h39zM1064.5 135.5q17.5 16.5 42.5 16.5
t42 -16.5t17 -40.5q0 -25 -17 -41.5t-42 -16.5q-26 0 -43 16.5t-17 41.5q0 24 17.5 40.5zM1089 76.5q7 -7.5 18 -7.5q10 0 17 7.5t7 18.5q0 10 -7 17.5t-17 7.5t-17.5 -7t-7.5 -18t7 -18.5zM1170 306v33h-43v88h-39v-121h82zM1192 354v-48h39v48l41 73h-45l-16 -36l-15 36
h-46zM1173 149h35l26 -50l26 50h35v-109h-34v43l-14 -27h-25l-14 27v-43h-35v109z" />
    <glyph glyph-name="five" unicode="5" horiz-adv-x="1309" 
d="M42 462h486q4 56 44.5 94t96.5 38t96.5 -38t44.5 -94h486v-193h-1254v193zM78 118h-36v31h93l-41 -78h38v-31h-95zM41 247h50v-11h-38v-26h33v-11h-33v-29h-12v77zM94 392v-86h39v86h28v35h-96v-35h29zM101 247h12v-47q0 -9 5.5 -14.5t13.5 -5.5t14 6t6 14v47h12v-47
q0 -14 -9 -22.5t-23 -8.5q-13 0 -22 9t-9 22v47zM142 149h79v-30h-44v-9h38v-30h-38v-10h45v-30h-80v109zM207 306v35h8l15 -35h41l-21 46q14 12 14 32q0 18 -13.5 30.5t-32.5 12.5h-50v-121h39zM179 247h12v-66h35v-11h-47v77zM207 394h10q3 0 5.5 -3t2.5 -7t-2.5 -7.5
t-5.5 -3.5h-10v21zM226 149h87v-31h-26v-78h-35v78h-26v31zM237 247h12v-66h36v-11h-48v77zM315 306v121h-38v-121h38zM338 149h40l37 -109h-38l-4 17h-31l-5 -17h-36zM331 247l22 -57l22 57h14l-32 -77h-8l-32 77h14zM363 306l5 19h34l5 -19h42l-41 121h-45l-41 -121h41z
M365 86l-7 26h-1l-7 -26h15zM384 386h1l8 -29h-17zM399 247h50v-11h-38v-22h33v-10h-33v-23h38v-11h-50v77zM421 149h79v-30h-44v-16h37v-29h-37v-34h-35v109zM538 306v33h-43v88h-39v-121h82zM462 247h29q11 0 18 -7t7 -18q0 -14 -12 -21l15 -31h-14l-13 28h-18v-28h-12v77
zM491 208q5 0 9 4t4 10t-4 10t-9 4h-17v-28h17zM521 135.5q17 16.5 42 16.5t42 -16.5t17 -40.5q0 -25 -17 -41.5t-42 -16.5t-42 16.5t-17 41.5q0 24 17 40.5zM525 189q13 -9 26 -9q14 0 14 12q0 7 -17 12q-12 5 -17 9.5t-5 13.5q0 10 7 16t19 6q10 0 20 -5v-13q-9 7 -20 7
q-6 0 -10 -3t-4 -8t3.5 -7.5t12.5 -5.5q23 -9 23 -22q0 -11 -7.5 -17t-18.5 -6q-14 0 -26 7v13zM546 76.5q7 -7.5 17 -7.5t17 7.5t7 18.5t-7 18t-17 7t-17 -7t-7 -18t7 -18.5zM574 367l167 166h-171q-29 -35 -29 -81q0 -49 33 -85zM669 325q48 0 85 32h-170q37 -32 85 -32z
M754 547q-38 33 -85 33q-49 0 -85 -33h170zM589 247h12v-77h-12v77zM767 371q29 35 29 81q0 48 -32 85l-166 -166h169zM625.5 237.5q11.5 11.5 28.5 11.5t28.5 -11.5t11.5 -28.5t-11.5 -28.5t-28.5 -11.5t-28.5 11.5t-11.5 28.5t11.5 28.5zM634 188q8 -8 20 -8q11 0 19 8
t8 21q0 12 -8 20t-19 8q-12 0 -20 -8t-8 -20q0 -13 8 -21zM630 149h36l33 -58v58h35v-109h-36l-34 53l1 -53h-35v109zM706 248h6l49 -55v54h12v-79h-6l-49 54v-52h-12v78zM740 149h86v-31h-25v-78h-35v78h-26v31zM807 213h458l-13 11l8 7l25 -24l-25 -24l-8 7l13 11h-458v12
zM839.5 321q18.5 -18 46.5 -18t47 18t19 46q0 27 -19 45t-47 18t-46.5 -18t-18.5 -45q0 -28 18.5 -46zM841 143q12 9 33 9q14 0 32 -8v-34q-6 5 -15.5 8t-16.5 3q-11 0 -11 -4q0 -3 2.5 -4.5t5.5 -2t6 -1.5q36 -8 36 -35q0 -17 -12.5 -27t-31.5 -10q-22 0 -38 10v37
q25 -16 38 -16q9 0 9 6q0 4 -7 6t-10 3q-17 6 -24.5 13.5t-7.5 21.5q0 16 12 25zM867 387q8 8 19 8q12 0 19.5 -8t7.5 -20q0 -13 -7.5 -21t-19.5 -8q-11 0 -19 8t-8 21q0 12 8 20zM923 65.5q5 4.5 13 4.5q7 0 12 -4.5t5 -11.5t-5 -12t-12 -5q-8 0 -13 5t-5 12t5 11.5z
M976 135.5q17 16.5 42 16.5q13 0 23 -6v-33q-12 7 -22 7t-17.5 -7t-7.5 -18t7 -18.5t18 -7.5q15 0 25 10l-1 -35q-14 -7 -26 -7q-24 0 -41 16.5t-17 41.5q0 24 17 40.5zM999 306l-1 59l38 -59h40v121h-39v-64l-37 64h-40v-121h39zM1064.5 135.5q17.5 16.5 42.5 16.5
t42 -16.5t17 -40.5q0 -25 -17 -41.5t-42 -16.5q-26 0 -43 16.5t-17 41.5q0 24 17.5 40.5zM1089 76.5q7 -7.5 18 -7.5q10 0 17 7.5t7 18.5q0 10 -7 17.5t-17 7.5t-17.5 -7t-7.5 -18t7 -18.5zM1170 306v33h-43v88h-39v-121h82zM1192 354v-48h39v48l41 73h-45l-16 -36l-15 36
h-46zM1173 149h35l26 -50l26 50h35v-109h-34v43l-14 -27h-25l-14 27v-43h-35v109z" />
    <glyph glyph-name="six" unicode="6" horiz-adv-x="1309" 
d="M42 462h486q4 56 44.5 94t96.5 38t96.5 -38t44.5 -94h486v-193h-1254v193zM78 118h-36v31h93l-41 -78h38v-31h-95zM41 247h50v-11h-38v-26h33v-11h-33v-29h-12v77zM94 392v-86h39v86h28v35h-96v-35h29zM101 247h12v-47q0 -9 5.5 -14.5t13.5 -5.5t14 6t6 14v47h12v-47
q0 -14 -9 -22.5t-23 -8.5q-13 0 -22 9t-9 22v47zM142 149h79v-30h-44v-9h38v-30h-38v-10h45v-30h-80v109zM207 306v35h8l15 -35h41l-21 46q14 12 14 32q0 18 -13.5 30.5t-32.5 12.5h-50v-121h39zM179 247h12v-66h35v-11h-47v77zM207 394h10q3 0 5.5 -3t2.5 -7t-2.5 -7.5
t-5.5 -3.5h-10v21zM226 149h87v-31h-26v-78h-35v78h-26v31zM237 247h12v-66h36v-11h-48v77zM315 306v121h-38v-121h38zM338 149h40l37 -109h-38l-4 17h-31l-5 -17h-36zM331 247l22 -57l22 57h14l-32 -77h-8l-32 77h14zM363 306l5 19h34l5 -19h42l-41 121h-45l-41 -121h41z
M365 86l-7 26h-1l-7 -26h15zM384 386h1l8 -29h-17zM399 247h50v-11h-38v-22h33v-10h-33v-23h38v-11h-50v77zM421 149h79v-30h-44v-16h37v-29h-37v-34h-35v109zM538 306v33h-43v88h-39v-121h82zM462 247h29q11 0 18 -7t7 -18q0 -14 -12 -21l15 -31h-14l-13 28h-18v-28h-12v77
zM491 208q5 0 9 4t4 10t-4 10t-9 4h-17v-28h17zM521 135.5q17 16.5 42 16.5t42 -16.5t17 -40.5q0 -25 -17 -41.5t-42 -16.5t-42 16.5t-17 41.5q0 24 17 40.5zM525 189q13 -9 26 -9q14 0 14 12q0 7 -17 12q-12 5 -17 9.5t-5 13.5q0 10 7 16t19 6q10 0 20 -5v-13q-9 7 -20 7
q-6 0 -10 -3t-4 -8t3.5 -7.5t12.5 -5.5q23 -9 23 -22q0 -11 -7.5 -17t-18.5 -6q-14 0 -26 7v13zM546 76.5q7 -7.5 17 -7.5t17 7.5t7 18.5t-7 18t-17 7t-17 -7t-7 -18t7 -18.5zM574 367l167 166h-171q-29 -35 -29 -81q0 -49 33 -85zM669 325q48 0 85 32h-170q37 -32 85 -32z
M754 547q-38 33 -85 33q-49 0 -85 -33h170zM589 247h12v-77h-12v77zM767 371q29 35 29 81q0 48 -32 85l-166 -166h169zM625.5 237.5q11.5 11.5 28.5 11.5t28.5 -11.5t11.5 -28.5t-11.5 -28.5t-28.5 -11.5t-28.5 11.5t-11.5 28.5t11.5 28.5zM634 188q8 -8 20 -8q11 0 19 8
t8 21q0 12 -8 20t-19 8q-12 0 -20 -8t-8 -20q0 -13 8 -21zM630 149h36l33 -58v58h35v-109h-36l-34 53l1 -53h-35v109zM706 248h6l49 -55v54h12v-79h-6l-49 54v-52h-12v78zM740 149h86v-31h-25v-78h-35v78h-26v31zM807 213h458l-13 11l8 7l25 -24l-25 -24l-8 7l13 11h-458v12
zM839.5 321q18.5 -18 46.5 -18t47 18t19 46q0 27 -19 45t-47 18t-46.5 -18t-18.5 -45q0 -28 18.5 -46zM841 143q12 9 33 9q14 0 32 -8v-34q-6 5 -15.5 8t-16.5 3q-11 0 -11 -4q0 -3 2.5 -4.5t5.5 -2t6 -1.5q36 -8 36 -35q0 -17 -12.5 -27t-31.5 -10q-22 0 -38 10v37
q25 -16 38 -16q9 0 9 6q0 4 -7 6t-10 3q-17 6 -24.5 13.5t-7.5 21.5q0 16 12 25zM867 387q8 8 19 8q12 0 19.5 -8t7.5 -20q0 -13 -7.5 -21t-19.5 -8q-11 0 -19 8t-8 21q0 12 8 20zM923 65.5q5 4.5 13 4.5q7 0 12 -4.5t5 -11.5t-5 -12t-12 -5q-8 0 -13 5t-5 12t5 11.5z
M976 135.5q17 16.5 42 16.5q13 0 23 -6v-33q-12 7 -22 7t-17.5 -7t-7.5 -18t7 -18.5t18 -7.5q15 0 25 10l-1 -35q-14 -7 -26 -7q-24 0 -41 16.5t-17 41.5q0 24 17 40.5zM999 306l-1 59l38 -59h40v121h-39v-64l-37 64h-40v-121h39zM1064.5 135.5q17.5 16.5 42.5 16.5
t42 -16.5t17 -40.5q0 -25 -17 -41.5t-42 -16.5q-26 0 -43 16.5t-17 41.5q0 24 17.5 40.5zM1089 76.5q7 -7.5 18 -7.5q10 0 17 7.5t7 18.5q0 10 -7 17.5t-17 7.5t-17.5 -7t-7.5 -18t7 -18.5zM1170 306v33h-43v88h-39v-121h82zM1192 354v-48h39v48l41 73h-45l-16 -36l-15 36
h-46zM1173 149h35l26 -50l26 50h35v-109h-34v43l-14 -27h-25l-14 27v-43h-35v109z" />
    <glyph glyph-name="seven" unicode="7" horiz-adv-x="1309" 
d="M42 462h486q4 56 44.5 94t96.5 38t96.5 -38t44.5 -94h486v-193h-1254v193zM78 118h-36v31h93l-41 -78h38v-31h-95zM41 247h50v-11h-38v-26h33v-11h-33v-29h-12v77zM94 392v-86h39v86h28v35h-96v-35h29zM101 247h12v-47q0 -9 5.5 -14.5t13.5 -5.5t14 6t6 14v47h12v-47
q0 -14 -9 -22.5t-23 -8.5q-13 0 -22 9t-9 22v47zM142 149h79v-30h-44v-9h38v-30h-38v-10h45v-30h-80v109zM207 306v35h8l15 -35h41l-21 46q14 12 14 32q0 18 -13.5 30.5t-32.5 12.5h-50v-121h39zM179 247h12v-66h35v-11h-47v77zM207 394h10q3 0 5.5 -3t2.5 -7t-2.5 -7.5
t-5.5 -3.5h-10v21zM226 149h87v-31h-26v-78h-35v78h-26v31zM237 247h12v-66h36v-11h-48v77zM315 306v121h-38v-121h38zM338 149h40l37 -109h-38l-4 17h-31l-5 -17h-36zM331 247l22 -57l22 57h14l-32 -77h-8l-32 77h14zM363 306l5 19h34l5 -19h42l-41 121h-45l-41 -121h41z
M365 86l-7 26h-1l-7 -26h15zM384 386h1l8 -29h-17zM399 247h50v-11h-38v-22h33v-10h-33v-23h38v-11h-50v77zM421 149h79v-30h-44v-16h37v-29h-37v-34h-35v109zM538 306v33h-43v88h-39v-121h82zM462 247h29q11 0 18 -7t7 -18q0 -14 -12 -21l15 -31h-14l-13 28h-18v-28h-12v77
zM491 208q5 0 9 4t4 10t-4 10t-9 4h-17v-28h17zM521 135.5q17 16.5 42 16.5t42 -16.5t17 -40.5q0 -25 -17 -41.5t-42 -16.5t-42 16.5t-17 41.5q0 24 17 40.5zM525 189q13 -9 26 -9q14 0 14 12q0 7 -17 12q-12 5 -17 9.5t-5 13.5q0 10 7 16t19 6q10 0 20 -5v-13q-9 7 -20 7
q-6 0 -10 -3t-4 -8t3.5 -7.5t12.5 -5.5q23 -9 23 -22q0 -11 -7.5 -17t-18.5 -6q-14 0 -26 7v13zM546 76.5q7 -7.5 17 -7.5t17 7.5t7 18.5t-7 18t-17 7t-17 -7t-7 -18t7 -18.5zM574 367l167 166h-171q-29 -35 -29 -81q0 -49 33 -85zM669 325q48 0 85 32h-170q37 -32 85 -32z
M754 547q-38 33 -85 33q-49 0 -85 -33h170zM589 247h12v-77h-12v77zM767 371q29 35 29 81q0 48 -32 85l-166 -166h169zM625.5 237.5q11.5 11.5 28.5 11.5t28.5 -11.5t11.5 -28.5t-11.5 -28.5t-28.5 -11.5t-28.5 11.5t-11.5 28.5t11.5 28.5zM634 188q8 -8 20 -8q11 0 19 8
t8 21q0 12 -8 20t-19 8q-12 0 -20 -8t-8 -20q0 -13 8 -21zM630 149h36l33 -58v58h35v-109h-36l-34 53l1 -53h-35v109zM706 248h6l49 -55v54h12v-79h-6l-49 54v-52h-12v78zM740 149h86v-31h-25v-78h-35v78h-26v31zM807 213h458l-13 11l8 7l25 -24l-25 -24l-8 7l13 11h-458v12
zM839.5 321q18.5 -18 46.5 -18t47 18t19 46q0 27 -19 45t-47 18t-46.5 -18t-18.5 -45q0 -28 18.5 -46zM841 143q12 9 33 9q14 0 32 -8v-34q-6 5 -15.5 8t-16.5 3q-11 0 -11 -4q0 -3 2.5 -4.5t5.5 -2t6 -1.5q36 -8 36 -35q0 -17 -12.5 -27t-31.5 -10q-22 0 -38 10v37
q25 -16 38 -16q9 0 9 6q0 4 -7 6t-10 3q-17 6 -24.5 13.5t-7.5 21.5q0 16 12 25zM867 387q8 8 19 8q12 0 19.5 -8t7.5 -20q0 -13 -7.5 -21t-19.5 -8q-11 0 -19 8t-8 21q0 12 8 20zM923 65.5q5 4.5 13 4.5q7 0 12 -4.5t5 -11.5t-5 -12t-12 -5q-8 0 -13 5t-5 12t5 11.5z
M976 135.5q17 16.5 42 16.5q13 0 23 -6v-33q-12 7 -22 7t-17.5 -7t-7.5 -18t7 -18.5t18 -7.5q15 0 25 10l-1 -35q-14 -7 -26 -7q-24 0 -41 16.5t-17 41.5q0 24 17 40.5zM999 306l-1 59l38 -59h40v121h-39v-64l-37 64h-40v-121h39zM1064.5 135.5q17.5 16.5 42.5 16.5
t42 -16.5t17 -40.5q0 -25 -17 -41.5t-42 -16.5q-26 0 -43 16.5t-17 41.5q0 24 17.5 40.5zM1089 76.5q7 -7.5 18 -7.5q10 0 17 7.5t7 18.5q0 10 -7 17.5t-17 7.5t-17.5 -7t-7.5 -18t7 -18.5zM1170 306v33h-43v88h-39v-121h82zM1192 354v-48h39v48l41 73h-45l-16 -36l-15 36
h-46zM1173 149h35l26 -50l26 50h35v-109h-34v43l-14 -27h-25l-14 27v-43h-35v109z" />
    <glyph glyph-name="eight" unicode="8" horiz-adv-x="1309" 
d="M42 462h486q4 56 44.5 94t96.5 38t96.5 -38t44.5 -94h486v-193h-1254v193zM78 118h-36v31h93l-41 -78h38v-31h-95zM41 247h50v-11h-38v-26h33v-11h-33v-29h-12v77zM94 392v-86h39v86h28v35h-96v-35h29zM101 247h12v-47q0 -9 5.5 -14.5t13.5 -5.5t14 6t6 14v47h12v-47
q0 -14 -9 -22.5t-23 -8.5q-13 0 -22 9t-9 22v47zM142 149h79v-30h-44v-9h38v-30h-38v-10h45v-30h-80v109zM207 306v35h8l15 -35h41l-21 46q14 12 14 32q0 18 -13.5 30.5t-32.5 12.5h-50v-121h39zM179 247h12v-66h35v-11h-47v77zM207 394h10q3 0 5.5 -3t2.5 -7t-2.5 -7.5
t-5.5 -3.5h-10v21zM226 149h87v-31h-26v-78h-35v78h-26v31zM237 247h12v-66h36v-11h-48v77zM315 306v121h-38v-121h38zM338 149h40l37 -109h-38l-4 17h-31l-5 -17h-36zM331 247l22 -57l22 57h14l-32 -77h-8l-32 77h14zM363 306l5 19h34l5 -19h42l-41 121h-45l-41 -121h41z
M365 86l-7 26h-1l-7 -26h15zM384 386h1l8 -29h-17zM399 247h50v-11h-38v-22h33v-10h-33v-23h38v-11h-50v77zM421 149h79v-30h-44v-16h37v-29h-37v-34h-35v109zM538 306v33h-43v88h-39v-121h82zM462 247h29q11 0 18 -7t7 -18q0 -14 -12 -21l15 -31h-14l-13 28h-18v-28h-12v77
zM491 208q5 0 9 4t4 10t-4 10t-9 4h-17v-28h17zM521 135.5q17 16.5 42 16.5t42 -16.5t17 -40.5q0 -25 -17 -41.5t-42 -16.5t-42 16.5t-17 41.5q0 24 17 40.5zM525 189q13 -9 26 -9q14 0 14 12q0 7 -17 12q-12 5 -17 9.5t-5 13.5q0 10 7 16t19 6q10 0 20 -5v-13q-9 7 -20 7
q-6 0 -10 -3t-4 -8t3.5 -7.5t12.5 -5.5q23 -9 23 -22q0 -11 -7.5 -17t-18.5 -6q-14 0 -26 7v13zM546 76.5q7 -7.5 17 -7.5t17 7.5t7 18.5t-7 18t-17 7t-17 -7t-7 -18t7 -18.5zM574 367l167 166h-171q-29 -35 -29 -81q0 -49 33 -85zM669 325q48 0 85 32h-170q37 -32 85 -32z
M754 547q-38 33 -85 33q-49 0 -85 -33h170zM589 247h12v-77h-12v77zM767 371q29 35 29 81q0 48 -32 85l-166 -166h169zM625.5 237.5q11.5 11.5 28.5 11.5t28.5 -11.5t11.5 -28.5t-11.5 -28.5t-28.5 -11.5t-28.5 11.5t-11.5 28.5t11.5 28.5zM634 188q8 -8 20 -8q11 0 19 8
t8 21q0 12 -8 20t-19 8q-12 0 -20 -8t-8 -20q0 -13 8 -21zM630 149h36l33 -58v58h35v-109h-36l-34 53l1 -53h-35v109zM706 248h6l49 -55v54h12v-79h-6l-49 54v-52h-12v78zM740 149h86v-31h-25v-78h-35v78h-26v31zM807 213h458l-13 11l8 7l25 -24l-25 -24l-8 7l13 11h-458v12
zM839.5 321q18.5 -18 46.5 -18t47 18t19 46q0 27 -19 45t-47 18t-46.5 -18t-18.5 -45q0 -28 18.5 -46zM841 143q12 9 33 9q14 0 32 -8v-34q-6 5 -15.5 8t-16.5 3q-11 0 -11 -4q0 -3 2.5 -4.5t5.5 -2t6 -1.5q36 -8 36 -35q0 -17 -12.5 -27t-31.5 -10q-22 0 -38 10v37
q25 -16 38 -16q9 0 9 6q0 4 -7 6t-10 3q-17 6 -24.5 13.5t-7.5 21.5q0 16 12 25zM867 387q8 8 19 8q12 0 19.5 -8t7.5 -20q0 -13 -7.5 -21t-19.5 -8q-11 0 -19 8t-8 21q0 12 8 20zM923 65.5q5 4.5 13 4.5q7 0 12 -4.5t5 -11.5t-5 -12t-12 -5q-8 0 -13 5t-5 12t5 11.5z
M976 135.5q17 16.5 42 16.5q13 0 23 -6v-33q-12 7 -22 7t-17.5 -7t-7.5 -18t7 -18.5t18 -7.5q15 0 25 10l-1 -35q-14 -7 -26 -7q-24 0 -41 16.5t-17 41.5q0 24 17 40.5zM999 306l-1 59l38 -59h40v121h-39v-64l-37 64h-40v-121h39zM1064.5 135.5q17.5 16.5 42.5 16.5
t42 -16.5t17 -40.5q0 -25 -17 -41.5t-42 -16.5q-26 0 -43 16.5t-17 41.5q0 24 17.5 40.5zM1089 76.5q7 -7.5 18 -7.5q10 0 17 7.5t7 18.5q0 10 -7 17.5t-17 7.5t-17.5 -7t-7.5 -18t7 -18.5zM1170 306v33h-43v88h-39v-121h82zM1192 354v-48h39v48l41 73h-45l-16 -36l-15 36
h-46zM1173 149h35l26 -50l26 50h35v-109h-34v43l-14 -27h-25l-14 27v-43h-35v109z" />
    <glyph glyph-name="nine" unicode="9" horiz-adv-x="1309" 
d="M42 462h486q4 56 44.5 94t96.5 38t96.5 -38t44.5 -94h486v-193h-1254v193zM78 118h-36v31h93l-41 -78h38v-31h-95zM41 247h50v-11h-38v-26h33v-11h-33v-29h-12v77zM94 392v-86h39v86h28v35h-96v-35h29zM101 247h12v-47q0 -9 5.5 -14.5t13.5 -5.5t14 6t6 14v47h12v-47
q0 -14 -9 -22.5t-23 -8.5q-13 0 -22 9t-9 22v47zM142 149h79v-30h-44v-9h38v-30h-38v-10h45v-30h-80v109zM207 306v35h8l15 -35h41l-21 46q14 12 14 32q0 18 -13.5 30.5t-32.5 12.5h-50v-121h39zM179 247h12v-66h35v-11h-47v77zM207 394h10q3 0 5.5 -3t2.5 -7t-2.5 -7.5
t-5.5 -3.5h-10v21zM226 149h87v-31h-26v-78h-35v78h-26v31zM237 247h12v-66h36v-11h-48v77zM315 306v121h-38v-121h38zM338 149h40l37 -109h-38l-4 17h-31l-5 -17h-36zM331 247l22 -57l22 57h14l-32 -77h-8l-32 77h14zM363 306l5 19h34l5 -19h42l-41 121h-45l-41 -121h41z
M365 86l-7 26h-1l-7 -26h15zM384 386h1l8 -29h-17zM399 247h50v-11h-38v-22h33v-10h-33v-23h38v-11h-50v77zM421 149h79v-30h-44v-16h37v-29h-37v-34h-35v109zM538 306v33h-43v88h-39v-121h82zM462 247h29q11 0 18 -7t7 -18q0 -14 -12 -21l15 -31h-14l-13 28h-18v-28h-12v77
zM491 208q5 0 9 4t4 10t-4 10t-9 4h-17v-28h17zM521 135.5q17 16.5 42 16.5t42 -16.5t17 -40.5q0 -25 -17 -41.5t-42 -16.5t-42 16.5t-17 41.5q0 24 17 40.5zM525 189q13 -9 26 -9q14 0 14 12q0 7 -17 12q-12 5 -17 9.5t-5 13.5q0 10 7 16t19 6q10 0 20 -5v-13q-9 7 -20 7
q-6 0 -10 -3t-4 -8t3.5 -7.5t12.5 -5.5q23 -9 23 -22q0 -11 -7.5 -17t-18.5 -6q-14 0 -26 7v13zM546 76.5q7 -7.5 17 -7.5t17 7.5t7 18.5t-7 18t-17 7t-17 -7t-7 -18t7 -18.5zM574 367l167 166h-171q-29 -35 -29 -81q0 -49 33 -85zM669 325q48 0 85 32h-170q37 -32 85 -32z
M754 547q-38 33 -85 33q-49 0 -85 -33h170zM589 247h12v-77h-12v77zM767 371q29 35 29 81q0 48 -32 85l-166 -166h169zM625.5 237.5q11.5 11.5 28.5 11.5t28.5 -11.5t11.5 -28.5t-11.5 -28.5t-28.5 -11.5t-28.5 11.5t-11.5 28.5t11.5 28.5zM634 188q8 -8 20 -8q11 0 19 8
t8 21q0 12 -8 20t-19 8q-12 0 -20 -8t-8 -20q0 -13 8 -21zM630 149h36l33 -58v58h35v-109h-36l-34 53l1 -53h-35v109zM706 248h6l49 -55v54h12v-79h-6l-49 54v-52h-12v78zM740 149h86v-31h-25v-78h-35v78h-26v31zM807 213h458l-13 11l8 7l25 -24l-25 -24l-8 7l13 11h-458v12
zM839.5 321q18.5 -18 46.5 -18t47 18t19 46q0 27 -19 45t-47 18t-46.5 -18t-18.5 -45q0 -28 18.5 -46zM841 143q12 9 33 9q14 0 32 -8v-34q-6 5 -15.5 8t-16.5 3q-11 0 -11 -4q0 -3 2.5 -4.5t5.5 -2t6 -1.5q36 -8 36 -35q0 -17 -12.5 -27t-31.5 -10q-22 0 -38 10v37
q25 -16 38 -16q9 0 9 6q0 4 -7 6t-10 3q-17 6 -24.5 13.5t-7.5 21.5q0 16 12 25zM867 387q8 8 19 8q12 0 19.5 -8t7.5 -20q0 -13 -7.5 -21t-19.5 -8q-11 0 -19 8t-8 21q0 12 8 20zM923 65.5q5 4.5 13 4.5q7 0 12 -4.5t5 -11.5t-5 -12t-12 -5q-8 0 -13 5t-5 12t5 11.5z
M976 135.5q17 16.5 42 16.5q13 0 23 -6v-33q-12 7 -22 7t-17.5 -7t-7.5 -18t7 -18.5t18 -7.5q15 0 25 10l-1 -35q-14 -7 -26 -7q-24 0 -41 16.5t-17 41.5q0 24 17 40.5zM999 306l-1 59l38 -59h40v121h-39v-64l-37 64h-40v-121h39zM1064.5 135.5q17.5 16.5 42.5 16.5
t42 -16.5t17 -40.5q0 -25 -17 -41.5t-42 -16.5q-26 0 -43 16.5t-17 41.5q0 24 17.5 40.5zM1089 76.5q7 -7.5 18 -7.5q10 0 17 7.5t7 18.5q0 10 -7 17.5t-17 7.5t-17.5 -7t-7.5 -18t7 -18.5zM1170 306v33h-43v88h-39v-121h82zM1192 354v-48h39v48l41 73h-45l-16 -36l-15 36
h-46zM1173 149h35l26 -50l26 50h35v-109h-34v43l-14 -27h-25l-14 27v-43h-35v109z" />
    <glyph glyph-name="colon" unicode=":" horiz-adv-x="236" 
d="M58.5 4q-20.5 19 -20.5 54q0 34 20.5 53t59.5 19t60 -19t21 -53q0 -35 -21 -54t-60 -19t-59.5 19zM58.5 416q-20.5 19 -20.5 54q0 34 20.5 53t59.5 19t60 -19t21 -53q0 -35 -21 -54t-60 -19t-59.5 19z" />
    <glyph glyph-name="semicolon" unicode=";" horiz-adv-x="230" 
d="M85 -52.5q21 21.5 19 43.5q-67 10 -67 72q0 33 21 51.5t58 18.5q78 0 78 -86q0 -65 -35.5 -116.5t-122.5 -63.5l-15 50q43 9 64 30.5zM57.5 418q-20.5 19 -20.5 54q0 34 20.5 53t59.5 19t60 -19t21 -53q0 -35 -21 -54t-60 -19t-59.5 19z" />
    <glyph glyph-name="less" unicode="&#x3c;" horiz-adv-x="583" 
d="M38 231v99l490 210v-111l-367 -145v-5l367 -141v-118z" />
    <glyph glyph-name="equal" unicode="=" horiz-adv-x="471" 
d="M55 446l181 -2l180 2v-87l-180 2l-181 -2v87zM55 276l181 -2l180 2v-87l-180 2l-181 -2v87z" />
    <glyph glyph-name="greater" unicode="&#x3e;" horiz-adv-x="583" 
d="M55 138l367 141v5l-367 145v111l490 -210v-99l-490 -211v118z" />
    <glyph glyph-name="question" unicode="?" horiz-adv-x="514" 
d="M179 220q0 66 23 106.5t84 78.5q70 43 70 113q0 36 -26.5 59.5t-72.5 23.5q-94 0 -117 -108l-106 28q13 73 69 130t163 57q66 0 113.5 -23.5t72 -64t24.5 -91.5q0 -74 -35 -120.5t-86 -77.5q-38 -22 -54 -47t-16 -64q0 -12 2 -34h-106q-2 24 -2 34zM177.5 110
q21.5 19 59.5 19t59.5 -19t21.5 -53t-21.5 -53t-59.5 -19t-59.5 19t-21.5 53t21.5 53z" />
    <glyph glyph-name="at" unicode="@" horiz-adv-x="792" 
d="M200 -67.5q-82 41.5 -128 121t-46 188.5q0 115 49 204.5t137.5 139.5t204.5 50q100 0 179.5 -40.5t124.5 -114t45 -169.5q0 -114 -49.5 -180.5t-132.5 -66.5q-52 0 -83.5 26.5t-36.5 69.5h-1q-17 -35 -50 -53t-69 -18q-55 0 -89.5 37t-34.5 104q0 55 17 105.5t52.5 82.5
t87.5 32q33 0 59 -15.5t36 -37.5h1l4 44h99l-27 -205q-2 -24 -2 -31q0 -29 11 -42.5t36 -13.5q79 0 79 153q0 75 -31 131.5t-89 87t-137 30.5q-88 0 -155.5 -38.5t-104 -108.5t-36.5 -161q0 -83 35 -143.5t96.5 -93t140.5 -32.5q47 0 91.5 9.5t79.5 28.5l24 -73
q-38 -24 -90.5 -36.5t-108.5 -12.5q-106 0 -188 41.5zM338 193.5q14 -19.5 42 -19.5q37 0 57.5 38t20.5 83q0 35 -15.5 53.5t-39.5 18.5q-39 0 -59 -37t-20 -84q0 -33 14 -52.5z" />
    <glyph glyph-name="A" unicode="A" horiz-adv-x="653" 
d="M131 347l120 346h147l122 -346l129 -347h-143l-54 163l-129 1l-127 -1l-53 -163h-139zM323 264l100 1l-99 289h-2l-97 -289z" />
    <glyph glyph-name="B" unicode="B" horiz-adv-x="629" 
d="M64 347l-3 346h285q114 0 176 -41.5t62 -134.5q0 -64 -32 -104t-95 -54v-3q74 -9 113 -49.5t39 -112.5q0 -97 -71.5 -145.5t-193.5 -48.5h-283zM192 99h140q147 0 147 107q0 102 -144 102h-145zM335 404q65 0 94 24.5t29 70.5q0 51 -32 74t-96 23h-138l-2 -192h145z" />
    <glyph glyph-name="C" unicode="C" horiz-adv-x="648" 
d="M173 28.5q-71 43.5 -109 125t-38 192.5q0 112 38 193.5t109.5 125t168.5 43.5q122 0 196 -64t90 -172l-119 -32q-11 73 -54.5 115t-110.5 42q-86 0 -134.5 -66.5t-48.5 -184.5q0 -117 48.5 -183t133.5 -66q72 0 115 44t54 128l119 -33q-16 -116 -92.5 -183.5
t-197.5 -67.5q-97 0 -168 43.5z" />
    <glyph glyph-name="D" unicode="D" horiz-adv-x="668" 
d="M64 346l-3 347h216q182 0 273.5 -85t91.5 -253q0 -179 -90.5 -267t-274.5 -88h-216zM193 113h84q117 0 174.5 59t57.5 183q0 226 -232 226h-84l-3 -235z" />
    <glyph glyph-name="E" unicode="E" horiz-adv-x="580" 
d="M64 347l-3 346h480v-109h-348l-1 -179h325v-102h-325l1 -194h357v-109h-489z" />
    <glyph glyph-name="F" unicode="F" horiz-adv-x="544" 
d="M64 347l-3 346h460v-109h-328l-1 -189h311v-103h-311l3 -292h-134z" />
    <glyph glyph-name="G" unicode="G" horiz-adv-x="672" 
d="M169.5 28.5q-68.5 43.5 -106 125.5t-37.5 193t38 192.5t110 125t170 43.5q122 0 196.5 -64t90.5 -171l-119 -33q-12 73 -55.5 115t-114.5 42q-84 0 -132.5 -66.5t-48.5 -184.5q0 -120 47 -186t132 -66q161 0 176 181l-194 -2v96h312l-2 -191l10 -179h-89l-13 89
q-30 -52 -85.5 -77.5t-124.5 -25.5q-92 0 -160.5 43.5z" />
    <glyph glyph-name="H" unicode="H" horiz-adv-x="691" 
d="M64 347l-3 346h134l-3 -286l153 -2l153 2l-2 286h134l-4 -346l4 -347h-134l2 295l-153 2l-153 -2l3 -295h-134z" />
    <glyph glyph-name="I" unicode="I" horiz-adv-x="256" 
d="M64 347l-3 346h134l-3 -346l3 -347h-134z" />
    <glyph glyph-name="J" unicode="J" horiz-adv-x="379" 
d="M6 -5l15 109q42 -7 68 -7q58 0 82 36.5t25 109.5l2 233l-2 217h134l-2 -217l2 -228q1 -136 -56 -199.5t-170 -63.5q-50 0 -98 10z" />
    <glyph glyph-name="K" unicode="K" horiz-adv-x="637" 
d="M64 347l-3 346h134l-3 -325l261 325h156l-228 -274l252 -419h-146l-190 318l-104 -124l2 -194h-134z" />
    <glyph glyph-name="L" unicode="L" horiz-adv-x="530" 
d="M64 365l-3 328h134l-3 -328l2 -252h314v-113h-447z" />
    <glyph glyph-name="M" unicode="M" horiz-adv-x="828" 
d="M64 338l-3 355h172l106 -323l74 -219h3l178 542h172l-1 -342l2 -351h-122l4 304v216h-3l-79 -233l-92 -287h-121l-93 286l-79 234h-3v-216l4 -304h-122z" />
    <glyph glyph-name="N" unicode="N" horiz-adv-x="682" 
d="M64 346l-3 347h148l167 -300l116 -204h3v205l-2 299h128l-3 -346l3 -347h-148l-152 276l-131 229h-3v-205l2 -300h-128z" />
    <glyph glyph-name="O" unicode="O" horiz-adv-x="703" 
d="M177.5 28.5q-73.5 43.5 -112.5 125t-39 193.5t39.5 193.5t112.5 124.5t173 43q101 0 174.5 -43t112.5 -124t39 -194q0 -112 -39.5 -193.5t-113 -125t-173.5 -43.5t-173.5 43.5zM211 162.5q50 -65.5 140 -65.5q89 0 140.5 66t51.5 184q0 120 -50.5 185t-141.5 65
q-89 0 -139.5 -65.5t-50.5 -184.5t50 -184.5z" />
    <glyph glyph-name="P" unicode="P" horiz-adv-x="617" 
d="M64 347l-3 346h266q130 0 199.5 -54.5t69.5 -163.5q0 -225 -276 -225h-127l2 -250h-134zM328 357q139 0 139 117q0 54 -36 82t-103 28h-135v-227h135z" />
    <glyph glyph-name="Q" unicode="Q" horiz-adv-x="703" 
d="M177.5 28.5q-73.5 43.5 -112.5 125t-39 193.5t39.5 193.5t112.5 124.5t173 43q101 0 174.5 -43t112.5 -124t39 -194q0 -85 -23 -152.5t-67 -115.5l152 -120l-115 -65l-143 114q-60 -23 -130 -23q-100 0 -173.5 43.5zM211 162.5q50 -65.5 140 -65.5q89 0 140.5 66
t51.5 184q0 120 -50.5 185t-141.5 65q-89 0 -139.5 -65.5t-50.5 -184.5t50 -184.5z" />
    <glyph glyph-name="R" unicode="R" horiz-adv-x="643" 
d="M64 347l-3 346h266q133 0 201 -52.5t68 -156.5q0 -128 -111 -169q42 -20 63 -60.5t27 -106.5q5 -58 11 -93.5t16 -54.5h-135q-14 32 -23 143q-4 53 -18 79t-40 34t-74 8h-119l2 -264h-134zM326 365q70 0 105.5 28.5t35.5 81.5q0 55 -34 82t-105 27h-135v-219h133z" />
    <glyph glyph-name="S" unicode="S" horiz-adv-x="594" 
d="M110 42q-72 57 -86 159l111 27q14 -67 54 -100.5t118 -33.5q62 0 94.5 26.5t32.5 69.5t-33.5 68t-112.5 42q-126 28 -183 77t-57 136q0 93 61.5 144t170.5 51q118 0 188 -54.5t84 -146.5l-115 -29q-6 54 -44.5 88t-106.5 34q-52 0 -81.5 -23t-29.5 -63q0 -41 33 -64
t114 -41q129 -27 185 -78t56 -141q0 -98 -70.5 -151.5t-182.5 -53.5q-128 0 -200 57z" />
    <glyph glyph-name="T" unicode="T" horiz-adv-x="522" 
d="M197 325l-2 259h-189v109h509v-109h-188l-3 -259l4 -325h-134z" />
    <glyph glyph-name="U" unicode="U" horiz-adv-x="662" 
d="M117 61.5q-70 76.5 -68 231.5l2 208l-2 192h134l-3 -192l3 -223q2 -181 148 -181q147 0 149 181l2 223l-2 192h133l-2 -192l2 -208q2 -155 -67.5 -231.5t-214.5 -76.5q-144 0 -214 76.5z" />
    <glyph glyph-name="V" unicode="V" horiz-adv-x="633" 
d="M127 354l-123 339h143l97 -316l75 -230h2l73 230l96 316h139l-122 -340l-121 -353h-137z" />
    <glyph glyph-name="W" unicode="W" horiz-adv-x="920" 
d="M96 355l-92 338h138l71 -322l53 -220h3l59 224l77 318h113l80 -317l61 -225h2l52 219l71 323h132l-90 -337l-88 -356h-148l-81 304l-49 191h-2l-48 -191l-81 -304h-145z" />
    <glyph glyph-name="X" unicode="X" horiz-adv-x="637" 
d="M229 362l-210 331h148l152 -240h2l150 240h145l-208 -330l226 -363h-148l-167 269h-2l-169 -269h-144z" />
    <glyph glyph-name="Y" unicode="Y" horiz-adv-x="605" 
d="M237 249l-233 444h147l150 -307h2l155 307h143l-235 -444l2 -249h-133z" />
    <glyph glyph-name="Z" unicode="Z" horiz-adv-x="574" 
d="M19 106l206 260l161 215h-360v112h524v-105l-207 -262l-160 -213h372v-113h-536v106z" />
    <glyph glyph-name="bracketleft" unicode="[" horiz-adv-x="324" 
d="M61 727h239v-92h-123v-672h123v-92h-239v856z" />
    <glyph glyph-name="backslash" unicode="\" horiz-adv-x="442" 
d="M323 -145l-319 870h116l318 -870h-115z" />
    <glyph glyph-name="bracketright" unicode="]" horiz-adv-x="324" 
d="M24 -129v92h123v672h-123v92h239v-856h-239z" />
    <glyph glyph-name="asciicircum" unicode="^" horiz-adv-x="452" 
d="M178 692h96l123 -228h-81l-90 154l-90 -154h-81z" />
    <glyph glyph-name="underscore" unicode="_" horiz-adv-x="499" 
d="M-1 -51h501v-77h-501v77z" />
    <glyph glyph-name="grave" unicode="`" horiz-adv-x="229" 
d="M25 773h121l48 -149h-76z" />
    <glyph glyph-name="a" unicode="a" horiz-adv-x="566" 
d="M74 26q-45 41 -45 109q0 93 73 132t229 39h39v15q0 63 -25.5 95.5t-83.5 32.5q-61 0 -89 -37t-27 -85l-104 24q3 56 30.5 99.5t77.5 68.5t117 25q112 0 166 -54t54 -157v-208q0 -26 8 -37t30 -11q17 0 32 7l16 -81q-38 -14 -80 -14q-46 0 -71.5 23t-28.5 70q0 12 2 24h-2
q-25 -57 -74 -89t-118 -32q-81 0 -126 41zM169.5 95.5q21.5 -18.5 59.5 -18.5q35 0 68 19t53 53t20 78v8h-24q-106 0 -152 -19.5t-46 -70.5q0 -31 21.5 -49.5z" />
    <glyph glyph-name="b" unicode="b" horiz-adv-x="582" 
d="M245.5 11.5q-42.5 26.5 -62.5 62.5h-2l1 -74h-126l3 312l-3 382h126l-2 -239h2q21 36 63.5 62.5t99.5 26.5q101 0 156.5 -71.5t55.5 -208.5q0 -136 -55.5 -207.5t-156.5 -71.5q-57 0 -99.5 26.5zM217.5 128q37.5 -41 89.5 -41q61 0 93.5 45.5t32.5 131.5t-32.5 132
t-93.5 46q-55 0 -91 -44.5t-36 -131.5q0 -97 37.5 -138z" />
    <glyph glyph-name="c" unicode="c" horiz-adv-x="527" 
d="M148 19q-59 34 -91 97t-32 148t31.5 148.5t90 97.5t136.5 34q98 0 158 -52t73 -134l-110 -29q-9 55 -40 85t-79 30q-62 0 -98.5 -46.5t-36.5 -133.5q0 -85 36.5 -132t98.5 -47q47 0 78.5 30t40.5 86l110 -29q-13 -82 -72 -134.5t-156 -52.5q-79 0 -138 34z" />
    <glyph glyph-name="d" unicode="d" horiz-adv-x="582" 
d="M80.5 56.5q-55.5 71.5 -55.5 207.5q0 137 55.5 208.5t156.5 71.5q57 0 99.5 -26.5t63.5 -62.5h2l-2 239h126l-3 -382l3 -312h-126l1 74h-2q-20 -36 -62.5 -62.5t-99.5 -26.5q-101 0 -156.5 71.5zM181.5 132.5q32.5 -45.5 93.5 -45.5q52 0 89.5 41t37.5 138
q0 87 -36 131.5t-91 44.5q-61 0 -93.5 -46t-32.5 -132t32.5 -131.5z" />
    <glyph glyph-name="e" unicode="e" horiz-adv-x="540" 
d="M146.5 19q-58.5 34 -90 97.5t-31.5 147.5q0 129 67 204t184 75q126 0 182.5 -85.5t56.5 -221.5l-365 -1q6 -73 42.5 -112.5t92.5 -39.5q47 0 78.5 31t41.5 84l107 -28q-14 -77 -72.5 -131t-156.5 -54q-78 0 -136.5 34zM395 317q-2 59 -32.5 94t-84.5 35q-50 0 -83 -32
t-42 -97h242z" />
    <glyph glyph-name="f" unicode="f" horiz-adv-x="363" 
d="M99 437l-96 -2v95h92q-3 23 -3 36q0 75 42 121t123 46q66 0 120 -27l-18 -89q-40 16 -77 16q-69 0 -69 -72q0 -15 2 -31h144v-95l-141 2l3 -437h-124z" />
    <glyph glyph-name="g" unicode="g" horiz-adv-x="582" 
d="M108.5 -126.5q-60.5 46.5 -68.5 117.5l104 30q3 -49 35.5 -75.5t89.5 -26.5q78 0 105.5 45.5t27.5 130.5v22h-3q-20 -35 -62 -61t-100 -26q-99 0 -155.5 67t-56.5 187q0 115 55.5 187.5t155.5 72.5q58 0 100.5 -26.5t63.5 -62.5h2l-1 75h125v-400q0 -159 -64.5 -231
t-188.5 -72q-104 0 -164.5 46.5zM182.5 169.5q32.5 -42.5 90.5 -42.5q54 0 91.5 37.5t37.5 119.5q0 62 -32 110t-97 48q-56 0 -89.5 -43.5t-33.5 -114.5q0 -72 32.5 -114.5z" />
    <glyph glyph-name="h" unicode="h" horiz-adv-x="586" 
d="M59 255l-3 439h124l-2 -241h2q21 40 66 65.5t102 25.5q90 0 135.5 -53t45.5 -166v-70l3 -255h-124l2 255v56q0 64 -28 95.5t-78 31.5q-54 0 -90 -40.5t-36 -106.5v-36l2 -255h-124z" />
    <glyph glyph-name="i" unicode="i" horiz-adv-x="236" 
d="M59 266l-3 264q34 -4 62 -4t62 4l-2 -264l2 -266h-124zM63 694q18 16 56 16q37 0 55 -16t18 -48q0 -33 -17.5 -48.5t-55.5 -15.5t-56 15.5t-18 48.5q0 32 18 48z" />
    <glyph glyph-name="j" unicode="j" horiz-adv-x="239" 
d="M-21 -164.5q-27 4.5 -48 12.5l19 91q25 -9 53 -9q30 0 44.5 20t14.5 64v99l-3 417q34 -4 62 -4t62 4l-2 -418v-82q0 -106 -37 -152.5t-116 -46.5q-22 0 -49 4.5zM66 694q18 16 56 16q37 0 55 -16t18 -48q0 -33 -17.5 -48.5t-55.5 -15.5t-56 15.5t-18 48.5q0 32 18 48z
" />
    <glyph glyph-name="k" unicode="k" horiz-adv-x="541" 
d="M59 352l-3 342h124l-2 -342v-41l191 219h142l-180 -198l207 -332h-136l-151 244l-72 -79l1 -165h-124z" />
    <glyph glyph-name="l" unicode="l" horiz-adv-x="236" 
d="M59 352l-3 342h124l-2 -342l2 -352h-124z" />
    <glyph glyph-name="m" unicode="m" horiz-adv-x="866" 
d="M59 255l-3 275h123l-2 -77h2q22 39 65 65t93 26q51 0 88 -27.5t54 -82.5h2q27 51 73.5 80.5t98.5 29.5q74 0 115.5 -51.5t41.5 -157.5v-80l2 -255h-123l2 255v66q0 58 -23 87.5t-60 29.5q-31 0 -57 -18t-42 -51.5t-16 -77.5v-36l3 -255h-124l2 255v66q0 58 -22.5 87.5
t-59.5 29.5q-31 0 -57 -18t-42 -51.5t-16 -77.5v-36l2 -255h-123z" />
    <glyph glyph-name="n" unicode="n" horiz-adv-x="583" 
d="M59 255l-3 275h124l-2 -77h2q21 41 65.5 66t102.5 25q89 0 134 -53t45 -166v-70l2 -255h-123l2 255v56q0 63 -28 95.5t-77 32.5q-54 0 -89.5 -41t-35.5 -107v-36l2 -255h-124z" />
    <glyph glyph-name="o" unicode="o" horiz-adv-x="567" 
d="M146.5 19q-58.5 34 -90 97.5t-31.5 148.5t31.5 148t89.5 97t136 34q79 0 137.5 -34t90.5 -97t32 -148t-32 -148.5t-91 -97.5t-137 -34q-77 0 -135.5 34zM184.5 133q35.5 -47 98.5 -47t99 47t36 132q0 84 -36 130.5t-99 46.5t-98.5 -46.5t-35.5 -130.5q0 -85 35.5 -132z
" />
    <glyph glyph-name="p" unicode="p" horiz-adv-x="582" 
d="M59 219l-3 311h126l-1 -74h2q20 36 62.5 62t99.5 26q101 0 156.5 -71t55.5 -207t-55.5 -208.5t-156.5 -72.5q-57 0 -99.5 27t-63.5 64h-2l2 -236h-126zM217.5 128q37.5 -41 89.5 -41q61 0 93.5 46.5t32.5 132.5t-32.5 131t-93.5 45q-55 0 -91 -45t-36 -133
q0 -95 37.5 -136z" />
    <glyph glyph-name="q" unicode="q" horiz-adv-x="582" 
d="M400 -160l2 236h-2q-21 -37 -63.5 -64t-99.5 -27q-101 0 -156.5 72.5t-55.5 208.5t55.5 207t156.5 71q57 0 99.5 -26t62.5 -62h2l-1 74h126l-3 -311l3 -379h-126zM181.5 133.5q32.5 -46.5 93.5 -46.5q52 0 89.5 41t37.5 136q0 88 -36 133t-91 45q-61 0 -93.5 -45
t-32.5 -131t32.5 -132.5z" />
    <glyph glyph-name="r" unicode="r" horiz-adv-x="374" 
d="M59 254l-3 276h124l-3 -82h2q16 41 55 68.5t98 27.5q20 0 32 -4v-119q-25 6 -44 6q-69 0 -105.5 -42.5t-36.5 -126.5v-21l2 -237h-124z" />
    <glyph glyph-name="s" unicode="s" horiz-adv-x="474" 
d="M80 27.5q-58 42.5 -69 124.5l105 27q2 -44 34 -70t94 -26q93 0 93 63q0 29 -24.5 46.5t-87.5 29.5q-99 18 -144.5 57.5t-45.5 105.5q0 72 51.5 115.5t142.5 43.5q99 0 152.5 -39t64.5 -118l-104 -27q-10 86 -110 86q-37 0 -56.5 -15t-19.5 -40q0 -28 23 -44.5t83 -28.5
q104 -19 150 -59.5t46 -110.5q0 -73 -56.5 -118t-159.5 -45q-104 0 -162 42.5z" />
    <glyph glyph-name="t" unicode="t" horiz-adv-x="374" 
d="M137 13.5q-38 28.5 -49 74.5t-10 120l1 229l-79 -2v95h78v165h123v-165h156v-95l-157 2l1 -242q0 -59 16.5 -85t58.5 -26q35 0 73 12l22 -87q-60 -24 -119 -24q-77 0 -115 28.5z" />
    <glyph glyph-name="u" unicode="u" horiz-adv-x="578" 
d="M520 275l2 -275h-123l2 77h-2q-22 -40 -66 -65t-98 -25q-88 0 -133 53t-45 166v69l-3 255h124l-2 -255v-56q0 -63 27.5 -95t76.5 -32q33 0 60.5 18t44 51.5t16.5 77.5v36l-2 255h123z" />
    <glyph glyph-name="v" unicode="v" horiz-adv-x="519" 
d="M335 0h-154l-178 530h127l130 -415h3l131 415h123z" />
    <glyph glyph-name="w" unicode="w" horiz-adv-x="751" 
d="M3 530h124l94 -409h2l99 409h113l102 -409h1l93 409h118l-140 -530h-140l-91 369h-2l-93 -369h-141z" />
    <glyph glyph-name="x" unicode="x" horiz-adv-x="524" 
d="M181 273l-168 257h140l111 -185h2l110 185h136l-167 -257l177 -273h-139l-121 198h-2l-121 -198h-136z" />
    <glyph glyph-name="y" unicode="y" horiz-adv-x="520" 
d="M92 -167q-27 4 -48 11l21 91q33 -7 59 -7q30 0 49 16t35 52l-205 534h128l137 -378h2l123 378h125l-187 -526q-34 -96 -81 -135.5t-110 -39.5q-21 0 -48 4z" />
    <glyph glyph-name="z" unicode="z" horiz-adv-x="478" 
d="M24 91l275 339h-272v100h421v-92l-273 -338h279v-100h-430v91z" />
    <glyph glyph-name="braceleft" unicode="{" horiz-adv-x="320" 
d="M141.5 -94q-37.5 36 -37.5 108v158q0 40 -16.5 60.5t-61.5 20.5v92q45 0 61.5 20.5t16.5 60.5v159q0 72 37.5 108t115.5 36h39v-92h-21q-26 0 -39.5 -10.5t-13.5 -38.5v-136q0 -72 -18 -106.5t-69 -46.5q51 -12 69 -46.5t18 -106.5v-135q0 -29 13 -39t40 -10h21v-92h-39
q-78 0 -115.5 36z" />
    <glyph glyph-name="bar" unicode="|" horiz-adv-x="245" 
d="M184 693v-793h-123v793h123z" />
    <glyph glyph-name="braceright" unicode="}" horiz-adv-x="320" 
d="M24 -130v92h21q27 0 40 10t13 39v135q0 72 18 106.5t69 46.5q-51 12 -69 46.5t-18 106.5v136q0 28 -13.5 38.5t-39.5 10.5h-21v92h39q78 0 115.5 -36t37.5 -108v-159q0 -40 16.5 -60.5t61.5 -20.5v-92q-45 0 -61.5 -20.5t-16.5 -60.5v-158q0 -72 -37.5 -108t-115.5 -36
h-39z" />
    <glyph glyph-name="asciitilde" unicode="~" horiz-adv-x="514" 
d="M78 339.5q24 46.5 81 46.5q30 0 57 -14t67 -42q24 -17 37.5 -25t24.5 -8q21 0 28 22t7 57h79q1 -67 -23.5 -113.5t-81.5 -46.5q-30 0 -58.5 15t-63.5 41q-23 16 -37.5 24.5t-25.5 8.5q-22 0 -29 -22t-7 -57h-78q-1 67 23 113.5z" />
    <glyph glyph-name="DEL" horiz-adv-x="600" 
 />
    <glyph glyph-name="uni00A0" unicode="&#xa0;" horiz-adv-x="246" 
 />
    <glyph glyph-name="exclamdown" unicode="&#xa1;" horiz-adv-x="281" 
d="M178 318l24 -240v-241h-123v241l24 240h75zM82 526q21 19 59 19t58.5 -19t20.5 -53t-20.5 -53t-58.5 -19t-59 19t-21 53t21 53z" />
    <glyph glyph-name="cent" unicode="&#xa2;" horiz-adv-x="527" 
d="M313 693v-96q83 -8 135 -56t66 -118l-102 -27q-8 43 -33.5 71t-65.5 35v-320q40 7 65.5 34.5t33.5 71.5l102 -27q-14 -71 -66 -119.5t-135 -55.5v-86h-70v88q-100 13 -159 82.5t-59 171.5q0 103 58.5 172t159.5 82v97h70zM168.5 239.5q26.5 -41.5 74.5 -54.5v314
q-48 -13 -74.5 -54.5t-26.5 -102.5t26.5 -102.5z" />
    <glyph glyph-name="sterling" unicode="&#xa3;" horiz-adv-x="635" 
d="M59.5 23.5q-33.5 28.5 -33.5 79.5q0 44 31 70.5t81 26.5q41 0 101 -23v5q0 34 -13.5 65t-39.5 71h-117v56h80q-23 37 -35.5 72.5t-12.5 75.5q0 80 58 128t158 48q120 0 185.5 -60t78.5 -154l-118 -32q-18 135 -134 135q-48 0 -73 -23t-25 -67q0 -24 12.5 -51.5
t37.5 -71.5h161v-56h-130q37 -70 37 -127q0 -33 -11 -63q36 -19 61.5 -28.5t46.5 -9.5q60 0 55 132l108 -29q-2 -95 -32 -146t-102 -51q-42 0 -82 17t-92 49q-26 -31 -64.5 -49t-88.5 -18q-55 0 -88.5 28.5zM131 83.5q10 -7.5 27 -7.5q43 0 64 32q-38 20 -66 20
q-17 0 -26 -6.5t-9 -17.5q0 -13 10 -20.5z" />
    <glyph glyph-name="currency" unicode="&#xa4;" horiz-adv-x="482" 
d="M149 159l-67 -67l-56 55l69 68q-28 40 -28 91q0 50 28 92l-69 68l56 55l67 -67q44 27 93 27q50 0 91 -27l67 67l55 -55l-66 -67q27 -47 27 -93q0 -48 -28 -92l67 -67l-55 -55l-67 67q-41 -27 -91 -27q-46 0 -93 27zM175 240q28 -28 67 -28q38 0 66 28t28 66
q0 39 -28 66.5t-66 27.5q-39 0 -67 -27.5t-28 -66.5q0 -38 28 -66z" />
    <glyph glyph-name="yen" unicode="&#xa5;" horiz-adv-x="605" 
d="M236 133h-156v63h157v52h-157v63h124l-200 382h147l150 -307h2l155 307h143l-202 -382h126v-63h-159v-52h159v-63h-158l1 -133h-133z" />
    <glyph glyph-name="brokenbar" unicode="&#xa6;" horiz-adv-x="245" 
d="M184 693v-335h-123v335h123zM61 235h123v-335h-123v335z" />
    <glyph glyph-name="section" unicode="&#xa7;" horiz-adv-x="496" 
d="M102.5 -60.5q-58.5 41.5 -67.5 112.5l112 30q2 -38 30.5 -61t75.5 -23q39 0 60 17t21 45q0 29 -23.5 48.5t-87.5 35.5q-108 25 -153.5 62t-45.5 105q0 33 16.5 64.5t41.5 50.5q-51 44 -51 117t54 119t146 46q96 0 154.5 -41.5t68.5 -112.5l-113 -30q-2 39 -30 61.5
t-76 22.5q-39 0 -60 -17t-21 -45q0 -29 23.5 -48.5t87.5 -35.5q108 -25 153.5 -62t45.5 -105q0 -33 -16.5 -64.5t-41.5 -50.5q51 -43 51 -117q0 -73 -54 -119t-146 -46q-96 0 -154.5 41.5zM166 277q22 -16 79 -30q28 -7 66 -20q33 27 33 62q0 24 -21.5 40t-78.5 30
q-31 8 -67 20q-33 -27 -33 -62q0 -24 22 -40z" />
    <glyph glyph-name="dieresis" unicode="&#xa8;" horiz-adv-x="332" 
d="M27 637q-17 16 -17 45q0 27 17 43t47 16q29 0 45.5 -16t16.5 -43q0 -29 -16.5 -45t-45.5 -16q-30 0 -47 16zM216 725q17 16 46 16t46 -16t17 -43q0 -28 -17 -44.5t-46 -16.5t-46 16.5t-17 44.5q0 27 17 43z" />
    <glyph glyph-name="copyright" unicode="&#xa9;" horiz-adv-x="777" 
d="M206.5 33.5q-83.5 48.5 -132 132t-48.5 181.5t48.5 181t132 132t181.5 49t181 -49t132 -132t49 -181t-49 -181.5t-132 -132t-181 -48.5t-181.5 48.5zM136.5 201.5q39.5 -66.5 106 -106t145.5 -39.5t145.5 39.5t106 106t39.5 145.5q0 78 -39.5 145t-106 106.5t-145.5 39.5
t-145.5 -39.5t-106 -106.5t-39.5 -145q0 -79 39.5 -145.5zM248.5 500q52.5 55 140.5 55q69 0 115 -38t58 -97l-88 -20q-6 38 -28.5 55t-52.5 17q-45 0 -71.5 -29.5t-26.5 -90.5q0 -62 27 -94.5t71 -32.5q33 0 57.5 20.5t31.5 60.5l87 -21q-12 -61 -59 -102t-118 -41
q-89 0 -142.5 58t-53.5 152q0 93 52.5 148z" />
    <glyph glyph-name="ordfeminine" unicode="&#xaa;" horiz-adv-x="380" 
d="M52.5 384q-28.5 25 -28.5 64q0 61 47.5 83t135.5 22h18v10q0 30 -12.5 44.5t-39.5 14.5q-28 0 -41 -16t-14 -41l-83 19q5 53 43.5 83t102.5 30q72 0 106.5 -34.5t34.5 -98.5v-105q0 -14 3.5 -20.5t12.5 -6.5t21 5l13 -65q-24 -11 -61 -11q-31 0 -48 12t-20 43v9h-1
q-13 -31 -43 -48.5t-71 -17.5q-47 0 -75.5 25zM28 304h334v-78h-334v78zM130.5 438q10.5 -9 27.5 -9q26 0 46.5 20.5t20.5 50.5v4h-14q-48 0 -69.5 -9t-21.5 -33q0 -15 10.5 -24z" />
    <glyph glyph-name="guillemotleft" unicode="&#xab;" horiz-adv-x="568" 
d="M45 226v62l193 192l57 -50l-138 -173l138 -172l-57 -52zM263 283l193 197l57 -50l-138 -173l138 -172l-57 -52l-193 198v52z" />
    <glyph glyph-name="logicalnot" unicode="&#xac;" horiz-adv-x="512" 
d="M352 293h-307v114h422v-237h-115v123z" />
    <glyph glyph-name="uni00AD" unicode="&#xad;" 
 />
    <glyph glyph-name="registered" unicode="&#xae;" horiz-adv-x="433" 
d="M143 522l-1 92h76q38 0 59 -15.5t21 -43.5q0 -35 -29 -50q21 -7 26 -31l9 -45h-62q-4 11 -8 33q-2 21 -19 21h-14l1 -54h-60zM52 609.5q26 43.5 69.5 69.5t94.5 26t94.5 -26t69.5 -69.5t26 -94.5q0 -52 -25.5 -95.5t-69 -69t-95.5 -25.5q-51 0 -95 25.5t-69.5 69
t-25.5 95.5q0 51 26 94.5zM88 440q20 -35 54 -55.5t74 -20.5t74.5 20.5t54.5 55.5t20 75q0 39 -20 74t-54.5 56t-74.5 21t-74 -21t-54 -55.5t-20 -74.5t20 -75zM218 526q20 0 20 19t-20 19h-17v-38h17z" />
    <glyph glyph-name="macron" unicode="&#xaf;" horiz-adv-x="384" 
d="M40 710h304v-79h-304v79z" />
    <glyph glyph-name="degree" unicode="&#xb0;" horiz-adv-x="373" 
d="M124 474q-29 17 -46 46t-17 63t17 62.5t46 45.5t63 17t62.5 -17t45.5 -46t17 -62q0 -34 -17 -63t-45.5 -46t-62.5 -17t-63 17zM136 531.5q21 -21.5 51 -21.5q29 0 50 22t21 51t-21 51t-50 22q-30 0 -51 -22t-21 -51q0 -30 21 -51.5z" />
    <glyph glyph-name="plusminus" unicode="&#xb1;" horiz-adv-x="471" 
d="M55 366l132 -1l-2 130h101l-1 -130l131 1v-95l-131 1l1 -128h-101l2 128l-132 -1v95zM55 111l181 -2l180 2v-95l-180 2l-181 -2v95z" />
    <glyph glyph-name="acute" unicode="&#xb4;" horiz-adv-x="229" 
d="M35 624l48 149h121l-93 -149h-76z" />
    <glyph glyph-name="uni00B5" unicode="&#xb5;" horiz-adv-x="659" 
d="M58 531h126v-288q0 -68 33 -104.5t95 -36.5q56 0 97.5 34.5t58.5 93.5v301h125v-531h-125v93q-59 -104 -179 -104q-79 0 -118 56l8 -207h-121v693z" />
    <glyph glyph-name="paragraph" unicode="&#xb6;" horiz-adv-x="724" 
d="M300 253h-17q-128 0 -195 55.5t-67 167.5q0 108 68 162.5t194 54.5h143l-2 -405l2 -388h-128zM533 288l-3 405h133l-2 -405l2 -388h-133z" />
    <glyph glyph-name="periodcentered" unicode="&#xb7;" horiz-adv-x="236" 
d="M58.5 199q-20.5 19 -20.5 54q0 34 20.5 53t59.5 19t60 -19t21 -53q0 -35 -21 -54t-60 -19t-59.5 19z" />
    <glyph glyph-name="cedilla" unicode="&#xb8;" horiz-adv-x="255" 
d="M40 -160l13 53q26 -8 49 -8q32 0 32 19q0 15 -14 20.5t-52 6.5l33 82l62 -2l-16 -53q38 -5 56.5 -19t18.5 -42q0 -34 -27 -51.5t-69 -17.5q-48 0 -86 12z" />
    <glyph glyph-name="ordmasculine" unicode="&#xba;" horiz-adv-x="383" 
d="M72.5 405q-45.5 46 -45.5 124q0 77 45.5 122.5t119.5 45.5t119 -45.5t45 -122.5q0 -78 -45 -124t-119 -46t-119.5 46zM28 304h334v-78h-334v78zM146.5 464.5q16.5 -22.5 45.5 -22.5t45.5 22.5t16.5 64.5q0 40 -16.5 62.5t-45.5 22.5t-45.5 -22t-16.5 -63
q0 -42 16.5 -64.5z" />
    <glyph glyph-name="guillemotright" unicode="&#xbb;" horiz-adv-x="568" 
d="M273 85l138 172l-138 173l57 50l193 -192v-62l-193 -193zM193 257l-138 173l57 50l193 -197v-52l-193 -198l-57 52z" />
    <glyph glyph-name="questiondown" unicode="&#xbf;" horiz-adv-x="514" 
d="M202 121q-44 -36 -44 -95q0 -43 26 -68.5t73 -25.5q55 0 84 30t40 82l107 -27q-14 -72 -71 -128t-168 -56q-64 0 -111.5 24t-73.5 65t-26 93q0 86 54.5 138.5t150.5 73.5l7 94h87l7 -149q-98 -15 -142 -51zM231.5 526.5q21.5 18.5 59.5 18.5q39 0 60.5 -18.5t21.5 -52.5
t-21.5 -52.5t-60.5 -18.5q-38 0 -59.5 18.5t-21.5 52.5t21.5 52.5z" />
    <glyph glyph-name="Agrave" unicode="&#xc0;" horiz-adv-x="653" 
d="M131 347l120 346h147l122 -346l129 -347h-143l-54 163l-129 1l-127 -1l-53 -163h-139zM323 264l100 1l-99 289h-2l-97 -289zM193 866h130l41 -121h-76z" />
    <glyph glyph-name="Aacute" unicode="&#xc1;" horiz-adv-x="653" 
d="M131 347l120 346h147l122 -346l129 -347h-143l-54 163l-129 1l-127 -1l-53 -163h-139zM323 264l100 1l-99 289h-2l-97 -289zM284 745l41 121h130l-95 -121h-76z" />
    <glyph glyph-name="Acircumflex" unicode="&#xc2;" horiz-adv-x="653" 
d="M131 347l120 346h147l122 -346l129 -347h-143l-54 163l-129 1l-127 -1l-53 -163h-139zM323 264l100 1l-99 289h-2l-97 -289zM278 866h96l103 -121h-91l-60 50l-60 -50h-91z" />
    <glyph glyph-name="Atilde" unicode="&#xc3;" horiz-adv-x="653" 
d="M131 347l120 346h147l122 -346l129 -347h-143l-54 163l-129 1l-127 -1l-53 -163h-139zM323 264l100 1l-99 289h-2l-97 -289zM191.5 832.5q21.5 35.5 68.5 35.5q24 0 42 -8t39 -23q25 -18 40 -18q18 0 24 12t6 37h71q2 -54 -19.5 -89.5t-70.5 -35.5q-24 0 -40.5 7.5
t-39.5 22.5q-13 10 -22 14.5t-18 4.5q-18 0 -24 -12t-6 -37h-71q-1 54 20.5 89.5z" />
    <glyph glyph-name="Adieresis" unicode="&#xc4;" horiz-adv-x="653" 
d="M131 347l120 346h147l122 -346l129 -347h-143l-54 163l-129 1l-127 -1l-53 -163h-139zM323 264l100 1l-99 289h-2l-97 -289zM187 760q-17 16 -17 44t17 44t47 16q29 0 45.5 -16t16.5 -44t-16.5 -44t-45.5 -16q-30 0 -47 16zM376 848q17 16 46 16t46 -16t17 -44t-17 -44
t-46 -16t-46 16t-17 44t17 44z" />
    <glyph glyph-name="Aring" unicode="&#xc5;" horiz-adv-x="653" 
d="M131 347l120 346h147l122 -346l129 -347h-143l-54 163l-129 1l-127 -1l-53 -163h-139zM323 264l100 1l-99 289h-2l-97 -289zM268.5 762.5q-21.5 19.5 -21.5 53.5q0 33 21.5 53t57.5 20q35 0 56.5 -20t21.5 -53q0 -34 -21.5 -53.5t-56.5 -19.5q-36 0 -57.5 19.5z
M303.5 794q8.5 -8 22.5 -8t22 8t8 22t-8 22.5t-22 8.5t-22.5 -8.5t-8.5 -22.5t8.5 -22z" />
    <glyph glyph-name="AE" unicode="&#xc6;" horiz-adv-x="923" 
d="M187 347l174 346h524v-109h-309l-1 -179h286v-102h-286l1 -194h318v-109h-449l1 163l-96 1l-120 -1l-77 -163h-149zM360 264l87 1v82l-1 237h-16l-151 -319z" />
    <glyph glyph-name="Ccedilla" unicode="&#xc7;" horiz-adv-x="648" 
d="M232 -162l12 50q21 -6 47 -6q18 0 26.5 5t8.5 17q0 13 -13.5 19.5t-50.5 13.5l21 52q-121 19 -189 113t-68 244q0 112 38 193.5t109.5 125t168.5 43.5q122 0 196 -64t90 -172l-119 -32q-11 73 -54.5 115t-110.5 42q-86 0 -134.5 -66.5t-48.5 -184.5q0 -117 48.5 -183
t133.5 -66q72 0 115 44t54 128l119 -33q-16 -114 -90.5 -181.5t-191.5 -69.5l-9 -27q42 -5 61.5 -20t19.5 -43q0 -35 -28 -51.5t-75 -16.5q-46 0 -86 11z" />
    <glyph glyph-name="Egrave" unicode="&#xc8;" horiz-adv-x="580" 
d="M64 347l-3 346h480v-109h-348l-1 -179h325v-102h-325l1 -194h357v-109h-489zM177 866h130l41 -121h-76z" />
    <glyph glyph-name="Eacute" unicode="&#xc9;" horiz-adv-x="580" 
d="M64 347l-3 346h480v-109h-348l-1 -179h325v-102h-325l1 -194h357v-109h-489zM269 745l41 121h130l-95 -121h-76z" />
    <glyph glyph-name="Ecircumflex" unicode="&#xca;" horiz-adv-x="580" 
d="M64 347l-3 346h480v-109h-348l-1 -179h325v-102h-325l1 -194h357v-109h-489zM263 866h96l103 -121h-91l-60 50l-60 -50h-91z" />
    <glyph glyph-name="Edieresis" unicode="&#xcb;" horiz-adv-x="580" 
d="M64 347l-3 346h480v-109h-348l-1 -179h325v-102h-325l1 -194h357v-109h-489zM172 760q-17 16 -17 44t17 44t47 16q29 0 45.5 -16t16.5 -44t-16.5 -44t-45.5 -16q-30 0 -47 16zM361 848q17 16 46 16t46 -16t17 -44t-17 -44t-46 -16t-46 16t-17 44t17 44z" />
    <glyph glyph-name="Igrave" unicode="&#xcc;" horiz-adv-x="256" 
d="M64 347l-3 346h134l-3 -346l3 -347h-134zM-6 866h130l41 -121h-76z" />
    <glyph glyph-name="Iacute" unicode="&#xcd;" horiz-adv-x="256" 
d="M64 347l-3 346h134l-3 -346l3 -347h-134zM86 745l41 121h130l-95 -121h-76z" />
    <glyph glyph-name="Icircumflex" unicode="&#xce;" horiz-adv-x="256" 
d="M64 347l-3 346h134l-3 -346l3 -347h-134zM80 866h96l103 -121h-91l-60 50l-60 -50h-91z" />
    <glyph glyph-name="Idieresis" unicode="&#xcf;" horiz-adv-x="256" 
d="M64 347l-3 346h134l-3 -346l3 -347h-134zM-11 760q-17 16 -17 44t17 44t47 16q29 0 45.5 -16t16.5 -44t-16.5 -44t-45.5 -16q-30 0 -47 16zM178 848q17 16 46 16t46 -16t17 -44t-17 -44t-46 -16t-46 16t-17 44t17 44z" />
    <glyph glyph-name="Eth" unicode="&#xd0;" horiz-adv-x="668" 
d="M64 314l-75 -1v71l75 -1l-3 310h216q182 0 273.5 -85t91.5 -253q0 -179 -90.5 -267t-274.5 -88h-216zM193 113h84q117 0 174.5 59t57.5 183q0 226 -232 226h-84l-3 -198l112 1v-71l-112 1z" />
    <glyph glyph-name="Ntilde" unicode="&#xd1;" horiz-adv-x="682" 
d="M64 346l-3 347h148l167 -300l116 -204h3v205l-2 299h128l-3 -346l3 -347h-148l-152 276l-131 229h-3v-205l2 -300h-128zM206.5 832.5q21.5 35.5 68.5 35.5q24 0 42 -8t39 -23q25 -18 40 -18q18 0 24 12t6 37h71q2 -54 -19.5 -89.5t-70.5 -35.5q-24 0 -40.5 7.5
t-39.5 22.5q-13 10 -22 14.5t-18 4.5q-18 0 -24 -12t-6 -37h-71q-1 54 20.5 89.5z" />
    <glyph glyph-name="Ograve" unicode="&#xd2;" horiz-adv-x="703" 
d="M177.5 28.5q-73.5 43.5 -112.5 125t-39 193.5t39.5 193.5t112.5 124.5t173 43q101 0 174.5 -43t112.5 -124t39 -194q0 -112 -39.5 -193.5t-113 -125t-173.5 -43.5t-173.5 43.5zM211 162.5q50 -65.5 140 -65.5q89 0 140.5 66t51.5 184q0 120 -50.5 185t-141.5 65
q-89 0 -139.5 -65.5t-50.5 -184.5t50 -184.5zM218 866h130l41 -121h-76z" />
    <glyph glyph-name="Oacute" unicode="&#xd3;" horiz-adv-x="703" 
d="M177.5 28.5q-73.5 43.5 -112.5 125t-39 193.5t39.5 193.5t112.5 124.5t173 43q101 0 174.5 -43t112.5 -124t39 -194q0 -112 -39.5 -193.5t-113 -125t-173.5 -43.5t-173.5 43.5zM211 162.5q50 -65.5 140 -65.5q89 0 140.5 66t51.5 184q0 120 -50.5 185t-141.5 65
q-89 0 -139.5 -65.5t-50.5 -184.5t50 -184.5zM310 745l41 121h130l-95 -121h-76z" />
    <glyph glyph-name="Ocircumflex" unicode="&#xd4;" horiz-adv-x="703" 
d="M177.5 28.5q-73.5 43.5 -112.5 125t-39 193.5t39.5 193.5t112.5 124.5t173 43q101 0 174.5 -43t112.5 -124t39 -194q0 -112 -39.5 -193.5t-113 -125t-173.5 -43.5t-173.5 43.5zM211 162.5q50 -65.5 140 -65.5q89 0 140.5 66t51.5 184q0 120 -50.5 185t-141.5 65
q-89 0 -139.5 -65.5t-50.5 -184.5t50 -184.5zM304 866h96l103 -121h-91l-60 50l-60 -50h-91z" />
    <glyph glyph-name="Otilde" unicode="&#xd5;" horiz-adv-x="703" 
d="M177.5 28.5q-73.5 43.5 -112.5 125t-39 193.5t39.5 193.5t112.5 124.5t173 43q101 0 174.5 -43t112.5 -124t39 -194q0 -112 -39.5 -193.5t-113 -125t-173.5 -43.5t-173.5 43.5zM211 162.5q50 -65.5 140 -65.5q89 0 140.5 66t51.5 184q0 120 -50.5 185t-141.5 65
q-89 0 -139.5 -65.5t-50.5 -184.5t50 -184.5zM216.5 832.5q21.5 35.5 68.5 35.5q24 0 42 -8t39 -23q25 -18 40 -18q18 0 24 12t6 37h71q2 -54 -19.5 -89.5t-70.5 -35.5q-24 0 -40.5 7.5t-39.5 22.5q-13 10 -22 14.5t-18 4.5q-18 0 -24 -12t-6 -37h-71q-1 54 20.5 89.5z" />
    <glyph glyph-name="Odieresis" unicode="&#xd6;" horiz-adv-x="703" 
d="M177.5 28.5q-73.5 43.5 -112.5 125t-39 193.5t39.5 193.5t112.5 124.5t173 43q101 0 174.5 -43t112.5 -124t39 -194q0 -112 -39.5 -193.5t-113 -125t-173.5 -43.5t-173.5 43.5zM211 162.5q50 -65.5 140 -65.5q89 0 140.5 66t51.5 184q0 120 -50.5 185t-141.5 65
q-89 0 -139.5 -65.5t-50.5 -184.5t50 -184.5zM213 760q-17 16 -17 44t17 44t47 16q29 0 45.5 -16t16.5 -44t-16.5 -44t-45.5 -16q-30 0 -47 16zM402 848q17 16 46 16t46 -16t17 -44t-17 -44t-46 -16t-46 16t-17 44t17 44z" />
    <glyph glyph-name="multiply" unicode="&#xd7;" horiz-adv-x="432" 
d="M122 485l93 -94l90 93l72 -71l-93 -91l93 -92l-67 -68l-92 94l-89 -91l-72 71l92 89l-94 93z" />
    <glyph glyph-name="Oslash" unicode="&#xd8;" horiz-adv-x="703" 
d="M158 41l-44 -56l-59 44l49 63q-38 46 -58 111t-20 144q0 112 39.5 193.5t112.5 124.5t173 43q116 0 194 -55l44 55l60 -44l-49 -62q77 -95 77 -255q0 -112 -39.5 -193.5t-113 -125t-173.5 -43.5q-112 0 -193 56zM189 199l281 357q-47 41 -119 41q-89 0 -139.5 -65.5
t-50.5 -184.5q0 -86 28 -148zM351 97q89 0 140.5 66t51.5 184q0 88 -28 147l-281 -356q47 -41 117 -41z" />
    <glyph glyph-name="Ugrave" unicode="&#xd9;" horiz-adv-x="662" 
d="M117 61.5q-70 76.5 -68 231.5l2 208l-2 192h134l-3 -192l3 -223q2 -181 148 -181q147 0 149 181l2 223l-2 192h133l-2 -192l2 -208q2 -155 -67.5 -231.5t-214.5 -76.5q-144 0 -214 76.5zM198 866h130l41 -121h-76z" />
    <glyph glyph-name="Uacute" unicode="&#xda;" horiz-adv-x="662" 
d="M117 61.5q-70 76.5 -68 231.5l2 208l-2 192h134l-3 -192l3 -223q2 -181 148 -181q147 0 149 181l2 223l-2 192h133l-2 -192l2 -208q2 -155 -67.5 -231.5t-214.5 -76.5q-144 0 -214 76.5zM289 745l41 121h130l-95 -121h-76z" />
    <glyph glyph-name="Ucircumflex" unicode="&#xdb;" horiz-adv-x="662" 
d="M117 61.5q-70 76.5 -68 231.5l2 208l-2 192h134l-3 -192l3 -223q2 -181 148 -181q147 0 149 181l2 223l-2 192h133l-2 -192l2 -208q2 -155 -67.5 -231.5t-214.5 -76.5q-144 0 -214 76.5zM283 866h96l103 -121h-91l-60 50l-60 -50h-91z" />
    <glyph glyph-name="Udieresis" unicode="&#xdc;" horiz-adv-x="662" 
d="M117 61.5q-70 76.5 -68 231.5l2 208l-2 192h134l-3 -192l3 -223q2 -181 148 -181q147 0 149 181l2 223l-2 192h133l-2 -192l2 -208q2 -155 -67.5 -231.5t-214.5 -76.5q-144 0 -214 76.5zM192 760q-17 16 -17 44t17 44t47 16q29 0 45.5 -16t16.5 -44t-16.5 -44t-45.5 -16
q-30 0 -47 16zM381 848q17 16 46 16t46 -16t17 -44t-17 -44t-46 -16t-46 16t-17 44t17 44z" />
    <glyph glyph-name="Yacute" unicode="&#xdd;" horiz-adv-x="605" 
d="M237 249l-233 444h147l150 -307h2l155 307h143l-235 -444l2 -249h-133zM260 745l41 121h130l-95 -121h-76z" />
    <glyph glyph-name="Thorn" unicode="&#xde;" horiz-adv-x="637" 
d="M64 347l-3 346h134l-1 -89h138q284 0 284 -247q0 -256 -284 -256h-138l1 -101h-134zM193 208h147q147 0 147 148q0 140 -147 140h-147l-1 -149z" />
    <glyph glyph-name="germandbls" unicode="&#xdf;" horiz-adv-x="590" 
d="M257 2v91q33 -7 73 -7q55 0 85 31.5t30 82.5t-39 83.5t-114 32.5h-30v97h22q53 0 81.5 26t28.5 75q0 42 -26.5 68t-72.5 26q-111 0 -111 -136v-472h-128v454q0 126 65 190t173 64q62 0 111.5 -22.5t77.5 -64t28 -97.5q0 -61 -34 -102.5t-91 -49.5v-3q84 -7 131.5 -51.5
t47.5 -120.5q0 -62 -27.5 -108t-77 -71t-114.5 -25q-54 0 -89 9z" />
    <glyph glyph-name="agrave" unicode="&#xe0;" horiz-adv-x="566" 
d="M74 26q-45 41 -45 109q0 93 73 132t229 39h39v15q0 63 -25.5 95.5t-83.5 32.5q-61 0 -89 -37t-27 -85l-104 24q3 56 30.5 99.5t77.5 68.5t117 25q112 0 166 -54t54 -157v-208q0 -26 8 -37t30 -11q17 0 32 7l16 -81q-38 -14 -80 -14q-46 0 -71.5 23t-28.5 70q0 12 2 24h-2
q-25 -57 -74 -89t-118 -32q-81 0 -126 41zM169.5 95.5q21.5 -18.5 59.5 -18.5q35 0 68 19t53 53t20 78v8h-24q-106 0 -152 -19.5t-46 -70.5q0 -31 21.5 -49.5zM144 773h121l48 -149h-76z" />
    <glyph glyph-name="aacute" unicode="&#xe1;" horiz-adv-x="566" 
d="M74 26q-45 41 -45 109q0 93 73 132t229 39h39v15q0 63 -25.5 95.5t-83.5 32.5q-61 0 -89 -37t-27 -85l-104 24q3 56 30.5 99.5t77.5 68.5t117 25q112 0 166 -54t54 -157v-208q0 -26 8 -37t30 -11q17 0 32 7l16 -81q-38 -14 -80 -14q-46 0 -71.5 23t-28.5 70q0 12 2 24h-2
q-25 -57 -74 -89t-118 -32q-81 0 -126 41zM169.5 95.5q21.5 -18.5 59.5 -18.5q35 0 68 19t53 53t20 78v8h-24q-106 0 -152 -19.5t-46 -70.5q0 -31 21.5 -49.5zM234 624l48 149h121l-93 -149h-76z" />
    <glyph glyph-name="acircumflex" unicode="&#xe2;" horiz-adv-x="566" 
d="M74 26q-45 41 -45 109q0 93 73 132t229 39h39v15q0 63 -25.5 95.5t-83.5 32.5q-61 0 -89 -37t-27 -85l-104 24q3 56 30.5 99.5t77.5 68.5t117 25q112 0 166 -54t54 -157v-208q0 -26 8 -37t30 -11q17 0 32 7l16 -81q-38 -14 -80 -14q-46 0 -71.5 23t-28.5 70q0 12 2 24h-2
q-25 -57 -74 -89t-118 -32q-81 0 -126 41zM169.5 95.5q21.5 -18.5 59.5 -18.5q35 0 68 19t53 53t20 78v8h-24q-106 0 -152 -19.5t-46 -70.5q0 -31 21.5 -49.5zM228 773h96l103 -149h-81l-70 74l-70 -74h-81z" />
    <glyph glyph-name="atilde" unicode="&#xe3;" horiz-adv-x="566" 
d="M74 26q-45 41 -45 109q0 93 73 132t229 39h39v15q0 63 -25.5 95.5t-83.5 32.5q-61 0 -89 -37t-27 -85l-104 24q3 56 30.5 99.5t77.5 68.5t117 25q112 0 166 -54t54 -157v-208q0 -26 8 -37t30 -11q17 0 32 7l16 -81q-38 -14 -80 -14q-46 0 -71.5 23t-28.5 70q0 12 2 24h-2
q-25 -57 -74 -89t-118 -32q-81 0 -126 41zM169.5 95.5q21.5 -18.5 59.5 -18.5q35 0 68 19t53 53t20 78v8h-24q-106 0 -152 -19.5t-46 -70.5q0 -31 21.5 -49.5zM140.5 711.5q21.5 35.5 68.5 35.5q25 0 43 -7.5t38 -20.5q13 -9 22 -13t18 -4q18 0 24 11.5t6 33.5h71
q2 -54 -19.5 -89.5t-70.5 -35.5q-24 0 -42 7.5t-38 20.5q-13 9 -22 13t-18 4q-18 0 -24 -11.5t-6 -33.5h-71q-1 54 20.5 89.5z" />
    <glyph glyph-name="adieresis" unicode="&#xe4;" horiz-adv-x="566" 
d="M74 26q-45 41 -45 109q0 93 73 132t229 39h39v15q0 63 -25.5 95.5t-83.5 32.5q-61 0 -89 -37t-27 -85l-104 24q3 56 30.5 99.5t77.5 68.5t117 25q112 0 166 -54t54 -157v-208q0 -26 8 -37t30 -11q17 0 32 7l16 -81q-38 -14 -80 -14q-46 0 -71.5 23t-28.5 70q0 12 2 24h-2
q-25 -57 -74 -89t-118 -32q-81 0 -126 41zM169.5 95.5q21.5 -18.5 59.5 -18.5q35 0 68 19t53 53t20 78v8h-24q-106 0 -152 -19.5t-46 -70.5q0 -31 21.5 -49.5zM137 637q-17 16 -17 45q0 27 17 43t47 16q29 0 45.5 -16t16.5 -43q0 -29 -16.5 -45t-45.5 -16q-30 0 -47 16z
M326 725q17 16 46 16t46 -16t17 -43q0 -28 -17 -44.5t-46 -16.5t-46 16.5t-17 44.5q0 27 17 43z" />
    <glyph glyph-name="aring" unicode="&#xe5;" horiz-adv-x="566" 
d="M74 26q-45 41 -45 109q0 93 73 132t229 39h39v15q0 63 -25.5 95.5t-83.5 32.5q-61 0 -89 -37t-27 -85l-104 24q3 56 30.5 99.5t77.5 68.5t117 25q112 0 166 -54t54 -157v-208q0 -26 8 -37t30 -11q17 0 32 7l16 -81q-38 -14 -80 -14q-46 0 -71.5 23t-28.5 70q0 12 2 24h-2
q-25 -57 -74 -89t-118 -32q-81 0 -126 41zM169.5 95.5q21.5 -18.5 59.5 -18.5q35 0 68 19t53 53t20 78v8h-24q-106 0 -152 -19.5t-46 -70.5q0 -31 21.5 -49.5zM209 642q-25 23 -25 62t25 62t67 23q41 0 66 -23t25 -62t-25 -62t-66 -23q-42 0 -67 23zM245.5 674.5
q11.5 -10.5 30.5 -10.5t30 10.5t11 29.5t-11 30.5t-30 11.5t-30.5 -11.5t-11.5 -30.5t11.5 -29.5z" />
    <glyph glyph-name="ae" unicode="&#xe6;" horiz-adv-x="849" 
d="M72.5 26q-43.5 41 -43.5 109q0 93 72 132t222 39h39v15q0 65 -24 96.5t-80 31.5q-57 0 -84 -32t-25 -78l-104 24q4 83 62.5 132t155.5 49q121 0 170 -72q31 35 73 53.5t92 18.5q118 0 172 -85t54 -222h-349q5 -70 38.5 -112t92.5 -42q41 0 70.5 30t39.5 82l103 -27
q-13 -76 -68.5 -129.5t-145.5 -53.5q-69 0 -122 32t-83 90q-45 -67 -96.5 -94.5t-109.5 -27.5q-78 0 -121.5 41zM167.5 95.5q19.5 -18.5 55.5 -18.5q33 0 65.5 19t53 53.5t20.5 77.5v8h-24q-100 0 -145 -19.5t-45 -70.5q0 -31 19.5 -49.5zM710 319q-2 59 -31 95.5t-79 36.5
q-47 0 -80 -32.5t-42 -99.5h232z" />
    <glyph glyph-name="ccedilla" unicode="&#xe7;" horiz-adv-x="527" 
d="M173 -162l12 50q21 -6 47 -6q18 0 26.5 5t8.5 17q0 13 -13.5 19.5t-50.5 13.5l22 54q-93 18 -146.5 90t-53.5 183q0 85 31.5 148.5t90 97.5t136.5 34q98 0 158 -52t73 -134l-110 -29q-9 55 -40 85t-79 30q-62 0 -98.5 -46.5t-36.5 -133.5q0 -85 36.5 -132t98.5 -47
q47 0 78.5 30t40.5 86l110 -29q-13 -81 -71 -133.5t-153 -53.5l-9 -27q42 -5 61.5 -20t19.5 -43q0 -35 -28 -51.5t-75 -16.5q-46 0 -86 11z" />
    <glyph glyph-name="egrave" unicode="&#xe8;" horiz-adv-x="540" 
d="M146.5 19q-58.5 34 -90 97.5t-31.5 147.5q0 129 67 204t184 75q126 0 182.5 -85.5t56.5 -221.5l-365 -1q6 -73 42.5 -112.5t92.5 -39.5q47 0 78.5 31t41.5 84l107 -28q-14 -77 -72.5 -131t-156.5 -54q-78 0 -136.5 34zM395 317q-2 59 -32.5 94t-84.5 35q-50 0 -83 -32
t-42 -97h242zM146 773h121l48 -149h-76z" />
    <glyph glyph-name="eacute" unicode="&#xe9;" horiz-adv-x="540" 
d="M146.5 19q-58.5 34 -90 97.5t-31.5 147.5q0 129 67 204t184 75q126 0 182.5 -85.5t56.5 -221.5l-365 -1q6 -73 42.5 -112.5t92.5 -39.5q47 0 78.5 31t41.5 84l107 -28q-14 -77 -72.5 -131t-156.5 -54q-78 0 -136.5 34zM395 317q-2 59 -32.5 94t-84.5 35q-50 0 -83 -32
t-42 -97h242zM236 624l48 149h121l-93 -149h-76z" />
    <glyph glyph-name="ecircumflex" unicode="&#xea;" horiz-adv-x="540" 
d="M146.5 19q-58.5 34 -90 97.5t-31.5 147.5q0 129 67 204t184 75q126 0 182.5 -85.5t56.5 -221.5l-365 -1q6 -73 42.5 -112.5t92.5 -39.5q47 0 78.5 31t41.5 84l107 -28q-14 -77 -72.5 -131t-156.5 -54q-78 0 -136.5 34zM395 317q-2 59 -32.5 94t-84.5 35q-50 0 -83 -32
t-42 -97h242zM229 773h96l103 -149h-81l-70 74l-70 -74h-81z" />
    <glyph glyph-name="edieresis" unicode="&#xeb;" horiz-adv-x="540" 
d="M146.5 19q-58.5 34 -90 97.5t-31.5 147.5q0 129 67 204t184 75q126 0 182.5 -85.5t56.5 -221.5l-365 -1q6 -73 42.5 -112.5t92.5 -39.5q47 0 78.5 31t41.5 84l107 -28q-14 -77 -72.5 -131t-156.5 -54q-78 0 -136.5 34zM395 317q-2 59 -32.5 94t-84.5 35q-50 0 -83 -32
t-42 -97h242zM139 637q-17 16 -17 45q0 27 17 43t47 16q29 0 45.5 -16t16.5 -43q0 -29 -16.5 -45t-45.5 -16q-30 0 -47 16zM328 725q17 16 46 16t46 -16t17 -43q0 -28 -17 -44.5t-46 -16.5t-46 16.5t-17 44.5q0 27 17 43z" />
    <glyph glyph-name="igrave" unicode="&#xec;" horiz-adv-x="236" 
d="M59 266l-3 264h124l-2 -264l2 -266h-124zM-14 773h121l48 -149h-76z" />
    <glyph glyph-name="iacute" unicode="&#xed;" horiz-adv-x="236" 
d="M59 266l-3 264h124l-2 -264l2 -266h-124zM76 624l48 149h121l-93 -149h-76z" />
    <glyph glyph-name="icircumflex" unicode="&#xee;" horiz-adv-x="236" 
d="M59 266l-3 264h124l-2 -264l2 -266h-124zM70 773h96l103 -149h-81l-70 74l-70 -74h-81z" />
    <glyph glyph-name="idieresis" unicode="&#xef;" horiz-adv-x="236" 
d="M59 266l-3 264h124l-2 -264l2 -266h-124zM-21 637q-17 16 -17 45q0 27 17 43t47 16q29 0 45.5 -16t16.5 -43q0 -29 -16.5 -45t-45.5 -16q-30 0 -47 16zM168 725q17 16 46 16t46 -16t17 -43q0 -28 -17 -44.5t-46 -16.5t-46 16.5t-17 44.5q0 27 17 43z" />
    <glyph glyph-name="eth" unicode="&#xf0;" horiz-adv-x="568" 
d="M143 16q-59 31 -88.5 85.5t-29.5 123.5q0 77 30 130t81.5 80t116.5 27q105 0 162 -60q-21 107 -131 160l-57 -73l-52 43l44 56q-55 16 -108 22l17 98q91 -11 158 -34l77 99l53 -42l-65 -84q99 -50 145.5 -141t46.5 -227q0 -154 -64 -224t-193 -70q-84 0 -143 31z
M186.5 123.5q34.5 -35.5 98.5 -35.5q65 0 99 35t34 103q0 69 -38 106t-95 37q-64 0 -98.5 -35.5t-34.5 -104.5q0 -70 34.5 -105.5z" />
    <glyph glyph-name="ntilde" unicode="&#xf1;" horiz-adv-x="583" 
d="M59 255l-3 275h124l-2 -77h2q21 41 65.5 66t102.5 25q89 0 134 -53t45 -166v-70l2 -255h-123l2 255v56q0 63 -28 95.5t-77 32.5q-54 0 -89.5 -41t-35.5 -107v-36l2 -255h-124zM188.5 711.5q21.5 35.5 68.5 35.5q25 0 43 -7.5t38 -20.5q13 -9 22 -13t18 -4q18 0 24 11.5
t6 33.5h71q2 -54 -19.5 -89.5t-70.5 -35.5q-24 0 -42 7.5t-38 20.5q-13 9 -22 13t-18 4q-18 0 -24 -11.5t-6 -33.5h-71q-1 54 20.5 89.5z" />
    <glyph glyph-name="ograve" unicode="&#xf2;" horiz-adv-x="567" 
d="M146.5 19q-58.5 34 -90 97.5t-31.5 148.5t31.5 148t89.5 97t136 34q79 0 137.5 -34t90.5 -97t32 -148t-32 -148.5t-91 -97.5t-137 -34q-77 0 -135.5 34zM184.5 133q35.5 -47 98.5 -47t99 47t36 132q0 84 -36 130.5t-99 46.5t-98.5 -46.5t-35.5 -130.5q0 -85 35.5 -132z
M152 773h121l48 -149h-76z" />
    <glyph glyph-name="oacute" unicode="&#xf3;" horiz-adv-x="567" 
d="M146.5 19q-58.5 34 -90 97.5t-31.5 148.5t31.5 148t89.5 97t136 34q79 0 137.5 -34t90.5 -97t32 -148t-32 -148.5t-91 -97.5t-137 -34q-77 0 -135.5 34zM184.5 133q35.5 -47 98.5 -47t99 47t36 132q0 84 -36 130.5t-99 46.5t-98.5 -46.5t-35.5 -130.5q0 -85 35.5 -132z
M241 624l48 149h121l-93 -149h-76z" />
    <glyph glyph-name="ocircumflex" unicode="&#xf4;" horiz-adv-x="567" 
d="M146.5 19q-58.5 34 -90 97.5t-31.5 148.5t31.5 148t89.5 97t136 34q79 0 137.5 -34t90.5 -97t32 -148t-32 -148.5t-91 -97.5t-137 -34q-77 0 -135.5 34zM184.5 133q35.5 -47 98.5 -47t99 47t36 132q0 84 -36 130.5t-99 46.5t-98.5 -46.5t-35.5 -130.5q0 -85 35.5 -132z
M235 773h96l103 -149h-81l-70 74l-70 -74h-81z" />
    <glyph glyph-name="otilde" unicode="&#xf5;" horiz-adv-x="567" 
d="M146.5 19q-58.5 34 -90 97.5t-31.5 148.5t31.5 148t89.5 97t136 34q79 0 137.5 -34t90.5 -97t32 -148t-32 -148.5t-91 -97.5t-137 -34q-77 0 -135.5 34zM184.5 133q35.5 -47 98.5 -47t99 47t36 132q0 84 -36 130.5t-99 46.5t-98.5 -46.5t-35.5 -130.5q0 -85 35.5 -132z
M148.5 711.5q21.5 35.5 68.5 35.5q25 0 43 -7.5t38 -20.5q13 -9 22 -13t18 -4q18 0 24 11.5t6 33.5h71q2 -54 -19.5 -89.5t-70.5 -35.5q-24 0 -42 7.5t-38 20.5q-13 9 -22 13t-18 4q-18 0 -24 -11.5t-6 -33.5h-71q-1 54 20.5 89.5z" />
    <glyph glyph-name="odieresis" unicode="&#xf6;" horiz-adv-x="567" 
d="M146.5 19q-58.5 34 -90 97.5t-31.5 148.5t31.5 148t89.5 97t136 34q79 0 137.5 -34t90.5 -97t32 -148t-32 -148.5t-91 -97.5t-137 -34q-77 0 -135.5 34zM184.5 133q35.5 -47 98.5 -47t99 47t36 132q0 84 -36 130.5t-99 46.5t-98.5 -46.5t-35.5 -130.5q0 -85 35.5 -132z
M144 637q-17 16 -17 45q0 27 17 43t47 16q29 0 45.5 -16t16.5 -43q0 -29 -16.5 -45t-45.5 -16q-30 0 -47 16zM333 725q17 16 46 16t46 -16t17 -43q0 -28 -17 -44.5t-46 -16.5t-46 16.5t-17 44.5q0 27 17 43z" />
    <glyph glyph-name="divide" unicode="&#xf7;" horiz-adv-x="471" 
d="M55 361l181 -2l180 2v-85l-180 2l-181 -2v85zM182.5 209q19.5 18 53.5 18t53.5 -18t19.5 -50t-19.5 -50t-53.5 -18t-53.5 18t-19.5 50t19.5 50zM182.5 528q19.5 18 53.5 18t53.5 -18t19.5 -49q0 -33 -19.5 -51t-53.5 -18t-53.5 18t-19.5 51q0 31 19.5 49z" />
    <glyph glyph-name="oslash" unicode="&#xf8;" horiz-adv-x="567" 
d="M133 27l-31 -39l-47 35l34 44q-31 36 -47.5 86.5t-16.5 111.5q0 85 31.5 148t89.5 97t136 34q87 0 151 -42l32 41l48 -35l-36 -45q65 -74 65 -198q0 -85 -32 -148.5t-91 -97.5t-137 -34q-85 0 -149 42zM167 164l197 251q-33 27 -81 27q-63 0 -98.5 -46.5t-35.5 -130.5
q0 -59 18 -101zM283 86q63 0 99 47t36 132q0 60 -18 100l-198 -251q33 -28 81 -28z" />
    <glyph glyph-name="ugrave" unicode="&#xf9;" horiz-adv-x="578" 
d="M520 275l2 -275h-123l2 77h-2q-22 -40 -66 -65t-98 -25q-88 0 -133 53t-45 166v69l-3 255h124l-2 -255v-56q0 -63 27.5 -95t76.5 -32q33 0 60.5 18t44 51.5t16.5 77.5v36l-2 255h123zM161 773h121l48 -149h-76z" />
    <glyph glyph-name="uacute" unicode="&#xfa;" horiz-adv-x="578" 
d="M520 275l2 -275h-123l2 77h-2q-22 -40 -66 -65t-98 -25q-88 0 -133 53t-45 166v69l-3 255h124l-2 -255v-56q0 -63 27.5 -95t76.5 -32q33 0 60.5 18t44 51.5t16.5 77.5v36l-2 255h123zM251 624l48 149h121l-93 -149h-76z" />
    <glyph glyph-name="ucircumflex" unicode="&#xfb;" horiz-adv-x="578" 
d="M520 275l2 -275h-123l2 77h-2q-22 -40 -66 -65t-98 -25q-88 0 -133 53t-45 166v69l-3 255h124l-2 -255v-56q0 -63 27.5 -95t76.5 -32q33 0 60.5 18t44 51.5t16.5 77.5v36l-2 255h123zM245 773h96l103 -149h-81l-70 74l-70 -74h-81z" />
    <glyph glyph-name="udieresis" unicode="&#xfc;" horiz-adv-x="578" 
d="M520 275l2 -275h-123l2 77h-2q-22 -40 -66 -65t-98 -25q-88 0 -133 53t-45 166v69l-3 255h124l-2 -255v-56q0 -63 27.5 -95t76.5 -32q33 0 60.5 18t44 51.5t16.5 77.5v36l-2 255h123zM154 637q-17 16 -17 45q0 27 17 43t47 16q29 0 45.5 -16t16.5 -43q0 -29 -16.5 -45
t-45.5 -16q-30 0 -47 16zM343 725q17 16 46 16t46 -16t17 -43q0 -28 -17 -44.5t-46 -16.5t-46 16.5t-17 44.5q0 27 17 43z" />
    <glyph glyph-name="yacute" unicode="&#xfd;" horiz-adv-x="520" 
d="M92 -167q-27 4 -48 11l21 91q33 -7 59 -7q30 0 49 16t35 52l-205 534h128l137 -378h2l123 378h125l-187 -526q-34 -96 -81 -135.5t-110 -39.5q-21 0 -48 4zM219 624l48 149h121l-93 -149h-76z" />
    <glyph glyph-name="thorn" unicode="&#xfe;" horiz-adv-x="580" 
d="M60 272l-3 422h122l-1 -238h3q20 36 62 62t100 26q100 0 156 -71.5t56 -206.5q0 -136 -55.5 -208.5t-156.5 -72.5q-57 0 -99.5 27t-63.5 64h-2l2 -236h-124zM215.5 128q37.5 -41 88.5 -41q61 0 93.5 46.5t32.5 132.5t-32.5 131t-93.5 45q-55 0 -90.5 -45t-35.5 -133
q0 -95 37.5 -136z" />
    <glyph glyph-name="ydieresis" unicode="&#xff;" horiz-adv-x="520" 
d="M92 -167q-27 4 -48 11l21 91q33 -7 59 -7q30 0 49 16t35 52l-205 534h128l137 -378h2l123 378h125l-187 -526q-34 -96 -81 -135.5t-110 -39.5q-21 0 -48 4zM122 637q-17 16 -17 45q0 27 17 43t47 16q29 0 45.5 -16t16.5 -43q0 -29 -16.5 -45t-45.5 -16q-30 0 -47 16z
M311 725q17 16 46 16t46 -16t17 -43q0 -28 -17 -44.5t-46 -16.5t-46 16.5t-17 44.5q0 27 17 43z" />
    <glyph glyph-name="Amacron" unicode="&#x100;" horiz-adv-x="653" 
d="M131 347l120 346h147l122 -346l129 -347h-143l-54 163l-129 1l-127 -1l-53 -163h-139zM323 264l100 1l-99 289h-2l-97 -289zM174 827h304v-79h-304v79z" />
    <glyph glyph-name="amacron" unicode="&#x101;" horiz-adv-x="566" 
d="M74 26q-45 41 -45 109q0 93 73 132t229 39h39v15q0 63 -25.5 95.5t-83.5 32.5q-61 0 -89 -37t-27 -85l-104 24q3 56 30.5 99.5t77.5 68.5t117 25q112 0 166 -54t54 -157v-208q0 -26 8 -37t30 -11q17 0 32 7l16 -81q-38 -14 -80 -14q-46 0 -71.5 23t-28.5 70q0 12 2 24h-2
q-25 -57 -74 -89t-118 -32q-81 0 -126 41zM169.5 95.5q21.5 -18.5 59.5 -18.5q35 0 68 19t53 53t20 78v8h-24q-106 0 -152 -19.5t-46 -70.5q0 -31 21.5 -49.5zM132 710h289v-79h-289v79z" />
    <glyph glyph-name="Abreve" unicode="&#x102;" horiz-adv-x="653" 
d="M131 347l120 346h147l122 -346l129 -347h-143l-54 163l-129 1l-127 -1l-53 -163h-139zM323 264l100 1l-99 289h-2l-97 -289zM224 775q-36 34 -36 97h76q2 -28 15 -42.5t46 -14.5t46.5 14.5t15.5 42.5h76q1 -63 -35.5 -97t-102.5 -34q-65 0 -101 34z" />
    <glyph glyph-name="abreve" unicode="&#x103;" horiz-adv-x="566" 
d="M74 26q-45 41 -45 109q0 93 73 132t229 39h39v15q0 63 -25.5 95.5t-83.5 32.5q-61 0 -89 -37t-27 -85l-104 24q3 56 30.5 99.5t77.5 68.5t117 25q112 0 166 -54t54 -157v-208q0 -26 8 -37t30 -11q17 0 32 7l16 -81q-38 -14 -80 -14q-46 0 -71.5 23t-28.5 70q0 12 2 24h-2
q-25 -57 -74 -89t-118 -32q-81 0 -126 41zM169.5 95.5q21.5 -18.5 59.5 -18.5q35 0 68 19t53 53t20 78v8h-24q-106 0 -152 -19.5t-46 -70.5q0 -31 21.5 -49.5zM174 651.5q-36 38.5 -36 112.5h74q2 -38 15.5 -56t47.5 -18q35 0 48.5 18t15.5 56h74q1 -74 -35 -112.5
t-103 -38.5q-65 0 -101 38.5z" />
    <glyph glyph-name="Aogonek" unicode="&#x104;" horiz-adv-x="653" 
d="M131 347l120 346h147l122 -346l129 -346v-1h-2q-29 -17 -46.5 -38t-17.5 -38q0 -26 38 -26q18 0 42 7l17 -60q-44 -21 -92 -21q-44 0 -69 18.5t-25 53.5q0 30 21 55t60 49h-69l-54 163l-129 1l-127 -1l-53 -163h-139zM323 264l100 1l-99 289h-2l-97 -289z" />
    <glyph glyph-name="aogonek" unicode="&#x105;" horiz-adv-x="566" 
d="M74 26q-45 41 -45 109q0 93 73 132t229 39h39v15q0 63 -25.5 95.5t-83.5 32.5q-61 0 -89 -37t-27 -85l-104 24q3 56 30.5 99.5t77.5 68.5t117 25q112 0 166 -54t54 -157v-208q0 -26 8 -37t30 -11q17 0 32 7l16 -80v-1l-4 -2q-28 -16 -45 -37t-17 -37q0 -26 38 -26
q18 0 42 7l17 -60q-44 -21 -92 -21q-44 0 -69 18.5t-25 53.5q0 48 60 91q-79 6 -85 92q0 12 2 24h-2q-25 -57 -74 -89t-118 -32q-81 0 -126 41zM169.5 95.5q21.5 -18.5 59.5 -18.5q35 0 68 19t53 53t20 78v8h-24q-106 0 -152 -19.5t-46 -70.5q0 -31 21.5 -49.5z" />
    <glyph glyph-name="Cacute" unicode="&#x106;" horiz-adv-x="648" 
d="M173 28.5q-71 43.5 -109 125t-38 192.5q0 112 38 193.5t109.5 125t168.5 43.5q122 0 196 -64t90 -172l-119 -32q-11 73 -54.5 115t-110.5 42q-86 0 -134.5 -66.5t-48.5 -184.5q0 -117 48.5 -183t133.5 -66q72 0 115 44t54 128l119 -33q-16 -116 -92.5 -183.5
t-197.5 -67.5q-97 0 -168 43.5zM297 745l41 121h130l-95 -121h-76z" />
    <glyph glyph-name="cacute" unicode="&#x107;" horiz-adv-x="527" 
d="M148 19q-59 34 -91 97t-32 148t31.5 148.5t90 97.5t136.5 34q98 0 158 -52t73 -134l-110 -29q-9 55 -40 85t-79 30q-62 0 -98.5 -46.5t-36.5 -133.5q0 -85 36.5 -132t98.5 -47q47 0 78.5 30t40.5 86l110 -29q-13 -82 -72 -134.5t-156 -52.5q-79 0 -138 34zM243 624
l48 149h121l-93 -149h-76z" />
    <glyph glyph-name="Ccircumflex" unicode="&#x108;" horiz-adv-x="648" 
d="M173 28.5q-71 43.5 -109 125t-38 192.5q0 112 38 193.5t109.5 125t168.5 43.5q122 0 196 -64t90 -172l-119 -32q-11 73 -54.5 115t-110.5 42q-86 0 -134.5 -66.5t-48.5 -184.5q0 -117 48.5 -183t133.5 -66q72 0 115 44t54 128l119 -33q-16 -116 -92.5 -183.5
t-197.5 -67.5q-97 0 -168 43.5zM290 866h96l103 -121h-91l-60 50l-60 -50h-91z" />
    <glyph glyph-name="ccircumflex" unicode="&#x109;" horiz-adv-x="527" 
d="M148 19q-59 34 -91 97t-32 148t31.5 148.5t90 97.5t136.5 34q98 0 158 -52t73 -134l-110 -29q-9 55 -40 85t-79 30q-62 0 -98.5 -46.5t-36.5 -133.5q0 -85 36.5 -132t98.5 -47q47 0 78.5 30t40.5 86l110 -29q-13 -82 -72 -134.5t-156 -52.5q-79 0 -138 34zM237 773h96
l103 -149h-81l-70 74l-70 -74h-81z" />
    <glyph glyph-name="Cdotaccent" unicode="&#x10a;" horiz-adv-x="648" 
d="M173 28.5q-71 43.5 -109 125t-38 192.5q0 112 38 193.5t109.5 125t168.5 43.5q122 0 196 -64t90 -172l-119 -32q-11 73 -54.5 115t-110.5 42q-86 0 -134.5 -66.5t-48.5 -184.5q0 -117 48.5 -183t133.5 -66q72 0 115 44t54 128l119 -33q-16 -116 -92.5 -183.5
t-197.5 -67.5q-97 0 -168 43.5zM289 759q-18 17 -18 47q0 29 18 46t50 17q31 0 49 -17t18 -46q0 -30 -18 -47t-49 -17q-32 0 -50 17z" />
    <glyph glyph-name="cdotaccent" unicode="&#x10b;" horiz-adv-x="527" 
d="M148 19q-59 34 -91 97t-32 148t31.5 148.5t90 97.5t136.5 34q98 0 158 -52t73 -134l-110 -29q-9 55 -40 85t-79 30q-62 0 -98.5 -46.5t-36.5 -133.5q0 -85 36.5 -132t98.5 -47q47 0 78.5 30t40.5 86l110 -29q-13 -82 -72 -134.5t-156 -52.5q-79 0 -138 34zM236 638
q-18 17 -18 47q0 29 18 46t50 17q31 0 49 -17t18 -46q0 -30 -18 -47t-49 -17q-32 0 -50 17z" />
    <glyph glyph-name="Ccaron" unicode="&#x10c;" horiz-adv-x="648" 
d="M173 28.5q-71 43.5 -109 125t-38 192.5q0 112 38 193.5t109.5 125t168.5 43.5q122 0 196 -64t90 -172l-119 -32q-11 73 -54.5 115t-110.5 42q-86 0 -134.5 -66.5t-48.5 -184.5q0 -117 48.5 -183t133.5 -66q72 0 115 44t54 128l119 -33q-16 -116 -92.5 -183.5
t-197.5 -67.5q-97 0 -168 43.5zM278 865l60 -50l60 50h91l-103 -121h-96l-103 121h91z" />
    <glyph glyph-name="ccaron" unicode="&#x10d;" horiz-adv-x="527" 
d="M148 19q-59 34 -91 97t-32 148t31.5 148.5t90 97.5t136.5 34q98 0 158 -52t73 -134l-110 -29q-9 55 -40 85t-79 30q-62 0 -98.5 -46.5t-36.5 -133.5q0 -85 36.5 -132t98.5 -47q47 0 78.5 30t40.5 86l110 -29q-13 -82 -72 -134.5t-156 -52.5q-79 0 -138 34zM215 765
l70 -74l70 74h81l-103 -149h-96l-103 149h81z" />
    <glyph glyph-name="Dcaron" unicode="&#x10e;" horiz-adv-x="668" 
d="M64 346l-3 347h216q182 0 273.5 -85t91.5 -253q0 -179 -90.5 -267t-274.5 -88h-216zM193 113h84q117 0 174.5 59t57.5 183q0 226 -232 226h-84l-3 -235zM202 865l60 -50l60 50h91l-103 -121h-96l-103 121h91z" />
    <glyph glyph-name="dcaron" unicode="&#x10f;" horiz-adv-x="635" 
d="M80.5 56.5q-55.5 71.5 -55.5 207.5q0 137 55.5 208.5t156.5 71.5q57 0 99.5 -26.5t63.5 -62.5h2l-2 239h126l-3 -382l3 -312h-126l1 74h-2q-20 -36 -62.5 -62.5t-99.5 -26.5q-101 0 -156.5 71.5zM181.5 132.5q32.5 -45.5 93.5 -45.5q52 0 89.5 41t37.5 138
q0 87 -36 131.5t-91 44.5q-61 0 -93.5 -46t-32.5 -132t32.5 -131.5zM555 693h98l-13 -226h-72z" />
    <glyph glyph-name="Dcroat" unicode="&#x110;" horiz-adv-x="668" 
d="M64 314l-75 -1v71l75 -1l-3 310h216q182 0 273.5 -85t91.5 -253q0 -179 -90.5 -267t-274.5 -88h-216zM193 113h84q117 0 174.5 59t57.5 183q0 226 -232 226h-84l-3 -198l112 1v-71l-112 1z" />
    <glyph glyph-name="dcroat" unicode="&#x111;" horiz-adv-x="582" 
d="M80.5 56.5q-55.5 71.5 -55.5 207.5q0 137 55.5 208.5t156.5 71.5q57 0 99.5 -26.5t63.5 -62.5h2l-1 121l-132 -2v71l131 -2v51h126v-50l56 1v-71l-57 1l-2 -263l3 -312h-126l1 74h-2q-20 -36 -62.5 -62.5t-99.5 -26.5q-101 0 -156.5 71.5zM181.5 132.5
q32.5 -45.5 93.5 -45.5q52 0 89.5 41t37.5 138q0 87 -36 131.5t-91 44.5q-61 0 -93.5 -46t-32.5 -132t32.5 -131.5z" />
    <glyph glyph-name="Emacron" unicode="&#x112;" horiz-adv-x="580" 
d="M64 347l-3 346h480v-109h-348l-1 -179h325v-102h-325l1 -194h357v-109h-489zM159 827h304v-79h-304v79z" />
    <glyph glyph-name="emacron" unicode="&#x113;" horiz-adv-x="540" 
d="M146.5 19q-58.5 34 -90 97.5t-31.5 147.5q0 129 67 204t184 75q126 0 182.5 -85.5t56.5 -221.5l-365 -1q6 -73 42.5 -112.5t92.5 -39.5q47 0 78.5 31t41.5 84l107 -28q-14 -77 -72.5 -131t-156.5 -54q-78 0 -136.5 34zM395 317q-2 59 -32.5 94t-84.5 35q-50 0 -83 -32
t-42 -97h242zM134 710h289v-79h-289v79z" />
    <glyph glyph-name="Ebreve" unicode="&#x114;" horiz-adv-x="580" 
d="M64 347l-3 346h480v-109h-348l-1 -179h325v-102h-325l1 -194h357v-109h-489zM209 775q-36 34 -36 97h76q2 -28 15 -42.5t46 -14.5t46.5 14.5t15.5 42.5h76q1 -63 -35.5 -97t-102.5 -34q-65 0 -101 34z" />
    <glyph glyph-name="ebreve" unicode="&#x115;" horiz-adv-x="540" 
d="M146.5 19q-58.5 34 -90 97.5t-31.5 147.5q0 129 67 204t184 75q126 0 182.5 -85.5t56.5 -221.5l-365 -1q6 -73 42.5 -112.5t92.5 -39.5q47 0 78.5 31t41.5 84l107 -28q-14 -77 -72.5 -131t-156.5 -54q-78 0 -136.5 34zM395 317q-2 59 -32.5 94t-84.5 35q-50 0 -83 -32
t-42 -97h242zM176 651.5q-36 38.5 -36 112.5h74q2 -38 15.5 -56t47.5 -18q35 0 48.5 18t15.5 56h74q1 -74 -35 -112.5t-103 -38.5q-65 0 -101 38.5z" />
    <glyph glyph-name="Edotaccent" unicode="&#x116;" horiz-adv-x="580" 
d="M64 347l-3 346h480v-109h-348l-1 -179h325v-102h-325l1 -194h357v-109h-489zM261 759q-18 17 -18 47q0 29 18 46t50 17q31 0 49 -17t18 -46q0 -30 -18 -47t-49 -17q-32 0 -50 17z" />
    <glyph glyph-name="edotaccent" unicode="&#x117;" horiz-adv-x="540" 
d="M146.5 19q-58.5 34 -90 97.5t-31.5 147.5q0 129 67 204t184 75q126 0 182.5 -85.5t56.5 -221.5l-365 -1q6 -73 42.5 -112.5t92.5 -39.5q47 0 78.5 31t41.5 84l107 -28q-14 -77 -72.5 -131t-156.5 -54q-78 0 -136.5 34zM395 317q-2 59 -32.5 94t-84.5 35q-50 0 -83 -32
t-42 -97h242zM228 638q-18 17 -18 47q0 29 18 46t50 17q31 0 49 -17t18 -46q0 -30 -18 -47t-49 -17q-32 0 -50 17z" />
    <glyph glyph-name="Eogonek" unicode="&#x118;" horiz-adv-x="580" 
d="M64 347l-3 346h480v-109h-348l-1 -179h325v-102h-325l1 -194h357v-109h-2q-29 -17 -46.5 -38t-17.5 -38q0 -26 38 -26q18 0 42 7l17 -60q-44 -21 -92 -21q-44 0 -69 18.5t-25 53.5q0 30 21 55t60 49h-415z" />
    <glyph glyph-name="eogonek" unicode="&#x119;" horiz-adv-x="540" 
d="M146.5 19q-58.5 34 -90 97.5t-31.5 147.5q0 129 67 204t184 75q126 0 182.5 -85.5t56.5 -221.5l-365 -1q6 -73 42.5 -112.5t92.5 -39.5q47 0 78.5 31t41.5 84l107 -28q-9 -48 -36 -89.5t-72 -66.5q-23 -16 -36.5 -34.5t-13.5 -32.5q0 -26 38 -26q18 0 42 7l17 -60
q-44 -21 -92 -21q-44 0 -69 18.5t-25 53.5t31 66h-13q-78 0 -136.5 34zM395 317q-2 59 -32.5 94t-84.5 35q-50 0 -83 -32t-42 -97h242z" />
    <glyph glyph-name="Ecaron" unicode="&#x11a;" horiz-adv-x="580" 
d="M64 347l-3 346h480v-109h-348l-1 -179h325v-102h-325l1 -194h357v-109h-489zM251 865l60 -50l60 50h91l-103 -121h-96l-103 121h91z" />
    <glyph glyph-name="ecaron" unicode="&#x11b;" horiz-adv-x="540" 
d="M146.5 19q-58.5 34 -90 97.5t-31.5 147.5q0 129 67 204t184 75q126 0 182.5 -85.5t56.5 -221.5l-365 -1q6 -73 42.5 -112.5t92.5 -39.5q47 0 78.5 31t41.5 84l107 -28q-14 -77 -72.5 -131t-156.5 -54q-78 0 -136.5 34zM395 317q-2 59 -32.5 94t-84.5 35q-50 0 -83 -32
t-42 -97h242zM207 765l70 -74l70 74h81l-103 -149h-96l-103 149h81z" />
    <glyph glyph-name="Gcircumflex" unicode="&#x11c;" horiz-adv-x="672" 
d="M169.5 28.5q-68.5 43.5 -106 125.5t-37.5 193t38 192.5t110 125t170 43.5q122 0 196.5 -64t90.5 -171l-119 -33q-12 73 -55.5 115t-114.5 42q-84 0 -132.5 -66.5t-48.5 -184.5q0 -120 47 -186t132 -66q161 0 176 181l-194 -2v96h312l-2 -191l10 -179h-89l-13 89
q-30 -52 -85.5 -77.5t-124.5 -25.5q-92 0 -160.5 43.5zM286 866h96l103 -121h-91l-60 50l-60 -50h-91z" />
    <glyph glyph-name="gcircumflex" unicode="&#x11d;" horiz-adv-x="582" 
d="M108.5 -126.5q-60.5 46.5 -68.5 117.5l104 30q3 -49 35.5 -75.5t89.5 -26.5q78 0 105.5 45.5t27.5 130.5v22h-3q-20 -35 -62 -61t-100 -26q-99 0 -155.5 67t-56.5 187q0 115 55.5 187.5t155.5 72.5q58 0 100.5 -26.5t63.5 -62.5h2l-1 75h125v-400q0 -159 -64.5 -231
t-188.5 -72q-104 0 -164.5 46.5zM182.5 169.5q32.5 -42.5 90.5 -42.5q54 0 91.5 37.5t37.5 119.5q0 62 -32 110t-97 48q-56 0 -89.5 -43.5t-33.5 -114.5q0 -72 32.5 -114.5zM247 773h96l103 -149h-81l-70 74l-70 -74h-81z" />
    <glyph glyph-name="Gbreve" unicode="&#x11e;" horiz-adv-x="672" 
d="M169.5 28.5q-68.5 43.5 -106 125.5t-37.5 193t38 192.5t110 125t170 43.5q122 0 196.5 -64t90.5 -171l-119 -33q-12 73 -55.5 115t-114.5 42q-84 0 -132.5 -66.5t-48.5 -184.5q0 -120 47 -186t132 -66q161 0 176 181l-194 -2v96h312l-2 -191l10 -179h-89l-13 89
q-30 -52 -85.5 -77.5t-124.5 -25.5q-92 0 -160.5 43.5zM232 775q-36 34 -36 97h76q2 -28 15 -42.5t46 -14.5t46.5 14.5t15.5 42.5h76q1 -63 -35.5 -97t-102.5 -34q-65 0 -101 34z" />
    <glyph glyph-name="gbreve" unicode="&#x11f;" horiz-adv-x="582" 
d="M108.5 -126.5q-60.5 46.5 -68.5 117.5l104 30q3 -49 35.5 -75.5t89.5 -26.5q78 0 105.5 45.5t27.5 130.5v22h-3q-20 -35 -62 -61t-100 -26q-99 0 -155.5 67t-56.5 187q0 115 55.5 187.5t155.5 72.5q58 0 100.5 -26.5t63.5 -62.5h2l-1 75h125v-400q0 -159 -64.5 -231
t-188.5 -72q-104 0 -164.5 46.5zM182.5 169.5q32.5 -42.5 90.5 -42.5q54 0 91.5 37.5t37.5 119.5q0 62 -32 110t-97 48q-56 0 -89.5 -43.5t-33.5 -114.5q0 -72 32.5 -114.5zM193 651.5q-36 38.5 -36 112.5h74q2 -38 15.5 -56t47.5 -18q35 0 48.5 18t15.5 56h74
q1 -74 -35 -112.5t-103 -38.5q-65 0 -101 38.5z" />
    <glyph glyph-name="Gdotaccent" unicode="&#x120;" horiz-adv-x="672" 
d="M169.5 28.5q-68.5 43.5 -106 125.5t-37.5 193t38 192.5t110 125t170 43.5q122 0 196.5 -64t90.5 -171l-119 -33q-12 73 -55.5 115t-114.5 42q-84 0 -132.5 -66.5t-48.5 -184.5q0 -120 47 -186t132 -66q161 0 176 181l-194 -2v96h312l-2 -191l10 -179h-89l-13 89
q-30 -52 -85.5 -77.5t-124.5 -25.5q-92 0 -160.5 43.5zM284 759q-18 17 -18 47q0 29 18 46t50 17q31 0 49 -17t18 -46q0 -30 -18 -47t-49 -17q-32 0 -50 17z" />
    <glyph glyph-name="gdotaccent" unicode="&#x121;" horiz-adv-x="582" 
d="M108.5 -126.5q-60.5 46.5 -68.5 117.5l104 30q3 -49 35.5 -75.5t89.5 -26.5q78 0 105.5 45.5t27.5 130.5v22h-3q-20 -35 -62 -61t-100 -26q-99 0 -155.5 67t-56.5 187q0 115 55.5 187.5t155.5 72.5q58 0 100.5 -26.5t63.5 -62.5h2l-1 75h125v-400q0 -159 -64.5 -231
t-188.5 -72q-104 0 -164.5 46.5zM182.5 169.5q32.5 -42.5 90.5 -42.5q54 0 91.5 37.5t37.5 119.5q0 62 -32 110t-97 48q-56 0 -89.5 -43.5t-33.5 -114.5q0 -72 32.5 -114.5zM245 638q-18 17 -18 47q0 29 18 46t50 17q31 0 49 -17t18 -46q0 -30 -18 -47t-49 -17q-32 0 -50 17
z" />
    <glyph glyph-name="uni0122" unicode="&#x122;" horiz-adv-x="672" 
d="M169.5 28.5q-68.5 43.5 -106 125.5t-37.5 193t38 192.5t110 125t170 43.5q122 0 196.5 -64t90.5 -171l-119 -33q-12 73 -55.5 115t-114.5 42q-84 0 -132.5 -66.5t-48.5 -184.5q0 -120 47 -186t132 -66q161 0 176 181l-194 -2v96h312l-2 -191l10 -179h-89l-13 89
q-30 -52 -85.5 -77.5t-124.5 -25.5q-92 0 -160.5 43.5zM329 -117q-28 2 -40.5 13t-12.5 26q0 18 15 31t42 13q30 0 46.5 -13.5t16.5 -37.5q0 -34 -26 -59.5t-92 -30.5l-12 34q68 4 63 24z" />
    <glyph glyph-name="uni0123" unicode="&#x123;" horiz-adv-x="582" 
d="M108.5 -126.5q-60.5 46.5 -68.5 117.5l104 30q3 -49 35.5 -75.5t89.5 -26.5q78 0 105.5 45.5t27.5 130.5v22h-3q-20 -35 -62 -61t-100 -26q-99 0 -155.5 67t-56.5 187q0 115 55.5 187.5t155.5 72.5q58 0 100.5 -26.5t63.5 -62.5h2l-1 75h125v-400q0 -159 -64.5 -231
t-188.5 -72q-104 0 -164.5 46.5zM182.5 169.5q32.5 -42.5 90.5 -42.5q54 0 91.5 37.5t37.5 119.5q0 62 -32 110t-97 48q-56 0 -89.5 -43.5t-33.5 -114.5q0 -72 32.5 -114.5zM250 641q-16 15 -16 43q0 39 24 67.5t85 33.5l11 -33q-57 -6 -57 -42q31 2 44 -9t13 -28
q0 -20 -15.5 -33.5t-43.5 -13.5q-29 0 -45 15z" />
    <glyph glyph-name="Hcircumflex" unicode="&#x124;" horiz-adv-x="691" 
d="M64 347l-3 346h134l-3 -286l153 -2l153 2l-2 286h134l-4 -346l4 -347h-134l2 295l-153 2l-153 -2l3 -295h-134zM298 866h96l103 -121h-91l-60 50l-60 -50h-91z" />
    <glyph glyph-name="hcircumflex" unicode="&#x125;" horiz-adv-x="586" 
d="M59 255l-3 439h124l-2 -241h2q21 40 66 65.5t102 25.5q90 0 135.5 -53t45.5 -166v-70l3 -255h-124l2 255v56q0 64 -28 95.5t-78 31.5q-54 0 -90 -40.5t-36 -106.5v-36l2 -255h-124zM76 849h96l103 -121h-91l-60 50l-60 -50h-91z" />
    <glyph glyph-name="Hbar" unicode="&#x126;" horiz-adv-x="691" 
d="M64 347l-2 184h-56v71l56 -1l-1 92h134l-1 -93l146 -1l157 1l-1 93h134l-1 -91h55v-71h-56l-2 -184l4 -347h-134l2 295l-153 2l-153 -2l3 -295h-134zM345 405l153 2l-1 125l-156 1l-148 -1l-1 -125z" />
    <glyph glyph-name="hbar" unicode="&#x127;" horiz-adv-x="586" 
d="M59 255l-2 314l-71 -1v71l70 -1v56h124v-56l119 1v-71l-120 2l-1 -117h2q21 40 66 65.5t102 25.5q90 0 135.5 -53t45.5 -166v-70l3 -255h-124l2 255v56q0 64 -28 95.5t-78 31.5q-54 0 -90 -40.5t-36 -106.5v-36l2 -255h-124z" />
    <glyph glyph-name="Itilde" unicode="&#x128;" horiz-adv-x="256" 
d="M64 347l-3 346h134l-3 -346l3 -347h-134zM-7.5 832.5q21.5 35.5 68.5 35.5q24 0 42 -8t39 -23q25 -18 40 -18q18 0 24 12t6 37h71q2 -54 -19.5 -89.5t-70.5 -35.5q-24 0 -40.5 7.5t-39.5 22.5q-13 10 -22 14.5t-18 4.5q-18 0 -24 -12t-6 -37h-71q-1 54 20.5 89.5z" />
    <glyph glyph-name="itilde" unicode="&#x129;" horiz-adv-x="236" 
d="M59 266l-3 264h124l-2 -264l2 -266h-124zM-17.5 711.5q21.5 35.5 68.5 35.5q25 0 43 -7.5t38 -20.5q13 -9 22 -13t18 -4q18 0 24 11.5t6 33.5h71q2 -54 -19.5 -89.5t-70.5 -35.5q-24 0 -42 7.5t-38 20.5q-13 9 -22 13t-18 4q-18 0 -24 -11.5t-6 -33.5h-71
q-1 54 20.5 89.5z" />
    <glyph glyph-name="Imacron" unicode="&#x12a;" horiz-adv-x="256" 
d="M64 347l-3 346h134l-3 -346l3 -347h-134zM-24 827h304v-79h-304v79z" />
    <glyph glyph-name="imacron" unicode="&#x12b;" horiz-adv-x="236" 
d="M59 266l-3 264h124l-2 -264l2 -266h-124zM-26 710h289v-79h-289v79z" />
    <glyph glyph-name="Ibreve" unicode="&#x12c;" horiz-adv-x="256" 
d="M64 347l-3 346h134l-3 -346l3 -347h-134zM26 775q-36 34 -36 97h76q2 -28 15 -42.5t46 -14.5t46.5 14.5t15.5 42.5h76q1 -63 -35.5 -97t-102.5 -34q-65 0 -101 34z" />
    <glyph glyph-name="ibreve" unicode="&#x12d;" horiz-adv-x="236" 
d="M59 266l-3 264h124l-2 -264l2 -266h-124zM16 651.5q-36 38.5 -36 112.5h74q2 -38 15.5 -56t47.5 -18q35 0 48.5 18t15.5 56h74q1 -74 -35 -112.5t-103 -38.5q-65 0 -101 38.5z" />
    <glyph glyph-name="Iogonek" unicode="&#x12e;" horiz-adv-x="256" 
d="M64 347l-3 346h134l-3 -346l3 -347h-28q-29 -17 -46.5 -38t-17.5 -38q0 -26 38 -26q18 0 42 7l17 -60q-44 -21 -92 -21q-44 0 -69 18.5t-25 53.5q0 30 21 55t60 49h-34z" />
    <glyph glyph-name="iogonek" unicode="&#x12f;" horiz-adv-x="236" 
d="M59 266l-3 264h124l-2 -264l2 -266h-17q-29 -17 -46.5 -38t-17.5 -38q0 -26 38 -26q18 0 42 7l17 -60q-44 -21 -92 -21q-44 0 -69 18.5t-25 53.5q0 30 21 55t60 49h-35zM69 731q18 17 50 17q31 0 49 -17t18 -46q0 -30 -18 -47t-49 -17q-32 0 -50 17t-18 47q0 29 18 46z
" />
    <glyph glyph-name="Idotaccent" unicode="&#x130;" horiz-adv-x="256" 
d="M64 347l-3 346h134l-3 -346l3 -347h-134zM79 759q-18 17 -18 47q0 29 18 46t50 17q31 0 49 -17t18 -46q0 -30 -18 -47t-49 -17q-32 0 -50 17z" />
    <glyph glyph-name="dotlessi" unicode="&#x131;" horiz-adv-x="236" 
d="M59 266l-3 264h124l-2 -264l2 -266h-124z" />
    <glyph glyph-name="IJ" unicode="&#x132;" horiz-adv-x="635" 
d="M64 347l-3 346h134l-3 -346l3 -347h-134zM262 -5l15 109q42 -7 68 -7q58 0 82 36.5t25 109.5l2 233l-2 217h134l-2 -217l2 -228q1 -136 -56 -199.5t-170 -63.5q-50 0 -98 10z" />
    <glyph glyph-name="ij" unicode="&#x133;" horiz-adv-x="236" 
d="M58 206l-2 324q34 -4 62 -4t62 4l-2 -324l2 -206h-3q-4 -89 -41.5 -129t-110.5 -40q-22 0 -49 4.5t-48 12.5l19 91q25 -9 53 -9t42.5 16.5t16.5 53.5h-3zM63 694q18 16 56 16q37 0 55 -16t18 -48q0 -33 -17.5 -48.5t-55.5 -15.5t-56 15.5t-18 48.5q0 32 18 48z" />
    <glyph glyph-name="Jcircumflex" unicode="&#x134;" horiz-adv-x="379" 
d="M6 -5l15 109q42 -7 68 -7q58 0 82 36.5t25 109.5l2 233l-2 217h134l-2 -217l2 -228q1 -136 -56 -199.5t-170 -63.5q-50 0 -98 10zM213 866h96l103 -121h-91l-60 50l-60 -50h-91z" />
    <glyph glyph-name="jcircumflex" unicode="&#x135;" horiz-adv-x="238" 
d="M-69 -149l18 88q25 -9 54 -9q30 0 44 20t14 64v99l-2 417h123l-2 -418v-82q0 -105 -35.5 -152t-110.5 -47q-55 0 -103 20zM71 773h96l103 -149h-81l-70 74l-70 -74h-81z" />
    <glyph glyph-name="uni0136" unicode="&#x136;" horiz-adv-x="637" 
d="M64 347l-3 346h134l-3 -325l261 325h156l-228 -274l252 -419h-146l-190 318l-104 -124l2 -194h-134zM310 -117q-28 2 -40.5 13t-12.5 26q0 18 15 31t42 13q30 0 46.5 -13.5t16.5 -37.5q0 -34 -26 -59.5t-92 -30.5l-12 34q68 4 63 24z" />
    <glyph glyph-name="uni0137" unicode="&#x137;" horiz-adv-x="541" 
d="M59 352l-3 342h124l-2 -342v-41l191 219h142l-180 -198l207 -332h-136l-151 244l-72 -79l1 -165h-124zM256 -117q-28 2 -40.5 13t-12.5 26q0 18 15 31t42 13q30 0 46.5 -13.5t16.5 -37.5q0 -34 -26 -59.5t-92 -30.5l-12 34q68 4 63 24z" />
    <glyph glyph-name="kgreenlandic" unicode="&#x138;" horiz-adv-x="541" 
d="M59 352l-3 178h124l-2 -178v-35l188 213h145l-180 -198l207 -332h-136l-151 244l-72 -79l1 -165h-124z" />
    <glyph glyph-name="Lacute" unicode="&#x139;" horiz-adv-x="530" 
d="M64 365l-3 328h134l-3 -328l2 -252h314v-113h-447zM91 745l41 121h130l-95 -121h-76z" />
    <glyph glyph-name="lacute" unicode="&#x13a;" horiz-adv-x="236" 
d="M59 352l-3 342h124l-2 -342l2 -352h-124zM76 728l41 121h130l-95 -121h-76z" />
    <glyph glyph-name="uni013B" unicode="&#x13b;" horiz-adv-x="530" 
d="M64 365l-3 328h134l-3 -328l2 -252h314v-113h-447zM249 -117q-28 2 -40.5 13t-12.5 26q0 18 15 31t42 13q30 0 46.5 -13.5t16.5 -37.5q0 -34 -26 -59.5t-92 -30.5l-12 34q68 4 63 24z" />
    <glyph glyph-name="uni013C" unicode="&#x13c;" horiz-adv-x="236" 
d="M59 352l-3 342h124l-2 -342l2 -352h-124zM114 -117q-28 2 -40.5 13t-12.5 26q0 18 15 31t42 13q30 0 46.5 -13.5t16.5 -37.5q0 -34 -26 -59.5t-92 -30.5l-12 34q68 4 63 24z" />
    <glyph glyph-name="Lcaron" unicode="&#x13d;" horiz-adv-x="530" 
d="M64 365l-3 328h134l-3 -328l2 -252h314v-113h-447zM385 693h98l-13 -226h-72z" />
    <glyph glyph-name="lcaron" unicode="&#x13e;" horiz-adv-x="314" 
d="M59 352l-3 342h124l-2 -342l2 -352h-124zM234 693h98l-13 -226h-72z" />
    <glyph glyph-name="Ldot" unicode="&#x13f;" horiz-adv-x="530" 
d="M64 365l-3 328h134l-3 -328l2 -252h314v-113h-447zM315.5 431q18.5 17 53.5 17t53.5 -17t18.5 -49q0 -33 -18.5 -50.5t-53.5 -17.5t-53.5 17.5t-18.5 50.5q0 32 18.5 49z" />
    <glyph glyph-name="ldot" unicode="&#x140;" horiz-adv-x="303" 
d="M59 352l-3 342h124l-2 -342l2 -352h-124zM245.5 388.5q15.5 14.5 44.5 14.5t45 -14.5t16 -39.5q0 -27 -16 -41t-45 -14t-44.5 14t-15.5 41q0 25 15.5 39.5z" />
    <glyph glyph-name="Lslash" unicode="&#x141;" horiz-adv-x="530" 
d="M63 266l-47 -28l-36 62l84 46v19l-3 328h134l-2 -272l58 35l36 -61l-95 -54l2 -228h314v-113h-447z" />
    <glyph glyph-name="lslash" unicode="&#x142;" horiz-adv-x="236" 
d="M58 272l-57 -34l-36 62l94 52l-3 342h124l-2 -272l58 34l36 -61l-94 -53l2 -342h-124z" />
    <glyph glyph-name="Nacute" unicode="&#x143;" horiz-adv-x="682" 
d="M64 346l-3 347h148l167 -300l116 -204h3v205l-2 299h128l-3 -346l3 -347h-148l-152 276l-131 229h-3v-205l2 -300h-128zM299 745l41 121h130l-95 -121h-76z" />
    <glyph glyph-name="nacute" unicode="&#x144;" horiz-adv-x="583" 
d="M59 255l-3 275h124l-2 -77h2q21 41 65.5 66t102.5 25q89 0 134 -53t45 -166v-70l2 -255h-123l2 255v56q0 63 -28 95.5t-77 32.5q-54 0 -89.5 -41t-35.5 -107v-36l2 -255h-124zM282 624l48 149h121l-93 -149h-76z" />
    <glyph glyph-name="uni0145" unicode="&#x145;" horiz-adv-x="682" 
d="M64 346l-3 347h148l167 -300l116 -204h3v205l-2 299h128l-3 -346l3 -347h-148l-152 276l-131 229h-3v-205l2 -300h-128zM337 -117q-28 2 -40.5 13t-12.5 26q0 18 15 31t42 13q30 0 46.5 -13.5t16.5 -37.5q0 -34 -26 -59.5t-92 -30.5l-12 34q68 4 63 24z" />
    <glyph glyph-name="uni0146" unicode="&#x146;" horiz-adv-x="583" 
d="M59 255l-3 275h124l-2 -77h2q21 41 65.5 66t102.5 25q89 0 134 -53t45 -166v-70l2 -255h-123l2 255v56q0 63 -28 95.5t-77 32.5q-54 0 -89.5 -41t-35.5 -107v-36l2 -255h-124zM284 -117q-28 2 -40.5 13t-12.5 26q0 18 15 31t42 13q30 0 46.5 -13.5t16.5 -37.5
q0 -34 -26 -59.5t-92 -30.5l-12 34q68 4 63 24z" />
    <glyph glyph-name="Ncaron" unicode="&#x147;" horiz-adv-x="682" 
d="M64 346l-3 347h148l167 -300l116 -204h3v205l-2 299h128l-3 -346l3 -347h-148l-152 276l-131 229h-3v-205l2 -300h-128zM281 865l60 -50l60 50h91l-103 -121h-96l-103 121h91z" />
    <glyph glyph-name="ncaron" unicode="&#x148;" horiz-adv-x="583" 
d="M59 255l-3 275h124l-2 -77h2q21 41 65.5 66t102.5 25q89 0 134 -53t45 -166v-70l2 -255h-123l2 255v56q0 63 -28 95.5t-77 32.5q-54 0 -89.5 -41t-35.5 -107v-36l2 -255h-124zM253 765l70 -74l70 74h81l-103 -149h-96l-103 149h81z" />
    <glyph glyph-name="Eng" unicode="&#x14a;" horiz-adv-x="682" 
d="M327 -164.5q-37 6.5 -65 15.5l23 95q51 -15 94 -15q44 0 67 18t30 55l-286 501h-3v-216l2 -289h-128l3 346l-3 347h148l166 -299l117 -205h3v217l-2 287h128l-3 -346l2 -265q1 -133 -58 -193t-167 -60q-31 0 -68 6.5z" />
    <glyph glyph-name="eng" unicode="&#x14b;" horiz-adv-x="583" 
d="M59 255l-3 275h124l-2 -77h2q21 41 65.5 66t102.5 25q89 0 134 -53t45 -166v-70l2 -225q1 -106 -35.5 -152.5t-113.5 -46.5q-52 0 -100 20l19 88q26 -9 53 -9q29 0 41 18.5t13 64.5l2 242v56q0 63 -28 95.5t-77 32.5q-54 0 -89.5 -41t-35.5 -107v-36l2 -255h-124z" />
    <glyph glyph-name="Omacron" unicode="&#x14c;" horiz-adv-x="703" 
d="M177.5 28.5q-73.5 43.5 -112.5 125t-39 193.5t39.5 193.5t112.5 124.5t173 43q101 0 174.5 -43t112.5 -124t39 -194q0 -112 -39.5 -193.5t-113 -125t-173.5 -43.5t-173.5 43.5zM211 162.5q50 -65.5 140 -65.5q89 0 140.5 66t51.5 184q0 120 -50.5 185t-141.5 65
q-89 0 -139.5 -65.5t-50.5 -184.5t50 -184.5zM200 827h304v-79h-304v79z" />
    <glyph glyph-name="omacron" unicode="&#x14d;" horiz-adv-x="567" 
d="M146.5 19q-58.5 34 -90 97.5t-31.5 148.5t31.5 148t89.5 97t136 34q79 0 137.5 -34t90.5 -97t32 -148t-32 -148.5t-91 -97.5t-137 -34q-77 0 -135.5 34zM184.5 133q35.5 -47 98.5 -47t99 47t36 132q0 84 -36 130.5t-99 46.5t-98.5 -46.5t-35.5 -130.5q0 -85 35.5 -132z
M139 710h289v-79h-289v79z" />
    <glyph glyph-name="Obreve" unicode="&#x14e;" horiz-adv-x="703" 
d="M177.5 28.5q-73.5 43.5 -112.5 125t-39 193.5t39.5 193.5t112.5 124.5t173 43q101 0 174.5 -43t112.5 -124t39 -194q0 -112 -39.5 -193.5t-113 -125t-173.5 -43.5t-173.5 43.5zM211 162.5q50 -65.5 140 -65.5q89 0 140.5 66t51.5 184q0 120 -50.5 185t-141.5 65
q-89 0 -139.5 -65.5t-50.5 -184.5t50 -184.5zM250 775q-36 34 -36 97h76q2 -28 15 -42.5t46 -14.5t46.5 14.5t15.5 42.5h76q1 -63 -35.5 -97t-102.5 -34q-65 0 -101 34z" />
    <glyph glyph-name="obreve" unicode="&#x14f;" horiz-adv-x="567" 
d="M146.5 19q-58.5 34 -90 97.5t-31.5 148.5t31.5 148t89.5 97t136 34q79 0 137.5 -34t90.5 -97t32 -148t-32 -148.5t-91 -97.5t-137 -34q-77 0 -135.5 34zM184.5 133q35.5 -47 98.5 -47t99 47t36 132q0 84 -36 130.5t-99 46.5t-98.5 -46.5t-35.5 -130.5q0 -85 35.5 -132z
M181 651.5q-36 38.5 -36 112.5h74q2 -38 15.5 -56t47.5 -18q35 0 48.5 18t15.5 56h74q1 -74 -35 -112.5t-103 -38.5q-65 0 -101 38.5z" />
    <glyph glyph-name="Ohungarumlaut" unicode="&#x150;" horiz-adv-x="703" 
d="M177.5 28.5q-73.5 43.5 -112.5 125t-39 193.5t39.5 193.5t112.5 124.5t173 43q101 0 174.5 -43t112.5 -124t39 -194q0 -112 -39.5 -193.5t-113 -125t-173.5 -43.5t-173.5 43.5zM211 162.5q50 -65.5 140 -65.5q89 0 140.5 66t51.5 184q0 120 -50.5 185t-141.5 65
q-89 0 -139.5 -65.5t-50.5 -184.5t50 -184.5zM428 868h117l-96 -123h-72zM277 868h107l-68 -123h-79z" />
    <glyph glyph-name="ohungarumlaut" unicode="&#x151;" horiz-adv-x="567" 
d="M146.5 19q-58.5 34 -90 97.5t-31.5 148.5t31.5 148t89.5 97t136 34q79 0 137.5 -34t90.5 -97t32 -148t-32 -148.5t-91 -97.5t-137 -34q-77 0 -135.5 34zM184.5 133q35.5 -47 98.5 -47t99 47t36 132q0 84 -36 130.5t-99 46.5t-98.5 -46.5t-35.5 -130.5q0 -85 35.5 -132z
M370 773h107l-96 -149h-72zM219 773h97l-68 -149h-79z" />
    <glyph glyph-name="OE" unicode="&#x152;" horiz-adv-x="1011" 
d="M174 27q-71 42 -109.5 123.5t-38.5 196.5t39 196t110 123t166 42q134 0 188 -88h1v73h442v-109h-318l-1 -179h295v-102h-295l1 -194h327v-109h-451v74h-1q-29 -45 -78 -67t-110 -22q-96 0 -167 42zM209.5 161q48.5 -64 133.5 -64q83 0 132.5 64.5t49.5 185.5
q0 124 -48 187t-134 63q-84 0 -133 -64t-49 -186t48.5 -186z" />
    <glyph glyph-name="oe" unicode="&#x153;" horiz-adv-x="887" 
d="M143 19q-56 34 -87 97.5t-31 148.5t31 148t87 97t129 34q62 0 108.5 -25t75.5 -73q54 98 176 98q120 0 175 -86t55 -221h-349q6 -74 41 -114t87 -40q43 0 73 30t39 82l104 -27q-14 -77 -69.5 -130t-144.5 -53q-127 0 -186 100q-29 -49 -76 -74.5t-109 -25.5
q-73 0 -129 34zM183 133.5q34 -47.5 91 -47.5t91.5 47.5t34.5 131.5q0 83 -34.5 130t-91.5 47t-91 -47t-34 -130q0 -84 34 -131.5zM743 319q-2 59 -31.5 95.5t-77.5 36.5q-46 0 -77.5 -32.5t-40.5 -99.5h227z" />
    <glyph glyph-name="Racute" unicode="&#x154;" horiz-adv-x="643" 
d="M64 347l-3 346h266q133 0 201 -52.5t68 -156.5q0 -128 -111 -169q42 -20 63 -60.5t27 -106.5q5 -58 11 -93.5t16 -54.5h-135q-14 32 -23 143q-4 53 -18 79t-40 34t-74 8h-119l2 -264h-134zM326 365q70 0 105.5 28.5t35.5 81.5q0 55 -34 82t-105 27h-135v-219h133z
M236 745l41 121h130l-95 -121h-76z" />
    <glyph glyph-name="racute" unicode="&#x155;" horiz-adv-x="374" 
d="M59 254l-3 276h124l-3 -82h2q16 41 55 68.5t98 27.5q20 0 32 -4v-119q-25 6 -44 6q-69 0 -105.5 -42.5t-36.5 -126.5v-21l2 -237h-124zM164 624l48 149h121l-93 -149h-76z" />
    <glyph glyph-name="uni0156" unicode="&#x156;" horiz-adv-x="643" 
d="M64 347l-3 346h266q133 0 201 -52.5t68 -156.5q0 -128 -111 -169q42 -20 63 -60.5t27 -106.5q5 -58 11 -93.5t16 -54.5h-135q-14 32 -23 143q-4 53 -18 79t-40 34t-74 8h-119l2 -264h-134zM326 365q70 0 105.5 28.5t35.5 81.5q0 55 -34 82t-105 27h-135v-219h133z
M318 -117q-28 2 -40.5 13t-12.5 26q0 18 15 31t42 13q30 0 46.5 -13.5t16.5 -37.5q0 -34 -26 -59.5t-92 -30.5l-12 34q68 4 63 24z" />
    <glyph glyph-name="uni0157" unicode="&#x157;" horiz-adv-x="374" 
d="M59 254l-3 276h124l-3 -82h2q16 41 55 68.5t98 27.5q20 0 32 -4v-119q-25 6 -44 6q-69 0 -105.5 -42.5t-36.5 -126.5v-21l2 -237h-124zM109 -117q-28 2 -40.5 13t-12.5 26q0 18 15 31t42 13q30 0 46.5 -13.5t16.5 -37.5q0 -34 -26 -59.5t-92 -30.5l-12 34q68 4 63 24z
" />
    <glyph glyph-name="Rcaron" unicode="&#x158;" horiz-adv-x="643" 
d="M64 347l-3 346h266q133 0 201 -52.5t68 -156.5q0 -128 -111 -169q42 -20 63 -60.5t27 -106.5q5 -58 11 -93.5t16 -54.5h-135q-14 32 -23 143q-4 53 -18 79t-40 34t-74 8h-119l2 -264h-134zM326 365q70 0 105.5 28.5t35.5 81.5q0 55 -34 82t-105 27h-135v-219h133z
M218 865l60 -50l60 50h91l-103 -121h-96l-103 121h91z" />
    <glyph glyph-name="rcaron" unicode="&#x159;" horiz-adv-x="374" 
d="M59 254l-3 276h124l-3 -82h2q16 41 55 68.5t98 27.5q20 0 32 -4v-119q-25 6 -44 6q-69 0 -105.5 -42.5t-36.5 -126.5v-21l2 -237h-124zM136 765l70 -74l70 74h81l-103 -149h-96l-103 149h81z" />
    <glyph glyph-name="Sacute" unicode="&#x15a;" horiz-adv-x="594" 
d="M110 42q-72 57 -86 159l111 27q14 -67 54 -100.5t118 -33.5q62 0 94.5 26.5t32.5 69.5t-33.5 68t-112.5 42q-126 28 -183 77t-57 136q0 93 61.5 144t170.5 51q118 0 188 -54.5t84 -146.5l-115 -29q-6 54 -44.5 88t-106.5 34q-52 0 -81.5 -23t-29.5 -63q0 -41 33 -64
t114 -41q129 -27 185 -78t56 -141q0 -98 -70.5 -151.5t-182.5 -53.5q-128 0 -200 57zM238 745l41 121h130l-95 -121h-76z" />
    <glyph glyph-name="sacute" unicode="&#x15b;" horiz-adv-x="474" 
d="M80 27.5q-58 42.5 -69 124.5l105 27q2 -44 34 -70t94 -26q93 0 93 63q0 29 -24.5 46.5t-87.5 29.5q-99 18 -144.5 57.5t-45.5 105.5q0 72 51.5 115.5t142.5 43.5q99 0 152.5 -39t64.5 -118l-104 -27q-10 86 -110 86q-37 0 -56.5 -15t-19.5 -40q0 -28 23 -44.5t83 -28.5
q104 -19 150 -59.5t46 -110.5q0 -73 -56.5 -118t-159.5 -45q-104 0 -162 42.5zM193 624l48 149h121l-93 -149h-76z" />
    <glyph glyph-name="Scircumflex" unicode="&#x15c;" horiz-adv-x="594" 
d="M110 42q-72 57 -86 159l111 27q14 -67 54 -100.5t118 -33.5q62 0 94.5 26.5t32.5 69.5t-33.5 68t-112.5 42q-126 28 -183 77t-57 136q0 93 61.5 144t170.5 51q118 0 188 -54.5t84 -146.5l-115 -29q-6 54 -44.5 88t-106.5 34q-52 0 -81.5 -23t-29.5 -63q0 -41 33 -64
t114 -41q129 -27 185 -78t56 -141q0 -98 -70.5 -151.5t-182.5 -53.5q-128 0 -200 57zM232 866h96l103 -121h-91l-60 50l-60 -50h-91z" />
    <glyph glyph-name="scircumflex" unicode="&#x15d;" horiz-adv-x="474" 
d="M80 27.5q-58 42.5 -69 124.5l105 27q2 -44 34 -70t94 -26q93 0 93 63q0 29 -24.5 46.5t-87.5 29.5q-99 18 -144.5 57.5t-45.5 105.5q0 72 51.5 115.5t142.5 43.5q99 0 152.5 -39t64.5 -118l-104 -27q-10 86 -110 86q-37 0 -56.5 -15t-19.5 -40q0 -28 23 -44.5t83 -28.5
q104 -19 150 -59.5t46 -110.5q0 -73 -56.5 -118t-159.5 -45q-104 0 -162 42.5zM187 773h96l103 -149h-81l-70 74l-70 -74h-81z" />
    <glyph glyph-name="Scedilla" unicode="&#x15e;" horiz-adv-x="594" 
d="M206 -162l12 50q21 -6 47 -6q18 0 26.5 5t8.5 17q0 13 -13.5 19.5t-50.5 13.5l21 51q-103 11 -162 66.5t-71 146.5l111 27q14 -67 54 -100.5t118 -33.5q62 0 94.5 26.5t32.5 69.5t-33.5 68t-112.5 42q-126 28 -183 77t-57 136q0 93 61.5 144t170.5 51q118 0 188 -54.5
t84 -146.5l-115 -29q-6 54 -44.5 88t-106.5 34q-52 0 -81.5 -23t-29.5 -63q0 -41 33 -64t114 -41q129 -27 185 -78t56 -141q0 -95 -67 -148.5t-173 -56.5l-9 -27q42 -5 61.5 -20t19.5 -43q0 -35 -28 -51.5t-75 -16.5q-46 0 -86 11z" />
    <glyph glyph-name="scedilla" unicode="&#x15f;" horiz-adv-x="474" 
d="M143 -162l12 50q21 -6 47 -6q18 0 26.5 5t8.5 17q0 13 -13.5 19.5t-50.5 13.5l21 51q-82 9 -128 50.5t-55 113.5l105 27q2 -44 34 -70t94 -26q93 0 93 63q0 29 -24.5 46.5t-87.5 29.5q-99 18 -144.5 57.5t-45.5 105.5q0 72 51.5 115.5t142.5 43.5q99 0 152.5 -39
t64.5 -118l-104 -27q-10 86 -110 86q-37 0 -56.5 -15t-19.5 -40q0 -28 23 -44.5t83 -28.5q104 -19 150 -59.5t46 -110.5t-51.5 -114.5t-146.5 -48.5l-9 -27q42 -5 61.5 -20t19.5 -43q0 -35 -28 -51.5t-75 -16.5q-46 0 -86 11z" />
    <glyph glyph-name="Scaron" unicode="&#x160;" horiz-adv-x="594" 
d="M110 42q-72 57 -86 159l111 27q14 -67 54 -100.5t118 -33.5q62 0 94.5 26.5t32.5 69.5t-33.5 68t-112.5 42q-126 28 -183 77t-57 136q0 93 61.5 144t170.5 51q118 0 188 -54.5t84 -146.5l-115 -29q-6 54 -44.5 88t-106.5 34q-52 0 -81.5 -23t-29.5 -63q0 -41 33 -64
t114 -41q129 -27 185 -78t56 -141q0 -98 -70.5 -151.5t-182.5 -53.5q-128 0 -200 57zM220 865l60 -50l60 50h91l-103 -121h-96l-103 121h91z" />
    <glyph glyph-name="scaron" unicode="&#x161;" horiz-adv-x="474" 
d="M80 27.5q-58 42.5 -69 124.5l105 27q2 -44 34 -70t94 -26q93 0 93 63q0 29 -24.5 46.5t-87.5 29.5q-99 18 -144.5 57.5t-45.5 105.5q0 72 51.5 115.5t142.5 43.5q99 0 152.5 -39t64.5 -118l-104 -27q-10 86 -110 86q-37 0 -56.5 -15t-19.5 -40q0 -28 23 -44.5t83 -28.5
q104 -19 150 -59.5t46 -110.5q0 -73 -56.5 -118t-159.5 -45q-104 0 -162 42.5zM165 765l70 -74l70 74h81l-103 -149h-96l-103 149h81z" />
    <glyph glyph-name="uni0162" unicode="&#x162;" horiz-adv-x="522" 
d="M197 325l-2 259h-189v109h509v-109h-188l-3 -259l4 -325h-38l-13 -42q42 -5 61.5 -20t19.5 -43q0 -35 -28 -51.5t-75 -16.5q-46 0 -86 11l12 50q21 -6 47 -6q18 0 26.5 5t8.5 17q0 13 -13.5 19.5t-50.5 13.5l26 63h-31z" />
    <glyph glyph-name="uni0163" unicode="&#x163;" horiz-adv-x="374" 
d="M138 -162l12 50q21 -6 47 -6q18 0 26.5 5t8.5 17q0 13 -13.5 19.5t-50.5 13.5l22 54q-49 11 -73.5 41t-32 71.5t-6.5 104.5l1 229l-79 -2v95h78v165h123v-165h156v-95l-157 2l1 -242q0 -59 16.5 -85t58.5 -26q35 0 73 12l22 -87q-58 -24 -116 -24l-9 -27q42 -5 61.5 -20
t19.5 -43q0 -35 -28 -51.5t-75 -16.5q-46 0 -86 11z" />
    <glyph glyph-name="Tcaron" unicode="&#x164;" horiz-adv-x="522" 
d="M197 325l-2 259h-189v109h509v-109h-188l-3 -259l4 -325h-134zM201 865l60 -50l60 50h91l-103 -121h-96l-103 121h91z" />
    <glyph glyph-name="tcaron" unicode="&#x165;" horiz-adv-x="374" 
d="M137 13.5q-38 28.5 -49 74.5t-10 120l1 229l-79 -2v95h78v165h123v-165h156v-95l-157 2l1 -242q0 -59 16.5 -85t58.5 -26q35 0 73 12l22 -87q-60 -24 -119 -24q-77 0 -115 28.5zM284 827h98l-13 -226h-72z" />
    <glyph glyph-name="Tbar" unicode="&#x166;" horiz-adv-x="522" 
d="M196 262l-88 -1v71l89 -1l-2 253h-189v109h509v-109h-188l-3 -253l97 1v-71l-96 1l3 -262h-134z" />
    <glyph glyph-name="tbar" unicode="&#x167;" horiz-adv-x="374" 
d="M137 13.5q-38 28.5 -49 74.5t-10 120v63l-77 -1v71l78 -1v97l-79 -2v95h78v165h123v-165h156v-95l-157 2v-97l114 1v-71l-113 1v-76q0 -59 16.5 -85t58.5 -26q35 0 73 12l22 -87q-60 -24 -119 -24q-77 0 -115 28.5z" />
    <glyph glyph-name="Utilde" unicode="&#x168;" horiz-adv-x="662" 
d="M117 61.5q-70 76.5 -68 231.5l2 208l-2 192h134l-3 -192l3 -223q2 -181 148 -181q147 0 149 181l2 223l-2 192h133l-2 -192l2 -208q2 -155 -67.5 -231.5t-214.5 -76.5q-144 0 -214 76.5zM196.5 832.5q21.5 35.5 68.5 35.5q24 0 42 -8t39 -23q25 -18 40 -18q18 0 24 12
t6 37h71q2 -54 -19.5 -89.5t-70.5 -35.5q-24 0 -40.5 7.5t-39.5 22.5q-13 10 -22 14.5t-18 4.5q-18 0 -24 -12t-6 -37h-71q-1 54 20.5 89.5z" />
    <glyph glyph-name="utilde" unicode="&#x169;" horiz-adv-x="578" 
d="M520 275l2 -275h-123l2 77h-2q-22 -40 -66 -65t-98 -25q-88 0 -133 53t-45 166v69l-3 255h124l-2 -255v-56q0 -63 27.5 -95t76.5 -32q33 0 60.5 18t44 51.5t16.5 77.5v36l-2 255h123zM157.5 711.5q21.5 35.5 68.5 35.5q25 0 43 -7.5t38 -20.5q13 -9 22 -13t18 -4
q18 0 24 11.5t6 33.5h71q2 -54 -19.5 -89.5t-70.5 -35.5q-24 0 -42 7.5t-38 20.5q-13 9 -22 13t-18 4q-18 0 -24 -11.5t-6 -33.5h-71q-1 54 20.5 89.5z" />
    <glyph glyph-name="Umacron" unicode="&#x16a;" horiz-adv-x="662" 
d="M117 61.5q-70 76.5 -68 231.5l2 208l-2 192h134l-3 -192l3 -223q2 -181 148 -181q147 0 149 181l2 223l-2 192h133l-2 -192l2 -208q2 -155 -67.5 -231.5t-214.5 -76.5q-144 0 -214 76.5zM179 827h304v-79h-304v79z" />
    <glyph glyph-name="umacron" unicode="&#x16b;" horiz-adv-x="578" 
d="M520 275l2 -275h-123l2 77h-2q-22 -40 -66 -65t-98 -25q-88 0 -133 53t-45 166v69l-3 255h124l-2 -255v-56q0 -63 27.5 -95t76.5 -32q33 0 60.5 18t44 51.5t16.5 77.5v36l-2 255h123zM149 710h289v-79h-289v79z" />
    <glyph glyph-name="Ubreve" unicode="&#x16c;" horiz-adv-x="662" 
d="M117 61.5q-70 76.5 -68 231.5l2 208l-2 192h134l-3 -192l3 -223q2 -181 148 -181q147 0 149 181l2 223l-2 192h133l-2 -192l2 -208q2 -155 -67.5 -231.5t-214.5 -76.5q-144 0 -214 76.5zM229 775q-36 34 -36 97h76q2 -28 15 -42.5t46 -14.5t46.5 14.5t15.5 42.5h76
q1 -63 -35.5 -97t-102.5 -34q-65 0 -101 34z" />
    <glyph glyph-name="ubreve" unicode="&#x16d;" horiz-adv-x="578" 
d="M520 275l2 -275h-123l2 77h-2q-22 -40 -66 -65t-98 -25q-88 0 -133 53t-45 166v69l-3 255h124l-2 -255v-56q0 -63 27.5 -95t76.5 -32q33 0 60.5 18t44 51.5t16.5 77.5v36l-2 255h123zM191 651.5q-36 38.5 -36 112.5h74q2 -38 15.5 -56t47.5 -18q35 0 48.5 18t15.5 56h74
q1 -74 -35 -112.5t-103 -38.5q-65 0 -101 38.5z" />
    <glyph glyph-name="Uring" unicode="&#x16e;" horiz-adv-x="662" 
d="M117 61.5q-70 76.5 -68 231.5l2 208l-2 192h134l-3 -192l3 -223q2 -181 148 -181q147 0 149 181l2 223l-2 192h133l-2 -192l2 -208q2 -155 -67.5 -231.5t-214.5 -76.5q-144 0 -214 76.5zM273.5 762.5q-21.5 19.5 -21.5 53.5q0 33 21.5 53t57.5 20q35 0 56.5 -20t21.5 -53
q0 -34 -21.5 -53.5t-56.5 -19.5q-36 0 -57.5 19.5zM308.5 794q8.5 -8 22.5 -8t22 8t8 22t-8 22.5t-22 8.5t-22.5 -8.5t-8.5 -22.5t8.5 -22z" />
    <glyph glyph-name="uring" unicode="&#x16f;" horiz-adv-x="578" 
d="M520 275l2 -275h-123l2 77h-2q-22 -40 -66 -65t-98 -25q-88 0 -133 53t-45 166v69l-3 255h124l-2 -255v-56q0 -63 27.5 -95t76.5 -32q33 0 60.5 18t44 51.5t16.5 77.5v36l-2 255h123zM226 642q-25 23 -25 62t25 62t67 23q41 0 66 -23t25 -62t-25 -62t-66 -23
q-42 0 -67 23zM262.5 674.5q11.5 -10.5 30.5 -10.5t30 10.5t11 29.5t-11 30.5t-30 11.5t-30.5 -11.5t-11.5 -30.5t11.5 -29.5z" />
    <glyph glyph-name="Uhungarumlaut" unicode="&#x170;" horiz-adv-x="662" 
d="M117 61.5q-70 76.5 -68 231.5l2 208l-2 192h134l-3 -192l3 -223q2 -181 148 -181q147 0 149 181l2 223l-2 192h133l-2 -192l2 -208q2 -155 -67.5 -231.5t-214.5 -76.5q-144 0 -214 76.5zM408 868h117l-96 -123h-72zM257 868h107l-68 -123h-79z" />
    <glyph glyph-name="uhungarumlaut" unicode="&#x171;" horiz-adv-x="578" 
d="M520 275l2 -275h-123l2 77h-2q-22 -40 -66 -65t-98 -25q-88 0 -133 53t-45 166v69l-3 255h124l-2 -255v-56q0 -63 27.5 -95t76.5 -32q33 0 60.5 18t44 51.5t16.5 77.5v36l-2 255h123zM379 773h107l-96 -149h-72zM228 773h97l-68 -149h-79z" />
    <glyph glyph-name="Uogonek" unicode="&#x172;" horiz-adv-x="662" 
d="M117 61.5q-70 76.5 -68 231.5l2 208l-2 192h134l-3 -192l3 -223q2 -181 148 -181q147 0 149 181l2 223l-2 192h133l-2 -192l2 -208q3 -209 -126 -276q-19 -15 -29 -30.5t-10 -28.5q0 -26 38 -26q18 0 42 7l17 -60q-44 -21 -92 -21q-44 0 -69 18.5t-25 53.5q0 28 23 58
q-24 -3 -51 -3q-144 0 -214 76.5z" />
    <glyph glyph-name="uogonek" unicode="&#x173;" horiz-adv-x="578" 
d="M520 275l2 -275h-2q-29 -17 -46.5 -38t-17.5 -38q0 -26 38 -26q18 0 42 7l17 -60q-44 -21 -92 -21q-44 0 -69 18.5t-25 53.5q0 30 21 55t60 49h-49l2 77h-2q-22 -40 -66 -65t-98 -25q-88 0 -133 53t-45 166v69l-3 255h124l-2 -255v-56q0 -63 27.5 -95t76.5 -32
q33 0 60.5 18t44 51.5t16.5 77.5v36l-2 255h123z" />
    <glyph glyph-name="Wcircumflex" unicode="&#x174;" horiz-adv-x="920" 
d="M96 355l-92 338h138l71 -322l53 -220h3l59 224l77 318h113l80 -317l61 -225h2l52 219l71 323h132l-90 -337l-88 -356h-148l-81 304l-49 191h-2l-48 -191l-81 -304h-145zM412 866h96l103 -121h-91l-60 50l-60 -50h-91z" />
    <glyph glyph-name="wcircumflex" unicode="&#x175;" horiz-adv-x="751" 
d="M3 530h124l94 -409h2l99 409h113l102 -409h1l93 409h118l-140 -530h-140l-91 369h-2l-93 -369h-141zM328 773h96l103 -149h-81l-70 74l-70 -74h-81z" />
    <glyph glyph-name="Ycircumflex" unicode="&#x176;" horiz-adv-x="605" 
d="M237 249l-233 444h147l150 -307h2l155 307h143l-235 -444l2 -249h-133zM254 866h96l103 -121h-91l-60 50l-60 -50h-91z" />
    <glyph glyph-name="ycircumflex" unicode="&#x177;" horiz-adv-x="520" 
d="M92 -167q-27 4 -48 11l21 91q33 -7 59 -7q30 0 49 16t35 52l-205 534h128l137 -378h2l123 378h125l-187 -526q-34 -96 -81 -135.5t-110 -39.5q-21 0 -48 4zM212 773h96l103 -149h-81l-70 74l-70 -74h-81z" />
    <glyph glyph-name="Ydieresis" unicode="&#x178;" horiz-adv-x="605" 
d="M237 249l-233 444h147l150 -307h2l155 307h143l-235 -444l2 -249h-133zM163 760q-17 16 -17 44t17 44t47 16q29 0 45.5 -16t16.5 -44t-16.5 -44t-45.5 -16q-30 0 -47 16zM352 848q17 16 46 16t46 -16t17 -44t-17 -44t-46 -16t-46 16t-17 44t17 44z" />
    <glyph glyph-name="Zacute" unicode="&#x179;" horiz-adv-x="574" 
d="M19 106l206 260l161 215h-360v112h524v-105l-207 -262l-160 -213h372v-113h-536v106zM245 745l41 121h130l-95 -121h-76z" />
    <glyph glyph-name="zacute" unicode="&#x17a;" horiz-adv-x="478" 
d="M24 91l275 339h-272v100h421v-92l-273 -338h279v-100h-430v91zM197 624l48 149h121l-93 -149h-76z" />
    <glyph glyph-name="Zdotaccent" unicode="&#x17b;" horiz-adv-x="574" 
d="M19 106l206 260l161 215h-360v112h524v-105l-207 -262l-160 -213h372v-113h-536v106zM238 759q-18 17 -18 47q0 29 18 46t50 17q31 0 49 -17t18 -46q0 -30 -18 -47t-49 -17q-32 0 -50 17z" />
    <glyph glyph-name="zdotaccent" unicode="&#x17c;" horiz-adv-x="478" 
d="M24 91l275 339h-272v100h421v-92l-273 -338h279v-100h-430v91zM190 638q-18 17 -18 47q0 29 18 46t50 17q31 0 49 -17t18 -46q0 -30 -18 -47t-49 -17q-32 0 -50 17z" />
    <glyph glyph-name="Zcaron" unicode="&#x17d;" horiz-adv-x="574" 
d="M19 106l206 260l161 215h-360v112h524v-105l-207 -262l-160 -213h372v-113h-536v106zM227 865l60 -50l60 50h91l-103 -121h-96l-103 121h91z" />
    <glyph glyph-name="zcaron" unicode="&#x17e;" horiz-adv-x="478" 
d="M24 91l275 339h-272v100h421v-92l-273 -338h279v-100h-430v91zM169 765l70 -74l70 74h81l-103 -149h-96l-103 149h81z" />
    <glyph glyph-name="florin" unicode="&#x192;" horiz-adv-x="516" 
d="M203 344l-97 -2l15 95h99l18 100q15 80 53 125t111 45q61 0 110 -27l-31 -89q-25 16 -56 16q-61 0 -73 -73l-17 -97h142l-15 -95l-140 2l-30 -179q-13 -82 -57 -130t-118 -48q-65 0 -113 26l30 90q41 -16 75 -16q44 0 60 77z" />
    <glyph glyph-name="AEacute" unicode="&#x1fc;" horiz-adv-x="923" 
d="M187 347l174 346h524v-109h-309l-1 -179h286v-102h-286l1 -194h318v-109h-449l1 163l-96 1l-120 -1l-77 -163h-149zM360 264l87 1v82l-1 237h-16l-151 -319zM598 745l41 121h130l-95 -121h-76z" />
    <glyph glyph-name="aeacute" unicode="&#x1fd;" horiz-adv-x="849" 
d="M72.5 26q-43.5 41 -43.5 109q0 93 72 132t222 39h39v15q0 65 -24 96.5t-80 31.5q-57 0 -84 -32t-25 -78l-104 24q4 83 62.5 132t155.5 49q121 0 170 -72q31 35 73 53.5t92 18.5q118 0 172 -85t54 -222h-349q5 -70 38.5 -112t92.5 -42q41 0 70.5 30t39.5 82l103 -27
q-13 -76 -68.5 -129.5t-145.5 -53.5q-69 0 -122 32t-83 90q-45 -67 -96.5 -94.5t-109.5 -27.5q-78 0 -121.5 41zM167.5 95.5q19.5 -18.5 55.5 -18.5q33 0 65.5 19t53 53.5t20.5 77.5v8h-24q-100 0 -145 -19.5t-45 -70.5q0 -31 19.5 -49.5zM710 319q-2 59 -31 95.5t-79 36.5
q-47 0 -80 -32.5t-42 -99.5h232zM390 624l48 149h121l-93 -149h-76z" />
    <glyph glyph-name="Oslashacute" unicode="&#x1fe;" horiz-adv-x="703" 
d="M158 41l-44 -56l-59 44l49 63q-38 46 -58 111t-20 144q0 112 39.5 193.5t112.5 124.5t173 43q116 0 194 -55l44 55l60 -44l-49 -62q77 -95 77 -255q0 -112 -39.5 -193.5t-113 -125t-173.5 -43.5q-112 0 -193 56zM189 199l281 357q-47 41 -119 41q-89 0 -139.5 -65.5
t-50.5 -184.5q0 -86 28 -148zM351 97q89 0 140.5 66t51.5 184q0 88 -28 147l-281 -356q47 -41 117 -41zM310 745l41 121h130l-95 -121h-76z" />
    <glyph glyph-name="oslashacute" unicode="&#x1ff;" horiz-adv-x="567" 
d="M133 27l-31 -39l-47 35l34 44q-31 36 -47.5 86.5t-16.5 111.5q0 85 31.5 148t89.5 97t136 34q87 0 151 -42l32 41l48 -35l-36 -45q65 -74 65 -198q0 -85 -32 -148.5t-91 -97.5t-137 -34q-85 0 -149 42zM167 164l197 251q-33 27 -81 27q-63 0 -98.5 -46.5t-35.5 -130.5
q0 -59 18 -101zM283 86q63 0 99 47t36 132q0 60 -18 100l-198 -251q33 -28 81 -28zM241 624l48 149h121l-93 -149h-76z" />
    <glyph glyph-name="uni0218" unicode="&#x218;" horiz-adv-x="594" 
d="M110 42q-72 57 -86 159l111 27q14 -67 54 -100.5t118 -33.5q62 0 94.5 26.5t32.5 69.5t-33.5 68t-112.5 42q-126 28 -183 77t-57 136q0 93 61.5 144t170.5 51q118 0 188 -54.5t84 -146.5l-115 -29q-6 54 -44.5 88t-106.5 34q-52 0 -81.5 -23t-29.5 -63q0 -41 33 -64
t114 -41q129 -27 185 -78t56 -141q0 -98 -70.5 -151.5t-182.5 -53.5q-128 0 -200 57zM293 -117q-28 2 -40.5 13t-12.5 26q0 18 15 31t42 13q30 0 46.5 -13.5t16.5 -37.5q0 -34 -26 -59.5t-92 -30.5l-12 34q68 4 63 24z" />
    <glyph glyph-name="uni0219" unicode="&#x219;" horiz-adv-x="474" 
d="M80 27.5q-58 42.5 -69 124.5l105 27q2 -44 34 -70t94 -26q93 0 93 63q0 29 -24.5 46.5t-87.5 29.5q-99 18 -144.5 57.5t-45.5 105.5q0 72 51.5 115.5t142.5 43.5q99 0 152.5 -39t64.5 -118l-104 -27q-10 86 -110 86q-37 0 -56.5 -15t-19.5 -40q0 -28 23 -44.5t83 -28.5
q104 -19 150 -59.5t46 -110.5q0 -73 -56.5 -118t-159.5 -45q-104 0 -162 42.5zM231 -117q-28 2 -40.5 13t-12.5 26q0 18 15 31t42 13q30 0 46.5 -13.5t16.5 -37.5q0 -34 -26 -59.5t-92 -30.5l-12 34q68 4 63 24z" />
    <glyph glyph-name="uni021A" unicode="&#x21a;" horiz-adv-x="522" 
d="M197 325l-2 259h-189v109h509v-109h-188l-3 -259l4 -325h-134zM256 -117q-28 2 -40.5 13t-12.5 26q0 18 15 31t42 13q30 0 46.5 -13.5t16.5 -37.5q0 -34 -26 -59.5t-92 -30.5l-12 34q68 4 63 24z" />
    <glyph glyph-name="uni021B" unicode="&#x21b;" horiz-adv-x="374" 
d="M137 13.5q-38 28.5 -49 74.5t-10 120l1 229l-79 -2v95h78v165h123v-165h156v-95l-157 2l1 -242q0 -59 16.5 -85t58.5 -26q35 0 73 12l22 -87q-60 -24 -119 -24q-77 0 -115 28.5zM226 -117q-28 2 -40.5 13t-12.5 26q0 18 15 31t42 13q30 0 46.5 -13.5t16.5 -37.5
q0 -34 -26 -59.5t-92 -30.5l-12 34q68 4 63 24z" />
    <glyph glyph-name="uni0237" unicode="&#x237;" horiz-adv-x="238" 
d="M-69 -149l18 88q25 -9 54 -9q30 0 44 20t14 64v99l-2 417h123l-2 -418v-82q0 -105 -35.5 -152t-110.5 -47q-55 0 -103 20z" />
    <glyph glyph-name="uni02B0" unicode="&#x2b0;" horiz-adv-x="423" 
d="M58 521l-2 263h102l-1 -138h1q13 23 41.5 37t58.5 14q55 0 82.5 -30.5t27.5 -96.5v-49l1 -153h-102l1 153v31q0 28 -13 43t-38 15q-27 0 -43.5 -19t-16.5 -50v-20l1 -153h-102z" />
    <glyph glyph-name="uni02B2" unicode="&#x2b2;" horiz-adv-x="193" 
d="M-19 277l13 73q15 -5 26 -5q26 0 26 42v57l-1 245q22 -5 50 -5q32 0 52 5l-1 -246v-52q0 -68 -25 -97t-79 -29q-29 0 -61 12zM51 792q14 11 45 11t45 -11t14 -34q0 -24 -14 -34.5t-45 -10.5t-45 10.5t-14 34.5q0 23 14 34z" />
    <glyph glyph-name="uni02B7" unicode="&#x2b7;" horiz-adv-x="483" 
d="M3 689h103l43 -222h2l49 222h89l54 -222h1l40 222h97l-79 -321h-112l-46 199h-1l-47 -199h-113z" />
    <glyph glyph-name="uni02B8" unicode="&#x2b8;" horiz-adv-x="339" 
d="M26 277l17 72q8 -2 18 -3t18 -1q16 0 26 5t18 17l-120 322h106l65 -204h1l59 204h103l-93 -280q-26 -76 -59 -110t-88 -34q-39 0 -71 12z" />
    <glyph glyph-name="circumflex" unicode="&#x2c6;" horiz-adv-x="382" 
d="M143 773h96l103 -149h-81l-70 74l-70 -74h-81z" />
    <glyph glyph-name="caron" unicode="&#x2c7;" horiz-adv-x="382" 
d="M121 765l70 -74l70 74h81l-103 -149h-96l-103 149h81z" />
    <glyph glyph-name="breve" unicode="&#x2d8;" horiz-adv-x="355" 
d="M76 651.5q-36 38.5 -36 112.5h74q2 -38 15.5 -56t47.5 -18q35 0 48.5 18t15.5 56h74q1 -74 -35 -112.5t-103 -38.5q-65 0 -101 38.5z" />
    <glyph glyph-name="dotaccent" unicode="&#x2d9;" horiz-adv-x="203" 
d="M52 638q-18 17 -18 47q0 29 18 46t50 17q31 0 49 -17t18 -46q0 -30 -18 -47t-49 -17q-32 0 -50 17z" />
    <glyph glyph-name="ring" unicode="&#x2da;" horiz-adv-x="263" 
d="M65 642q-25 23 -25 62t25 62t67 23q41 0 66 -23t25 -62t-25 -62t-66 -23q-42 0 -67 23zM101.5 674.5q11.5 -10.5 30.5 -10.5t30 10.5t11 29.5t-11 30.5t-30 11.5t-30.5 -11.5t-11.5 -30.5t11.5 -29.5z" />
    <glyph glyph-name="ogonek" unicode="&#x2db;" horiz-adv-x="266" 
d="M65 -154.5q-25 18.5 -25 53.5q0 33 25 60t71 54l59 -9q-30 -17 -48 -38.5t-18 -38.5q0 -26 38 -26q18 0 42 7l17 -60q-44 -21 -92 -21q-44 0 -69 18.5z" />
    <glyph glyph-name="tilde" unicode="&#x2dc;" horiz-adv-x="387" 
d="M58.5 711.5q21.5 35.5 68.5 35.5q24 0 42 -8t39 -23q25 -18 40 -18q18 0 24 12t6 37h71q2 -54 -19.5 -89.5t-70.5 -35.5q-24 0 -40.5 7.5t-39.5 22.5q-13 10 -22 14.5t-18 4.5q-18 0 -24 -12t-6 -37h-71q-1 54 20.5 89.5z" />
    <glyph glyph-name="hungarumlaut" unicode="&#x2dd;" horiz-adv-x="388" 
d="M241 773h107l-96 -149h-72zM90 773h97l-68 -149h-79z" />
    <glyph glyph-name="uni02E1" unicode="&#x2e1;" horiz-adv-x="214" 
d="M58 579l-2 205h102l-1 -205l1 -211h-102z" />
    <glyph glyph-name="uni02E2" unicode="&#x2e2;" horiz-adv-x="340" 
d="M19 459l85 23q8 -52 68 -52q20 0 31.5 7.5t11.5 22.5q0 14 -14 23t-47 13q-123 17 -123 101q0 47 37 73.5t97 26.5q65 0 100.5 -23.5t45.5 -70.5l-85 -23q-9 46 -56 46q-17 0 -27 -7t-10 -19q0 -14 14 -22.5t55 -14.5q59 -10 86.5 -33.5t27.5 -67.5q0 -48 -37.5 -75.5
t-107.5 -27.5q-134 0 -152 100z" />
    <glyph glyph-name="uni02E3" unicode="&#x2e3;" horiz-adv-x="347" 
d="M101 532l-94 157h115l52 -107h1l54 107h110l-92 -157l98 -164h-114l-57 112h-1l-59 -112h-111z" />
    <glyph glyph-name="gravecomb" unicode="&#x300;" 
d="M25 773h121l48 -149h-76z" />
    <glyph glyph-name="acutecomb" unicode="&#x301;" 
d="M35 624l48 149h121l-93 -149h-76z" />
    <glyph glyph-name="uni0302" unicode="&#x302;" 
d="M143 773h96l103 -149h-81l-70 74l-70 -74h-81z" />
    <glyph glyph-name="tildecomb" unicode="&#x303;" 
d="M58.5 711.5q21.5 35.5 68.5 35.5q25 0 43 -7.5t38 -20.5q13 -9 22 -13t18 -4q18 0 24 11.5t6 33.5h71q2 -54 -19.5 -89.5t-70.5 -35.5q-24 0 -42 7.5t-38 20.5q-13 9 -22 13t-18 4q-18 0 -24 -11.5t-6 -33.5h-71q-1 54 20.5 89.5z" />
    <glyph glyph-name="uni0304" unicode="&#x304;" 
d="M48 710h289v-79h-289v79z" />
    <glyph glyph-name="uni0306" unicode="&#x306;" 
d="M76 651.5q-36 38.5 -36 112.5h74q2 -38 15.5 -56t47.5 -18q35 0 48.5 18t15.5 56h74q1 -74 -35 -112.5t-103 -38.5q-65 0 -101 38.5z" />
    <glyph glyph-name="uni0307" unicode="&#x307;" 
d="M52 638q-18 17 -18 47q0 29 18 46t50 17q31 0 49 -17t18 -46q0 -30 -18 -47t-49 -17q-32 0 -50 17z" />
    <glyph glyph-name="uni0308" unicode="&#x308;" 
d="M27 637q-17 16 -17 45q0 27 17 43t47 16q29 0 45.5 -16t16.5 -43q0 -29 -16.5 -45t-45.5 -16q-30 0 -47 16zM216 725q17 16 46 16t46 -16t17 -43q0 -28 -17 -44.5t-46 -16.5t-46 16.5t-17 44.5q0 27 17 43z" />
    <glyph glyph-name="hookabovecomb" unicode="&#x309;" 
d="M106.5 676q8.5 12 8.5 27q0 22 -26 22q-20 0 -37 -6l-12 44q9 6 28.5 10.5t35.5 4.5q39 0 59 -17t20 -47q0 -32 -20 -57.5t-49 -43.5l-32 35q16 16 24.5 28z" />
    <glyph glyph-name="uni030A" unicode="&#x30a;" 
d="M65 642q-25 23 -25 62t25 62t67 23q41 0 66 -23t25 -62t-25 -62t-66 -23q-42 0 -67 23zM101.5 674.5q11.5 -10.5 30.5 -10.5t30 10.5t11 29.5t-11 30.5t-30 11.5t-30.5 -11.5t-11.5 -30.5t11.5 -29.5z" />
    <glyph glyph-name="uni030B" unicode="&#x30b;" 
d="M241 773h107l-96 -149h-72zM90 773h97l-68 -149h-79z" />
    <glyph glyph-name="uni030C" unicode="&#x30c;" 
d="M121 765l70 -74l70 74h81l-103 -149h-96l-103 149h81z" />
    <glyph glyph-name="uni030F" unicode="&#x30f;" 
d="M136 624l-96 149h107l61 -149h-72zM298 773l50 -149h-79l-68 149h97z" />
    <glyph glyph-name="uni0311" unicode="&#x311;" 
d="M280 732.5q36 -38.5 35 -112.5h-74q-2 38 -15.5 56t-48.5 18q-34 0 -47.5 -18t-15.5 -56h-74q0 74 36 112.5t101 38.5q67 0 103 -38.5z" />
    <glyph glyph-name="uni0313" unicode="&#x313;" 
d="M61 641q-16 15 -16 43q0 39 24 67.5t85 33.5l11 -33q-57 -6 -57 -42q31 2 44 -9t13 -28q0 -20 -15.5 -33.5t-43.5 -13.5q-29 0 -45 15z" />
    <glyph glyph-name="uni031B" unicode="&#x31b;" 
d="M115.5 535q24.5 5 33 16t8.5 32v43h83v-47q0 -64 -44.5 -92t-143.5 -26l-12 69q51 0 75.5 5z" />
    <glyph glyph-name="uni0326" unicode="&#x326;" 
d="M90 -117q-28 2 -40.5 13t-12.5 26q0 18 15 31t42 13q30 0 46.5 -13.5t16.5 -37.5q0 -34 -26 -59.5t-92 -30.5l-12 34q68 4 63 24z" />
    <glyph glyph-name="uni0327" unicode="&#x327;" 
d="M40 -162l12 50q21 -6 47 -6q18 0 26.5 5t8.5 17q0 13 -13.5 19.5t-50.5 13.5l31 76l64 -2l-17 -53q42 -5 61.5 -20t19.5 -43q0 -35 -28 -51.5t-75 -16.5q-46 0 -86 11z" />
    <glyph glyph-name="uni0328" unicode="&#x328;" 
d="M65 -154.5q-25 18.5 -25 53.5q0 33 25 60t71 53l59 -8q-30 -17 -48 -38.5t-18 -38.5q0 -26 38 -26q18 0 42 7l17 -60q-44 -21 -92 -21q-44 0 -69 18.5z" />
    <glyph glyph-name="uni0335" unicode="&#x335;" 
d="M45 324l152 -2l161 2v-71l-160 2l-153 -2v71z" />
    <glyph glyph-name="uni0336" unicode="&#x336;" 
d="M43 324l334 -3l344 3v-71l-343 2l-335 -2v71z" />
    <glyph glyph-name="uni0337" unicode="&#x337;" 
d="M48 241l134 74l137 82l36 -61l-140 -79l-131 -78z" />
    <glyph glyph-name="uni0338" unicode="&#x338;" 
d="M414 542l48 -35l-411 -520l-47 35z" />
    <glyph glyph-name="pi" unicode="&#x3c0;" horiz-adv-x="610" 
d="M402.5 20.5q-31.5 35.5 -31.5 111.5v305h-176v-437h-116v437h-79v93h575v-93h-91v-305q0 -25 10 -36.5t29 -11.5q25 0 61 12l22 -87q-58 -24 -105 -24q-67 0 -98.5 35.5z" />
    <glyph glyph-name="uni0401" unicode="&#x401;" horiz-adv-x="580" 
d="M64 347l-3 346h480v-109h-348l-1 -179h325v-102h-325l1 -194h357v-109h-489zM184 800q-17 16 -17 45q0 27 17 43t47 16q29 0 45.5 -16t16.5 -43q0 -29 -16.5 -45t-45.5 -16q-30 0 -47 16zM373 888q17 16 46 16t46 -16t17 -43q0 -28 -17 -44.5t-46 -16.5t-46 16.5
t-17 44.5q0 27 17 43z" />
    <glyph glyph-name="uni0410" unicode="&#x410;" horiz-adv-x="653" 
d="M131 347l120 346h147l122 -346l129 -347h-143l-54 163l-129 1l-127 -1l-53 -163h-139zM323 264l100 1l-99 289h-2l-97 -289z" />
    <glyph glyph-name="uni0411" unicode="&#x411;" horiz-adv-x="609" 
d="M64 347l-3 346h465v-104h-334l-2 -166h147q129 0 190.5 -56.5t61.5 -153.5q0 -105 -67.5 -159t-182.5 -54h-278zM192 99h136q61 0 96 28t35 84q0 55 -32 83.5t-95 28.5h-142z" />
    <glyph glyph-name="uni0412" unicode="&#x412;" horiz-adv-x="629" 
d="M64 347l-3 346h285q114 0 176 -41.5t62 -134.5q0 -64 -32 -104t-95 -54v-3q74 -9 113 -49.5t39 -112.5q0 -97 -71.5 -145.5t-193.5 -48.5h-283zM192 99h140q147 0 147 107q0 102 -144 102h-145zM335 404q65 0 94 24.5t29 70.5q0 51 -32 74t-96 23h-138l-2 -192h145z" />
    <glyph glyph-name="uni0413" unicode="&#x413;" horiz-adv-x="507" 
d="M64 328l-3 365h440v-112h-307l-2 -253l3 -328h-134z" />
    <glyph glyph-name="uni0414" unicode="&#x414;" horiz-adv-x="731" 
d="M13 113h39q21 0 34.5 13t21.5 52q23 132 27 515h501l-3 -346l2 -234h75v-241h-128v128h-441v-128h-128v241zM505 113l2 234l-2 234l-121 4l-121 -4q-13 -304 -23 -386q-4 -30 -11.5 -50.5t-21.5 -29.5v-2h298z" />
    <glyph glyph-name="uni0415" unicode="&#x415;" horiz-adv-x="580" 
d="M64 347l-3 346h480v-109h-348l-1 -179h325v-102h-325l1 -194h357v-109h-489z" />
    <glyph glyph-name="uni0416" unicode="&#x416;" horiz-adv-x="914" 
d="M560 299h-39l2 -299h-133l3 299h-39l-203 -299h-147l246 360l-228 333h151l181 -283h38l-2 283h133l-2 -283h39l181 283h151l-228 -333l246 -360h-147z" />
    <glyph glyph-name="uni0417" unicode="&#x417;" horiz-adv-x="587" 
d="M81.5 607q26.5 44 80 72.5t134.5 28.5q116 0 179.5 -47.5t63.5 -135.5q0 -62 -33.5 -106.5t-90.5 -58.5q65 -15 101 -56.5t36 -109.5q0 -99 -66 -154t-190 -55q-114 0 -183.5 55t-87.5 150l114 30q15 -63 53 -96t98 -33q64 0 99 28t35 80q0 115 -156 115h-75v88h75
q70 0 107 24t37 82q0 46 -32 70t-87 24q-61 0 -92 -35t-38 -82l-114 31q6 47 32.5 91z" />
    <glyph glyph-name="uni0418" unicode="&#x418;" horiz-adv-x="682" 
d="M493 0l2 300v205h-3l-131 -229l-152 -276h-148l3 347l-3 346h128l-2 -299v-205h3l116 204l167 300h148l-3 -347l3 -346h-128z" />
    <glyph glyph-name="uni0419" unicode="&#x419;" horiz-adv-x="682" 
d="M493 0l2 300v205h-3l-131 -229l-152 -276h-148l3 347l-3 346h128l-2 -299v-205h3l116 204l167 300h148l-3 -347l3 -346h-128zM249 774q-36 34 -36 99h74q2 -34 15.5 -50t47.5 -16q35 0 48.5 16t15.5 50h74q1 -65 -35 -99t-103 -34q-65 0 -101 34z" />
    <glyph glyph-name="uni041A" unicode="&#x41a;" horiz-adv-x="637" 
d="M278 299h-86l3 -299h-134l3 347l-3 346h134l-2 -283h85l182 283h156l-234 -334l251 -359h-146z" />
    <glyph glyph-name="uni041B" unicode="&#x41b;" horiz-adv-x="716" 
d="M13 -3l22 104q21 -4 36 -4q20 0 33 12.5t20 50.5q24 132 28 533h503l-3 -346l3 -347h-133l2 347l-2 234l-121 4l-119 -4q-7 -317 -29 -449q-15 -89 -58 -118t-99 -29q-39 0 -83 12z" />
    <glyph glyph-name="uni041C" unicode="&#x41c;" horiz-adv-x="828" 
d="M64 338l-3 355h172l106 -323l74 -219h3l178 542h172l-1 -342l2 -351h-122l4 304v216h-3l-79 -233l-92 -287h-121l-93 286l-79 234h-3v-216l4 -304h-122z" />
    <glyph glyph-name="uni041D" unicode="&#x41d;" horiz-adv-x="691" 
d="M64 347l-3 346h134l-3 -286l153 -2l153 2l-2 286h134l-4 -346l4 -347h-134l2 295l-153 2l-153 -2l3 -295h-134z" />
    <glyph glyph-name="uni041E" unicode="&#x41e;" horiz-adv-x="703" 
d="M177.5 28.5q-73.5 43.5 -112.5 125t-39 193.5t39.5 193.5t112.5 124.5t173 43q101 0 174.5 -43t112.5 -124t39 -194q0 -112 -39.5 -193.5t-113 -125t-173.5 -43.5t-173.5 43.5zM211 162.5q50 -65.5 140 -65.5q89 0 140.5 66t51.5 184q0 120 -50.5 185t-141.5 65
q-89 0 -139.5 -65.5t-50.5 -184.5t50 -184.5z" />
    <glyph glyph-name="uni041F" unicode="&#x41f;" horiz-adv-x="691" 
d="M499 347l-2 234l-152 4l-151 -4l-2 -234l3 -347h-134l3 347l-3 346h569l-4 -346l4 -347h-134z" />
    <glyph glyph-name="uni0420" unicode="&#x420;" horiz-adv-x="617" 
d="M64 347l-3 346h259q136 0 206 -56.5t70 -175.5q0 -123 -68.5 -180.5t-207.5 -57.5h-127l2 -223h-134zM328 329q71 0 105 32t34 100q0 64 -33.5 93.5t-105.5 29.5h-135v-255h135z" />
    <glyph glyph-name="uni0421" unicode="&#x421;" horiz-adv-x="648" 
d="M173 28.5q-71 43.5 -109 125t-38 192.5q0 112 38 193.5t109.5 125t168.5 43.5q122 0 196 -64t90 -172l-119 -32q-11 73 -54.5 115t-110.5 42q-86 0 -134.5 -66.5t-48.5 -184.5q0 -117 48.5 -183t133.5 -66q72 0 115 44t54 128l119 -33q-16 -116 -92.5 -183.5
t-197.5 -67.5q-97 0 -168 43.5z" />
    <glyph glyph-name="uni0422" unicode="&#x422;" horiz-adv-x="522" 
d="M197 325l-2 259h-189v109h509v-109h-188l-3 -259l4 -325h-134z" />
    <glyph glyph-name="uni0423" unicode="&#x423;" horiz-adv-x="593" 
d="M56 -8l12 114q27 -4 46 -4q32 0 57 16.5t54 68.5l-221 506h140l149 -360h3l158 360h143l-242 -519q-38 -82 -73.5 -123t-70.5 -53.5t-85 -12.5q-34 0 -70 7z" />
    <glyph glyph-name="uni0424" unicode="&#x424;" horiz-adv-x="798" 
d="M336 68q-145 5 -227.5 78t-82.5 201t82.5 201t227.5 78v82h128l-1 -82q145 -5 227 -78t82 -201t-82 -201t-227 -78l1 -83h-128v83zM202.5 222.5q47.5 -44.5 134.5 -49.5l1 174l-1 173q-87 -5 -134.5 -49.5t-47.5 -123.5q0 -80 47.5 -124.5zM462 173q87 5 134.5 49.5
t47.5 124.5q0 79 -47.5 123.5t-134.5 49.5l-2 -173z" />
    <glyph glyph-name="uni0425" unicode="&#x425;" horiz-adv-x="637" 
d="M229 362l-210 331h148l152 -240h2l150 240h145l-208 -330l226 -363h-148l-167 269h-2l-169 -269h-144z" />
    <glyph glyph-name="uni0426" unicode="&#x426;" horiz-adv-x="716" 
d="M64 346l-3 347h134l-3 -347l2 -234l151 -3l142 4l2 233l-3 347h134l-4 -347l2 -233h77v-241h-128v128h-506z" />
    <glyph glyph-name="uni0427" unicode="&#x427;" horiz-adv-x="632" 
d="M137.5 274q-54.5 26 -79 81.5t-24.5 147.5v190h131v-189q0 -79 34 -111.5t113 -32.5q73 0 127 14l-2 319h134l-4 -346l4 -347h-134l2 269q-82 -21 -154 -21q-93 0 -147.5 26z" />
    <glyph glyph-name="uni0428" unicode="&#x428;" horiz-adv-x="978" 
d="M64 346l-3 347h133l-4 -347l2 -234l117 -3l115 3l2 234l-2 347h131l-4 -347l2 -234l116 -3l116 3l2 234l-2 347h132l-3 -347l3 -346h-856z" />
    <glyph glyph-name="uni0429" unicode="&#x429;" horiz-adv-x="1003" 
d="M64 346l-3 347h133l-4 -347l2 -234l116 -3l111 3l2 234l-2 347h131l-4 -347l2 -234l116 -3l111 3l2 234l-2 347h132l-3 -347l2 -233h76v-241h-128v128h-793z" />
    <glyph glyph-name="uni042A" unicode="&#x42a;" horiz-adv-x="693" 
d="M167 365l-1 213h-160v115h289l-2 -235h113q137 0 204.5 -60.5t67.5 -166.5q0 -115 -72 -173t-189 -58h-252zM295 104h111q64 0 103.5 30.5t39.5 95.5q0 125 -146 125h-110z" />
    <glyph glyph-name="uni042B" unicode="&#x42b;" horiz-adv-x="863" 
d="M64 375l-3 318h131l-2 -235h108q138 0 205.5 -60.5t67.5 -166.5q0 -115 -72 -173t-189 -58h-249zM192 104h107q64 0 103 30.5t39 95.5q0 125 -145 125h-106zM670 347l-2 346h133l-3 -346l3 -347h-133z" />
    <glyph glyph-name="uni042C" unicode="&#x42c;" horiz-adv-x="603" 
d="M64 375l-3 318h131l-2 -235h126q138 0 205.5 -60.5t67.5 -166.5q0 -115 -72.5 -173t-188.5 -58h-267zM192 104h124q64 0 103.5 30.5t39.5 95.5q0 125 -146 125h-123z" />
    <glyph glyph-name="uni042D" unicode="&#x42d;" horiz-adv-x="648" 
d="M110 51q-77 66 -94 175l119 33q12 -79 55.5 -121.5t117.5 -42.5q78 0 125.5 52t57.5 150l-129 2l-145 -2v108l145 -2l128 2q-11 93 -57.5 143t-119.5 50q-71 0 -115 -43t-55 -120l-119 32q16 111 89.5 176t195.5 65q96 0 166.5 -43.5t108 -125t37.5 -193.5
q0 -111 -38 -192.5t-108.5 -125t-167.5 -43.5q-120 0 -197 66z" />
    <glyph glyph-name="uni042E" unicode="&#x42e;" horiz-adv-x="953" 
d="M392.5 67q-81.5 82 -94.5 228h-106l3 -295h-134l3 347l-3 346h134l-2 -286h106q15 142 96.5 221.5t212.5 79.5q98 0 169.5 -43t110 -124t38.5 -194q0 -111 -39 -193t-111 -125.5t-168 -43.5q-134 0 -215.5 82zM475 163q49 -66 133 -66t134 66t50 184q0 120 -49.5 185
t-134.5 65q-83 0 -132.5 -66t-49.5 -184t49 -184z" />
    <glyph glyph-name="uni042F" unicode="&#x42f;" horiz-adv-x="643" 
d="M448 0l2 245h-119q-49 0 -92 -28.5t-52 -94.5q-12 -88 -21 -122h-138q15 51 28 146q7 57 29 90.5t68 54.5q-52 22 -79 67.5t-27 113.5q0 221 269 221h266l-3 -346l3 -347h-134zM317 347h133v237h-135q-72 0 -105.5 -28.5t-33.5 -89.5q0 -119 141 -119z" />
    <glyph glyph-name="uni0430" unicode="&#x430;" horiz-adv-x="566" 
d="M74 26q-45 41 -45 109q0 93 73 132t229 39h39v15q0 63 -25.5 95.5t-83.5 32.5q-61 0 -89 -37t-27 -85l-104 24q3 56 30.5 99.5t77.5 68.5t117 25q112 0 166 -54t54 -157v-208q0 -26 8 -37t30 -11q17 0 32 7l16 -81q-38 -14 -80 -14q-46 0 -71.5 23t-28.5 70q0 12 2 24h-2
q-25 -57 -74 -89t-118 -32q-81 0 -126 41zM169.5 95.5q21.5 -18.5 59.5 -18.5q35 0 68 19t53 53t20 78v8h-24q-106 0 -152 -19.5t-46 -70.5q0 -31 21.5 -49.5z" />
    <glyph glyph-name="uni0431" unicode="&#x431;" horiz-adv-x="570" 
d="M97.5 58q-67.5 73 -67.5 227q0 148 32.5 231.5t93.5 120.5t159 48l50 6q76 7 133 17v-94q-5 -1 -44.5 -7t-83.5 -10l-46 -5q-72 -6 -113.5 -45.5t-53.5 -129.5q27 35 67.5 54t92.5 19q65 0 116.5 -29t81.5 -85t30 -133t-30 -135.5t-86 -90.5t-133 -32q-131 0 -198.5 73z
M189.5 122q35.5 -40 104.5 -40q61 0 96 39.5t35 119.5q0 77 -35.5 118t-98.5 41q-65 0 -101 -44.5t-36 -114.5q0 -79 35.5 -119z" />
    <glyph glyph-name="uni0432" unicode="&#x432;" horiz-adv-x="537" 
d="M59 265l-3 265h252q91 0 138 -31.5t47 -106.5q0 -46 -26 -75.5t-75 -41.5v-3q120 -16 120 -126q0 -74 -55 -110t-151 -36h-250zM176 88h118q53 0 76.5 17.5t23.5 53.5q0 72 -99 72h-120zM282 313q52 0 74.5 17t22.5 51q0 33 -20.5 49t-65.5 16h-117l-1 -133h107z" />
    <glyph glyph-name="uni0433" unicode="&#x433;" horiz-adv-x="397" 
d="M59 254l-3 276h341v-96h-219v-189l2 -245h-124z" />
    <glyph glyph-name="uni0434" unicode="&#x434;" horiz-adv-x="623" 
d="M16 100h38q25 0 35 22.5t13 76.5q10 138 12 331h418l-3 -248l2 -182h75v-228h-114v128h-362v-128h-114v228zM410 100l1 165l-1 163l-89 2l-93 -2q-3 -124 -11 -238q-3 -32 -10.5 -53t-21.5 -35v-2h225z" />
    <glyph glyph-name="uni0435" unicode="&#x435;" horiz-adv-x="540" 
d="M146.5 19q-58.5 34 -90 97.5t-31.5 147.5q0 129 67 204t184 75q126 0 182.5 -85.5t56.5 -221.5l-365 -1q6 -73 42.5 -112.5t92.5 -39.5q47 0 78.5 31t41.5 84l107 -28q-14 -77 -72.5 -131t-156.5 -54q-78 0 -136.5 34zM395 317q-2 59 -32.5 94t-84.5 35q-50 0 -83 -32
t-42 -97h242z" />
    <glyph glyph-name="uni0436" unicode="&#x436;" horiz-adv-x="773" 
d="M483 217h-38l2 -217h-121l2 217h-38l-146 -217h-141l198 272l-171 258h138l123 -212h37l-2 212h121l-2 -212h37l123 212h139l-172 -258l199 -272h-141z" />
    <glyph glyph-name="uni0437" unicode="&#x437;" horiz-adv-x="490" 
d="M89.5 27q-59.5 42 -76.5 117l107 29q23 -92 122 -92q50 0 77 19.5t27 54.5q0 43 -33.5 59.5t-86.5 16.5h-61v83h61q55 0 83 15t28 54q0 32 -24.5 49t-67.5 17q-51 0 -75.5 -24.5t-31.5 -60.5l-109 31q11 61 63 105t154 44q99 0 152.5 -37.5t53.5 -108.5q0 -45 -26.5 -78
t-73.5 -46q56 -12 84.5 -45t28.5 -82q0 -75 -56 -118.5t-160 -43.5q-100 0 -159.5 42z" />
    <glyph glyph-name="uni0438" unicode="&#x438;" horiz-adv-x="581" 
d="M59 265l-3 265h120l-1 -214v-145h2l225 359h123l-2 -265l2 -265h-119l1 214v145h-2l-102 -162l-123 -197h-124z" />
    <glyph glyph-name="uni0439" unicode="&#x439;" horiz-adv-x="581" 
d="M59 265l-3 265h120l-1 -214v-145h2l225 359h123l-2 -265l2 -265h-119l1 214v145h-2l-102 -162l-123 -197h-124zM189 651.5q-36 38.5 -36 112.5h74q2 -38 15.5 -56t47.5 -18q35 0 48.5 18t15.5 56h74q1 -74 -35 -112.5t-103 -38.5q-65 0 -101 38.5z" />
    <glyph glyph-name="uni043A" unicode="&#x43a;" horiz-adv-x="541" 
d="M59 269l-3 261h124l-2 -209h64l128 209h141l-176 -256l203 -274h-143l-152 218h-65l2 -218h-124z" />
    <glyph glyph-name="uni043B" unicode="&#x43b;" horiz-adv-x="606" 
d="M9 -4l18 93q21 -5 42 -5t30.5 18t12.5 64q12 156 14 364h423l-3 -265l3 -265h-124l3 252l-1 176l-97 2l-88 -2q-4 -120 -13 -264q-6 -94 -38 -136.5t-103 -42.5q-40 0 -79 11z" />
    <glyph glyph-name="uni043C" unicode="&#x43c;" horiz-adv-x="703" 
d="M59 256l-3 274h149l86 -225l59 -159h2l58 159l86 225h150l-2 -257l2 -273h-113l3 221v161h-2l-63 -174l-79 -208h-83l-79 208l-62 174h-3l1 -161l2 -221h-112z" />
    <glyph glyph-name="uni043D" unicode="&#x43d;" horiz-adv-x="590" 
d="M411 218l-116 2l-117 -2l2 -218h-124l3 265l-3 265h124l-2 -211l117 -1l116 1l-2 211h125l-4 -265l4 -265h-125z" />
    <glyph glyph-name="uni043E" unicode="&#x43e;" horiz-adv-x="567" 
d="M146.5 19q-58.5 34 -90 97.5t-31.5 148.5t31.5 148t89.5 97t136 34q79 0 137.5 -34t90.5 -97t32 -148t-32 -148.5t-91 -97.5t-137 -34q-77 0 -135.5 34zM184.5 133q35.5 -47 98.5 -47t99 47t36 132q0 84 -36 130.5t-99 46.5t-98.5 -46.5t-35.5 -130.5q0 -85 35.5 -132z
" />
    <glyph glyph-name="uni043F" unicode="&#x43f;" horiz-adv-x="586" 
d="M408 265l-1 165l-112 2l-116 -2l-2 -165l3 -265h-124l3 265l-3 265h474l-3 -265l3 -265h-124z" />
    <glyph glyph-name="uni0440" unicode="&#x440;" horiz-adv-x="582" 
d="M59 219l-3 311h126l-1 -74h2q20 36 62.5 62t99.5 26q101 0 156.5 -71t55.5 -207t-55.5 -208.5t-156.5 -72.5q-57 0 -99.5 27t-63.5 64h-2l2 -236h-126zM217.5 128q37.5 -41 89.5 -41q61 0 93.5 46.5t32.5 132.5t-32.5 131t-93.5 45q-55 0 -91 -45t-36 -133
q0 -95 37.5 -136z" />
    <glyph glyph-name="uni0441" unicode="&#x441;" horiz-adv-x="527" 
d="M148 19q-59 34 -91 97t-32 148t31.5 148.5t90 97.5t136.5 34q98 0 158 -52t73 -134l-110 -29q-9 55 -40 85t-79 30q-62 0 -98.5 -46.5t-36.5 -133.5q0 -85 36.5 -132t98.5 -47q47 0 78.5 30t40.5 86l110 -29q-13 -82 -72 -134.5t-156 -52.5q-79 0 -138 34z" />
    <glyph glyph-name="uni0442" unicode="&#x442;" horiz-adv-x="434" 
d="M159 252l-1 183h-158v95h434v-95h-154l-1 -183l2 -252h-123z" />
    <glyph glyph-name="uni0443" unicode="&#x443;" horiz-adv-x="520" 
d="M92 -167q-27 4 -48 11l21 91q33 -7 59 -7q30 0 49 16t35 52l-205 534h128l137 -378h2l123 378h125l-187 -526q-34 -96 -81 -135.5t-110 -39.5q-21 0 -48 4z" />
    <glyph glyph-name="uni0444" unicode="&#x444;" horiz-adv-x="749" 
d="M316 -12q-86 2 -151.5 36t-102.5 96t-37 145t37 144.5t102.5 95.5t151.5 36l-1 153h119l-1 -153q86 -2 152 -36t102.5 -95.5t36.5 -144.5t-36.5 -145t-102.5 -96t-152 -36l1 -148h-119zM194 134.5q47 -47.5 123 -50.5l1 190l-1 171q-76 -3 -123 -50.5t-47 -129.5
q0 -83 47 -130.5zM433 84q76 3 123 50.5t47 130.5q0 82 -47 129.5t-123 50.5l-1 -171z" />
    <glyph glyph-name="uni0445" unicode="&#x445;" horiz-adv-x="524" 
d="M181 273l-168 257h140l111 -185h2l110 185h136l-167 -257l177 -273h-139l-121 198h-2l-121 -198h-136z" />
    <glyph glyph-name="uni0446" unicode="&#x446;" horiz-adv-x="610" 
d="M59 265l-3 265h124l-3 -252l2 -178l114 -1l103 1l1 178l-2 252h124l-3 -252l2 -178h75v-228h-114v128h-423z" />
    <glyph glyph-name="uni0447" unicode="&#x447;" horiz-adv-x="533" 
d="M77.5 217q-44.5 50 -44.5 155v158h121v-145q0 -40 8.5 -64t32 -36.5t67.5 -12.5q43 0 94 9l-3 249h124l-2 -264l2 -266h-124l2 185q-28 -7 -65.5 -12.5t-69.5 -5.5q-98 0 -142.5 50z" />
    <glyph glyph-name="uni0448" unicode="&#x448;" horiz-adv-x="846" 
d="M59 265l-3 265h124l-3 -255l2 -175l93 -1l93 1l1 175l-3 255h119l-3 -255l2 -175l93 -1l93 1l1 175l-3 255h125l-4 -265l4 -265h-734z" />
    <glyph glyph-name="uni0449" unicode="&#x449;" horiz-adv-x="871" 
d="M740 0h-684l3 265l-3 265h124l-3 -255l2 -175l93 -1l88 1l1 175l-3 255h119l-3 -255l2 -175l93 -1l88 1l1 175l-3 255h125l-4 -265l2 -165h76v-228h-114v128z" />
    <glyph glyph-name="uni044A" unicode="&#x44a;" horiz-adv-x="591" 
d="M150 265l-1 168h-149v97h267l-1 -185h103q207 0 207 -172q0 -173 -207 -173h-221zM267 88h93q97 0 97 85q0 86 -97 86h-94z" />
    <glyph glyph-name="uni044B" unicode="&#x44b;" horiz-adv-x="766" 
d="M59 265l-3 265h120l-1 -185h102q208 0 208 -172q0 -173 -208 -173h-221zM176 88h93q97 0 97 85q0 86 -98 86h-93zM589 266l-2 264h123l-2 -264l2 -266h-123z" />
    <glyph glyph-name="uni044C" unicode="&#x44c;" horiz-adv-x="510" 
d="M59 265l-3 265h120l-1 -185h112q208 0 208 -172q0 -173 -208 -173h-231zM176 88h103q97 0 97 85q0 86 -98 86h-103z" />
    <glyph glyph-name="uni044D" unicode="&#x44d;" horiz-adv-x="524" 
d="M85.5 37q-59.5 52 -72.5 132l105 29q9 -57 41 -87.5t82 -30.5q57 0 93.5 37t45.5 107l-67 1l-116 -2v91l116 -1l66 1q-10 66 -46 100.5t-92 34.5q-50 0 -82 -30.5t-41 -87.5l-105 29q13 80 73.5 132t157.5 52q77 0 134.5 -34t89 -97.5t31.5 -148.5t-31.5 -148t-90 -97
t-136.5 -34q-96 0 -155.5 52z" />
    <glyph glyph-name="uni044E" unicode="&#x44e;" horiz-adv-x="799" 
d="M59 266l-3 264h124l-2 -211l61 -1l45 1q14 105 78.5 165t164.5 60q72 0 128 -34t87.5 -97t31.5 -148t-31.5 -148t-87.5 -97.5t-128 -34.5q-102 0 -167 62.5t-77 171.5l-44 1l-61 -2l2 -218h-124zM434 133.5q34 -47.5 90 -47.5q57 0 91.5 47.5t34.5 131.5q0 83 -34.5 130
t-91.5 47q-56 0 -90 -47t-34 -130q0 -84 34 -131.5z" />
    <glyph glyph-name="uni044F" unicode="&#x44f;" horiz-adv-x="546" 
d="M44 83l6 33q6 39 24 63t52 38q-41 17 -62.5 52.5t-21.5 84.5q0 176 227 176h221l-3 -265l3 -265h-126l2 177h-85q-37 0 -69 -20t-38 -63q-14 -82 -19 -94h-130q7 18 19 83zM269 266h97l-1 165h-99q-52 0 -77 -20t-25 -62q0 -83 105 -83z" />
    <glyph glyph-name="uni0451" unicode="&#x451;" horiz-adv-x="540" 
d="M146.5 19q-58.5 34 -90 97.5t-31.5 147.5q0 129 67 204t184 75q126 0 182.5 -85.5t56.5 -221.5l-365 -1q6 -73 42.5 -112.5t92.5 -39.5q47 0 78.5 31t41.5 84l107 -28q-14 -77 -72.5 -131t-156.5 -54q-78 0 -136.5 34zM395 317q-2 59 -32.5 94t-84.5 35q-50 0 -83 -32
t-42 -97h242zM139 637q-17 16 -17 45q0 27 17 43t47 16q29 0 45.5 -16t16.5 -43q0 -29 -16.5 -45t-45.5 -16q-30 0 -47 16zM328 725q17 16 46 16t46 -16t17 -43q0 -28 -17 -44.5t-46 -16.5t-46 16.5t-17 44.5q0 27 17 43z" />
    <glyph glyph-name="Wgrave" unicode="&#x1e80;" horiz-adv-x="920" 
d="M96 355l-92 338h138l71 -322l53 -220h3l59 224l77 318h113l80 -317l61 -225h2l52 219l71 323h132l-90 -337l-88 -356h-148l-81 304l-49 191h-2l-48 -191l-81 -304h-145zM327 866h130l41 -121h-76z" />
    <glyph glyph-name="wgrave" unicode="&#x1e81;" horiz-adv-x="751" 
d="M3 530h124l94 -409h2l99 409h113l102 -409h1l93 409h118l-140 -530h-140l-91 369h-2l-93 -369h-141zM244 773h121l48 -149h-76z" />
    <glyph glyph-name="Wacute" unicode="&#x1e82;" horiz-adv-x="920" 
d="M96 355l-92 338h138l71 -322l53 -220h3l59 224l77 318h113l80 -317l61 -225h2l52 219l71 323h132l-90 -337l-88 -356h-148l-81 304l-49 191h-2l-48 -191l-81 -304h-145zM419 745l41 121h130l-95 -121h-76z" />
    <glyph glyph-name="wacute" unicode="&#x1e83;" horiz-adv-x="751" 
d="M3 530h124l94 -409h2l99 409h113l102 -409h1l93 409h118l-140 -530h-140l-91 369h-2l-93 -369h-141zM334 624l48 149h121l-93 -149h-76z" />
    <glyph glyph-name="Wdieresis" unicode="&#x1e84;" horiz-adv-x="920" 
d="M96 355l-92 338h138l71 -322l53 -220h3l59 224l77 318h113l80 -317l61 -225h2l52 219l71 323h132l-90 -337l-88 -356h-148l-81 304l-49 191h-2l-48 -191l-81 -304h-145zM322 760q-17 16 -17 44t17 44t47 16q29 0 45.5 -16t16.5 -44t-16.5 -44t-45.5 -16q-30 0 -47 16z
M511 848q17 16 46 16t46 -16t17 -44t-17 -44t-46 -16t-46 16t-17 44t17 44z" />
    <glyph glyph-name="wdieresis" unicode="&#x1e85;" horiz-adv-x="751" 
d="M3 530h124l94 -409h2l99 409h113l102 -409h1l93 409h118l-140 -530h-140l-91 369h-2l-93 -369h-141zM237 637q-17 16 -17 45q0 27 17 43t47 16q29 0 45.5 -16t16.5 -43q0 -29 -16.5 -45t-45.5 -16q-30 0 -47 16zM426 725q17 16 46 16t46 -16t17 -43q0 -28 -17 -44.5
t-46 -16.5t-46 16.5t-17 44.5q0 27 17 43z" />
    <glyph glyph-name="Ygrave" unicode="&#x1ef2;" horiz-adv-x="605" 
d="M237 249l-233 444h147l150 -307h2l155 307h143l-235 -444l2 -249h-133zM169 866h130l41 -121h-76z" />
    <glyph glyph-name="ygrave" unicode="&#x1ef3;" horiz-adv-x="520" 
d="M92 -167q-27 4 -48 11l21 91q33 -7 59 -7q30 0 49 16t35 52l-205 534h128l137 -378h2l123 378h125l-187 -526q-34 -96 -81 -135.5t-110 -39.5q-21 0 -48 4zM129 773h121l48 -149h-76z" />
    <glyph glyph-name="uni2002" unicode="&#x2002;" horiz-adv-x="500" 
 />
    <glyph glyph-name="uni2003" unicode="&#x2003;" horiz-adv-x="1000" 
 />
    <glyph glyph-name="uni2004" unicode="&#x2004;" horiz-adv-x="333" 
 />
    <glyph glyph-name="uni2005" unicode="&#x2005;" horiz-adv-x="250" 
 />
    <glyph glyph-name="uni2006" unicode="&#x2006;" horiz-adv-x="167" 
 />
    <glyph glyph-name="uni2007" unicode="&#x2007;" horiz-adv-x="600" 
 />
    <glyph glyph-name="uni2008" unicode="&#x2008;" horiz-adv-x="236" 
 />
    <glyph glyph-name="uni200B" unicode="&#x200b;" 
 />
    <glyph glyph-name="uni200C" unicode="&#x200c;" 
 />
    <glyph glyph-name="uni2010" unicode="&#x2010;" horiz-adv-x="381" 
d="M45 344h291v-103h-291v103z" />
    <glyph glyph-name="figuredash" unicode="&#x2012;" horiz-adv-x="590" 
d="M45 344h500v-103h-500v103z" />
    <glyph glyph-name="endash" unicode="&#x2013;" horiz-adv-x="499" 
d="M-1 344h501v-103h-501v103z" />
    <glyph glyph-name="emdash" unicode="&#x2014;" horiz-adv-x="1000" 
d="M0 344h1000v-103h-1000v103z" />
    <glyph glyph-name="quoteleft" unicode="&#x2018;" horiz-adv-x="219" 
d="M136 638q-21 -21 -19 -43q65 -10 65 -70q0 -32 -20 -50t-57 -18q-76 0 -76 83q0 64 34.5 114t119.5 62l15 -49q-41 -8 -62 -29z" />
    <glyph glyph-name="quoteright" unicode="&#x2019;" horiz-adv-x="219" 
d="M83.5 538.5q20.5 20.5 18.5 42.5q-65 10 -65 70q0 32 20 50.5t57 18.5q76 0 76 -84q0 -63 -34.5 -113.5t-119.5 -62.5l-15 49q42 9 62.5 29.5z" />
    <glyph glyph-name="quotesinglbase" unicode="&#x201a;" horiz-adv-x="221" 
d="M82.5 -51.5q20.5 20.5 18.5 42.5q-65 10 -65 70q0 32 20 50.5t57 18.5q76 0 76 -84q0 -63 -34.5 -113.5t-119.5 -62.5l-15 49q42 9 62.5 29.5z" />
    <glyph glyph-name="quotedblleft" unicode="&#x201c;" horiz-adv-x="396" 
d="M312.5 638q-20.5 -21 -18.5 -43q65 -10 65 -70q0 -32 -20 -50t-56 -18q-75 0 -75 84q0 63 34 113.5t118 61.5l14 -49q-41 -8 -61.5 -29zM62 654.5q34 50.5 118 61.5l15 -49q-42 -8 -62 -29t-18 -43q64 -10 64 -70q0 -32 -20 -50t-56 -18q-75 0 -75 84q0 63 34 113.5z" />
    <glyph glyph-name="quotedblright" unicode="&#x201d;" horiz-adv-x="396" 
d="M82.5 539q20.5 21 18.5 42q-64 10 -64 70q0 32 20 50.5t56 18.5q75 0 75 -84q0 -63 -34 -113.5t-118 -62.5l-15 49q41 9 61.5 30zM262.5 539q20.5 21 18.5 42q-65 10 -65 70q0 32 20 50.5t56 18.5q75 0 75 -84q0 -63 -34 -113.5t-118 -62.5l-14 49q41 9 61.5 30z" />
    <glyph glyph-name="quotedblbase" unicode="&#x201e;" horiz-adv-x="396" 
d="M82.5 -51q20.5 21 18.5 42q-64 10 -64 70q0 32 20 50.5t56 18.5q75 0 75 -84q0 -63 -34 -113.5t-118 -62.5l-15 49q41 9 61.5 30zM262.5 -51q20.5 21 18.5 42q-65 10 -65 70q0 32 20 50.5t56 18.5q75 0 75 -84q0 -63 -34 -113.5t-118 -62.5l-14 49q41 9 61.5 30z" />
    <glyph glyph-name="dagger" unicode="&#x2020;" horiz-adv-x="408" 
d="M265 693l-7 -136l144 6v-110l-144 7l7 -275h-122l7 275l-144 -7v110l144 -6l-7 136h122z" />
    <glyph glyph-name="daggerdbl" unicode="&#x2021;" horiz-adv-x="406" 
d="M150 279l-144 -7v105l144 -6l-5 67l5 67l-144 -7v105l144 -6l-7 101h120l-7 -101l144 6v-105l-144 7l4 -67l-4 -67l144 6v-105l-144 7l7 -101h-120z" />
    <glyph glyph-name="bullet" unicode="&#x2022;" horiz-adv-x="308" 
d="M82.5 199.5q-24.5 22.5 -24.5 65.5q0 41 25 63.5t71 22.5q47 0 72.5 -22.5t25.5 -63.5q0 -43 -25.5 -65.5t-72.5 -22.5t-71.5 22.5z" />
    <glyph glyph-name="ellipsis" unicode="&#x2026;" horiz-adv-x="708" 
d="M58.5 4q-20.5 19 -20.5 54q0 34 20.5 53t59.5 19t60 -19t21 -53q0 -35 -21 -54t-60 -19t-59.5 19zM294.5 4q-20.5 19 -20.5 54q0 34 20.5 53t59.5 19t60 -19t21 -53q0 -35 -21 -54t-60 -19t-59.5 19zM530.5 4q-20.5 19 -20.5 54q0 34 20.5 53t59.5 19t60 -19t21 -53
q0 -35 -21 -54t-60 -19t-59.5 19z" />
    <glyph glyph-name="uni202F" unicode="&#x202f;" horiz-adv-x="208" 
 />
    <glyph glyph-name="perthousand" unicode="&#x2030;" horiz-adv-x="955" 
d="M488 693h108l-331 -693h-107zM64.5 656.5q38.5 43.5 109.5 43.5q70 0 108.5 -43.5t38.5 -120.5q0 -79 -38.5 -124t-108.5 -45q-71 0 -109.5 45t-38.5 124q0 77 38.5 120.5zM135 471q14 -24 39 -24t39 24t14 65q0 38 -14 60.5t-39 22.5t-39 -22.5t-14 -60.5q0 -41 14 -65z
M465.5 273.5q38.5 44.5 108.5 44.5q66 0 104 -38q38 38 103 38q71 0 109 -44t38 -122t-38.5 -122.5t-108.5 -44.5q-63 0 -103 38q-40 -38 -104 -38q-70 0 -108.5 44.5t-38.5 122.5q0 77 38.5 121.5zM535 88.5q14 -23.5 39 -23.5t39 23.5t14 63.5q0 39 -14 62.5t-39 23.5
t-39 -23.5t-14 -62.5q0 -40 14 -63.5zM742 88.5q14 -23.5 39 -23.5t39 23.5t14 63.5q0 39 -14 62.5t-39 23.5t-39 -23.5t-14 -62.5q0 -40 14 -63.5z" />
    <glyph glyph-name="guilsinglleft" unicode="&#x2039;" horiz-adv-x="350" 
d="M45 226v62l193 192l57 -50l-138 -173l138 -172l-57 -52z" />
    <glyph glyph-name="guilsinglright" unicode="&#x203a;" horiz-adv-x="350" 
d="M55 85l138 172l-138 173l57 50l193 -192v-62l-193 -193z" />
    <glyph glyph-name="uni207F" unicode="&#x207f;" horiz-adv-x="398" 
d="M46 521l-1 168h102l-1 -43h1q14 24 40.5 38t58.5 14q53 0 80 -31t27 -97v-49l2 -153h-103l2 153v31q0 28 -13.5 43t-36.5 15q-26 0 -42 -18.5t-16 -50.5v-20l1 -153h-102z" />
    <glyph glyph-name="franc" unicode="&#x20a3;" horiz-adv-x="553" 
d="M89 110h-83v70h83l1 174l-2 329h442v-109h-311l-1 -171h292v-104h-292l1 -119h180v-70h-179l1 -100h-133z" />
    <glyph glyph-name="lira" unicode="&#x20a4;" horiz-adv-x="635" 
d="M59.5 23.5q-33.5 28.5 -33.5 79.5q0 44 31 70.5t81 26.5q41 0 101 -23v5q0 31 -13 63h-157v56h128l-38 58h-90v56h58q-26 52 -26 107q0 80 58 128t158 48q120 0 185.5 -60t78.5 -154l-118 -32q-18 135 -134 135q-48 0 -73 -23t-25 -67q0 -33 27 -82h184v-56h-152
q15 -25 31 -58h121v-56h-100q7 -31 7 -54q0 -33 -11 -63q36 -19 61.5 -28.5t46.5 -9.5q60 0 55 132l108 -29q-2 -95 -32 -146t-102 -51q-42 0 -82 17t-92 49q-26 -31 -64.5 -49t-88.5 -18q-55 0 -88.5 28.5zM131 83.5q10 -7.5 27 -7.5q43 0 64 32q-38 20 -66 20
q-17 0 -26 -6.5t-9 -17.5q0 -13 10 -20.5z" />
    <glyph glyph-name="uni20A6" unicode="&#x20a6;" horiz-adv-x="687" 
d="M81 324h-75v60h75l-3 299h135l159 -291l5 -8h117v9l-2 290h119l-3 -299h73v-60h-73l3 -314h-135l-146 268l-26 46h-109v-23l2 -291h-119zM269 384l-72 126h-2v-126h74zM491 183h3v141h-83z" />
    <glyph glyph-name="peseta" unicode="&#x20a7;" horiz-adv-x="681" 
d="M78 347v70h-72v65h71l-1 209h258q129 0 198.5 -50.5t76.5 -158.5h65v-65h-66q-10 -106 -78.5 -155t-195.5 -49h-127l2 -210h-133zM341 319q61 0 95.5 23.5t42.5 74.5h-272v-98h134zM480 482q-6 52 -40 76t-99 24h-133v-100h272z" />
    <glyph glyph-name="uni20A8" unicode="&#x20a8;" horiz-adv-x="1065" 
d="M64 347l-3 335h238q254 0 254 -216q0 -63 -25.5 -107t-73.5 -65q42 -18 63 -52t27 -91q14 -104 26 -140h-127q-11 49 -19 118q-8 66 -47.5 95t-85.5 29h-108l2 -242h-124zM304 346q131 0 131 118q0 60 -31.5 88.5t-97.5 28.5h-123v-235h121zM734 178q3 -43 31 -69.5
t81 -26.5q44 0 68 18t24 53q0 30 -24.5 49t-81.5 26q-93 12 -135.5 52t-42.5 107q0 68 49 109t136 41q84 0 131.5 -35.5t60.5 -111.5l-96 -26q-6 46 -27.5 66.5t-64.5 20.5q-37 0 -57 -16t-20 -45q0 -32 23 -49.5t85 -26.5q92 -14 134 -53t42 -107q0 -71 -53.5 -114
t-150.5 -43q-183 0 -208 155z" />
    <glyph glyph-name="uni20A9" unicode="&#x20a9;" horiz-adv-x="920" 
d="M99 342h-103v67h85l-77 284h138l63 -284h134l71 284h105l72 -284h135l62 284h132l-76 -284h81v-67h-98l-85 -342h-145l-83 304l-10 38h-81l-10 -38l-83 -304h-142zM266 147h3l52 195h-101zM483 409l-23 86h-2l-22 -86h47zM659 147h2l45 195h-101z" />
    <glyph glyph-name="uni20AA" unicode="&#x20aa;" horiz-adv-x="826" 
d="M61 687h298q106 0 154 -49t48 -154v-268h-95v245q0 69 -27.5 97.5t-96.5 28.5h-172v-579h-109v679zM271 486h93v-378h179q45 0 69.5 12.5t34.5 41t10 78.5v447h108v-477q0 -104 -50 -153t-156 -49h-288v478z" />
    <glyph glyph-name="dong" unicode="&#x20ab;" horiz-adv-x="587" 
d="M127 132q-43 29 -67.5 79t-24.5 111t24.5 111t68 79t99.5 29q53 0 92.5 -23t60.5 -58h2l-1 131l-115 -2v71l114 -2v36h125v-35l56 1v-71l-57 1l-1 -233l2 -239h-125l1 66h-2q-19 -34 -59.5 -57.5t-95.5 -23.5q-54 0 -97 29zM26 59h535v-63h-535v63zM183.5 234.5
q29.5 -36.5 80.5 -36.5q27 0 54 13t45.5 41t18.5 71q0 34 -16.5 62.5t-44 44.5t-57.5 16q-51 0 -80.5 -36.5t-29.5 -87.5t29.5 -87.5z" />
    <glyph glyph-name="Euro" unicode="&#x20ac;" horiz-adv-x="711" 
d="M201.5 73q-80.5 68 -103.5 185h-92v62h85q-1 9 -1 26q0 18 1 27h-85v62h92q23 117 103.5 185t203.5 68q125 0 199.5 -64.5t90.5 -174.5l-114 -29q-12 75 -57 117t-119 42q-68 0 -113.5 -38t-63.5 -106h246v-62h-256q-1 -9 -1 -27t1 -26h256v-62h-246q17 -68 63.5 -106
t114.5 -38q75 0 119 42t56 118l114 -30q-16 -108 -93 -173.5t-198 -65.5q-122 0 -202.5 68z" />
    <glyph glyph-name="uni20AD" unicode="&#x20ad;" horiz-adv-x="684" 
d="M256 321h-30l3 -311h-133l2 311h-92v65h92l-2 297h133l-3 -297h31l224 297h156l-241 -297h221v-65h-212l250 -311h-146z" />
    <glyph glyph-name="uni20AE" unicode="&#x20ae;" horiz-adv-x="522" 
d="M196 169l-129 -48v67l129 48l1 57l-130 -49v67l130 49l-2 218l-189 -1v116h509v-116l-188 1l-2 -170l129 48v-67l-130 -49v-15v-41l130 49v-67l-129 -48l3 -218h-134z" />
    <glyph glyph-name="uni20B1" unicode="&#x20b1;" horiz-adv-x="681" 
d="M78 347v33h-72v49h72l-1 42h-71v50h71l-1 170h258q117 0 184.5 -41.5t85.5 -128.5h70v-50h-64v-15q0 -18 -1 -27h65v-49h-72q-18 -86 -85 -126.5t-183 -40.5h-127l2 -210h-133zM341 319q97 0 127 61h-261v-61h134zM481 429q1 8 1 26q0 11 -1 16h-273l-1 -42h274zM470 521
q-14 31 -46 46t-83 15h-133v-61h262z" />
    <glyph glyph-name="uni20B2" unicode="&#x20b2;" horiz-adv-x="672" 
d="M296 7q-82 7 -143 51.5t-94 119t-33 169.5q0 93 32.5 166t93 117.5t144.5 54.5v73h70v-71q113 -6 181 -68.5t84 -161.5l-114 -34q-11 65 -49.5 106.5t-101.5 48.5v-202h268l-2 -178l10 -179h-89l-13 94q-27 -48 -72 -74t-102 -32v-74h-70v74zM190.5 189.5
q37.5 -61.5 105.5 -76.5v461q-67 -16 -105 -76.5t-38 -151.5q0 -95 37.5 -156.5zM473 157.5q38 41.5 45 124.5l-152 -2v-170q69 6 107 47.5z" />
    <glyph glyph-name="uni20B8" unicode="&#x20b8;" horiz-adv-x="522" 
d="M197 235l-2 195h-189v111h509v-111h-188l-3 -195l4 -235h-134zM8 693h507v-85h-507v85z" />
    <glyph glyph-name="uni20B9" unicode="&#x20b9;" horiz-adv-x="539" 
d="M29 282v84h146q129 0 156 75h-301v78h305q-12 40 -52.5 65t-101.5 25h-152v80h504v-80h-137q35 -39 44 -90h92v-78h-94q-14 -75 -75.5 -115t-170.5 -40h-18l294 -279h-152z" />
    <glyph glyph-name="uni20BA" unicode="&#x20ba;" horiz-adv-x="580" 
d="M95 244l-89 -33v67l89 33v56l-89 -33v67l89 33v249h126v-201l172 64v-67l-172 -64v-56l172 64v-67l-172 -64v-178q219 0 222 172l116 -4q-2 -135 -90.5 -203.5t-248.5 -68.5h-125v234z" />
    <glyph glyph-name="uni20BC" unicode="&#x20bc;" horiz-adv-x="663" 
d="M111.5 454.5q62.5 76.5 179.5 87.5v164h80v-164q114 -12 178.5 -89t64.5 -204v-239h-120v244q0 77 -32 124t-91 58v-426h-80v426q-59 -11 -90.5 -57.5t-31.5 -124.5v-244h-120v239q0 129 62.5 205.5z" />
    <glyph glyph-name="uni20BD" unicode="&#x20bd;" horiz-adv-x="647" 
d="M92 88h-86v71h86l1 69h-86l-1 75h88v44l-3 336h259q276 0 276 -222q0 -122 -68.5 -177.5t-207.5 -55.5h-126v-69h203v-71h-202v-78h-134zM358 329q71 0 105 32t34 100q0 57 -33.5 85t-105.5 28h-135v-245h135z" />
    <glyph glyph-name="uni2113" unicode="&#x2113;" horiz-adv-x="471" 
d="M130.5 36q-31.5 40 -29.5 123l-53 -34l-22 55q51 34 81 55l2 13l40 257q14 97 64.5 150.5t117.5 53.5q53 0 83.5 -34.5t30.5 -93.5q0 -90 -57.5 -174t-188.5 -180q-6 -40 -6 -62q0 -38 14.5 -60t51.5 -22q36 0 69.5 21.5t69.5 63.5l40 -47q-45 -63 -95.5 -94t-110.5 -31
q-70 0 -101.5 40zM332.5 447.5q38.5 61.5 38.5 126.5q0 28 -12 42.5t-31 14.5q-28 0 -49.5 -31t-31.5 -87l-33 -196q80 69 118.5 130.5z" />
    <glyph glyph-name="uni2116" unicode="&#x2116;" horiz-adv-x="1065" 
d="M64 346l-3 347h148l167 -300l116 -204h3v205l-2 299h128l-3 -346l3 -347h-148l-152 276l-131 229h-3v-205l2 -300h-128zM754.5 405q-45.5 46 -45.5 124q0 77 45.5 122.5t119.5 45.5t119 -45.5t45 -122.5q0 -78 -45 -124t-119 -46t-119.5 46zM710 304h334v-78h-334v78z
M828.5 464.5q16.5 -22.5 45.5 -22.5t45.5 22.5t16.5 64.5q0 40 -16.5 62.5t-45.5 22.5t-45.5 -22t-16.5 -63q0 -42 16.5 -64.5z" />
    <glyph glyph-name="trademark" unicode="&#x2122;" horiz-adv-x="718" 
d="M93 493l-1 118h-85v82h262v-82h-84l-1 -118l2 -147h-95zM307 512l-2 181h120l40 -135l31 -95h2l30 95l41 135h119v-167l1 -180h-84l2 139v101h-1l-35 -106l-40 -134h-68l-40 134l-35 106h-1v-101l2 -139h-84z" />
    <glyph glyph-name="uni2126" unicode="&#x2126;" horiz-adv-x="732" 
d="M36 114l148 -6q-70 58 -114 131t-44 174q0 74 38.5 141.5t115.5 110t187 42.5q107 0 184 -41.5t116 -109t39 -143.5q0 -71 -23.5 -127.5t-55.5 -94.5t-79 -83l149 6v-114h-282v99q56 60 83.5 94.5t47 85t19.5 118.5q0 56 -25.5 99.5t-70.5 68t-103 24.5t-103.5 -24
t-71 -67.5t-25.5 -100.5q0 -67 19.5 -117.5t47 -84.5t84.5 -96v-99h-281v114z" />
    <glyph glyph-name="estimated" unicode="&#x212e;" horiz-adv-x="792" 
d="M219 41.5q-86 44.5 -139.5 124.5t-53.5 183q0 94 48.5 175.5t133.5 130t188 48.5q94 0 179 -43.5t138 -124t53 -184.5v-8h-607q-6 0 -6 -4v-190q0 -20 33 -52.5t88.5 -56.5t122.5 -24q70 0 132.5 31t105.5 85l53 2q-51 -64 -128.5 -100.5t-163.5 -36.5q-91 0 -177 44.5z
M159 360h473l6 6v188q0 23 -35.5 54.5t-91.5 54t-114 22.5t-114.5 -24t-93 -56t-36.5 -54v-185q0 -6 6 -6z" />
    <glyph glyph-name="arrowleft" unicode="&#x2190;" horiz-adv-x="653" 
d="M209 365h389v-113h-389l127 -197h-110l-171 253l171 256h110z" />
    <glyph glyph-name="arrowup" unicode="&#x2191;" horiz-adv-x="653" 
d="M383 434v-389h-113v389l-197 -126v110l253 170l255 -170v-110z" />
    <glyph glyph-name="arrowright" unicode="&#x2192;" horiz-adv-x="653" 
d="M444 215h-389v113h389l-127 198h111l170 -253l-170 -256h-111z" />
    <glyph glyph-name="arrowdown" unicode="&#x2193;" horiz-adv-x="653" 
d="M271 145v388h113v-388l197 127v-111l-252 -170l-256 170v111z" />
    <glyph glyph-name="uni2196" unicode="&#x2196;" horiz-adv-x="653" 
d="M293 411l275 -274l-80 -80l-274 275l-50 -229l-79 78l58 298l302 60l78 -77z" />
    <glyph glyph-name="uni2197" unicode="&#x2197;" horiz-adv-x="653" 
d="M440 344l-275 -276l-80 81l276 273l-230 51l78 78l299 -59l60 -300l-78 -79z" />
    <glyph glyph-name="uni2198" unicode="&#x2198;" horiz-adv-x="653" 
d="M360 170l-275 275l80 79l275 -274l49 228l79 -77l-58 -300l-302 -60l-78 79z" />
    <glyph glyph-name="uni2199" unicode="&#x2199;" horiz-adv-x="653" 
d="M214 291l275 275l79 -80l-275 -275l229 -49l-77 -79l-300 58l-60 302l78 77z" />
    <glyph glyph-name="uni2206" unicode="&#x2206;" horiz-adv-x="715" 
d="M4 63l292 637h124l291 -637v-63h-707v63zM572 94l-215 474l-213 -474h428z" />
    <glyph glyph-name="product" unicode="&#x220f;" horiz-adv-x="848" 
d="M171 600h-165v100h836v-100h-166v-694h-123v694h-261v-694h-121v694z" />
    <glyph glyph-name="summation" unicode="&#x2211;" horiz-adv-x="599" 
d="M31 93l232 261l-234 253v93h536v-114h-368l203 -232l-203 -240h373v-114h-539v93z" />
    <glyph glyph-name="minus" unicode="&#x2212;" horiz-adv-x="471" 
d="M55 366l181 -2l180 2v-95l-180 2l-181 -2v95z" />
    <glyph glyph-name="uni2215" unicode="&#x2215;" horiz-adv-x="201" 
d="M259 693h108l-388 -693h-108z" />
    <glyph glyph-name="infinity" unicode="&#x221e;" horiz-adv-x="910" 
d="M132.5 170.5q-48.5 25.5 -77.5 72t-29 107.5q0 55 26.5 102t74.5 75t110 28q74 0 123.5 -30t94.5 -95q45 61 95 93t126 32q56 0 104 -25t76 -71.5t28 -107.5q0 -56 -26.5 -103t-74 -75t-107.5 -28q-74 0 -124 30t-97 95q-43 -62 -93 -93.5t-125 -31.5q-56 0 -104.5 25.5z
M166.5 271q31.5 -33 78.5 -33q50 0 84 26t72 86q-37 58 -70 85t-86 27q-46 0 -78 -31.5t-32 -80.5q0 -46 31.5 -79zM579.5 265.5q33.5 -27.5 85.5 -27.5q47 0 78.5 32t31.5 81q0 47 -31 79t-79 32q-51 0 -84.5 -26t-70.5 -86q36 -57 69.5 -84.5z" />
    <glyph glyph-name="approxequal" unicode="&#x2248;" horiz-adv-x="514" 
d="M78 456.5q24 39.5 81 39.5q30 0 58 -8t65 -22q19 -7 36.5 -13t29.5 -6q19 0 25.5 15.5t6.5 43.5h79q1 -61 -23 -100.5t-82 -39.5q-27 0 -56 8t-67 22q-20 7 -38.5 13t-29.5 6q-18 0 -24 -15.5t-6 -43.5h-78q-1 61 23 100.5zM78 271.5q24 39.5 81 39.5q30 0 58 -8t65 -22
q19 -7 36.5 -13t29.5 -6q19 0 25.5 15.5t6.5 43.5h79q1 -61 -23 -100.5t-82 -39.5q-27 0 -56 8t-67 22q-20 7 -38.5 13t-29.5 6q-18 0 -24 -15.5t-6 -43.5h-78q-1 61 23 100.5z" />
    <glyph glyph-name="notequal" unicode="&#x2260;" horiz-adv-x="471" 
d="M55 446l181 -2h29l58 103l64 -38l-36 -64l65 1v-87l-113 1l-49 -86l162 2v-87l-180 2h-29l-55 -98l-64 39l33 58l-66 -1v87l114 -1l49 86l-163 -2v87z" />
    <glyph glyph-name="lessequal" unicode="&#x2264;" horiz-adv-x="583" 
d="M39 253v100l489 187v-107l-367 -125v-5l367 -111v-112zM41 70l243 -2l244 2v-80l-244 2l-243 -2v80z" />
    <glyph glyph-name="greaterequal" unicode="&#x2265;" horiz-adv-x="583" 
d="M55 192l367 111v5l-367 125v107l490 -187v-100l-490 -173v112zM55 70l244 -2l244 2v-80l-243 2l-245 -2v80z" />
    <glyph glyph-name="filledbox" unicode="&#x25a0;" horiz-adv-x="653" 
d="M520 459v-388h-388v388h388z" />
    <glyph glyph-name="triagup" unicode="&#x25b2;" horiz-adv-x="653" 
d="M539 52h-426l213 426z" />
    <glyph glyph-name="uni25B3" unicode="&#x25b3;" horiz-adv-x="653" 
d="M539 52h-426l213 426zM432 118l-106 212l-105 -212h211z" />
    <glyph glyph-name="uni25B6" unicode="&#x25b6;" horiz-adv-x="653" 
d="M113 53v426l426 -213z" />
    <glyph glyph-name="uni25B7" unicode="&#x25b7;" horiz-adv-x="653" 
d="M113 53v426l426 -213zM391 266l-211 106v-211z" />
    <glyph glyph-name="triagdn" unicode="&#x25bc;" horiz-adv-x="653" 
d="M326 52l-213 426h426z" />
    <glyph glyph-name="uni25BD" unicode="&#x25bd;" horiz-adv-x="653" 
d="M326 52l-213 426h426zM326 200l106 212h-211z" />
    <glyph glyph-name="uni25C0" unicode="&#x25c0;" horiz-adv-x="653" 
d="M539 478v-426l-426 213z" />
    <glyph glyph-name="uni25C1" unicode="&#x25c1;" horiz-adv-x="653" 
d="M539 478v-426l-426 213zM473 160v211l-212 -106z" />
    <glyph glyph-name="uni25C6" unicode="&#x25c6;" horiz-adv-x="653" 
d="M601 265l-274 -274l-275 274l275 275z" />
    <glyph glyph-name="lozenge" unicode="&#x25ca;" horiz-adv-x="653" 
d="M327 650l215 -320l-216 -322l-214 322zM326 154l119 176l-118 175l-118 -175z" />
    <glyph glyph-name="uniF8FF" unicode="&#xf8ff;" horiz-adv-x="1309" 
d="M42 462h486q4 56 44.5 94t96.5 38t96.5 -38t44.5 -94h486v-193h-1254v193zM78 118h-36v31h93l-41 -78h38v-31h-95zM41 247h50v-11h-38v-26h33v-11h-33v-29h-12v77zM94 392v-86h39v86h28v35h-96v-35h29zM101 247h12v-47q0 -9 5.5 -14.5t13.5 -5.5t14 6t6 14v47h12v-47
q0 -14 -9 -22.5t-23 -8.5q-13 0 -22 9t-9 22v47zM142 149h79v-30h-44v-9h38v-30h-38v-10h45v-30h-80v109zM207 306v35h8l15 -35h41l-21 46q14 12 14 32q0 18 -13.5 30.5t-32.5 12.5h-50v-121h39zM179 247h12v-66h35v-11h-47v77zM207 394h10q3 0 5.5 -3t2.5 -7t-2.5 -7.5
t-5.5 -3.5h-10v21zM226 149h87v-31h-26v-78h-35v78h-26v31zM237 247h12v-66h36v-11h-48v77zM315 306v121h-38v-121h38zM338 149h40l37 -109h-38l-4 17h-31l-5 -17h-36zM331 247l22 -57l22 57h14l-32 -77h-8l-32 77h14zM363 306l5 19h34l5 -19h42l-41 121h-45l-41 -121h41z
M365 86l-7 26h-1l-7 -26h15zM384 386h1l8 -29h-17zM399 247h50v-11h-38v-22h33v-10h-33v-23h38v-11h-50v77zM421 149h79v-30h-44v-16h37v-29h-37v-34h-35v109zM538 306v33h-43v88h-39v-121h82zM462 247h29q11 0 18 -7t7 -18q0 -14 -12 -21l15 -31h-14l-13 28h-18v-28h-12v77
zM491 208q5 0 9 4t4 10t-4 10t-9 4h-17v-28h17zM521 135.5q17 16.5 42 16.5t42 -16.5t17 -40.5q0 -25 -17 -41.5t-42 -16.5t-42 16.5t-17 41.5q0 24 17 40.5zM525 189q13 -9 26 -9q14 0 14 12q0 7 -17 12q-12 5 -17 9.5t-5 13.5q0 10 7 16t19 6q10 0 20 -5v-13q-9 7 -20 7
q-6 0 -10 -3t-4 -8t3.5 -7.5t12.5 -5.5q23 -9 23 -22q0 -11 -7.5 -17t-18.5 -6q-14 0 -26 7v13zM546 76.5q7 -7.5 17 -7.5t17 7.5t7 18.5t-7 18t-17 7t-17 -7t-7 -18t7 -18.5zM574 367l167 166h-171q-29 -35 -29 -81q0 -49 33 -85zM669 325q48 0 85 32h-170q37 -32 85 -32z
M754 547q-38 33 -85 33q-49 0 -85 -33h170zM589 247h12v-77h-12v77zM767 371q29 35 29 81q0 48 -32 85l-166 -166h169zM625.5 237.5q11.5 11.5 28.5 11.5t28.5 -11.5t11.5 -28.5t-11.5 -28.5t-28.5 -11.5t-28.5 11.5t-11.5 28.5t11.5 28.5zM634 188q8 -8 20 -8q11 0 19 8
t8 21q0 12 -8 20t-19 8q-12 0 -20 -8t-8 -20q0 -13 8 -21zM630 149h36l33 -58v58h35v-109h-36l-34 53l1 -53h-35v109zM706 248h6l49 -55v54h12v-79h-6l-49 54v-52h-12v78zM740 149h86v-31h-25v-78h-35v78h-26v31zM807 213h458l-13 11l8 7l25 -24l-25 -24l-8 7l13 11h-458v12
zM839.5 321q18.5 -18 46.5 -18t47 18t19 46q0 27 -19 45t-47 18t-46.5 -18t-18.5 -45q0 -28 18.5 -46zM841 143q12 9 33 9q14 0 32 -8v-34q-6 5 -15.5 8t-16.5 3q-11 0 -11 -4q0 -3 2.5 -4.5t5.5 -2t6 -1.5q36 -8 36 -35q0 -17 -12.5 -27t-31.5 -10q-22 0 -38 10v37
q25 -16 38 -16q9 0 9 6q0 4 -7 6t-10 3q-17 6 -24.5 13.5t-7.5 21.5q0 16 12 25zM867 387q8 8 19 8q12 0 19.5 -8t7.5 -20q0 -13 -7.5 -21t-19.5 -8q-11 0 -19 8t-8 21q0 12 8 20zM923 65.5q5 4.5 13 4.5q7 0 12 -4.5t5 -11.5t-5 -12t-12 -5q-8 0 -13 5t-5 12t5 11.5z
M976 135.5q17 16.5 42 16.5q13 0 23 -6v-33q-12 7 -22 7t-17.5 -7t-7.5 -18t7 -18.5t18 -7.5q15 0 25 10l-1 -35q-14 -7 -26 -7q-24 0 -41 16.5t-17 41.5q0 24 17 40.5zM999 306l-1 59l38 -59h40v121h-39v-64l-37 64h-40v-121h39zM1064.5 135.5q17.5 16.5 42.5 16.5
t42 -16.5t17 -40.5q0 -25 -17 -41.5t-42 -16.5q-26 0 -43 16.5t-17 41.5q0 24 17.5 40.5zM1089 76.5q7 -7.5 18 -7.5q10 0 17 7.5t7 18.5q0 10 -7 17.5t-17 7.5t-17.5 -7t-7.5 -18t7 -18.5zM1170 306v33h-43v88h-39v-121h82zM1192 354v-48h39v48l41 73h-45l-16 -36l-15 36
h-46zM1173 149h35l26 -50l26 50h35v-109h-34v43l-14 -27h-25l-14 27v-43h-35v109z" />
    <glyph glyph-name="dotlessi.ss01" horiz-adv-x="236" 
d="M59 266l-3 264h124l-2 -264l2 -266h-124z" />
    <glyph glyph-name="uni0237.ss01" horiz-adv-x="238" 
d="M-69 -149l18 88q25 -9 54 -9q30 0 44 20t14 64v99l-2 417h123l-2 -418v-82q0 -105 -35.5 -152t-110.5 -47q-55 0 -103 20z" />
    <glyph glyph-name="i.ss01" horiz-adv-x="236" 
d="M59 266l-3 264h124l-2 -264l2 -266h-124zM57 713h123v-125h-123v125z" />
    <glyph glyph-name="j.ss01" horiz-adv-x="238" 
d="M-69 -149l18 88q25 -9 54 -9q30 0 44 20t14 64v99l-2 417h123l-2 -418v-82q0 -105 -35.5 -152t-110.5 -47q-55 0 -103 20zM57 713h123v-125h-123v125z" />
    <glyph glyph-name="g.ss02" horiz-adv-x="553" 
d="M76.5 -140q-61.5 33 -61.5 95q0 63 56 109q-33 26 -33 70q0 56 59 111q-24 23 -36.5 53.5t-12.5 66.5q0 52 27 93t76 63.5t112 22.5q52 0 95 -16t72 -46q16 48 46 71t61 23q10 0 14 -1l12 -102q-12 2 -16 2q-30 0 -49.5 -26.5t-20.5 -83.5q0 -53 -27 -93.5t-75.5 -63
t-111.5 -22.5q-55 0 -100 17q-17 -22 -17 -41q0 -20 14.5 -30t47.5 -11l187 -5q75 -1 115 -33.5t40 -90.5q0 -83 -78 -124t-215 -41q-119 0 -180.5 33zM271 -94q82 0 122 16t40 53q0 20 -16 33t-47 14l-149 5q-40 1 -70 6q-21 -28 -21 -58q0 -69 141 -69zM191.5 299.5
q27.5 -25.5 71.5 -25.5t72 25.5t28 65.5t-28 65t-72 25t-71.5 -25t-27.5 -65t27.5 -65.5z" />
    <glyph glyph-name="a.ss03" horiz-adv-x="582" 
d="M81 56.5q-56 71.5 -56 207.5t55.5 208t156.5 72q57 0 99.5 -26.5t63.5 -62.5h2l-2 75h126l-2 -266l2 -264h-126l2 74h-3q-20 -36 -62.5 -62.5t-99.5 -26.5q-100 0 -156 71.5zM182.5 132.5q32.5 -45.5 93.5 -45.5q52 0 89 41t37 138q0 87 -35.5 131.5t-90.5 44.5
q-61 0 -93.5 -46t-32.5 -132t32.5 -131.5z" />
    <glyph glyph-name="J.ss04" horiz-adv-x="478" 
d="M61 41.5q-60 56.5 -69 158.5l117 28q18 -131 98 -131q44 0 66 31t23 86l2 262l-2 217h133l-2 -217l2 -246q1 -120 -58 -182.5t-162 -62.5q-88 0 -148 56.5z" />
    <glyph glyph-name="Q.ss04" horiz-adv-x="703" 
d="M177.5 28.5q-73.5 43.5 -112.5 125t-39 193.5t39.5 193.5t112.5 124.5t173 43q101 0 174.5 -43t112.5 -124t39 -194q0 -89 -25 -159t-73 -118l79 -106l-91 -65l-82 110q-60 -24 -134 -24q-100 0 -173.5 43.5zM211 162.5q50 -65.5 140 -65.5q33 0 61 9l-57 77l89 68
l56 -76q43 65 43 172q0 120 -50.5 185t-141.5 65q-89 0 -139.5 -65.5t-50.5 -184.5t50 -184.5z" />
    <glyph glyph-name="r.ss04" horiz-adv-x="411" 
d="M59 254l-2 276h121l-3 -82h2q19 42 59.5 68.5t95.5 26.5q23 0 45 -13.5t32 -34.5l-57 -77q-23 17 -46 17q-61 0 -94.5 -43t-33.5 -127v-23l3 -242h-124z" />
    <glyph glyph-name="P.ss09" horiz-adv-x="617" 
d="M64 347l-3 346h259q136 0 206 -56.5t70 -175.5q0 -123 -68.5 -180.5t-207.5 -57.5h-127l2 -223h-134zM328 329q71 0 105 32t34 100q0 64 -33.5 93.5t-105.5 29.5h-135v-255h135z" />
    <glyph glyph-name="R.ss09" horiz-adv-x="643" 
d="M64 347l-3 346h266q269 0 269 -221q0 -68 -27 -113.5t-79 -67.5q46 -21 68 -54.5t29 -90.5q13 -95 28 -146h-138q-9 34 -21 122q-9 66 -52 94.5t-92 28.5h-119l2 -245h-134zM326 347q141 0 141 119q0 61 -33.5 89.5t-105.5 28.5h-135v-237h133z" />
    <glyph glyph-name="t.ss09" horiz-adv-x="374" 
d="M137 13.5q-38 28.5 -49 74.5t-10 120l1 229l-79 -2v95h78v115l123 35v-150h156v-95l-157 2l1 -250q0 -56 14.5 -80t54.5 -24q38 0 79 13l22 -87q-60 -24 -119 -24q-77 0 -115 28.5z" />
    <glyph glyph-name="uni004A0301" horiz-adv-x="379" 
d="M6 -5l15 109q42 -7 68 -7q58 0 82 36.5t25 109.5l2 233l-2 217h134l-2 -217l2 -228q1 -136 -56 -199.5t-170 -63.5q-50 0 -98 10zM219 745l41 121h130l-95 -121h-76z" />
    <glyph glyph-name="uni006A0301" horiz-adv-x="238" 
d="M-69 -149l18 88q25 -9 54 -9q30 0 44 20t14 64v99l-2 417h123l-2 -418v-82q0 -105 -35.5 -152t-110.5 -47q-55 0 -103 20zM77 624l48 149h121l-93 -149h-76z" />
    <glyph glyph-name="aacute.ss03" horiz-adv-x="582" 
d="M81 56.5q-56 71.5 -56 207.5t55.5 208t156.5 72q57 0 99.5 -26.5t63.5 -62.5h2l-2 75h126l-2 -266l2 -264h-126l2 74h-3q-20 -36 -62.5 -62.5t-99.5 -26.5q-100 0 -156 71.5zM182.5 132.5q32.5 -45.5 93.5 -45.5q52 0 89 41t37 138q0 87 -35.5 131.5t-90.5 44.5
q-61 0 -93.5 -46t-32.5 -132t32.5 -131.5zM253 624l48 149h121l-93 -149h-76z" />
    <glyph glyph-name="abreve.ss03" horiz-adv-x="582" 
d="M81 56.5q-56 71.5 -56 207.5t55.5 208t156.5 72q57 0 99.5 -26.5t63.5 -62.5h2l-2 75h126l-2 -266l2 -264h-126l2 74h-3q-20 -36 -62.5 -62.5t-99.5 -26.5q-100 0 -156 71.5zM182.5 132.5q32.5 -45.5 93.5 -45.5q52 0 89 41t37 138q0 87 -35.5 131.5t-90.5 44.5
q-61 0 -93.5 -46t-32.5 -132t32.5 -131.5zM193 651.5q-36 38.5 -36 112.5h74q2 -38 15.5 -56t47.5 -18q35 0 48.5 18t15.5 56h74q1 -74 -35 -112.5t-103 -38.5q-65 0 -101 38.5z" />
    <glyph glyph-name="acircumflex.ss03" horiz-adv-x="582" 
d="M81 56.5q-56 71.5 -56 207.5t55.5 208t156.5 72q57 0 99.5 -26.5t63.5 -62.5h2l-2 75h126l-2 -266l2 -264h-126l2 74h-3q-20 -36 -62.5 -62.5t-99.5 -26.5q-100 0 -156 71.5zM182.5 132.5q32.5 -45.5 93.5 -45.5q52 0 89 41t37 138q0 87 -35.5 131.5t-90.5 44.5
q-61 0 -93.5 -46t-32.5 -132t32.5 -131.5zM247 773h96l103 -149h-81l-70 74l-70 -74h-81z" />
    <glyph glyph-name="adieresis.ss03" horiz-adv-x="582" 
d="M81 56.5q-56 71.5 -56 207.5t55.5 208t156.5 72q57 0 99.5 -26.5t63.5 -62.5h2l-2 75h126l-2 -266l2 -264h-126l2 74h-3q-20 -36 -62.5 -62.5t-99.5 -26.5q-100 0 -156 71.5zM182.5 132.5q32.5 -45.5 93.5 -45.5q52 0 89 41t37 138q0 87 -35.5 131.5t-90.5 44.5
q-61 0 -93.5 -46t-32.5 -132t32.5 -131.5zM156 637q-17 16 -17 45q0 27 17 43t47 16q29 0 45.5 -16t16.5 -43q0 -29 -16.5 -45t-45.5 -16q-30 0 -47 16zM345 725q17 16 46 16t46 -16t17 -43q0 -28 -17 -44.5t-46 -16.5t-46 16.5t-17 44.5q0 27 17 43z" />
    <glyph glyph-name="agrave.ss03" horiz-adv-x="582" 
d="M81 56.5q-56 71.5 -56 207.5t55.5 208t156.5 72q57 0 99.5 -26.5t63.5 -62.5h2l-2 75h126l-2 -266l2 -264h-126l2 74h-3q-20 -36 -62.5 -62.5t-99.5 -26.5q-100 0 -156 71.5zM182.5 132.5q32.5 -45.5 93.5 -45.5q52 0 89 41t37 138q0 87 -35.5 131.5t-90.5 44.5
q-61 0 -93.5 -46t-32.5 -132t32.5 -131.5zM163 773h121l48 -149h-76z" />
    <glyph glyph-name="amacron.ss03" horiz-adv-x="582" 
d="M81 56.5q-56 71.5 -56 207.5t55.5 208t156.5 72q57 0 99.5 -26.5t63.5 -62.5h2l-2 75h126l-2 -266l2 -264h-126l2 74h-3q-20 -36 -62.5 -62.5t-99.5 -26.5q-100 0 -156 71.5zM182.5 132.5q32.5 -45.5 93.5 -45.5q52 0 89 41t37 138q0 87 -35.5 131.5t-90.5 44.5
q-61 0 -93.5 -46t-32.5 -132t32.5 -131.5zM151 710h289v-79h-289v79z" />
    <glyph glyph-name="aogonek.ss03" horiz-adv-x="582" 
d="M81 56.5q-56 71.5 -56 207.5t55.5 208t156.5 72q57 0 99.5 -26.5t63.5 -62.5h2l-2 75h126l-2 -266l2 -264h-2q-29 -17 -46.5 -38t-17.5 -38q0 -26 38 -26q18 0 42 7l17 -60q-44 -21 -92 -21q-44 0 -69 18.5t-25 53.5q0 30 21 55t60 49h-52l2 74h-3q-20 -36 -62.5 -62.5
t-99.5 -26.5q-100 0 -156 71.5zM182.5 132.5q32.5 -45.5 93.5 -45.5q52 0 89 41t37 138q0 87 -35.5 131.5t-90.5 44.5q-61 0 -93.5 -46t-32.5 -132t32.5 -131.5z" />
    <glyph glyph-name="aring.ss03" horiz-adv-x="582" 
d="M81 56.5q-56 71.5 -56 207.5t55.5 208t156.5 72q57 0 99.5 -26.5t63.5 -62.5h2l-2 75h126l-2 -266l2 -264h-126l2 74h-3q-20 -36 -62.5 -62.5t-99.5 -26.5q-100 0 -156 71.5zM182.5 132.5q32.5 -45.5 93.5 -45.5q52 0 89 41t37 138q0 87 -35.5 131.5t-90.5 44.5
q-61 0 -93.5 -46t-32.5 -132t32.5 -131.5zM228 642q-25 23 -25 62t25 62t67 23q41 0 66 -23t25 -62t-25 -62t-66 -23q-42 0 -67 23zM264.5 674.5q11.5 -10.5 30.5 -10.5t30 10.5t11 29.5t-11 30.5t-30 11.5t-30.5 -11.5t-11.5 -30.5t11.5 -29.5z" />
    <glyph glyph-name="atilde.ss03" horiz-adv-x="582" 
d="M81 56.5q-56 71.5 -56 207.5t55.5 208t156.5 72q57 0 99.5 -26.5t63.5 -62.5h2l-2 75h126l-2 -266l2 -264h-126l2 74h-3q-20 -36 -62.5 -62.5t-99.5 -26.5q-100 0 -156 71.5zM182.5 132.5q32.5 -45.5 93.5 -45.5q52 0 89 41t37 138q0 87 -35.5 131.5t-90.5 44.5
q-61 0 -93.5 -46t-32.5 -132t32.5 -131.5zM159.5 711.5q21.5 35.5 68.5 35.5q25 0 43 -7.5t38 -20.5q13 -9 22 -13t18 -4q18 0 24 11.5t6 33.5h71q2 -54 -19.5 -89.5t-70.5 -35.5q-24 0 -42 7.5t-38 20.5q-13 9 -22 13t-18 4q-18 0 -24 -11.5t-6 -33.5h-71q-1 54 20.5 89.5z
" />
    <glyph glyph-name="asuperior" horiz-adv-x="380" 
d="M52.5 384q-28.5 25 -28.5 64q0 61 47.5 83t135.5 22h18v10q0 30 -12.5 44.5t-39.5 14.5q-28 0 -41 -16t-14 -41l-83 19q5 53 43.5 83t102.5 30q72 0 106.5 -34.5t34.5 -98.5v-105q0 -14 3.5 -20.5t12.5 -6.5t21 5l13 -65q-24 -11 -61 -11q-31 0 -48 12t-20 43v9h-1
q-13 -31 -43 -48.5t-71 -17.5q-47 0 -75.5 25zM130.5 438q10.5 -9 27.5 -9q26 0 46.5 20.5t20.5 50.5v4h-14q-48 0 -69.5 -9t-21.5 -33q0 -15 10.5 -24z" />
    <glyph glyph-name="bsuperior" horiz-adv-x="405" 
d="M200 372.5q-26 13.5 -40 36.5h-1v-41h-103l2 194l-2 222h103l-1 -137h1q13 22 39 36t57 14q59 0 92 -42.5t33 -125.5q0 -84 -33.5 -127t-91.5 -43q-29 0 -55 13.5zM175 463.5q17 -20.5 43 -20.5q29 0 44 22t15 64q0 41 -15.5 63t-43.5 22q-27 0 -43.5 -22t-16.5 -63
q0 -45 17 -65.5z" />
    <glyph glyph-name="csuperior" horiz-adv-x="363" 
d="M70.5 404.5q-45.5 45.5 -45.5 124.5q0 77 45 122.5t120 45.5q66 0 104.5 -30.5t47.5 -83.5l-92 -25q-5 29 -20.5 44t-38.5 15q-28 0 -45.5 -22t-17.5 -66q0 -45 17.5 -67t45.5 -22q23 0 38.5 15.5t20.5 43.5l92 -25q-8 -53 -46.5 -84t-102.5 -31q-77 0 -122.5 45.5z" />
    <glyph glyph-name="dsuperior" horiz-adv-x="405" 
d="M58.5 402q-33.5 43 -33.5 127q0 83 33 125.5t92 42.5q31 0 57 -14t39 -36h1l-1 137h103l-1 -222l1 -194h-103l1 41h-2q-13 -22 -39.5 -36t-55.5 -14q-58 0 -91.5 43zM143.5 465q15.5 -22 44.5 -22q25 0 42 20.5t17 65.5q0 41 -16 63t-43 22q-29 0 -44.5 -22t-15.5 -63
q0 -42 15.5 -64z" />
    <glyph glyph-name="esuperior" horiz-adv-x="366" 
d="M70 405q-45 46 -45 124q0 77 43 122.5t116 45.5q82 0 119.5 -51.5t37.5 -137.5h-215q4 -36 22 -53.5t46 -17.5q23 0 38 14t20 40l84 -23q-9 -46 -45.5 -77.5t-100.5 -31.5q-75 0 -120 46zM245 566q-2 28 -16.5 44.5t-39.5 16.5q-50 0 -61 -61h117z" />
    <glyph glyph-name="fsuperior" horiz-adv-x="266" 
d="M72 613l-54 -1v77h52q-2 12 -2 23q0 45 24.5 75t83.5 30q48 0 83 -19l-11 -73q-23 12 -46 12q-16 0 -25 -9t-9 -24q0 -4 3 -15h77v-77l-77 1l1 -245h-102z" />
    <glyph glyph-name="gsuperior" horiz-adv-x="405" 
d="M81.5 290q-36.5 26 -51.5 74l81 23q8 -26 23.5 -38t43.5 -12q39 0 54 23t15 67v10h-2q-14 -20 -39.5 -33.5t-55.5 -13.5q-58 0 -91.5 39t-33.5 112q0 72 33.5 114t92.5 42q30 0 56 -14t38 -35h2l-1 41h103v-231q0 -194 -165 -194q-66 0 -102.5 26zM143.5 487.5
q15.5 -20.5 43.5 -20.5q26 0 43 18.5t17 55.5q0 29 -15 51t-45 22q-27 0 -43 -20.5t-16 -52.5q0 -33 15.5 -53.5z" />
    <glyph glyph-name="isuperior" horiz-adv-x="194" 
d="M47 529l-1 160q22 -5 52 -5t50 5l-1 -160l1 -161h-102zM51 792q14 11 45 11t45.5 -11t14.5 -34q0 -24 -14 -34.5t-46 -10.5q-31 0 -45 10.5t-14 34.5q0 23 14 34z" />
    <glyph glyph-name="ksuperior" horiz-adv-x="379" 
d="M58 579l-2 205h102l-1 -205v-4l93 114h114l-107 -122l120 -199h-110l-75 126l-34 -40v-86h-102z" />
    <glyph glyph-name="msuperior" horiz-adv-x="594" 
d="M58 521l-2 168h102l-2 -43h2q13 23 40 37t54 14q65 0 86 -62h1q17 29 46 45.5t57 16.5q46 0 71 -30t25 -93v-53l2 -153h-102l2 153v34q0 26 -11.5 40.5t-28.5 14.5q-22 0 -37 -19t-15 -50v-20l1 -153h-102l2 153v34q0 26 -11.5 40.5t-28.5 14.5q-22 0 -37.5 -19
t-15.5 -50v-20l2 -153h-102z" />
    <glyph glyph-name="osuperior" horiz-adv-x="383" 
d="M72.5 405q-45.5 46 -45.5 124q0 77 45.5 122.5t119.5 45.5t119 -45.5t45 -122.5q0 -78 -45 -124t-119 -46t-119.5 46zM146.5 464.5q16.5 -22.5 45.5 -22.5t45.5 22.5t16.5 64.5q0 40 -16.5 62.5t-45.5 22.5t-45.5 -22t-16.5 -63q0 -42 16.5 -64.5z" />
    <glyph glyph-name="psuperior" horiz-adv-x="405" 
d="M58 495l-2 194h103v-41h1q13 21 39 35t56 14q58 0 91.5 -42.5t33.5 -125.5q0 -84 -33 -127t-92 -43q-30 0 -56 13.5t-40 36.5h-1l1 -137h-103zM175 463.5q17 -20.5 43 -20.5q28 0 43.5 22.5t15.5 63.5t-15 63t-44 22q-27 0 -43.5 -22t-16.5 -63q0 -45 17 -65.5z" />
    <glyph glyph-name="qsuperior" horiz-adv-x="405" 
d="M246 272l1 137h-1q-13 -21 -39 -35.5t-57 -14.5q-58 0 -91.5 43t-33.5 127q0 83 33.5 125.5t91.5 42.5q31 0 56.5 -14t38.5 -35h2l-1 41h103l-1 -194l1 -223h-103zM143.5 465.5q15.5 -22.5 44.5 -22.5q25 0 42 20.5t17 65.5q0 41 -16 63t-43 22q-29 0 -44.5 -22
t-15.5 -63t15.5 -63.5z" />
    <glyph glyph-name="rsuperior" horiz-adv-x="273" 
d="M58 521l-2 168h102l-2 -48h2q10 24 32.5 40t58.5 16q11 0 14 -1v-100q-20 2 -27 2q-79 0 -79 -84v-17l1 -129h-102z" />
    <glyph glyph-name="tsuperior" horiz-adv-x="281" 
d="M110 376.5q-26 17.5 -34.5 49.5t-7.5 83l1 104l-47 -1v77h46v60l100 33v-93h89v-77l-89 1v-113q0 -60 42 -60q22 0 39 5l18 -69q-17 -8 -39.5 -12.5t-41.5 -4.5q-50 0 -76 17.5z" />
    <glyph glyph-name="usuperior" horiz-adv-x="417" 
d="M359 536l2 -168h-103l2 44h-1q-14 -24 -40.5 -38t-56.5 -14q-53 0 -79.5 30.5t-26.5 96.5v49l-2 153h102l-1 -153v-31q0 -28 12.5 -43t35.5 -15q24 0 40.5 19t16.5 50v20l-2 153h103z" />
    <glyph glyph-name="vsuperior" horiz-adv-x="355" 
d="M242 368h-129l-102 321h105l63 -227h2l62 227h101z" />
    <glyph glyph-name="zsuperior" horiz-adv-x="330" 
d="M27 442l150 166h-148v81h270v-75l-148 -165h152v-81h-276v74z" />
    <glyph glyph-name="periodcentered.case" horiz-adv-x="236" 
d="M58.5 297q-20.5 19 -20.5 54q0 34 20.5 53t59.5 19t60 -19t21 -53q0 -35 -21 -54t-60 -19t-59.5 19z" />
    <glyph glyph-name="bullet.case" horiz-adv-x="308" 
d="M82.5 297.5q-24.5 22.5 -24.5 65.5q0 41 25 63.5t71 22.5q47 0 72.5 -22.5t25.5 -63.5q0 -43 -25.5 -65.5t-72.5 -22.5t-71.5 22.5z" />
    <glyph glyph-name="slash.case" horiz-adv-x="442" 
d="M322 725h116l-319 -782h-115z" />
    <glyph glyph-name="backslash.case" horiz-adv-x="442" 
d="M323 -57l-319 782h116l318 -782h-115z" />
    <glyph glyph-name="period.ss01" horiz-adv-x="209" 
d="M44 141h122v-141h-122v141z" />
    <glyph glyph-name="comma.ss01" horiz-adv-x="204" 
d="M87 2h-49v139h126v-106q0 -122 -123 -172l-20 51q64 24 66 88z" />
    <glyph glyph-name="colon.ss01" horiz-adv-x="209" 
d="M44 141h122v-141h-122v141zM44 531h122v-141h-122v141z" />
    <glyph glyph-name="semicolon.ss01" horiz-adv-x="205" 
d="M42 531h122v-141h-122v141zM87 2h-49v139h126v-106q0 -122 -123 -172l-20 51q64 24 66 88z" />
    <glyph glyph-name="ellipsis.ss01" horiz-adv-x="628" 
d="M44 141h122v-141h-122v141zM253 141h122v-141h-122v141zM463 141h122v-141h-122v141z" />
    <glyph glyph-name="exclam.ss01" horiz-adv-x="246" 
d="M61 452v241h123v-241l-24 -240h-75zM64 141h117v-141h-117v141z" />
    <glyph glyph-name="exclamdown.ss01" horiz-adv-x="246" 
d="M160 318l24 -240v-241h-123v241l24 240h75zM64 530h117v-141h-117v141z" />
    <glyph glyph-name="question.ss01" horiz-adv-x="514" 
d="M312.5 415.5q43.5 36.5 43.5 96.5q0 44 -26 69.5t-73 25.5q-55 0 -84 -30.5t-40 -83.5l-107 28q14 73 71 130t168 57q63 0 111 -24.5t74 -66.5t26 -94q0 -87 -54.5 -140t-148.5 -72l-4 -99h-95l-4 151q99 16 142.5 52.5zM162 141h118v-141h-118v141z" />
    <glyph glyph-name="questiondown.ss01" horiz-adv-x="514" 
d="M202 121q-44 -36 -44 -95q0 -43 26 -68.5t73 -25.5q55 0 84 30t40 82l107 -27q-14 -72 -71 -128t-168 -56q-64 0 -111.5 24t-73.5 65t-26 93q0 86 54.5 138t148.5 71l4 97h95l4 -149q-98 -15 -142 -51zM234 530h118v-139h-118v139z" />
    <glyph glyph-name="periodcentered.ss01" horiz-adv-x="197" 
d="M38 336h122v-141h-122v141z" />
    <glyph glyph-name="question.ss02" horiz-adv-x="514" 
d="M312.5 415.5q43.5 36.5 43.5 96.5q0 44 -26 69.5t-73 25.5q-55 0 -84 -30.5t-40 -83.5l-107 28q14 73 71 130t168 57q63 0 111 -24.5t74 -66.5t26 -94q0 -87 -54.5 -140.5t-150.5 -74.5l-7 -96h-87l-7 151q99 16 142.5 52.5zM162.5 110q21.5 19 60.5 19q38 0 59.5 -19
t21.5 -53t-21.5 -53t-59.5 -19q-39 0 -60.5 19t-21.5 53t21.5 53z" />
    <glyph glyph-name="question.ss03" horiz-adv-x="514" 
d="M311.5 408.5q44.5 32.5 44.5 94.5q0 47 -27.5 72.5t-72.5 25.5q-98 0 -121 -108l-109 28q14 73 70.5 130t165.5 57q65 0 113.5 -25t74.5 -68.5t26 -98.5q0 -93 -56 -147.5t-146 -59.5l-6 -97h-90l-7 168q96 -4 140.5 28.5zM162.5 110q21.5 19 60.5 19q38 0 59.5 -19
t21.5 -53t-21.5 -53t-59.5 -19q-39 0 -60.5 19t-21.5 53t21.5 53z" />
    <glyph glyph-name="period.tf" horiz-adv-x="669" 
d="M275.5 4q-20.5 19 -20.5 54q0 34 20.5 53t59.5 19t60 -19t21 -53q0 -35 -21 -54t-60 -19t-59.5 19z" />
    <glyph glyph-name="comma.tf" horiz-adv-x="669" 
d="M313 -52.5q21 21.5 19 43.5q-67 10 -67 72q0 33 21 51.5t58 18.5q78 0 78 -86q0 -65 -35.5 -116.5t-122.5 -63.5l-15 50q43 9 64 30.5z" />
    <glyph glyph-name="colon.tf" horiz-adv-x="669" 
d="M275.5 4q-20.5 19 -20.5 54q0 34 20.5 53t59.5 19t60 -19t21 -53q0 -35 -21 -54t-60 -19t-59.5 19zM275.5 416q-20.5 19 -20.5 54q0 34 20.5 53t59.5 19t60 -19t21 -53q0 -35 -21 -54t-60 -19t-59.5 19z" />
    <glyph glyph-name="semicolon.tf" horiz-adv-x="669" 
d="M310 -52.5q21 21.5 19 43.5q-67 10 -67 72q0 33 21 51.5t58 18.5q78 0 78 -86q0 -65 -35.5 -116.5t-122.5 -63.5l-15 50q43 9 64 30.5zM282.5 418q-20.5 19 -20.5 54q0 34 20.5 53t59.5 19t60 -19t21 -53q0 -35 -21 -54t-60 -19t-59.5 19z" />
    <glyph glyph-name="periodcentered.case.ss01" horiz-adv-x="197" 
d="M38 434h122v-141h-122v141z" />
    <glyph glyph-name="bullet.case.ss01" horiz-adv-x="308" 
d="M82.5 297.5q-24.5 22.5 -24.5 65.5q0 41 25 63.5t71 22.5q47 0 72.5 -22.5t25.5 -63.5q0 -43 -25.5 -65.5t-72.5 -22.5t-71.5 22.5z" />
    <glyph glyph-name="period.tf.ss01" horiz-adv-x="669" 
d="M261 141h122v-141h-122v141z" />
    <glyph glyph-name="comma.tf.ss01" horiz-adv-x="669" 
d="M315 2h-49v139h126v-106q0 -122 -123 -172l-20 51q64 24 66 88z" />
    <glyph glyph-name="colon.tf.ss01" horiz-adv-x="669" 
d="M261 141h122v-141h-122v141zM261 531h122v-141h-122v141z" />
    <glyph glyph-name="semicolon.tf.ss01" horiz-adv-x="669" 
d="M267 531h122v-141h-122v141zM312 2h-49v139h126v-106q0 -122 -123 -172l-20 51q64 24 66 88z" />
    <glyph glyph-name="hyphen.case" horiz-adv-x="381" 
d="M45 401h291v-102h-291v102z" />
    <glyph glyph-name="endash.case" horiz-adv-x="499" 
d="M-1 401h501v-102h-501v102z" />
    <glyph glyph-name="emdash.case" horiz-adv-x="1000" 
d="M0 401h1000v-102h-1000v102z" />
    <glyph glyph-name="figuredash.case" horiz-adv-x="590" 
d="M45 401h500v-102h-500v102z" />
    <glyph glyph-name="parenleft.case" horiz-adv-x="315" 
d="M56 342q0 227 176 403l59 -40q-54 -83 -81 -171t-27 -192t27 -192t81 -172l-59 -39q-176 174 -176 403z" />
    <glyph glyph-name="parenright.case" horiz-adv-x="315" 
d="M105 150q27 88 27 192t-27 192t-81 171l59 40q176 -176 176 -403q0 -229 -176 -403l-59 39q54 84 81 172z" />
    <glyph glyph-name="braceleft.case" horiz-adv-x="320" 
d="M104 103v113q0 40 -16.5 60.5t-61.5 20.5v92q45 0 61.5 20.5t16.5 60.5v115q0 72 37.5 108t115.5 36h39v-92h-28q-23 0 -36 -10.5t-13 -38.5v-92q0 -72 -18 -106.5t-69 -46.5q51 -12 69 -46.5t18 -106.5v-90q0 -28 13 -39t36 -11h28v-92h-39q-153 0 -153 145z" />
    <glyph glyph-name="braceright.case" horiz-adv-x="320" 
d="M24 -42v92h28q23 0 36 11t13 39v90q0 72 18 106.5t69 46.5q-51 12 -69 46.5t-18 106.5v92q0 28 -13 38.5t-36 10.5h-28v92h39q78 0 115.5 -36t37.5 -108v-115q0 -40 16.5 -60.5t61.5 -20.5v-92q-45 0 -61.5 -20.5t-16.5 -60.5v-113q0 -145 -153 -145h-39z" />
    <glyph glyph-name="bracketleft.case" horiz-adv-x="324" 
d="M61 727h239v-92h-123v-587h123v-92h-239v771z" />
    <glyph glyph-name="bracketright.case" horiz-adv-x="324" 
d="M24 -44v92h123v587h-123v92h239v-771h-239z" />
    <glyph glyph-name="guillemotleft.case" horiz-adv-x="568" 
d="M45 306v62l193 192l57 -50l-138 -173l138 -172l-57 -52zM263 363l193 197l57 -50l-138 -173l138 -172l-57 -52l-193 198v52z" />
    <glyph glyph-name="guillemotright.case" horiz-adv-x="568" 
d="M273 165l138 172l-138 173l57 50l193 -192v-62l-193 -193zM193 337l-138 173l57 50l193 -197v-52l-193 -198l-57 52z" />
    <glyph glyph-name="guilsinglleft.case" horiz-adv-x="350" 
d="M45 335v62l193 192l57 -50l-138 -173l138 -172l-57 -52z" />
    <glyph glyph-name="guilsinglright.case" horiz-adv-x="350" 
d="M55 194l138 172l-138 173l57 50l193 -192v-62l-193 -193z" />
    <glyph glyph-name="quotesinglbase.ss01" horiz-adv-x="199" 
d="M85 2h-48v135h123v-103q0 -58 -28.5 -100t-91.5 -68l-20 50q63 24 65 86z" />
    <glyph glyph-name="quotedblbase.ss01" horiz-adv-x="375" 
d="M84 2h-47v135h121v-103q0 -58 -28 -100t-90 -68l-19 50q61 24 63 86zM264 2h-47v135h121v-103q0 -58 -28.5 -100t-90.5 -68l-19 50q62 24 64 86z" />
    <glyph glyph-name="quotedblleft.ss01" horiz-adv-x="375" 
d="M290 573h47v-136h-121v104q0 58 28.5 100t90.5 67l19 -49q-62 -24 -64 -86zM37 541q0 58 28 100t90 67l19 -49q-61 -24 -63 -86h47v-136h-121v104z" />
    <glyph glyph-name="quotedblright.ss01" horiz-adv-x="375" 
d="M84 560h-47v135h121v-103q0 -58 -28 -100t-90 -68l-19 50q61 24 63 86zM264 560h-47v135h121v-103q0 -58 -28.5 -100t-90.5 -68l-19 50q62 24 64 86z" />
    <glyph glyph-name="quoteleft.ss01" horiz-adv-x="198" 
d="M112 572h48v-135h-123v103q0 118 120 168l20 -50q-63 -24 -65 -86z" />
    <glyph glyph-name="quoteright.ss01" horiz-adv-x="190" 
d="M86 560h-48v135h123v-103q0 -58 -28.5 -100t-91.5 -68l-20 50q63 24 65 86z" />
    <glyph glyph-name="ampersand.001" horiz-adv-x="698" 
d="M139.5 7.5q-52.5 22.5 -83 66t-30.5 103.5q0 58 30.5 108t108.5 96q-28 46 -38 83t-10 73q0 75 50 122.5t136 47.5q76 0 124 -41.5t48 -106.5q0 -59 -39 -106.5t-124 -92.5q35 -42 77 -85q46 -48 65 -66l17 -17q53 77 65 181l97 -18q-15 -134 -87 -230q38 -30 60 -38.5
t45 -8.5q15 0 27 4l17 -84q-32 -13 -65 -13q-39 0 -72.5 12t-87.5 54q-91 -66 -213 -66q-65 0 -117.5 22.5zM182 113.5q37 -28.5 94 -28.5q64 0 118 32q-39 37 -88 88q-60 64 -90 102q-37 -27 -54 -55t-17 -60q0 -50 37 -78.5zM234 491.5q7 -25.5 29 -61.5q55 28 81.5 57
t26.5 62q0 29 -18.5 48.5t-50.5 19.5q-34 0 -54.5 -21t-20.5 -56q0 -23 7 -48.5z" />
    <glyph glyph-name="at.case" horiz-adv-x="792" 
d="M200 3.5q-82 41.5 -128 121t-46 188.5q0 115 49 204.5t137.5 139.5t204.5 50q100 0 179.5 -40.5t124.5 -114t45 -169.5q0 -114 -49.5 -180.5t-132.5 -66.5q-52 0 -83.5 26.5t-36.5 69.5h-1q-17 -35 -50 -53t-69 -18q-55 0 -89.5 37t-34.5 104q0 55 17 105.5t52.5 82.5
t87.5 32q33 0 59 -15.5t36 -37.5h1l4 44h99l-27 -205q-2 -24 -2 -31q0 -29 11 -42.5t36 -13.5q79 0 79 153q0 75 -31 131.5t-89 87t-137 30.5q-88 0 -155.5 -38.5t-104 -108.5t-36.5 -161q0 -83 35 -143.5t96.5 -93t140.5 -32.5q47 0 91.5 9.5t79.5 28.5l24 -73
q-38 -24 -90.5 -36.5t-108.5 -12.5q-106 0 -188 41.5zM338 264.5q14 -19.5 42 -19.5q37 0 57.5 38t20.5 83q0 35 -15.5 53.5t-39.5 18.5q-39 0 -59 -37t-20 -84q0 -33 14 -52.5z" />
    <glyph glyph-name="registered.ss01" horiz-adv-x="777" 
d="M247 361l-2 192h147q75 0 115 -32t40 -94q0 -37 -15 -62.5t-43 -37.5q43 -19 52 -74q10 -67 17 -85h-98q-7 17 -13 68q-4 28 -21 43t-41 15h-47l1 -126h-94zM74.5 528q48.5 83 132 132t181.5 49t181 -49t132 -132t49 -181t-49 -181.5t-132 -132t-181 -48.5t-181.5 48.5
t-132 132t-48.5 181.5t48.5 181zM136.5 201.5q39.5 -66.5 106 -106t145.5 -39.5t145.5 39.5t106 106t39.5 145.5q0 78 -39.5 145t-106 106.5t-145.5 39.5t-145.5 -39.5t-106 -106.5t-39.5 -145q0 -79 39.5 -145.5zM393 364q61 0 61 55q0 28 -14.5 41.5t-45.5 13.5h-56v-110
h55z" />
    <glyph glyph-name="ampersand.ss04" horiz-adv-x="648" 
d="M136 7.5q-51 21.5 -80.5 63t-29.5 98.5q0 61 28 107t97 94q-73 92 -73 173q0 72 46 118t141 46q83 0 132 -41.5t49 -107.5q0 -57 -32.5 -105t-110.5 -98l137 -152q50 85 67 222l105 -18q-27 -176 -100 -280q31 -29 52 -38t45 -9q10 0 22 3l12 -87q-31 -11 -59 -11
q-37 0 -68 14t-73 52q-82 -65 -193 -65q-63 0 -114 21.5zM179 113q32 -26 86 -26q59 0 107 37l-9 10l-146 162q-70 -56 -70 -114q0 -43 32 -69zM241 426q55 35 76.5 64t21.5 61q0 29 -19 46.5t-57 17.5q-37 0 -55.5 -20t-18.5 -52q0 -49 52 -117z" />
    <glyph glyph-name="uni03060301" 
d="M76 651.5q-36 38.5 -36 112.5h74q2 -38 15.5 -56t47.5 -18q35 0 48.5 18t15.5 56h74q1 -74 -35 -112.5t-103 -38.5q-65 0 -101 38.5zM172 894h108l-83 -134h-67z" />
    <glyph glyph-name="uni03060300" 
d="M76 651.5q-36 38.5 -35 112.5h74q2 -38 15.5 -56t48.5 -18q34 0 47.5 18t15.5 56h74q0 -74 -36 -112.5t-101 -38.5q-67 0 -103 38.5zM184 894l43 -134h-68l-82 134h107z" />
    <glyph glyph-name="uni03060309" 
d="M76 651.5q-36 38.5 -36 112.5h74q2 -38 15.5 -56t47.5 -18q35 0 48.5 18t15.5 56h74q1 -74 -35 -112.5t-103 -38.5q-65 0 -101 38.5zM172.5 809q8.5 12 8.5 27q0 22 -26 22q-20 0 -37 -6l-12 44q9 6 28.5 10.5t35.5 4.5q39 0 59 -17t20 -47q0 -32 -20 -57.5t-49 -43.5
l-32 35q16 16 24.5 28z" />
    <glyph glyph-name="uni03060303" 
d="M96 651.5q-36 38.5 -36 112.5h74q2 -38 15.5 -56t47.5 -18q35 0 48.5 18t15.5 56h74q1 -74 -35 -112.5t-103 -38.5q-65 0 -101 38.5zM82 863.5q18 34.5 59 34.5q21 0 36.5 -7t33.5 -20q2 -1 9.5 -6.5t13.5 -8t12 -2.5q15 0 20.5 11t5.5 33h61q1 -54 -17 -88t-61 -34
q-20 0 -35.5 7t-33.5 20q-9 7 -18 12t-16 5q-16 0 -21 -11t-5 -33h-61q-1 53 17 87.5z" />
    <glyph glyph-name="uni03020301" 
d="M143 773h96l103 -149h-81l-70 74l-70 -74h-81zM338 808h106l-81 -116h-67z" />
    <glyph glyph-name="uni03020300" 
d="M259 624l-70 74l-70 -74h-81l103 149h96l103 -149h-81zM42 808l42 -116h-67l-81 116h106z" />
    <glyph glyph-name="uni03020309" 
d="M143 773h96l103 -149h-81l-70 74l-70 -74h-81zM276.5 834q17.5 4 31.5 4q35 0 53 -15t18 -41q0 -28 -18 -50.5t-44 -37.5l-29 30q15 15 22.5 25t7.5 23q0 20 -24 20q-18 0 -33 -6l-11 39q9 5 26.5 9z" />
    <glyph glyph-name="uni03020303" 
d="M151 773h96l103 -149h-81l-70 74l-70 -74h-81zM76 882q19 31 62 31q22 0 37.5 -6.5t35.5 -18.5q9 -6 18.5 -10.5t17.5 -4.5q17 0 22 10t5 30h64q2 -48 -17.5 -79t-63.5 -31q-22 0 -37 6.5t-35 18.5q-9 6 -18.5 10.5t-17.5 4.5q-16 0 -21.5 -10t-5.5 -30h-64q-1 48 18 79z
" />
    <glyph glyph-name="uni0306.cy" 
d="M76 651.5q-36 38.5 -36 112.5h74q2 -38 15.5 -56t47.5 -18q35 0 48.5 18t15.5 56h74q1 -74 -35 -112.5t-103 -38.5q-65 0 -101 38.5z" />
    <glyph glyph-name="uni0306.cy.case" 
d="M76 774q-36 34 -36 99h74q2 -34 15.5 -50t47.5 -16q35 0 48.5 16t15.5 50h74q1 -65 -35 -99t-103 -34q-65 0 -101 34z" />
    <glyph glyph-name="uni03080300" 
d="M50 637.5q-17 16.5 -17 44.5q0 27 17 43t46 16t46 -16t17 -43q0 -28 -17 -44.5t-46 -16.5t-46 16.5zM191 879l42 -131h-67l-81 131h106zM238 725q17 16 47 16q29 0 45.5 -16t16.5 -43q0 -29 -16.5 -45t-45.5 -16q-30 0 -47 16t-17 45q0 27 17 43z" />
    </font>
</defs>
</svg>
