<?xml version="1.0" standalone="no"?>
<!DOCTYPE svg PUBLIC "-//W3C//DTD SVG 1.1//EN" "http://www.w3.org/Graphics/SVG/1.1/DTD/svg11.dtd" >
<svg xmlns="http://www.w3.org/2000/svg" xmlns:xlink="http://www.w3.org/1999/xlink" version="1.1">
<metadata>
Created by FontForge 20201107 at Thu May  5 17:13:01 2022
 By 
Copyright 2021 Milligram by Cosimo Lorenzo Pancini. All rights reserved.
</metadata>
<defs>
<font id="MilligramTrial-Light" horiz-adv-x="0" >
  <font-face 
    font-family="Milligram Trial Light"
    font-weight="300"
    font-stretch="normal"
    units-per-em="1000"
    panose-1="0 0 0 0 0 0 0 0 0 0"
    ascent="800"
    descent="-200"
    x-height="523"
    cap-height="693"
    bbox="-113 -175 1296 997"
    underline-thickness="0"
    underline-position="0"
    unicode-range="U+000D-F8FF"
  />
<missing-glyph horiz-adv-x="399" 
d="M76 693h247v-693h-247v693zM188 346l-82 289v-577zM278 26l-79 278l-78 -278h157zM200 389l78 277h-157zM293 58v577l-82 -288z" />
    <glyph glyph-name=".notdef" horiz-adv-x="399" 
d="M76 693h247v-693h-247v693zM188 346l-82 289v-577zM278 26l-79 278l-78 -278h157zM200 389l78 277h-157zM293 58v577l-82 -288z" />
    <glyph glyph-name=".null" horiz-adv-x="600" 
 />
    <glyph glyph-name="nonmarkingreturn" unicode="&#xd;" horiz-adv-x="600" 
 />
    <glyph glyph-name="space" unicode=" " horiz-adv-x="263" 
 />
    <glyph glyph-name="exclam" unicode="!" horiz-adv-x="245" 
d="M94 442v251h58v-251l-7 -258h-44zM88.5 64q12.5 12 34.5 12q21 0 33.5 -12t12.5 -33q0 -22 -12.5 -34t-33.5 -12q-22 0 -34.5 12t-12.5 34q0 21 12.5 33z" />
    <glyph glyph-name="quotedbl" unicode="&#x22;" horiz-adv-x="335" 
d="M71 693h52v-259h-52v259zM212 693h52v-259h-52v259z" />
    <glyph glyph-name="numbersign" unicode="#" horiz-adv-x="550" 
d="M332 152h-157l-22 -152h-53l22 152h-109l8 46h108l25 166h-112l8 46h111l21 145h53l-21 -145h157l21 145h55l-21 -145h112l-8 -46h-111l-25 -166h115l-7 -46h-115l-22 -152h-55zM339 198l25 166h-157l-25 -166h157z" />
    <glyph glyph-name="dollar" unicode="$" horiz-adv-x="554" 
d="M306 728v-73q80 -9 129.5 -54t65.5 -120l-53 -14q-10 55 -45 91t-97 45v-238q112 -27 160 -70t48 -112q0 -79 -55.5 -124t-152.5 -50v-74h-49v75q-191 13 -222 197l51 14q15 -73 54 -113t117 -46v257q-100 24 -143.5 66t-43.5 112q0 71 50 114t137 46v71h49zM156.5 422.5
q29.5 -26.5 100.5 -45.5v229q-59 -3 -94.5 -33.5t-35.5 -76.5q0 -47 29.5 -73.5zM418 97.5q38 31.5 38 85.5q0 45 -35 74t-115 50v-245q74 4 112 35.5z" />
    <glyph glyph-name="percent" unicode="%" horiz-adv-x="707" 
d="M72 422q-37 45 -37 118q0 71 37 114.5t101 43.5t100.5 -43.5t36.5 -114.5q0 -73 -36.5 -118t-100.5 -45t-101 45zM111 454q23 -33 62 -33t61.5 33t22.5 86q0 50 -22.5 82.5t-61.5 32.5t-62 -32.5t-23 -82.5q0 -53 23 -86zM480 693h58l-307 -693h-57zM433.5 264
q36.5 44 100.5 44t101 -43.5t37 -115.5q0 -73 -37 -117.5t-101 -44.5t-100.5 44.5t-36.5 117.5q0 71 36.5 115zM472.5 63.5q22.5 -33.5 61.5 -33.5t62 33.5t23 85.5q0 51 -23 83.5t-62 32.5t-61.5 -32.5t-22.5 -83.5q0 -52 22.5 -85.5z" />
    <glyph glyph-name="ampersand" unicode="&#x26;" horiz-adv-x="646" 
d="M135 8q-47 23 -73.5 64.5t-26.5 96.5q0 63 32.5 110t99.5 94q-81 101 -81 179q0 68 41 111.5t116 43.5q66 0 107 -39.5t41 -97.5t-32.5 -107.5t-106.5 -95.5l-5 -3l1 -1l187 -211q67 102 81 276l54 -8q-21 -197 -98 -308q45 -46 73 -60.5t59 -14.5q7 0 22 3l8 -46
q-18 -7 -39 -7q-40 0 -74.5 16.5t-82.5 65.5q-79 -84 -196 -84q-60 0 -107 23zM135.5 76.5q42.5 -37.5 110.5 -37.5q91 0 155 69l-2 2l-198 222l-1 1q-52 -38 -79.5 -75.5t-27.5 -84.5q0 -59 42.5 -96.5zM213 404q2 0 4 2q65 41 92 79.5t27 82.5q0 37 -25.5 62.5t-70.5 25.5
q-46 0 -71.5 -28.5t-25.5 -73.5q0 -62 70 -150z" />
    <glyph glyph-name="quotesingle" unicode="'" horiz-adv-x="194" 
d="M71 693h52v-259h-52v259z" />
    <glyph glyph-name="parenleft" unicode="(" horiz-adv-x="300" 
d="M110.5 66.5q-45.5 115.5 -45.5 232.5q0 116 45.5 231.5t126.5 205.5l30 -23q-67 -88 -103.5 -197t-36.5 -217t36.5 -217.5t103.5 -197.5l-29 -22q-82 89 -127.5 204.5z" />
    <glyph glyph-name="parenright" unicode=")" horiz-adv-x="300" 
d="M136.5 81.5q36.5 109.5 36.5 217.5t-36.5 217t-103.5 197l30 23q81 -90 126.5 -205.5t45.5 -231.5q0 -117 -45.5 -232.5t-127.5 -204.5l-29 22q67 88 103.5 197.5z" />
    <glyph glyph-name="asterisk" unicode="*" horiz-adv-x="362" 
d="M77 445l77 96l-114 35l16 44l109 -51l-8 124h47l-7 -124l109 51l16 -45l-115 -33l77 -97l-38 -27l-66 103l-65 -103z" />
    <glyph glyph-name="plus" unicode="+" horiz-adv-x="433" 
d="M50 345l143 -2l-2 139h52l-2 -139l142 2v-49l-142 2l2 -139h-52l2 139l-143 -2v49z" />
    <glyph glyph-name="comma" unicode="," horiz-adv-x="177" 
d="M79.5 -52q15.5 19 11.5 42q-41 5 -41 42q0 21 12 32.5t32 11.5q45 0 45 -53q0 -111 -103 -130l-7 27q35 9 50.5 28z" />
    <glyph glyph-name="hyphen" unicode="-" horiz-adv-x="343" 
d="M40 320h263v-54h-263v54z" />
    <glyph glyph-name="period" unicode="." horiz-adv-x="198" 
d="M66 -3q-12 12 -12 33q0 20 12 32t33 12t33.5 -12t12.5 -32q0 -21 -12.5 -33t-33.5 -12t-33 12z" />
    <glyph glyph-name="slash" unicode="/" horiz-adv-x="405" 
d="M331 725h62l-319 -870h-61z" />
    <glyph glyph-name="zero" unicode="0" horiz-adv-x="1326" 
d="M42 462h486q4 56 44.5 94t96.5 38t96.5 -38t44.5 -94h486v-193h-1254v193zM78 118h-36v31h93l-41 -78h38v-31h-95zM41 247h50v-11h-38v-26h33v-11h-33v-29h-12v77zM94 392v-86h39v86h28v35h-96v-35h29zM101 247h12v-47q0 -9 5.5 -14.5t13.5 -5.5t14 6t6 14v47h12v-47
q0 -14 -9 -22.5t-23 -8.5q-13 0 -22 9t-9 22v47zM142 149h79v-30h-44v-9h38v-30h-38v-10h45v-30h-80v109zM207 306v35h8l15 -35h41l-21 46q14 12 14 32q0 18 -13.5 30.5t-32.5 12.5h-50v-121h39zM179 247h12v-66h35v-11h-47v77zM207 394h10q3 0 5.5 -3t2.5 -7t-2.5 -7.5
t-5.5 -3.5h-10v21zM226 149h87v-31h-26v-78h-35v78h-26v31zM237 247h12v-66h36v-11h-48v77zM315 306v121h-38v-121h38zM338 149h40l37 -109h-38l-4 17h-31l-5 -17h-36zM331 247l22 -57l22 57h14l-32 -77h-8l-32 77h14zM363 306l5 19h34l5 -19h42l-41 121h-45l-41 -121h41z
M365 86l-7 26h-1l-7 -26h15zM384 386h1l8 -29h-17zM399 247h50v-11h-38v-22h33v-10h-33v-23h38v-11h-50v77zM421 149h79v-30h-44v-16h37v-29h-37v-34h-35v109zM538 306v33h-43v88h-39v-121h82zM462 247h29q11 0 18 -7t7 -18q0 -14 -12 -21l15 -31h-14l-13 28h-18v-28h-12v77
zM491 208q5 0 9 4t4 10t-4 10t-9 4h-17v-28h17zM521 135.5q17 16.5 42 16.5t42 -16.5t17 -40.5q0 -25 -17 -41.5t-42 -16.5t-42 16.5t-17 41.5q0 24 17 40.5zM525 189q13 -9 26 -9q14 0 14 12q0 7 -17 12q-12 5 -17 9.5t-5 13.5q0 10 7 16t19 6q10 0 20 -5v-13q-9 7 -20 7
q-6 0 -10 -3t-4 -8t3.5 -7.5t12.5 -5.5q23 -9 23 -22q0 -11 -7.5 -17t-18.5 -6q-14 0 -26 7v13zM546 76.5q7 -7.5 17 -7.5t17 7.5t7 18.5t-7 18t-17 7t-17 -7t-7 -18t7 -18.5zM574 367l167 166h-171q-29 -35 -29 -81q0 -49 33 -85zM669 325q48 0 85 32h-170q37 -32 85 -32z
M754 547q-38 33 -85 33q-49 0 -85 -33h170zM589 247h12v-77h-12v77zM767 371q29 35 29 81q0 48 -32 85l-166 -166h169zM625.5 237.5q11.5 11.5 28.5 11.5t28.5 -11.5t11.5 -28.5t-11.5 -28.5t-28.5 -11.5t-28.5 11.5t-11.5 28.5t11.5 28.5zM634 188q8 -8 20 -8q11 0 19 8
t8 21q0 12 -8 20t-19 8q-12 0 -20 -8t-8 -20q0 -13 8 -21zM630 149h36l33 -58v58h35v-109h-36l-34 53l1 -53h-35v109zM706 248h6l49 -55v54h12v-79h-6l-49 54v-52h-12v78zM740 149h86v-31h-25v-78h-35v78h-26v31zM807 213h458l-13 11l8 7l25 -24l-25 -24l-8 7l13 11h-458v12
zM839.5 321q18.5 -18 46.5 -18t47 18t19 46q0 27 -19 45t-47 18t-46.5 -18t-18.5 -45q0 -28 18.5 -46zM841 143q12 9 33 9q14 0 32 -8v-34q-6 5 -15.5 8t-16.5 3q-11 0 -11 -4q0 -3 2.5 -4.5t5.5 -2t6 -1.5q36 -8 36 -35q0 -17 -12.5 -27t-31.5 -10q-22 0 -38 10v37
q25 -16 38 -16q9 0 9 6q0 4 -7 6t-10 3q-17 6 -24.5 13.5t-7.5 21.5q0 16 12 25zM867 387q8 8 19 8q12 0 19.5 -8t7.5 -20q0 -13 -7.5 -21t-19.5 -8q-11 0 -19 8t-8 21q0 12 8 20zM923 65.5q5 4.5 13 4.5q7 0 12 -4.5t5 -11.5t-5 -12t-12 -5q-8 0 -13 5t-5 12t5 11.5z
M976 135.5q17 16.5 42 16.5q13 0 23 -6v-33q-12 7 -22 7t-17.5 -7t-7.5 -18t7 -18.5t18 -7.5q15 0 25 10l-1 -35q-14 -7 -26 -7q-24 0 -41 16.5t-17 41.5q0 24 17 40.5zM999 306l-1 59l38 -59h40v121h-39v-64l-37 64h-40v-121h39zM1064.5 135.5q17.5 16.5 42.5 16.5
t42 -16.5t17 -40.5q0 -25 -17 -41.5t-42 -16.5q-26 0 -43 16.5t-17 41.5q0 24 17.5 40.5zM1089 76.5q7 -7.5 18 -7.5q10 0 17 7.5t7 18.5q0 10 -7 17.5t-17 7.5t-17.5 -7t-7.5 -18t7 -18.5zM1170 306v33h-43v88h-39v-121h82zM1192 354v-48h39v48l41 73h-45l-16 -36l-15 36
h-46zM1173 149h35l26 -50l26 50h35v-109h-34v43l-14 -27h-25l-14 27v-43h-35v109z" />
    <glyph glyph-name="one" unicode="1" horiz-adv-x="1326" 
d="M42 462h486q4 56 44.5 94t96.5 38t96.5 -38t44.5 -94h486v-193h-1254v193zM78 118h-36v31h93l-41 -78h38v-31h-95zM41 247h50v-11h-38v-26h33v-11h-33v-29h-12v77zM94 392v-86h39v86h28v35h-96v-35h29zM101 247h12v-47q0 -9 5.5 -14.5t13.5 -5.5t14 6t6 14v47h12v-47
q0 -14 -9 -22.5t-23 -8.5q-13 0 -22 9t-9 22v47zM142 149h79v-30h-44v-9h38v-30h-38v-10h45v-30h-80v109zM207 306v35h8l15 -35h41l-21 46q14 12 14 32q0 18 -13.5 30.5t-32.5 12.5h-50v-121h39zM179 247h12v-66h35v-11h-47v77zM207 394h10q3 0 5.5 -3t2.5 -7t-2.5 -7.5
t-5.5 -3.5h-10v21zM226 149h87v-31h-26v-78h-35v78h-26v31zM237 247h12v-66h36v-11h-48v77zM315 306v121h-38v-121h38zM338 149h40l37 -109h-38l-4 17h-31l-5 -17h-36zM331 247l22 -57l22 57h14l-32 -77h-8l-32 77h14zM363 306l5 19h34l5 -19h42l-41 121h-45l-41 -121h41z
M365 86l-7 26h-1l-7 -26h15zM384 386h1l8 -29h-17zM399 247h50v-11h-38v-22h33v-10h-33v-23h38v-11h-50v77zM421 149h79v-30h-44v-16h37v-29h-37v-34h-35v109zM538 306v33h-43v88h-39v-121h82zM462 247h29q11 0 18 -7t7 -18q0 -14 -12 -21l15 -31h-14l-13 28h-18v-28h-12v77
zM491 208q5 0 9 4t4 10t-4 10t-9 4h-17v-28h17zM521 135.5q17 16.5 42 16.5t42 -16.5t17 -40.5q0 -25 -17 -41.5t-42 -16.5t-42 16.5t-17 41.5q0 24 17 40.5zM525 189q13 -9 26 -9q14 0 14 12q0 7 -17 12q-12 5 -17 9.5t-5 13.5q0 10 7 16t19 6q10 0 20 -5v-13q-9 7 -20 7
q-6 0 -10 -3t-4 -8t3.5 -7.5t12.5 -5.5q23 -9 23 -22q0 -11 -7.5 -17t-18.5 -6q-14 0 -26 7v13zM546 76.5q7 -7.5 17 -7.5t17 7.5t7 18.5t-7 18t-17 7t-17 -7t-7 -18t7 -18.5zM574 367l167 166h-171q-29 -35 -29 -81q0 -49 33 -85zM669 325q48 0 85 32h-170q37 -32 85 -32z
M754 547q-38 33 -85 33q-49 0 -85 -33h170zM589 247h12v-77h-12v77zM767 371q29 35 29 81q0 48 -32 85l-166 -166h169zM625.5 237.5q11.5 11.5 28.5 11.5t28.5 -11.5t11.5 -28.5t-11.5 -28.5t-28.5 -11.5t-28.5 11.5t-11.5 28.5t11.5 28.5zM634 188q8 -8 20 -8q11 0 19 8
t8 21q0 12 -8 20t-19 8q-12 0 -20 -8t-8 -20q0 -13 8 -21zM630 149h36l33 -58v58h35v-109h-36l-34 53l1 -53h-35v109zM706 248h6l49 -55v54h12v-79h-6l-49 54v-52h-12v78zM740 149h86v-31h-25v-78h-35v78h-26v31zM807 213h458l-13 11l8 7l25 -24l-25 -24l-8 7l13 11h-458v12
zM839.5 321q18.5 -18 46.5 -18t47 18t19 46q0 27 -19 45t-47 18t-46.5 -18t-18.5 -45q0 -28 18.5 -46zM841 143q12 9 33 9q14 0 32 -8v-34q-6 5 -15.5 8t-16.5 3q-11 0 -11 -4q0 -3 2.5 -4.5t5.5 -2t6 -1.5q36 -8 36 -35q0 -17 -12.5 -27t-31.5 -10q-22 0 -38 10v37
q25 -16 38 -16q9 0 9 6q0 4 -7 6t-10 3q-17 6 -24.5 13.5t-7.5 21.5q0 16 12 25zM867 387q8 8 19 8q12 0 19.5 -8t7.5 -20q0 -13 -7.5 -21t-19.5 -8q-11 0 -19 8t-8 21q0 12 8 20zM923 65.5q5 4.5 13 4.5q7 0 12 -4.5t5 -11.5t-5 -12t-12 -5q-8 0 -13 5t-5 12t5 11.5z
M976 135.5q17 16.5 42 16.5q13 0 23 -6v-33q-12 7 -22 7t-17.5 -7t-7.5 -18t7 -18.5t18 -7.5q15 0 25 10l-1 -35q-14 -7 -26 -7q-24 0 -41 16.5t-17 41.5q0 24 17 40.5zM999 306l-1 59l38 -59h40v121h-39v-64l-37 64h-40v-121h39zM1064.5 135.5q17.5 16.5 42.5 16.5
t42 -16.5t17 -40.5q0 -25 -17 -41.5t-42 -16.5q-26 0 -43 16.5t-17 41.5q0 24 17.5 40.5zM1089 76.5q7 -7.5 18 -7.5q10 0 17 7.5t7 18.5q0 10 -7 17.5t-17 7.5t-17.5 -7t-7.5 -18t7 -18.5zM1170 306v33h-43v88h-39v-121h82zM1192 354v-48h39v48l41 73h-45l-16 -36l-15 36
h-46zM1173 149h35l26 -50l26 50h35v-109h-34v43l-14 -27h-25l-14 27v-43h-35v109z" />
    <glyph glyph-name="two" unicode="2" horiz-adv-x="1326" 
d="M42 462h486q4 56 44.5 94t96.5 38t96.5 -38t44.5 -94h486v-193h-1254v193zM78 118h-36v31h93l-41 -78h38v-31h-95zM41 247h50v-11h-38v-26h33v-11h-33v-29h-12v77zM94 392v-86h39v86h28v35h-96v-35h29zM101 247h12v-47q0 -9 5.5 -14.5t13.5 -5.5t14 6t6 14v47h12v-47
q0 -14 -9 -22.5t-23 -8.5q-13 0 -22 9t-9 22v47zM142 149h79v-30h-44v-9h38v-30h-38v-10h45v-30h-80v109zM207 306v35h8l15 -35h41l-21 46q14 12 14 32q0 18 -13.5 30.5t-32.5 12.5h-50v-121h39zM179 247h12v-66h35v-11h-47v77zM207 394h10q3 0 5.5 -3t2.5 -7t-2.5 -7.5
t-5.5 -3.5h-10v21zM226 149h87v-31h-26v-78h-35v78h-26v31zM237 247h12v-66h36v-11h-48v77zM315 306v121h-38v-121h38zM338 149h40l37 -109h-38l-4 17h-31l-5 -17h-36zM331 247l22 -57l22 57h14l-32 -77h-8l-32 77h14zM363 306l5 19h34l5 -19h42l-41 121h-45l-41 -121h41z
M365 86l-7 26h-1l-7 -26h15zM384 386h1l8 -29h-17zM399 247h50v-11h-38v-22h33v-10h-33v-23h38v-11h-50v77zM421 149h79v-30h-44v-16h37v-29h-37v-34h-35v109zM538 306v33h-43v88h-39v-121h82zM462 247h29q11 0 18 -7t7 -18q0 -14 -12 -21l15 -31h-14l-13 28h-18v-28h-12v77
zM491 208q5 0 9 4t4 10t-4 10t-9 4h-17v-28h17zM521 135.5q17 16.5 42 16.5t42 -16.5t17 -40.5q0 -25 -17 -41.5t-42 -16.5t-42 16.5t-17 41.5q0 24 17 40.5zM525 189q13 -9 26 -9q14 0 14 12q0 7 -17 12q-12 5 -17 9.5t-5 13.5q0 10 7 16t19 6q10 0 20 -5v-13q-9 7 -20 7
q-6 0 -10 -3t-4 -8t3.5 -7.5t12.5 -5.5q23 -9 23 -22q0 -11 -7.5 -17t-18.5 -6q-14 0 -26 7v13zM546 76.5q7 -7.5 17 -7.5t17 7.5t7 18.5t-7 18t-17 7t-17 -7t-7 -18t7 -18.5zM574 367l167 166h-171q-29 -35 -29 -81q0 -49 33 -85zM669 325q48 0 85 32h-170q37 -32 85 -32z
M754 547q-38 33 -85 33q-49 0 -85 -33h170zM589 247h12v-77h-12v77zM767 371q29 35 29 81q0 48 -32 85l-166 -166h169zM625.5 237.5q11.5 11.5 28.5 11.5t28.5 -11.5t11.5 -28.5t-11.5 -28.5t-28.5 -11.5t-28.5 11.5t-11.5 28.5t11.5 28.5zM634 188q8 -8 20 -8q11 0 19 8
t8 21q0 12 -8 20t-19 8q-12 0 -20 -8t-8 -20q0 -13 8 -21zM630 149h36l33 -58v58h35v-109h-36l-34 53l1 -53h-35v109zM706 248h6l49 -55v54h12v-79h-6l-49 54v-52h-12v78zM740 149h86v-31h-25v-78h-35v78h-26v31zM807 213h458l-13 11l8 7l25 -24l-25 -24l-8 7l13 11h-458v12
zM839.5 321q18.5 -18 46.5 -18t47 18t19 46q0 27 -19 45t-47 18t-46.5 -18t-18.5 -45q0 -28 18.5 -46zM841 143q12 9 33 9q14 0 32 -8v-34q-6 5 -15.5 8t-16.5 3q-11 0 -11 -4q0 -3 2.5 -4.5t5.5 -2t6 -1.5q36 -8 36 -35q0 -17 -12.5 -27t-31.5 -10q-22 0 -38 10v37
q25 -16 38 -16q9 0 9 6q0 4 -7 6t-10 3q-17 6 -24.5 13.5t-7.5 21.5q0 16 12 25zM867 387q8 8 19 8q12 0 19.5 -8t7.5 -20q0 -13 -7.5 -21t-19.5 -8q-11 0 -19 8t-8 21q0 12 8 20zM923 65.5q5 4.5 13 4.5q7 0 12 -4.5t5 -11.5t-5 -12t-12 -5q-8 0 -13 5t-5 12t5 11.5z
M976 135.5q17 16.5 42 16.5q13 0 23 -6v-33q-12 7 -22 7t-17.5 -7t-7.5 -18t7 -18.5t18 -7.5q15 0 25 10l-1 -35q-14 -7 -26 -7q-24 0 -41 16.5t-17 41.5q0 24 17 40.5zM999 306l-1 59l38 -59h40v121h-39v-64l-37 64h-40v-121h39zM1064.5 135.5q17.5 16.5 42.5 16.5
t42 -16.5t17 -40.5q0 -25 -17 -41.5t-42 -16.5q-26 0 -43 16.5t-17 41.5q0 24 17.5 40.5zM1089 76.5q7 -7.5 18 -7.5q10 0 17 7.5t7 18.5q0 10 -7 17.5t-17 7.5t-17.5 -7t-7.5 -18t7 -18.5zM1170 306v33h-43v88h-39v-121h82zM1192 354v-48h39v48l41 73h-45l-16 -36l-15 36
h-46zM1173 149h35l26 -50l26 50h35v-109h-34v43l-14 -27h-25l-14 27v-43h-35v109z" />
    <glyph glyph-name="three" unicode="3" horiz-adv-x="1326" 
d="M42 462h486q4 56 44.5 94t96.5 38t96.5 -38t44.5 -94h486v-193h-1254v193zM78 118h-36v31h93l-41 -78h38v-31h-95zM41 247h50v-11h-38v-26h33v-11h-33v-29h-12v77zM94 392v-86h39v86h28v35h-96v-35h29zM101 247h12v-47q0 -9 5.5 -14.5t13.5 -5.5t14 6t6 14v47h12v-47
q0 -14 -9 -22.5t-23 -8.5q-13 0 -22 9t-9 22v47zM142 149h79v-30h-44v-9h38v-30h-38v-10h45v-30h-80v109zM207 306v35h8l15 -35h41l-21 46q14 12 14 32q0 18 -13.5 30.5t-32.5 12.5h-50v-121h39zM179 247h12v-66h35v-11h-47v77zM207 394h10q3 0 5.5 -3t2.5 -7t-2.5 -7.5
t-5.5 -3.5h-10v21zM226 149h87v-31h-26v-78h-35v78h-26v31zM237 247h12v-66h36v-11h-48v77zM315 306v121h-38v-121h38zM338 149h40l37 -109h-38l-4 17h-31l-5 -17h-36zM331 247l22 -57l22 57h14l-32 -77h-8l-32 77h14zM363 306l5 19h34l5 -19h42l-41 121h-45l-41 -121h41z
M365 86l-7 26h-1l-7 -26h15zM384 386h1l8 -29h-17zM399 247h50v-11h-38v-22h33v-10h-33v-23h38v-11h-50v77zM421 149h79v-30h-44v-16h37v-29h-37v-34h-35v109zM538 306v33h-43v88h-39v-121h82zM462 247h29q11 0 18 -7t7 -18q0 -14 -12 -21l15 -31h-14l-13 28h-18v-28h-12v77
zM491 208q5 0 9 4t4 10t-4 10t-9 4h-17v-28h17zM521 135.5q17 16.5 42 16.5t42 -16.5t17 -40.5q0 -25 -17 -41.5t-42 -16.5t-42 16.5t-17 41.5q0 24 17 40.5zM525 189q13 -9 26 -9q14 0 14 12q0 7 -17 12q-12 5 -17 9.5t-5 13.5q0 10 7 16t19 6q10 0 20 -5v-13q-9 7 -20 7
q-6 0 -10 -3t-4 -8t3.5 -7.5t12.5 -5.5q23 -9 23 -22q0 -11 -7.5 -17t-18.5 -6q-14 0 -26 7v13zM546 76.5q7 -7.5 17 -7.5t17 7.5t7 18.5t-7 18t-17 7t-17 -7t-7 -18t7 -18.5zM574 367l167 166h-171q-29 -35 -29 -81q0 -49 33 -85zM669 325q48 0 85 32h-170q37 -32 85 -32z
M754 547q-38 33 -85 33q-49 0 -85 -33h170zM589 247h12v-77h-12v77zM767 371q29 35 29 81q0 48 -32 85l-166 -166h169zM625.5 237.5q11.5 11.5 28.5 11.5t28.5 -11.5t11.5 -28.5t-11.5 -28.5t-28.5 -11.5t-28.5 11.5t-11.5 28.5t11.5 28.5zM634 188q8 -8 20 -8q11 0 19 8
t8 21q0 12 -8 20t-19 8q-12 0 -20 -8t-8 -20q0 -13 8 -21zM630 149h36l33 -58v58h35v-109h-36l-34 53l1 -53h-35v109zM706 248h6l49 -55v54h12v-79h-6l-49 54v-52h-12v78zM740 149h86v-31h-25v-78h-35v78h-26v31zM807 213h458l-13 11l8 7l25 -24l-25 -24l-8 7l13 11h-458v12
zM839.5 321q18.5 -18 46.5 -18t47 18t19 46q0 27 -19 45t-47 18t-46.5 -18t-18.5 -45q0 -28 18.5 -46zM841 143q12 9 33 9q14 0 32 -8v-34q-6 5 -15.5 8t-16.5 3q-11 0 -11 -4q0 -3 2.5 -4.5t5.5 -2t6 -1.5q36 -8 36 -35q0 -17 -12.5 -27t-31.5 -10q-22 0 -38 10v37
q25 -16 38 -16q9 0 9 6q0 4 -7 6t-10 3q-17 6 -24.5 13.5t-7.5 21.5q0 16 12 25zM867 387q8 8 19 8q12 0 19.5 -8t7.5 -20q0 -13 -7.5 -21t-19.5 -8q-11 0 -19 8t-8 21q0 12 8 20zM923 65.5q5 4.5 13 4.5q7 0 12 -4.5t5 -11.5t-5 -12t-12 -5q-8 0 -13 5t-5 12t5 11.5z
M976 135.5q17 16.5 42 16.5q13 0 23 -6v-33q-12 7 -22 7t-17.5 -7t-7.5 -18t7 -18.5t18 -7.5q15 0 25 10l-1 -35q-14 -7 -26 -7q-24 0 -41 16.5t-17 41.5q0 24 17 40.5zM999 306l-1 59l38 -59h40v121h-39v-64l-37 64h-40v-121h39zM1064.5 135.5q17.5 16.5 42.5 16.5
t42 -16.5t17 -40.5q0 -25 -17 -41.5t-42 -16.5q-26 0 -43 16.5t-17 41.5q0 24 17.5 40.5zM1089 76.5q7 -7.5 18 -7.5q10 0 17 7.5t7 18.5q0 10 -7 17.5t-17 7.5t-17.5 -7t-7.5 -18t7 -18.5zM1170 306v33h-43v88h-39v-121h82zM1192 354v-48h39v48l41 73h-45l-16 -36l-15 36
h-46zM1173 149h35l26 -50l26 50h35v-109h-34v43l-14 -27h-25l-14 27v-43h-35v109z" />
    <glyph glyph-name="four" unicode="4" horiz-adv-x="1326" 
d="M42 462h486q4 56 44.5 94t96.5 38t96.5 -38t44.5 -94h486v-193h-1254v193zM78 118h-36v31h93l-41 -78h38v-31h-95zM41 247h50v-11h-38v-26h33v-11h-33v-29h-12v77zM94 392v-86h39v86h28v35h-96v-35h29zM101 247h12v-47q0 -9 5.5 -14.5t13.5 -5.5t14 6t6 14v47h12v-47
q0 -14 -9 -22.5t-23 -8.5q-13 0 -22 9t-9 22v47zM142 149h79v-30h-44v-9h38v-30h-38v-10h45v-30h-80v109zM207 306v35h8l15 -35h41l-21 46q14 12 14 32q0 18 -13.5 30.5t-32.5 12.5h-50v-121h39zM179 247h12v-66h35v-11h-47v77zM207 394h10q3 0 5.5 -3t2.5 -7t-2.5 -7.5
t-5.5 -3.5h-10v21zM226 149h87v-31h-26v-78h-35v78h-26v31zM237 247h12v-66h36v-11h-48v77zM315 306v121h-38v-121h38zM338 149h40l37 -109h-38l-4 17h-31l-5 -17h-36zM331 247l22 -57l22 57h14l-32 -77h-8l-32 77h14zM363 306l5 19h34l5 -19h42l-41 121h-45l-41 -121h41z
M365 86l-7 26h-1l-7 -26h15zM384 386h1l8 -29h-17zM399 247h50v-11h-38v-22h33v-10h-33v-23h38v-11h-50v77zM421 149h79v-30h-44v-16h37v-29h-37v-34h-35v109zM538 306v33h-43v88h-39v-121h82zM462 247h29q11 0 18 -7t7 -18q0 -14 -12 -21l15 -31h-14l-13 28h-18v-28h-12v77
zM491 208q5 0 9 4t4 10t-4 10t-9 4h-17v-28h17zM521 135.5q17 16.5 42 16.5t42 -16.5t17 -40.5q0 -25 -17 -41.5t-42 -16.5t-42 16.5t-17 41.5q0 24 17 40.5zM525 189q13 -9 26 -9q14 0 14 12q0 7 -17 12q-12 5 -17 9.5t-5 13.5q0 10 7 16t19 6q10 0 20 -5v-13q-9 7 -20 7
q-6 0 -10 -3t-4 -8t3.5 -7.5t12.5 -5.5q23 -9 23 -22q0 -11 -7.5 -17t-18.5 -6q-14 0 -26 7v13zM546 76.5q7 -7.5 17 -7.5t17 7.5t7 18.5t-7 18t-17 7t-17 -7t-7 -18t7 -18.5zM574 367l167 166h-171q-29 -35 -29 -81q0 -49 33 -85zM669 325q48 0 85 32h-170q37 -32 85 -32z
M754 547q-38 33 -85 33q-49 0 -85 -33h170zM589 247h12v-77h-12v77zM767 371q29 35 29 81q0 48 -32 85l-166 -166h169zM625.5 237.5q11.5 11.5 28.5 11.5t28.5 -11.5t11.5 -28.5t-11.5 -28.5t-28.5 -11.5t-28.5 11.5t-11.5 28.5t11.5 28.5zM634 188q8 -8 20 -8q11 0 19 8
t8 21q0 12 -8 20t-19 8q-12 0 -20 -8t-8 -20q0 -13 8 -21zM630 149h36l33 -58v58h35v-109h-36l-34 53l1 -53h-35v109zM706 248h6l49 -55v54h12v-79h-6l-49 54v-52h-12v78zM740 149h86v-31h-25v-78h-35v78h-26v31zM807 213h458l-13 11l8 7l25 -24l-25 -24l-8 7l13 11h-458v12
zM839.5 321q18.5 -18 46.5 -18t47 18t19 46q0 27 -19 45t-47 18t-46.5 -18t-18.5 -45q0 -28 18.5 -46zM841 143q12 9 33 9q14 0 32 -8v-34q-6 5 -15.5 8t-16.5 3q-11 0 -11 -4q0 -3 2.5 -4.5t5.5 -2t6 -1.5q36 -8 36 -35q0 -17 -12.5 -27t-31.5 -10q-22 0 -38 10v37
q25 -16 38 -16q9 0 9 6q0 4 -7 6t-10 3q-17 6 -24.5 13.5t-7.5 21.5q0 16 12 25zM867 387q8 8 19 8q12 0 19.5 -8t7.5 -20q0 -13 -7.5 -21t-19.5 -8q-11 0 -19 8t-8 21q0 12 8 20zM923 65.5q5 4.5 13 4.5q7 0 12 -4.5t5 -11.5t-5 -12t-12 -5q-8 0 -13 5t-5 12t5 11.5z
M976 135.5q17 16.5 42 16.5q13 0 23 -6v-33q-12 7 -22 7t-17.5 -7t-7.5 -18t7 -18.5t18 -7.5q15 0 25 10l-1 -35q-14 -7 -26 -7q-24 0 -41 16.5t-17 41.5q0 24 17 40.5zM999 306l-1 59l38 -59h40v121h-39v-64l-37 64h-40v-121h39zM1064.5 135.5q17.5 16.5 42.5 16.5
t42 -16.5t17 -40.5q0 -25 -17 -41.5t-42 -16.5q-26 0 -43 16.5t-17 41.5q0 24 17.5 40.5zM1089 76.5q7 -7.5 18 -7.5q10 0 17 7.5t7 18.5q0 10 -7 17.5t-17 7.5t-17.5 -7t-7.5 -18t7 -18.5zM1170 306v33h-43v88h-39v-121h82zM1192 354v-48h39v48l41 73h-45l-16 -36l-15 36
h-46zM1173 149h35l26 -50l26 50h35v-109h-34v43l-14 -27h-25l-14 27v-43h-35v109z" />
    <glyph glyph-name="five" unicode="5" horiz-adv-x="1326" 
d="M42 462h486q4 56 44.5 94t96.5 38t96.5 -38t44.5 -94h486v-193h-1254v193zM78 118h-36v31h93l-41 -78h38v-31h-95zM41 247h50v-11h-38v-26h33v-11h-33v-29h-12v77zM94 392v-86h39v86h28v35h-96v-35h29zM101 247h12v-47q0 -9 5.5 -14.5t13.5 -5.5t14 6t6 14v47h12v-47
q0 -14 -9 -22.5t-23 -8.5q-13 0 -22 9t-9 22v47zM142 149h79v-30h-44v-9h38v-30h-38v-10h45v-30h-80v109zM207 306v35h8l15 -35h41l-21 46q14 12 14 32q0 18 -13.5 30.5t-32.5 12.5h-50v-121h39zM179 247h12v-66h35v-11h-47v77zM207 394h10q3 0 5.5 -3t2.5 -7t-2.5 -7.5
t-5.5 -3.5h-10v21zM226 149h87v-31h-26v-78h-35v78h-26v31zM237 247h12v-66h36v-11h-48v77zM315 306v121h-38v-121h38zM338 149h40l37 -109h-38l-4 17h-31l-5 -17h-36zM331 247l22 -57l22 57h14l-32 -77h-8l-32 77h14zM363 306l5 19h34l5 -19h42l-41 121h-45l-41 -121h41z
M365 86l-7 26h-1l-7 -26h15zM384 386h1l8 -29h-17zM399 247h50v-11h-38v-22h33v-10h-33v-23h38v-11h-50v77zM421 149h79v-30h-44v-16h37v-29h-37v-34h-35v109zM538 306v33h-43v88h-39v-121h82zM462 247h29q11 0 18 -7t7 -18q0 -14 -12 -21l15 -31h-14l-13 28h-18v-28h-12v77
zM491 208q5 0 9 4t4 10t-4 10t-9 4h-17v-28h17zM521 135.5q17 16.5 42 16.5t42 -16.5t17 -40.5q0 -25 -17 -41.5t-42 -16.5t-42 16.5t-17 41.5q0 24 17 40.5zM525 189q13 -9 26 -9q14 0 14 12q0 7 -17 12q-12 5 -17 9.5t-5 13.5q0 10 7 16t19 6q10 0 20 -5v-13q-9 7 -20 7
q-6 0 -10 -3t-4 -8t3.5 -7.5t12.5 -5.5q23 -9 23 -22q0 -11 -7.5 -17t-18.5 -6q-14 0 -26 7v13zM546 76.5q7 -7.5 17 -7.5t17 7.5t7 18.5t-7 18t-17 7t-17 -7t-7 -18t7 -18.5zM574 367l167 166h-171q-29 -35 -29 -81q0 -49 33 -85zM669 325q48 0 85 32h-170q37 -32 85 -32z
M754 547q-38 33 -85 33q-49 0 -85 -33h170zM589 247h12v-77h-12v77zM767 371q29 35 29 81q0 48 -32 85l-166 -166h169zM625.5 237.5q11.5 11.5 28.5 11.5t28.5 -11.5t11.5 -28.5t-11.5 -28.5t-28.5 -11.5t-28.5 11.5t-11.5 28.5t11.5 28.5zM634 188q8 -8 20 -8q11 0 19 8
t8 21q0 12 -8 20t-19 8q-12 0 -20 -8t-8 -20q0 -13 8 -21zM630 149h36l33 -58v58h35v-109h-36l-34 53l1 -53h-35v109zM706 248h6l49 -55v54h12v-79h-6l-49 54v-52h-12v78zM740 149h86v-31h-25v-78h-35v78h-26v31zM807 213h458l-13 11l8 7l25 -24l-25 -24l-8 7l13 11h-458v12
zM839.5 321q18.5 -18 46.5 -18t47 18t19 46q0 27 -19 45t-47 18t-46.5 -18t-18.5 -45q0 -28 18.5 -46zM841 143q12 9 33 9q14 0 32 -8v-34q-6 5 -15.5 8t-16.5 3q-11 0 -11 -4q0 -3 2.5 -4.5t5.5 -2t6 -1.5q36 -8 36 -35q0 -17 -12.5 -27t-31.5 -10q-22 0 -38 10v37
q25 -16 38 -16q9 0 9 6q0 4 -7 6t-10 3q-17 6 -24.5 13.5t-7.5 21.5q0 16 12 25zM867 387q8 8 19 8q12 0 19.5 -8t7.5 -20q0 -13 -7.5 -21t-19.5 -8q-11 0 -19 8t-8 21q0 12 8 20zM923 65.5q5 4.5 13 4.5q7 0 12 -4.5t5 -11.5t-5 -12t-12 -5q-8 0 -13 5t-5 12t5 11.5z
M976 135.5q17 16.5 42 16.5q13 0 23 -6v-33q-12 7 -22 7t-17.5 -7t-7.5 -18t7 -18.5t18 -7.5q15 0 25 10l-1 -35q-14 -7 -26 -7q-24 0 -41 16.5t-17 41.5q0 24 17 40.5zM999 306l-1 59l38 -59h40v121h-39v-64l-37 64h-40v-121h39zM1064.5 135.5q17.5 16.5 42.5 16.5
t42 -16.5t17 -40.5q0 -25 -17 -41.5t-42 -16.5q-26 0 -43 16.5t-17 41.5q0 24 17.5 40.5zM1089 76.5q7 -7.5 18 -7.5q10 0 17 7.5t7 18.5q0 10 -7 17.5t-17 7.5t-17.5 -7t-7.5 -18t7 -18.5zM1170 306v33h-43v88h-39v-121h82zM1192 354v-48h39v48l41 73h-45l-16 -36l-15 36
h-46zM1173 149h35l26 -50l26 50h35v-109h-34v43l-14 -27h-25l-14 27v-43h-35v109z" />
    <glyph glyph-name="six" unicode="6" horiz-adv-x="1326" 
d="M42 462h486q4 56 44.5 94t96.5 38t96.5 -38t44.5 -94h486v-193h-1254v193zM78 118h-36v31h93l-41 -78h38v-31h-95zM41 247h50v-11h-38v-26h33v-11h-33v-29h-12v77zM94 392v-86h39v86h28v35h-96v-35h29zM101 247h12v-47q0 -9 5.5 -14.5t13.5 -5.5t14 6t6 14v47h12v-47
q0 -14 -9 -22.5t-23 -8.5q-13 0 -22 9t-9 22v47zM142 149h79v-30h-44v-9h38v-30h-38v-10h45v-30h-80v109zM207 306v35h8l15 -35h41l-21 46q14 12 14 32q0 18 -13.5 30.5t-32.5 12.5h-50v-121h39zM179 247h12v-66h35v-11h-47v77zM207 394h10q3 0 5.5 -3t2.5 -7t-2.5 -7.5
t-5.5 -3.5h-10v21zM226 149h87v-31h-26v-78h-35v78h-26v31zM237 247h12v-66h36v-11h-48v77zM315 306v121h-38v-121h38zM338 149h40l37 -109h-38l-4 17h-31l-5 -17h-36zM331 247l22 -57l22 57h14l-32 -77h-8l-32 77h14zM363 306l5 19h34l5 -19h42l-41 121h-45l-41 -121h41z
M365 86l-7 26h-1l-7 -26h15zM384 386h1l8 -29h-17zM399 247h50v-11h-38v-22h33v-10h-33v-23h38v-11h-50v77zM421 149h79v-30h-44v-16h37v-29h-37v-34h-35v109zM538 306v33h-43v88h-39v-121h82zM462 247h29q11 0 18 -7t7 -18q0 -14 -12 -21l15 -31h-14l-13 28h-18v-28h-12v77
zM491 208q5 0 9 4t4 10t-4 10t-9 4h-17v-28h17zM521 135.5q17 16.5 42 16.5t42 -16.5t17 -40.5q0 -25 -17 -41.5t-42 -16.5t-42 16.5t-17 41.5q0 24 17 40.5zM525 189q13 -9 26 -9q14 0 14 12q0 7 -17 12q-12 5 -17 9.5t-5 13.5q0 10 7 16t19 6q10 0 20 -5v-13q-9 7 -20 7
q-6 0 -10 -3t-4 -8t3.5 -7.5t12.5 -5.5q23 -9 23 -22q0 -11 -7.5 -17t-18.5 -6q-14 0 -26 7v13zM546 76.5q7 -7.5 17 -7.5t17 7.5t7 18.5t-7 18t-17 7t-17 -7t-7 -18t7 -18.5zM574 367l167 166h-171q-29 -35 -29 -81q0 -49 33 -85zM669 325q48 0 85 32h-170q37 -32 85 -32z
M754 547q-38 33 -85 33q-49 0 -85 -33h170zM589 247h12v-77h-12v77zM767 371q29 35 29 81q0 48 -32 85l-166 -166h169zM625.5 237.5q11.5 11.5 28.5 11.5t28.5 -11.5t11.5 -28.5t-11.5 -28.5t-28.5 -11.5t-28.5 11.5t-11.5 28.5t11.5 28.5zM634 188q8 -8 20 -8q11 0 19 8
t8 21q0 12 -8 20t-19 8q-12 0 -20 -8t-8 -20q0 -13 8 -21zM630 149h36l33 -58v58h35v-109h-36l-34 53l1 -53h-35v109zM706 248h6l49 -55v54h12v-79h-6l-49 54v-52h-12v78zM740 149h86v-31h-25v-78h-35v78h-26v31zM807 213h458l-13 11l8 7l25 -24l-25 -24l-8 7l13 11h-458v12
zM839.5 321q18.5 -18 46.5 -18t47 18t19 46q0 27 -19 45t-47 18t-46.5 -18t-18.5 -45q0 -28 18.5 -46zM841 143q12 9 33 9q14 0 32 -8v-34q-6 5 -15.5 8t-16.5 3q-11 0 -11 -4q0 -3 2.5 -4.5t5.5 -2t6 -1.5q36 -8 36 -35q0 -17 -12.5 -27t-31.5 -10q-22 0 -38 10v37
q25 -16 38 -16q9 0 9 6q0 4 -7 6t-10 3q-17 6 -24.5 13.5t-7.5 21.5q0 16 12 25zM867 387q8 8 19 8q12 0 19.5 -8t7.5 -20q0 -13 -7.5 -21t-19.5 -8q-11 0 -19 8t-8 21q0 12 8 20zM923 65.5q5 4.5 13 4.5q7 0 12 -4.5t5 -11.5t-5 -12t-12 -5q-8 0 -13 5t-5 12t5 11.5z
M976 135.5q17 16.5 42 16.5q13 0 23 -6v-33q-12 7 -22 7t-17.5 -7t-7.5 -18t7 -18.5t18 -7.5q15 0 25 10l-1 -35q-14 -7 -26 -7q-24 0 -41 16.5t-17 41.5q0 24 17 40.5zM999 306l-1 59l38 -59h40v121h-39v-64l-37 64h-40v-121h39zM1064.5 135.5q17.5 16.5 42.5 16.5
t42 -16.5t17 -40.5q0 -25 -17 -41.5t-42 -16.5q-26 0 -43 16.5t-17 41.5q0 24 17.5 40.5zM1089 76.5q7 -7.5 18 -7.5q10 0 17 7.5t7 18.5q0 10 -7 17.5t-17 7.5t-17.5 -7t-7.5 -18t7 -18.5zM1170 306v33h-43v88h-39v-121h82zM1192 354v-48h39v48l41 73h-45l-16 -36l-15 36
h-46zM1173 149h35l26 -50l26 50h35v-109h-34v43l-14 -27h-25l-14 27v-43h-35v109z" />
    <glyph glyph-name="seven" unicode="7" horiz-adv-x="1326" 
d="M42 462h486q4 56 44.5 94t96.5 38t96.5 -38t44.5 -94h486v-193h-1254v193zM78 118h-36v31h93l-41 -78h38v-31h-95zM41 247h50v-11h-38v-26h33v-11h-33v-29h-12v77zM94 392v-86h39v86h28v35h-96v-35h29zM101 247h12v-47q0 -9 5.5 -14.5t13.5 -5.5t14 6t6 14v47h12v-47
q0 -14 -9 -22.5t-23 -8.5q-13 0 -22 9t-9 22v47zM142 149h79v-30h-44v-9h38v-30h-38v-10h45v-30h-80v109zM207 306v35h8l15 -35h41l-21 46q14 12 14 32q0 18 -13.5 30.5t-32.5 12.5h-50v-121h39zM179 247h12v-66h35v-11h-47v77zM207 394h10q3 0 5.5 -3t2.5 -7t-2.5 -7.5
t-5.5 -3.5h-10v21zM226 149h87v-31h-26v-78h-35v78h-26v31zM237 247h12v-66h36v-11h-48v77zM315 306v121h-38v-121h38zM338 149h40l37 -109h-38l-4 17h-31l-5 -17h-36zM331 247l22 -57l22 57h14l-32 -77h-8l-32 77h14zM363 306l5 19h34l5 -19h42l-41 121h-45l-41 -121h41z
M365 86l-7 26h-1l-7 -26h15zM384 386h1l8 -29h-17zM399 247h50v-11h-38v-22h33v-10h-33v-23h38v-11h-50v77zM421 149h79v-30h-44v-16h37v-29h-37v-34h-35v109zM538 306v33h-43v88h-39v-121h82zM462 247h29q11 0 18 -7t7 -18q0 -14 -12 -21l15 -31h-14l-13 28h-18v-28h-12v77
zM491 208q5 0 9 4t4 10t-4 10t-9 4h-17v-28h17zM521 135.5q17 16.5 42 16.5t42 -16.5t17 -40.5q0 -25 -17 -41.5t-42 -16.5t-42 16.5t-17 41.5q0 24 17 40.5zM525 189q13 -9 26 -9q14 0 14 12q0 7 -17 12q-12 5 -17 9.5t-5 13.5q0 10 7 16t19 6q10 0 20 -5v-13q-9 7 -20 7
q-6 0 -10 -3t-4 -8t3.5 -7.5t12.5 -5.5q23 -9 23 -22q0 -11 -7.5 -17t-18.5 -6q-14 0 -26 7v13zM546 76.5q7 -7.5 17 -7.5t17 7.5t7 18.5t-7 18t-17 7t-17 -7t-7 -18t7 -18.5zM574 367l167 166h-171q-29 -35 -29 -81q0 -49 33 -85zM669 325q48 0 85 32h-170q37 -32 85 -32z
M754 547q-38 33 -85 33q-49 0 -85 -33h170zM589 247h12v-77h-12v77zM767 371q29 35 29 81q0 48 -32 85l-166 -166h169zM625.5 237.5q11.5 11.5 28.5 11.5t28.5 -11.5t11.5 -28.5t-11.5 -28.5t-28.5 -11.5t-28.5 11.5t-11.5 28.5t11.5 28.5zM634 188q8 -8 20 -8q11 0 19 8
t8 21q0 12 -8 20t-19 8q-12 0 -20 -8t-8 -20q0 -13 8 -21zM630 149h36l33 -58v58h35v-109h-36l-34 53l1 -53h-35v109zM706 248h6l49 -55v54h12v-79h-6l-49 54v-52h-12v78zM740 149h86v-31h-25v-78h-35v78h-26v31zM807 213h458l-13 11l8 7l25 -24l-25 -24l-8 7l13 11h-458v12
zM839.5 321q18.5 -18 46.5 -18t47 18t19 46q0 27 -19 45t-47 18t-46.5 -18t-18.5 -45q0 -28 18.5 -46zM841 143q12 9 33 9q14 0 32 -8v-34q-6 5 -15.5 8t-16.5 3q-11 0 -11 -4q0 -3 2.5 -4.5t5.5 -2t6 -1.5q36 -8 36 -35q0 -17 -12.5 -27t-31.5 -10q-22 0 -38 10v37
q25 -16 38 -16q9 0 9 6q0 4 -7 6t-10 3q-17 6 -24.5 13.5t-7.5 21.5q0 16 12 25zM867 387q8 8 19 8q12 0 19.5 -8t7.5 -20q0 -13 -7.5 -21t-19.5 -8q-11 0 -19 8t-8 21q0 12 8 20zM923 65.5q5 4.5 13 4.5q7 0 12 -4.5t5 -11.5t-5 -12t-12 -5q-8 0 -13 5t-5 12t5 11.5z
M976 135.5q17 16.5 42 16.5q13 0 23 -6v-33q-12 7 -22 7t-17.5 -7t-7.5 -18t7 -18.5t18 -7.5q15 0 25 10l-1 -35q-14 -7 -26 -7q-24 0 -41 16.5t-17 41.5q0 24 17 40.5zM999 306l-1 59l38 -59h40v121h-39v-64l-37 64h-40v-121h39zM1064.5 135.5q17.5 16.5 42.5 16.5
t42 -16.5t17 -40.5q0 -25 -17 -41.5t-42 -16.5q-26 0 -43 16.5t-17 41.5q0 24 17.5 40.5zM1089 76.5q7 -7.5 18 -7.5q10 0 17 7.5t7 18.5q0 10 -7 17.5t-17 7.5t-17.5 -7t-7.5 -18t7 -18.5zM1170 306v33h-43v88h-39v-121h82zM1192 354v-48h39v48l41 73h-45l-16 -36l-15 36
h-46zM1173 149h35l26 -50l26 50h35v-109h-34v43l-14 -27h-25l-14 27v-43h-35v109z" />
    <glyph glyph-name="eight" unicode="8" horiz-adv-x="1326" 
d="M42 462h486q4 56 44.5 94t96.5 38t96.5 -38t44.5 -94h486v-193h-1254v193zM78 118h-36v31h93l-41 -78h38v-31h-95zM41 247h50v-11h-38v-26h33v-11h-33v-29h-12v77zM94 392v-86h39v86h28v35h-96v-35h29zM101 247h12v-47q0 -9 5.5 -14.5t13.5 -5.5t14 6t6 14v47h12v-47
q0 -14 -9 -22.5t-23 -8.5q-13 0 -22 9t-9 22v47zM142 149h79v-30h-44v-9h38v-30h-38v-10h45v-30h-80v109zM207 306v35h8l15 -35h41l-21 46q14 12 14 32q0 18 -13.5 30.5t-32.5 12.5h-50v-121h39zM179 247h12v-66h35v-11h-47v77zM207 394h10q3 0 5.5 -3t2.5 -7t-2.5 -7.5
t-5.5 -3.5h-10v21zM226 149h87v-31h-26v-78h-35v78h-26v31zM237 247h12v-66h36v-11h-48v77zM315 306v121h-38v-121h38zM338 149h40l37 -109h-38l-4 17h-31l-5 -17h-36zM331 247l22 -57l22 57h14l-32 -77h-8l-32 77h14zM363 306l5 19h34l5 -19h42l-41 121h-45l-41 -121h41z
M365 86l-7 26h-1l-7 -26h15zM384 386h1l8 -29h-17zM399 247h50v-11h-38v-22h33v-10h-33v-23h38v-11h-50v77zM421 149h79v-30h-44v-16h37v-29h-37v-34h-35v109zM538 306v33h-43v88h-39v-121h82zM462 247h29q11 0 18 -7t7 -18q0 -14 -12 -21l15 -31h-14l-13 28h-18v-28h-12v77
zM491 208q5 0 9 4t4 10t-4 10t-9 4h-17v-28h17zM521 135.5q17 16.5 42 16.5t42 -16.5t17 -40.5q0 -25 -17 -41.5t-42 -16.5t-42 16.5t-17 41.5q0 24 17 40.5zM525 189q13 -9 26 -9q14 0 14 12q0 7 -17 12q-12 5 -17 9.5t-5 13.5q0 10 7 16t19 6q10 0 20 -5v-13q-9 7 -20 7
q-6 0 -10 -3t-4 -8t3.5 -7.5t12.5 -5.5q23 -9 23 -22q0 -11 -7.5 -17t-18.5 -6q-14 0 -26 7v13zM546 76.5q7 -7.5 17 -7.5t17 7.5t7 18.5t-7 18t-17 7t-17 -7t-7 -18t7 -18.5zM574 367l167 166h-171q-29 -35 -29 -81q0 -49 33 -85zM669 325q48 0 85 32h-170q37 -32 85 -32z
M754 547q-38 33 -85 33q-49 0 -85 -33h170zM589 247h12v-77h-12v77zM767 371q29 35 29 81q0 48 -32 85l-166 -166h169zM625.5 237.5q11.5 11.5 28.5 11.5t28.5 -11.5t11.5 -28.5t-11.5 -28.5t-28.5 -11.5t-28.5 11.5t-11.5 28.5t11.5 28.5zM634 188q8 -8 20 -8q11 0 19 8
t8 21q0 12 -8 20t-19 8q-12 0 -20 -8t-8 -20q0 -13 8 -21zM630 149h36l33 -58v58h35v-109h-36l-34 53l1 -53h-35v109zM706 248h6l49 -55v54h12v-79h-6l-49 54v-52h-12v78zM740 149h86v-31h-25v-78h-35v78h-26v31zM807 213h458l-13 11l8 7l25 -24l-25 -24l-8 7l13 11h-458v12
zM839.5 321q18.5 -18 46.5 -18t47 18t19 46q0 27 -19 45t-47 18t-46.5 -18t-18.5 -45q0 -28 18.5 -46zM841 143q12 9 33 9q14 0 32 -8v-34q-6 5 -15.5 8t-16.5 3q-11 0 -11 -4q0 -3 2.5 -4.5t5.5 -2t6 -1.5q36 -8 36 -35q0 -17 -12.5 -27t-31.5 -10q-22 0 -38 10v37
q25 -16 38 -16q9 0 9 6q0 4 -7 6t-10 3q-17 6 -24.5 13.5t-7.5 21.5q0 16 12 25zM867 387q8 8 19 8q12 0 19.5 -8t7.5 -20q0 -13 -7.5 -21t-19.5 -8q-11 0 -19 8t-8 21q0 12 8 20zM923 65.5q5 4.5 13 4.5q7 0 12 -4.5t5 -11.5t-5 -12t-12 -5q-8 0 -13 5t-5 12t5 11.5z
M976 135.5q17 16.5 42 16.5q13 0 23 -6v-33q-12 7 -22 7t-17.5 -7t-7.5 -18t7 -18.5t18 -7.5q15 0 25 10l-1 -35q-14 -7 -26 -7q-24 0 -41 16.5t-17 41.5q0 24 17 40.5zM999 306l-1 59l38 -59h40v121h-39v-64l-37 64h-40v-121h39zM1064.5 135.5q17.5 16.5 42.5 16.5
t42 -16.5t17 -40.5q0 -25 -17 -41.5t-42 -16.5q-26 0 -43 16.5t-17 41.5q0 24 17.5 40.5zM1089 76.5q7 -7.5 18 -7.5q10 0 17 7.5t7 18.5q0 10 -7 17.5t-17 7.5t-17.5 -7t-7.5 -18t7 -18.5zM1170 306v33h-43v88h-39v-121h82zM1192 354v-48h39v48l41 73h-45l-16 -36l-15 36
h-46zM1173 149h35l26 -50l26 50h35v-109h-34v43l-14 -27h-25l-14 27v-43h-35v109z" />
    <glyph glyph-name="nine" unicode="9" horiz-adv-x="1326" 
d="M42 462h486q4 56 44.5 94t96.5 38t96.5 -38t44.5 -94h486v-193h-1254v193zM78 118h-36v31h93l-41 -78h38v-31h-95zM41 247h50v-11h-38v-26h33v-11h-33v-29h-12v77zM94 392v-86h39v86h28v35h-96v-35h29zM101 247h12v-47q0 -9 5.5 -14.5t13.5 -5.5t14 6t6 14v47h12v-47
q0 -14 -9 -22.5t-23 -8.5q-13 0 -22 9t-9 22v47zM142 149h79v-30h-44v-9h38v-30h-38v-10h45v-30h-80v109zM207 306v35h8l15 -35h41l-21 46q14 12 14 32q0 18 -13.5 30.5t-32.5 12.5h-50v-121h39zM179 247h12v-66h35v-11h-47v77zM207 394h10q3 0 5.5 -3t2.5 -7t-2.5 -7.5
t-5.5 -3.5h-10v21zM226 149h87v-31h-26v-78h-35v78h-26v31zM237 247h12v-66h36v-11h-48v77zM315 306v121h-38v-121h38zM338 149h40l37 -109h-38l-4 17h-31l-5 -17h-36zM331 247l22 -57l22 57h14l-32 -77h-8l-32 77h14zM363 306l5 19h34l5 -19h42l-41 121h-45l-41 -121h41z
M365 86l-7 26h-1l-7 -26h15zM384 386h1l8 -29h-17zM399 247h50v-11h-38v-22h33v-10h-33v-23h38v-11h-50v77zM421 149h79v-30h-44v-16h37v-29h-37v-34h-35v109zM538 306v33h-43v88h-39v-121h82zM462 247h29q11 0 18 -7t7 -18q0 -14 -12 -21l15 -31h-14l-13 28h-18v-28h-12v77
zM491 208q5 0 9 4t4 10t-4 10t-9 4h-17v-28h17zM521 135.5q17 16.5 42 16.5t42 -16.5t17 -40.5q0 -25 -17 -41.5t-42 -16.5t-42 16.5t-17 41.5q0 24 17 40.5zM525 189q13 -9 26 -9q14 0 14 12q0 7 -17 12q-12 5 -17 9.5t-5 13.5q0 10 7 16t19 6q10 0 20 -5v-13q-9 7 -20 7
q-6 0 -10 -3t-4 -8t3.5 -7.5t12.5 -5.5q23 -9 23 -22q0 -11 -7.5 -17t-18.5 -6q-14 0 -26 7v13zM546 76.5q7 -7.5 17 -7.5t17 7.5t7 18.5t-7 18t-17 7t-17 -7t-7 -18t7 -18.5zM574 367l167 166h-171q-29 -35 -29 -81q0 -49 33 -85zM669 325q48 0 85 32h-170q37 -32 85 -32z
M754 547q-38 33 -85 33q-49 0 -85 -33h170zM589 247h12v-77h-12v77zM767 371q29 35 29 81q0 48 -32 85l-166 -166h169zM625.5 237.5q11.5 11.5 28.5 11.5t28.5 -11.5t11.5 -28.5t-11.5 -28.5t-28.5 -11.5t-28.5 11.5t-11.5 28.5t11.5 28.5zM634 188q8 -8 20 -8q11 0 19 8
t8 21q0 12 -8 20t-19 8q-12 0 -20 -8t-8 -20q0 -13 8 -21zM630 149h36l33 -58v58h35v-109h-36l-34 53l1 -53h-35v109zM706 248h6l49 -55v54h12v-79h-6l-49 54v-52h-12v78zM740 149h86v-31h-25v-78h-35v78h-26v31zM807 213h458l-13 11l8 7l25 -24l-25 -24l-8 7l13 11h-458v12
zM839.5 321q18.5 -18 46.5 -18t47 18t19 46q0 27 -19 45t-47 18t-46.5 -18t-18.5 -45q0 -28 18.5 -46zM841 143q12 9 33 9q14 0 32 -8v-34q-6 5 -15.5 8t-16.5 3q-11 0 -11 -4q0 -3 2.5 -4.5t5.5 -2t6 -1.5q36 -8 36 -35q0 -17 -12.5 -27t-31.5 -10q-22 0 -38 10v37
q25 -16 38 -16q9 0 9 6q0 4 -7 6t-10 3q-17 6 -24.5 13.5t-7.5 21.5q0 16 12 25zM867 387q8 8 19 8q12 0 19.5 -8t7.5 -20q0 -13 -7.5 -21t-19.5 -8q-11 0 -19 8t-8 21q0 12 8 20zM923 65.5q5 4.5 13 4.5q7 0 12 -4.5t5 -11.5t-5 -12t-12 -5q-8 0 -13 5t-5 12t5 11.5z
M976 135.5q17 16.5 42 16.5q13 0 23 -6v-33q-12 7 -22 7t-17.5 -7t-7.5 -18t7 -18.5t18 -7.5q15 0 25 10l-1 -35q-14 -7 -26 -7q-24 0 -41 16.5t-17 41.5q0 24 17 40.5zM999 306l-1 59l38 -59h40v121h-39v-64l-37 64h-40v-121h39zM1064.5 135.5q17.5 16.5 42.5 16.5
t42 -16.5t17 -40.5q0 -25 -17 -41.5t-42 -16.5q-26 0 -43 16.5t-17 41.5q0 24 17.5 40.5zM1089 76.5q7 -7.5 18 -7.5q10 0 17 7.5t7 18.5q0 10 -7 17.5t-17 7.5t-17.5 -7t-7.5 -18t7 -18.5zM1170 306v33h-43v88h-39v-121h82zM1192 354v-48h39v48l41 73h-45l-16 -36l-15 36
h-46zM1173 149h35l26 -50l26 50h35v-109h-34v43l-14 -27h-25l-14 27v-43h-35v109z" />
    <glyph glyph-name="colon" unicode=":" horiz-adv-x="198" 
d="M66 -3q-12 12 -12 33q0 20 12 32t33 12t33.5 -12t12.5 -32q0 -21 -12.5 -33t-33.5 -12t-33 12zM66 462q-12 12 -12 33q0 20 12 32t33 12t33.5 -12t12.5 -32q0 -21 -12.5 -33t-33.5 -12t-33 12z" />
    <glyph glyph-name="semicolon" unicode=";" horiz-adv-x="178" 
d="M79.5 -52q15.5 19 11.5 42q-41 5 -41 42q0 21 12 32.5t32 11.5q45 0 45 -53q0 -111 -103 -130l-7 27q35 9 50.5 28zM61 460q-12 12 -12 33q0 20 12 32t33 12t33.5 -12t12.5 -32q0 -21 -12.5 -33t-33.5 -12t-33 12z" />
    <glyph glyph-name="less" unicode="&#x3c;" horiz-adv-x="543" 
d="M35 273v54l458 215v-57l-398 -182v-4l398 -180v-62z" />
    <glyph glyph-name="equal" unicode="=" horiz-adv-x="433" 
d="M50 422l167 -1l166 1v-48l-166 1l-167 -1v48zM50 267l167 -1l166 1v-48l-166 1l-167 -1v48z" />
    <glyph glyph-name="greater" unicode="&#x3e;" horiz-adv-x="543" 
d="M50 119l398 180v4l-398 182v57l458 -215v-54l-458 -216v62z" />
    <glyph glyph-name="question" unicode="?" horiz-adv-x="490" 
d="M191 222q0 62 23 98.5t76 70.5q43 26 67.5 60.5t24.5 87.5q0 51 -35 83t-100 32q-64 0 -103 -37.5t-50 -105.5l-52 14q12 80 64.5 131.5t144.5 51.5q88 0 138.5 -47.5t50.5 -121.5q0 -71 -32 -115t-88 -79q-39 -24 -56.5 -51t-17.5 -71q0 -25 3 -61h-55q-3 39 -3 60z
M191 64q13 12 36 12q22 0 35 -12t13 -33q0 -22 -12.5 -34t-35.5 -12t-36 12t-13 34q0 21 13 33z" />
    <glyph glyph-name="at" unicode="@" horiz-adv-x="793" 
d="M211.5 -65q-82.5 43 -129.5 123t-47 186q0 112 48 200.5t134.5 138.5t197.5 50q97 0 175 -40.5t123 -115.5t45 -175q0 -74 -22 -127.5t-59.5 -81t-84.5 -27.5q-51 0 -77.5 30.5t-27.5 65.5h-1q-15 -34 -51.5 -56t-78.5 -22q-56 0 -91.5 39t-35.5 108q0 53 18 102t55 80.5
t91 31.5q41 0 69 -20.5t38 -51.5h1l6 63h56l-25 -196q-3 -24 -3 -43q0 -40 14 -59t48 -19q49 0 77 46.5t28 130.5q0 87 -37 152t-102.5 99.5t-149.5 34.5q-93 0 -166.5 -43t-114.5 -119t-41 -172q0 -92 40.5 -161t111 -106.5t157.5 -37.5q40 0 79.5 6t67.5 17l6 -47
q-30 -13 -72 -20t-83 -7q-104 0 -186.5 43zM308 159q23 -27 62 -27q59 0 88.5 49.5t29.5 111.5q0 47 -22 75.5t-64 28.5q-58 0 -87.5 -47.5t-29.5 -110.5q0 -53 23 -80z" />
    <glyph glyph-name="A" unicode="A" horiz-adv-x="636" 
d="M153 347l134 346h60l135 -346l142 -347h-67l-77 203l-163 1l-162 -1l-76 -203h-66zM317 252l145 1l-144 367h-2l-143 -367z" />
    <glyph glyph-name="B" unicode="B" horiz-adv-x="615" 
d="M78 347l-2 346h271q104 0 159 -43t55 -130q0 -68 -34.5 -108.5t-95.5 -52.5v-3q71 -7 112.5 -49.5t41.5 -116.5q0 -91 -63.5 -140.5t-174.5 -49.5h-271zM138 53h208q86 0 132.5 36t46.5 104q0 137 -183 137h-206zM342 383q84 0 122 34.5t38 94.5q0 66 -41.5 97t-117.5 31
h-205l-2 -257h206z" />
    <glyph glyph-name="C" unicode="C" horiz-adv-x="641" 
d="M177.5 29q-68.5 44 -105.5 126t-37 192t37 191.5t105.5 125.5t160.5 44q116 0 186 -63t88 -165l-56 -15q-14 84 -70.5 136.5t-146.5 52.5q-74 0 -128.5 -37t-84 -106.5t-29.5 -163.5t29.5 -163.5t84.5 -107t129 -37.5q95 0 150 55.5t69 153.5l57 -15
q-19 -115 -89.5 -181.5t-187.5 -66.5q-93 0 -161.5 44z" />
    <glyph glyph-name="D" unicode="D" horiz-adv-x="656" 
d="M78 347l-2 346h194q351 0 351 -340q0 -178 -87.5 -265.5t-263.5 -87.5h-194zM138 54h132q146 0 218 73.5t72 224.5q0 287 -290 287h-132l-3 -292z" />
    <glyph glyph-name="E" unicode="E" horiz-adv-x="574" 
d="M78 347l-2 346h459v-54h-398l-1 -255h377v-54h-377l1 -276h408v-54h-469z" />
    <glyph glyph-name="F" unicode="F" horiz-adv-x="545" 
d="M78 347l-2 346h439v-54h-378l-1 -265h358v-53h-358l2 -321h-62z" />
    <glyph glyph-name="G" unicode="G" horiz-adv-x="665" 
d="M176 29q-68 44 -104.5 125.5t-36.5 191.5t37 192t106 126t162 44q116 0 186 -63t88 -165l-56 -15q-14 84 -70.5 136.5t-148.5 52.5q-74 0 -129 -37.5t-84 -107t-29 -163.5t29 -163.5t83.5 -106.5t127.5 -37q100 0 160.5 62.5t65.5 194.5l-251 -2v54h307l-2 -171l8 -177
h-48l-8 125q-28 -67 -89 -103.5t-144 -36.5q-92 0 -160 44z" />
    <glyph glyph-name="H" unicode="H" horiz-adv-x="691" 
d="M78 347l-2 346h62l-2 -314h419l-2 314h62l-3 -346l3 -347h-62l2 325h-419l2 -325h-62z" />
    <glyph glyph-name="I" unicode="I" horiz-adv-x="214" 
d="M78 347l-2 346h62l-2 -346l2 -347h-62z" />
    <glyph glyph-name="J" unicode="J" horiz-adv-x="352" 
d="M9 -6l6 54q45 -9 81 -9q72 0 102 41t31 135l2 254l-2 224h62l-2 -224l2 -255q1 -120 -47 -174.5t-146 -54.5q-51 0 -89 9z" />
    <glyph glyph-name="K" unicode="K" horiz-adv-x="616" 
d="M78 347l-2 346h62l-2 -346v-33l363 379h77l-260 -272l287 -421h-71l-257 378l-138 -145l1 -233h-62z" />
    <glyph glyph-name="L" unicode="L" horiz-adv-x="519" 
d="M78 347l-2 346h62l-3 -346l2 -293h360v-54h-421z" />
    <glyph glyph-name="M" unicode="M" horiz-adv-x="803" 
d="M78 345l-2 348h77l141 -359l107 -264h2l106 264l140 359h78l-2 -347l2 -346h-60l3 335v249h-3l-111 -273l-123 -311h-62l-124 311l-111 273h-3v-249l3 -335h-60z" />
    <glyph glyph-name="N" unicode="N" horiz-adv-x="674" 
d="M78 346l-2 347h71l217 -341l172 -259h3v265l-3 335h62l-2 -346l2 -347h-71l-203 317l-186 283h-2v-264l2 -336h-62z" />
    <glyph glyph-name="O" unicode="O" horiz-adv-x="692" 
d="M180.5 29q-70.5 44 -108 125.5t-37.5 192.5t38 192.5t108 125t165 43.5q96 0 166 -43.5t107.5 -124.5t37.5 -193q0 -111 -38 -192.5t-108 -125.5t-165 -44t-165.5 44zM127 182.5q30 -69.5 86 -106.5t133 -37q76 0 132.5 37t87 106.5t30.5 164.5q0 145 -67 226t-183 81
q-76 0 -132 -37t-86.5 -106t-30.5 -164t30 -164.5z" />
    <glyph glyph-name="P" unicode="P" horiz-adv-x="596" 
d="M78 347l-2 346h251q115 0 178 -51.5t63 -149.5q0 -100 -63.5 -153t-182.5 -53h-186l3 -286h-63zM327 339q85 0 132.5 40.5t47.5 112.5q0 71 -48 109.5t-132 38.5h-190l-1 -301h191z" />
    <glyph glyph-name="Q" unicode="Q" horiz-adv-x="692" 
d="M180.5 29q-70.5 44 -108 125.5t-37.5 192.5t38 192.5t108 125t165 43.5q96 0 166 -43.5t107.5 -124.5t37.5 -193q0 -104 -33.5 -183t-96.5 -124l165 -113l-56 -34l-170 113q-54 -21 -120 -21q-95 0 -165.5 44zM127 182.5q30 -69.5 86 -106.5t133 -37q76 0 132.5 37
t87 106.5t30.5 164.5q0 145 -67 226t-183 81q-76 0 -132 -37t-86.5 -106t-30.5 -164t30 -164.5z" />
    <glyph glyph-name="R" unicode="R" horiz-adv-x="620" 
d="M78 347l-2 346h246q120 0 183 -49.5t63 -140.5q0 -65 -33.5 -108t-97.5 -61q52 -17 77.5 -59t30.5 -118q6 -71 10.5 -105t13.5 -52h-62q-7 15 -11.5 49t-9.5 107q-4 62 -23.5 93t-53.5 41.5t-92 10.5h-181l3 -301h-63zM322 354q88 0 136.5 39.5t48.5 106.5
q0 66 -45.5 103t-134.5 37h-190l-1 -286h186z" />
    <glyph glyph-name="S" unicode="S" horiz-adv-x="585" 
d="M116 40q-66 55 -81 155l54 13q17 -84 65.5 -126.5t151.5 -42.5q87 0 133 38.5t46 103.5q0 59 -43.5 92.5t-148.5 56.5q-124 27 -177 73t-53 125q0 85 57 132.5t160 47.5q111 0 173.5 -51.5t78.5 -140.5l-55 -13q-11 70 -60 110.5t-136 40.5q-75 0 -116.5 -33t-41.5 -91
t43 -90t148 -55q85 -18 135 -44t73 -64.5t23 -94.5q0 -91 -64 -144t-175 -53q-124 0 -190 55z" />
    <glyph glyph-name="T" unicode="T" horiz-adv-x="534" 
d="M238 347l-2 292h-223v54h509v-54h-224l-2 -292l2 -347h-62z" />
    <glyph glyph-name="U" unicode="U" horiz-adv-x="649" 
d="M126.5 61q-66.5 76 -65.5 225l2 215l-2 192h62l-2 -192l2 -220q2 -242 201 -242q200 0 202 242l2 220l-2 192h62l-2 -192l2 -214q1 -150 -65.5 -226t-198.5 -76q-131 0 -197.5 76z" />
    <glyph glyph-name="V" unicode="V" horiz-adv-x="616" 
d="M149 347l-136 346h67l125 -346l104 -274h2l103 274l124 346h66l-135 -346l-130 -347h-60z" />
    <glyph glyph-name="W" unicode="W" horiz-adv-x="931" 
d="M125 347l-107 346h66l96 -346l79 -271h2l80 271l99 346h53l100 -346l81 -271h1l79 271l95 346h64l-106 -346l-102 -347h-63l-102 347l-73 245h-2l-73 -245l-102 -347h-63z" />
    <glyph glyph-name="X" unicode="X" horiz-adv-x="609" 
d="M267 363l-232 330h71l198 -286h2l200 286h69l-232 -330l253 -363h-70l-221 316h-2l-222 -316h-68z" />
    <glyph glyph-name="Y" unicode="Y" horiz-adv-x="570" 
d="M256 256l-248 437h69l207 -370h2l210 370h67l-249 -437l2 -256h-62z" />
    <glyph glyph-name="Z" unicode="Z" horiz-adv-x="575" 
d="M28 50l237 315l200 274h-428v54h504v-50l-235 -311l-203 -278h444v-54h-519v50z" />
    <glyph glyph-name="bracketleft" unicode="[" horiz-adv-x="320" 
d="M76 729h211v-48h-153v-769h153v-48h-211v865z" />
    <glyph glyph-name="backslash" unicode="\" horiz-adv-x="405" 
d="M331 -145l-319 870h62l318 -870h-61z" />
    <glyph glyph-name="bracketright" unicode="]" horiz-adv-x="320" 
d="M33 -136v48h153v769h-153v48h211v-865h-211z" />
    <glyph glyph-name="asciicircum" unicode="^" horiz-adv-x="393" 
d="M169 693h55l119 -202h-44l-102 157l-103 -157h-44z" />
    <glyph glyph-name="underscore" unicode="_" horiz-adv-x="500" 
d="M0 -52h500v-54h-500v54z" />
    <glyph glyph-name="grave" unicode="`" horiz-adv-x="171" 
d="M20 767h68l59 -132h-39z" />
    <glyph glyph-name="a" unicode="a" horiz-adv-x="533" 
d="M84 26.5q-44 41.5 -44 109.5q0 87 71 126t233 39h53v19q0 83 -32.5 126t-108.5 43t-114 -42.5t-37 -107.5l-51 13q0 84 55 134.5t147 50.5q98 0 146.5 -51t48.5 -157v-237q0 -30 10 -43t33 -13q13 0 23 3l8 -41q-23 -7 -44 -7q-35 0 -55 23.5t-20 70.5q0 19 2 36h-2
q-22 -62 -73 -99t-124 -37q-81 0 -125 41.5zM128.5 61q30.5 -26 86.5 -26q49 0 90.5 23t66.5 68t25 109v22h-41q-92 0 -148 -11.5t-83 -38.5t-27 -73q0 -47 30.5 -73z" />
    <glyph glyph-name="b" unicode="b" horiz-adv-x="569" 
d="M197 20q-48 35 -67 83h-2l1 -103h-59l2 282l-2 412h59l-2 -274h2q20 48 68 82.5t118 34.5q105 0 163 -72.5t58 -202.5t-58.5 -203.5t-162.5 -73.5q-70 0 -118 35zM154 128q27 -51 67 -72t83 -21q82 0 128 60t46 167t-46 166.5t-128 59.5q-49 0 -89 -24.5t-64 -75.5
t-24 -126q0 -83 27 -134z" />
    <glyph glyph-name="c" unicode="c" horiz-adv-x="501" 
d="M145 19q-53 34 -82 96t-29 146t29 146.5t81.5 96t123.5 33.5q84 0 139 -49t69 -130l-51 -14q-12 69 -53.5 106t-103.5 37q-80 0 -128 -61t-48 -165t47 -165t130 -61q62 0 103 37t53 106l51 -13q-14 -81 -69 -130.5t-138 -49.5q-71 0 -124 34z" />
    <glyph glyph-name="d" unicode="d" horiz-adv-x="569" 
d="M91.5 58.5q-58.5 73.5 -58.5 203.5t58 202.5t163 72.5q70 0 118 -34.5t68 -82.5h2l-2 274h59l-2 -412l2 -282h-59l1 103h-2q-19 -48 -67 -83t-118 -35q-104 0 -162.5 73.5zM137 95q46 -60 128 -60q43 0 83 21t67 72t27 134q0 75 -24 126t-64 75.5t-89 24.5
q-82 0 -128 -59.5t-46 -166.5t46 -167z" />
    <glyph glyph-name="e" unicode="e" horiz-adv-x="517" 
d="M145 19q-53 34 -82 96.5t-29 145.5q0 127 62.5 201.5t170.5 74.5q113 0 165 -81t52 -203h-392q2 -100 49 -159t129 -59q63 0 104 37t54 107l51 -14q-15 -82 -69.5 -131t-139.5 -49q-72 0 -125 34zM425 300q-1 80 -42 133.5t-116 53.5q-73 0 -119 -49t-54 -138h331z" />
    <glyph glyph-name="f" unicode="f" horiz-adv-x="314" 
d="M107 477l-103 -2v48h100q-7 48 -7 61q0 66 38 101.5t99 35.5q52 0 100 -22l-12 -44q-45 15 -83 15q-86 0 -86 -87q0 -12 7 -60h154v-48l-152 2l1 -477h-58z" />
    <glyph glyph-name="g" unicode="g" horiz-adv-x="569" 
d="M122 -129q-57 44 -67 112l53 15q8 -58 51 -90.5t112 -32.5q93 0 132 54.5t39 161.5v42h-2q-18 -47 -66.5 -80t-118.5 -33q-103 0 -162 70t-59 188q0 74 25.5 133t75.5 92.5t119 33.5q71 0 118.5 -34.5t67.5 -82.5h2l-1 103h58v-422q0 -144 -57 -209t-171 -65
q-92 0 -149 44zM138.5 127q46.5 -57 125.5 -57q72 0 125 47.5t53 160.5q0 59 -21.5 107t-62 75.5t-94.5 27.5q-79 0 -125.5 -57.5t-46.5 -152.5q0 -94 46.5 -151z" />
    <glyph glyph-name="h" unicode="h" horiz-adv-x="572" 
d="M72 252l-2 442h58l-2 -268h2q23 49 71.5 80t118.5 31q94 0 139 -54t45 -169v-62l2 -252h-58l1 252v61q0 89 -36 131t-107 42q-50 0 -90 -24t-63.5 -66.5t-23.5 -96.5v-47l1 -252h-58z" />
    <glyph glyph-name="i" unicode="i" horiz-adv-x="198" 
d="M72 262l-2 261h58l-1 -261l1 -262h-58zM69.5 674.5q10.5 10.5 29.5 10.5q40 0 40 -40t-40 -40q-19 0 -29.5 10.5t-10.5 29.5t10.5 29.5z" />
    <glyph glyph-name="j" unicode="j" horiz-adv-x="194" 
d="M-70 -154l12 46q30 -8 55 -8q36 0 53.5 24.5t17.5 85.5v126l-2 403h58l-1 -403v-114q0 -92 -30 -131.5t-89 -39.5q-34 0 -74 11zM65.5 674.5q10.5 10.5 29.5 10.5q40 0 40 -40t-40 -40q-19 0 -29.5 10.5t-10.5 29.5t10.5 29.5z" />
    <glyph glyph-name="k" unicode="k" horiz-adv-x="495" 
d="M72 353l-2 341h58l-1 -341v-96l255 266h72l-196 -202l229 -321h-68l-200 281l-92 -94l1 -187h-58z" />
    <glyph glyph-name="l" unicode="l" horiz-adv-x="198" 
d="M72 353l-2 341h58l-1 -341l1 -353h-58z" />
    <glyph glyph-name="m" unicode="m" horiz-adv-x="850" 
d="M72 252l-2 271h58l-2 -97h2q20 48 64 79.5t103 31.5q58 0 96.5 -31t52.5 -96h2q23 56 71 91.5t107 35.5q75 0 115.5 -50.5t40.5 -155.5v-79l2 -252h-58l1 252v78q0 80 -30 118t-85 38q-40 0 -76 -25t-58.5 -68t-22.5 -94v-47l2 -252h-58l1 252v78q0 80 -31 118t-87 38
q-42 0 -77 -26t-56 -69t-21 -92v-47l2 -252h-58z" />
    <glyph glyph-name="n" unicode="n" horiz-adv-x="572" 
d="M72 252l-2 271h58l-2 -99h2q22 50 71 81.5t119 31.5q94 0 139 -54t45 -169v-62l2 -252h-58l1 252v61q0 89 -36 131t-107 42q-50 0 -90 -24t-63.5 -66.5t-23.5 -96.5v-47l1 -252h-58z" />
    <glyph glyph-name="o" unicode="o" horiz-adv-x="545" 
d="M145.5 19q-53.5 34 -82.5 96.5t-29 146.5t29 146t82.5 95.5t126.5 33.5t127.5 -33.5t83.5 -95.5t29 -146t-29 -146.5t-83.5 -96.5t-127.5 -34t-126.5 34zM140.5 95.5q48.5 -60.5 131.5 -60.5q84 0 133 60.5t49 166.5q0 105 -49 165t-133 60q-83 0 -131.5 -60t-48.5 -165
q0 -106 48.5 -166.5z" />
    <glyph glyph-name="p" unicode="p" horiz-adv-x="569" 
d="M72 242l-2 281h59l-1 -103h2q19 48 66.5 82.5t118.5 34.5q104 0 162.5 -72.5t58.5 -202.5t-58 -203.5t-163 -73.5q-70 0 -118 35.5t-68 83.5h-2l2 -264h-59zM152 131.5q25 -50.5 65 -73.5t87 -23q82 0 128 60t46 167t-46 166.5t-128 59.5q-45 0 -85.5 -23.5t-66 -74.5
t-25.5 -129q0 -79 25 -129.5z" />
    <glyph glyph-name="q" unicode="q" horiz-adv-x="569" 
d="M440 -160l2 264h-2q-20 -48 -68 -83.5t-118 -35.5q-105 0 -163 73.5t-58 203.5t58.5 202.5t162.5 72.5q71 0 118.5 -34.5t66.5 -82.5h2l-1 103h59l-2 -281l2 -402h-59zM137 95q46 -60 128 -60q47 0 87 23t65 73.5t25 129.5q0 78 -25.5 129t-66 74.5t-85.5 23.5
q-82 0 -128 -59.5t-46 -166.5t46 -167z" />
    <glyph glyph-name="r" unicode="r" horiz-adv-x="348" 
d="M72 251l-2 272h58l-2 -103h2q18 50 61.5 83.5t104.5 33.5q21 0 41 -4l-2 -55q-21 5 -42 5q-47 0 -84.5 -24.5t-58.5 -70.5t-21 -106v-29l1 -253h-58z" />
    <glyph glyph-name="s" unicode="s" horiz-adv-x="451" 
d="M84 26q-54 41 -59 117l52 13q0 -55 40.5 -88t114.5 -33q64 0 99.5 26t35.5 75q0 45 -33.5 70.5t-109.5 35.5q-99 14 -137 51.5t-38 98.5q0 69 46 107t123 38q176 0 193 -152l-51 -13q-6 57 -40 86t-99 29q-53 0 -84.5 -22.5t-31.5 -68.5q0 -43 27 -66.5t96 -34.5
q106 -17 151 -55t45 -102q0 -69 -51.5 -111t-142.5 -42q-92 0 -146 41z" />
    <glyph glyph-name="t" unicode="t" horiz-adv-x="340" 
d="M141.5 7.5q-30.5 22.5 -41 60.5t-10.5 96v313l-85 -2v48h85v159h57l-1 -159h169v-48l-168 2v-319q0 -66 19.5 -94.5t68.5 -28.5q48 0 89 16l11 -45q-56 -21 -106 -21q-57 0 -87.5 22.5z" />
    <glyph glyph-name="u" unicode="u" horiz-adv-x="562" 
d="M490 272l2 -272h-58l2 97h-2q-24 -51 -71 -81t-110 -30q-93 0 -138 54.5t-45 169.5v62l-2 251h58l-1 -251v-62q0 -88 35.5 -130.5t106.5 -42.5q46 0 84.5 24t61 66.5t22.5 96.5v48l-1 251h58z" />
    <glyph glyph-name="v" unicode="v" horiz-adv-x="492" 
d="M277 0h-66l-203 523h60l176 -461h2l180 461h59z" />
    <glyph glyph-name="w" unicode="w" horiz-adv-x="737" 
d="M8 523h59l134 -459h2l139 459h55l136 -459h2l138 459h56l-163 -523h-65l-132 437h-2l-134 -437h-65z" />
    <glyph glyph-name="x" unicode="x" horiz-adv-x="481" 
d="M206 269l-188 254h68l155 -211h2l153 211h66l-187 -254l199 -269h-68l-167 225h-2l-164 -225h-65z" />
    <glyph glyph-name="y" unicode="y" horiz-adv-x="493" 
d="M48 -162l10 47q27 -7 56 -7q35 0 58 27.5t51 98.5l-215 519h61l180 -444h2l175 444h59l-215 -540q-37 -92 -73.5 -123.5t-79.5 -31.5q-32 0 -69 10z" />
    <glyph glyph-name="z" unicode="z" horiz-adv-x="464" 
d="M28 45l330 428h-322v50h394v-45l-330 -428h337v-50h-409v45z" />
    <glyph glyph-name="braceleft" unicode="{" horiz-adv-x="279" 
d="M111 -35v213q0 48 -16.5 70.5t-61.5 22.5v48q45 0 61.5 22.5t16.5 71.5v213q0 49 25 73.5t78 24.5h33v-48h-30q-48 0 -48 -52v-192q0 -59 -16 -92.5t-56 -44.5q40 -12 56 -44.5t16 -92.5v-191q0 -28 13 -40.5t35 -12.5h30v-48h-33q-103 0 -103 99z" />
    <glyph glyph-name="bar" unicode="|" horiz-adv-x="216" 
d="M140 693v-793h-64v793h64z" />
    <glyph glyph-name="braceright" unicode="}" horiz-adv-x="279" 
d="M32 -134v48h30q22 0 35 12.5t13 40.5v191q0 60 16 92.5t56 44.5q-40 11 -56 44.5t-16 92.5v192q0 52 -48 52h-30v48h33q53 0 78 -24.5t25 -73.5v-213q0 -49 16.5 -71.5t61.5 -22.5v-48q-45 0 -61.5 -22.5t-16.5 -70.5v-213q0 -99 -103 -99h-33z" />
    <glyph glyph-name="asciitilde" unicode="~" horiz-adv-x="479" 
d="M72.5 341.5q21.5 40.5 72.5 40.5q26 0 50.5 -14.5t59.5 -43.5q26 -22 43 -33t32 -11q52 0 55 87h44q-1 -49 -22 -89.5t-72 -40.5q-27 0 -51.5 14.5t-59.5 43.5q-25 21 -42 32t-32 11q-55 0 -55 -86h-45q1 49 22.5 89.5z" />
    <glyph glyph-name="DEL" horiz-adv-x="600" 
 />
    <glyph glyph-name="uni00A0" unicode="&#xa0;" horiz-adv-x="263" 
 />
    <glyph glyph-name="exclamdown" unicode="&#xa1;" horiz-adv-x="245" 
d="M145 339l7 -258v-251h-58v251l7 258h44zM88.5 526q12.5 12 34.5 12q21 0 33.5 -12t12.5 -34q0 -21 -12.5 -33t-33.5 -12q-22 0 -34.5 12t-12.5 33q0 22 12.5 34z" />
    <glyph glyph-name="cent" unicode="&#xa2;" horiz-adv-x="501" 
d="M287 693v-103q77 -6 126.5 -53t62.5 -120l-51 -14q-11 61 -46.5 96t-91.5 41v-400q56 5 91.5 40.5t46.5 96.5l51 -13q-13 -74 -62 -121t-127 -53v-90h-49v91q-62 6 -108 40t-71 88t-25 121t25 121.5t71 88t108 39.5v104h49zM131 206.5q39 -55.5 107 -65.5v398
q-67 -10 -106.5 -65t-39.5 -134q0 -78 39 -133.5z" />
    <glyph glyph-name="sterling" unicode="&#xa3;" horiz-adv-x="594" 
d="M61.5 21.5q-26.5 23.5 -26.5 64.5q0 38 24.5 59.5t66.5 21.5q27 0 55.5 -9t63.5 -26q8 27 8 56q0 37 -15 70t-43 74h-135v42h107q-28 43 -43.5 80t-15.5 80q0 75 50 119.5t143 44.5q196 0 227 -210l-56 -15q-9 79 -47.5 125t-120.5 46q-66 0 -100 -31.5t-34 -85.5
q0 -34 16 -67.5t49 -85.5h200v-42h-174q24 -39 37.5 -74t13.5 -70q0 -41 -18 -82q50 -27 81.5 -40.5t59.5 -13.5q34 0 53.5 33t16.5 115l54 -15q4 -183 -117 -183q-40 0 -77 16t-93 48q-23 -31 -58 -49.5t-80 -18.5q-46 0 -72.5 23.5zM102 57q13 -10 37 -10q56 0 88 45
q-55 29 -93 29q-22 0 -33.5 -9t-11.5 -26q0 -19 13 -29z" />
    <glyph glyph-name="currency" unicode="&#xa4;" horiz-adv-x="480" 
d="M141 185l-73 -72l-33 32l74 74q-35 43 -35 99q0 54 35 99l-74 73l33 32l73 -72q45 34 99 34q55 0 100 -34l72 72l33 -32l-72 -73q33 -46 33 -99q0 -55 -34 -100l73 -73l-33 -32l-72 73q-43 -34 -100 -34q-53 0 -99 33zM157.5 234.5q34.5 -34.5 82.5 -34.5q49 0 83.5 34.5
t34.5 83.5q0 48 -34.5 82.5t-83.5 34.5q-48 0 -82.5 -34.5t-34.5 -82.5q0 -49 34.5 -83.5z" />
    <glyph glyph-name="yen" unicode="&#xa5;" horiz-adv-x="570" 
d="M255 143h-187v44h187l1 66h-188v44h165l-225 396h69l207 -370h2l210 370h67l-226 -396h165v-44h-188l1 -66h187v-44h-187l1 -143h-62z" />
    <glyph glyph-name="brokenbar" unicode="&#xa6;" horiz-adv-x="216" 
d="M140 693v-334h-64v334h64zM76 234h64v-334h-64v334z" />
    <glyph glyph-name="section" unicode="&#xa7;" horiz-adv-x="469" 
d="M105 -58.5q-50 41.5 -61 106.5l55 15q6 -47 42.5 -78t99.5 -31q52 0 82.5 28t30.5 69q0 45 -29 74t-110 50q-101 26 -140.5 60.5t-39.5 91.5q0 31 17.5 61.5t45.5 50.5q-48 44 -48 115q0 43 21 78t60.5 55.5t92.5 20.5q85 0 135 -41.5t61 -106.5l-55 -15q-6 47 -42.5 78
t-99.5 31q-52 0 -82.5 -28t-30.5 -69q0 -45 29 -74t110 -50q101 -26 140.5 -60.5t39.5 -91.5q0 -31 -17.5 -61.5t-45.5 -50.5q48 -44 48 -115q0 -43 -21 -78t-60.5 -55.5t-92.5 -20.5q-85 0 -135 41.5zM123 274.5q28 -22.5 108 -42.5q57 -15 93 -37q23 20 34 39.5t11 43.5
q0 33 -28 55.5t-108 42.5q-57 15 -93 37q-23 -20 -34 -39.5t-11 -43.5q0 -33 28 -55.5z" />
    <glyph glyph-name="dieresis" unicode="&#xa8;" horiz-adv-x="257" 
d="M16 645.5q-11 10.5 -11 28.5t11 28.5t29 10.5q17 0 28 -10.5t11 -28.5t-11 -28.5t-28 -10.5q-18 0 -29 10.5zM185 702.5q11 10.5 29 10.5q17 0 28 -10.5t11 -28.5t-11 -28.5t-28 -10.5q-18 0 -29 10.5t-11 28.5t11 28.5z" />
    <glyph glyph-name="copyright" unicode="&#xa9;" horiz-adv-x="794" 
d="M215.5 33.5q-83.5 48.5 -132 132t-48.5 181.5t48.5 181t132 132t181.5 49t181 -49t132 -132t49 -181t-49 -181.5t-132 -132t-181 -48.5t-181.5 48.5zM128.5 191.5q41.5 -71.5 113 -113t155.5 -41.5t155.5 42t113.5 113t42 155t-42 155.5t-113.5 113.5t-155.5 42t-155 -42
t-113 -113.5t-42 -155.5t41.5 -155.5zM230 465q24 48 67.5 74t100.5 26q67 0 113.5 -38.5t57.5 -99.5l-49 -10q-10 51 -42.5 75.5t-80.5 24.5q-62 0 -99.5 -43t-37.5 -120t37 -122t101 -45q50 0 83.5 26.5t43.5 78.5l49 -10q-12 -62 -59 -103t-117 -41q-57 0 -100.5 27.5
t-67.5 76.5t-24 112t24 111z" />
    <glyph glyph-name="ordfeminine" unicode="&#xaa;" horiz-adv-x="357" 
d="M59 388q-27 25 -27 64q0 56 44 79t139 23h27v11q0 43 -16.5 64.5t-55.5 21.5q-40 0 -59 -20.5t-19 -54.5l-49 12q1 51 36 80t94 29q124 0 124 -128v-128q0 -32 21 -32q10 0 17 3l9 -38q-18 -8 -40 -8q-51 0 -52 56v17h-1q-13 -34 -43 -55t-74 -21q-48 0 -75 25zM35 298
h302v-49h-302v49zM104.5 420.5q15.5 -13.5 42.5 -13.5q40 0 67.5 27.5t27.5 75.5v10h-21q-70 0 -101 -14t-31 -48q0 -24 15.5 -37.5z" />
    <glyph glyph-name="guillemotleft" unicode="&#xab;" horiz-adv-x="503" 
d="M40 242v30l178 197l35 -27l-153 -185l153 -184l-35 -28zM240 272l178 197l35 -27l-153 -185l153 -184l-35 -28l-178 197v30z" />
    <glyph glyph-name="logicalnot" unicode="&#xac;" horiz-adv-x="477" 
d="M379 314h-339v58h397v-192h-58v134z" />
    <glyph glyph-name="uni00AD" unicode="&#xad;" 
 />
    <glyph glyph-name="registered" unicode="&#xae;" horiz-adv-x="444" 
d="M154 524l-1 96h72q36 0 55.5 -15.5t19.5 -44.5q0 -37 -32 -51q26 -8 30 -40q1 -6 3 -20t4 -21h-43q-3 6 -6 34q-3 32 -33 32h-29l1 -66h-42zM60 611q25 43 68 68.5t94 25.5q50 0 93 -25.5t68.5 -68.5t25.5 -93q0 -51 -25 -94t-68 -68t-94 -25t-94 25t-68 68t-25 94
q0 50 25 93zM89 440.5q21 -35.5 56.5 -56.5t76.5 -21q42 0 77.5 21t56 56.5t20.5 77.5q0 41 -21 77t-56.5 57t-76.5 21q-42 0 -77 -21t-56 -57t-21 -77q0 -42 21 -77.5zM225 525q16 0 25 7.5t9 21.5q0 31 -34 31h-31v-60h31z" />
    <glyph glyph-name="macron" unicode="&#xaf;" horiz-adv-x="354" 
d="M30 685h294v-44h-294v44z" />
    <glyph glyph-name="degree" unicode="&#xb0;" horiz-adv-x="386" 
d="M110.5 508.5q-34.5 34.5 -34.5 82.5t34.5 82.5t82.5 34.5q49 0 83 -34.5t34 -82.5t-34 -82.5t-83 -34.5q-48 0 -82.5 34.5zM136.5 534q23.5 -24 56.5 -24t56.5 24t23.5 57t-23.5 57.5t-56.5 24.5t-56.5 -24.5t-23.5 -57.5t23.5 -57z" />
    <glyph glyph-name="plusminus" unicode="&#xb1;" horiz-adv-x="433" 
d="M50 345l143 -2l-2 139h52l-2 -139l142 2v-49l-142 2l2 -139h-52l2 139l-143 -2v49zM50 105l167 -2l166 2v-49l-166 2l-167 -2v49z" />
    <glyph glyph-name="acute" unicode="&#xb4;" horiz-adv-x="171" 
d="M24 635l59 132h68l-88 -132h-39z" />
    <glyph glyph-name="uni00B5" unicode="&#xb5;" horiz-adv-x="643" 
d="M75 524h57v-294q0 -87 45 -137t124 -50q74 0 127.5 48t73.5 134v299h56v-524h-56v131q-27 -65 -82.5 -102.5t-130.5 -37.5q-111 0 -160 93l3 -244h-57v684z" />
    <glyph glyph-name="paragraph" unicode="&#xb6;" horiz-adv-x="601" 
d="M300 295h-21q-123 0 -187 51t-64 152q0 97 64.5 146t186.5 49h81l-2 -401l2 -392h-63zM466 292l-3 401h62l-2 -401l2 -392h-62z" />
    <glyph glyph-name="periodcentered" unicode="&#xb7;" horiz-adv-x="198" 
d="M66 212q-12 12 -12 33q0 20 12 32t33 12t33.5 -12t12.5 -32q0 -21 -12.5 -33t-33.5 -12t-33 12z" />
    <glyph glyph-name="cedilla" unicode="&#xb8;" horiz-adv-x="215" 
d="M30 -159l9 35q32 -8 59 -8q39 0 39 23q0 16 -17 23t-63 8l30 86l43 -2l-19 -59q77 -9 77 -59q0 -31 -23 -44.5t-58 -13.5q-44 0 -77 11z" />
    <glyph glyph-name="ordmasculine" unicode="&#xba;" horiz-adv-x="371" 
d="M76 408.5q-41 45.5 -41 122.5q0 76 41 121t110 45t110 -45t41 -121q0 -77 -41 -122.5t-110 -45.5t-110 45.5zM35 298h302v-49h-302v49zM118.5 443.5q24.5 -31.5 67.5 -31.5t67.5 32t24.5 87t-24.5 86t-67.5 31t-67.5 -31t-24.5 -86q0 -56 24.5 -87.5z" />
    <glyph glyph-name="guillemotright" unicode="&#xbb;" horiz-adv-x="503" 
d="M250 73l153 184l-153 185l35 27l178 -197v-30l-178 -197zM203 257l-153 185l35 27l178 -197v-30l-178 -197l-35 28z" />
    <glyph glyph-name="questiondown" unicode="&#xbf;" horiz-adv-x="490" 
d="M155 115q-52 -45 -52 -119q0 -55 35 -86.5t101 -31.5q71 0 111 38t52 106l51 -13q-12 -79 -65.5 -129.5t-151.5 -50.5q-58 0 -101 21.5t-66.5 59t-23.5 85.5q0 83 55 138t151 80l4 122h45l5 -154q-98 -21 -150 -66zM241 526q13 12 36 12q22 0 35 -12t13 -33t-12.5 -32.5
t-35.5 -11.5t-36 11.5t-13 32.5t13 33z" />
    <glyph glyph-name="Agrave" unicode="&#xc0;" horiz-adv-x="636" 
d="M153 347l134 346h60l135 -346l142 -347h-67l-77 203l-163 1l-162 -1l-76 -203h-66zM317 252l145 1l-144 367h-2l-143 -367zM210 869h71l56 -107h-39z" />
    <glyph glyph-name="Aacute" unicode="&#xc1;" horiz-adv-x="636" 
d="M153 347l134 346h60l135 -346l142 -347h-67l-77 203l-163 1l-162 -1l-76 -203h-66zM317 252l145 1l-144 367h-2l-143 -367zM280 762l56 107h71l-88 -107h-39z" />
    <glyph glyph-name="Acircumflex" unicode="&#xc2;" horiz-adv-x="636" 
d="M153 347l134 346h60l135 -346l142 -347h-67l-77 203l-163 1l-162 -1l-76 -203h-66zM317 252l145 1l-144 367h-2l-143 -367zM291 869h55l99 -107h-49l-77 65l-78 -65h-49z" />
    <glyph glyph-name="Atilde" unicode="&#xc3;" horiz-adv-x="636" 
d="M153 347l134 346h60l135 -346l142 -347h-67l-77 203l-163 1l-162 -1l-76 -203h-66zM317 252l145 1l-144 367h-2l-143 -367zM201 828q17 27 52 27q20 0 37 -8t39 -23q17 -11 27 -16t20 -5q18 0 24.5 13t7.5 39h44q-1 -41 -17.5 -68t-51.5 -27q-20 0 -37 7.5t-40 22.5
q-16 10 -27 15.5t-20 5.5q-18 0 -24.5 -12.5t-6.5 -38.5h-45q1 41 18 68z" />
    <glyph glyph-name="Adieresis" unicode="&#xc4;" horiz-adv-x="636" 
d="M153 347l134 346h60l135 -346l142 -347h-67l-77 203l-163 1l-162 -1l-76 -203h-66zM317 252l145 1l-144 367h-2l-143 -367zM206 771.5q-11 10.5 -11 29.5q0 17 11 28t29 11q17 0 28 -11t11 -28q0 -18 -10.5 -29t-28.5 -11t-29 10.5zM375 829q11 11 29 11q17 0 28 -11
t11 -28q0 -18 -10.5 -29t-28.5 -11t-29 10.5t-11 29.5q0 17 11 28z" />
    <glyph glyph-name="Aring" unicode="&#xc5;" horiz-adv-x="636" 
d="M153 347l134 346h60l135 -346l142 -347h-67l-77 203l-163 1l-162 -1l-76 -203h-66zM317 252l145 1l-144 367h-2l-143 -367zM269.5 775.5q-17.5 16.5 -17.5 45.5t17.5 45.5t48.5 16.5t48.5 -16.5t17.5 -45.5t-17.5 -45.5t-48.5 -16.5t-48.5 16.5zM294.5 798
q8.5 -9 23.5 -9t23.5 9t8.5 23q0 15 -8.5 23.5t-23.5 8.5t-23.5 -8.5t-8.5 -23.5q0 -14 8.5 -23z" />
    <glyph glyph-name="AE" unicode="&#xc6;" horiz-adv-x="910" 
d="M214 347l192 346h465v-54h-353l-1 -259h332v-53h-332l1 -273h363v-54h-424l1 202l-117 2l-144 -2l-111 -202h-73zM344 252l114 1l1 94l-2 292h-20l-161 -292l-51 -94z" />
    <glyph glyph-name="Ccedilla" unicode="&#xc7;" horiz-adv-x="641" 
d="M282.5 -168q-22.5 3 -36.5 8l8 33q30 -7 58 -7q41 0 41 25q0 14 -17 22t-62 13l22 62q-81 10 -139.5 56.5t-90 124t-31.5 178.5q0 110 37 191.5t105.5 125.5t160.5 44q116 0 186 -63t88 -165l-56 -15q-14 84 -70.5 136.5t-146.5 52.5q-74 0 -128.5 -37t-84 -106.5
t-29.5 -163.5t29.5 -163.5t84.5 -107t129 -37.5q95 0 150 55.5t69 153.5l57 -15q-19 -114 -89.5 -180.5t-186.5 -67.5l-12 -38q81 -9 81 -60q0 -31 -24 -44.5t-62 -13.5q-18 0 -40.5 3z" />
    <glyph glyph-name="Egrave" unicode="&#xc8;" horiz-adv-x="574" 
d="M78 347l-2 346h459v-54h-398l-1 -255h377v-54h-377l1 -276h408v-54h-469zM202 869h71l56 -107h-39z" />
    <glyph glyph-name="Eacute" unicode="&#xc9;" horiz-adv-x="574" 
d="M78 347l-2 346h459v-54h-398l-1 -255h377v-54h-377l1 -276h408v-54h-469zM272 762l56 107h71l-88 -107h-39z" />
    <glyph glyph-name="Ecircumflex" unicode="&#xca;" horiz-adv-x="574" 
d="M78 347l-2 346h459v-54h-398l-1 -255h377v-54h-377l1 -276h408v-54h-469zM283 869h55l99 -107h-49l-77 65l-78 -65h-49z" />
    <glyph glyph-name="Edieresis" unicode="&#xcb;" horiz-adv-x="574" 
d="M78 347l-2 346h459v-54h-398l-1 -255h377v-54h-377l1 -276h408v-54h-469zM198 771.5q-11 10.5 -11 29.5q0 17 11 28t29 11q17 0 28 -11t11 -28q0 -18 -10.5 -29t-28.5 -11t-29 10.5zM367 829q11 11 29 11q17 0 28 -11t11 -28q0 -18 -10.5 -29t-28.5 -11t-29 10.5
t-11 29.5q0 17 11 28z" />
    <glyph glyph-name="Igrave" unicode="&#xcc;" horiz-adv-x="214" 
d="M78 347l-2 346h62l-2 -346l2 -347h-62zM-1 869h71l56 -107h-39z" />
    <glyph glyph-name="Iacute" unicode="&#xcd;" horiz-adv-x="214" 
d="M78 347l-2 346h62l-2 -346l2 -347h-62zM69 762l56 107h71l-88 -107h-39z" />
    <glyph glyph-name="Icircumflex" unicode="&#xce;" horiz-adv-x="214" 
d="M78 347l-2 346h62l-2 -346l2 -347h-62zM80 869h55l99 -107h-49l-77 65l-78 -65h-49z" />
    <glyph glyph-name="Idieresis" unicode="&#xcf;" horiz-adv-x="214" 
d="M78 347l-2 346h62l-2 -346l2 -347h-62zM-5 771.5q-11 10.5 -11 29.5q0 17 11 28t29 11q17 0 28 -11t11 -28q0 -18 -10.5 -29t-28.5 -11t-29 10.5zM164 829q11 11 29 11q17 0 28 -11t11 -28q0 -18 -10.5 -29t-28.5 -11t-29 10.5t-11 29.5q0 17 11 28z" />
    <glyph glyph-name="Eth" unicode="&#xd0;" horiz-adv-x="656" 
d="M78 326l-80 -1v47l80 -1l-2 322h194q351 0 351 -340q0 -178 -87.5 -265.5t-263.5 -87.5h-194zM138 54h132q146 0 218 73.5t72 224.5q0 287 -290 287h-132l-3 -269l131 2v-47l-131 1z" />
    <glyph glyph-name="Ntilde" unicode="&#xd1;" horiz-adv-x="674" 
d="M78 346l-2 347h71l217 -341l172 -259h3v265l-3 335h62l-2 -346l2 -347h-71l-203 317l-186 283h-2v-264l2 -336h-62zM221 828q17 27 52 27q20 0 37 -8t39 -23q17 -11 27 -16t20 -5q18 0 24.5 13t7.5 39h44q-1 -41 -17.5 -68t-51.5 -27q-20 0 -37 7.5t-40 22.5
q-16 10 -27 15.5t-20 5.5q-18 0 -24.5 -12.5t-6.5 -38.5h-45q1 41 18 68z" />
    <glyph glyph-name="Ograve" unicode="&#xd2;" horiz-adv-x="692" 
d="M180.5 29q-70.5 44 -108 125.5t-37.5 192.5t38 192.5t108 125t165 43.5q96 0 166 -43.5t107.5 -124.5t37.5 -193q0 -111 -38 -192.5t-108 -125.5t-165 -44t-165.5 44zM127 182.5q30 -69.5 86 -106.5t133 -37q76 0 132.5 37t87 106.5t30.5 164.5q0 145 -67 226t-183 81
q-76 0 -132 -37t-86.5 -106t-30.5 -164t30 -164.5zM238 869h71l56 -107h-39z" />
    <glyph glyph-name="Oacute" unicode="&#xd3;" horiz-adv-x="692" 
d="M180.5 29q-70.5 44 -108 125.5t-37.5 192.5t38 192.5t108 125t165 43.5q96 0 166 -43.5t107.5 -124.5t37.5 -193q0 -111 -38 -192.5t-108 -125.5t-165 -44t-165.5 44zM127 182.5q30 -69.5 86 -106.5t133 -37q76 0 132.5 37t87 106.5t30.5 164.5q0 145 -67 226t-183 81
q-76 0 -132 -37t-86.5 -106t-30.5 -164t30 -164.5zM308 762l56 107h71l-88 -107h-39z" />
    <glyph glyph-name="Ocircumflex" unicode="&#xd4;" horiz-adv-x="692" 
d="M180.5 29q-70.5 44 -108 125.5t-37.5 192.5t38 192.5t108 125t165 43.5q96 0 166 -43.5t107.5 -124.5t37.5 -193q0 -111 -38 -192.5t-108 -125.5t-165 -44t-165.5 44zM127 182.5q30 -69.5 86 -106.5t133 -37q76 0 132.5 37t87 106.5t30.5 164.5q0 145 -67 226t-183 81
q-76 0 -132 -37t-86.5 -106t-30.5 -164t30 -164.5zM319 869h55l99 -107h-49l-77 65l-78 -65h-49z" />
    <glyph glyph-name="Otilde" unicode="&#xd5;" horiz-adv-x="692" 
d="M180.5 29q-70.5 44 -108 125.5t-37.5 192.5t38 192.5t108 125t165 43.5q96 0 166 -43.5t107.5 -124.5t37.5 -193q0 -111 -38 -192.5t-108 -125.5t-165 -44t-165.5 44zM127 182.5q30 -69.5 86 -106.5t133 -37q76 0 132.5 37t87 106.5t30.5 164.5q0 145 -67 226t-183 81
q-76 0 -132 -37t-86.5 -106t-30.5 -164t30 -164.5zM229 828q17 27 52 27q20 0 37 -8t39 -23q17 -11 27 -16t20 -5q18 0 24.5 13t7.5 39h44q-1 -41 -17.5 -68t-51.5 -27q-20 0 -37 7.5t-40 22.5q-16 10 -27 15.5t-20 5.5q-18 0 -24.5 -12.5t-6.5 -38.5h-45q1 41 18 68z" />
    <glyph glyph-name="Odieresis" unicode="&#xd6;" horiz-adv-x="692" 
d="M180.5 29q-70.5 44 -108 125.5t-37.5 192.5t38 192.5t108 125t165 43.5q96 0 166 -43.5t107.5 -124.5t37.5 -193q0 -111 -38 -192.5t-108 -125.5t-165 -44t-165.5 44zM127 182.5q30 -69.5 86 -106.5t133 -37q76 0 132.5 37t87 106.5t30.5 164.5q0 145 -67 226t-183 81
q-76 0 -132 -37t-86.5 -106t-30.5 -164t30 -164.5zM234 771.5q-11 10.5 -11 29.5q0 17 11 28t29 11q17 0 28 -11t11 -28q0 -18 -10.5 -29t-28.5 -11t-29 10.5zM403 829q11 11 29 11q17 0 28 -11t11 -28q0 -18 -10.5 -29t-28.5 -11t-29 10.5t-11 29.5q0 17 11 28z" />
    <glyph glyph-name="multiply" unicode="&#xd7;" horiz-adv-x="370" 
d="M85 454l99 -102l97 99l37 -37l-100 -97l102 -99l-34 -35l-100 102l-96 -99l-37 36l99 97l-102 100z" />
    <glyph glyph-name="Oslash" unicode="&#xd8;" horiz-adv-x="692" 
d="M148 53l-53 -68l-39 29l58 74q-39 47 -59 113t-20 146q0 111 38 192.5t108 125t165 43.5q120 0 200 -68l53 68l39 -29l-58 -74q77 -95 77 -258q0 -111 -38 -192.5t-108 -125.5t-165 -44q-119 0 -198 68zM152 137l358 457q-65 60 -164 60q-76 0 -132 -37t-86.5 -106
t-30.5 -164q0 -131 55 -210zM346 39q76 0 132.5 37t87 106.5t30.5 164.5q0 129 -54 209l-358 -457q65 -60 162 -60z" />
    <glyph glyph-name="Ugrave" unicode="&#xd9;" horiz-adv-x="649" 
d="M126.5 61q-66.5 76 -65.5 225l2 215l-2 192h62l-2 -192l2 -220q2 -242 201 -242q200 0 202 242l2 220l-2 192h62l-2 -192l2 -214q1 -150 -65.5 -226t-198.5 -76q-131 0 -197.5 76zM216 869h71l56 -107h-39z" />
    <glyph glyph-name="Uacute" unicode="&#xda;" horiz-adv-x="649" 
d="M126.5 61q-66.5 76 -65.5 225l2 215l-2 192h62l-2 -192l2 -220q2 -242 201 -242q200 0 202 242l2 220l-2 192h62l-2 -192l2 -214q1 -150 -65.5 -226t-198.5 -76q-131 0 -197.5 76zM287 762l56 107h71l-88 -107h-39z" />
    <glyph glyph-name="Ucircumflex" unicode="&#xdb;" horiz-adv-x="649" 
d="M126.5 61q-66.5 76 -65.5 225l2 215l-2 192h62l-2 -192l2 -220q2 -242 201 -242q200 0 202 242l2 220l-2 192h62l-2 -192l2 -214q1 -150 -65.5 -226t-198.5 -76q-131 0 -197.5 76zM297 869h55l99 -107h-49l-77 65l-78 -65h-49z" />
    <glyph glyph-name="Udieresis" unicode="&#xdc;" horiz-adv-x="649" 
d="M126.5 61q-66.5 76 -65.5 225l2 215l-2 192h62l-2 -192l2 -220q2 -242 201 -242q200 0 202 242l2 220l-2 192h62l-2 -192l2 -214q1 -150 -65.5 -226t-198.5 -76q-131 0 -197.5 76zM212 771.5q-11 10.5 -11 29.5q0 17 11 28t29 11q17 0 28 -11t11 -28q0 -18 -10.5 -29
t-28.5 -11t-29 10.5zM381 829q11 11 29 11q17 0 28 -11t11 -28q0 -18 -10.5 -29t-28.5 -11t-29 10.5t-11 29.5q0 17 11 28z" />
    <glyph glyph-name="Yacute" unicode="&#xdd;" horiz-adv-x="570" 
d="M256 256l-248 437h69l207 -370h2l210 370h67l-249 -437l2 -256h-62zM247 762l56 107h71l-88 -107h-39z" />
    <glyph glyph-name="Thorn" unicode="&#xde;" horiz-adv-x="600" 
d="M78 347l-2 346h62l-1 -105h169q267 0 267 -232q0 -124 -67.5 -182.5t-199.5 -58.5h-169l1 -115h-62zM137 168h174q201 0 201 188q0 92 -51 135.5t-150 43.5h-174l-1 -188z" />
    <glyph glyph-name="germandbls" unicode="&#xdf;" horiz-adv-x="550" 
d="M220 -3v51q30 -8 78 -8q71 0 116 43.5t45 113.5q0 73 -53 114.5t-151 41.5h-28v51h25q69 0 110.5 36t41.5 95q0 55 -36.5 89t-96.5 34q-67 0 -103 -42.5t-36 -123.5v-492h-62v486q0 106 53.5 164t145.5 58q56 0 100 -21.5t68.5 -61t24.5 -90.5q0 -61 -35 -103t-95 -52v-2
q87 -7 136 -54t49 -127q0 -63 -27.5 -110t-76.5 -72.5t-111 -25.5q-46 0 -82 8z" />
    <glyph glyph-name="agrave" unicode="&#xe0;" horiz-adv-x="533" 
d="M84 26.5q-44 41.5 -44 109.5q0 87 71 126t233 39h53v19q0 83 -32.5 126t-108.5 43t-114 -42.5t-37 -107.5l-51 13q0 84 55 134.5t147 50.5q98 0 146.5 -51t48.5 -157v-237q0 -30 10 -43t33 -13q13 0 23 3l8 -41q-23 -7 -44 -7q-35 0 -55 23.5t-20 70.5q0 19 2 36h-2
q-22 -62 -73 -99t-124 -37q-81 0 -125 41.5zM128.5 61q30.5 -26 86.5 -26q49 0 90.5 23t66.5 68t25 109v22h-41q-92 0 -148 -11.5t-83 -38.5t-27 -73q0 -47 30.5 -73zM154 767h67l60 -132h-39z" />
    <glyph glyph-name="aacute" unicode="&#xe1;" horiz-adv-x="533" 
d="M84 26.5q-44 41.5 -44 109.5q0 87 71 126t233 39h53v19q0 83 -32.5 126t-108.5 43t-114 -42.5t-37 -107.5l-51 13q0 84 55 134.5t147 50.5q98 0 146.5 -51t48.5 -157v-237q0 -30 10 -43t33 -13q13 0 23 3l8 -41q-23 -7 -44 -7q-35 0 -55 23.5t-20 70.5q0 19 2 36h-2
q-22 -62 -73 -99t-124 -37q-81 0 -125 41.5zM128.5 61q30.5 -26 86.5 -26q49 0 90.5 23t66.5 68t25 109v22h-41q-92 0 -148 -11.5t-83 -38.5t-27 -73q0 -47 30.5 -73zM225 635l59 132h68l-88 -132h-39z" />
    <glyph glyph-name="acircumflex" unicode="&#xe2;" horiz-adv-x="533" 
d="M84 26.5q-44 41.5 -44 109.5q0 87 71 126t233 39h53v19q0 83 -32.5 126t-108.5 43t-114 -42.5t-37 -107.5l-51 13q0 84 55 134.5t147 50.5q98 0 146.5 -51t48.5 -157v-237q0 -30 10 -43t33 -13q13 0 23 3l8 -41q-23 -7 -44 -7q-35 0 -55 23.5t-20 70.5q0 19 2 36h-2
q-22 -62 -73 -99t-124 -37q-81 0 -125 41.5zM128.5 61q30.5 -26 86.5 -26q49 0 90.5 23t66.5 68t25 109v22h-41q-92 0 -148 -11.5t-83 -38.5t-27 -73q0 -47 30.5 -73zM235 757h55l99 -132h-44l-82 88l-83 -88h-44z" />
    <glyph glyph-name="atilde" unicode="&#xe3;" horiz-adv-x="533" 
d="M84 26.5q-44 41.5 -44 109.5q0 87 71 126t233 39h53v19q0 83 -32.5 126t-108.5 43t-114 -42.5t-37 -107.5l-51 13q0 84 55 134.5t147 50.5q98 0 146.5 -51t48.5 -157v-237q0 -30 10 -43t33 -13q13 0 23 3l8 -41q-23 -7 -44 -7q-35 0 -55 23.5t-20 70.5q0 19 2 36h-2
q-22 -62 -73 -99t-124 -37q-81 0 -125 41.5zM128.5 61q30.5 -26 86.5 -26q49 0 90.5 23t66.5 68t25 109v22h-41q-92 0 -148 -11.5t-83 -38.5t-27 -73q0 -47 30.5 -73zM146 704q17 27 52 27q20 0 37 -7.5t39 -21.5q3 -2 13 -8t18.5 -9t15.5 -3q17 0 24 12.5t8 36.5h44
q-1 -41 -17.5 -68t-51.5 -27q-20 0 -37.5 7.5t-39.5 21.5q-31 20 -47 20q-18 0 -24.5 -12.5t-6.5 -36.5h-45q1 41 18 68z" />
    <glyph glyph-name="adieresis" unicode="&#xe4;" horiz-adv-x="533" 
d="M84 26.5q-44 41.5 -44 109.5q0 87 71 126t233 39h53v19q0 83 -32.5 126t-108.5 43t-114 -42.5t-37 -107.5l-51 13q0 84 55 134.5t147 50.5q98 0 146.5 -51t48.5 -157v-237q0 -30 10 -43t33 -13q13 0 23 3l8 -41q-23 -7 -44 -7q-35 0 -55 23.5t-20 70.5q0 19 2 36h-2
q-22 -62 -73 -99t-124 -37q-81 0 -125 41.5zM128.5 61q30.5 -26 86.5 -26q49 0 90.5 23t66.5 68t25 109v22h-41q-92 0 -148 -11.5t-83 -38.5t-27 -73q0 -47 30.5 -73zM150 645.5q-11 10.5 -11 28.5t11 28.5t29 10.5q17 0 28 -10.5t11 -28.5t-11 -28.5t-28 -10.5
q-18 0 -29 10.5zM319 702.5q11 10.5 29 10.5q17 0 28 -10.5t11 -28.5t-11 -28.5t-28 -10.5q-18 0 -29 10.5t-11 28.5t11 28.5z" />
    <glyph glyph-name="aring" unicode="&#xe5;" horiz-adv-x="533" 
d="M84 26.5q-44 41.5 -44 109.5q0 87 71 126t233 39h53v19q0 83 -32.5 126t-108.5 43t-114 -42.5t-37 -107.5l-51 13q0 84 55 134.5t147 50.5q98 0 146.5 -51t48.5 -157v-237q0 -30 10 -43t33 -13q13 0 23 3l8 -41q-23 -7 -44 -7q-35 0 -55 23.5t-20 70.5q0 19 2 36h-2
q-22 -62 -73 -99t-124 -37q-81 0 -125 41.5zM128.5 61q30.5 -26 86.5 -26q49 0 90.5 23t66.5 68t25 109v22h-41q-92 0 -148 -11.5t-83 -38.5t-27 -73q0 -47 30.5 -73zM206 653q-21 19 -21 53t21 53t57 19q35 0 56 -19t21 -53t-21 -53t-56 -19q-36 0 -57 19zM231 675.5
q12 -11.5 32 -11.5t31.5 11.5t11.5 30.5q0 20 -11.5 31.5t-31.5 11.5t-32 -11.5t-12 -31.5q0 -19 12 -30.5z" />
    <glyph glyph-name="ae" unicode="&#xe6;" horiz-adv-x="850" 
d="M83 26q-43 41 -43 107q0 89 69.5 128.5t222.5 39.5h54v19q0 84 -30.5 126.5t-98.5 42.5q-75 0 -112.5 -39t-36.5 -103l-51 13q0 83 54 130t146 47q132 0 168 -106q29 51 75.5 78.5t105.5 27.5q109 0 159.5 -80.5t50.5 -203.5h-372q2 -95 45.5 -156.5t120.5 -61.5
q61 0 99.5 37t50.5 107l51 -14q-14 -82 -66 -131t-135 -49q-70 0 -123 38.5t-79 107.5q-69 -146 -204 -146q-78 0 -121 41zM127.5 61q29.5 -26 82.5 -26q43 0 83.5 23t66.5 68.5t26 108.5v22h-41q-129 0 -188 -27.5t-59 -95.5q0 -47 29.5 -73zM758 300q-1 82 -40.5 134.5
t-111.5 52.5q-65 0 -108.5 -49.5t-51.5 -137.5h312z" />
    <glyph glyph-name="ccedilla" unicode="&#xe7;" horiz-adv-x="501" 
d="M267 -15l-12 -38q81 -9 81 -60q0 -31 -24 -44.5t-62 -13.5q-18 0 -40.5 3t-36.5 8l8 33q30 -7 58 -7q41 0 41 25q0 14 -17 22t-62 13l22 63q-88 16 -138.5 88t-50.5 184q0 84 29 146.5t81.5 96t123.5 33.5q84 0 139 -49t69 -130l-51 -14q-12 69 -53.5 106t-103.5 37
q-80 0 -128 -61t-48 -165t47 -165t130 -61q62 0 103 37t53 106l51 -13q-14 -81 -69 -130.5t-138 -49.5h-2z" />
    <glyph glyph-name="egrave" unicode="&#xe8;" horiz-adv-x="517" 
d="M145 19q-53 34 -82 96.5t-29 145.5q0 127 62.5 201.5t170.5 74.5q113 0 165 -81t52 -203h-392q2 -100 49 -159t129 -59q63 0 104 37t54 107l51 -14q-15 -82 -69.5 -131t-139.5 -49q-72 0 -125 34zM425 300q-1 80 -42 133.5t-116 53.5q-73 0 -119 -49t-54 -138h331z
M160 767h67l60 -132h-39z" />
    <glyph glyph-name="eacute" unicode="&#xe9;" horiz-adv-x="517" 
d="M145 19q-53 34 -82 96.5t-29 145.5q0 127 62.5 201.5t170.5 74.5q113 0 165 -81t52 -203h-392q2 -100 49 -159t129 -59q63 0 104 37t54 107l51 -14q-15 -82 -69.5 -131t-139.5 -49q-72 0 -125 34zM425 300q-1 80 -42 133.5t-116 53.5q-73 0 -119 -49t-54 -138h331z
M231 635l59 132h68l-88 -132h-39z" />
    <glyph glyph-name="ecircumflex" unicode="&#xea;" horiz-adv-x="517" 
d="M145 19q-53 34 -82 96.5t-29 145.5q0 127 62.5 201.5t170.5 74.5q113 0 165 -81t52 -203h-392q2 -100 49 -159t129 -59q63 0 104 37t54 107l51 -14q-15 -82 -69.5 -131t-139.5 -49q-72 0 -125 34zM425 300q-1 80 -42 133.5t-116 53.5q-73 0 -119 -49t-54 -138h331z
M241 757h55l99 -132h-44l-82 88l-83 -88h-44z" />
    <glyph glyph-name="edieresis" unicode="&#xeb;" horiz-adv-x="517" 
d="M145 19q-53 34 -82 96.5t-29 145.5q0 127 62.5 201.5t170.5 74.5q113 0 165 -81t52 -203h-392q2 -100 49 -159t129 -59q63 0 104 37t54 107l51 -14q-15 -82 -69.5 -131t-139.5 -49q-72 0 -125 34zM425 300q-1 80 -42 133.5t-116 53.5q-73 0 -119 -49t-54 -138h331z
M156 645.5q-11 10.5 -11 28.5t11 28.5t29 10.5q17 0 28 -10.5t11 -28.5t-11 -28.5t-28 -10.5q-18 0 -29 10.5zM325 702.5q11 10.5 29 10.5q17 0 28 -10.5t11 -28.5t-11 -28.5t-28 -10.5q-18 0 -29 10.5t-11 28.5t11 28.5z" />
    <glyph glyph-name="igrave" unicode="&#xec;" horiz-adv-x="198" 
d="M72 262l-2 261h58l-1 -261l1 -262h-58zM-9 767h67l60 -132h-39z" />
    <glyph glyph-name="iacute" unicode="&#xed;" horiz-adv-x="198" 
d="M72 262l-2 261h58l-1 -261l1 -262h-58zM61 635l59 132h68l-88 -132h-39z" />
    <glyph glyph-name="icircumflex" unicode="&#xee;" horiz-adv-x="198" 
d="M72 262l-2 261h58l-1 -261l1 -262h-58zM72 757h55l99 -132h-44l-82 88l-83 -88h-44z" />
    <glyph glyph-name="idieresis" unicode="&#xef;" horiz-adv-x="198" 
d="M72 262l-2 261h58l-1 -261l1 -262h-58zM-13 645.5q-11 10.5 -11 28.5t11 28.5t29 10.5q17 0 28 -10.5t11 -28.5t-11 -28.5t-28 -10.5q-18 0 -29 10.5zM156 702.5q11 10.5 29 10.5q17 0 28 -10.5t11 -28.5t-11 -28.5t-28 -10.5q-18 0 -29 10.5t-11 28.5t11 28.5z" />
    <glyph glyph-name="eth" unicode="&#xf0;" horiz-adv-x="561" 
d="M148.5 15.5q-56.5 30.5 -85.5 84t-29 120.5q0 115 64 178.5t171 63.5q66 0 119 -25.5t83 -74.5q-6 72 -44 136t-119 106l-78 -78l-31 33l64 64q-58 22 -144 31l7 54q100 -12 179 -44l84 84l32 -31l-74 -74q181 -101 181 -353q0 -162 -62 -233.5t-183 -71.5
q-78 0 -134.5 30.5zM145.5 86q50.5 -47 136.5 -47q94 0 140 50t46 138q0 60 -27 102t-70 62.5t-91 20.5q-87 0 -136 -48.5t-49 -141.5q0 -89 50.5 -136z" />
    <glyph glyph-name="ntilde" unicode="&#xf1;" horiz-adv-x="572" 
d="M72 252l-2 271h58l-2 -99h2q22 50 71 81.5t119 31.5q94 0 139 -54t45 -169v-62l2 -252h-58l1 252v61q0 89 -36 131t-107 42q-50 0 -90 -24t-63.5 -66.5t-23.5 -96.5v-47l1 -252h-58zM192 704q17 27 52 27q20 0 37 -7.5t39 -21.5q3 -2 13 -8t18.5 -9t15.5 -3q17 0 24 12.5
t8 36.5h44q-1 -41 -17.5 -68t-51.5 -27q-20 0 -37.5 7.5t-39.5 21.5q-31 20 -47 20q-18 0 -24.5 -12.5t-6.5 -36.5h-45q1 41 18 68z" />
    <glyph glyph-name="ograve" unicode="&#xf2;" horiz-adv-x="545" 
d="M145.5 19q-53.5 34 -82.5 96.5t-29 146.5t29 146t82.5 95.5t126.5 33.5t127.5 -33.5t83.5 -95.5t29 -146t-29 -146.5t-83.5 -96.5t-127.5 -34t-126.5 34zM140.5 95.5q48.5 -60.5 131.5 -60.5q84 0 133 60.5t49 166.5q0 105 -49 165t-133 60q-83 0 -131.5 -60t-48.5 -165
q0 -106 48.5 -166.5zM164 767h67l60 -132h-39z" />
    <glyph glyph-name="oacute" unicode="&#xf3;" horiz-adv-x="545" 
d="M145.5 19q-53.5 34 -82.5 96.5t-29 146.5t29 146t82.5 95.5t126.5 33.5t127.5 -33.5t83.5 -95.5t29 -146t-29 -146.5t-83.5 -96.5t-127.5 -34t-126.5 34zM140.5 95.5q48.5 -60.5 131.5 -60.5q84 0 133 60.5t49 166.5q0 105 -49 165t-133 60q-83 0 -131.5 -60t-48.5 -165
q0 -106 48.5 -166.5zM235 635l59 132h68l-88 -132h-39z" />
    <glyph glyph-name="ocircumflex" unicode="&#xf4;" horiz-adv-x="545" 
d="M145.5 19q-53.5 34 -82.5 96.5t-29 146.5t29 146t82.5 95.5t126.5 33.5t127.5 -33.5t83.5 -95.5t29 -146t-29 -146.5t-83.5 -96.5t-127.5 -34t-126.5 34zM140.5 95.5q48.5 -60.5 131.5 -60.5q84 0 133 60.5t49 166.5q0 105 -49 165t-133 60q-83 0 -131.5 -60t-48.5 -165
q0 -106 48.5 -166.5zM245 757h55l99 -132h-44l-82 88l-83 -88h-44z" />
    <glyph glyph-name="otilde" unicode="&#xf5;" horiz-adv-x="545" 
d="M145.5 19q-53.5 34 -82.5 96.5t-29 146.5t29 146t82.5 95.5t126.5 33.5t127.5 -33.5t83.5 -95.5t29 -146t-29 -146.5t-83.5 -96.5t-127.5 -34t-126.5 34zM140.5 95.5q48.5 -60.5 131.5 -60.5q84 0 133 60.5t49 166.5q0 105 -49 165t-133 60q-83 0 -131.5 -60t-48.5 -165
q0 -106 48.5 -166.5zM156 704q17 27 52 27q20 0 37 -7.5t39 -21.5q3 -2 13 -8t18.5 -9t15.5 -3q17 0 24 12.5t8 36.5h44q-1 -41 -17.5 -68t-51.5 -27q-20 0 -37.5 7.5t-39.5 21.5q-31 20 -47 20q-18 0 -24.5 -12.5t-6.5 -36.5h-45q1 41 18 68z" />
    <glyph glyph-name="odieresis" unicode="&#xf6;" horiz-adv-x="545" 
d="M145.5 19q-53.5 34 -82.5 96.5t-29 146.5t29 146t82.5 95.5t126.5 33.5t127.5 -33.5t83.5 -95.5t29 -146t-29 -146.5t-83.5 -96.5t-127.5 -34t-126.5 34zM140.5 95.5q48.5 -60.5 131.5 -60.5q84 0 133 60.5t49 166.5q0 105 -49 165t-133 60q-83 0 -131.5 -60t-48.5 -165
q0 -106 48.5 -166.5zM160 645.5q-11 10.5 -11 28.5t11 28.5t29 10.5q17 0 28 -10.5t11 -28.5t-11 -28.5t-28 -10.5q-18 0 -29 10.5zM329 702.5q11 10.5 29 10.5q17 0 28 -10.5t11 -28.5t-11 -28.5t-28 -10.5q-18 0 -29 10.5t-11 28.5t11 28.5z" />
    <glyph glyph-name="divide" unicode="&#xf7;" horiz-adv-x="433" 
d="M50 345l167 -2l166 2v-49l-166 2l-167 -2v49zM185 214.5q12 11.5 32 11.5q21 0 32.5 -11.5t11.5 -31.5t-11.5 -31.5t-32.5 -11.5q-20 0 -32 11.5t-12 31.5t12 31.5zM185 489.5q12 11.5 32 11.5q21 0 32.5 -11.5t11.5 -31.5t-11.5 -31.5t-32.5 -11.5q-20 0 -32 11.5
t-12 31.5t12 31.5z" />
    <glyph glyph-name="oslash" unicode="&#xf8;" horiz-adv-x="545" 
d="M122 36l-39 -49l-32 24l42 54q-59 75 -59 197q0 84 29 146t82.5 95.5t126.5 33.5q90 0 151 -50l39 49l33 -24l-43 -55q60 -72 60 -195q0 -84 -29 -146.5t-83.5 -96.5t-127.5 -34q-90 0 -150 51zM129 111l261 333q-48 43 -118 43q-83 0 -131.5 -60t-48.5 -165
q0 -92 37 -151zM272 35q84 0 133 60.5t49 166.5q0 92 -38 150l-261 -333q47 -44 117 -44z" />
    <glyph glyph-name="ugrave" unicode="&#xf9;" horiz-adv-x="562" 
d="M490 272l2 -272h-58l2 97h-2q-24 -51 -71 -81t-110 -30q-93 0 -138 54.5t-45 169.5v62l-2 251h58l-1 -251v-62q0 -88 35.5 -130.5t106.5 -42.5q46 0 84.5 24t61 66.5t22.5 96.5v48l-1 251h58zM175 767h67l60 -132h-39z" />
    <glyph glyph-name="uacute" unicode="&#xfa;" horiz-adv-x="562" 
d="M490 272l2 -272h-58l2 97h-2q-24 -51 -71 -81t-110 -30q-93 0 -138 54.5t-45 169.5v62l-2 251h58l-1 -251v-62q0 -88 35.5 -130.5t106.5 -42.5q46 0 84.5 24t61 66.5t22.5 96.5v48l-1 251h58zM246 635l59 132h68l-88 -132h-39z" />
    <glyph glyph-name="ucircumflex" unicode="&#xfb;" horiz-adv-x="562" 
d="M490 272l2 -272h-58l2 97h-2q-24 -51 -71 -81t-110 -30q-93 0 -138 54.5t-45 169.5v62l-2 251h58l-1 -251v-62q0 -88 35.5 -130.5t106.5 -42.5q46 0 84.5 24t61 66.5t22.5 96.5v48l-1 251h58zM256 757h55l99 -132h-44l-82 88l-83 -88h-44z" />
    <glyph glyph-name="udieresis" unicode="&#xfc;" horiz-adv-x="562" 
d="M490 272l2 -272h-58l2 97h-2q-24 -51 -71 -81t-110 -30q-93 0 -138 54.5t-45 169.5v62l-2 251h58l-1 -251v-62q0 -88 35.5 -130.5t106.5 -42.5q46 0 84.5 24t61 66.5t22.5 96.5v48l-1 251h58zM171 645.5q-11 10.5 -11 28.5t11 28.5t29 10.5q17 0 28 -10.5t11 -28.5
t-11 -28.5t-28 -10.5q-18 0 -29 10.5zM340 702.5q11 10.5 29 10.5q17 0 28 -10.5t11 -28.5t-11 -28.5t-28 -10.5q-18 0 -29 10.5t-11 28.5t11 28.5z" />
    <glyph glyph-name="yacute" unicode="&#xfd;" horiz-adv-x="493" 
d="M48 -162l10 47q27 -7 56 -7q35 0 58 27.5t51 98.5l-215 519h61l180 -444h2l175 444h59l-215 -540q-37 -92 -73.5 -123.5t-79.5 -31.5q-32 0 -69 10zM209 635l59 132h68l-88 -132h-39z" />
    <glyph glyph-name="thorn" unicode="&#xfe;" horiz-adv-x="569" 
d="M73 266l-3 428h59l-1 -274h2q19 48 66.5 82.5t118.5 34.5q104 0 162.5 -72.5t58.5 -202.5t-58 -203.5t-163 -73.5q-70 0 -118 35.5t-68 83.5h-2l2 -264h-59zM152 131.5q25 -50.5 65 -73.5t87 -23q82 0 128 60t46 167t-46 166.5t-128 59.5q-45 0 -85.5 -23.5t-66 -74.5
t-25.5 -129q0 -79 25 -129.5z" />
    <glyph glyph-name="ydieresis" unicode="&#xff;" horiz-adv-x="493" 
d="M48 -162l10 47q27 -7 56 -7q35 0 58 27.5t51 98.5l-215 519h61l180 -444h2l175 444h59l-215 -540q-37 -92 -73.5 -123.5t-79.5 -31.5q-32 0 -69 10zM134 645.5q-11 10.5 -11 28.5t11 28.5t29 10.5q17 0 28 -10.5t11 -28.5t-11 -28.5t-28 -10.5q-18 0 -29 10.5zM303 702.5
q11 10.5 29 10.5q17 0 28 -10.5t11 -28.5t-11 -28.5t-28 -10.5q-18 0 -29 10.5t-11 28.5t11 28.5z" />
    <glyph glyph-name="Amacron" unicode="&#x100;" horiz-adv-x="636" 
d="M153 347l134 346h60l135 -346l142 -347h-67l-77 203l-163 1l-162 -1l-76 -203h-66zM317 252l145 1l-144 367h-2l-143 -367zM171 808h294v-44h-294v44z" />
    <glyph glyph-name="amacron" unicode="&#x101;" horiz-adv-x="533" 
d="M84 26.5q-44 41.5 -44 109.5q0 87 71 126t233 39h53v19q0 83 -32.5 126t-108.5 43t-114 -42.5t-37 -107.5l-51 13q0 84 55 134.5t147 50.5q98 0 146.5 -51t48.5 -157v-237q0 -30 10 -43t33 -13q13 0 23 3l8 -41q-23 -7 -44 -7q-35 0 -55 23.5t-20 70.5q0 19 2 36h-2
q-22 -62 -73 -99t-124 -37q-81 0 -125 41.5zM128.5 61q30.5 -26 86.5 -26q49 0 90.5 23t66.5 68t25 109v22h-41q-92 0 -148 -11.5t-83 -38.5t-27 -73q0 -47 30.5 -73zM136 685h254v-44h-254v44z" />
    <glyph glyph-name="Abreve" unicode="&#x102;" horiz-adv-x="636" 
d="M153 347l134 346h60l135 -346l142 -347h-67l-77 203l-163 1l-162 -1l-76 -203h-66zM317 252l145 1l-144 367h-2l-143 -367zM234 788.5q-29 29.5 -29 82.5h40q2 -33 18 -49t54 -16q40 0 56.5 15.5t18.5 49.5h40q0 -54 -29.5 -83t-85.5 -29q-54 0 -83 29.5z" />
    <glyph glyph-name="abreve" unicode="&#x103;" horiz-adv-x="533" 
d="M84 26.5q-44 41.5 -44 109.5q0 87 71 126t233 39h53v19q0 83 -32.5 126t-108.5 43t-114 -42.5t-37 -107.5l-51 13q0 84 55 134.5t147 50.5q98 0 146.5 -51t48.5 -157v-237q0 -30 10 -43t33 -13q13 0 23 3l8 -41q-23 -7 -44 -7q-35 0 -55 23.5t-20 70.5q0 19 2 36h-2
q-22 -62 -73 -99t-124 -37q-81 0 -125 41.5zM128.5 61q30.5 -26 86.5 -26q49 0 90.5 23t66.5 68t25 109v22h-41q-92 0 -148 -11.5t-83 -38.5t-27 -73q0 -47 30.5 -73zM178 658q-29 32 -29 95h40q2 -42 18 -61t54 -19q40 0 56.5 19t18.5 61h40q0 -63 -29.5 -95t-85.5 -32
q-54 0 -83 32z" />
    <glyph glyph-name="Aogonek" unicode="&#x104;" horiz-adv-x="636" 
d="M153 347l134 346h60l135 -346l142 -346v-1h-2q-34 -19 -56.5 -45t-22.5 -50q0 -33 41 -33q18 0 36 5l9 -37q-26 -13 -60 -13t-55 16t-21 48q0 56 84 109h-20l-77 203l-163 1l-162 -1l-76 -203h-66zM317 252l145 1l-144 367h-2l-143 -367z" />
    <glyph glyph-name="aogonek" unicode="&#x105;" horiz-adv-x="533" 
d="M84 26.5q-44 41.5 -44 109.5q0 87 71 126t233 39h53v19q0 83 -32.5 126t-108.5 43t-114 -42.5t-37 -107.5l-51 13q0 84 55 134.5t147 50.5q98 0 146.5 -51t48.5 -157v-237q0 -30 10 -43t33 -13q13 0 23 3l8 -40v-1l-4 -1q-33 -19 -55 -45t-22 -49q0 -33 41 -33q18 0 36 5
l9 -37q-26 -13 -60 -13t-55 16t-21 48q0 52 75 103q-30 4 -46.5 27t-16.5 66q0 19 2 36h-2q-22 -62 -73 -99t-124 -37q-81 0 -125 41.5zM128.5 61q30.5 -26 86.5 -26q49 0 90.5 23t66.5 68t25 109v22h-41q-92 0 -148 -11.5t-83 -38.5t-27 -73q0 -47 30.5 -73z" />
    <glyph glyph-name="Cacute" unicode="&#x106;" horiz-adv-x="641" 
d="M177.5 29q-68.5 44 -105.5 126t-37 192t37 191.5t105.5 125.5t160.5 44q116 0 186 -63t88 -165l-56 -15q-14 84 -70.5 136.5t-146.5 52.5q-74 0 -128.5 -37t-84 -106.5t-29.5 -163.5t29.5 -163.5t84.5 -107t129 -37.5q95 0 150 55.5t69 153.5l57 -15
q-19 -115 -89.5 -181.5t-187.5 -66.5q-93 0 -161.5 44zM298 762l56 107h71l-88 -107h-39z" />
    <glyph glyph-name="cacute" unicode="&#x107;" horiz-adv-x="501" 
d="M145 19q-53 34 -82 96t-29 146t29 146.5t81.5 96t123.5 33.5q84 0 139 -49t69 -130l-51 -14q-12 69 -53.5 106t-103.5 37q-80 0 -128 -61t-48 -165t47 -165t130 -61q62 0 103 37t53 106l51 -13q-14 -81 -69 -130.5t-138 -49.5q-71 0 -124 34zM231 635l59 132h68l-88 -132
h-39z" />
    <glyph glyph-name="Ccircumflex" unicode="&#x108;" horiz-adv-x="641" 
d="M177.5 29q-68.5 44 -105.5 126t-37 192t37 191.5t105.5 125.5t160.5 44q116 0 186 -63t88 -165l-56 -15q-14 84 -70.5 136.5t-146.5 52.5q-74 0 -128.5 -37t-84 -106.5t-29.5 -163.5t29.5 -163.5t84.5 -107t129 -37.5q95 0 150 55.5t69 153.5l57 -15
q-19 -115 -89.5 -181.5t-187.5 -66.5q-93 0 -161.5 44zM308 869h55l99 -107h-49l-77 65l-78 -65h-49z" />
    <glyph glyph-name="ccircumflex" unicode="&#x109;" horiz-adv-x="501" 
d="M145 19q-53 34 -82 96t-29 146t29 146.5t81.5 96t123.5 33.5q84 0 139 -49t69 -130l-51 -14q-12 69 -53.5 106t-103.5 37q-80 0 -128 -61t-48 -165t47 -165t130 -61q62 0 103 37t53 106l51 -13q-14 -81 -69 -130.5t-138 -49.5q-71 0 -124 34zM241 757h55l99 -132h-44
l-82 88l-83 -88h-44z" />
    <glyph glyph-name="Cdotaccent" unicode="&#x10a;" horiz-adv-x="641" 
d="M177.5 29q-68.5 44 -105.5 126t-37 192t37 191.5t105.5 125.5t160.5 44q116 0 186 -63t88 -165l-56 -15q-14 84 -70.5 136.5t-146.5 52.5q-74 0 -128.5 -37t-84 -106.5t-29.5 -163.5t29.5 -163.5t84.5 -107t129 -37.5q95 0 150 55.5t69 153.5l57 -15
q-19 -115 -89.5 -181.5t-187.5 -66.5q-93 0 -161.5 44zM307 770q-11 11 -11 29q0 19 11 29.5t29 10.5t29 -10.5t11 -29.5q0 -18 -11 -29t-29 -11t-29 11z" />
    <glyph glyph-name="cdotaccent" unicode="&#x10b;" horiz-adv-x="501" 
d="M145 19q-53 34 -82 96t-29 146t29 146.5t81.5 96t123.5 33.5q84 0 139 -49t69 -130l-51 -14q-12 69 -53.5 106t-103.5 37q-80 0 -128 -61t-48 -165t47 -165t130 -61q62 0 103 37t53 106l51 -13q-14 -81 -69 -130.5t-138 -49.5q-71 0 -124 34zM240 645.5
q-11 10.5 -11 29.5q0 18 11 29t29 11t29 -11t11 -29q0 -19 -11 -29.5t-29 -10.5t-29 10.5z" />
    <glyph glyph-name="Ccaron" unicode="&#x10c;" horiz-adv-x="641" 
d="M177.5 29q-68.5 44 -105.5 126t-37 192t37 191.5t105.5 125.5t160.5 44q116 0 186 -63t88 -165l-56 -15q-14 84 -70.5 136.5t-146.5 52.5q-74 0 -128.5 -37t-84 -106.5t-29.5 -163.5t29.5 -163.5t84.5 -107t129 -37.5q95 0 150 55.5t69 153.5l57 -15
q-19 -115 -89.5 -181.5t-187.5 -66.5q-93 0 -161.5 44zM258 868l78 -65l77 65h49l-99 -107h-55l-99 107h49z" />
    <glyph glyph-name="ccaron" unicode="&#x10d;" horiz-adv-x="501" 
d="M145 19q-53 34 -82 96t-29 146t29 146.5t81.5 96t123.5 33.5q84 0 139 -49t69 -130l-51 -14q-12 69 -53.5 106t-103.5 37q-80 0 -128 -61t-48 -165t47 -165t130 -61q62 0 103 37t53 106l51 -13q-14 -81 -69 -130.5t-138 -49.5q-71 0 -124 34zM186 760l83 -88l82 88h44
l-99 -132h-55l-99 132h44z" />
    <glyph glyph-name="Dcaron" unicode="&#x10e;" horiz-adv-x="656" 
d="M78 347l-2 346h194q351 0 351 -340q0 -178 -87.5 -265.5t-263.5 -87.5h-194zM138 54h132q146 0 218 73.5t72 224.5q0 287 -290 287h-132l-3 -292zM188 868l78 -65l77 65h49l-99 -107h-55l-99 107h49z" />
    <glyph glyph-name="dcaron" unicode="&#x10f;" horiz-adv-x="591" 
d="M91.5 58.5q-58.5 73.5 -58.5 203.5t58 202.5t163 72.5q70 0 118 -34.5t68 -82.5h2l-2 274h59l-2 -412l2 -282h-59l1 103h-2q-19 -48 -67 -83t-118 -35q-104 0 -162.5 73.5zM137 95q46 -60 128 -60q43 0 83 21t67 72t27 134q0 75 -24 126t-64 75.5t-89 24.5
q-82 0 -128 -59.5t-46 -166.5t46 -167zM552 693h52l-6 -214h-40z" />
    <glyph glyph-name="Dcroat" unicode="&#x110;" horiz-adv-x="656" 
d="M78 326l-80 -1v47l80 -1l-2 322h194q351 0 351 -340q0 -178 -87.5 -265.5t-263.5 -87.5h-194zM138 54h132q146 0 218 73.5t72 224.5q0 287 -290 287h-132l-3 -269l131 2v-47l-131 1z" />
    <glyph glyph-name="dcroat" unicode="&#x111;" horiz-adv-x="569" 
d="M91.5 58.5q-58.5 73.5 -58.5 203.5t58 202.5t163 72.5q70 0 118 -34.5t68 -82.5h2l-1 169h-16l-132 -1v47l131 -2h16v61h59v-60l62 1v-47h-63l-1 -306l2 -282h-59l1 103h-2q-19 -48 -67 -83t-118 -35q-104 0 -162.5 73.5zM137 95q46 -60 128 -60q43 0 83 21t67 72t27 134
q0 75 -24 126t-64 75.5t-89 24.5q-82 0 -128 -59.5t-46 -166.5t46 -167z" />
    <glyph glyph-name="Emacron" unicode="&#x112;" horiz-adv-x="574" 
d="M78 347l-2 346h459v-54h-398l-1 -255h377v-54h-377l1 -276h408v-54h-469zM163 808h294v-44h-294v44z" />
    <glyph glyph-name="emacron" unicode="&#x113;" horiz-adv-x="517" 
d="M145 19q-53 34 -82 96.5t-29 145.5q0 127 62.5 201.5t170.5 74.5q113 0 165 -81t52 -203h-392q2 -100 49 -159t129 -59q63 0 104 37t54 107l51 -14q-15 -82 -69.5 -131t-139.5 -49q-72 0 -125 34zM425 300q-1 80 -42 133.5t-116 53.5q-73 0 -119 -49t-54 -138h331z
M142 685h254v-44h-254v44z" />
    <glyph glyph-name="Ebreve" unicode="&#x114;" horiz-adv-x="574" 
d="M78 347l-2 346h459v-54h-398l-1 -255h377v-54h-377l1 -276h408v-54h-469zM226 788.5q-29 29.5 -29 82.5h40q2 -33 18 -49t54 -16q40 0 56.5 15.5t18.5 49.5h40q0 -54 -29.5 -83t-85.5 -29q-54 0 -83 29.5z" />
    <glyph glyph-name="ebreve" unicode="&#x115;" horiz-adv-x="517" 
d="M145 19q-53 34 -82 96.5t-29 145.5q0 127 62.5 201.5t170.5 74.5q113 0 165 -81t52 -203h-392q2 -100 49 -159t129 -59q63 0 104 37t54 107l51 -14q-15 -82 -69.5 -131t-139.5 -49q-72 0 -125 34zM425 300q-1 80 -42 133.5t-116 53.5q-73 0 -119 -49t-54 -138h331z
M184 658q-29 32 -29 95h40q2 -42 18 -61t54 -19q40 0 56.5 19t18.5 61h40q0 -63 -29.5 -95t-85.5 -32q-54 0 -83 32z" />
    <glyph glyph-name="Edotaccent" unicode="&#x116;" horiz-adv-x="574" 
d="M78 347l-2 346h459v-54h-398l-1 -255h377v-54h-377l1 -276h408v-54h-469zM282 770q-11 11 -11 29q0 19 11 29.5t29 10.5t29 -10.5t11 -29.5q0 -18 -11 -29t-29 -11t-29 11z" />
    <glyph glyph-name="edotaccent" unicode="&#x117;" horiz-adv-x="517" 
d="M145 19q-53 34 -82 96.5t-29 145.5q0 127 62.5 201.5t170.5 74.5q113 0 165 -81t52 -203h-392q2 -100 49 -159t129 -59q63 0 104 37t54 107l51 -14q-15 -82 -69.5 -131t-139.5 -49q-72 0 -125 34zM425 300q-1 80 -42 133.5t-116 53.5q-73 0 -119 -49t-54 -138h331z
M240 645.5q-11 10.5 -11 29.5q0 18 11 29t29 11t29 -11t11 -29q0 -19 -11 -29.5t-29 -10.5t-29 10.5z" />
    <glyph glyph-name="Eogonek" unicode="&#x118;" horiz-adv-x="574" 
d="M78 347l-2 346h459v-54h-398l-1 -255h377v-54h-377l1 -276h408v-54h-2q-34 -19 -56.5 -45t-22.5 -50q0 -33 41 -33q18 0 36 5l9 -37q-26 -13 -60 -13t-55 16t-21 48q0 56 84 109h-422z" />
    <glyph glyph-name="eogonek" unicode="&#x119;" horiz-adv-x="517" 
d="M145 19q-53 34 -82 96.5t-29 145.5q0 127 62.5 201.5t170.5 74.5q113 0 165 -81t52 -203h-392q2 -100 49 -159t129 -59q63 0 104 37t54 107l51 -14q-8 -48 -31.5 -86t-60.5 -62h3q-35 -19 -58 -45.5t-23 -50.5q0 -33 41 -33q18 0 36 5l9 -37q-26 -13 -60 -13t-55 16
t-21 48q0 41 45 80q-22 -2 -34 -2q-72 0 -125 34zM425 300q-1 80 -42 133.5t-116 53.5q-73 0 -119 -49t-54 -138h331z" />
    <glyph glyph-name="Ecaron" unicode="&#x11a;" horiz-adv-x="574" 
d="M78 347l-2 346h459v-54h-398l-1 -255h377v-54h-377l1 -276h408v-54h-469zM233 868l78 -65l77 65h49l-99 -107h-55l-99 107h49z" />
    <glyph glyph-name="ecaron" unicode="&#x11b;" horiz-adv-x="517" 
d="M145 19q-53 34 -82 96.5t-29 145.5q0 127 62.5 201.5t170.5 74.5q113 0 165 -81t52 -203h-392q2 -100 49 -159t129 -59q63 0 104 37t54 107l51 -14q-15 -82 -69.5 -131t-139.5 -49q-72 0 -125 34zM425 300q-1 80 -42 133.5t-116 53.5q-73 0 -119 -49t-54 -138h331z
M186 760l83 -88l82 88h44l-99 -132h-55l-99 132h44z" />
    <glyph glyph-name="Gcircumflex" unicode="&#x11c;" horiz-adv-x="665" 
d="M176 29q-68 44 -104.5 125.5t-36.5 191.5t37 192t106 126t162 44q116 0 186 -63t88 -165l-56 -15q-14 84 -70.5 136.5t-148.5 52.5q-74 0 -129 -37.5t-84 -107t-29 -163.5t29 -163.5t83.5 -106.5t127.5 -37q100 0 160.5 62.5t65.5 194.5l-251 -2v54h307l-2 -171l8 -177
h-48l-8 125q-28 -67 -89 -103.5t-144 -36.5q-92 0 -160 44zM304 869h55l99 -107h-49l-77 65l-78 -65h-49z" />
    <glyph glyph-name="gcircumflex" unicode="&#x11d;" horiz-adv-x="569" 
d="M122 -129q-57 44 -67 112l53 15q8 -58 51 -90.5t112 -32.5q93 0 132 54.5t39 161.5v42h-2q-18 -47 -66.5 -80t-118.5 -33q-103 0 -162 70t-59 188q0 74 25.5 133t75.5 92.5t119 33.5q71 0 118.5 -34.5t67.5 -82.5h2l-1 103h58v-422q0 -144 -57 -209t-171 -65
q-92 0 -149 44zM138.5 127q46.5 -57 125.5 -57q72 0 125 47.5t53 160.5q0 59 -21.5 107t-62 75.5t-94.5 27.5q-79 0 -125.5 -57.5t-46.5 -152.5q0 -94 46.5 -151zM258 757h55l99 -132h-44l-82 88l-83 -88h-44z" />
    <glyph glyph-name="Gbreve" unicode="&#x11e;" horiz-adv-x="665" 
d="M176 29q-68 44 -104.5 125.5t-36.5 191.5t37 192t106 126t162 44q116 0 186 -63t88 -165l-56 -15q-14 84 -70.5 136.5t-148.5 52.5q-74 0 -129 -37.5t-84 -107t-29 -163.5t29 -163.5t83.5 -106.5t127.5 -37q100 0 160.5 62.5t65.5 194.5l-251 -2v54h307l-2 -171l8 -177
h-48l-8 125q-28 -67 -89 -103.5t-144 -36.5q-92 0 -160 44zM247 788.5q-29 29.5 -29 82.5h40q2 -33 18 -49t54 -16q40 0 56.5 15.5t18.5 49.5h40q0 -54 -29.5 -83t-85.5 -29q-54 0 -83 29.5z" />
    <glyph glyph-name="gbreve" unicode="&#x11f;" horiz-adv-x="569" 
d="M122 -129q-57 44 -67 112l53 15q8 -58 51 -90.5t112 -32.5q93 0 132 54.5t39 161.5v42h-2q-18 -47 -66.5 -80t-118.5 -33q-103 0 -162 70t-59 188q0 74 25.5 133t75.5 92.5t119 33.5q71 0 118.5 -34.5t67.5 -82.5h2l-1 103h58v-422q0 -144 -57 -209t-171 -65
q-92 0 -149 44zM138.5 127q46.5 -57 125.5 -57q72 0 125 47.5t53 160.5q0 59 -21.5 107t-62 75.5t-94.5 27.5q-79 0 -125.5 -57.5t-46.5 -152.5q0 -94 46.5 -151zM201 658q-29 32 -29 95h40q2 -42 18 -61t54 -19q40 0 56.5 19t18.5 61h40q0 -63 -29.5 -95t-85.5 -32
q-54 0 -83 32z" />
    <glyph glyph-name="Gdotaccent" unicode="&#x120;" horiz-adv-x="665" 
d="M176 29q-68 44 -104.5 125.5t-36.5 191.5t37 192t106 126t162 44q116 0 186 -63t88 -165l-56 -15q-14 84 -70.5 136.5t-148.5 52.5q-74 0 -129 -37.5t-84 -107t-29 -163.5t29 -163.5t83.5 -106.5t127.5 -37q100 0 160.5 62.5t65.5 194.5l-251 -2v54h307l-2 -171l8 -177
h-48l-8 125q-28 -67 -89 -103.5t-144 -36.5q-92 0 -160 44zM303 770q-11 11 -11 29q0 19 11 29.5t29 10.5t29 -10.5t11 -29.5q0 -18 -11 -29t-29 -11t-29 11z" />
    <glyph glyph-name="gdotaccent" unicode="&#x121;" horiz-adv-x="569" 
d="M122 -129q-57 44 -67 112l53 15q8 -58 51 -90.5t112 -32.5q93 0 132 54.5t39 161.5v42h-2q-18 -47 -66.5 -80t-118.5 -33q-103 0 -162 70t-59 188q0 74 25.5 133t75.5 92.5t119 33.5q71 0 118.5 -34.5t67.5 -82.5h2l-1 103h58v-422q0 -144 -57 -209t-171 -65
q-92 0 -149 44zM138.5 127q46.5 -57 125.5 -57q72 0 125 47.5t53 160.5q0 59 -21.5 107t-62 75.5t-94.5 27.5q-79 0 -125.5 -57.5t-46.5 -152.5q0 -94 46.5 -151zM257 645.5q-11 10.5 -11 29.5q0 18 11 29t29 11t29 -11t11 -29q0 -19 -11 -29.5t-29 -10.5t-29 10.5z" />
    <glyph glyph-name="uni0122" unicode="&#x122;" horiz-adv-x="665" 
d="M176 29q-68 44 -104.5 125.5t-36.5 191.5t37 192t106 126t162 44q116 0 186 -63t88 -165l-56 -15q-14 84 -70.5 136.5t-148.5 52.5q-74 0 -129 -37.5t-84 -107t-29 -163.5t29 -163.5t83.5 -106.5t127.5 -37q100 0 160.5 62.5t65.5 194.5l-251 -2v54h307l-2 -171l8 -177
h-48l-8 125q-28 -67 -89 -103.5t-144 -36.5q-92 0 -160 44zM324.5 -133.5q12.5 10.5 9.5 23.5q-36 4 -36 32q0 14 10 23.5t28 9.5q20 0 31 -11t11 -32q0 -71 -89 -84l-7 23q30 5 42.5 15.5z" />
    <glyph glyph-name="uni0123" unicode="&#x123;" horiz-adv-x="569" 
d="M122 -129q-57 44 -67 112l53 15q8 -58 51 -90.5t112 -32.5q93 0 132 54.5t39 161.5v42h-2q-18 -47 -66.5 -80t-118.5 -33q-103 0 -162 70t-59 188q0 74 25.5 133t75.5 92.5t119 33.5q71 0 118.5 -34.5t67.5 -82.5h2l-1 103h58v-422q0 -144 -57 -209t-171 -65
q-92 0 -149 44zM138.5 127q46.5 -57 125.5 -57q72 0 125 47.5t53 160.5q0 59 -21.5 107t-62 75.5t-94.5 27.5q-79 0 -125.5 -57.5t-46.5 -152.5q0 -94 46.5 -151zM241 684q0 78 83 91l7 -23q-53 -10 -48 -50q19 1 29 -6.5t10 -21.5q0 -16 -10.5 -25.5t-28.5 -9.5
q-42 0 -42 45z" />
    <glyph glyph-name="Hcircumflex" unicode="&#x124;" horiz-adv-x="691" 
d="M78 347l-2 346h62l-2 -314h419l-2 314h62l-3 -346l3 -347h-62l2 325h-419l2 -325h-62zM318 869h55l99 -107h-49l-77 65l-78 -65h-49z" />
    <glyph glyph-name="hcircumflex" unicode="&#x125;" horiz-adv-x="572" 
d="M72 252l-2 442h58l-2 -268h2q23 49 71.5 80t118.5 31q94 0 139 -54t45 -169v-62l2 -252h-58l1 252v61q0 89 -36 131t-107 42q-50 0 -90 -24t-63.5 -66.5t-23.5 -96.5v-47l1 -252h-58zM78 849h55l99 -107h-49l-77 65l-78 -65h-49z" />
    <glyph glyph-name="Hbar" unicode="&#x126;" horiz-adv-x="691" 
d="M78 347l-1 200h-51v47h51l-1 99h62l-1 -100l205 -1l212 1l-1 100h62l-1 -99h50v-47h-50l-2 -200l3 -347h-62l2 325h-419l2 -325h-62zM555 379l-1 168h-417l-1 -168h419z" />
    <glyph glyph-name="hbar" unicode="&#x127;" horiz-adv-x="572" 
d="M72 252l-1 329l-84 -1v47l83 -1v68h58l-1 -69l128 2v-47l-128 1l-1 -155h2q23 49 71.5 80t118.5 31q94 0 139 -54t45 -169v-62l2 -252h-58l1 252v61q0 89 -36 131t-107 42q-50 0 -90 -24t-63.5 -66.5t-23.5 -96.5v-47l1 -252h-58z" />
    <glyph glyph-name="Itilde" unicode="&#x128;" horiz-adv-x="214" 
d="M78 347l-2 346h62l-2 -346l2 -347h-62zM-10 828q17 27 52 27q20 0 37 -8t39 -23q17 -11 27 -16t20 -5q18 0 24.5 13t7.5 39h44q-1 -41 -17.5 -68t-51.5 -27q-20 0 -37 7.5t-40 22.5q-16 10 -27 15.5t-20 5.5q-18 0 -24.5 -12.5t-6.5 -38.5h-45q1 41 18 68z" />
    <glyph glyph-name="itilde" unicode="&#x129;" horiz-adv-x="198" 
d="M72 262l-2 261h58l-1 -261l1 -262h-58zM-18 704q17 27 52 27q20 0 37 -7.5t39 -21.5q3 -2 13 -8t18.5 -9t15.5 -3q17 0 24 12.5t8 36.5h44q-1 -41 -17.5 -68t-51.5 -27q-20 0 -37.5 7.5t-39.5 21.5q-31 20 -47 20q-18 0 -24.5 -12.5t-6.5 -36.5h-45q1 41 18 68z" />
    <glyph glyph-name="Imacron" unicode="&#x12a;" horiz-adv-x="214" 
d="M78 347l-2 346h62l-2 -346l2 -347h-62zM-40 808h294v-44h-294v44z" />
    <glyph glyph-name="imacron" unicode="&#x12b;" horiz-adv-x="198" 
d="M72 262l-2 261h58l-1 -261l1 -262h-58zM-28 685h254v-44h-254v44z" />
    <glyph glyph-name="Ibreve" unicode="&#x12c;" horiz-adv-x="214" 
d="M78 347l-2 346h62l-2 -346l2 -347h-62zM23 788.5q-29 29.5 -29 82.5h40q2 -33 18 -49t54 -16q40 0 56.5 15.5t18.5 49.5h40q0 -54 -29.5 -83t-85.5 -29q-54 0 -83 29.5z" />
    <glyph glyph-name="ibreve" unicode="&#x12d;" horiz-adv-x="198" 
d="M72 262l-2 261h58l-1 -261l1 -262h-58zM15 658q-29 32 -29 95h40q2 -42 18 -61t54 -19q40 0 56.5 19t18.5 61h40q0 -63 -29.5 -95t-85.5 -32q-54 0 -83 32z" />
    <glyph glyph-name="Iogonek" unicode="&#x12e;" horiz-adv-x="214" 
d="M78 347l-2 346h62l-2 -346l2 -347h-7q-34 -19 -56.5 -45t-22.5 -50q0 -33 41 -33q18 0 36 5l9 -37q-26 -13 -60 -13t-55 16t-21 48q0 56 84 109h-10z" />
    <glyph glyph-name="iogonek" unicode="&#x12f;" horiz-adv-x="198" 
d="M72 262l-2 261h58l-1 -261l1 -262h-5q-34 -19 -56.5 -45t-22.5 -50q0 -33 41 -33q18 0 36 5l9 -37q-26 -13 -60 -13t-55 16t-21 48q0 56 84 109h-8zM71 704q11 11 29 11t29 -11t11 -29q0 -19 -11 -29.5t-29 -10.5t-29 10.5t-11 29.5q0 18 11 29z" />
    <glyph glyph-name="Idotaccent" unicode="&#x130;" horiz-adv-x="214" 
d="M78 347l-2 346h62l-2 -346l2 -347h-62zM79 770q-11 11 -11 29q0 19 11 29.5t29 10.5t29 -10.5t11 -29.5q0 -18 -11 -29t-29 -11t-29 11z" />
    <glyph glyph-name="dotlessi" unicode="&#x131;" horiz-adv-x="198" 
d="M72 262l-2 261h58l-1 -261l1 -262h-58z" />
    <glyph glyph-name="IJ" unicode="&#x132;" horiz-adv-x="566" 
d="M78 347l-2 346h62l-2 -346l2 -347h-62zM223 -6l6 54q45 -9 81 -9q72 0 102 41t31 135l2 254l-2 224h62l-2 -224l2 -255q1 -120 -47 -174.5t-146 -54.5q-51 0 -89 9z" />
    <glyph glyph-name="ij" unicode="&#x133;" horiz-adv-x="198" 
d="M72 206l-2 317h58l-1 -317l1 -206h-1q-1 -89 -31 -127t-88 -38q-34 0 -74 11l12 46q30 -8 55 -8q36 0 53.5 24.5t17.5 85.5v6h-2zM69.5 674.5q10.5 10.5 29.5 10.5q40 0 40 -40t-40 -40q-19 0 -29.5 10.5t-10.5 29.5t10.5 29.5z" />
    <glyph glyph-name="Jcircumflex" unicode="&#x134;" horiz-adv-x="352" 
d="M9 -6l6 54q45 -9 81 -9q72 0 102 41t31 135l2 254l-2 224h62l-2 -224l2 -255q1 -120 -47 -174.5t-146 -54.5q-51 0 -89 9zM230 869h55l99 -107h-49l-77 65l-78 -65h-49z" />
    <glyph glyph-name="jcircumflex" unicode="&#x135;" horiz-adv-x="194" 
d="M-70 -151l12 43q29 -8 55 -8q35 0 52.5 24.5t17.5 85.5v126l-1 403h58l-2 -403v-114q0 -92 -29 -131.5t-85 -39.5q-40 0 -78 14zM65 757h55l99 -132h-44l-82 88l-83 -88h-44z" />
    <glyph glyph-name="uni0136" unicode="&#x136;" horiz-adv-x="616" 
d="M78 347l-2 346h62l-2 -346v-33l363 379h77l-260 -272l287 -421h-71l-257 378l-138 -145l1 -233h-62zM298.5 -133.5q12.5 10.5 9.5 23.5q-36 4 -36 32q0 14 10 23.5t28 9.5q20 0 31 -11t11 -32q0 -71 -89 -84l-7 23q30 5 42.5 15.5z" />
    <glyph glyph-name="uni0137" unicode="&#x137;" horiz-adv-x="495" 
d="M72 353l-2 341h58l-1 -341v-96l255 266h72l-196 -202l229 -321h-68l-200 281l-92 -94l1 -187h-58zM233.5 -133.5q12.5 10.5 9.5 23.5q-36 4 -36 32q0 14 10 23.5t28 9.5q20 0 31 -11t11 -32q0 -71 -89 -84l-7 23q30 5 42.5 15.5z" />
    <glyph glyph-name="kgreenlandic" unicode="&#x138;" horiz-adv-x="495" 
d="M72 353l-2 170h58l-1 -170v-92l253 262h74l-196 -202l229 -321h-68l-200 281l-92 -94l1 -187h-58z" />
    <glyph glyph-name="Lacute" unicode="&#x139;" horiz-adv-x="519" 
d="M78 347l-2 346h62l-3 -346l2 -293h360v-54h-421zM72 762l56 107h71l-88 -107h-39z" />
    <glyph glyph-name="lacute" unicode="&#x13a;" horiz-adv-x="198" 
d="M72 353l-2 341h58l-1 -341l1 -353h-58zM61 725l56 107h71l-88 -107h-39z" />
    <glyph glyph-name="uni013B" unicode="&#x13b;" horiz-adv-x="519" 
d="M78 347l-2 346h62l-3 -346l2 -293h360v-54h-421zM246.5 -133.5q12.5 10.5 9.5 23.5q-36 4 -36 32q0 14 10 23.5t28 9.5q20 0 31 -11t11 -32q0 -71 -89 -84l-7 23q30 5 42.5 15.5z" />
    <glyph glyph-name="uni013C" unicode="&#x13c;" horiz-adv-x="198" 
d="M72 353l-2 341h58l-1 -341l1 -353h-58zM91.5 -133.5q12.5 10.5 9.5 23.5q-36 4 -36 32q0 14 10 23.5t28 9.5q20 0 31 -11t11 -32q0 -71 -89 -84l-7 23q30 5 42.5 15.5z" />
    <glyph glyph-name="Lcaron" unicode="&#x13d;" horiz-adv-x="519" 
d="M78 347l-2 346h62l-3 -346l2 -293h360v-54h-421zM399 693h52l-6 -214h-40z" />
    <glyph glyph-name="lcaron" unicode="&#x13e;" horiz-adv-x="240" 
d="M72 353l-2 341h58l-1 -341l1 -353h-58zM200 693h52l-6 -214h-40z" />
    <glyph glyph-name="Ldot" unicode="&#x13f;" horiz-adv-x="519" 
d="M78 347l-2 346h62l-3 -346l2 -293h360v-54h-421zM316 395q12 12 33 12t33.5 -12t12.5 -33t-12.5 -32.5t-33.5 -11.5t-33 11.5t-12 32.5t12 33z" />
    <glyph glyph-name="ldot" unicode="&#x140;" horiz-adv-x="228" 
d="M72 353l-2 341h58l-1 -341l1 -353h-58zM205.5 376q10.5 11 29.5 11t30.5 -11t11.5 -29q0 -19 -11.5 -29.5t-30.5 -10.5t-29.5 10.5t-10.5 29.5q0 18 10.5 29z" />
    <glyph glyph-name="Lslash" unicode="&#x141;" horiz-adv-x="519" 
d="M78 303l-72 -43l-24 41l96 53l-2 339h62l-3 -305l79 47l24 -41l-103 -58l2 -282h360v-54h-421z" />
    <glyph glyph-name="lslash" unicode="&#x142;" horiz-adv-x="198" 
d="M72 305l-76 -45l-24 41l100 56l-2 337h58l-1 -305l77 46l24 -41l-101 -57l1 -337h-58z" />
    <glyph glyph-name="Nacute" unicode="&#x143;" horiz-adv-x="674" 
d="M78 346l-2 347h71l217 -341l172 -259h3v265l-3 335h62l-2 -346l2 -347h-71l-203 317l-186 283h-2v-264l2 -336h-62zM300 762l56 107h71l-88 -107h-39z" />
    <glyph glyph-name="nacute" unicode="&#x144;" horiz-adv-x="572" 
d="M72 252l-2 271h58l-2 -99h2q22 50 71 81.5t119 31.5q94 0 139 -54t45 -169v-62l2 -252h-58l1 252v61q0 89 -36 131t-107 42q-50 0 -90 -24t-63.5 -66.5t-23.5 -96.5v-47l1 -252h-58zM271 635l59 132h68l-88 -132h-39z" />
    <glyph glyph-name="uni0145" unicode="&#x145;" horiz-adv-x="674" 
d="M78 346l-2 347h71l217 -341l172 -259h3v265l-3 335h62l-2 -346l2 -347h-71l-203 317l-186 283h-2v-264l2 -336h-62zM330.5 -133.5q12.5 10.5 9.5 23.5q-36 4 -36 32q0 14 10 23.5t28 9.5q20 0 31 -11t11 -32q0 -71 -89 -84l-7 23q30 5 42.5 15.5z" />
    <glyph glyph-name="uni0146" unicode="&#x146;" horiz-adv-x="572" 
d="M72 252l-2 271h58l-2 -99h2q22 50 71 81.5t119 31.5q94 0 139 -54t45 -169v-62l2 -252h-58l1 252v61q0 89 -36 131t-107 42q-50 0 -90 -24t-63.5 -66.5t-23.5 -96.5v-47l1 -252h-58zM276.5 -133.5q12.5 10.5 9.5 23.5q-36 4 -36 32q0 14 10 23.5t28 9.5q20 0 31 -11
t11 -32q0 -71 -89 -84l-7 23q30 5 42.5 15.5z" />
    <glyph glyph-name="Ncaron" unicode="&#x147;" horiz-adv-x="674" 
d="M78 346l-2 347h71l217 -341l172 -259h3v265l-3 335h62l-2 -346l2 -347h-71l-203 317l-186 283h-2v-264l2 -336h-62zM260 868l78 -65l77 65h49l-99 -107h-55l-99 107h49z" />
    <glyph glyph-name="ncaron" unicode="&#x148;" horiz-adv-x="572" 
d="M72 252l-2 271h58l-2 -99h2q22 50 71 81.5t119 31.5q94 0 139 -54t45 -169v-62l2 -252h-58l1 252v61q0 89 -36 131t-107 42q-50 0 -90 -24t-63.5 -66.5t-23.5 -96.5v-47l1 -252h-58zM226 760l83 -88l82 88h44l-99 -132h-55l-99 132h44z" />
    <glyph glyph-name="Eng" unicode="&#x14a;" horiz-adv-x="674" 
d="M360 -166.5q-32 5.5 -58 14.5l13 52q25 -8 53.5 -13t49.5 -5q53 0 81 30.5t31 87.5l-206 317l-186 283h-2v-264l2 -336h-62l2 346l-2 347h71l217 -341l172 -259h3v265l-3 335h62l-2 -346l2 -301q1 -113 -47 -165.5t-133 -52.5q-26 0 -58 5.5z" />
    <glyph glyph-name="eng" unicode="&#x14b;" horiz-adv-x="572" 
d="M72 252l-2 271h58l-2 -97h2q23 49 71.5 80t118.5 31q94 0 139.5 -54t45.5 -169v-62l1 -240q0 -92 -29 -135.5t-93 -43.5q-23 0 -49 5.5t-45 14.5l12 44q39 -14 72 -14q41 0 57.5 25.5t16.5 91.5l1 252v61q0 89 -36 131t-107 42q-50 0 -90 -24t-63.5 -66.5t-23.5 -96.5
v-47l1 -252h-58z" />
    <glyph glyph-name="Omacron" unicode="&#x14c;" horiz-adv-x="692" 
d="M180.5 29q-70.5 44 -108 125.5t-37.5 192.5t38 192.5t108 125t165 43.5q96 0 166 -43.5t107.5 -124.5t37.5 -193q0 -111 -38 -192.5t-108 -125.5t-165 -44t-165.5 44zM127 182.5q30 -69.5 86 -106.5t133 -37q76 0 132.5 37t87 106.5t30.5 164.5q0 145 -67 226t-183 81
q-76 0 -132 -37t-86.5 -106t-30.5 -164t30 -164.5zM199 808h294v-44h-294v44z" />
    <glyph glyph-name="omacron" unicode="&#x14d;" horiz-adv-x="545" 
d="M145.5 19q-53.5 34 -82.5 96.5t-29 146.5t29 146t82.5 95.5t126.5 33.5t127.5 -33.5t83.5 -95.5t29 -146t-29 -146.5t-83.5 -96.5t-127.5 -34t-126.5 34zM140.5 95.5q48.5 -60.5 131.5 -60.5q84 0 133 60.5t49 166.5q0 105 -49 165t-133 60q-83 0 -131.5 -60t-48.5 -165
q0 -106 48.5 -166.5zM146 685h254v-44h-254v44z" />
    <glyph glyph-name="Obreve" unicode="&#x14e;" horiz-adv-x="692" 
d="M180.5 29q-70.5 44 -108 125.5t-37.5 192.5t38 192.5t108 125t165 43.5q96 0 166 -43.5t107.5 -124.5t37.5 -193q0 -111 -38 -192.5t-108 -125.5t-165 -44t-165.5 44zM127 182.5q30 -69.5 86 -106.5t133 -37q76 0 132.5 37t87 106.5t30.5 164.5q0 145 -67 226t-183 81
q-76 0 -132 -37t-86.5 -106t-30.5 -164t30 -164.5zM262 788.5q-29 29.5 -29 82.5h40q2 -33 18 -49t54 -16q40 0 56.5 15.5t18.5 49.5h40q0 -54 -29.5 -83t-85.5 -29q-54 0 -83 29.5z" />
    <glyph glyph-name="obreve" unicode="&#x14f;" horiz-adv-x="545" 
d="M145.5 19q-53.5 34 -82.5 96.5t-29 146.5t29 146t82.5 95.5t126.5 33.5t127.5 -33.5t83.5 -95.5t29 -146t-29 -146.5t-83.5 -96.5t-127.5 -34t-126.5 34zM140.5 95.5q48.5 -60.5 131.5 -60.5q84 0 133 60.5t49 166.5q0 105 -49 165t-133 60q-83 0 -131.5 -60t-48.5 -165
q0 -106 48.5 -166.5zM188 658q-29 32 -29 95h40q2 -42 18 -61t54 -19q40 0 56.5 19t18.5 61h40q0 -63 -29.5 -95t-85.5 -32q-54 0 -83 32z" />
    <glyph glyph-name="Ohungarumlaut" unicode="&#x150;" horiz-adv-x="692" 
d="M180.5 29q-70.5 44 -108 125.5t-37.5 192.5t38 192.5t108 125t165 43.5q96 0 166 -43.5t107.5 -124.5t37.5 -193q0 -111 -38 -192.5t-108 -125.5t-165 -44t-165.5 44zM127 182.5q30 -69.5 86 -106.5t133 -37q76 0 132.5 37t87 106.5t30.5 164.5q0 145 -67 226t-183 81
q-76 0 -132 -37t-86.5 -106t-30.5 -164t30 -164.5zM440 870h68l-88 -108h-39zM318 870h63l-76 -108h-44z" />
    <glyph glyph-name="ohungarumlaut" unicode="&#x151;" horiz-adv-x="545" 
d="M145.5 19q-53.5 34 -82.5 96.5t-29 146.5t29 146t82.5 95.5t126.5 33.5t127.5 -33.5t83.5 -95.5t29 -146t-29 -146.5t-83.5 -96.5t-127.5 -34t-126.5 34zM140.5 95.5q48.5 -60.5 131.5 -60.5q84 0 133 60.5t49 166.5q0 105 -49 165t-133 60q-83 0 -131.5 -60t-48.5 -165
q0 -106 48.5 -166.5zM374 767h61l-88 -132h-39zM252 767h56l-76 -132h-44z" />
    <glyph glyph-name="OE" unicode="&#x152;" horiz-adv-x="1027" 
d="M175 26.5q-67 41.5 -103.5 122.5t-36.5 198t37 198t103.5 122t155.5 41q84 0 145.5 -37t91.5 -115h1v137h419v-54h-359l-1 -259h338v-53h-338l1 -273h368v-54h-428v137h-1q-31 -77 -92.5 -114.5t-144.5 -37.5q-89 0 -156 41.5zM160 117.5q63 -78.5 171 -78.5
q107 0 171 78.5t64 229.5q0 152 -63.5 229.5t-171.5 77.5q-107 0 -170.5 -78.5t-63.5 -228.5q0 -151 63 -229.5z" />
    <glyph glyph-name="oe" unicode="&#x153;" horiz-adv-x="907" 
d="M143 19q-52 34 -80.5 96.5t-28.5 146.5t28.5 146t80.5 95.5t121 33.5q74 0 125.5 -38t75.5 -108q23 70 73.5 108t123.5 38q110 0 161 -81t51 -203h-382q2 -100 48.5 -159t124.5 -59q63 0 101.5 37t51.5 107l51 -14q-15 -82 -67.5 -131t-136.5 -49q-74 0 -125 38.5
t-75 109.5q-24 -71 -75 -109.5t-126 -38.5q-69 0 -121 34zM139 96q47 -61 125 -61q79 0 127 61t48 166q0 104 -48 164.5t-127 60.5q-78 0 -125 -60.5t-47 -164.5q0 -105 47 -166zM815 300q0 82 -40 134.5t-113 52.5q-70 0 -115 -49t-53 -138h321z" />
    <glyph glyph-name="Racute" unicode="&#x154;" horiz-adv-x="620" 
d="M78 347l-2 346h246q120 0 183 -49.5t63 -140.5q0 -65 -33.5 -108t-97.5 -61q52 -17 77.5 -59t30.5 -118q6 -71 10.5 -105t13.5 -52h-62q-7 15 -11.5 49t-9.5 107q-4 62 -23.5 93t-53.5 41.5t-92 10.5h-181l3 -301h-63zM322 354q88 0 136.5 39.5t48.5 106.5
q0 66 -45.5 103t-134.5 37h-190l-1 -286h186zM233 762l56 107h71l-88 -107h-39z" />
    <glyph glyph-name="racute" unicode="&#x155;" horiz-adv-x="348" 
d="M72 251l-2 272h58l-2 -103h2q18 50 61.5 83.5t104.5 33.5q21 0 41 -4l-2 -55q-21 5 -42 5q-47 0 -84.5 -24.5t-58.5 -70.5t-21 -106v-29l1 -253h-58zM154 635l59 132h68l-88 -132h-39z" />
    <glyph glyph-name="uni0156" unicode="&#x156;" horiz-adv-x="620" 
d="M78 347l-2 346h246q120 0 183 -49.5t63 -140.5q0 -65 -33.5 -108t-97.5 -61q52 -17 77.5 -59t30.5 -118q6 -71 10.5 -105t13.5 -52h-62q-7 15 -11.5 49t-9.5 107q-4 62 -23.5 93t-53.5 41.5t-92 10.5h-181l3 -301h-63zM322 354q88 0 136.5 39.5t48.5 106.5
q0 66 -45.5 103t-134.5 37h-190l-1 -286h186zM308.5 -133.5q12.5 10.5 9.5 23.5q-36 4 -36 32q0 14 10 23.5t28 9.5q20 0 31 -11t11 -32q0 -71 -89 -84l-7 23q30 5 42.5 15.5z" />
    <glyph glyph-name="uni0157" unicode="&#x157;" horiz-adv-x="348" 
d="M72 251l-2 272h58l-2 -103h2q18 50 61.5 83.5t104.5 33.5q21 0 41 -4l-2 -55q-21 5 -42 5q-47 0 -84.5 -24.5t-58.5 -70.5t-21 -106v-29l1 -253h-58zM86.5 -133.5q12.5 10.5 9.5 23.5q-36 4 -36 32q0 14 10 23.5t28 9.5q20 0 31 -11t11 -32q0 -71 -89 -84l-7 23
q30 5 42.5 15.5z" />
    <glyph glyph-name="Rcaron" unicode="&#x158;" horiz-adv-x="620" 
d="M78 347l-2 346h246q120 0 183 -49.5t63 -140.5q0 -65 -33.5 -108t-97.5 -61q52 -17 77.5 -59t30.5 -118q6 -71 10.5 -105t13.5 -52h-62q-7 15 -11.5 49t-9.5 107q-4 62 -23.5 93t-53.5 41.5t-92 10.5h-181l3 -301h-63zM322 354q88 0 136.5 39.5t48.5 106.5
q0 66 -45.5 103t-134.5 37h-190l-1 -286h186zM193 868l78 -65l77 65h49l-99 -107h-55l-99 107h49z" />
    <glyph glyph-name="rcaron" unicode="&#x159;" horiz-adv-x="348" 
d="M72 251l-2 272h58l-2 -103h2q18 50 61.5 83.5t104.5 33.5q21 0 41 -4l-2 -55q-21 5 -42 5q-47 0 -84.5 -24.5t-58.5 -70.5t-21 -106v-29l1 -253h-58zM109 760l83 -88l82 88h44l-99 -132h-55l-99 132h44z" />
    <glyph glyph-name="Sacute" unicode="&#x15a;" horiz-adv-x="585" 
d="M116 40q-66 55 -81 155l54 13q17 -84 65.5 -126.5t151.5 -42.5q87 0 133 38.5t46 103.5q0 59 -43.5 92.5t-148.5 56.5q-124 27 -177 73t-53 125q0 85 57 132.5t160 47.5q111 0 173.5 -51.5t78.5 -140.5l-55 -13q-11 70 -60 110.5t-136 40.5q-75 0 -116.5 -33t-41.5 -91
t43 -90t148 -55q85 -18 135 -44t73 -64.5t23 -94.5q0 -91 -64 -144t-175 -53q-124 0 -190 55zM245 762l56 107h71l-88 -107h-39z" />
    <glyph glyph-name="sacute" unicode="&#x15b;" horiz-adv-x="451" 
d="M84 26q-54 41 -59 117l52 13q0 -55 40.5 -88t114.5 -33q64 0 99.5 26t35.5 75q0 45 -33.5 70.5t-109.5 35.5q-99 14 -137 51.5t-38 98.5q0 69 46 107t123 38q176 0 193 -152l-51 -13q-6 57 -40 86t-99 29q-53 0 -84.5 -22.5t-31.5 -68.5q0 -43 27 -66.5t96 -34.5
q106 -17 151 -55t45 -102q0 -69 -51.5 -111t-142.5 -42q-92 0 -146 41zM186 635l59 132h68l-88 -132h-39z" />
    <glyph glyph-name="Scircumflex" unicode="&#x15c;" horiz-adv-x="585" 
d="M116 40q-66 55 -81 155l54 13q17 -84 65.5 -126.5t151.5 -42.5q87 0 133 38.5t46 103.5q0 59 -43.5 92.5t-148.5 56.5q-124 27 -177 73t-53 125q0 85 57 132.5t160 47.5q111 0 173.5 -51.5t78.5 -140.5l-55 -13q-11 70 -60 110.5t-136 40.5q-75 0 -116.5 -33t-41.5 -91
t43 -90t148 -55q85 -18 135 -44t73 -64.5t23 -94.5q0 -91 -64 -144t-175 -53q-124 0 -190 55zM256 869h55l99 -107h-49l-77 65l-78 -65h-49z" />
    <glyph glyph-name="scircumflex" unicode="&#x15d;" horiz-adv-x="451" 
d="M84 26q-54 41 -59 117l52 13q0 -55 40.5 -88t114.5 -33q64 0 99.5 26t35.5 75q0 45 -33.5 70.5t-109.5 35.5q-99 14 -137 51.5t-38 98.5q0 69 46 107t123 38q176 0 193 -152l-51 -13q-6 57 -40 86t-99 29q-53 0 -84.5 -22.5t-31.5 -68.5q0 -43 27 -66.5t96 -34.5
q106 -17 151 -55t45 -102q0 -69 -51.5 -111t-142.5 -42q-92 0 -146 41zM197 757h55l99 -132h-44l-82 88l-83 -88h-44z" />
    <glyph glyph-name="Scedilla" unicode="&#x15e;" horiz-adv-x="585" 
d="M249.5 -168q-22.5 3 -36.5 8l8 33q30 -7 58 -7q41 0 41 25q0 14 -17 22t-62 13l22 61q-200 18 -228 208l54 13q17 -84 65.5 -126.5t151.5 -42.5q87 0 133 38.5t46 103.5q0 59 -43.5 92.5t-148.5 56.5q-124 27 -177 73t-53 125q0 85 57 132.5t160 47.5q111 0 173.5 -51.5
t78.5 -140.5l-55 -13q-11 70 -60 110.5t-136 40.5q-75 0 -116.5 -33t-41.5 -91t43 -90t148 -55q85 -18 135 -44t73 -64.5t23 -94.5q0 -92 -63.5 -144.5t-174.5 -52.5l-12 -38q81 -9 81 -60q0 -31 -24 -44.5t-62 -13.5q-18 0 -40.5 3z" />
    <glyph glyph-name="scedilla" unicode="&#x15f;" horiz-adv-x="451" 
d="M180.5 -168q-22.5 3 -36.5 8l8 33q30 -7 58 -7q41 0 41 25q0 14 -17 22t-62 13l22 61q-76 8 -120.5 48t-48.5 108l52 13q0 -55 40.5 -88t114.5 -33q64 0 99.5 26t35.5 75q0 45 -33.5 70.5t-109.5 35.5q-99 14 -137 51.5t-38 98.5q0 69 46 107t123 38q176 0 193 -152
l-51 -13q-6 57 -40 86t-99 29q-53 0 -84.5 -22.5t-31.5 -68.5q0 -43 27 -66.5t96 -34.5q106 -17 151 -55t45 -102q0 -67 -49.5 -109t-136.5 -44l-12 -38q81 -9 81 -60q0 -31 -24 -44.5t-62 -13.5q-18 0 -40.5 3z" />
    <glyph glyph-name="Scaron" unicode="&#x160;" horiz-adv-x="585" 
d="M116 40q-66 55 -81 155l54 13q17 -84 65.5 -126.5t151.5 -42.5q87 0 133 38.5t46 103.5q0 59 -43.5 92.5t-148.5 56.5q-124 27 -177 73t-53 125q0 85 57 132.5t160 47.5q111 0 173.5 -51.5t78.5 -140.5l-55 -13q-11 70 -60 110.5t-136 40.5q-75 0 -116.5 -33t-41.5 -91
t43 -90t148 -55q85 -18 135 -44t73 -64.5t23 -94.5q0 -91 -64 -144t-175 -53q-124 0 -190 55zM206 868l78 -65l77 65h49l-99 -107h-55l-99 107h49z" />
    <glyph glyph-name="scaron" unicode="&#x161;" horiz-adv-x="451" 
d="M84 26q-54 41 -59 117l52 13q0 -55 40.5 -88t114.5 -33q64 0 99.5 26t35.5 75q0 45 -33.5 70.5t-109.5 35.5q-99 14 -137 51.5t-38 98.5q0 69 46 107t123 38q176 0 193 -152l-51 -13q-6 57 -40 86t-99 29q-53 0 -84.5 -22.5t-31.5 -68.5q0 -43 27 -66.5t96 -34.5
q106 -17 151 -55t45 -102q0 -69 -51.5 -111t-142.5 -42q-92 0 -146 41zM142 760l83 -88l82 88h44l-99 -132h-55l-99 132h44z" />
    <glyph glyph-name="uni0162" unicode="&#x162;" horiz-adv-x="534" 
d="M238 347l-2 292h-223v54h509v-54h-224l-2 -292l2 -347h-12l-17 -53q81 -9 81 -60q0 -31 -24 -44.5t-62 -13.5q-18 0 -40.5 3t-36.5 8l8 33q30 -7 58 -7q41 0 41 25q0 14 -17 22t-62 13l26 74h-5z" />
    <glyph glyph-name="uni0163" unicode="&#x163;" horiz-adv-x="340" 
d="M173.5 -168q-22.5 3 -36.5 8l8 33q30 -7 58 -7q41 0 41 25q0 14 -17 22t-62 13l22 63q-57 11 -77 54.5t-20 120.5v313l-85 -2v48h85v159h57l-1 -159h169v-48l-168 2v-319q0 -66 19.5 -94.5t68.5 -28.5q48 0 89 16l11 -45q-54 -21 -104 -21l-12 -38q81 -9 81 -60
q0 -31 -24 -44.5t-62 -13.5q-18 0 -40.5 3z" />
    <glyph glyph-name="Tcaron" unicode="&#x164;" horiz-adv-x="534" 
d="M238 347l-2 292h-223v54h509v-54h-224l-2 -292l2 -347h-62zM190 868l78 -65l77 65h49l-99 -107h-55l-99 107h49z" />
    <glyph glyph-name="tcaron" unicode="&#x165;" horiz-adv-x="340" 
d="M141.5 7.5q-30.5 22.5 -41 60.5t-10.5 96v313l-85 -2v48h85v159h57l-1 -159h169v-48l-168 2v-319q0 -66 19.5 -94.5t68.5 -28.5q48 0 89 16l11 -45q-56 -21 -106 -21q-57 0 -87.5 22.5zM258 814h52l-6 -214h-40z" />
    <glyph glyph-name="Tbar" unicode="&#x166;" horiz-adv-x="534" 
d="M238 296l-103 -1v47l103 -2v7l-2 292h-223v54h509v-54h-224l-2 -292v-7l107 2v-47l-107 1l2 -296h-62z" />
    <glyph glyph-name="tbar" unicode="&#x167;" horiz-adv-x="340" 
d="M141.5 7.5q-30.5 22.5 -41 60.5t-10.5 96v142l-90 -1v47l90 -1v126l-85 -2v48h85v159h57l-1 -159h169v-48l-168 2v-127l121 2v-47l-121 1v-148q0 -66 19.5 -94.5t68.5 -28.5q48 0 89 16l11 -45q-56 -21 -106 -21q-57 0 -87.5 22.5z" />
    <glyph glyph-name="Utilde" unicode="&#x168;" horiz-adv-x="649" 
d="M126.5 61q-66.5 76 -65.5 225l2 215l-2 192h62l-2 -192l2 -220q2 -242 201 -242q200 0 202 242l2 220l-2 192h62l-2 -192l2 -214q1 -150 -65.5 -226t-198.5 -76q-131 0 -197.5 76zM208 828q17 27 52 27q20 0 37 -8t39 -23q17 -11 27 -16t20 -5q18 0 24.5 13t7.5 39h44
q-1 -41 -17.5 -68t-51.5 -27q-20 0 -37 7.5t-40 22.5q-16 10 -27 15.5t-20 5.5q-18 0 -24.5 -12.5t-6.5 -38.5h-45q1 41 18 68z" />
    <glyph glyph-name="utilde" unicode="&#x169;" horiz-adv-x="562" 
d="M490 272l2 -272h-58l2 97h-2q-24 -51 -71 -81t-110 -30q-93 0 -138 54.5t-45 169.5v62l-2 251h58l-1 -251v-62q0 -88 35.5 -130.5t106.5 -42.5q46 0 84.5 24t61 66.5t22.5 96.5v48l-1 251h58zM167 704q17 27 52 27q20 0 37 -7.5t39 -21.5q3 -2 13 -8t18.5 -9t15.5 -3
q17 0 24 12.5t8 36.5h44q-1 -41 -17.5 -68t-51.5 -27q-20 0 -37.5 7.5t-39.5 21.5q-31 20 -47 20q-18 0 -24.5 -12.5t-6.5 -36.5h-45q1 41 18 68z" />
    <glyph glyph-name="Umacron" unicode="&#x16a;" horiz-adv-x="649" 
d="M126.5 61q-66.5 76 -65.5 225l2 215l-2 192h62l-2 -192l2 -220q2 -242 201 -242q200 0 202 242l2 220l-2 192h62l-2 -192l2 -214q1 -150 -65.5 -226t-198.5 -76q-131 0 -197.5 76zM178 808h294v-44h-294v44z" />
    <glyph glyph-name="umacron" unicode="&#x16b;" horiz-adv-x="562" 
d="M490 272l2 -272h-58l2 97h-2q-24 -51 -71 -81t-110 -30q-93 0 -138 54.5t-45 169.5v62l-2 251h58l-1 -251v-62q0 -88 35.5 -130.5t106.5 -42.5q46 0 84.5 24t61 66.5t22.5 96.5v48l-1 251h58zM157 685h254v-44h-254v44z" />
    <glyph glyph-name="Ubreve" unicode="&#x16c;" horiz-adv-x="649" 
d="M126.5 61q-66.5 76 -65.5 225l2 215l-2 192h62l-2 -192l2 -220q2 -242 201 -242q200 0 202 242l2 220l-2 192h62l-2 -192l2 -214q1 -150 -65.5 -226t-198.5 -76q-131 0 -197.5 76zM240 788.5q-29 29.5 -29 82.5h40q2 -33 18 -49t54 -16q40 0 56.5 15.5t18.5 49.5h40
q0 -54 -29.5 -83t-85.5 -29q-54 0 -83 29.5z" />
    <glyph glyph-name="ubreve" unicode="&#x16d;" horiz-adv-x="562" 
d="M490 272l2 -272h-58l2 97h-2q-24 -51 -71 -81t-110 -30q-93 0 -138 54.5t-45 169.5v62l-2 251h58l-1 -251v-62q0 -88 35.5 -130.5t106.5 -42.5q46 0 84.5 24t61 66.5t22.5 96.5v48l-1 251h58zM199 658q-29 32 -29 95h40q2 -42 18 -61t54 -19q40 0 56.5 19t18.5 61h40
q0 -63 -29.5 -95t-85.5 -32q-54 0 -83 32z" />
    <glyph glyph-name="Uring" unicode="&#x16e;" horiz-adv-x="649" 
d="M126.5 61q-66.5 76 -65.5 225l2 215l-2 192h62l-2 -192l2 -220q2 -242 201 -242q200 0 202 242l2 220l-2 192h62l-2 -192l2 -214q1 -150 -65.5 -226t-198.5 -76q-131 0 -197.5 76zM276.5 775.5q-17.5 16.5 -17.5 45.5t17.5 45.5t48.5 16.5t48.5 -16.5t17.5 -45.5
t-17.5 -45.5t-48.5 -16.5t-48.5 16.5zM301.5 798q8.5 -9 23.5 -9t23.5 9t8.5 23q0 15 -8.5 23.5t-23.5 8.5t-23.5 -8.5t-8.5 -23.5q0 -14 8.5 -23z" />
    <glyph glyph-name="uring" unicode="&#x16f;" horiz-adv-x="562" 
d="M490 272l2 -272h-58l2 97h-2q-24 -51 -71 -81t-110 -30q-93 0 -138 54.5t-45 169.5v62l-2 251h58l-1 -251v-62q0 -88 35.5 -130.5t106.5 -42.5q46 0 84.5 24t61 66.5t22.5 96.5v48l-1 251h58zM227 653q-21 19 -21 53t21 53t57 19q35 0 56 -19t21 -53t-21 -53t-56 -19
q-36 0 -57 19zM252 675.5q12 -11.5 32 -11.5t31.5 11.5t11.5 30.5q0 20 -11.5 31.5t-31.5 11.5t-32 -11.5t-12 -31.5q0 -19 12 -30.5z" />
    <glyph glyph-name="Uhungarumlaut" unicode="&#x170;" horiz-adv-x="649" 
d="M126.5 61q-66.5 76 -65.5 225l2 215l-2 192h62l-2 -192l2 -220q2 -242 201 -242q200 0 202 242l2 220l-2 192h62l-2 -192l2 -214q1 -150 -65.5 -226t-198.5 -76q-131 0 -197.5 76zM419 870h68l-88 -108h-39zM297 870h63l-76 -108h-44z" />
    <glyph glyph-name="uhungarumlaut" unicode="&#x171;" horiz-adv-x="562" 
d="M490 272l2 -272h-58l2 97h-2q-24 -51 -71 -81t-110 -30q-93 0 -138 54.5t-45 169.5v62l-2 251h58l-1 -251v-62q0 -88 35.5 -130.5t106.5 -42.5q46 0 84.5 24t61 66.5t22.5 96.5v48l-1 251h58zM385 767h61l-88 -132h-39zM263 767h56l-76 -132h-44z" />
    <glyph glyph-name="Uogonek" unicode="&#x172;" horiz-adv-x="649" 
d="M126.5 61q-66.5 76 -65.5 225l2 215l-2 192h62l-2 -192l2 -220q2 -242 201 -242q200 0 202 242l2 220l-2 192h62l-2 -192l2 -214q1 -179 -94 -253q-9 -7 -29 -19q-24 -18 -38 -38.5t-14 -38.5q0 -33 41 -33q18 0 36 5l9 -37q-26 -13 -60 -13t-55 16t-21 48q0 34 31 67
q-33 -6 -70 -6q-131 0 -197.5 76z" />
    <glyph glyph-name="uogonek" unicode="&#x173;" horiz-adv-x="562" 
d="M490 272l2 -272h-2q-34 -19 -56.5 -45t-22.5 -50q0 -33 41 -33q18 0 36 5l9 -37q-26 -13 -60 -13t-55 16t-21 48q0 56 84 109h-11l2 97h-2q-24 -51 -71 -81t-110 -30q-93 0 -138 54.5t-45 169.5v62l-2 251h58l-1 -251v-62q0 -88 35.5 -130.5t106.5 -42.5q46 0 84.5 24
t61 66.5t22.5 96.5v48l-1 251h58z" />
    <glyph glyph-name="Wcircumflex" unicode="&#x174;" horiz-adv-x="931" 
d="M125 347l-107 346h66l96 -346l79 -271h2l80 271l99 346h53l100 -346l81 -271h1l79 271l95 346h64l-106 -346l-102 -347h-63l-102 347l-73 245h-2l-73 -245l-102 -347h-63zM438 869h55l99 -107h-49l-77 65l-78 -65h-49z" />
    <glyph glyph-name="wcircumflex" unicode="&#x175;" horiz-adv-x="737" 
d="M8 523h59l134 -459h2l139 459h55l136 -459h2l138 459h56l-163 -523h-65l-132 437h-2l-134 -437h-65zM341 757h55l99 -132h-44l-82 88l-83 -88h-44z" />
    <glyph glyph-name="Ycircumflex" unicode="&#x176;" horiz-adv-x="570" 
d="M256 256l-248 437h69l207 -370h2l210 370h67l-249 -437l2 -256h-62zM258 869h55l99 -107h-49l-77 65l-78 -65h-49z" />
    <glyph glyph-name="ycircumflex" unicode="&#x177;" horiz-adv-x="493" 
d="M48 -162l10 47q27 -7 56 -7q35 0 58 27.5t51 98.5l-215 519h61l180 -444h2l175 444h59l-215 -540q-37 -92 -73.5 -123.5t-79.5 -31.5q-32 0 -69 10zM219 757h55l99 -132h-44l-82 88l-83 -88h-44z" />
    <glyph glyph-name="Ydieresis" unicode="&#x178;" horiz-adv-x="570" 
d="M256 256l-248 437h69l207 -370h2l210 370h67l-249 -437l2 -256h-62zM173 771.5q-11 10.5 -11 29.5q0 17 11 28t29 11q17 0 28 -11t11 -28q0 -18 -10.5 -29t-28.5 -11t-29 10.5zM342 829q11 11 29 11q17 0 28 -11t11 -28q0 -18 -10.5 -29t-28.5 -11t-29 10.5t-11 29.5
q0 17 11 28z" />
    <glyph glyph-name="Zacute" unicode="&#x179;" horiz-adv-x="575" 
d="M28 50l237 315l200 274h-428v54h504v-50l-235 -311l-203 -278h444v-54h-519v50zM250 762l56 107h71l-88 -107h-39z" />
    <glyph glyph-name="zacute" unicode="&#x17a;" horiz-adv-x="464" 
d="M28 45l330 428h-322v50h394v-45l-330 -428h337v-50h-409v45zM194 635l59 132h68l-88 -132h-39z" />
    <glyph glyph-name="Zdotaccent" unicode="&#x17b;" horiz-adv-x="575" 
d="M28 50l237 315l200 274h-428v54h504v-50l-235 -311l-203 -278h444v-54h-519v50zM259 770q-11 11 -11 29q0 19 11 29.5t29 10.5t29 -10.5t11 -29.5q0 -18 -11 -29t-29 -11t-29 11z" />
    <glyph glyph-name="zdotaccent" unicode="&#x17c;" horiz-adv-x="464" 
d="M28 45l330 428h-322v50h394v-45l-330 -428h337v-50h-409v45zM204 645.5q-11 10.5 -11 29.5q0 18 11 29t29 11t29 -11t11 -29q0 -19 -11 -29.5t-29 -10.5t-29 10.5z" />
    <glyph glyph-name="Zcaron" unicode="&#x17d;" horiz-adv-x="575" 
d="M28 50l237 315l200 274h-428v54h504v-50l-235 -311l-203 -278h444v-54h-519v50zM210 868l78 -65l77 65h49l-99 -107h-55l-99 107h49z" />
    <glyph glyph-name="zcaron" unicode="&#x17e;" horiz-adv-x="464" 
d="M28 45l330 428h-322v50h394v-45l-330 -428h337v-50h-409v45zM150 760l83 -88l82 88h44l-99 -132h-55l-99 132h44z" />
    <glyph glyph-name="florin" unicode="&#x192;" horiz-adv-x="521" 
d="M242 367l-103 -2l9 48h102l30 151q14 70 46 106.5t89 36.5q47 0 94 -22l-20 -44q-32 16 -67 16q-36 0 -56.5 -22t-29.5 -69l-30 -153h152l-10 -48l-150 2l-42 -225q-15 -77 -53.5 -116t-95.5 -39q-49 0 -94 20l20 46q40 -16 79 -16q30 0 51.5 24t33.5 81z" />
    <glyph glyph-name="AEacute" unicode="&#x1fc;" horiz-adv-x="910" 
d="M214 347l192 346h465v-54h-353l-1 -259h332v-53h-332l1 -273h363v-54h-424l1 202l-117 2l-144 -2l-111 -202h-73zM344 252l114 1l1 94l-2 292h-20l-161 -292l-51 -94zM601 762l56 107h71l-88 -107h-39z" />
    <glyph glyph-name="aeacute" unicode="&#x1fd;" horiz-adv-x="850" 
d="M83 26q-43 41 -43 107q0 89 69.5 128.5t222.5 39.5h54v19q0 84 -30.5 126.5t-98.5 42.5q-75 0 -112.5 -39t-36.5 -103l-51 13q0 83 54 130t146 47q132 0 168 -106q29 51 75.5 78.5t105.5 27.5q109 0 159.5 -80.5t50.5 -203.5h-372q2 -95 45.5 -156.5t120.5 -61.5
q61 0 99.5 37t50.5 107l51 -14q-14 -82 -66 -131t-135 -49q-70 0 -123 38.5t-79 107.5q-69 -146 -204 -146q-78 0 -121 41zM127.5 61q29.5 -26 82.5 -26q43 0 83.5 23t66.5 68.5t26 108.5v22h-41q-129 0 -188 -27.5t-59 -95.5q0 -47 29.5 -73zM758 300q-1 82 -40.5 134.5
t-111.5 52.5q-65 0 -108.5 -49.5t-51.5 -137.5h312zM392 635l59 132h68l-88 -132h-39z" />
    <glyph glyph-name="Oslashacute" unicode="&#x1fe;" horiz-adv-x="692" 
d="M148 53l-53 -68l-39 29l58 74q-39 47 -59 113t-20 146q0 111 38 192.5t108 125t165 43.5q120 0 200 -68l53 68l39 -29l-58 -74q77 -95 77 -258q0 -111 -38 -192.5t-108 -125.5t-165 -44q-119 0 -198 68zM152 137l358 457q-65 60 -164 60q-76 0 -132 -37t-86.5 -106
t-30.5 -164q0 -131 55 -210zM346 39q76 0 132.5 37t87 106.5t30.5 164.5q0 129 -54 209l-358 -457q65 -60 162 -60zM308 762l56 107h71l-88 -107h-39z" />
    <glyph glyph-name="oslashacute" unicode="&#x1ff;" horiz-adv-x="545" 
d="M122 36l-39 -49l-32 24l42 54q-59 75 -59 197q0 84 29 146t82.5 95.5t126.5 33.5q90 0 151 -50l39 49l33 -24l-43 -55q60 -72 60 -195q0 -84 -29 -146.5t-83.5 -96.5t-127.5 -34q-90 0 -150 51zM129 111l261 333q-48 43 -118 43q-83 0 -131.5 -60t-48.5 -165
q0 -92 37 -151zM272 35q84 0 133 60.5t49 166.5q0 92 -38 150l-261 -333q47 -44 117 -44zM235 635l59 132h68l-88 -132h-39z" />
    <glyph glyph-name="uni0218" unicode="&#x218;" horiz-adv-x="585" 
d="M116 40q-66 55 -81 155l54 13q17 -84 65.5 -126.5t151.5 -42.5q87 0 133 38.5t46 103.5q0 59 -43.5 92.5t-148.5 56.5q-124 27 -177 73t-53 125q0 85 57 132.5t160 47.5q111 0 173.5 -51.5t78.5 -140.5l-55 -13q-11 70 -60 110.5t-136 40.5q-75 0 -116.5 -33t-41.5 -91
t43 -90t148 -55q85 -18 135 -44t73 -64.5t23 -94.5q0 -91 -64 -144t-175 -53q-124 0 -190 55zM285.5 -133.5q12.5 10.5 9.5 23.5q-36 4 -36 32q0 14 10 23.5t28 9.5q20 0 31 -11t11 -32q0 -71 -89 -84l-7 23q30 5 42.5 15.5z" />
    <glyph glyph-name="uni0219" unicode="&#x219;" horiz-adv-x="451" 
d="M84 26q-54 41 -59 117l52 13q0 -55 40.5 -88t114.5 -33q64 0 99.5 26t35.5 75q0 45 -33.5 70.5t-109.5 35.5q-99 14 -137 51.5t-38 98.5q0 69 46 107t123 38q176 0 193 -152l-51 -13q-6 57 -40 86t-99 29q-53 0 -84.5 -22.5t-31.5 -68.5q0 -43 27 -66.5t96 -34.5
q106 -17 151 -55t45 -102q0 -69 -51.5 -111t-142.5 -42q-92 0 -146 41zM216.5 -133.5q12.5 10.5 9.5 23.5q-36 4 -36 32q0 14 10 23.5t28 9.5q20 0 31 -11t11 -32q0 -71 -89 -84l-7 23q30 5 42.5 15.5z" />
    <glyph glyph-name="uni021A" unicode="&#x21a;" horiz-adv-x="534" 
d="M238 347l-2 292h-223v54h509v-54h-224l-2 -292l2 -347h-62zM259.5 -133.5q12.5 10.5 9.5 23.5q-36 4 -36 32q0 14 10 23.5t28 9.5q20 0 31 -11t11 -32q0 -71 -89 -84l-7 23q30 5 42.5 15.5z" />
    <glyph glyph-name="uni021B" unicode="&#x21b;" horiz-adv-x="340" 
d="M141.5 7.5q-30.5 22.5 -41 60.5t-10.5 96v313l-85 -2v48h85v159h57l-1 -159h169v-48l-168 2v-319q0 -66 19.5 -94.5t68.5 -28.5q48 0 89 16l11 -45q-56 -21 -106 -21q-57 0 -87.5 22.5zM209.5 -133.5q12.5 10.5 9.5 23.5q-36 4 -36 32q0 14 10 23.5t28 9.5q20 0 31 -11
t11 -32q0 -71 -89 -84l-7 23q30 5 42.5 15.5z" />
    <glyph glyph-name="uni0237" unicode="&#x237;" horiz-adv-x="194" 
d="M-70 -151l12 43q29 -8 55 -8q35 0 52.5 24.5t17.5 85.5v126l-1 403h58l-2 -403v-114q0 -92 -29 -131.5t-85 -39.5q-40 0 -78 14z" />
    <glyph glyph-name="uni02B0" unicode="&#x2b0;" horiz-adv-x="418" 
d="M71 524l-1 264h59l-1 -153h1q13 27 42 44.5t67 17.5q56 0 83.5 -31.5t27.5 -99.5v-42l1 -152h-59l1 152v35q0 87 -74 87q-39 0 -64.5 -27t-25.5 -69v-26l1 -152h-59z" />
    <glyph glyph-name="uni02B2" unicode="&#x2b2;" horiz-adv-x="171" 
d="M-27 283l9 43q21 -7 37 -7q20 0 29.5 13t9.5 44v70l-1 243q18 -2 30 -2q13 0 29 2l-1 -243v-63q0 -60 -20.5 -86t-63.5 -26q-31 0 -58 12zM86 792q37 0 37 -32q0 -31 -37 -31t-37 31q0 32 37 32z" />
    <glyph glyph-name="uni02B7" unicode="&#x2b7;" horiz-adv-x="465" 
d="M8 689h59l68 -257h1l72 257h53l72 -257h1l67 257h57l-91 -317h-65l-68 240h-1l-69 -240h-66z" />
    <glyph glyph-name="uni02B8" unicode="&#x2b8;" horiz-adv-x="319" 
d="M31 277l11 44q13 -4 34 -4q20 0 32.5 12t25.5 43l-126 317h62l92 -245h1l89 245h60l-120 -314q-21 -58 -46.5 -82t-61.5 -24q-29 0 -53 8z" />
    <glyph glyph-name="circumflex" unicode="&#x2c6;" horiz-adv-x="313" 
d="M129 767h55l99 -132h-44l-82 88l-83 -88h-44z" />
    <glyph glyph-name="caron" unicode="&#x2c7;" horiz-adv-x="313" 
d="M74 760l83 -88l82 88h44l-99 -132h-55l-99 132h44z" />
    <glyph glyph-name="breve" unicode="&#x2d8;" horiz-adv-x="277" 
d="M54 658q-29 32 -29 95h40q2 -42 18 -61t54 -19q40 0 56.5 19t18.5 61h40q0 -63 -29.5 -95t-85.5 -32q-54 0 -83 32z" />
    <glyph glyph-name="dotaccent" unicode="&#x2d9;" horiz-adv-x="141" 
d="M42 645.5q-11 10.5 -11 29.5q0 18 11 29t29 11t29 -11t11 -29q0 -19 -11 -29.5t-29 -10.5t-29 10.5z" />
    <glyph glyph-name="ring" unicode="&#x2da;" horiz-adv-x="211" 
d="M50.5 653q-20.5 19 -20.5 51q0 33 20.5 52t55.5 19t55 -19t20 -52q0 -32 -20 -51t-55 -19t-55.5 19zM75.5 675q11.5 -11 30.5 -11t30 11t11 29q0 19 -11 30t-30 11q-20 0 -31 -11t-11 -30q0 -18 11.5 -29z" />
    <glyph glyph-name="ogonek" unicode="&#x2db;" horiz-adv-x="203" 
d="M51 -152q-21 16 -21 48q0 31 24 59.5t70 57.5l37 -7q-35 -19 -58 -45.5t-23 -50.5q0 -33 41 -33q18 0 36 5l9 -37q-26 -13 -60 -13t-55 16z" />
    <glyph glyph-name="tilde" unicode="&#x2dc;" horiz-adv-x="329" 
d="M48 704q17 27 52 27q20 0 37 -8t39 -23q17 -11 27 -16t20 -5q18 0 24.5 13t7.5 39h44q-1 -41 -17.5 -68t-51.5 -27q-20 0 -37 7.5t-40 22.5q-16 10 -27 15.5t-20 5.5q-18 0 -24.5 -12.5t-6.5 -38.5h-45q1 41 18 68z" />
    <glyph glyph-name="hungarumlaut" unicode="&#x2dd;" horiz-adv-x="297" 
d="M216 767h61l-88 -132h-39zM94 767h56l-76 -132h-44z" />
    <glyph glyph-name="uni02E1" unicode="&#x2e1;" horiz-adv-x="199" 
d="M71 584l-1 204h59l-1 -204l1 -212h-59z" />
    <glyph glyph-name="uni02E2" unicode="&#x2e2;" horiz-adv-x="320" 
d="M68 388q-34 25 -39 71l50 14q2 -30 23.5 -47.5t60.5 -17.5q32 0 50 13t18 37q0 22 -18 35t-58 18q-60 9 -86.5 32t-26.5 62q0 43 31.5 67.5t82.5 24.5q112 0 126 -92l-50 -13q-4 31 -22.5 46t-51.5 15q-26 0 -41.5 -11.5t-15.5 -33.5t15 -34t58 -19q61 -10 88 -33t27 -63
q0 -44 -33.5 -70t-93.5 -26t-94 25z" />
    <glyph glyph-name="uni02E3" unicode="&#x2e3;" horiz-adv-x="318" 
d="M119 535l-106 154h67l79 -120h1l79 120h64l-105 -155l112 -162h-67l-85 127h-1l-84 -127h-65z" />
    <glyph glyph-name="gravecomb" unicode="&#x300;" 
d="M20 767h67l60 -132h-39z" />
    <glyph glyph-name="acutecomb" unicode="&#x301;" 
d="M24 635l59 132h68l-88 -132h-39z" />
    <glyph glyph-name="uni0302" unicode="&#x302;" 
d="M129 757h55l99 -132h-44l-82 88l-83 -88h-44z" />
    <glyph glyph-name="tildecomb" unicode="&#x303;" 
d="M48 704q17 27 52 27q20 0 37 -7.5t39 -21.5q3 -2 13 -8t18.5 -9t15.5 -3q17 0 24 12.5t8 36.5h44q-1 -41 -17.5 -68t-51.5 -27q-20 0 -37.5 7.5t-39.5 21.5q-31 20 -47 20q-18 0 -24.5 -12.5t-6.5 -36.5h-45q1 41 18 68z" />
    <glyph glyph-name="uni0304" unicode="&#x304;" 
d="M50 685h254v-44h-254v44z" />
    <glyph glyph-name="uni0306" unicode="&#x306;" 
d="M54 658q-29 32 -29 95h40q2 -42 18 -61t54 -19q40 0 56.5 19t18.5 61h40q0 -63 -29.5 -95t-85.5 -32q-54 0 -83 32z" />
    <glyph glyph-name="uni0307" unicode="&#x307;" 
d="M42 645.5q-11 10.5 -11 29.5q0 18 11 29t29 11t29 -11t11 -29q0 -19 -11 -29.5t-29 -10.5t-29 10.5z" />
    <glyph glyph-name="uni0308" unicode="&#x308;" 
d="M26 645.5q-11 10.5 -11 28.5t11 28.5t29 10.5q17 0 28 -10.5t11 -28.5t-11 -28.5t-28 -10.5q-18 0 -29 10.5zM195 702.5q11 10.5 29 10.5q17 0 28 -10.5t11 -28.5t-11 -28.5t-28 -10.5q-18 0 -29 10.5t-11 28.5t11 28.5z" />
    <glyph glyph-name="hookabovecomb" unicode="&#x309;" 
d="M97 678.5q11 14.5 11 31.5q0 26 -27 26q-20 0 -42 -10l-9 30q10 6 26 10.5t30 4.5q32 0 47.5 -16t15.5 -41q0 -47 -61 -90l-22 25q20 15 31 29.5z" />
    <glyph glyph-name="uni030A" unicode="&#x30a;" 
d="M49 653q-21 19 -21 53t21 53t57 19q35 0 56 -19t21 -53t-21 -53t-56 -19q-36 0 -57 19zM74 675.5q12 -11.5 32 -11.5t31.5 11.5t11.5 30.5q0 20 -11.5 31.5t-31.5 11.5t-32 -11.5t-12 -31.5q0 -19 12 -30.5z" />
    <glyph glyph-name="uni030B" unicode="&#x30b;" 
d="M216 767h61l-88 -132h-39zM94 767h56l-76 -132h-44z" />
    <glyph glyph-name="uni030C" unicode="&#x30c;" 
d="M74 760l83 -88l82 88h44l-99 -132h-55l-99 132h44z" />
    <glyph glyph-name="uni030F" unicode="&#x30f;" 
d="M108 635l-88 132h61l66 -132h-39zM203 767l64 -132h-44l-76 132h56z" />
    <glyph glyph-name="uni0311" unicode="&#x311;" 
d="M222.5 726q29.5 -32 29.5 -95h-40q-2 42 -18.5 61t-56.5 19q-38 0 -54 -19t-18 -61h-40q0 63 29 95t83 32q56 0 85.5 -32z" />
    <glyph glyph-name="uni0313" unicode="&#x313;" 
d="M48 684q0 78 83 91l7 -23q-53 -10 -48 -50q19 1 29 -6.5t10 -21.5q0 -16 -10.5 -25.5t-28.5 -9.5q-42 0 -42 45z" />
    <glyph glyph-name="uni031B" unicode="&#x31b;" 
d="M106.5 529q26.5 6 37 19t10.5 36v54h46v-51q0 -54 -35 -79t-124 -25l-11 40q50 0 76.5 6z" />
    <glyph glyph-name="uni0326" unicode="&#x326;" 
d="M77.5 -133.5q12.5 10.5 9.5 23.5q-36 4 -36 32q0 14 10 23.5t28 9.5q20 0 31 -11t11 -32q0 -71 -89 -84l-7 23q30 5 42.5 15.5z" />
    <glyph glyph-name="uni0327" unicode="&#x327;" 
d="M66.5 -168q-22.5 3 -36.5 8l8 33q30 -7 58 -7q41 0 41 25q0 14 -17 22t-62 13l29 82l44 -2l-19 -59q81 -9 81 -60q0 -31 -24 -44.5t-62 -13.5q-18 0 -40.5 3z" />
    <glyph glyph-name="uni0328" unicode="&#x328;" 
d="M51 -152q-21 16 -21 48q0 59 94 115l37 -5q-35 -19 -58 -45.5t-23 -50.5q0 -33 41 -33q18 0 36 5l9 -37q-26 -13 -60 -13t-55 16z" />
    <glyph glyph-name="uni0335" unicode="&#x335;" 
d="M40 305l131 -2l137 2v-47l-136 1l-132 -1v47z" />
    <glyph glyph-name="uni0336" unicode="&#x336;" 
d="M35 305l316 -2l322 2v-47h-638v47z" />
    <glyph glyph-name="uni0337" unicode="&#x337;" 
d="M46 235l115 64l117 70l24 -41l-119 -67l-113 -67z" />
    <glyph glyph-name="uni0338" unicode="&#x338;" 
d="M424 536l33 -24l-412 -525l-32 24z" />
    <glyph glyph-name="pi" unicode="&#x3c0;" horiz-adv-x="584" 
d="M425 8.5q-22 23.5 -22 75.5v392h-252v-476h-55v476h-91v47h546v-47h-93v-387q0 -55 43 -55q30 0 67 15l11 -44q-49 -20 -85 -20q-47 0 -69 23.5z" />
    <glyph glyph-name="uni0401" unicode="&#x401;" horiz-adv-x="574" 
d="M78 347l-2 346h459v-54h-398l-1 -255h377v-54h-377l1 -276h408v-54h-469zM212 815.5q-11 10.5 -11 28.5t11 28.5t29 10.5q17 0 28 -10.5t11 -28.5t-11 -28.5t-28 -10.5q-18 0 -29 10.5zM381 872.5q11 10.5 29 10.5q17 0 28 -10.5t11 -28.5t-11 -28.5t-28 -10.5
q-18 0 -29 10.5t-11 28.5t11 28.5z" />
    <glyph glyph-name="uni0410" unicode="&#x410;" horiz-adv-x="636" 
d="M153 347l134 346h60l135 -346l142 -347h-67l-77 203l-163 1l-162 -1l-76 -203h-66zM317 252l145 1l-144 367h-2l-143 -367z" />
    <glyph glyph-name="uni0411" unicode="&#x411;" horiz-adv-x="595" 
d="M78 347l-2 346h434v-53h-372l-2 -237h195q117 0 175.5 -54t58.5 -147q0 -99 -63 -150.5t-170 -51.5h-256zM138 53h193q83 0 128.5 38t45.5 111q0 72 -43.5 110t-127.5 38h-198z" />
    <glyph glyph-name="uni0412" unicode="&#x412;" horiz-adv-x="615" 
d="M78 347l-2 346h271q104 0 159 -43t55 -130q0 -68 -34.5 -108.5t-95.5 -52.5v-3q71 -7 112.5 -49.5t41.5 -116.5q0 -91 -63.5 -140.5t-174.5 -49.5h-271zM138 53h208q86 0 132.5 36t46.5 104q0 137 -183 137h-206zM342 383q84 0 122 34.5t38 94.5q0 66 -41.5 97t-117.5 31
h-205l-2 -257h206z" />
    <glyph glyph-name="uni0413" unicode="&#x413;" horiz-adv-x="500" 
d="M78 346l-2 347h411v-54h-350l-2 -293l3 -346h-62z" />
    <glyph glyph-name="uni0414" unicode="&#x414;" horiz-adv-x="690" 
d="M13 54h40q20 0 34 12t23 52q33 134 37 575h448l-2 -346l2 -293h72v-177h-59v123h-536v-123h-59v177zM533 54l2 293l-2 292l-165 3l-162 -3q-13 -422 -35 -515q-4 -26 -10.5 -43t-18.5 -25v-2h391z" />
    <glyph glyph-name="uni0415" unicode="&#x415;" horiz-adv-x="574" 
d="M78 347l-2 346h459v-54h-398l-1 -255h377v-54h-377l1 -276h408v-54h-469z" />
    <glyph glyph-name="uni0416" unicode="&#x416;" horiz-adv-x="877" 
d="M537 327h-70l2 -327h-62l3 327h-70l-255 -327h-72l277 356l-255 337h73l232 -314h70l-3 314h62l-2 -314h70l231 314h74l-255 -337l278 -356h-72z" />
    <glyph glyph-name="uni0417" unicode="&#x417;" horiz-adv-x="584" 
d="M91 610.5q28 43.5 81 70.5t128 27q106 0 164.5 -47t58.5 -131q0 -64 -36.5 -109.5t-99.5 -58.5q69 -12 111.5 -57t42.5 -114q0 -98 -64.5 -152t-183.5 -54q-112 0 -177.5 54.5t-77.5 147.5l54 15q27 -163 202 -163q90 0 138.5 39t48.5 111q0 81 -58.5 115t-148.5 34h-74
v47h74q189 0 189 140q0 61 -43 95t-120 34q-93 0 -137 -47t-51 -104l-54 14q5 50 33 93.5z" />
    <glyph glyph-name="uni0418" unicode="&#x418;" horiz-adv-x="674" 
d="M536 0l2 336v264h-2l-186 -283l-203 -317h-71l2 347l-2 346h62l-3 -335v-265h3l172 259l217 341h71l-2 -347l2 -346h-62z" />
    <glyph glyph-name="uni0419" unicode="&#x419;" horiz-adv-x="674" 
d="M536 0l2 336v264h-2l-186 -283l-203 -317h-71l2 347l-2 346h62l-3 -335v-265h3l172 259l217 341h71l-2 -347l2 -346h-62zM262 789q-29 29 -29 85h40q2 -39 18 -56t54 -17q40 0 56.5 17t18.5 56h40q0 -57 -29 -85.5t-86 -28.5q-54 0 -83 29z" />
    <glyph glyph-name="uni041A" unicode="&#x41a;" horiz-adv-x="616" 
d="M251 327h-115l2 -327h-62l2 347l-2 346h62l-2 -314h115l252 314h77l-280 -338l303 -355h-72z" />
    <glyph glyph-name="uni041B" unicode="&#x41b;" horiz-adv-x="682" 
d="M13 -3l11 51q24 -6 40 -6q19 0 33.5 14.5t23.5 53.5q33 136 37 583h448l-2 -346l2 -347h-62l2 347l-2 292l-165 3l-162 -3q-9 -417 -37 -545q-14 -63 -43.5 -84.5t-71.5 -21.5q-24 0 -52 9z" />
    <glyph glyph-name="uni041C" unicode="&#x41c;" horiz-adv-x="803" 
d="M78 345l-2 348h77l141 -359l107 -264h2l106 264l140 359h78l-2 -347l2 -346h-60l3 335v249h-3l-111 -273l-123 -311h-62l-124 311l-111 273h-3v-249l3 -335h-60z" />
    <glyph glyph-name="uni041D" unicode="&#x41d;" horiz-adv-x="691" 
d="M78 347l-2 346h62l-2 -314h419l-2 314h62l-3 -346l3 -347h-62l2 325h-419l2 -325h-62z" />
    <glyph glyph-name="uni041E" unicode="&#x41e;" horiz-adv-x="692" 
d="M180.5 29q-70.5 44 -108 125.5t-37.5 192.5t38 192.5t108 125t165 43.5q96 0 166 -43.5t107.5 -124.5t37.5 -193q0 -111 -38 -192.5t-108 -125.5t-165 -44t-165.5 44zM127 182.5q30 -69.5 86 -106.5t133 -37q76 0 132.5 37t87 106.5t30.5 164.5q0 145 -67 226t-183 81
q-76 0 -132 -37t-86.5 -106t-30.5 -164t30 -164.5z" />
    <glyph glyph-name="uni041F" unicode="&#x41f;" horiz-adv-x="686" 
d="M550 347l-2 292l-202 3l-208 -3l-2 -292l2 -347h-62l2 347l-2 346h534l-3 -346l3 -347h-62z" />
    <glyph glyph-name="uni0420" unicode="&#x420;" horiz-adv-x="596" 
d="M78 347l-2 346h246q119 0 182.5 -53t63.5 -159q0 -110 -63 -165.5t-183 -55.5h-186l3 -260h-63zM327 313q87 0 133.5 42.5t46.5 125.5q0 79 -46.5 119t-133.5 40h-190l-1 -327h191z" />
    <glyph glyph-name="uni0421" unicode="&#x421;" horiz-adv-x="641" 
d="M177.5 29q-68.5 44 -105.5 126t-37 192t37 191.5t105.5 125.5t160.5 44q116 0 186 -63t88 -165l-56 -15q-14 84 -70.5 136.5t-146.5 52.5q-74 0 -128.5 -37t-84 -106.5t-29.5 -163.5t29.5 -163.5t84.5 -107t129 -37.5q95 0 150 55.5t69 153.5l57 -15
q-19 -115 -89.5 -181.5t-187.5 -66.5q-93 0 -161.5 44z" />
    <glyph glyph-name="uni0422" unicode="&#x422;" horiz-adv-x="534" 
d="M238 347l-2 292h-223v54h509v-54h-224l-2 -292l2 -347h-62z" />
    <glyph glyph-name="uni0423" unicode="&#x423;" horiz-adv-x="566" 
d="M72 -5l7 52q27 -5 42 -5q23 0 41.5 10t40.5 40t51 88l-241 513h65l206 -445h2l211 445h67l-253 -526q-38 -78 -67.5 -116.5t-56 -50.5t-62.5 -12q-28 0 -53 7z" />
    <glyph glyph-name="uni0424" unicode="&#x424;" horiz-adv-x="761" 
d="M351 73q-148 4 -232 75t-84 199t84 199t232 75v80h60l-1 -80q149 -4 232.5 -75t83.5 -199t-83.5 -199t-232.5 -75l1 -80h-60v80zM163.5 185.5q68.5 -57.5 188.5 -61.5l1 223l-1 222q-120 -4 -188.5 -61.5t-68.5 -160.5q0 -104 68.5 -161.5zM410 124q120 4 188 61.5
t68 161.5q0 103 -68 160.5t-188 61.5l-2 -222z" />
    <glyph glyph-name="uni0425" unicode="&#x425;" horiz-adv-x="609" 
d="M267 363l-232 330h71l198 -286h2l200 286h69l-232 -330l253 -363h-70l-221 316h-2l-222 -316h-68z" />
    <glyph glyph-name="uni0426" unicode="&#x426;" horiz-adv-x="695" 
d="M78 346l-2 347h62l-2 -347l2 -292l208 -3l192 3l2 292l-2 347h62l-3 -347l2 -292h73v-177h-59v123h-537z" />
    <glyph glyph-name="uni0427" unicode="&#x427;" horiz-adv-x="614" 
d="M150.5 286.5q-55.5 26.5 -81.5 85t-26 156.5v165h60v-170q0 -77 19.5 -122.5t63 -66t115.5 -20.5q100 0 177 24v9l-2 346h62l-3 -346l3 -347h-62l2 285q-42 -12 -90 -18.5t-92 -6.5q-90 0 -145.5 26.5z" />
    <glyph glyph-name="uni0428" unicode="&#x428;" horiz-adv-x="967" 
d="M78 346l-2 347h62l-2 -347l2 -292l158 -3l157 3l2 292l-2 347h62l-3 -347l2 -292l158 -3l157 3l2 292l-2 347h62l-2 -347l2 -346h-815z" />
    <glyph glyph-name="uni0429" unicode="&#x429;" horiz-adv-x="976" 
d="M78 346l-2 347h62l-2 -347l2 -292l158 -3l152 3l2 292l-2 347h62l-3 -347l2 -292l158 -3l152 3l2 292l-2 347h62l-2 -347l2 -292h73v-177h-59v123h-819z" />
    <glyph glyph-name="uni042A" unicode="&#x42a;" horiz-adv-x="682" 
d="M187 377l-2 262h-172v54h233l-2 -265h166q123 0 187 -56.5t64 -157.5q0 -106 -67 -160t-177 -54h-232zM246 53h169q85 0 135.5 40.5t50.5 120.5t-49 120.5t-139 40.5h-169z" />
    <glyph glyph-name="uni042B" unicode="&#x42b;" horiz-adv-x="805" 
d="M78 377l-2 316h62l-2 -265h158q123 0 187 -56.5t64 -157.5q0 -106 -67 -160t-177 -54h-225zM138 53h161q85 0 135.5 40.5t50.5 120.5t-49 120.5t-139 40.5h-161zM669 347l-2 346h62l-2 -346l2 -347h-62z" />
    <glyph glyph-name="uni042C" unicode="&#x42c;" horiz-adv-x="581" 
d="M78 377l-2 316h62l-2 -265h176q122 0 185 -56.5t63 -157.5q0 -106 -67 -160t-175 -54h-242zM138 53h179q84 0 133.5 40.5t49.5 120.5t-48 120.5t-137 40.5h-179z" />
    <glyph glyph-name="uni042D" unicode="&#x42d;" horiz-adv-x="641" 
d="M114 49.5q-70 64.5 -89 173.5l57 15q14 -93 69 -146t155 -53q69 0 121.5 34.5t83 99t33.5 152.5l-167 1l-180 -1v54l180 -2l166 2q-7 128 -69.5 201.5t-162.5 73.5q-96 0 -151 -53.5t-69 -145.5l-57 15q19 111 87 174.5t190 63.5q89 0 155.5 -44t103 -125.5t36.5 -191.5
t-37 -192t-104.5 -126t-158.5 -44q-122 0 -192 64.5z" />
    <glyph glyph-name="uni042E" unicode="&#x42e;" horiz-adv-x="904" 
d="M412 26q-67 41 -105 118t-42 181h-129l2 -325h-62l2 347l-2 346h62l-2 -314h130q5 101 44 175.5t105 114t152 39.5q91 0 159.5 -43.5t105.5 -125t37 -192.5q0 -110 -37.5 -192t-106 -126t-158.5 -44q-88 0 -155 41zM356 182.5q30 -69.5 84.5 -106.5t126.5 -37
q71 0 125.5 37t84.5 106.5t30 164.5q0 96 -29.5 165t-84 105.5t-126.5 36.5t-126.5 -37t-84.5 -106t-30 -164t30 -164.5z" />
    <glyph glyph-name="uni042F" unicode="&#x42f;" horiz-adv-x="620" 
d="M481 0l3 285h-176q-74 0 -128 -37t-62 -123q-9 -93 -16 -125h-62q14 60 19 133q6 73 36.5 116t87.5 63q-63 18 -97 63.5t-34 112.5q0 101 64 153t182 52h246l-2 -346l2 -347h-63zM162 377.5q49 -39.5 141 -39.5h181l-1 302h-190q-87 0 -133.5 -39t-46.5 -113
q0 -71 49 -110.5z" />
    <glyph glyph-name="uni0430" unicode="&#x430;" horiz-adv-x="533" 
d="M84 26.5q-44 41.5 -44 109.5q0 87 71 126t233 39h53v19q0 83 -32.5 126t-108.5 43t-114 -42.5t-37 -107.5l-51 13q0 84 55 134.5t147 50.5q98 0 146.5 -51t48.5 -157v-237q0 -30 10 -43t33 -13q13 0 23 3l8 -41q-23 -7 -44 -7q-35 0 -55 23.5t-20 70.5q0 19 2 36h-2
q-22 -62 -73 -99t-124 -37q-81 0 -125 41.5zM128.5 61q30.5 -26 86.5 -26q49 0 90.5 23t66.5 68t25 109v22h-41q-92 0 -148 -11.5t-83 -38.5t-27 -73q0 -47 30.5 -73z" />
    <glyph glyph-name="uni0431" unicode="&#x431;" horiz-adv-x="552" 
d="M40 294q0 150 30 232.5t84.5 116.5t140.5 43l54 6l23 3q73 8 101 13v-48q-94 -13 -121 -16l-50 -5q-64 -6 -106 -30.5t-67.5 -79.5t-31.5 -150q26 56 76.5 89t118.5 33q64 0 115.5 -30.5t81.5 -89t30 -138.5q0 -77 -28.5 -135.5t-81 -90.5t-124.5 -32q-245 0 -245 309z
M148 90q47 -55 138 -55q79 0 128 52t49 156q0 103 -49.5 156t-128.5 53q-56 0 -98 -28t-64 -75.5t-22 -104.5q0 -99 47 -154z" />
    <glyph glyph-name="uni0432" unicode="&#x432;" horiz-adv-x="516" 
d="M72 262l-2 261h219q89 0 131.5 -31t42.5 -103q0 -48 -27.5 -79t-76.5 -39v-2q58 -6 90.5 -38.5t32.5 -88.5q0 -142 -194 -142h-218zM128 49h160q73 0 105.5 24t32.5 74q0 49 -34.5 73t-111.5 24h-153zM270 293q76 0 107 24t31 70q0 47 -28 67.5t-94 20.5h-158l-1 -182
h143z" />
    <glyph glyph-name="uni0433" unicode="&#x433;" horiz-adv-x="396" 
d="M72 251l-2 272h318v-48h-261v-222l1 -253h-58z" />
    <glyph glyph-name="uni0434" unicode="&#x434;" horiz-adv-x="584" 
d="M15 51h27q27 0 41.5 23t19.5 79q15 165 19 370h368l-3 -261l2 -211h68v-174h-53v123h-436v-123h-53v174zM431 51l1 211l-1 210l-131 1l-123 -1q-5 -177 -18 -321q-3 -37 -11.5 -61t-25.5 -37v-2h309z" />
    <glyph glyph-name="uni0435" unicode="&#x435;" horiz-adv-x="517" 
d="M145 19q-53 34 -82 96.5t-29 145.5q0 127 62.5 201.5t170.5 74.5q113 0 165 -81t52 -203h-392q2 -100 49 -159t129 -59q63 0 104 37t54 107l51 -14q-15 -82 -69.5 -131t-139.5 -49q-72 0 -125 34zM425 300q-1 80 -42 133.5t-116 53.5q-73 0 -119 -49t-54 -138h331z" />
    <glyph glyph-name="uni0436" unicode="&#x436;" horiz-adv-x="691" 
d="M423 239h-50l2 -239h-58l1 239h-49l-189 -239h-72l218 267l-185 256h69l159 -231h49l-1 231h58l-2 -231h49l159 231h70l-185 -256l218 -267h-73z" />
    <glyph glyph-name="uni0437" unicode="&#x437;" horiz-adv-x="475" 
d="M91 25.5q-55 40.5 -66 112.5l53 14q21 -117 160 -117q70 0 108 27.5t38 79.5q0 58 -46 82t-116 24h-65v48h65q70 0 108.5 23.5t38.5 76.5q0 44 -33.5 67.5t-93.5 23.5q-74 0 -108 -33.5t-40 -74.5l-53 14q7 60 58.5 102t143.5 42q87 0 135.5 -36t48.5 -100q0 -48 -29 -83
t-79 -45q57 -10 90 -45t33 -86q0 -75 -53 -116t-150 -41q-93 0 -148 40.5z" />
    <glyph glyph-name="uni0438" unicode="&#x438;" horiz-adv-x="564" 
d="M72 262l-1 261h58l-2 -246l1 -195h2l304 441h60l-1 -261l1 -262h-58l2 246v195h-3l-304 -441h-61z" />
    <glyph glyph-name="uni0439" unicode="&#x439;" horiz-adv-x="564" 
d="M72 262l-1 261h58l-2 -246l1 -195h2l304 441h60l-1 -261l1 -262h-58l2 246v195h-3l-304 -441h-61zM198 658q-29 32 -29 95h40q2 -42 18 -61t54 -19q40 0 56.5 19t18.5 61h40q0 -63 -29.5 -95t-85.5 -32q-54 0 -83 32z" />
    <glyph glyph-name="uni043A" unicode="&#x43a;" horiz-adv-x="495" 
d="M72 264l-2 259h58l-1 -231h84l173 231h70l-196 -256l229 -267h-74l-202 239h-84l1 -239h-58z" />
    <glyph glyph-name="uni043B" unicode="&#x43b;" horiz-adv-x="577" 
d="M8 -6l11 47q20 -5 38 -5q28 0 42 22.5t20 78.5q16 159 20 386h368l-3 -261l3 -262h-59l1 262l-1 210l-133 1l-120 -1q-2 -74 -7 -169t-13 -168q-8 -76 -33.5 -112.5t-79.5 -36.5q-29 0 -54 8z" />
    <glyph glyph-name="uni043C" unicode="&#x43c;" horiz-adv-x="668" 
d="M72 259l-2 264h66l197 -456h1l83 194l113 262h68l-2 -260l2 -263h-56l2 247v185h-2l-87 -202l-100 -230h-43l-100 230l-87 202h-3l1 -184l2 -248h-55z" />
    <glyph glyph-name="uni043D" unicode="&#x43d;" horiz-adv-x="576" 
d="M448 240l-159 1l-163 -1l3 -240h-59l2 262l-2 261h59l-3 -232l163 -1l159 1l-1 232h59l-3 -261l3 -262h-59z" />
    <glyph glyph-name="uni043E" unicode="&#x43e;" horiz-adv-x="545" 
d="M145.5 19q-53.5 34 -82.5 96.5t-29 146.5t29 146t82.5 95.5t126.5 33.5t127.5 -33.5t83.5 -95.5t29 -146t-29 -146.5t-83.5 -96.5t-127.5 -34t-126.5 34zM140.5 95.5q48.5 -60.5 131.5 -60.5q84 0 133 60.5t49 166.5q0 105 -49 165t-133 60q-83 0 -131.5 -60t-48.5 -165
q0 -106 48.5 -166.5z" />
    <glyph glyph-name="uni043F" unicode="&#x43f;" horiz-adv-x="568" 
d="M441 262l-2 211l-150 1l-161 -1l-2 -211l3 -262h-59l2 262l-2 261h428l-2 -261l2 -262h-59z" />
    <glyph glyph-name="uni0440" unicode="&#x440;" horiz-adv-x="569" 
d="M72 242l-2 281h59l-1 -103h2q19 48 66.5 82.5t118.5 34.5q104 0 162.5 -72.5t58.5 -202.5t-58 -203.5t-163 -73.5q-70 0 -118 35.5t-68 83.5h-2l2 -264h-59zM152 131.5q25 -50.5 65 -73.5t87 -23q82 0 128 60t46 167t-46 166.5t-128 59.5q-45 0 -85.5 -23.5t-66 -74.5
t-25.5 -129q0 -79 25 -129.5z" />
    <glyph glyph-name="uni0441" unicode="&#x441;" horiz-adv-x="501" 
d="M145 19q-53 34 -82 96t-29 146t29 146.5t81.5 96t123.5 33.5q84 0 139 -49t69 -130l-51 -14q-12 69 -53.5 106t-103.5 37q-80 0 -128 -61t-48 -165t47 -165t130 -61q62 0 103 37t53 106l51 -13q-14 -81 -69 -130.5t-138 -49.5q-71 0 -124 34z" />
    <glyph glyph-name="uni0442" unicode="&#x442;" horiz-adv-x="426" 
d="M187 260l-1 215h-182v48h419v-48h-180l-1 -215l1 -260h-57z" />
    <glyph glyph-name="uni0443" unicode="&#x443;" horiz-adv-x="493" 
d="M48 -162l10 47q27 -7 56 -7q35 0 58 27.5t51 98.5l-215 519h61l180 -444h2l175 444h59l-215 -540q-37 -92 -73.5 -123.5t-79.5 -31.5q-32 0 -69 10z" />
    <glyph glyph-name="uni0444" unicode="&#x444;" horiz-adv-x="704" 
d="M324 -15q-86 1 -151.5 35.5t-102 97t-36.5 144.5t36.5 143.5t102 96t151.5 35.5l-1 157h58v-157q86 -1 151.5 -35.5t102 -96t36.5 -143.5t-36 -144t-102 -96.5t-152 -36.5v-145h-58zM121 143q29 -51 82 -79t121 -29l1 239l-1 213q-68 -1 -121 -29t-82 -78.5t-29 -117.5
q0 -68 29 -119zM381 35q68 1 121 29t82 79t29 119q0 67 -29 117.5t-82 78.5t-121 29l-1 -213z" />
    <glyph glyph-name="uni0445" unicode="&#x445;" horiz-adv-x="481" 
d="M206 269l-188 254h68l155 -211h2l153 211h66l-187 -254l199 -269h-68l-167 225h-2l-164 -225h-65z" />
    <glyph glyph-name="uni0446" unicode="&#x446;" horiz-adv-x="581" 
d="M72 262l-2 261h59l-3 -261l2 -211l161 -2l139 2l1 211l-1 261h59l-3 -261l2 -211h68v-174h-53v123h-431z" />
    <glyph glyph-name="uni0447" unicode="&#x447;" horiz-adv-x="504" 
d="M84 236q-43 50 -43 159v128h57v-127q0 -58 12 -92t42.5 -50.5t86.5 -16.5q66 0 138 15v10l-1 261h58l-2 -261l2 -262h-58l1 205q-80 -19 -151 -19q-99 0 -142 50z" />
    <glyph glyph-name="uni0448" unicode="&#x448;" horiz-adv-x="828" 
d="M72 262l-2 261h59l-3 -261l2 -211l129 -2l128 2l1 211l-2 261h59l-2 -261l2 -211l129 -2l127 2l1 211l-1 261h59l-3 -261l3 -262h-688z" />
    <glyph glyph-name="uni0449" unicode="&#x449;" horiz-adv-x="842" 
d="M762 0h-692l2 262l-2 261h59l-3 -261l2 -211l129 -2l123 2l1 211l-2 261h59l-2 -261l2 -211l129 -2l122 2l1 211l-1 261h59l-3 -261l2 -211h68v-174h-53v123z" />
    <glyph glyph-name="uni044A" unicode="&#x44a;" horiz-adv-x="567" 
d="M172 262l-2 212h-167v49h225l-1 -200h126q194 0 194 -161q0 -162 -194 -162h-183zM228 49h125q138 0 138 113q0 112 -138 112h-126z" />
    <glyph glyph-name="uni044B" unicode="&#x44b;" horiz-adv-x="698" 
d="M72 262l-2 261h58l-1 -200h126q194 0 194 -161q0 -162 -194 -162h-183zM128 49h125q138 0 138 113q0 112 -138 112h-126zM572 262l-2 261h58l-1 -261l1 -262h-58z" />
    <glyph glyph-name="uni044C" unicode="&#x44c;" horiz-adv-x="477" 
d="M72 262l-2 261h58l-1 -200h136q194 0 194 -161q0 -162 -194 -162h-193zM128 49h135q138 0 138 113q0 112 -138 112h-136z" />
    <glyph glyph-name="uni044D" unicode="&#x44d;" horiz-adv-x="501" 
d="M94 34q-54 49 -69 131l51 13q13 -70 53.5 -106.5t104.5 -36.5q78 0 124 55t51 150l-101 1l-138 -1v51l138 -1l101 1q-7 91 -53.5 143.5t-120.5 52.5q-65 0 -105.5 -36.5t-53.5 -106.5l-51 14q15 82 69 130.5t141 48.5q71 0 123.5 -33.5t81 -96t28.5 -146.5t-29 -146
t-82 -96t-123 -34q-86 0 -140 49z" />
    <glyph glyph-name="uni044E" unicode="&#x44e;" horiz-adv-x="747" 
d="M72 262l-2 261h58l-1 -232l74 -1l51 1q7 114 69 180t161 66q70 0 122.5 -33.5t81 -95.5t28.5 -146t-28.5 -146.5t-81 -96.5t-122.5 -34q-101 0 -163 68.5t-67 186.5l-51 1l-74 -1l1 -240h-58zM356 96q47 -61 126 -61t126.5 61t47.5 166q0 104 -47.5 164.5t-126.5 60.5
t-126 -60.5t-47 -164.5q0 -105 47 -166z" />
    <glyph glyph-name="uni044F" unicode="&#x44f;" horiz-adv-x="515" 
d="M50 102q5 53 29 84t70 45q-52 15 -78.5 49.5t-26.5 84.5q0 158 209 158h192l-2 -261l2 -262h-60l2 208h-133q-56 0 -98 -26t-48 -87q-1 -15 -5 -44.5t-8 -50.5h-61q12 54 16 102zM140.5 285q37.5 -28 108.5 -28h138l-1 216h-138q-73 0 -109 -26.5t-36 -82.5
q0 -51 37.5 -79z" />
    <glyph glyph-name="uni0451" unicode="&#x451;" horiz-adv-x="517" 
d="M145 19q-53 34 -82 96.5t-29 145.5q0 127 62.5 201.5t170.5 74.5q113 0 165 -81t52 -203h-392q2 -100 49 -159t129 -59q63 0 104 37t54 107l51 -14q-15 -82 -69.5 -131t-139.5 -49q-72 0 -125 34zM425 300q-1 80 -42 133.5t-116 53.5q-73 0 -119 -49t-54 -138h331z
M156 645.5q-11 10.5 -11 28.5t11 28.5t29 10.5q17 0 28 -10.5t11 -28.5t-11 -28.5t-28 -10.5q-18 0 -29 10.5zM325 702.5q11 10.5 29 10.5q17 0 28 -10.5t11 -28.5t-11 -28.5t-28 -10.5q-18 0 -29 10.5t-11 28.5t11 28.5z" />
    <glyph glyph-name="Wgrave" unicode="&#x1e80;" horiz-adv-x="931" 
d="M125 347l-107 346h66l96 -346l79 -271h2l80 271l99 346h53l100 -346l81 -271h1l79 271l95 346h64l-106 -346l-102 -347h-63l-102 347l-73 245h-2l-73 -245l-102 -347h-63zM357 869h71l56 -107h-39z" />
    <glyph glyph-name="wgrave" unicode="&#x1e81;" horiz-adv-x="737" 
d="M8 523h59l134 -459h2l139 459h55l136 -459h2l138 459h56l-163 -523h-65l-132 437h-2l-134 -437h-65zM260 767h67l60 -132h-39z" />
    <glyph glyph-name="Wacute" unicode="&#x1e82;" horiz-adv-x="931" 
d="M125 347l-107 346h66l96 -346l79 -271h2l80 271l99 346h53l100 -346l81 -271h1l79 271l95 346h64l-106 -346l-102 -347h-63l-102 347l-73 245h-2l-73 -245l-102 -347h-63zM428 762l56 107h71l-88 -107h-39z" />
    <glyph glyph-name="wacute" unicode="&#x1e83;" horiz-adv-x="737" 
d="M8 523h59l134 -459h2l139 459h55l136 -459h2l138 459h56l-163 -523h-65l-132 437h-2l-134 -437h-65zM331 635l59 132h68l-88 -132h-39z" />
    <glyph glyph-name="Wdieresis" unicode="&#x1e84;" horiz-adv-x="931" 
d="M125 347l-107 346h66l96 -346l79 -271h2l80 271l99 346h53l100 -346l81 -271h1l79 271l95 346h64l-106 -346l-102 -347h-63l-102 347l-73 245h-2l-73 -245l-102 -347h-63zM353 771.5q-11 10.5 -11 29.5q0 17 11 28t29 11q17 0 28 -11t11 -28q0 -18 -10.5 -29t-28.5 -11
t-29 10.5zM522 829q11 11 29 11q17 0 28 -11t11 -28q0 -18 -10.5 -29t-28.5 -11t-29 10.5t-11 29.5q0 17 11 28z" />
    <glyph glyph-name="wdieresis" unicode="&#x1e85;" horiz-adv-x="737" 
d="M8 523h59l134 -459h2l139 459h55l136 -459h2l138 459h56l-163 -523h-65l-132 437h-2l-134 -437h-65zM256 645.5q-11 10.5 -11 28.5t11 28.5t29 10.5q17 0 28 -10.5t11 -28.5t-11 -28.5t-28 -10.5q-18 0 -29 10.5zM425 702.5q11 10.5 29 10.5q17 0 28 -10.5t11 -28.5
t-11 -28.5t-28 -10.5q-18 0 -29 10.5t-11 28.5t11 28.5z" />
    <glyph glyph-name="Ygrave" unicode="&#x1ef2;" horiz-adv-x="570" 
d="M256 256l-248 437h69l207 -370h2l210 370h67l-249 -437l2 -256h-62zM177 869h71l56 -107h-39z" />
    <glyph glyph-name="ygrave" unicode="&#x1ef3;" horiz-adv-x="493" 
d="M48 -162l10 47q27 -7 56 -7q35 0 58 27.5t51 98.5l-215 519h61l180 -444h2l175 444h59l-215 -540q-37 -92 -73.5 -123.5t-79.5 -31.5q-32 0 -69 10zM138 767h67l60 -132h-39z" />
    <glyph glyph-name="uni2002" unicode="&#x2002;" horiz-adv-x="500" 
 />
    <glyph glyph-name="uni2003" unicode="&#x2003;" horiz-adv-x="1000" 
 />
    <glyph glyph-name="uni2004" unicode="&#x2004;" horiz-adv-x="333" 
 />
    <glyph glyph-name="uni2005" unicode="&#x2005;" horiz-adv-x="250" 
 />
    <glyph glyph-name="uni2006" unicode="&#x2006;" horiz-adv-x="167" 
 />
    <glyph glyph-name="uni2007" unicode="&#x2007;" horiz-adv-x="600" 
 />
    <glyph glyph-name="uni2008" unicode="&#x2008;" horiz-adv-x="198" 
 />
    <glyph glyph-name="uni200B" unicode="&#x200b;" 
 />
    <glyph glyph-name="uni200C" unicode="&#x200c;" 
 />
    <glyph glyph-name="uni2010" unicode="&#x2010;" horiz-adv-x="343" 
d="M40 320h263v-54h-263v54z" />
    <glyph glyph-name="figuredash" unicode="&#x2012;" horiz-adv-x="580" 
d="M40 320h500v-54h-500v54z" />
    <glyph glyph-name="endash" unicode="&#x2013;" horiz-adv-x="500" 
d="M0 320h500v-54h-500v54z" />
    <glyph glyph-name="emdash" unicode="&#x2014;" horiz-adv-x="1000" 
d="M0 320h1000v-54h-1000v54z" />
    <glyph glyph-name="quoteleft" unicode="&#x2018;" horiz-adv-x="177" 
d="M97.5 665q-15.5 -19 -11.5 -42q41 -5 41 -42q0 -21 -12 -32.5t-32 -11.5q-45 0 -45 53q0 111 103 130l7 -27q-35 -9 -50.5 -28z" />
    <glyph glyph-name="quoteright" unicode="&#x2019;" horiz-adv-x="177" 
d="M79.5 595q15.5 19 11.5 42q-41 5 -41 42q0 21 12 32.5t32 11.5q45 0 45 -53q0 -111 -103 -130l-7 27q35 9 50.5 28z" />
    <glyph glyph-name="quotesinglbase" unicode="&#x201a;" horiz-adv-x="177" 
d="M79.5 -52q15.5 19 11.5 42q-41 5 -41 42q0 21 12 32.5t32 11.5q45 0 45 -53q0 -111 -103 -130l-7 27q35 9 50.5 28z" />
    <glyph glyph-name="quotedblleft" unicode="&#x201c;" horiz-adv-x="309" 
d="M229.5 663q-15.5 -19 -11.5 -42q41 -5 41 -42q0 -21 -12 -32.5t-32 -11.5q-45 0 -45 53q0 111 103 130l7 -27q-35 -9 -50.5 -28zM141 718l7 -27q-35 -9 -50.5 -28t-11.5 -42q41 -5 41 -42q0 -21 -12 -32.5t-32 -11.5q-45 0 -45 53q0 111 103 130z" />
    <glyph glyph-name="quotedblright" unicode="&#x201d;" horiz-adv-x="309" 
d="M79.5 593q15.5 19 11.5 42q-41 5 -41 42q0 21 12 32.5t32 11.5q45 0 45 -53q0 -111 -103 -130l-7 27q35 9 50.5 28zM211.5 593q15.5 19 11.5 42q-41 5 -41 42q0 21 12 32.5t32 11.5q45 0 45 -53q0 -111 -103 -130l-7 27q35 9 50.5 28z" />
    <glyph glyph-name="quotedblbase" unicode="&#x201e;" horiz-adv-x="309" 
d="M79.5 -52q15.5 19 11.5 42q-41 5 -41 42q0 21 12 32.5t32 11.5q45 0 45 -53q0 -111 -103 -130l-7 27q35 9 50.5 28zM211.5 -52q15.5 19 11.5 42q-41 5 -41 42q0 21 12 32.5t32 11.5q45 0 45 -53q0 -111 -103 -130l-7 27q35 9 50.5 28z" />
    <glyph glyph-name="dagger" unicode="&#x2020;" horiz-adv-x="331" 
d="M198 693l-3 -127l124 3v-59l-124 3l3 -303h-64l3 303l-124 -3v59l124 -3l-3 127h64z" />
    <glyph glyph-name="daggerdbl" unicode="&#x2021;" horiz-adv-x="331" 
d="M137 312l-124 -3v59l124 -3l-3 87l3 86l-124 -3v59l124 -3l-3 102h64l-3 -102l124 3v-59l-124 3l3 -86l-3 -87l124 3v-59l-124 3l3 -102h-64z" />
    <glyph glyph-name="bullet" unicode="&#x2022;" horiz-adv-x="281" 
d="M89 220q-19 19 -19 53q0 32 19 51t53 19t54 -19t20 -51q0 -34 -20 -53t-54 -19t-53 19z" />
    <glyph glyph-name="ellipsis" unicode="&#x2026;" horiz-adv-x="594" 
d="M66 -3q-12 12 -12 33q0 20 12 32t33 12t33.5 -12t12.5 -32q0 -21 -12.5 -33t-33.5 -12t-33 12zM264 -3q-12 12 -12 33q0 20 12 32t33 12t33.5 -12t12.5 -32q0 -21 -12.5 -33t-33.5 -12t-33 12zM462 -3q-12 12 -12 33q0 20 12 32t33 12t33.5 -12t12.5 -32q0 -21 -12.5 -33
t-33.5 -12t-33 12z" />
    <glyph glyph-name="uni202F" unicode="&#x202f;" horiz-adv-x="225" 
 />
    <glyph glyph-name="perthousand" unicode="&#x2030;" horiz-adv-x="931" 
d="M480 693h58l-307 -693h-57zM72 654.5q37 43.5 101 43.5t100.5 -43.5t36.5 -114.5q0 -73 -36.5 -118t-100.5 -45t-101 45t-37 118q0 71 37 114.5zM111 454q23 -33 62 -33t61.5 33t22.5 86q0 50 -22.5 82.5t-61.5 32.5t-62 -32.5t-23 -82.5q0 -53 23 -86zM433.5 264
q36.5 44 100.5 44q75 0 113 -59q18 28 46 43.5t66 15.5q64 0 100.5 -43.5t36.5 -115.5q0 -73 -36.5 -117.5t-100.5 -44.5q-76 0 -112 60q-38 -60 -113 -60q-64 0 -100.5 44.5t-36.5 117.5q0 71 36.5 115zM472.5 63.5q22.5 -33.5 61.5 -33.5t62 33.5t23 85.5q0 51 -23 83.5
t-62 32.5t-61.5 -32.5t-22.5 -83.5q0 -52 22.5 -85.5zM697 63.5q23 -33.5 62 -33.5t61.5 33.5t22.5 85.5q0 51 -22.5 83.5t-61.5 32.5t-62 -32.5t-23 -83.5q0 -52 23 -85.5z" />
    <glyph glyph-name="guilsinglleft" unicode="&#x2039;" horiz-adv-x="303" 
d="M40 242v30l178 197l35 -27l-153 -185l153 -184l-35 -28z" />
    <glyph glyph-name="guilsinglright" unicode="&#x203a;" horiz-adv-x="303" 
d="M50 73l153 184l-153 185l35 27l178 -197v-30l-178 -197z" />
    <glyph glyph-name="uni207F" unicode="&#x207f;" horiz-adv-x="387" 
d="M56 524l-1 165h59l-1 -54h1q13 28 41.5 45t67.5 17q55 0 82 -32t27 -99v-42l2 -152h-60l2 152v35q0 44 -19 65.5t-55 21.5q-39 0 -64 -27t-25 -69v-26l1 -152h-59z" />
    <glyph glyph-name="franc" unicode="&#x20a3;" horiz-adv-x="539" 
d="M96 132h-83v49h83l1 176l-2 326h414v-54h-353l-1 -245h328v-53h-328l1 -150h190v-49h-190l1 -122h-62z" />
    <glyph glyph-name="lira" unicode="&#x20a4;" horiz-adv-x="594" 
d="M61.5 21.5q-26.5 23.5 -26.5 64.5q0 38 24.5 59.5t66.5 21.5q27 0 55.5 -9t63.5 -26q8 27 8 56t-11 59h-182v42h163q-14 24 -46 70h-117v42h90q-42 68 -42 133q0 75 50 119.5t143 44.5q196 0 227 -210l-56 -15q-9 79 -47.5 125t-120.5 46q-66 0 -100 -31.5t-34 -85.5
q0 -29 12.5 -59t35.5 -67h217v-42h-190q4 -6 17.5 -28t22.5 -42h150v-42h-133q10 -32 10 -59q0 -41 -18 -82q50 -27 81.5 -40.5t59.5 -13.5q34 0 53.5 33t16.5 115l54 -15q4 -183 -117 -183q-40 0 -77 16t-93 48q-23 -31 -58 -49.5t-80 -18.5q-46 0 -72.5 23.5zM102 57
q13 -10 37 -10q56 0 88 45q-55 29 -93 29q-22 0 -33.5 -9t-11.5 -26q0 -19 13 -29z" />
    <glyph glyph-name="uni20A6" unicode="&#x20a6;" horiz-adv-x="684" 
d="M94 330h-81v46h81l-2 307h70l193 -307h181l-2 307h61l-2 -307h78v-46h-78l2 -320h-70l-194 307l-8 13h-172l2 -320h-61zM293 376l-140 215h-2v-215h142zM534 102h2v228h-152z" />
    <glyph glyph-name="peseta" unicode="&#x20a7;" horiz-adv-x="644" 
d="M82 347l-1 108h-68v46h68l-1 187h236q243 0 255 -187h60v-46h-60q-7 -101 -71 -148t-184 -47h-176l3 -255h-63zM321 313q87 0 134.5 34.5t54.5 107.5h-370v-142h181zM510 501q-6 68 -53 101t-136 33h-180v-134h369z" />
    <glyph glyph-name="uni20A8" unicode="&#x20a8;" horiz-adv-x="1017" 
d="M78 347l-2 336h216q235 0 235 -199q0 -65 -31.5 -109.5t-92.5 -62.5q55 -18 83.5 -59.5t33.5 -113.5q1 -19 7 -63.5t11 -64.5h-57q-8 47 -14 121q-8 82 -57 119.5t-118 37.5h-161l3 -278h-58zM297 337q84 0 129 39t45 108q0 150 -174 150h-165l-1 -297h166zM672 158
q1 -52 36.5 -84t101.5 -32q60 0 94 26.5t34 74.5q0 44 -30.5 69t-101.5 35q-93 13 -128.5 49t-35.5 97q0 66 43.5 102.5t116.5 36.5q152 0 170 -146l-46 -12q-7 57 -36 84t-86 27q-50 0 -80 -22.5t-30 -67.5q0 -44 25 -66.5t89 -32.5q98 -15 140 -52t42 -100
q0 -67 -48.5 -107.5t-132.5 -40.5q-81 0 -129.5 38.5t-54.5 110.5z" />
    <glyph glyph-name="uni20A9" unicode="&#x20a9;" horiz-adv-x="931" 
d="M130 330h-127v46h113l-98 317h66l88 -317h177l91 317h53l92 -317h177l87 317h64l-97 -317h110v-46h-124l-97 -330h-63l-97 330h-158l-97 -330h-63zM259 73h2l75 257h-151zM531 376l-64 216h-2l-64 -216h130zM674 73h1l74 257h-151z" />
    <glyph glyph-name="uni20AA" unicode="&#x20aa;" horiz-adv-x="786" 
d="M76 688h255q97 0 143 -47t46 -144v-295h-53v287q0 75 -34 110t-109 35h-190v-627h-58v681zM274 506h52v-445h198q69 0 98.5 35t29.5 115v477h58v-488q0 -100 -43.5 -146.5t-136.5 -46.5h-256v499z" />
    <glyph glyph-name="dong" unicode="&#x20ab;" horiz-adv-x="579" 
d="M140 125.5q-47 30.5 -73 81t-26 110.5q0 59 25.5 109.5t72.5 80.5t108 30q65 0 111 -31t65 -76h2l-1 179h-2l-131 -1v47l131 -2h1v41h59v-40l62 1v-47l-62 1l-2 -272l2 -227h-59l1 88h-2q-18 -42 -64.5 -72.5t-110.5 -30.5q-60 0 -107 30.5zM35 42h504v-42h-504v42z
M118.5 232.5q19.5 -39.5 55.5 -63.5t84 -24q36 0 75 18.5t65.5 57.5t26.5 96q0 49 -23.5 88t-62 61t-81.5 22q-48 0 -84 -24t-55.5 -63.5t-19.5 -83.5q0 -45 19.5 -84.5z" />
    <glyph glyph-name="Euro" unicode="&#x20ac;" horiz-adv-x="714" 
d="M216 71.5q-77 68.5 -100 185.5h-103v44h97q-2 30 -2 46q0 18 2 50h-97v44h104q23 115 100 182t191 67q124 0 193 -62t88 -168l-57 -15q-14 87 -69.5 139t-154.5 52q-87 0 -147 -52.5t-81 -142.5h291v-44h-298q-3 -24 -3 -50q0 -16 2 -46h299v-44h-292q21 -93 81.5 -146.5
t147.5 -53.5q100 0 154.5 52t69.5 139l57 -15q-19 -104 -89.5 -167t-191.5 -63q-115 0 -192 68.5z" />
    <glyph glyph-name="uni20AD" unicode="&#x20ad;" horiz-adv-x="642" 
d="M217 330h-52l2 -320h-62l2 320h-94v46h94l-2 307h62l-2 -307h52l295 307h77l-300 -307h282v-46h-277l318 -320h-72z" />
    <glyph glyph-name="uni20AE" unicode="&#x20ae;" horiz-adv-x="534" 
d="M237 236l-163 -59v48l164 60v59l-164 -60v48l164 60l-2 247h-223v54h509v-54h-224l-2 -226l163 59v-48l-163 -59v-18v-41l163 59v-48l-162 -59l1 -258h-62z" />
    <glyph glyph-name="uni20B1" unicode="&#x20b1;" horiz-adv-x="644" 
d="M82 347v56h-69v40h68v60h-68v40h68l-1 145h236q216 0 249 -145h66v-40h-60q1 -7 1 -22q0 -14 -2 -38h61v-40h-68q-20 -73 -81.5 -108t-165.5 -35h-176l3 -255h-63zM321 313q141 0 177 90h-358v-90h181zM508 443q3 18 3 38q0 15 -1 22h-369l-1 -60h368zM501 543
q-32 92 -180 92h-180v-92h360z" />
    <glyph glyph-name="uni20B2" unicode="&#x20b2;" horiz-adv-x="660" 
d="M301 6q-81 7 -141 51.5t-92.5 119t-32.5 169.5q0 94 32.5 168t92.5 119t141 53v72h49v-70q112 -4 177 -65t82 -163l-56 -15q-13 84 -64.5 134.5t-138.5 54.5v-281h264l-2 -156l8 -177h-47l-7 127q-25 -65 -80 -101.5t-136 -40.5v-80h-49v81zM122 206.5q25 -61.5 71 -99.5
t108 -46v571q-94 -13 -149 -91t-55 -195q0 -78 25 -139.5zM502 122.5q52 58.5 56 178.5l-208 -2v-240q100 5 152 63.5z" />
    <glyph glyph-name="uni20B8" unicode="&#x20b8;" horiz-adv-x="534" 
d="M238 262l-2 232h-223v54h509v-54h-224l-2 -232l2 -262h-62zM13 693h509v-53h-509v53z" />
    <glyph glyph-name="uni20B9" unicode="&#x20b9;" horiz-adv-x="515" 
d="M30 304v49h141q82 0 130.5 29t58.5 87h-330v49h331q-8 59 -55 92.5t-127 33.5h-149v49h472v-49h-152q59 -47 65 -126h87v-49h-88q-18 -165 -246 -165h-58l319 -302h-79z" />
    <glyph glyph-name="uni20BA" unicode="&#x20ba;" horiz-adv-x="538" 
d="M120 271l-107 -39v48l107 39v59l-107 -39v48l107 39v257h60v-235l217 79v-48l-217 -79v-59l217 79v-48l-217 -79v-230q135 0 206.5 52.5t73.5 158.5l56 -7q-4 -125 -92.5 -191t-249.5 -66h-54v261z" />
    <glyph glyph-name="uni20BC" unicode="&#x20bc;" horiz-adv-x="629" 
d="M121 456q60 72 167 80v170h53v-170q106 -8 166.5 -80t60.5 -195v-251h-58v253q0 98 -44 155t-125 65v-473h-53v473q-80 -8 -124 -65t-44 -155v-253h-59v251q0 123 60 195z" />
    <glyph glyph-name="uni20BD" unicode="&#x20bd;" horiz-adv-x="633" 
d="M115 110h-102v50h102v100h-102v53h103v34l-2 336h235q257 0 257 -202q0 -114 -64 -167.5t-193 -53.5h-174v-100h211v-50h-211l1 -100h-62zM174 313h180q95 0 143 41t48 127q0 149 -191 149h-180v-283v-34z" />
    <glyph glyph-name="uni2113" unicode="&#x2113;" horiz-adv-x="459" 
d="M106 142q0 12 2 38q-27 -21 -57 -42l-16 34q22 16 80 60l50 299q12 82 55.5 127t101.5 45q45 0 73 -29.5t28 -83.5q0 -84 -59.5 -170t-197.5 -196q-8 -50 -8 -79q0 -45 17.5 -71t62.5 -26q42 0 80.5 23t78.5 70l25 -28q-45 -58 -93 -86.5t-104 -28.5q-119 0 -119 144z
M332.5 445q47.5 72 47.5 143q0 34 -16.5 52.5t-42.5 18.5q-36 0 -64 -34t-38 -93l-43 -251q109 92 156.5 164z" />
    <glyph glyph-name="uni2116" unicode="&#x2116;" horiz-adv-x="1045" 
d="M78 346l-2 347h71l217 -341l172 -259h3v265l-3 335h62l-2 -346l2 -347h-71l-203 317l-186 283h-2v-264l2 -336h-62zM750 408.5q-41 45.5 -41 122.5q0 76 41 121t110 45t110 -45t41 -121q0 -77 -41 -122.5t-110 -45.5t-110 45.5zM709 298h302v-49h-302v49zM792.5 443.5
q24.5 -31.5 67.5 -31.5t67.5 32t24.5 87t-24.5 86t-67.5 31t-67.5 -31t-24.5 -86q0 -56 24.5 -87.5z" />
    <glyph glyph-name="trademark" unicode="&#x2122;" horiz-adv-x="698" 
d="M112 510l-1 137h-102v47h258v-47h-102l-1 -137l1 -163h-54zM314 517l-2 177h69l60 -162l45 -118h2l45 118l59 162h69l-1 -171l1 -176h-50l2 157v116h-1l-49 -125l-54 -148h-44l-54 148l-49 125h-1v-116l2 -157h-51z" />
    <glyph glyph-name="uni2126" unicode="&#x2126;" horiz-adv-x="722" 
d="M57 54l175 -3q-89 70 -143 152.5t-54 205.5q0 80 39.5 148.5t114 109.5t173.5 41q94 0 168 -39.5t115.5 -107.5t41.5 -152q0 -87 -29 -153t-69.5 -111t-99.5 -94l177 3v-54h-240v48q72 64 108.5 103t64.5 102t28 149q0 72 -33.5 130t-94 91t-137.5 33q-75 0 -135.5 -31.5
t-95.5 -89.5t-35 -133q0 -86 27.5 -148.5t65 -103t108.5 -102.5v-48h-240v54z" />
    <glyph glyph-name="estimated" unicode="&#x212e;" horiz-adv-x="799" 
d="M225.5 41.5q-84.5 44.5 -137.5 124.5t-53 183q0 94 48 175.5t132 130t185 48.5q92 0 176 -43t136 -123t52 -184v-8h-610q-6 0 -6 -4v-186q0 -20 33.5 -55t91 -61t128.5 -26q68 0 129.5 31t104.5 85l53 5q-51 -64 -127 -100.5t-161 -36.5q-90 0 -174.5 44.5zM154 360h488
l6 6v181q0 28 -35.5 61.5t-92.5 56.5t-119 23q-63 0 -121.5 -25.5t-95 -59.5t-36.5 -57v-180q0 -6 6 -6z" />
    <glyph glyph-name="arrowleft" unicode="&#x2190;" horiz-adv-x="636" 
d="M158 326h412v-58h-413l136 -198h-58l-158 226l158 231h58z" />
    <glyph glyph-name="arrowup" unicode="&#x2191;" horiz-adv-x="636" 
d="M351 471v-412h-57v413l-199 -136v58l227 158l230 -158v-58z" />
    <glyph glyph-name="arrowright" unicode="&#x2192;" horiz-adv-x="636" 
d="M489 244h-412v58h412l-136 198h59l158 -226l-158 -230h-59z" />
    <glyph glyph-name="arrowdown" unicode="&#x2193;" horiz-adv-x="636" 
d="M295 104v412h58v-412l199 136v-59l-226 -158l-231 158v59z" />
    <glyph glyph-name="uni2196" unicode="&#x2196;" horiz-adv-x="636" 
d="M241 410l291 -291l-40 -41l-292 292l-43 -237l-43 42l49 271l275 51l41 -41z" />
    <glyph glyph-name="uni2197" unicode="&#x2197;" horiz-adv-x="636" 
d="M446 390l-292 -291l-40 40l292 292l-237 44l42 42l271 -49l51 -274l-41 -42z" />
    <glyph glyph-name="uni2198" unicode="&#x2198;" horiz-adv-x="636" 
d="M405 161l-291 292l40 40l292 -292l44 237l42 -41l-48 -272l-275 -51l-41 42z" />
    <glyph glyph-name="uni2199" unicode="&#x2199;" horiz-adv-x="636" 
d="M201 231l291 292l41 -41l-292 -292l237 -44l-41 -42l-272 49l-51 275l41 41z" />
    <glyph glyph-name="uni2206" unicode="&#x2206;" horiz-adv-x="696" 
d="M13 34l308 666h55l308 -666v-34h-671v34zM619 49l-271 589l-270 -589h541z" />
    <glyph glyph-name="product" unicode="&#x220f;" horiz-adv-x="795" 
d="M170 652h-157v48h770v-48h-154v-744h-58v744h-344v-744h-57v744z" />
    <glyph glyph-name="summation" unicode="&#x2211;" horiz-adv-x="573" 
d="M30 46l257 310l-257 298v46h512v-55h-432l244 -289l-244 -301h434v-55h-514v46z" />
    <glyph glyph-name="minus" unicode="&#x2212;" horiz-adv-x="433" 
d="M50 345l167 -2l166 2v-49l-166 2l-167 -2v49z" />
    <glyph glyph-name="uni2215" unicode="&#x2215;" horiz-adv-x="172" 
d="M252 693h58l-366 -693h-57z" />
    <glyph glyph-name="infinity" unicode="&#x221e;" horiz-adv-x="896" 
d="M132.5 186.5q-44.5 23.5 -71 66t-26.5 97.5q0 51 24.5 93.5t68.5 68t100 25.5q76 0 124 -33.5t96 -110.5q30 47 58 77t68 48.5t96 18.5q51 0 95 -23t70 -65.5t26 -97.5q0 -50 -24.5 -93.5t-68 -69t-98.5 -25.5q-78 0 -125.5 33.5t-96.5 111.5q-30 -48 -58 -78.5
t-67.5 -48.5t-94.5 -18q-51 0 -95.5 23.5zM107 280q18 -32 50.5 -51t73.5 -19q64 0 104 32t86 108q-29 48 -52 76.5t-56.5 46t-81.5 17.5q-60 0 -101 -39t-41 -101q0 -38 18 -70zM527 275q24 -29 58 -47t81 -18q38 0 70.5 17.5t51.5 50t19 73.5q0 59 -39.5 99t-101.5 40
q-65 0 -105 -32.5t-85 -107.5q27 -46 51 -75z" />
    <glyph glyph-name="approxequal" unicode="&#x2248;" horiz-adv-x="479" 
d="M72.5 429.5q21.5 32.5 72.5 32.5q25 0 50 -9t60 -26q28 -14 45.5 -20.5t31.5 -6.5q31 0 41.5 18.5t11.5 48.5h44q-1 -46 -22 -78t-72 -32q-24 0 -50.5 9.5t-61.5 25.5q-56 26 -77 26q-31 0 -41 -18t-10 -48h-45q1 45 22.5 77.5zM72.5 264.5q21.5 32.5 72.5 32.5
q25 0 50 -9t60 -26q28 -14 45.5 -20.5t31.5 -6.5q31 0 41.5 18.5t11.5 48.5h44q-1 -46 -22 -78t-72 -32q-24 0 -50.5 9.5t-61.5 25.5q-56 26 -77 26q-31 0 -41 -18t-10 -48h-45q1 45 22.5 77.5z" />
    <glyph glyph-name="notequal" unicode="&#x2260;" horiz-adv-x="433" 
d="M50 422l167 -1h38l55 85l40 -27l-37 -57h70v-48l-100 1l-71 -109h5l166 1v-48l-166 1h-34l-59 -91l-40 27l41 63h-75v48l105 -1l70 109h-8l-167 -1v48z" />
    <glyph glyph-name="lessequal" unicode="&#x2264;" horiz-adv-x="543" 
d="M35 283v54l458 205v-57l-398 -172v-4l398 -165v-62zM39 44l227 -2l227 2v-49l-227 2l-227 -2v49z" />
    <glyph glyph-name="greaterequal" unicode="&#x2265;" horiz-adv-x="543" 
d="M50 144l398 165v4l-398 172v57l458 -205v-54l-458 -201v62zM50 44l228 -2l226 2v-49l-226 2l-228 -2v49z" />
    <glyph glyph-name="filledbox" unicode="&#x25a0;" horiz-adv-x="636" 
d="M517 459v-388h-388v388h388z" />
    <glyph glyph-name="triagup" unicode="&#x25b2;" horiz-adv-x="636" 
d="M536 52h-426l213 426z" />
    <glyph glyph-name="uni25B3" unicode="&#x25b3;" horiz-adv-x="636" 
d="M536 92h-426l213 426zM470 133l-147 294l-147 -294h294z" />
    <glyph glyph-name="uni25B6" unicode="&#x25b6;" horiz-adv-x="636" 
d="M110 53v426l426 -213z" />
    <glyph glyph-name="uni25B7" unicode="&#x25b7;" horiz-adv-x="636" 
d="M110 83v426l426 -213zM445 296l-294 147v-294z" />
    <glyph glyph-name="triagdn" unicode="&#x25bc;" horiz-adv-x="636" 
d="M323 52l-213 426h426z" />
    <glyph glyph-name="uni25BD" unicode="&#x25bd;" horiz-adv-x="636" 
d="M323 52l-213 426h426zM323 143l147 294h-294z" />
    <glyph glyph-name="uni25C0" unicode="&#x25c0;" horiz-adv-x="636" 
d="M536 478v-426l-426 213z" />
    <glyph glyph-name="uni25C1" unicode="&#x25c1;" horiz-adv-x="636" 
d="M536 503v-426l-426 213zM495 143v294l-294 -147z" />
    <glyph glyph-name="uni25C6" unicode="&#x25c6;" horiz-adv-x="636" 
d="M598 265l-274 -274l-275 274l275 275z" />
    <glyph glyph-name="lozenge" unicode="&#x25ca;" horiz-adv-x="636" 
d="M325 635l205 -305l-206 -308l-205 308zM324 109l149 221l-148 221l-150 -221z" />
    <glyph glyph-name="uniF8FF" unicode="&#xf8ff;" horiz-adv-x="1326" 
d="M42 462h486q4 56 44.5 94t96.5 38t96.5 -38t44.5 -94h486v-193h-1254v193zM78 118h-36v31h93l-41 -78h38v-31h-95zM41 247h50v-11h-38v-26h33v-11h-33v-29h-12v77zM94 392v-86h39v86h28v35h-96v-35h29zM101 247h12v-47q0 -9 5.5 -14.5t13.5 -5.5t14 6t6 14v47h12v-47
q0 -14 -9 -22.5t-23 -8.5q-13 0 -22 9t-9 22v47zM142 149h79v-30h-44v-9h38v-30h-38v-10h45v-30h-80v109zM207 306v35h8l15 -35h41l-21 46q14 12 14 32q0 18 -13.5 30.5t-32.5 12.5h-50v-121h39zM179 247h12v-66h35v-11h-47v77zM207 394h10q3 0 5.5 -3t2.5 -7t-2.5 -7.5
t-5.5 -3.5h-10v21zM226 149h87v-31h-26v-78h-35v78h-26v31zM237 247h12v-66h36v-11h-48v77zM315 306v121h-38v-121h38zM338 149h40l37 -109h-38l-4 17h-31l-5 -17h-36zM331 247l22 -57l22 57h14l-32 -77h-8l-32 77h14zM363 306l5 19h34l5 -19h42l-41 121h-45l-41 -121h41z
M365 86l-7 26h-1l-7 -26h15zM384 386h1l8 -29h-17zM399 247h50v-11h-38v-22h33v-10h-33v-23h38v-11h-50v77zM421 149h79v-30h-44v-16h37v-29h-37v-34h-35v109zM538 306v33h-43v88h-39v-121h82zM462 247h29q11 0 18 -7t7 -18q0 -14 -12 -21l15 -31h-14l-13 28h-18v-28h-12v77
zM491 208q5 0 9 4t4 10t-4 10t-9 4h-17v-28h17zM521 135.5q17 16.5 42 16.5t42 -16.5t17 -40.5q0 -25 -17 -41.5t-42 -16.5t-42 16.5t-17 41.5q0 24 17 40.5zM525 189q13 -9 26 -9q14 0 14 12q0 7 -17 12q-12 5 -17 9.5t-5 13.5q0 10 7 16t19 6q10 0 20 -5v-13q-9 7 -20 7
q-6 0 -10 -3t-4 -8t3.5 -7.5t12.5 -5.5q23 -9 23 -22q0 -11 -7.5 -17t-18.5 -6q-14 0 -26 7v13zM546 76.5q7 -7.5 17 -7.5t17 7.5t7 18.5t-7 18t-17 7t-17 -7t-7 -18t7 -18.5zM574 367l167 166h-171q-29 -35 -29 -81q0 -49 33 -85zM669 325q48 0 85 32h-170q37 -32 85 -32z
M754 547q-38 33 -85 33q-49 0 -85 -33h170zM589 247h12v-77h-12v77zM767 371q29 35 29 81q0 48 -32 85l-166 -166h169zM625.5 237.5q11.5 11.5 28.5 11.5t28.5 -11.5t11.5 -28.5t-11.5 -28.5t-28.5 -11.5t-28.5 11.5t-11.5 28.5t11.5 28.5zM634 188q8 -8 20 -8q11 0 19 8
t8 21q0 12 -8 20t-19 8q-12 0 -20 -8t-8 -20q0 -13 8 -21zM630 149h36l33 -58v58h35v-109h-36l-34 53l1 -53h-35v109zM706 248h6l49 -55v54h12v-79h-6l-49 54v-52h-12v78zM740 149h86v-31h-25v-78h-35v78h-26v31zM807 213h458l-13 11l8 7l25 -24l-25 -24l-8 7l13 11h-458v12
zM839.5 321q18.5 -18 46.5 -18t47 18t19 46q0 27 -19 45t-47 18t-46.5 -18t-18.5 -45q0 -28 18.5 -46zM841 143q12 9 33 9q14 0 32 -8v-34q-6 5 -15.5 8t-16.5 3q-11 0 -11 -4q0 -3 2.5 -4.5t5.5 -2t6 -1.5q36 -8 36 -35q0 -17 -12.5 -27t-31.5 -10q-22 0 -38 10v37
q25 -16 38 -16q9 0 9 6q0 4 -7 6t-10 3q-17 6 -24.5 13.5t-7.5 21.5q0 16 12 25zM867 387q8 8 19 8q12 0 19.5 -8t7.5 -20q0 -13 -7.5 -21t-19.5 -8q-11 0 -19 8t-8 21q0 12 8 20zM923 65.5q5 4.5 13 4.5q7 0 12 -4.5t5 -11.5t-5 -12t-12 -5q-8 0 -13 5t-5 12t5 11.5z
M976 135.5q17 16.5 42 16.5q13 0 23 -6v-33q-12 7 -22 7t-17.5 -7t-7.5 -18t7 -18.5t18 -7.5q15 0 25 10l-1 -35q-14 -7 -26 -7q-24 0 -41 16.5t-17 41.5q0 24 17 40.5zM999 306l-1 59l38 -59h40v121h-39v-64l-37 64h-40v-121h39zM1064.5 135.5q17.5 16.5 42.5 16.5
t42 -16.5t17 -40.5q0 -25 -17 -41.5t-42 -16.5q-26 0 -43 16.5t-17 41.5q0 24 17.5 40.5zM1089 76.5q7 -7.5 18 -7.5q10 0 17 7.5t7 18.5q0 10 -7 17.5t-17 7.5t-17.5 -7t-7.5 -18t7 -18.5zM1170 306v33h-43v88h-39v-121h82zM1192 354v-48h39v48l41 73h-45l-16 -36l-15 36
h-46zM1173 149h35l26 -50l26 50h35v-109h-34v43l-14 -27h-25l-14 27v-43h-35v109z" />
    <glyph glyph-name="dotlessi.ss01" horiz-adv-x="198" 
d="M72 262l-2 261h58l-1 -261l1 -262h-58z" />
    <glyph glyph-name="uni0237.ss01" horiz-adv-x="194" 
d="M-70 -151l12 43q29 -8 55 -8q35 0 52.5 24.5t17.5 85.5v126l-1 403h58l-2 -403v-114q0 -92 -29 -131.5t-85 -39.5q-40 0 -78 14z" />
    <glyph glyph-name="i.ss01" horiz-adv-x="198" 
d="M72 262l-2 261h58l-1 -261l1 -262h-58zM71 689h58v-101h-58v101z" />
    <glyph glyph-name="j.ss01" horiz-adv-x="194" 
d="M-70 -151l12 43q29 -8 55 -8q35 0 52.5 24.5t17.5 85.5v126l-1 403h58l-2 -403v-114q0 -92 -29 -131.5t-85 -39.5q-40 0 -78 14zM64 689h58v-101h-58v101z" />
    <glyph glyph-name="g.ss02" horiz-adv-x="534" 
d="M94 -138.5q-61 35.5 -61 99.5q0 30 15.5 60t43.5 54q-34 24 -34 67q0 26 16.5 52t39.5 46q-49 49 -49 120q0 51 25 90.5t69.5 62t100.5 22.5q53 0 96 -20t69 -56q13 46 39 69.5t55 23.5q7 0 19 -2l6 -54q-12 3 -21 3q-31 0 -49 -34.5t-18 -104.5q0 -50 -25 -90t-69.5 -62
t-101.5 -22q-66 0 -113 29q-34 -34 -34 -61q0 -26 20 -40.5t57 -15.5l178 -8q70 -3 108 -32t38 -79q0 -72 -71 -112.5t-184 -40.5q-104 0 -165 35.5zM138 -100.5q46 -24.5 127 -24.5q86 0 138.5 25.5t52.5 74.5q0 28 -24 46t-75 20l-163 8q-31 1 -59 8q-43 -45 -43 -86
q0 -47 46 -71.5zM161 269q38 -35 99 -35t99.5 35.5t38.5 90.5t-38.5 90.5t-99.5 35.5t-99 -35t-38 -91t38 -91z" />
    <glyph glyph-name="a.ss03" horiz-adv-x="569" 
d="M92.5 58q-58.5 73 -58.5 204q0 130 58 202.5t163 72.5q70 0 117.5 -34.5t67.5 -82.5h2l-1 103h58l-1 -261l1 -262h-58l1 103h-2q-19 -48 -67 -83t-118 -35q-104 0 -162.5 73zM138 95q46 -60 127 -60q44 0 84 21t66.5 72t26.5 134q0 75 -24 126t-64 75.5t-89 24.5
q-82 0 -127.5 -59.5t-45.5 -166.5t46 -167z" />
    <glyph glyph-name="J.ss04" horiz-adv-x="420" 
d="M54 37.5q-48 52.5 -55 144.5l53 15q18 -158 126 -158q56 0 87 39.5t32 121.5l2 269l-2 224h62l-2 -224l2 -267q1 -109 -49 -163t-132 -54q-76 0 -124 52.5z" />
    <glyph glyph-name="Q.ss04" horiz-adv-x="692" 
d="M180.5 29q-70.5 44 -108 125.5t-37.5 192.5t38 192.5t108 125t165 43.5q96 0 166 -43.5t107.5 -124.5t37.5 -193q0 -97 -29 -172t-84 -122l82 -114l-47 -28l-80 111q-66 -37 -153 -37q-95 0 -165.5 44zM127 182.5q30 -69.5 86 -106.5t133 -37q67 0 120 29l-85 118l45 30
l83 -116q42 40 64.5 103t22.5 144q0 145 -67 226t-183 81q-76 0 -132 -37t-86.5 -106t-30.5 -164t30 -164.5z" />
    <glyph glyph-name="r.ss04" horiz-adv-x="390" 
d="M72 251l-2 272h58l-2 -103h2q18 51 61.5 83t98.5 32q77 0 91 -74l-13 -44q-15 65 -81 65q-44 0 -80 -24t-57 -69.5t-21 -106.5v-29l1 -253h-58z" />
    <glyph glyph-name="P.ss09" horiz-adv-x="596" 
d="M78 347l-2 346h246q119 0 182.5 -53t63.5 -159q0 -110 -63 -165.5t-183 -55.5h-186l3 -260h-63zM327 313q87 0 133.5 42.5t46.5 125.5q0 79 -46.5 119t-133.5 40h-190l-1 -327h191z" />
    <glyph glyph-name="R.ss09" horiz-adv-x="620" 
d="M78 347l-2 346h246q118 0 182 -52t64 -153q0 -67 -34 -112.5t-97 -63.5q57 -20 87.5 -63t36.5 -116q5 -73 19 -133h-62q-7 32 -16 125q-8 86 -62 123t-128 37h-176l3 -285h-63zM317 338q92 0 141 39.5t49 110.5q0 74 -46.5 113t-133.5 39h-190l-1 -302h181z" />
    <glyph glyph-name="t.ss09" horiz-adv-x="333" 
d="M141.5 7.5q-30.5 22.5 -41 60.5t-10.5 96v313l-85 -2v48h85v138l57 10l-1 -148h169v-48l-168 2v-319q0 -66 19.5 -94.5t68.5 -28.5q48 0 89 16l11 -45q-56 -21 -106 -21q-57 0 -87.5 22.5z" />
    <glyph glyph-name="uni004A0301" horiz-adv-x="352" 
d="M9 -6l6 54q45 -9 81 -9q72 0 102 41t31 135l2 254l-2 224h62l-2 -224l2 -255q1 -120 -47 -174.5t-146 -54.5q-51 0 -89 9zM219 762l56 107h71l-88 -107h-39z" />
    <glyph glyph-name="uni006A0301" horiz-adv-x="194" 
d="M-70 -151l12 43q29 -8 55 -8q35 0 52.5 24.5t17.5 85.5v126l-1 403h58l-2 -403v-114q0 -92 -29 -131.5t-85 -39.5q-40 0 -78 14zM54 635l59 132h68l-88 -132h-39z" />
    <glyph glyph-name="aacute.ss03" horiz-adv-x="569" 
d="M92.5 58q-58.5 73 -58.5 204q0 130 58 202.5t163 72.5q70 0 117.5 -34.5t67.5 -82.5h2l-1 103h58l-1 -261l1 -262h-58l1 103h-2q-19 -48 -67 -83t-118 -35q-104 0 -162.5 73zM138 95q46 -60 127 -60q44 0 84 21t66.5 72t26.5 134q0 75 -24 126t-64 75.5t-89 24.5
q-82 0 -127.5 -59.5t-45.5 -166.5t46 -167zM247 635l59 132h68l-88 -132h-39z" />
    <glyph glyph-name="abreve.ss03" horiz-adv-x="569" 
d="M92.5 58q-58.5 73 -58.5 204q0 130 58 202.5t163 72.5q70 0 117.5 -34.5t67.5 -82.5h2l-1 103h58l-1 -261l1 -262h-58l1 103h-2q-19 -48 -67 -83t-118 -35q-104 0 -162.5 73zM138 95q46 -60 127 -60q44 0 84 21t66.5 72t26.5 134q0 75 -24 126t-64 75.5t-89 24.5
q-82 0 -127.5 -59.5t-45.5 -166.5t46 -167zM201 658q-29 32 -29 95h40q2 -42 18 -61t54 -19q40 0 56.5 19t18.5 61h40q0 -63 -29.5 -95t-85.5 -32q-54 0 -83 32z" />
    <glyph glyph-name="acircumflex.ss03" horiz-adv-x="569" 
d="M92.5 58q-58.5 73 -58.5 204q0 130 58 202.5t163 72.5q70 0 117.5 -34.5t67.5 -82.5h2l-1 103h58l-1 -261l1 -262h-58l1 103h-2q-19 -48 -67 -83t-118 -35q-104 0 -162.5 73zM138 95q46 -60 127 -60q44 0 84 21t66.5 72t26.5 134q0 75 -24 126t-64 75.5t-89 24.5
q-82 0 -127.5 -59.5t-45.5 -166.5t46 -167zM258 757h55l99 -132h-44l-82 88l-83 -88h-44z" />
    <glyph glyph-name="adieresis.ss03" horiz-adv-x="569" 
d="M92.5 58q-58.5 73 -58.5 204q0 130 58 202.5t163 72.5q70 0 117.5 -34.5t67.5 -82.5h2l-1 103h58l-1 -261l1 -262h-58l1 103h-2q-19 -48 -67 -83t-118 -35q-104 0 -162.5 73zM138 95q46 -60 127 -60q44 0 84 21t66.5 72t26.5 134q0 75 -24 126t-64 75.5t-89 24.5
q-82 0 -127.5 -59.5t-45.5 -166.5t46 -167zM173 645.5q-11 10.5 -11 28.5t11 28.5t29 10.5q17 0 28 -10.5t11 -28.5t-11 -28.5t-28 -10.5q-18 0 -29 10.5zM342 702.5q11 10.5 29 10.5q17 0 28 -10.5t11 -28.5t-11 -28.5t-28 -10.5q-18 0 -29 10.5t-11 28.5t11 28.5z" />
    <glyph glyph-name="agrave.ss03" horiz-adv-x="569" 
d="M92.5 58q-58.5 73 -58.5 204q0 130 58 202.5t163 72.5q70 0 117.5 -34.5t67.5 -82.5h2l-1 103h58l-1 -261l1 -262h-58l1 103h-2q-19 -48 -67 -83t-118 -35q-104 0 -162.5 73zM138 95q46 -60 127 -60q44 0 84 21t66.5 72t26.5 134q0 75 -24 126t-64 75.5t-89 24.5
q-82 0 -127.5 -59.5t-45.5 -166.5t46 -167zM177 767h67l60 -132h-39z" />
    <glyph glyph-name="amacron.ss03" horiz-adv-x="569" 
d="M92.5 58q-58.5 73 -58.5 204q0 130 58 202.5t163 72.5q70 0 117.5 -34.5t67.5 -82.5h2l-1 103h58l-1 -261l1 -262h-58l1 103h-2q-19 -48 -67 -83t-118 -35q-104 0 -162.5 73zM138 95q46 -60 127 -60q44 0 84 21t66.5 72t26.5 134q0 75 -24 126t-64 75.5t-89 24.5
q-82 0 -127.5 -59.5t-45.5 -166.5t46 -167zM158 685h254v-44h-254v44z" />
    <glyph glyph-name="aogonek.ss03" horiz-adv-x="569" 
d="M92.5 58q-58.5 73 -58.5 204q0 130 58 202.5t163 72.5q70 0 117.5 -34.5t67.5 -82.5h2l-1 103h58l-1 -261l1 -262h-2q-34 -19 -56.5 -45t-22.5 -50q0 -33 41 -33q18 0 36 5l9 -37q-26 -13 -60 -13t-55 16t-21 48q0 56 84 109h-11l1 103h-2q-19 -48 -67 -83t-118 -35
q-104 0 -162.5 73zM138 95q46 -60 127 -60q44 0 84 21t66.5 72t26.5 134q0 75 -24 126t-64 75.5t-89 24.5q-82 0 -127.5 -59.5t-45.5 -166.5t46 -167z" />
    <glyph glyph-name="aring.ss03" horiz-adv-x="569" 
d="M92.5 58q-58.5 73 -58.5 204q0 130 58 202.5t163 72.5q70 0 117.5 -34.5t67.5 -82.5h2l-1 103h58l-1 -261l1 -262h-58l1 103h-2q-19 -48 -67 -83t-118 -35q-104 0 -162.5 73zM138 95q46 -60 127 -60q44 0 84 21t66.5 72t26.5 134q0 75 -24 126t-64 75.5t-89 24.5
q-82 0 -127.5 -59.5t-45.5 -166.5t46 -167zM228 653q-21 19 -21 53t21 53t57 19q35 0 56 -19t21 -53t-21 -53t-56 -19q-36 0 -57 19zM253 675.5q12 -11.5 32 -11.5t31.5 11.5t11.5 30.5q0 20 -11.5 31.5t-31.5 11.5t-32 -11.5t-12 -31.5q0 -19 12 -30.5z" />
    <glyph glyph-name="atilde.ss03" horiz-adv-x="569" 
d="M92.5 58q-58.5 73 -58.5 204q0 130 58 202.5t163 72.5q70 0 117.5 -34.5t67.5 -82.5h2l-1 103h58l-1 -261l1 -262h-58l1 103h-2q-19 -48 -67 -83t-118 -35q-104 0 -162.5 73zM138 95q46 -60 127 -60q44 0 84 21t66.5 72t26.5 134q0 75 -24 126t-64 75.5t-89 24.5
q-82 0 -127.5 -59.5t-45.5 -166.5t46 -167zM168 704q17 27 52 27q20 0 37 -7.5t39 -21.5q3 -2 13 -8t18.5 -9t15.5 -3q17 0 24 12.5t8 36.5h44q-1 -41 -17.5 -68t-51.5 -27q-20 0 -37.5 7.5t-39.5 21.5q-31 20 -47 20q-18 0 -24.5 -12.5t-6.5 -36.5h-45q1 41 18 68z" />
    <glyph glyph-name="asuperior" horiz-adv-x="357" 
d="M59 388q-27 25 -27 64q0 56 44 79t139 23h27v11q0 43 -16.5 64.5t-55.5 21.5q-40 0 -59 -20.5t-19 -54.5l-49 12q1 51 36 80t94 29q124 0 124 -128v-128q0 -32 21 -32q10 0 17 3l9 -38q-18 -8 -40 -8q-51 0 -52 56v17h-1q-13 -34 -43 -55t-74 -21q-48 0 -75 25z
M104.5 420.5q15.5 -13.5 42.5 -13.5q40 0 67.5 27.5t27.5 75.5v10h-21q-70 0 -101 -14t-31 -48q0 -24 15.5 -37.5z" />
    <glyph glyph-name="bsuperior" horiz-adv-x="399" 
d="M171 381.5q-28 18.5 -41 45.5h-1v-55h-59l1 178l-1 238h59v-155h1q12 27 40 45.5t66 18.5q61 0 95.5 -43t34.5 -123q0 -81 -34.5 -124.5t-95.5 -43.5q-37 0 -65 18.5zM155.5 440.5q26.5 -28.5 62.5 -28.5q42 0 65.5 31.5t23.5 87.5q0 55 -23.5 86t-65.5 31q-39 0 -64 -30
t-25 -87q0 -62 26.5 -90.5z" />
    <glyph glyph-name="csuperior" horiz-adv-x="348" 
d="M74.5 408q-40.5 45 -40.5 122t40 122t108 45q57 0 92.5 -29.5t43.5 -80.5l-53 -14q-7 37 -28 56.5t-54 19.5q-41 0 -65.5 -31.5t-24.5 -87.5q0 -55 24.5 -87t65.5 -32q33 0 54 20t28 57l53 -14q-8 -51 -43 -81t-91 -30q-69 0 -109.5 45z" />
    <glyph glyph-name="dsuperior" horiz-adv-x="399" 
d="M68.5 406.5q-34.5 43.5 -34.5 124.5q0 80 34 123t96 43q38 0 65.5 -19t40.5 -45h1l-1 155h59l-1 -238l1 -178h-59l1 55h-2q-13 -27 -41 -45.5t-64 -18.5q-61 0 -95.5 43.5zM116.5 443.5q23.5 -31.5 64.5 -31.5q37 0 63.5 28t26.5 91q0 57 -25.5 87t-64.5 30
q-42 0 -65 -30.5t-23 -86.5t23.5 -87.5z" />
    <glyph glyph-name="esuperior" horiz-adv-x="354" 
d="M74.5 408q-40.5 45 -40.5 122t39.5 122t107.5 45q72 0 105.5 -49.5t33.5 -127.5h-228q2 -51 27 -80.5t66 -29.5q68 0 82 75l50 -14q-10 -48 -43.5 -78t-89.5 -30q-69 0 -109.5 45zM264 559q-2 42 -23 68t-58 26t-60.5 -24t-28.5 -70h170z" />
    <glyph glyph-name="fsuperior" horiz-adv-x="242" 
d="M80 644l-59 -1v46h56q-3 26 -3 32q0 41 23.5 65.5t67.5 24.5q38 0 69 -15l-9 -44q-25 11 -48 11q-45 0 -45 -45q0 -11 3 -29h87v-46l-86 1l1 -272h-59z" />
    <glyph glyph-name="gsuperior" horiz-adv-x="399" 
d="M90 293.5q-34 25.5 -47 68.5l50 15q18 -64 87 -64q50 0 70.5 29t20.5 86v21h-2q-11 -25 -39 -43t-66 -18q-60 0 -95 41t-35 112q0 70 34.5 113t95.5 43q38 0 65.5 -18.5t39.5 -44.5h2l-1 55h59v-246q0 -92 -38 -133.5t-109 -41.5q-58 0 -92 25.5zM116.5 463.5
q23.5 -29.5 64.5 -29.5q37 0 63.5 25t26.5 82q0 45 -24.5 76t-65.5 31q-40 0 -64 -29.5t-24 -77.5t23.5 -77.5z" />
    <glyph glyph-name="isuperior" horiz-adv-x="170" 
d="M57 531l-1 158q18 -2 30 -2q14 0 28 2l-1 -158l1 -159h-58zM85 792q37 0 37 -32q0 -31 -37 -31t-37 31q0 32 37 32z" />
    <glyph glyph-name="ksuperior" horiz-adv-x="353" 
d="M71 584l-1 204h59l-1 -204v-39l132 144h69l-115 -123l132 -194h-66l-104 153l-47 -51v-102h-59z" />
    <glyph glyph-name="msuperior" horiz-adv-x="586" 
d="M71 524l-1 165h59l-2 -54h2q13 27 40 44.5t59 17.5q70 0 87 -71h1q16 32 45 51.5t61 19.5q45 0 70 -30t25 -93v-50l1 -152h-59l1 152v42q0 40 -15.5 60t-42.5 20q-32 0 -56 -28t-24 -68v-26l1 -152h-58l1 152v42q0 40 -16 60t-43 20q-32 0 -56 -28t-24 -68v-26l2 -152
h-59z" />
    <glyph glyph-name="osuperior" horiz-adv-x="371" 
d="M76 408.5q-41 45.5 -41 122.5q0 76 41 121t110 45t110 -45t41 -121q0 -77 -41 -122.5t-110 -45.5t-110 45.5zM118.5 443.5q24.5 -31.5 67.5 -31.5t67.5 32t24.5 87t-24.5 86t-67.5 31t-67.5 -31t-24.5 -86q0 -56 24.5 -87.5z" />
    <glyph glyph-name="psuperior" horiz-adv-x="399" 
d="M71 511l-1 178h59v-55h1q13 27 40.5 45t65.5 18q61 0 95.5 -43.5t34.5 -123.5t-34.5 -123.5t-95.5 -43.5q-37 0 -65 18.5t-41 45.5h-1v-151h-59zM154.5 441q25.5 -29 63.5 -29q42 0 65.5 31t23.5 87t-23.5 87t-65.5 31q-37 0 -63 -29.5t-26 -88.5q0 -60 25.5 -89z" />
    <glyph glyph-name="qsuperior" horiz-adv-x="399" 
d="M270 276l1 151h-1q-13 -27 -41 -45.5t-65 -18.5q-62 0 -96 44t-34 123q0 80 34.5 123.5t95.5 43.5q38 0 65.5 -18.5t39.5 -44.5h2l-1 55h59l-1 -178l1 -235h-59zM116 443q23 -31 65 -31q38 0 64 29t26 89q0 59 -26 88.5t-64 29.5q-41 0 -64.5 -31t-23.5 -87t23 -87z" />
    <glyph glyph-name="rsuperior" horiz-adv-x="262" 
d="M71 524l-1 165h59l-2 -58h2q11 28 36 47t61 19l21 -2l-2 -57q-13 3 -25 3q-42 0 -67 -29t-25 -79v-18l1 -143h-59z" />
    <glyph glyph-name="tsuperior" horiz-adv-x="254" 
d="M90.5 393.5q-19.5 30.5 -19.5 92.5l1 158l-50 -1v46h49v74l58 16v-90h97v-46l-97 1v-164q0 -36 11.5 -52.5t37.5 -16.5q22 0 48 8l11 -41q-35 -15 -70 -15q-57 0 -76.5 30.5z" />
    <glyph glyph-name="usuperior" horiz-adv-x="412" 
d="M340 537l2 -165h-60l2 54h-1q-14 -28 -41.5 -45t-63.5 -17q-55 0 -82 32t-27 99v42l-1 152h59l-1 -152v-34q0 -88 72 -88q36 0 61 27t25 69v26l-2 152h60z" />
    <glyph glyph-name="vsuperior" horiz-adv-x="336" 
d="M203 372h-71l-116 317h61l91 -259h1l92 259h59z" />
    <glyph glyph-name="zsuperior" horiz-adv-x="318" 
d="M31 416l181 224h-177v49h248v-45l-180 -224h185v-48h-257v44z" />
    <glyph glyph-name="periodcentered.case" horiz-adv-x="198" 
d="M66 317q-12 12 -12 33q0 20 12 32t33 12t33.5 -12t12.5 -32q0 -21 -12.5 -33t-33.5 -12t-33 12z" />
    <glyph glyph-name="bullet.case" horiz-adv-x="281" 
d="M89 315q-19 19 -19 53q0 32 19 51t53 19t54 -19t20 -51q0 -34 -20 -53t-54 -19t-53 19z" />
    <glyph glyph-name="slash.case" horiz-adv-x="405" 
d="M331 725h62l-319 -780h-61z" />
    <glyph glyph-name="backslash.case" horiz-adv-x="405" 
d="M331 -55l-319 780h62l318 -780h-61z" />
    <glyph glyph-name="period.ss01" horiz-adv-x="189" 
d="M66 104h57v-104h-57v104z" />
    <glyph glyph-name="comma.ss01" horiz-adv-x="147" 
d="M67 10h-19v94h60v-81q0 -45 -19 -77.5t-65 -54.5l-14 27q57 26 57 92z" />
    <glyph glyph-name="colon.ss01" horiz-adv-x="189" 
d="M66 104h57v-104h-57v104zM66 524h57v-104h-57v104z" />
    <glyph glyph-name="semicolon.ss01" horiz-adv-x="148" 
d="M50 524h57v-104h-57v104zM67 10h-19v94h60v-81q0 -45 -19 -77.5t-65 -54.5l-14 27q57 26 57 92z" />
    <glyph glyph-name="ellipsis.ss01" horiz-adv-x="567" 
d="M66 104h57v-104h-57v104zM255 104h57v-104h-57v104zM444 104h57v-104h-57v104z" />
    <glyph glyph-name="exclam.ss01" horiz-adv-x="210" 
d="M76 442v251h58v-251l-7 -258h-44zM78 104h54v-104h-54v104z" />
    <glyph glyph-name="exclamdown.ss01" horiz-adv-x="210" 
d="M127 339l7 -258v-251h-58v251l7 258h44zM78 523h54v-104h-54v104z" />
    <glyph glyph-name="question.ss01" horiz-adv-x="490" 
d="M335 416.5q52 45.5 52 121.5q0 55 -35 87.5t-101 32.5q-71 0 -111 -38.5t-52 -108.5l-51 14q12 80 65.5 131.5t151.5 51.5q58 0 101 -22t66.5 -60t23.5 -87q0 -85 -55 -141t-151 -82l-4 -124h-45l-5 157q98 22 150 67.5zM184 104h54v-104h-54v104z" />
    <glyph glyph-name="questiondown.ss01" horiz-adv-x="490" 
d="M155 115q-52 -45 -52 -119q0 -55 35 -86.5t101 -31.5q71 0 111 38t52 106l51 -13q-12 -79 -65.5 -129.5t-151.5 -50.5q-58 0 -101 21.5t-66.5 59t-23.5 85.5q0 83 55 138t151 80l4 122h45l5 -154q-98 -21 -150 -66zM252 523h54v-102h-54v102z" />
    <glyph glyph-name="periodcentered.ss01" horiz-adv-x="164" 
d="M53 319h57v-104h-57v104z" />
    <glyph glyph-name="question.ss02" horiz-adv-x="490" 
d="M335 416.5q52 45.5 52 121.5q0 55 -35 87.5t-101 32.5q-71 0 -111 -38.5t-52 -108.5l-51 14q12 80 65.5 131.5t151.5 51.5q58 0 101 -22t66.5 -60t23.5 -87q0 -85 -55 -141t-151 -82l-4 -124h-45l-5 157q98 22 150 67.5zM178 64q13 12 35 12q23 0 36 -12t13 -33
q0 -22 -13 -34t-36 -12t-35.5 12t-12.5 34q0 21 13 33z" />
    <glyph glyph-name="question.ss03" horiz-adv-x="490" 
d="M213 376q85 0 129.5 39t44.5 108q0 62 -37 96.5t-101 34.5q-68 0 -107.5 -37t-51.5 -106l-53 14q12 80 65 131.5t148 51.5q59 0 103 -23t68 -64t24 -93q0 -92 -57 -145t-148 -52l-3 -139h-47l-5 185q10 -1 28 -1zM178 64q13 12 35 12q23 0 36 -12t13 -33q0 -22 -13 -34
t-36 -12t-35.5 12t-12.5 34q0 21 13 33z" />
    <glyph glyph-name="period.tf" horiz-adv-x="669" 
d="M302 -3q-12 12 -12 33q0 20 12 32t33 12t33.5 -12t12.5 -32q0 -21 -12.5 -33t-33.5 -12t-33 12z" />
    <glyph glyph-name="comma.tf" horiz-adv-x="669" 
d="M330.5 -52q15.5 19 11.5 42q-41 5 -41 42q0 21 12 32.5t32 11.5q45 0 45 -53q0 -111 -103 -130l-7 27q35 9 50.5 28z" />
    <glyph glyph-name="colon.tf" horiz-adv-x="669" 
d="M302 -3q-12 12 -12 33q0 20 12 32t33 12t33.5 -12t12.5 -32q0 -21 -12.5 -33t-33.5 -12t-33 12zM302 462q-12 12 -12 33q0 20 12 32t33 12t33.5 -12t12.5 -32q0 -21 -12.5 -33t-33.5 -12t-33 12z" />
    <glyph glyph-name="semicolon.tf" horiz-adv-x="669" 
d="M330.5 -52q15.5 19 11.5 42q-41 5 -41 42q0 21 12 32.5t32 11.5q45 0 45 -53q0 -111 -103 -130l-7 27q35 9 50.5 28zM312 460q-12 12 -12 33q0 20 12 32t33 12t33.5 -12t12.5 -32q0 -21 -12.5 -33t-33.5 -12t-33 12z" />
    <glyph glyph-name="periodcentered.case.ss01" horiz-adv-x="164" 
d="M53 424h57v-104h-57v104z" />
    <glyph glyph-name="bullet.case.ss01" horiz-adv-x="281" 
d="M89 315q-19 19 -19 53q0 32 19 51t53 19t54 -19t20 -51q0 -34 -20 -53t-54 -19t-53 19z" />
    <glyph glyph-name="period.tf.ss01" horiz-adv-x="669" 
d="M302 104h57v-104h-57v104z" />
    <glyph glyph-name="comma.tf.ss01" horiz-adv-x="669" 
d="M318 10h-19v94h60v-81q0 -45 -19 -77.5t-65 -54.5l-14 27q57 26 57 92z" />
    <glyph glyph-name="colon.tf.ss01" horiz-adv-x="669" 
d="M302 104h57v-104h-57v104zM302 524h57v-104h-57v104z" />
    <glyph glyph-name="semicolon.tf.ss01" horiz-adv-x="669" 
d="M301 524h57v-104h-57v104zM318 10h-19v94h60v-81q0 -45 -19 -77.5t-65 -54.5l-14 27q57 26 57 92z" />
    <glyph glyph-name="hyphen.case" horiz-adv-x="343" 
d="M40 385h263v-54h-263v54z" />
    <glyph glyph-name="endash.case" horiz-adv-x="500" 
d="M0 385h500v-54h-500v54z" />
    <glyph glyph-name="emdash.case" horiz-adv-x="1000" 
d="M0 385h1000v-54h-1000v54z" />
    <glyph glyph-name="figuredash.case" horiz-adv-x="580" 
d="M40 385h500v-54h-500v54z" />
    <glyph glyph-name="parenleft.case" horiz-adv-x="290" 
d="M65 345q0 210 162 391l30 -23q-130 -175 -130 -368q0 -196 130 -371l-29 -22q-163 179 -163 393z" />
    <glyph glyph-name="parenright.case" horiz-adv-x="290" 
d="M163 345q0 193 -130 368l30 23q162 -181 162 -391q0 -214 -163 -393l-29 22q130 175 130 371z" />
    <glyph glyph-name="braceleft.case" horiz-adv-x="279" 
d="M111 62v164q0 49 -16 71.5t-62 22.5v48q45 0 61.5 22.5t16.5 70.5v165q0 49 25 73.5t78 24.5h33v-48h-30q-48 0 -48 -52v-143q0 -59 -16 -92.5t-56 -44.5q40 -12 56 -44.5t16 -92.5v-143q0 -28 13 -40.5t35 -12.5h30v-48h-33q-103 0 -103 99z" />
    <glyph glyph-name="braceright.case" horiz-adv-x="279" 
d="M32 -37v48h30q22 0 35 12.5t13 40.5v143q0 60 16 92.5t56 44.5q-40 11 -56 44.5t-16 92.5v143q0 52 -48 52h-30v48h33q53 0 78 -24.5t25 -73.5v-165q0 -48 16.5 -70.5t61.5 -22.5v-48q-46 0 -62 -22.5t-16 -71.5v-164q0 -99 -103 -99h-33z" />
    <glyph glyph-name="bracketleft.case" horiz-adv-x="320" 
d="M76 729h211v-48h-153v-669h153v-48h-211v765z" />
    <glyph glyph-name="bracketright.case" horiz-adv-x="320" 
d="M33 -36v48h153v669h-153v48h211v-765h-211z" />
    <glyph glyph-name="guillemotleft.case" horiz-adv-x="503" 
d="M40 324v30l178 197l35 -27l-153 -185l153 -184l-35 -28zM240 354l178 197l35 -27l-153 -185l153 -184l-35 -28l-178 197v30z" />
    <glyph glyph-name="guillemotright.case" horiz-adv-x="503" 
d="M250 155l153 184l-153 185l35 27l178 -197v-30l-178 -197zM203 339l-153 185l35 27l178 -197v-30l-178 -197l-35 28z" />
    <glyph glyph-name="guilsinglleft.case" horiz-adv-x="303" 
d="M40 356v30l178 197l35 -27l-153 -185l153 -184l-35 -28z" />
    <glyph glyph-name="guilsinglright.case" horiz-adv-x="303" 
d="M50 187l153 184l-153 185l35 27l178 -197v-30l-178 -197z" />
    <glyph glyph-name="quotesinglbase.ss01" horiz-adv-x="147" 
d="M67 10h-19v94h60v-81q0 -45 -19 -77.5t-65 -54.5l-14 27q57 26 57 92z" />
    <glyph glyph-name="quotedblbase.ss01" horiz-adv-x="274" 
d="M67 10h-19v94h60v-81q0 -45 -19 -77.5t-65 -54.5l-14 27q57 26 57 92zM194 10h-19v94h60v-81q0 -45 -19 -77.5t-65 -54.5l-14 27q57 26 57 92z" />
    <glyph glyph-name="quotedblleft.ss01" horiz-adv-x="274" 
d="M207 588h19v-94h-60v81q0 45 19 77.5t65 54.5l14 -27q-57 -26 -57 -92zM39 575q0 45 19 77.5t65 54.5l14 -27q-57 -26 -57 -92h19v-94h-60v81z" />
    <glyph glyph-name="quotedblright.ss01" horiz-adv-x="274" 
d="M67 600h-19v94h60v-81q0 -45 -19 -77.5t-65 -54.5l-14 27q57 26 57 92zM194 600h-19v94h60v-81q0 -45 -19 -77.5t-65 -54.5l-14 27q57 26 57 92z" />
    <glyph glyph-name="quoteleft.ss01" horiz-adv-x="147" 
d="M80 588h19v-94h-60v81q0 45 19 77.5t65 54.5l14 -27q-57 -26 -57 -92z" />
    <glyph glyph-name="quoteright.ss01" horiz-adv-x="164" 
d="M86 600h-19v94h60v-81q0 -45 -19 -77.5t-65 -54.5l-14 27q57 26 57 92z" />
    <glyph glyph-name="ampersand.001" horiz-adv-x="676" 
d="M142 8.5q-50 23.5 -78.5 67.5t-28.5 103q0 64 36 114t106 90q-51 84 -51 165q0 70 41.5 114.5t113.5 44.5q65 0 105 -39.5t40 -97.5q0 -119 -174 -203q39 -53 90 -105q75 -77 117 -116q31 43 51.5 97.5t28.5 114.5l51 -8q-9 -68 -32.5 -129.5t-59.5 -110.5
q54 -48 81.5 -61t54.5 -13q7 0 22 3l8 -45q-18 -7 -39 -7q-24 0 -43.5 5t-48.5 22.5t-71 54.5q-86 -84 -209 -84q-61 0 -111 23.5zM115 107q22 -33 60.5 -51.5t84.5 -18.5q93 0 163 67q-49 46 -120 120q-67 70 -99 117q-111 -66 -111 -158q0 -43 22 -76zM226 408
q145 66 145 159q0 38 -24 64t-66 26q-46 0 -72 -30t-26 -81q0 -65 43 -138z" />
    <glyph glyph-name="at.case" horiz-adv-x="793" 
d="M211.5 10q-82.5 43 -129.5 123t-47 186q0 112 48 200.5t134.5 138.5t197.5 50q97 0 175 -40.5t123 -115.5t45 -175q0 -74 -22 -127.5t-59.5 -81t-84.5 -27.5q-51 0 -77.5 30.5t-27.5 65.5h-1q-15 -34 -51.5 -56t-78.5 -22q-56 0 -91.5 39t-35.5 108q0 53 18 102t55 80.5
t91 31.5q41 0 69 -20.5t38 -51.5h1l6 63h56l-25 -196q-3 -24 -3 -43q0 -40 14 -59t48 -19q49 0 77 46.5t28 130.5q0 87 -37 152t-102.5 99.5t-149.5 34.5q-93 0 -166.5 -43t-114.5 -119t-41 -172q0 -92 40.5 -161t111 -106.5t157.5 -37.5q40 0 79.5 6t67.5 17l6 -47
q-30 -13 -72 -20t-83 -7q-104 0 -186.5 43zM308 234q23 -27 62 -27q59 0 88.5 49.5t29.5 111.5q0 47 -22 75.5t-64 28.5q-58 0 -87.5 -47.5t-29.5 -110.5q0 -53 23 -80z" />
    <glyph glyph-name="registered.ss01" horiz-adv-x="794" 
d="M268 357l-1 199h136q71 0 108 -31t37 -93q0 -37 -17.5 -63.5t-49.5 -37.5q28 -11 43.5 -33t18.5 -59q8 -60 13 -80h-57q-2 4 -5.5 25.5t-5.5 45.5q-4 41 -28.5 61.5t-60.5 20.5h-77l1 -153h-56zM83.5 528q48.5 83 132 132t181.5 49t181 -49t132 -132t49 -181t-49 -181.5
t-132 -132t-181 -48.5t-181.5 48.5t-132 132t-48.5 181.5t48.5 181zM128.5 191.5q41.5 -71.5 113 -113t155.5 -41.5t155.5 42t113.5 113t42 155t-42 155.5t-113.5 113.5t-155.5 42t-155 -42t-113 -113.5t-42 -155.5t41.5 -155.5zM404 355q43 0 66.5 20t23.5 56q0 78 -88 78
h-84v-154h82z" />
    <glyph glyph-name="ampersand.ss04" horiz-adv-x="646" 
d="M135 8q-47 23 -73.5 64.5t-26.5 96.5q0 63 32.5 110t99.5 94q-81 101 -81 179q0 68 41 111.5t116 43.5q66 0 107 -39.5t41 -97.5t-32.5 -107.5t-106.5 -95.5l-5 -3l1 -1l187 -211q67 102 81 276l54 -8q-21 -197 -98 -308q45 -46 73 -60.5t59 -14.5q7 0 22 3l8 -46
q-18 -7 -39 -7q-40 0 -74.5 16.5t-82.5 65.5q-79 -84 -196 -84q-60 0 -107 23zM135.5 76.5q42.5 -37.5 110.5 -37.5q91 0 155 69l-2 2l-198 222l-1 1q-52 -38 -79.5 -75.5t-27.5 -84.5q0 -59 42.5 -96.5zM213 404q2 0 4 2q65 41 92 79.5t27 82.5q0 37 -25.5 62.5t-70.5 25.5
q-46 0 -71.5 -28.5t-25.5 -73.5q0 -62 70 -150z" />
    <glyph glyph-name="uni03060301" 
d="M59 658q-29 32 -29 95h40q2 -42 18 -61t54 -19q40 0 56.5 19t18.5 61h40q0 -63 -29.5 -95t-85.5 -32q-54 0 -83 32zM156 869h65l-84 -126h-37z" />
    <glyph glyph-name="uni03060300" 
d="M59.5 658q-29.5 32 -29.5 95h40q2 -42 18.5 -61t56.5 -19q38 0 54 19t18 61h40q0 -63 -29 -95t-83 -32q-56 0 -85.5 32zM131 869l56 -126h-37l-84 126h65z" />
    <glyph glyph-name="uni03060309" 
d="M59 658q-29 32 -29 95h40q2 -42 18 -61t54 -19q40 0 56.5 19t18.5 61h40q0 -63 -29.5 -95t-85.5 -32q-54 0 -83 32zM151 790.5q11 14.5 11 31.5q0 26 -27 26q-20 0 -42 -10l-9 30q10 6 26 10.5t30 4.5q32 0 47.5 -16t15.5 -41q0 -47 -61 -90l-22 25q20 15 31 29.5z" />
    <glyph glyph-name="uni03060303" 
d="M81 658q-29 32 -29 95h40q2 -42 18 -61t54 -19q40 0 56.5 19t18.5 61h40q0 -63 -29.5 -95t-85.5 -32q-54 0 -83 32zM66 844q15 27 46 27q17 0 32 -7.5t34 -21.5l12 -8t16 -9t13 -3q15 0 21 12.5t7 36.5h39q-1 -41 -15.5 -68t-45.5 -27q-17 0 -32.5 7.5t-34.5 21.5
q-14 10 -23 15t-18 5q-16 0 -21.5 -12.5t-5.5 -36.5h-40q1 41 16 68z" />
    <glyph glyph-name="uni03020301" 
d="M129 757h55l99 -132h-44l-82 88l-83 -88h-44zM294 803h61l-79 -106h-35z" />
    <glyph glyph-name="uni03020300" 
d="M238 625l-83 88l-82 -88h-44l99 132h55l99 -132h-44zM17 803l53 -106h-35l-79 106h61z" />
    <glyph glyph-name="uni03020309" 
d="M129 757h55l99 -132h-44l-82 88l-83 -88h-44zM224.5 826q14.5 4 27.5 4q29 0 43 -14t14 -37q0 -42 -55 -81l-20 23q18 13 28 26t10 29q0 23 -25 23q-17 0 -37 -9l-8 27q8 5 22.5 9z" />
    <glyph glyph-name="uni03020303" 
d="M138 757h55l99 -132h-44l-82 88l-83 -88h-44zM60 846.5q15 24.5 47 24.5q18 0 33 -6.5t35 -19.5q3 -2 17.5 -10t25.5 -8q15 0 21.5 11.5t7.5 32.5h39q-1 -37 -15.5 -61.5t-46.5 -24.5q-18 0 -34 7t-36 20q-11 7 -22 12.5t-20 5.5q-16 0 -21.5 -11.5t-5.5 -33.5h-41
q1 37 16 61.5z" />
    <glyph glyph-name="uni0306.cy" 
d="M54 658q-29 32 -29 95h40q2 -42 18 -61t54 -19q40 0 56.5 19t18.5 61h40q0 -63 -29.5 -95t-85.5 -32q-54 0 -83 32z" />
    <glyph glyph-name="uni0306.cy.case" 
d="M54 789q-29 29 -29 85h40q2 -39 18 -56t54 -17q40 0 56.5 17t18.5 56h40q0 -57 -29 -85.5t-86 -28.5q-54 0 -83 29z" />
    <glyph glyph-name="uni03080300" 
d="M41 645.5q-11 10.5 -11 28.5t11 28.5t29 10.5q17 0 28 -10.5t11 -28.5t-11 -28.5t-28 -10.5q-18 0 -29 10.5zM135 838l54 -119h-35l-79 119h60zM210 702.5q11 10.5 29 10.5q17 0 28 -10.5t11 -28.5t-11 -28.5t-28 -10.5q-18 0 -29 10.5t-11 28.5t11 28.5z" />
    <glyph glyph-name="uni03080301" 
d="M208 645.5q-11 10.5 -11 28.5t11 28.5t28 10.5q18 0 29 -10.5t11 -28.5t-11 -28.5t-29 -10.5q-17 0 -28 10.5zM39 702.5q11 10.5 28 10.5q18 0 29 -10.5t11 -28.5t-11 -28.5t-29 -10.5q-17 0 -28 10.5t-11 28.5t11 28.5zM171 838h61l-80 -119h-35z" />
    <glyph glyph-name="uni0308030C" 
d="M45 645.5q-11 10.5 -11 28.5t11 28.5t29 10.5q17 0 28 -10.5t11 -28.5t-11 -28.5t-28 -10.5q-18 0 -29 10.5zM83 840l75 -79l74 79h39l-89 -119h-49l-89 119h39zM214 702.5q11 10.5 29 10.5q17 0 28 -10.5t11 -28.5t-11 -28.5t-28 -10.5q-18 0 -29 10.5t-11 28.5t11 28.5
z" />
    </font>
</defs>
</svg>
