<?xml version="1.0" standalone="no"?>
<!DOCTYPE svg PUBLIC "-//W3C//DTD SVG 1.1//EN" "http://www.w3.org/Graphics/SVG/1.1/DTD/svg11.dtd" >
<svg xmlns="http://www.w3.org/2000/svg" xmlns:xlink="http://www.w3.org/1999/xlink" version="1.1">
<metadata>
Created by FontForge 20201107 at Mon Jan 10 21:23:54 2022
 By 
Copyright 2021 Milligram by Cosimo Lorenzo Pancini. All rights reserved.
</metadata>
<defs>
<font id="MilligramTrial-LightItalic" horiz-adv-x="0" >
  <font-face 
    font-family="Milligram Trial Light"
    font-weight="300"
    font-style="italic"
    font-stretch="normal"
    units-per-em="1000"
    panose-1="0 0 0 0 0 0 0 0 0 0"
    ascent="800"
    descent="-200"
    x-height="523"
    cap-height="693"
    bbox="-160 -175 1296 997"
    underline-thickness="0"
    underline-position="0"
    slope="-10"
    unicode-range="U+000D-F8FF"
  />
<missing-glyph horiz-adv-x="521" 
d="M152 693h247v-693h-247v693zM264 346l-82 289v-577zM354 26l-79 278l-78 -278h157zM276 389l78 277h-157zM369 58v577l-82 -288z" />
    <glyph glyph-name=".notdef" horiz-adv-x="521" 
d="M152 693h247v-693h-247v693zM264 346l-82 289v-577zM354 26l-79 278l-78 -278h157zM276 389l78 277h-157zM369 58v577l-82 -288z" />
    <glyph glyph-name=".null" horiz-adv-x="600" 
 />
    <glyph glyph-name="nonmarkingreturn" unicode="&#xd;" horiz-adv-x="600" 
 />
    <glyph glyph-name="space" unicode=" " horiz-adv-x="263" 
 />
    <glyph glyph-name="exclam" unicode="!" horiz-adv-x="246" 
d="M121 442l44 251h58l-44 -251l-53 -258h-44zM49 62q14 14 38 14q19 0 30.5 -10t11.5 -29q0 -23 -14 -37.5t-38 -14.5q-19 0 -30.5 10t-11.5 29q0 24 14 38z" />
    <glyph glyph-name="quotedbl" unicode="&#x22;" horiz-adv-x="335" 
d="M147 693h52l-45 -259h-52zM288 693h52l-45 -259h-52z" />
    <glyph glyph-name="numbersign" unicode="#" horiz-adv-x="550" 
d="M313 152h-157l-49 -152h-53l49 152h-110l17 46h108l54 166h-112l16 46h111l47 145h52l-47 -145h158l47 145h54l-47 -145h113l-16 -46h-112l-53 -166h115l-16 -46h-114l-49 -152h-55zM328 198l54 166h-158l-53 -166h157z" />
    <glyph glyph-name="dollar" unicode="$" horiz-adv-x="557" 
d="M389 728l-13 -74q71 -11 113 -56t50 -117l-52 -13q-15 115 -120 134l-42 -238q95 -32 136.5 -70.5t41.5 -98.5q0 -48 -24 -90t-78 -68.5t-139 -27.5l-13 -74h-49l13 76q-84 10 -131.5 60.5t-55.5 135.5l53 14q10 -71 42.5 -110t101.5 -48l45 257q-83 30 -121.5 69.5
t-38.5 100.5q0 38 21.5 76t70.5 64t127 27l13 71h49zM192 428.5q26 -25.5 87 -48.5l39 226q-78 -1 -115 -35t-37 -77q0 -40 26 -65.5zM368 81.5q39 18.5 57.5 46.5t18.5 58q0 43 -29.5 68.5t-100.5 50.5l-43 -244q58 2 97 20.5z" />
    <glyph glyph-name="percent" unicode="%" horiz-adv-x="707" 
d="M556 693h58l-429 -693h-57zM141 654.5q45 43.5 109 43.5q54 0 83.5 -31.5t29.5 -85.5q0 -22 -4 -41q-13 -73 -57.5 -118t-108.5 -45q-54 0 -83.5 32.5t-29.5 88.5q0 22 4 42q12 71 57 114.5zM134 506q0 -39 17.5 -62t49.5 -23q39 0 67.5 33t37.5 86q3 17 3 32
q0 38 -17.5 60.5t-49.5 22.5q-39 0 -67.5 -32.5t-37.5 -82.5q-3 -18 -3 -34zM434 264q45 44 109 44q54 0 83.5 -32t29.5 -86q0 -22 -4 -41q-13 -73 -57.5 -118t-108.5 -45q-54 0 -83.5 32.5t-29.5 88.5q0 22 4 42q12 71 57 115zM427 115q0 -39 17 -62t49 -23q39 0 68 33.5
t38 85.5q3 17 3 32q0 38 -17.5 61t-49.5 23q-39 0 -68 -32.5t-37 -83.5q-3 -18 -3 -34z" />
    <glyph glyph-name="ampersand" unicode="&#x26;" horiz-adv-x="677" 
d="M115.5 4.5q-44.5 19.5 -70.5 56.5t-26 87q0 144 179 236q-25 61 -25 116q0 44 17 91.5t59 81.5t110 34q57 0 90.5 -31.5t33.5 -79.5q0 -69 -52 -125t-160 -104q28 -51 71 -105q48 -60 96 -116q76 87 116 212l52 -8q-46 -149 -132 -243q45 -46 69 -58.5t51 -12.5q8 0 23 3
v-45q-21 -8 -40 -8q-36 0 -66 14.5t-80 65.5q-97 -81 -216 -81q-55 0 -99.5 19.5zM118 70.5q40 -33.5 103 -33.5q94 0 174 67q-40 44 -99 120q-53 69 -78 117q-140 -76 -140 -183q0 -54 40 -87.5zM252 409q83 37 129 82t46 94q0 32 -19.5 52t-56.5 20q-45 0 -72 -25
t-38 -58.5t-11 -63.5q0 -48 22 -101z" />
    <glyph glyph-name="quotesingle" unicode="'" horiz-adv-x="194" 
d="M147 693h52l-45 -259h-52z" />
    <glyph glyph-name="parenleft" unicode="(" horiz-adv-x="305" 
d="M90 18.5q-27 88.5 -27 181.5q0 121 59.5 264.5t198.5 271.5l30 -28q-123 -132 -175 -267t-52 -248q0 -85 19.5 -165t57.5 -144l-34 -23q-50 69 -77 157.5z" />
    <glyph glyph-name="parenright" unicode=")" horiz-adv-x="305" 
d="M227.5 580.5q26.5 -87.5 26.5 -178.5q0 -123 -59 -267.5t-199 -273.5l-30 28q125 134 176 270t51 251q0 83 -19.5 162t-56.5 141l34 23q50 -68 76.5 -155.5z" />
    <glyph glyph-name="asterisk" unicode="*" horiz-adv-x="362" 
d="M109 445l94 96l-107 35l23 44l100 -51l14 124h47l-29 -124l118 51l8 -45l-121 -33l61 -97l-43 -27l-48 103l-84 -103z" />
    <glyph glyph-name="plus" unicode="+" horiz-adv-x="433" 
d="M65 345l142 -2l23 139h52l-27 -139l143 2l-9 -49l-142 2l-22 -139h-52l26 139l-143 -2z" />
    <glyph glyph-name="comma" unicode="," horiz-adv-x="177" 
d="M23.5 -52q19.5 19 19.5 41q-34 5 -34 36q0 23 14 37t36 14q17 0 28.5 -10.5t11.5 -29.5q0 -25 -11 -55.5t-39.5 -56.5t-77.5 -31l-3 27q36 9 55.5 28z" />
    <glyph glyph-name="hyphen" unicode="-" horiz-adv-x="343" 
d="M50 320h263l-9 -54h-263z" />
    <glyph glyph-name="period" unicode="." horiz-adv-x="198" 
d="M22.5 -6q-10.5 9 -10.5 27q0 24 14.5 38.5t38.5 14.5q19 0 29 -9.5t10 -26.5q0 -19 -13 -36t-39 -17q-19 0 -29.5 9z" />
    <glyph glyph-name="slash" unicode="/" horiz-adv-x="405" 
d="M412 725h62l-472 -870h-61z" />
    <glyph glyph-name="zero" unicode="0" horiz-adv-x="1326" 
d="M42 462h486q4 56 44.5 94t96.5 38t96.5 -38t44.5 -94h486v-193h-1254v193zM78 118h-36v31h93l-41 -78h38v-31h-95zM41 247h50v-11h-38v-26h33v-11h-33v-29h-12v77zM94 392v-86h39v86h28v35h-96v-35h29zM101 247h12v-47q0 -9 5.5 -14.5t13.5 -5.5t14 6t6 14v47h12v-47
q0 -14 -9 -22.5t-23 -8.5q-13 0 -22 9t-9 22v47zM142 149h79v-30h-44v-9h38v-30h-38v-10h45v-30h-80v109zM207 306v35h8l15 -35h41l-21 46q14 12 14 32q0 18 -13.5 30.5t-32.5 12.5h-50v-121h39zM179 247h12v-66h35v-11h-47v77zM207 394h10q3 0 5.5 -3t2.5 -7t-2.5 -7.5
t-5.5 -3.5h-10v21zM226 149h87v-31h-26v-78h-35v78h-26v31zM237 247h12v-66h36v-11h-48v77zM315 306v121h-38v-121h38zM338 149h40l37 -109h-38l-4 17h-31l-5 -17h-36zM331 247l22 -57l22 57h14l-32 -77h-8l-32 77h14zM363 306l5 19h34l5 -19h42l-41 121h-45l-41 -121h41z
M365 86l-7 26h-1l-7 -26h15zM384 386h1l8 -29h-17zM399 247h50v-11h-38v-22h33v-10h-33v-23h38v-11h-50v77zM421 149h79v-30h-44v-16h37v-29h-37v-34h-35v109zM538 306v33h-43v88h-39v-121h82zM462 247h29q11 0 18 -7t7 -18q0 -14 -12 -21l15 -31h-14l-13 28h-18v-28h-12v77
zM491 208q5 0 9 4t4 10t-4 10t-9 4h-17v-28h17zM521 135.5q17 16.5 42 16.5t42 -16.5t17 -40.5q0 -25 -17 -41.5t-42 -16.5t-42 16.5t-17 41.5q0 24 17 40.5zM525 189q13 -9 26 -9q14 0 14 12q0 7 -17 12q-12 5 -17 9.5t-5 13.5q0 10 7 16t19 6q10 0 20 -5v-13q-9 7 -20 7
q-6 0 -10 -3t-4 -8t3.5 -7.5t12.5 -5.5q23 -9 23 -22q0 -11 -7.5 -17t-18.5 -6q-14 0 -26 7v13zM546 76.5q7 -7.5 17 -7.5t17 7.5t7 18.5t-7 18t-17 7t-17 -7t-7 -18t7 -18.5zM574 367l167 166h-171q-29 -35 -29 -81q0 -49 33 -85zM669 325q48 0 85 32h-170q37 -32 85 -32z
M754 547q-38 33 -85 33q-49 0 -85 -33h170zM589 247h12v-77h-12v77zM767 371q29 35 29 81q0 48 -32 85l-166 -166h169zM625.5 237.5q11.5 11.5 28.5 11.5t28.5 -11.5t11.5 -28.5t-11.5 -28.5t-28.5 -11.5t-28.5 11.5t-11.5 28.5t11.5 28.5zM634 188q8 -8 20 -8q11 0 19 8
t8 21q0 12 -8 20t-19 8q-12 0 -20 -8t-8 -20q0 -13 8 -21zM630 149h36l33 -58v58h35v-109h-36l-34 53l1 -53h-35v109zM706 248h6l49 -55v54h12v-79h-6l-49 54v-52h-12v78zM740 149h86v-31h-25v-78h-35v78h-26v31zM807 213h458l-13 11l8 7l25 -24l-25 -24l-8 7l13 11h-458v12
zM839.5 321q18.5 -18 46.5 -18t47 18t19 46q0 27 -19 45t-47 18t-46.5 -18t-18.5 -45q0 -28 18.5 -46zM841 143q12 9 33 9q14 0 32 -8v-34q-6 5 -15.5 8t-16.5 3q-11 0 -11 -4q0 -3 2.5 -4.5t5.5 -2t6 -1.5q36 -8 36 -35q0 -17 -12.5 -27t-31.5 -10q-22 0 -38 10v37
q25 -16 38 -16q9 0 9 6q0 4 -7 6t-10 3q-17 6 -24.5 13.5t-7.5 21.5q0 16 12 25zM867 387q8 8 19 8q12 0 19.5 -8t7.5 -20q0 -13 -7.5 -21t-19.5 -8q-11 0 -19 8t-8 21q0 12 8 20zM923 65.5q5 4.5 13 4.5q7 0 12 -4.5t5 -11.5t-5 -12t-12 -5q-8 0 -13 5t-5 12t5 11.5z
M976 135.5q17 16.5 42 16.5q13 0 23 -6v-33q-12 7 -22 7t-17.5 -7t-7.5 -18t7 -18.5t18 -7.5q15 0 25 10l-1 -35q-14 -7 -26 -7q-24 0 -41 16.5t-17 41.5q0 24 17 40.5zM999 306l-1 59l38 -59h40v121h-39v-64l-37 64h-40v-121h39zM1064.5 135.5q17.5 16.5 42.5 16.5
t42 -16.5t17 -40.5q0 -25 -17 -41.5t-42 -16.5q-26 0 -43 16.5t-17 41.5q0 24 17.5 40.5zM1089 76.5q7 -7.5 18 -7.5q10 0 17 7.5t7 18.5q0 10 -7 17.5t-17 7.5t-17.5 -7t-7.5 -18t7 -18.5zM1170 306v33h-43v88h-39v-121h82zM1192 354v-48h39v48l41 73h-45l-16 -36l-15 36
h-46zM1173 149h35l26 -50l26 50h35v-109h-34v43l-14 -27h-25l-14 27v-43h-35v109z" />
    <glyph glyph-name="one" unicode="1" horiz-adv-x="1326" 
d="M42 462h486q4 56 44.5 94t96.5 38t96.5 -38t44.5 -94h486v-193h-1254v193zM78 118h-36v31h93l-41 -78h38v-31h-95zM41 247h50v-11h-38v-26h33v-11h-33v-29h-12v77zM94 392v-86h39v86h28v35h-96v-35h29zM101 247h12v-47q0 -9 5.5 -14.5t13.5 -5.5t14 6t6 14v47h12v-47
q0 -14 -9 -22.5t-23 -8.5q-13 0 -22 9t-9 22v47zM142 149h79v-30h-44v-9h38v-30h-38v-10h45v-30h-80v109zM207 306v35h8l15 -35h41l-21 46q14 12 14 32q0 18 -13.5 30.5t-32.5 12.5h-50v-121h39zM179 247h12v-66h35v-11h-47v77zM207 394h10q3 0 5.5 -3t2.5 -7t-2.5 -7.5
t-5.5 -3.5h-10v21zM226 149h87v-31h-26v-78h-35v78h-26v31zM237 247h12v-66h36v-11h-48v77zM315 306v121h-38v-121h38zM338 149h40l37 -109h-38l-4 17h-31l-5 -17h-36zM331 247l22 -57l22 57h14l-32 -77h-8l-32 77h14zM363 306l5 19h34l5 -19h42l-41 121h-45l-41 -121h41z
M365 86l-7 26h-1l-7 -26h15zM384 386h1l8 -29h-17zM399 247h50v-11h-38v-22h33v-10h-33v-23h38v-11h-50v77zM421 149h79v-30h-44v-16h37v-29h-37v-34h-35v109zM538 306v33h-43v88h-39v-121h82zM462 247h29q11 0 18 -7t7 -18q0 -14 -12 -21l15 -31h-14l-13 28h-18v-28h-12v77
zM491 208q5 0 9 4t4 10t-4 10t-9 4h-17v-28h17zM521 135.5q17 16.5 42 16.5t42 -16.5t17 -40.5q0 -25 -17 -41.5t-42 -16.5t-42 16.5t-17 41.5q0 24 17 40.5zM525 189q13 -9 26 -9q14 0 14 12q0 7 -17 12q-12 5 -17 9.5t-5 13.5q0 10 7 16t19 6q10 0 20 -5v-13q-9 7 -20 7
q-6 0 -10 -3t-4 -8t3.5 -7.5t12.5 -5.5q23 -9 23 -22q0 -11 -7.5 -17t-18.5 -6q-14 0 -26 7v13zM546 76.5q7 -7.5 17 -7.5t17 7.5t7 18.5t-7 18t-17 7t-17 -7t-7 -18t7 -18.5zM574 367l167 166h-171q-29 -35 -29 -81q0 -49 33 -85zM669 325q48 0 85 32h-170q37 -32 85 -32z
M754 547q-38 33 -85 33q-49 0 -85 -33h170zM589 247h12v-77h-12v77zM767 371q29 35 29 81q0 48 -32 85l-166 -166h169zM625.5 237.5q11.5 11.5 28.5 11.5t28.5 -11.5t11.5 -28.5t-11.5 -28.5t-28.5 -11.5t-28.5 11.5t-11.5 28.5t11.5 28.5zM634 188q8 -8 20 -8q11 0 19 8
t8 21q0 12 -8 20t-19 8q-12 0 -20 -8t-8 -20q0 -13 8 -21zM630 149h36l33 -58v58h35v-109h-36l-34 53l1 -53h-35v109zM706 248h6l49 -55v54h12v-79h-6l-49 54v-52h-12v78zM740 149h86v-31h-25v-78h-35v78h-26v31zM807 213h458l-13 11l8 7l25 -24l-25 -24l-8 7l13 11h-458v12
zM839.5 321q18.5 -18 46.5 -18t47 18t19 46q0 27 -19 45t-47 18t-46.5 -18t-18.5 -45q0 -28 18.5 -46zM841 143q12 9 33 9q14 0 32 -8v-34q-6 5 -15.5 8t-16.5 3q-11 0 -11 -4q0 -3 2.5 -4.5t5.5 -2t6 -1.5q36 -8 36 -35q0 -17 -12.5 -27t-31.5 -10q-22 0 -38 10v37
q25 -16 38 -16q9 0 9 6q0 4 -7 6t-10 3q-17 6 -24.5 13.5t-7.5 21.5q0 16 12 25zM867 387q8 8 19 8q12 0 19.5 -8t7.5 -20q0 -13 -7.5 -21t-19.5 -8q-11 0 -19 8t-8 21q0 12 8 20zM923 65.5q5 4.5 13 4.5q7 0 12 -4.5t5 -11.5t-5 -12t-12 -5q-8 0 -13 5t-5 12t5 11.5z
M976 135.5q17 16.5 42 16.5q13 0 23 -6v-33q-12 7 -22 7t-17.5 -7t-7.5 -18t7 -18.5t18 -7.5q15 0 25 10l-1 -35q-14 -7 -26 -7q-24 0 -41 16.5t-17 41.5q0 24 17 40.5zM999 306l-1 59l38 -59h40v121h-39v-64l-37 64h-40v-121h39zM1064.5 135.5q17.5 16.5 42.5 16.5
t42 -16.5t17 -40.5q0 -25 -17 -41.5t-42 -16.5q-26 0 -43 16.5t-17 41.5q0 24 17.5 40.5zM1089 76.5q7 -7.5 18 -7.5q10 0 17 7.5t7 18.5q0 10 -7 17.5t-17 7.5t-17.5 -7t-7.5 -18t7 -18.5zM1170 306v33h-43v88h-39v-121h82zM1192 354v-48h39v48l41 73h-45l-16 -36l-15 36
h-46zM1173 149h35l26 -50l26 50h35v-109h-34v43l-14 -27h-25l-14 27v-43h-35v109z" />
    <glyph glyph-name="two" unicode="2" horiz-adv-x="1326" 
d="M42 462h486q4 56 44.5 94t96.5 38t96.5 -38t44.5 -94h486v-193h-1254v193zM78 118h-36v31h93l-41 -78h38v-31h-95zM41 247h50v-11h-38v-26h33v-11h-33v-29h-12v77zM94 392v-86h39v86h28v35h-96v-35h29zM101 247h12v-47q0 -9 5.5 -14.5t13.5 -5.5t14 6t6 14v47h12v-47
q0 -14 -9 -22.5t-23 -8.5q-13 0 -22 9t-9 22v47zM142 149h79v-30h-44v-9h38v-30h-38v-10h45v-30h-80v109zM207 306v35h8l15 -35h41l-21 46q14 12 14 32q0 18 -13.5 30.5t-32.5 12.5h-50v-121h39zM179 247h12v-66h35v-11h-47v77zM207 394h10q3 0 5.5 -3t2.5 -7t-2.5 -7.5
t-5.5 -3.5h-10v21zM226 149h87v-31h-26v-78h-35v78h-26v31zM237 247h12v-66h36v-11h-48v77zM315 306v121h-38v-121h38zM338 149h40l37 -109h-38l-4 17h-31l-5 -17h-36zM331 247l22 -57l22 57h14l-32 -77h-8l-32 77h14zM363 306l5 19h34l5 -19h42l-41 121h-45l-41 -121h41z
M365 86l-7 26h-1l-7 -26h15zM384 386h1l8 -29h-17zM399 247h50v-11h-38v-22h33v-10h-33v-23h38v-11h-50v77zM421 149h79v-30h-44v-16h37v-29h-37v-34h-35v109zM538 306v33h-43v88h-39v-121h82zM462 247h29q11 0 18 -7t7 -18q0 -14 -12 -21l15 -31h-14l-13 28h-18v-28h-12v77
zM491 208q5 0 9 4t4 10t-4 10t-9 4h-17v-28h17zM521 135.5q17 16.5 42 16.5t42 -16.5t17 -40.5q0 -25 -17 -41.5t-42 -16.5t-42 16.5t-17 41.5q0 24 17 40.5zM525 189q13 -9 26 -9q14 0 14 12q0 7 -17 12q-12 5 -17 9.5t-5 13.5q0 10 7 16t19 6q10 0 20 -5v-13q-9 7 -20 7
q-6 0 -10 -3t-4 -8t3.5 -7.5t12.5 -5.5q23 -9 23 -22q0 -11 -7.5 -17t-18.5 -6q-14 0 -26 7v13zM546 76.5q7 -7.5 17 -7.5t17 7.5t7 18.5t-7 18t-17 7t-17 -7t-7 -18t7 -18.5zM574 367l167 166h-171q-29 -35 -29 -81q0 -49 33 -85zM669 325q48 0 85 32h-170q37 -32 85 -32z
M754 547q-38 33 -85 33q-49 0 -85 -33h170zM589 247h12v-77h-12v77zM767 371q29 35 29 81q0 48 -32 85l-166 -166h169zM625.5 237.5q11.5 11.5 28.5 11.5t28.5 -11.5t11.5 -28.5t-11.5 -28.5t-28.5 -11.5t-28.5 11.5t-11.5 28.5t11.5 28.5zM634 188q8 -8 20 -8q11 0 19 8
t8 21q0 12 -8 20t-19 8q-12 0 -20 -8t-8 -20q0 -13 8 -21zM630 149h36l33 -58v58h35v-109h-36l-34 53l1 -53h-35v109zM706 248h6l49 -55v54h12v-79h-6l-49 54v-52h-12v78zM740 149h86v-31h-25v-78h-35v78h-26v31zM807 213h458l-13 11l8 7l25 -24l-25 -24l-8 7l13 11h-458v12
zM839.5 321q18.5 -18 46.5 -18t47 18t19 46q0 27 -19 45t-47 18t-46.5 -18t-18.5 -45q0 -28 18.5 -46zM841 143q12 9 33 9q14 0 32 -8v-34q-6 5 -15.5 8t-16.5 3q-11 0 -11 -4q0 -3 2.5 -4.5t5.5 -2t6 -1.5q36 -8 36 -35q0 -17 -12.5 -27t-31.5 -10q-22 0 -38 10v37
q25 -16 38 -16q9 0 9 6q0 4 -7 6t-10 3q-17 6 -24.5 13.5t-7.5 21.5q0 16 12 25zM867 387q8 8 19 8q12 0 19.5 -8t7.5 -20q0 -13 -7.5 -21t-19.5 -8q-11 0 -19 8t-8 21q0 12 8 20zM923 65.5q5 4.5 13 4.5q7 0 12 -4.5t5 -11.5t-5 -12t-12 -5q-8 0 -13 5t-5 12t5 11.5z
M976 135.5q17 16.5 42 16.5q13 0 23 -6v-33q-12 7 -22 7t-17.5 -7t-7.5 -18t7 -18.5t18 -7.5q15 0 25 10l-1 -35q-14 -7 -26 -7q-24 0 -41 16.5t-17 41.5q0 24 17 40.5zM999 306l-1 59l38 -59h40v121h-39v-64l-37 64h-40v-121h39zM1064.5 135.5q17.5 16.5 42.5 16.5
t42 -16.5t17 -40.5q0 -25 -17 -41.5t-42 -16.5q-26 0 -43 16.5t-17 41.5q0 24 17.5 40.5zM1089 76.5q7 -7.5 18 -7.5q10 0 17 7.5t7 18.5q0 10 -7 17.5t-17 7.5t-17.5 -7t-7.5 -18t7 -18.5zM1170 306v33h-43v88h-39v-121h82zM1192 354v-48h39v48l41 73h-45l-16 -36l-15 36
h-46zM1173 149h35l26 -50l26 50h35v-109h-34v43l-14 -27h-25l-14 27v-43h-35v109z" />
    <glyph glyph-name="three" unicode="3" horiz-adv-x="1326" 
d="M42 462h486q4 56 44.5 94t96.5 38t96.5 -38t44.5 -94h486v-193h-1254v193zM78 118h-36v31h93l-41 -78h38v-31h-95zM41 247h50v-11h-38v-26h33v-11h-33v-29h-12v77zM94 392v-86h39v86h28v35h-96v-35h29zM101 247h12v-47q0 -9 5.5 -14.5t13.5 -5.5t14 6t6 14v47h12v-47
q0 -14 -9 -22.5t-23 -8.5q-13 0 -22 9t-9 22v47zM142 149h79v-30h-44v-9h38v-30h-38v-10h45v-30h-80v109zM207 306v35h8l15 -35h41l-21 46q14 12 14 32q0 18 -13.5 30.5t-32.5 12.5h-50v-121h39zM179 247h12v-66h35v-11h-47v77zM207 394h10q3 0 5.5 -3t2.5 -7t-2.5 -7.5
t-5.5 -3.5h-10v21zM226 149h87v-31h-26v-78h-35v78h-26v31zM237 247h12v-66h36v-11h-48v77zM315 306v121h-38v-121h38zM338 149h40l37 -109h-38l-4 17h-31l-5 -17h-36zM331 247l22 -57l22 57h14l-32 -77h-8l-32 77h14zM363 306l5 19h34l5 -19h42l-41 121h-45l-41 -121h41z
M365 86l-7 26h-1l-7 -26h15zM384 386h1l8 -29h-17zM399 247h50v-11h-38v-22h33v-10h-33v-23h38v-11h-50v77zM421 149h79v-30h-44v-16h37v-29h-37v-34h-35v109zM538 306v33h-43v88h-39v-121h82zM462 247h29q11 0 18 -7t7 -18q0 -14 -12 -21l15 -31h-14l-13 28h-18v-28h-12v77
zM491 208q5 0 9 4t4 10t-4 10t-9 4h-17v-28h17zM521 135.5q17 16.5 42 16.5t42 -16.5t17 -40.5q0 -25 -17 -41.5t-42 -16.5t-42 16.5t-17 41.5q0 24 17 40.5zM525 189q13 -9 26 -9q14 0 14 12q0 7 -17 12q-12 5 -17 9.5t-5 13.5q0 10 7 16t19 6q10 0 20 -5v-13q-9 7 -20 7
q-6 0 -10 -3t-4 -8t3.5 -7.5t12.5 -5.5q23 -9 23 -22q0 -11 -7.5 -17t-18.5 -6q-14 0 -26 7v13zM546 76.5q7 -7.5 17 -7.5t17 7.5t7 18.5t-7 18t-17 7t-17 -7t-7 -18t7 -18.5zM574 367l167 166h-171q-29 -35 -29 -81q0 -49 33 -85zM669 325q48 0 85 32h-170q37 -32 85 -32z
M754 547q-38 33 -85 33q-49 0 -85 -33h170zM589 247h12v-77h-12v77zM767 371q29 35 29 81q0 48 -32 85l-166 -166h169zM625.5 237.5q11.5 11.5 28.5 11.5t28.5 -11.5t11.5 -28.5t-11.5 -28.5t-28.5 -11.5t-28.5 11.5t-11.5 28.5t11.5 28.5zM634 188q8 -8 20 -8q11 0 19 8
t8 21q0 12 -8 20t-19 8q-12 0 -20 -8t-8 -20q0 -13 8 -21zM630 149h36l33 -58v58h35v-109h-36l-34 53l1 -53h-35v109zM706 248h6l49 -55v54h12v-79h-6l-49 54v-52h-12v78zM740 149h86v-31h-25v-78h-35v78h-26v31zM807 213h458l-13 11l8 7l25 -24l-25 -24l-8 7l13 11h-458v12
zM839.5 321q18.5 -18 46.5 -18t47 18t19 46q0 27 -19 45t-47 18t-46.5 -18t-18.5 -45q0 -28 18.5 -46zM841 143q12 9 33 9q14 0 32 -8v-34q-6 5 -15.5 8t-16.5 3q-11 0 -11 -4q0 -3 2.5 -4.5t5.5 -2t6 -1.5q36 -8 36 -35q0 -17 -12.5 -27t-31.5 -10q-22 0 -38 10v37
q25 -16 38 -16q9 0 9 6q0 4 -7 6t-10 3q-17 6 -24.5 13.5t-7.5 21.5q0 16 12 25zM867 387q8 8 19 8q12 0 19.5 -8t7.5 -20q0 -13 -7.5 -21t-19.5 -8q-11 0 -19 8t-8 21q0 12 8 20zM923 65.5q5 4.5 13 4.5q7 0 12 -4.5t5 -11.5t-5 -12t-12 -5q-8 0 -13 5t-5 12t5 11.5z
M976 135.5q17 16.5 42 16.5q13 0 23 -6v-33q-12 7 -22 7t-17.5 -7t-7.5 -18t7 -18.5t18 -7.5q15 0 25 10l-1 -35q-14 -7 -26 -7q-24 0 -41 16.5t-17 41.5q0 24 17 40.5zM999 306l-1 59l38 -59h40v121h-39v-64l-37 64h-40v-121h39zM1064.5 135.5q17.5 16.5 42.5 16.5
t42 -16.5t17 -40.5q0 -25 -17 -41.5t-42 -16.5q-26 0 -43 16.5t-17 41.5q0 24 17.5 40.5zM1089 76.5q7 -7.5 18 -7.5q10 0 17 7.5t7 18.5q0 10 -7 17.5t-17 7.5t-17.5 -7t-7.5 -18t7 -18.5zM1170 306v33h-43v88h-39v-121h82zM1192 354v-48h39v48l41 73h-45l-16 -36l-15 36
h-46zM1173 149h35l26 -50l26 50h35v-109h-34v43l-14 -27h-25l-14 27v-43h-35v109z" />
    <glyph glyph-name="four" unicode="4" horiz-adv-x="1326" 
d="M42 462h486q4 56 44.5 94t96.5 38t96.5 -38t44.5 -94h486v-193h-1254v193zM78 118h-36v31h93l-41 -78h38v-31h-95zM41 247h50v-11h-38v-26h33v-11h-33v-29h-12v77zM94 392v-86h39v86h28v35h-96v-35h29zM101 247h12v-47q0 -9 5.5 -14.5t13.5 -5.5t14 6t6 14v47h12v-47
q0 -14 -9 -22.5t-23 -8.5q-13 0 -22 9t-9 22v47zM142 149h79v-30h-44v-9h38v-30h-38v-10h45v-30h-80v109zM207 306v35h8l15 -35h41l-21 46q14 12 14 32q0 18 -13.5 30.5t-32.5 12.5h-50v-121h39zM179 247h12v-66h35v-11h-47v77zM207 394h10q3 0 5.5 -3t2.5 -7t-2.5 -7.5
t-5.5 -3.5h-10v21zM226 149h87v-31h-26v-78h-35v78h-26v31zM237 247h12v-66h36v-11h-48v77zM315 306v121h-38v-121h38zM338 149h40l37 -109h-38l-4 17h-31l-5 -17h-36zM331 247l22 -57l22 57h14l-32 -77h-8l-32 77h14zM363 306l5 19h34l5 -19h42l-41 121h-45l-41 -121h41z
M365 86l-7 26h-1l-7 -26h15zM384 386h1l8 -29h-17zM399 247h50v-11h-38v-22h33v-10h-33v-23h38v-11h-50v77zM421 149h79v-30h-44v-16h37v-29h-37v-34h-35v109zM538 306v33h-43v88h-39v-121h82zM462 247h29q11 0 18 -7t7 -18q0 -14 -12 -21l15 -31h-14l-13 28h-18v-28h-12v77
zM491 208q5 0 9 4t4 10t-4 10t-9 4h-17v-28h17zM521 135.5q17 16.5 42 16.5t42 -16.5t17 -40.5q0 -25 -17 -41.5t-42 -16.5t-42 16.5t-17 41.5q0 24 17 40.5zM525 189q13 -9 26 -9q14 0 14 12q0 7 -17 12q-12 5 -17 9.5t-5 13.5q0 10 7 16t19 6q10 0 20 -5v-13q-9 7 -20 7
q-6 0 -10 -3t-4 -8t3.5 -7.5t12.5 -5.5q23 -9 23 -22q0 -11 -7.5 -17t-18.5 -6q-14 0 -26 7v13zM546 76.5q7 -7.5 17 -7.5t17 7.5t7 18.5t-7 18t-17 7t-17 -7t-7 -18t7 -18.5zM574 367l167 166h-171q-29 -35 -29 -81q0 -49 33 -85zM669 325q48 0 85 32h-170q37 -32 85 -32z
M754 547q-38 33 -85 33q-49 0 -85 -33h170zM589 247h12v-77h-12v77zM767 371q29 35 29 81q0 48 -32 85l-166 -166h169zM625.5 237.5q11.5 11.5 28.5 11.5t28.5 -11.5t11.5 -28.5t-11.5 -28.5t-28.5 -11.5t-28.5 11.5t-11.5 28.5t11.5 28.5zM634 188q8 -8 20 -8q11 0 19 8
t8 21q0 12 -8 20t-19 8q-12 0 -20 -8t-8 -20q0 -13 8 -21zM630 149h36l33 -58v58h35v-109h-36l-34 53l1 -53h-35v109zM706 248h6l49 -55v54h12v-79h-6l-49 54v-52h-12v78zM740 149h86v-31h-25v-78h-35v78h-26v31zM807 213h458l-13 11l8 7l25 -24l-25 -24l-8 7l13 11h-458v12
zM839.5 321q18.5 -18 46.5 -18t47 18t19 46q0 27 -19 45t-47 18t-46.5 -18t-18.5 -45q0 -28 18.5 -46zM841 143q12 9 33 9q14 0 32 -8v-34q-6 5 -15.5 8t-16.5 3q-11 0 -11 -4q0 -3 2.5 -4.5t5.5 -2t6 -1.5q36 -8 36 -35q0 -17 -12.5 -27t-31.5 -10q-22 0 -38 10v37
q25 -16 38 -16q9 0 9 6q0 4 -7 6t-10 3q-17 6 -24.5 13.5t-7.5 21.5q0 16 12 25zM867 387q8 8 19 8q12 0 19.5 -8t7.5 -20q0 -13 -7.5 -21t-19.5 -8q-11 0 -19 8t-8 21q0 12 8 20zM923 65.5q5 4.5 13 4.5q7 0 12 -4.5t5 -11.5t-5 -12t-12 -5q-8 0 -13 5t-5 12t5 11.5z
M976 135.5q17 16.5 42 16.5q13 0 23 -6v-33q-12 7 -22 7t-17.5 -7t-7.5 -18t7 -18.5t18 -7.5q15 0 25 10l-1 -35q-14 -7 -26 -7q-24 0 -41 16.5t-17 41.5q0 24 17 40.5zM999 306l-1 59l38 -59h40v121h-39v-64l-37 64h-40v-121h39zM1064.5 135.5q17.5 16.5 42.5 16.5
t42 -16.5t17 -40.5q0 -25 -17 -41.5t-42 -16.5q-26 0 -43 16.5t-17 41.5q0 24 17.5 40.5zM1089 76.5q7 -7.5 18 -7.5q10 0 17 7.5t7 18.5q0 10 -7 17.5t-17 7.5t-17.5 -7t-7.5 -18t7 -18.5zM1170 306v33h-43v88h-39v-121h82zM1192 354v-48h39v48l41 73h-45l-16 -36l-15 36
h-46zM1173 149h35l26 -50l26 50h35v-109h-34v43l-14 -27h-25l-14 27v-43h-35v109z" />
    <glyph glyph-name="five" unicode="5" horiz-adv-x="1326" 
d="M42 462h486q4 56 44.5 94t96.5 38t96.5 -38t44.5 -94h486v-193h-1254v193zM78 118h-36v31h93l-41 -78h38v-31h-95zM41 247h50v-11h-38v-26h33v-11h-33v-29h-12v77zM94 392v-86h39v86h28v35h-96v-35h29zM101 247h12v-47q0 -9 5.5 -14.5t13.5 -5.5t14 6t6 14v47h12v-47
q0 -14 -9 -22.5t-23 -8.5q-13 0 -22 9t-9 22v47zM142 149h79v-30h-44v-9h38v-30h-38v-10h45v-30h-80v109zM207 306v35h8l15 -35h41l-21 46q14 12 14 32q0 18 -13.5 30.5t-32.5 12.5h-50v-121h39zM179 247h12v-66h35v-11h-47v77zM207 394h10q3 0 5.5 -3t2.5 -7t-2.5 -7.5
t-5.5 -3.5h-10v21zM226 149h87v-31h-26v-78h-35v78h-26v31zM237 247h12v-66h36v-11h-48v77zM315 306v121h-38v-121h38zM338 149h40l37 -109h-38l-4 17h-31l-5 -17h-36zM331 247l22 -57l22 57h14l-32 -77h-8l-32 77h14zM363 306l5 19h34l5 -19h42l-41 121h-45l-41 -121h41z
M365 86l-7 26h-1l-7 -26h15zM384 386h1l8 -29h-17zM399 247h50v-11h-38v-22h33v-10h-33v-23h38v-11h-50v77zM421 149h79v-30h-44v-16h37v-29h-37v-34h-35v109zM538 306v33h-43v88h-39v-121h82zM462 247h29q11 0 18 -7t7 -18q0 -14 -12 -21l15 -31h-14l-13 28h-18v-28h-12v77
zM491 208q5 0 9 4t4 10t-4 10t-9 4h-17v-28h17zM521 135.5q17 16.5 42 16.5t42 -16.5t17 -40.5q0 -25 -17 -41.5t-42 -16.5t-42 16.5t-17 41.5q0 24 17 40.5zM525 189q13 -9 26 -9q14 0 14 12q0 7 -17 12q-12 5 -17 9.5t-5 13.5q0 10 7 16t19 6q10 0 20 -5v-13q-9 7 -20 7
q-6 0 -10 -3t-4 -8t3.5 -7.5t12.5 -5.5q23 -9 23 -22q0 -11 -7.5 -17t-18.5 -6q-14 0 -26 7v13zM546 76.5q7 -7.5 17 -7.5t17 7.5t7 18.5t-7 18t-17 7t-17 -7t-7 -18t7 -18.5zM574 367l167 166h-171q-29 -35 -29 -81q0 -49 33 -85zM669 325q48 0 85 32h-170q37 -32 85 -32z
M754 547q-38 33 -85 33q-49 0 -85 -33h170zM589 247h12v-77h-12v77zM767 371q29 35 29 81q0 48 -32 85l-166 -166h169zM625.5 237.5q11.5 11.5 28.5 11.5t28.5 -11.5t11.5 -28.5t-11.5 -28.5t-28.5 -11.5t-28.5 11.5t-11.5 28.5t11.5 28.5zM634 188q8 -8 20 -8q11 0 19 8
t8 21q0 12 -8 20t-19 8q-12 0 -20 -8t-8 -20q0 -13 8 -21zM630 149h36l33 -58v58h35v-109h-36l-34 53l1 -53h-35v109zM706 248h6l49 -55v54h12v-79h-6l-49 54v-52h-12v78zM740 149h86v-31h-25v-78h-35v78h-26v31zM807 213h458l-13 11l8 7l25 -24l-25 -24l-8 7l13 11h-458v12
zM839.5 321q18.5 -18 46.5 -18t47 18t19 46q0 27 -19 45t-47 18t-46.5 -18t-18.5 -45q0 -28 18.5 -46zM841 143q12 9 33 9q14 0 32 -8v-34q-6 5 -15.5 8t-16.5 3q-11 0 -11 -4q0 -3 2.5 -4.5t5.5 -2t6 -1.5q36 -8 36 -35q0 -17 -12.5 -27t-31.5 -10q-22 0 -38 10v37
q25 -16 38 -16q9 0 9 6q0 4 -7 6t-10 3q-17 6 -24.5 13.5t-7.5 21.5q0 16 12 25zM867 387q8 8 19 8q12 0 19.5 -8t7.5 -20q0 -13 -7.5 -21t-19.5 -8q-11 0 -19 8t-8 21q0 12 8 20zM923 65.5q5 4.5 13 4.5q7 0 12 -4.5t5 -11.5t-5 -12t-12 -5q-8 0 -13 5t-5 12t5 11.5z
M976 135.5q17 16.5 42 16.5q13 0 23 -6v-33q-12 7 -22 7t-17.5 -7t-7.5 -18t7 -18.5t18 -7.5q15 0 25 10l-1 -35q-14 -7 -26 -7q-24 0 -41 16.5t-17 41.5q0 24 17 40.5zM999 306l-1 59l38 -59h40v121h-39v-64l-37 64h-40v-121h39zM1064.5 135.5q17.5 16.5 42.5 16.5
t42 -16.5t17 -40.5q0 -25 -17 -41.5t-42 -16.5q-26 0 -43 16.5t-17 41.5q0 24 17.5 40.5zM1089 76.5q7 -7.5 18 -7.5q10 0 17 7.5t7 18.5q0 10 -7 17.5t-17 7.5t-17.5 -7t-7.5 -18t7 -18.5zM1170 306v33h-43v88h-39v-121h82zM1192 354v-48h39v48l41 73h-45l-16 -36l-15 36
h-46zM1173 149h35l26 -50l26 50h35v-109h-34v43l-14 -27h-25l-14 27v-43h-35v109z" />
    <glyph glyph-name="six" unicode="6" horiz-adv-x="1326" 
d="M42 462h486q4 56 44.5 94t96.5 38t96.5 -38t44.5 -94h486v-193h-1254v193zM78 118h-36v31h93l-41 -78h38v-31h-95zM41 247h50v-11h-38v-26h33v-11h-33v-29h-12v77zM94 392v-86h39v86h28v35h-96v-35h29zM101 247h12v-47q0 -9 5.5 -14.5t13.5 -5.5t14 6t6 14v47h12v-47
q0 -14 -9 -22.5t-23 -8.5q-13 0 -22 9t-9 22v47zM142 149h79v-30h-44v-9h38v-30h-38v-10h45v-30h-80v109zM207 306v35h8l15 -35h41l-21 46q14 12 14 32q0 18 -13.5 30.5t-32.5 12.5h-50v-121h39zM179 247h12v-66h35v-11h-47v77zM207 394h10q3 0 5.5 -3t2.5 -7t-2.5 -7.5
t-5.5 -3.5h-10v21zM226 149h87v-31h-26v-78h-35v78h-26v31zM237 247h12v-66h36v-11h-48v77zM315 306v121h-38v-121h38zM338 149h40l37 -109h-38l-4 17h-31l-5 -17h-36zM331 247l22 -57l22 57h14l-32 -77h-8l-32 77h14zM363 306l5 19h34l5 -19h42l-41 121h-45l-41 -121h41z
M365 86l-7 26h-1l-7 -26h15zM384 386h1l8 -29h-17zM399 247h50v-11h-38v-22h33v-10h-33v-23h38v-11h-50v77zM421 149h79v-30h-44v-16h37v-29h-37v-34h-35v109zM538 306v33h-43v88h-39v-121h82zM462 247h29q11 0 18 -7t7 -18q0 -14 -12 -21l15 -31h-14l-13 28h-18v-28h-12v77
zM491 208q5 0 9 4t4 10t-4 10t-9 4h-17v-28h17zM521 135.5q17 16.5 42 16.5t42 -16.5t17 -40.5q0 -25 -17 -41.5t-42 -16.5t-42 16.5t-17 41.5q0 24 17 40.5zM525 189q13 -9 26 -9q14 0 14 12q0 7 -17 12q-12 5 -17 9.5t-5 13.5q0 10 7 16t19 6q10 0 20 -5v-13q-9 7 -20 7
q-6 0 -10 -3t-4 -8t3.5 -7.5t12.5 -5.5q23 -9 23 -22q0 -11 -7.5 -17t-18.5 -6q-14 0 -26 7v13zM546 76.5q7 -7.5 17 -7.5t17 7.5t7 18.5t-7 18t-17 7t-17 -7t-7 -18t7 -18.5zM574 367l167 166h-171q-29 -35 -29 -81q0 -49 33 -85zM669 325q48 0 85 32h-170q37 -32 85 -32z
M754 547q-38 33 -85 33q-49 0 -85 -33h170zM589 247h12v-77h-12v77zM767 371q29 35 29 81q0 48 -32 85l-166 -166h169zM625.5 237.5q11.5 11.5 28.5 11.5t28.5 -11.5t11.5 -28.5t-11.5 -28.5t-28.5 -11.5t-28.5 11.5t-11.5 28.5t11.5 28.5zM634 188q8 -8 20 -8q11 0 19 8
t8 21q0 12 -8 20t-19 8q-12 0 -20 -8t-8 -20q0 -13 8 -21zM630 149h36l33 -58v58h35v-109h-36l-34 53l1 -53h-35v109zM706 248h6l49 -55v54h12v-79h-6l-49 54v-52h-12v78zM740 149h86v-31h-25v-78h-35v78h-26v31zM807 213h458l-13 11l8 7l25 -24l-25 -24l-8 7l13 11h-458v12
zM839.5 321q18.5 -18 46.5 -18t47 18t19 46q0 27 -19 45t-47 18t-46.5 -18t-18.5 -45q0 -28 18.5 -46zM841 143q12 9 33 9q14 0 32 -8v-34q-6 5 -15.5 8t-16.5 3q-11 0 -11 -4q0 -3 2.5 -4.5t5.5 -2t6 -1.5q36 -8 36 -35q0 -17 -12.5 -27t-31.5 -10q-22 0 -38 10v37
q25 -16 38 -16q9 0 9 6q0 4 -7 6t-10 3q-17 6 -24.5 13.5t-7.5 21.5q0 16 12 25zM867 387q8 8 19 8q12 0 19.5 -8t7.5 -20q0 -13 -7.5 -21t-19.5 -8q-11 0 -19 8t-8 21q0 12 8 20zM923 65.5q5 4.5 13 4.5q7 0 12 -4.5t5 -11.5t-5 -12t-12 -5q-8 0 -13 5t-5 12t5 11.5z
M976 135.5q17 16.5 42 16.5q13 0 23 -6v-33q-12 7 -22 7t-17.5 -7t-7.5 -18t7 -18.5t18 -7.5q15 0 25 10l-1 -35q-14 -7 -26 -7q-24 0 -41 16.5t-17 41.5q0 24 17 40.5zM999 306l-1 59l38 -59h40v121h-39v-64l-37 64h-40v-121h39zM1064.5 135.5q17.5 16.5 42.5 16.5
t42 -16.5t17 -40.5q0 -25 -17 -41.5t-42 -16.5q-26 0 -43 16.5t-17 41.5q0 24 17.5 40.5zM1089 76.5q7 -7.5 18 -7.5q10 0 17 7.5t7 18.5q0 10 -7 17.5t-17 7.5t-17.5 -7t-7.5 -18t7 -18.5zM1170 306v33h-43v88h-39v-121h82zM1192 354v-48h39v48l41 73h-45l-16 -36l-15 36
h-46zM1173 149h35l26 -50l26 50h35v-109h-34v43l-14 -27h-25l-14 27v-43h-35v109z" />
    <glyph glyph-name="seven" unicode="7" horiz-adv-x="1326" 
d="M42 462h486q4 56 44.5 94t96.5 38t96.5 -38t44.5 -94h486v-193h-1254v193zM78 118h-36v31h93l-41 -78h38v-31h-95zM41 247h50v-11h-38v-26h33v-11h-33v-29h-12v77zM94 392v-86h39v86h28v35h-96v-35h29zM101 247h12v-47q0 -9 5.5 -14.5t13.5 -5.5t14 6t6 14v47h12v-47
q0 -14 -9 -22.5t-23 -8.5q-13 0 -22 9t-9 22v47zM142 149h79v-30h-44v-9h38v-30h-38v-10h45v-30h-80v109zM207 306v35h8l15 -35h41l-21 46q14 12 14 32q0 18 -13.5 30.5t-32.5 12.5h-50v-121h39zM179 247h12v-66h35v-11h-47v77zM207 394h10q3 0 5.5 -3t2.5 -7t-2.5 -7.5
t-5.5 -3.5h-10v21zM226 149h87v-31h-26v-78h-35v78h-26v31zM237 247h12v-66h36v-11h-48v77zM315 306v121h-38v-121h38zM338 149h40l37 -109h-38l-4 17h-31l-5 -17h-36zM331 247l22 -57l22 57h14l-32 -77h-8l-32 77h14zM363 306l5 19h34l5 -19h42l-41 121h-45l-41 -121h41z
M365 86l-7 26h-1l-7 -26h15zM384 386h1l8 -29h-17zM399 247h50v-11h-38v-22h33v-10h-33v-23h38v-11h-50v77zM421 149h79v-30h-44v-16h37v-29h-37v-34h-35v109zM538 306v33h-43v88h-39v-121h82zM462 247h29q11 0 18 -7t7 -18q0 -14 -12 -21l15 -31h-14l-13 28h-18v-28h-12v77
zM491 208q5 0 9 4t4 10t-4 10t-9 4h-17v-28h17zM521 135.5q17 16.5 42 16.5t42 -16.5t17 -40.5q0 -25 -17 -41.5t-42 -16.5t-42 16.5t-17 41.5q0 24 17 40.5zM525 189q13 -9 26 -9q14 0 14 12q0 7 -17 12q-12 5 -17 9.5t-5 13.5q0 10 7 16t19 6q10 0 20 -5v-13q-9 7 -20 7
q-6 0 -10 -3t-4 -8t3.5 -7.5t12.5 -5.5q23 -9 23 -22q0 -11 -7.5 -17t-18.5 -6q-14 0 -26 7v13zM546 76.5q7 -7.5 17 -7.5t17 7.5t7 18.5t-7 18t-17 7t-17 -7t-7 -18t7 -18.5zM574 367l167 166h-171q-29 -35 -29 -81q0 -49 33 -85zM669 325q48 0 85 32h-170q37 -32 85 -32z
M754 547q-38 33 -85 33q-49 0 -85 -33h170zM589 247h12v-77h-12v77zM767 371q29 35 29 81q0 48 -32 85l-166 -166h169zM625.5 237.5q11.5 11.5 28.5 11.5t28.5 -11.5t11.5 -28.5t-11.5 -28.5t-28.5 -11.5t-28.5 11.5t-11.5 28.5t11.5 28.5zM634 188q8 -8 20 -8q11 0 19 8
t8 21q0 12 -8 20t-19 8q-12 0 -20 -8t-8 -20q0 -13 8 -21zM630 149h36l33 -58v58h35v-109h-36l-34 53l1 -53h-35v109zM706 248h6l49 -55v54h12v-79h-6l-49 54v-52h-12v78zM740 149h86v-31h-25v-78h-35v78h-26v31zM807 213h458l-13 11l8 7l25 -24l-25 -24l-8 7l13 11h-458v12
zM839.5 321q18.5 -18 46.5 -18t47 18t19 46q0 27 -19 45t-47 18t-46.5 -18t-18.5 -45q0 -28 18.5 -46zM841 143q12 9 33 9q14 0 32 -8v-34q-6 5 -15.5 8t-16.5 3q-11 0 -11 -4q0 -3 2.5 -4.5t5.5 -2t6 -1.5q36 -8 36 -35q0 -17 -12.5 -27t-31.5 -10q-22 0 -38 10v37
q25 -16 38 -16q9 0 9 6q0 4 -7 6t-10 3q-17 6 -24.5 13.5t-7.5 21.5q0 16 12 25zM867 387q8 8 19 8q12 0 19.5 -8t7.5 -20q0 -13 -7.5 -21t-19.5 -8q-11 0 -19 8t-8 21q0 12 8 20zM923 65.5q5 4.5 13 4.5q7 0 12 -4.5t5 -11.5t-5 -12t-12 -5q-8 0 -13 5t-5 12t5 11.5z
M976 135.5q17 16.5 42 16.5q13 0 23 -6v-33q-12 7 -22 7t-17.5 -7t-7.5 -18t7 -18.5t18 -7.5q15 0 25 10l-1 -35q-14 -7 -26 -7q-24 0 -41 16.5t-17 41.5q0 24 17 40.5zM999 306l-1 59l38 -59h40v121h-39v-64l-37 64h-40v-121h39zM1064.5 135.5q17.5 16.5 42.5 16.5
t42 -16.5t17 -40.5q0 -25 -17 -41.5t-42 -16.5q-26 0 -43 16.5t-17 41.5q0 24 17.5 40.5zM1089 76.5q7 -7.5 18 -7.5q10 0 17 7.5t7 18.5q0 10 -7 17.5t-17 7.5t-17.5 -7t-7.5 -18t7 -18.5zM1170 306v33h-43v88h-39v-121h82zM1192 354v-48h39v48l41 73h-45l-16 -36l-15 36
h-46zM1173 149h35l26 -50l26 50h35v-109h-34v43l-14 -27h-25l-14 27v-43h-35v109z" />
    <glyph glyph-name="eight" unicode="8" horiz-adv-x="1326" 
d="M42 462h486q4 56 44.5 94t96.5 38t96.5 -38t44.5 -94h486v-193h-1254v193zM78 118h-36v31h93l-41 -78h38v-31h-95zM41 247h50v-11h-38v-26h33v-11h-33v-29h-12v77zM94 392v-86h39v86h28v35h-96v-35h29zM101 247h12v-47q0 -9 5.5 -14.5t13.5 -5.5t14 6t6 14v47h12v-47
q0 -14 -9 -22.5t-23 -8.5q-13 0 -22 9t-9 22v47zM142 149h79v-30h-44v-9h38v-30h-38v-10h45v-30h-80v109zM207 306v35h8l15 -35h41l-21 46q14 12 14 32q0 18 -13.5 30.5t-32.5 12.5h-50v-121h39zM179 247h12v-66h35v-11h-47v77zM207 394h10q3 0 5.5 -3t2.5 -7t-2.5 -7.5
t-5.5 -3.5h-10v21zM226 149h87v-31h-26v-78h-35v78h-26v31zM237 247h12v-66h36v-11h-48v77zM315 306v121h-38v-121h38zM338 149h40l37 -109h-38l-4 17h-31l-5 -17h-36zM331 247l22 -57l22 57h14l-32 -77h-8l-32 77h14zM363 306l5 19h34l5 -19h42l-41 121h-45l-41 -121h41z
M365 86l-7 26h-1l-7 -26h15zM384 386h1l8 -29h-17zM399 247h50v-11h-38v-22h33v-10h-33v-23h38v-11h-50v77zM421 149h79v-30h-44v-16h37v-29h-37v-34h-35v109zM538 306v33h-43v88h-39v-121h82zM462 247h29q11 0 18 -7t7 -18q0 -14 -12 -21l15 -31h-14l-13 28h-18v-28h-12v77
zM491 208q5 0 9 4t4 10t-4 10t-9 4h-17v-28h17zM521 135.5q17 16.5 42 16.5t42 -16.5t17 -40.5q0 -25 -17 -41.5t-42 -16.5t-42 16.5t-17 41.5q0 24 17 40.5zM525 189q13 -9 26 -9q14 0 14 12q0 7 -17 12q-12 5 -17 9.5t-5 13.5q0 10 7 16t19 6q10 0 20 -5v-13q-9 7 -20 7
q-6 0 -10 -3t-4 -8t3.5 -7.5t12.5 -5.5q23 -9 23 -22q0 -11 -7.5 -17t-18.5 -6q-14 0 -26 7v13zM546 76.5q7 -7.5 17 -7.5t17 7.5t7 18.5t-7 18t-17 7t-17 -7t-7 -18t7 -18.5zM574 367l167 166h-171q-29 -35 -29 -81q0 -49 33 -85zM669 325q48 0 85 32h-170q37 -32 85 -32z
M754 547q-38 33 -85 33q-49 0 -85 -33h170zM589 247h12v-77h-12v77zM767 371q29 35 29 81q0 48 -32 85l-166 -166h169zM625.5 237.5q11.5 11.5 28.5 11.5t28.5 -11.5t11.5 -28.5t-11.5 -28.5t-28.5 -11.5t-28.5 11.5t-11.5 28.5t11.5 28.5zM634 188q8 -8 20 -8q11 0 19 8
t8 21q0 12 -8 20t-19 8q-12 0 -20 -8t-8 -20q0 -13 8 -21zM630 149h36l33 -58v58h35v-109h-36l-34 53l1 -53h-35v109zM706 248h6l49 -55v54h12v-79h-6l-49 54v-52h-12v78zM740 149h86v-31h-25v-78h-35v78h-26v31zM807 213h458l-13 11l8 7l25 -24l-25 -24l-8 7l13 11h-458v12
zM839.5 321q18.5 -18 46.5 -18t47 18t19 46q0 27 -19 45t-47 18t-46.5 -18t-18.5 -45q0 -28 18.5 -46zM841 143q12 9 33 9q14 0 32 -8v-34q-6 5 -15.5 8t-16.5 3q-11 0 -11 -4q0 -3 2.5 -4.5t5.5 -2t6 -1.5q36 -8 36 -35q0 -17 -12.5 -27t-31.5 -10q-22 0 -38 10v37
q25 -16 38 -16q9 0 9 6q0 4 -7 6t-10 3q-17 6 -24.5 13.5t-7.5 21.5q0 16 12 25zM867 387q8 8 19 8q12 0 19.5 -8t7.5 -20q0 -13 -7.5 -21t-19.5 -8q-11 0 -19 8t-8 21q0 12 8 20zM923 65.5q5 4.5 13 4.5q7 0 12 -4.5t5 -11.5t-5 -12t-12 -5q-8 0 -13 5t-5 12t5 11.5z
M976 135.5q17 16.5 42 16.5q13 0 23 -6v-33q-12 7 -22 7t-17.5 -7t-7.5 -18t7 -18.5t18 -7.5q15 0 25 10l-1 -35q-14 -7 -26 -7q-24 0 -41 16.5t-17 41.5q0 24 17 40.5zM999 306l-1 59l38 -59h40v121h-39v-64l-37 64h-40v-121h39zM1064.5 135.5q17.5 16.5 42.5 16.5
t42 -16.5t17 -40.5q0 -25 -17 -41.5t-42 -16.5q-26 0 -43 16.5t-17 41.5q0 24 17.5 40.5zM1089 76.5q7 -7.5 18 -7.5q10 0 17 7.5t7 18.5q0 10 -7 17.5t-17 7.5t-17.5 -7t-7.5 -18t7 -18.5zM1170 306v33h-43v88h-39v-121h82zM1192 354v-48h39v48l41 73h-45l-16 -36l-15 36
h-46zM1173 149h35l26 -50l26 50h35v-109h-34v43l-14 -27h-25l-14 27v-43h-35v109z" />
    <glyph glyph-name="nine" unicode="9" horiz-adv-x="1326" 
d="M42 462h486q4 56 44.5 94t96.5 38t96.5 -38t44.5 -94h486v-193h-1254v193zM78 118h-36v31h93l-41 -78h38v-31h-95zM41 247h50v-11h-38v-26h33v-11h-33v-29h-12v77zM94 392v-86h39v86h28v35h-96v-35h29zM101 247h12v-47q0 -9 5.5 -14.5t13.5 -5.5t14 6t6 14v47h12v-47
q0 -14 -9 -22.5t-23 -8.5q-13 0 -22 9t-9 22v47zM142 149h79v-30h-44v-9h38v-30h-38v-10h45v-30h-80v109zM207 306v35h8l15 -35h41l-21 46q14 12 14 32q0 18 -13.5 30.5t-32.5 12.5h-50v-121h39zM179 247h12v-66h35v-11h-47v77zM207 394h10q3 0 5.5 -3t2.5 -7t-2.5 -7.5
t-5.5 -3.5h-10v21zM226 149h87v-31h-26v-78h-35v78h-26v31zM237 247h12v-66h36v-11h-48v77zM315 306v121h-38v-121h38zM338 149h40l37 -109h-38l-4 17h-31l-5 -17h-36zM331 247l22 -57l22 57h14l-32 -77h-8l-32 77h14zM363 306l5 19h34l5 -19h42l-41 121h-45l-41 -121h41z
M365 86l-7 26h-1l-7 -26h15zM384 386h1l8 -29h-17zM399 247h50v-11h-38v-22h33v-10h-33v-23h38v-11h-50v77zM421 149h79v-30h-44v-16h37v-29h-37v-34h-35v109zM538 306v33h-43v88h-39v-121h82zM462 247h29q11 0 18 -7t7 -18q0 -14 -12 -21l15 -31h-14l-13 28h-18v-28h-12v77
zM491 208q5 0 9 4t4 10t-4 10t-9 4h-17v-28h17zM521 135.5q17 16.5 42 16.5t42 -16.5t17 -40.5q0 -25 -17 -41.5t-42 -16.5t-42 16.5t-17 41.5q0 24 17 40.5zM525 189q13 -9 26 -9q14 0 14 12q0 7 -17 12q-12 5 -17 9.5t-5 13.5q0 10 7 16t19 6q10 0 20 -5v-13q-9 7 -20 7
q-6 0 -10 -3t-4 -8t3.5 -7.5t12.5 -5.5q23 -9 23 -22q0 -11 -7.5 -17t-18.5 -6q-14 0 -26 7v13zM546 76.5q7 -7.5 17 -7.5t17 7.5t7 18.5t-7 18t-17 7t-17 -7t-7 -18t7 -18.5zM574 367l167 166h-171q-29 -35 -29 -81q0 -49 33 -85zM669 325q48 0 85 32h-170q37 -32 85 -32z
M754 547q-38 33 -85 33q-49 0 -85 -33h170zM589 247h12v-77h-12v77zM767 371q29 35 29 81q0 48 -32 85l-166 -166h169zM625.5 237.5q11.5 11.5 28.5 11.5t28.5 -11.5t11.5 -28.5t-11.5 -28.5t-28.5 -11.5t-28.5 11.5t-11.5 28.5t11.5 28.5zM634 188q8 -8 20 -8q11 0 19 8
t8 21q0 12 -8 20t-19 8q-12 0 -20 -8t-8 -20q0 -13 8 -21zM630 149h36l33 -58v58h35v-109h-36l-34 53l1 -53h-35v109zM706 248h6l49 -55v54h12v-79h-6l-49 54v-52h-12v78zM740 149h86v-31h-25v-78h-35v78h-26v31zM807 213h458l-13 11l8 7l25 -24l-25 -24l-8 7l13 11h-458v12
zM839.5 321q18.5 -18 46.5 -18t47 18t19 46q0 27 -19 45t-47 18t-46.5 -18t-18.5 -45q0 -28 18.5 -46zM841 143q12 9 33 9q14 0 32 -8v-34q-6 5 -15.5 8t-16.5 3q-11 0 -11 -4q0 -3 2.5 -4.5t5.5 -2t6 -1.5q36 -8 36 -35q0 -17 -12.5 -27t-31.5 -10q-22 0 -38 10v37
q25 -16 38 -16q9 0 9 6q0 4 -7 6t-10 3q-17 6 -24.5 13.5t-7.5 21.5q0 16 12 25zM867 387q8 8 19 8q12 0 19.5 -8t7.5 -20q0 -13 -7.5 -21t-19.5 -8q-11 0 -19 8t-8 21q0 12 8 20zM923 65.5q5 4.5 13 4.5q7 0 12 -4.5t5 -11.5t-5 -12t-12 -5q-8 0 -13 5t-5 12t5 11.5z
M976 135.5q17 16.5 42 16.5q13 0 23 -6v-33q-12 7 -22 7t-17.5 -7t-7.5 -18t7 -18.5t18 -7.5q15 0 25 10l-1 -35q-14 -7 -26 -7q-24 0 -41 16.5t-17 41.5q0 24 17 40.5zM999 306l-1 59l38 -59h40v121h-39v-64l-37 64h-40v-121h39zM1064.5 135.5q17.5 16.5 42.5 16.5
t42 -16.5t17 -40.5q0 -25 -17 -41.5t-42 -16.5q-26 0 -43 16.5t-17 41.5q0 24 17.5 40.5zM1089 76.5q7 -7.5 18 -7.5q10 0 17 7.5t7 18.5q0 10 -7 17.5t-17 7.5t-17.5 -7t-7.5 -18t7 -18.5zM1170 306v33h-43v88h-39v-121h82zM1192 354v-48h39v48l41 73h-45l-16 -36l-15 36
h-46zM1173 149h35l26 -50l26 50h35v-109h-34v43l-14 -27h-25l-14 27v-43h-35v109z" />
    <glyph glyph-name="colon" unicode=":" horiz-adv-x="198" 
d="M22.5 -6q-10.5 9 -10.5 27q0 24 14.5 38.5t38.5 14.5q19 0 29 -9.5t10 -26.5q0 -19 -13 -36t-39 -17q-19 0 -29.5 9zM105.5 459q-10.5 9 -10.5 27q0 24 14.5 38.5t38.5 14.5q19 0 29 -9.5t10 -26.5q0 -19 -13 -36t-39 -17q-19 0 -29.5 9z" />
    <glyph glyph-name="semicolon" unicode=";" horiz-adv-x="178" 
d="M23.5 -52q19.5 19 19.5 41q-34 5 -34 36q0 23 14 37t36 14q17 0 28.5 -10.5t11.5 -29.5q0 -25 -11 -55.5t-39.5 -56.5t-77.5 -31l-3 27q36 9 55.5 28zM97.5 458q-10.5 9 -10.5 27q0 24 14.5 38.5t38.5 14.5q19 0 29 -9.5t10 -26.5q0 -19 -13 -36t-39 -17q-19 0 -29.5 9z
" />
    <glyph glyph-name="less" unicode="&#x3c;" horiz-adv-x="544" 
d="M531 476l-431 -180v-4l366 -181l-10 -55l-419 215l8 54l498 216z" />
    <glyph glyph-name="equal" unicode="=" horiz-adv-x="433" 
d="M79 422l166 -1l167 1l-9 -48l-166 1l-167 -1zM51 267l167 -1l166 1l-8 -48l-166 1l-167 -1z" />
    <glyph glyph-name="greater" unicode="&#x3e;" horiz-adv-x="544" 
d="M26 122l430 180v4l-366 181l10 55l420 -215l-9 -54l-497 -216z" />
    <glyph glyph-name="question" unicode="?" horiz-adv-x="490" 
d="M381.5 433q55.5 54 55.5 120q0 49 -29.5 77t-87.5 28q-69 0 -114.5 -39t-69.5 -109l-53 15q27 81 87.5 132t157.5 51q49 0 87.5 -20t60 -56t21.5 -81q0 -44 -25 -90t-81 -85t-143 -60l-26 -124h-45l23 157q126 30 181.5 84zM141 62q14 14 38 14q19 0 30.5 -10t11.5 -29
q0 -23 -14.5 -37.5t-38.5 -14.5q-19 0 -30 10t-11 29q0 24 14 38z" />
    <glyph glyph-name="at" unicode="@" horiz-adv-x="802" 
d="M183.5 -71q-72.5 38 -112.5 107.5t-40 160.5q0 96 43.5 196.5t140 170t247.5 69.5q89 0 161 -35.5t113 -101t41 -151.5q0 -56 -20 -120.5t-66.5 -111.5t-120.5 -47q-34 0 -55.5 15t-30 38t-5.5 45h-1q-21 -34 -58.5 -57t-77.5 -23q-49 0 -82.5 34t-33.5 92
q0 54 25.5 108.5t70.5 90.5t101 36q43 0 70 -20.5t32 -51.5h1l17 63h56l-59 -196q-14 -46 -14 -71q0 -50 51 -50q50 0 81.5 38t46 89t14.5 92q0 113 -70.5 178.5t-193.5 65.5t-205.5 -60t-121.5 -146.5t-39 -166.5t32 -140.5t93 -93.5t145 -33q32 0 71.5 6.5t70.5 17.5
l-3 -48q-32 -13 -72.5 -20t-74.5 -7q-95 0 -167.5 38zM302.5 152.5q19.5 -20.5 51.5 -20.5q45 0 78.5 31.5t51.5 75.5t18 78q0 38 -19 59t-56 21q-42 0 -74.5 -30t-51 -73t-18.5 -78q0 -43 19.5 -63.5z" />
    <glyph glyph-name="A" unicode="A" horiz-adv-x="636" 
d="M168 347l195 346h60l74 -346l81 -347h-64l-40 202l-167 2l-160 -2l-111 -202h-70zM315 252l148 2l-18 92l-63 274h-2l-153 -273l-51 -94z" />
    <glyph glyph-name="B" unicode="B" horiz-adv-x="616" 
d="M93 347l59 346h251q99 0 153 -35.5t54 -109.5q0 -65 -38.5 -120t-129.5 -69v-3q60 -6 96.5 -42.5t36.5 -97.5q0 -94 -68.5 -155t-215.5 -61h-261zM294 53q113 0 167 44t54 116q0 60 -40 88.5t-129 28.5h-198l-47 -277h193zM341 383q103 0 155.5 41t52.5 111q0 57 -37 81
t-117 24h-190l-48 -257h184z" />
    <glyph glyph-name="C" unicode="C" horiz-adv-x="652" 
d="M178.5 22.5q-63.5 37.5 -96.5 105.5t-33 158q0 123 44 219t124 149.5t183 53.5q118 0 183.5 -64.5t76.5 -173.5l-57 -14q-20 198 -204 198q-85 0 -151 -47t-102 -130.5t-36 -190.5q0 -114 59 -180.5t161 -66.5q85 0 149 54t88 145l54 -15q-20 -72 -63.5 -125.5t-102 -83
t-125.5 -29.5q-88 0 -151.5 37.5z" />
    <glyph glyph-name="D" unicode="D" horiz-adv-x="661" 
d="M93 347l59 346h184q310 0 310 -269q0 -99 -38.5 -195t-132 -162.5t-249.5 -66.5h-196zM227 54q127 0 206.5 53.5t114.5 136t35 172.5q0 114 -59.5 168.5t-186.5 54.5h-132l-55 -292l-48 -293h125z" />
    <glyph glyph-name="E" unicode="E" horiz-adv-x="575" 
d="M93 347l59 346h459l-9 -54h-399l-47 -259h378l-9 -54h-378l-47 -272h408l-9 -54h-469z" />
    <glyph glyph-name="F" unicode="F" horiz-adv-x="541" 
d="M93 347l59 346h439l-9 -54h-379l-48 -265h358l-9 -53h-358l-54 -321h-62z" />
    <glyph glyph-name="G" unicode="G" horiz-adv-x="671" 
d="M177 22.5q-62 37.5 -95 106t-33 158.5q0 122 44 218t124 149.5t183 53.5q117 0 183 -64t76 -169l-57 -15q-9 90 -57.5 142t-145.5 52q-85 0 -151 -47t-102 -130.5t-36 -190.5q0 -114 59 -180.5t161 -66.5q97 0 160.5 62.5t86.5 194.5l-252 -2l9 54h307l-32 -171l-23 -178
h-47l12 106q-34 -57 -95.5 -88.5t-131.5 -31.5q-85 0 -147 37.5z" />
    <glyph glyph-name="H" unicode="H" horiz-adv-x="691" 
d="M566 325h-419l-55 -325h-62l63 347l59 346h62l-57 -314h419l53 314h62l-64 -346l-58 -347h-62z" />
    <glyph glyph-name="I" unicode="I" horiz-adv-x="214" 
d="M93 347l59 346h62l-63 -346l-59 -347h-62z" />
    <glyph glyph-name="J" unicode="J" horiz-adv-x="392" 
d="M2 -7l16 55q43 -9 79 -9q71 0 109 41t55 135l47 254l37 224h62l-41 -224l-43 -255q-21 -120 -78.5 -174.5t-154.5 -54.5q-51 0 -88 8z" />
    <glyph glyph-name="K" unicode="K" horiz-adv-x="616" 
d="M93 347l59 346h62l-63 -346l-5 -27l421 373h85l-308 -273l213 -420h-67l-191 380l-168 -148l-39 -232h-62z" />
    <glyph glyph-name="L" unicode="L" horiz-adv-x="519" 
d="M93 347l59 346h62l-64 -346l-49 -293h360l-10 -54h-421z" />
    <glyph glyph-name="M" unicode="M" horiz-adv-x="803" 
d="M93 345l59 348h77l77 -359l60 -264h2l152 264l203 359h80l-64 -347l-58 -346h-60l62 335l44 249h-3l-159 -273l-178 -311h-62l-69 311l-63 273h-3l-44 -249l-56 -335h-60z" />
    <glyph glyph-name="N" unicode="N" horiz-adv-x="674" 
d="M93 346l59 347h69l158 -341l127 -259h3l47 265l56 335h62l-63 -346l-59 -347h-69l-148 318l-137 282h-3l-46 -264l-57 -336h-62z" />
    <glyph glyph-name="O" unicode="O" horiz-adv-x="710" 
d="M124.5 68q-74.5 83 -74.5 226q0 119 45 213t126 147.5t184 53.5q136 0 211 -83t75 -226q0 -118 -45.5 -212.5t-126.5 -148t-184 -53.5q-136 0 -210.5 83zM170.5 106.5q59.5 -67.5 165.5 -67.5q85 0 151.5 46.5t104 129t37.5 185.5q0 120 -59 187t-165 67
q-85 0 -152 -46.5t-104.5 -128.5t-37.5 -185q0 -120 59.5 -187.5z" />
    <glyph glyph-name="P" unicode="P" horiz-adv-x="600" 
d="M93 347l59 346h241q102 0 161 -44.5t59 -129.5q0 -60 -29.5 -113t-94 -86.5t-163.5 -33.5h-186l-47 -286h-63zM336 339q75 0 123.5 26t70 66t21.5 84q0 62 -41 93.5t-116 31.5h-190l-54 -301h186z" />
    <glyph glyph-name="Q" unicode="Q" horiz-adv-x="710" 
d="M124.5 68q-74.5 83 -74.5 226q0 119 45 213t126 147.5t184 53.5q136 0 211 -83t75 -226q0 -126 -50.5 -223.5t-139.5 -147.5l131 -101l-63 -35l-140 106q-43 -13 -94 -13q-136 0 -210.5 83zM170.5 106.5q59.5 -67.5 165.5 -67.5q85 0 151.5 46.5t104 129t37.5 185.5
q0 120 -59 187t-165 67q-85 0 -152 -46.5t-104.5 -128.5t-37.5 -185q0 -120 59.5 -187.5z" />
    <glyph glyph-name="R" unicode="R" horiz-adv-x="615" 
d="M93 347l59 346h246q104 0 160 -43t56 -122q0 -64 -37.5 -118t-122.5 -77q39 -15 57 -46.5t18 -84.5q0 -20 -2 -47.5t-3 -38.5q-5 -45 -5 -76q0 -25 4 -40h-62q-3 11 -3 30q0 25 6 87q1 15 3 39.5t2 37.5q0 45 -16 68t-46.5 31t-82.5 8h-181l-50 -301h-63zM338 354
q75 0 123.5 24.5t69.5 62.5t21 78q0 121 -158 121h-190l-52 -286h186z" />
    <glyph glyph-name="S" unicode="S" horiz-adv-x="585" 
d="M86 42q-62 57 -63 153l56 13q6 -84 49 -126.5t143 -42.5q68 0 112.5 21t65 53.5t20.5 69.5q0 55 -38 86.5t-130 61.5q-106 34 -153 79t-47 115q0 46 22 87.5t74.5 68.5t139.5 27q113 0 172 -52.5t63 -139.5l-58 -13q-2 69 -48 110t-134 41q-83 0 -126 -37.5t-43 -91.5
q0 -36 17 -59.5t52 -41t99 -39.5q104 -34 151.5 -80t47.5 -116q0 -54 -26.5 -100t-85 -75t-149.5 -29q-121 0 -183 57z" />
    <glyph glyph-name="T" unicode="T" horiz-adv-x="534" 
d="M253 347l50 292h-224l10 54h509l-10 -54h-223l-54 -292l-59 -347h-62z" />
    <glyph glyph-name="U" unicode="U" horiz-adv-x="649" 
d="M115.5 39q-57.5 54 -57.5 161q0 42 9 93l38 208l33 192h62l-37 -192l-36 -213q-7 -41 -7 -80q0 -83 40 -126t125 -43q104 0 164 63.5t82 185.5l39 213l32 192h62l-36 -192l-35 -208q-26 -155 -102 -231.5t-207 -76.5q-111 0 -168.5 54z" />
    <glyph glyph-name="V" unicode="V" horiz-adv-x="616" 
d="M164 347l-75 346h64l65 -346l58 -274h2l149 274l184 346h69l-196 -346l-191 -347h-60z" />
    <glyph glyph-name="W" unicode="W" horiz-adv-x="931" 
d="M139 347l-45 346h63l35 -346l31 -271h2l128 271l159 346h55l39 -346l32 -271h1l126 271l157 346h67l-167 -346l-163 -347h-63l-41 347l-30 245h-2l-116 -245l-163 -347h-63z" />
    <glyph glyph-name="X" unicode="X" horiz-adv-x="609" 
d="M284 363l-173 330h67l148 -286h2l250 286h73l-291 -330l190 -363h-66l-167 315h-2l-276 -315h-73z" />
    <glyph glyph-name="Y" unicode="Y" horiz-adv-x="570" 
d="M255 256l-171 437h65l142 -370h3l272 370h73l-326 -437l-43 -256h-62z" />
    <glyph glyph-name="Z" unicode="Z" horiz-adv-x="575" 
d="M-10 50l293 315l245 274h-424l9 54h504l-9 -50l-290 -311l-248 -278h441l-10 -54h-520z" />
    <glyph glyph-name="bracketleft" unicode="[" horiz-adv-x="320" 
d="M159 729h211l-9 -48h-153l-135 -770h153l-9 -48h-211z" />
    <glyph glyph-name="backslash" unicode="\" horiz-adv-x="405" 
d="M403 -145l-472 870h62l471 -870h-61z" />
    <glyph glyph-name="bracketright" unicode="]" horiz-adv-x="320" 
d="M173 -136h-211l9 48h153l135 770h-153l9 48h211z" />
    <glyph glyph-name="asciicircum" unicode="^" horiz-adv-x="393" 
d="M245 693h55l83 -202h-44l-74 157l-130 -157h-44z" />
    <glyph glyph-name="underscore" unicode="_" horiz-adv-x="501" 
d="M-55 -53h501l-9 -53h-501z" />
    <glyph glyph-name="grave" unicode="`" horiz-adv-x="171" 
d="M109 767h68l36 -132h-39z" />
    <glyph glyph-name="a" unicode="a" horiz-adv-x="572" 
d="M77.5 42q-48.5 57 -48.5 156q0 80 29 158t89.5 129.5t149.5 51.5q48 0 85.5 -18.5t59.5 -45.5t29 -53h2l17 103h58l-47 -261l-45 -262h-58l19 103h-2q-26 -49 -77 -83.5t-118 -34.5q-94 0 -142.5 57zM124.5 79q36.5 -44 108.5 -44q73 0 122.5 49.5t72.5 117.5t23 123
q0 82 -43.5 122.5t-107.5 40.5q-73 0 -121 -46.5t-69.5 -112t-21.5 -123.5q0 -83 36.5 -127z" />
    <glyph glyph-name="b" unicode="b" horiz-adv-x="573" 
d="M189.5 3.5q-37.5 18.5 -59.5 46t-28 53.5h-2l-17 -103h-59l51 282l71 412h59l-50 -274h2q27 49 78 83t118 34q93 0 141.5 -57t48.5 -156q0 -80 -29 -158t-89.5 -129.5t-148.5 -51.5q-49 0 -86.5 18.5zM165.5 75.5q44.5 -40.5 107.5 -40.5q73 0 120.5 46.5t69.5 112.5
t22 123q0 83 -36.5 127t-109.5 44q-75 0 -124 -48t-71.5 -114.5t-22.5 -121.5q0 -88 44.5 -128.5z" />
    <glyph glyph-name="c" unicode="c" horiz-adv-x="493" 
d="M133.5 13q-47.5 28 -74.5 81.5t-27 125.5t27.5 145t88 122.5t151.5 49.5q88 0 139.5 -48.5t59.5 -130.5l-53 -14q-17 143 -150 143q-68 0 -114 -41.5t-68 -103t-22 -119.5q0 -89 43 -138.5t112 -49.5q60 0 106.5 37.5t63.5 105.5l54 -15q-21 -81 -81 -129.5t-147 -48.5
q-61 0 -108.5 28z" />
    <glyph glyph-name="d" unicode="d" horiz-adv-x="572" 
d="M77.5 42q-48.5 57 -48.5 156q0 80 29 158t89.5 129.5t148.5 51.5q49 0 86.5 -18.5t59.5 -45.5t29 -53h2l47 274h58l-74 -412l-48 -282h-58l19 103h-2q-26 -49 -77 -83.5t-118 -34.5q-94 0 -142.5 57zM124.5 79q36.5 -44 109.5 -44q74 0 123.5 48t72 114.5t22.5 122.5
q0 86 -44 127t-108 41q-73 0 -120.5 -46.5t-69.5 -112.5t-22 -123q0 -83 36.5 -127z" />
    <glyph glyph-name="e" unicode="e" horiz-adv-x="526" 
d="M136.5 13.5q-48.5 28.5 -76 81.5t-27.5 125t27.5 145t87.5 122.5t151 49.5q102 0 148 -59t46 -155q0 -30 -5 -70h-395q-1 -10 -1 -30q0 -89 44 -138.5t115 -49.5q61 0 107 38t63 106l54 -15q-22 -81 -81.5 -130t-146.5 -49q-62 0 -110.5 28.5zM436 300q2 22 2 32
q0 71 -34.5 113t-107.5 42q-78 0 -127 -54t-68 -133h335z" />
    <glyph glyph-name="f" unicode="f" horiz-adv-x="314" 
d="M145 477l-103 -2l8 48h100q-3 84 36 141t129 57q52 0 97 -22l-21 -44q-42 15 -80 15q-65 0 -86.5 -41.5t-20.5 -105.5h156l-9 -48l-151 2l-83 -477h-58z" />
    <glyph glyph-name="g" unicode="g" horiz-adv-x="572" 
d="M63.5 -132.5q-47.5 41.5 -57.5 109.5l53 15q8 -55 44 -86.5t102 -31.5q91 0 141.5 56t67.5 161l7 42h-2q-25 -46 -78 -79.5t-116 -33.5q-87 0 -140 54.5t-53 151.5q0 65 27 137t87.5 123t153.5 51q72 0 115.5 -35t54.5 -82h2l18 103h58l-74 -422q-18 -104 -54.5 -164.5
t-90 -85.5t-128.5 -25q-90 0 -137.5 41.5zM130 112.5q38 -42.5 108 -42.5q72 0 120 42.5t71 102t23 111.5q0 71 -39.5 116.5t-111.5 45.5q-74 0 -121 -42t-67.5 -100t-20.5 -107q0 -84 38 -126.5z" />
    <glyph glyph-name="h" unicode="h" horiz-adv-x="572" 
d="M70 252l76 442h58l-49 -268h2q30 50 81.5 80.5t117.5 30.5q78 0 118.5 -42.5t40.5 -123.5q0 -31 -6 -67l-9 -52l-42 -252h-58l45 252l9 51q6 33 6 60q0 65 -31.5 94t-89.5 29q-47 0 -91 -24.5t-75.5 -69.5t-41.5 -103l-6 -37l-43 -252h-58z" />
    <glyph glyph-name="i" unicode="i" horiz-adv-x="198" 
d="M72 262l44 261h58l-47 -261l-45 -262h-58zM139 671.5q13 13.5 35 13.5q39 0 33 -40q-4 -19 -16 -29.5t-31 -10.5q-34 0 -34 29q0 24 13 37.5z" />
    <glyph glyph-name="j" unicode="j" horiz-adv-x="197" 
d="M-139 -154l19 45q24 -7 53 -7q36 0 57.5 24t33.5 85l22 127l69 403h58l-72 -403l-20 -114q-17 -93 -53 -132.5t-92 -39.5q-35 0 -75 12zM138 671.5q13 13.5 35 13.5q39 0 33 -40q-4 -19 -16 -29.5t-31 -10.5q-34 0 -34 29q0 24 13 37.5z" />
    <glyph glyph-name="k" unicode="k" horiz-adv-x="495" 
d="M88 353l58 341h58l-61 -341l-15 -88l295 258h77l-234 -203l175 -320h-65l-153 281l-109 -94l-32 -187h-58z" />
    <glyph glyph-name="l" unicode="l" horiz-adv-x="198" 
d="M88 353l58 341h58l-61 -341l-61 -353h-58z" />
    <glyph glyph-name="m" unicode="m" horiz-adv-x="850" 
d="M70 252l46 271h58l-19 -97h2q31 49 79.5 80t104.5 31t91 -34.5t36 -92.5h2q30 55 84 91t113 36q61 0 96.5 -34.5t35.5 -108.5q0 -33 -7 -68l-14 -74l-42 -252h-58l45 252l14 78q5 26 5 56q0 53 -23.5 76.5t-68.5 23.5q-40 0 -81 -25.5t-71 -69.5t-39 -97l-8 -42l-42 -252
h-58l45 252l14 78q5 25 5 54q0 52 -24 77t-68 25q-40 0 -80.5 -25t-70.5 -68t-39 -94l-9 -47l-42 -252h-58z" />
    <glyph glyph-name="n" unicode="n" horiz-adv-x="572" 
d="M70 252l46 271h58l-19 -97h2q30 50 81 80.5t117 30.5q78 0 119 -42t41 -123q0 -32 -6 -68l-9 -52l-42 -252h-58l45 252l9 51q6 33 6 60q0 65 -30.5 94t-88.5 29q-48 0 -92 -24.5t-75.5 -69.5t-42.5 -103l-6 -37l-43 -252h-58z" />
    <glyph glyph-name="o" unicode="o" horiz-adv-x="556" 
d="M135 13q-49 28 -76 81t-27 126q0 72 28 145t90.5 122.5t158.5 49.5q63 0 112 -28t76 -81t27 -125q0 -73 -28 -146t-90.5 -122.5t-158.5 -49.5q-63 0 -112 28zM135 84q44 -49 116 -49t120.5 42t71 103t22.5 120q0 89 -44 138t-116 49t-120.5 -41.5t-71 -102.5t-22.5 -120
q0 -90 44 -139z" />
    <glyph glyph-name="p" unicode="p" horiz-adv-x="573" 
d="M68 242l48 281h59l-19 -103h2q24 48 77 82.5t118 34.5q93 0 141.5 -57t48.5 -156q0 -80 -29 -158t-89 -129.5t-149 -51.5q-49 0 -86.5 18.5t-59 46t-28.5 54.5h-2l-46 -264h-59zM164 76.5q43 -41.5 105 -41.5q74 0 123 46.5t71 112t22 123.5q0 83 -36.5 127t-109.5 44
q-76 0 -125 -48.5t-71 -115.5t-22 -123q0 -83 43 -124.5z" />
    <glyph glyph-name="q" unicode="q" horiz-adv-x="573" 
d="M370 -160l48 264h-2q-27 -50 -77.5 -84.5t-117.5 -34.5q-94 0 -142.5 57t-48.5 156q0 80 29 158t89.5 129.5t148.5 51.5q51 0 88.5 -18.5t58.5 -45.5t27 -53h2l17 103h59l-51 -281l-70 -402h-58zM124.5 79q36.5 -44 109.5 -44q74 0 123.5 48t72 115t22.5 122
q0 86 -44 127t-109 41q-72 0 -119.5 -47t-69.5 -113t-22 -123q0 -82 36.5 -126z" />
    <glyph glyph-name="r" unicode="r" horiz-adv-x="343" 
d="M70 251l46 272h58l-20 -103h2q26 50 76 83.5t111 33.5q20 0 40 -4l-12 -55q-20 5 -40 5q-47 0 -89 -24.5t-71.5 -70.5t-40.5 -106l-5 -29l-43 -253h-58z" />
    <glyph glyph-name="s" unicode="s" horiz-adv-x="451" 
d="M59 29.5q-52 44.5 -55 113.5l52 12q5 -50 39.5 -85t113.5 -35q73 0 101 30.5t28 67.5q0 41 -27.5 65.5t-93.5 43.5q-87 24 -122 59.5t-35 88.5q0 60 43 103.5t136 43.5q81 0 129.5 -40t55.5 -112l-53 -12q-7 52 -40 83t-99 31q-54 0 -83.5 -26.5t-29.5 -66.5
q0 -36 23.5 -57t86.5 -41t99 -41.5t52 -48t16 -65.5q0 -71 -49 -113.5t-144 -42.5q-92 0 -144 44.5z" />
    <glyph glyph-name="t" unicode="t" horiz-adv-x="340" 
d="M91.5 12q-26.5 27 -26.5 79q0 31 8 73l55 313l-85 -2l8 48h85l28 158h57l-29 -158h169l-8 -48l-169 2l-56 -319q-5 -33 -5 -52q0 -37 16.5 -54t55.5 -17q48 0 92 16l3 -45q-55 -21 -109 -21q-63 0 -89.5 27z" />
    <glyph glyph-name="u" unicode="u" horiz-adv-x="562" 
d="M492 272l-46 -272h-58l19 97h-2q-31 -50 -80 -80.5t-104 -30.5q-80 0 -122 42.5t-42 124.5q0 31 6 67l9 52l42 251h58l-45 -251l-9 -52q-6 -33 -6 -60q0 -65 32 -94t93 -29q39 0 80 25t72 69t41 98l7 43l43 251h58z" />
    <glyph glyph-name="v" unicode="v" horiz-adv-x="492" 
d="M231 0h-66l-111 523h58l94 -461h2l262 461h61z" />
    <glyph glyph-name="w" unicode="w" horiz-adv-x="737" 
d="M54 523h55l54 -459h1l221 459h55l55 -459h1l219 459h60l-255 -523h-65l-55 437h-2l-211 -437h-65z" />
    <glyph glyph-name="x" unicode="x" horiz-adv-x="481" 
d="M208 269l-144 254h64l118 -211h2l190 211h70l-232 -254l152 -269h-63l-128 225h-2l-203 -225h-71z" />
    <glyph glyph-name="y" unicode="y" horiz-adv-x="493" 
d="M-27 -162l18 46q29 -6 55 -6q35 0 62.5 27t68.5 99l-123 519h58l102 -444h2l253 444h62l-320 -556q-45 -80 -86.5 -109.5t-83.5 -29.5q-38 0 -68 10z" />
    <glyph glyph-name="z" unicode="z" horiz-adv-x="464" 
d="M-11 45l403 428h-318l8 50h394l-8 -45l-402 -428h333l-8 -50h-410z" />
    <glyph glyph-name="braceleft" unicode="{" horiz-adv-x="279" 
d="M81.5 -112.5q-25.5 21.5 -25.5 59.5q0 7 2 23l38 208q4 19 4 37q0 28 -15 42t-51 14l9 48q43 0 64.5 23.5t29.5 70.5l38 218q9 49 35.5 71t79.5 22h38l-8 -48h-28q-22 0 -38 -12.5t-21 -39.5l-34 -192q-11 -61 -32.5 -94t-63.5 -45q28 -9 40.5 -28.5t12.5 -51.5
q0 -25 -6 -55l-33 -192q-2 -12 -2 -15q0 -37 41 -37h29l-8 -48h-24q-46 0 -71.5 21.5z" />
    <glyph glyph-name="bar" unicode="|" horiz-adv-x="216" 
d="M216 693l-139 -793h-64l139 793h64z" />
    <glyph glyph-name="braceright" unicode="}" horiz-adv-x="280" 
d="M209.5 702.5q25.5 -21.5 25.5 -59.5q0 -15 -2 -23l-38 -208q-4 -19 -4 -37q0 -28 15 -42t51 -14l-9 -48q-43 0 -64.5 -23.5t-29.5 -70.5l-38 -218q-9 -49 -35.5 -71t-79.5 -22h-38l8 48h28q22 0 38 12.5t21 39.5l34 192q11 61 32.5 94t63.5 45q-28 9 -40.5 28.5
t-12.5 51.5q0 25 6 55l33 192q2 12 2 15q0 37 -41 37h-29l8 48h24q46 0 71.5 -21.5z" />
    <glyph glyph-name="asciitilde" unicode="~" horiz-adv-x="479" 
d="M86.5 341q28.5 41 79.5 41q26 0 47 -14.5t53 -43.5q23 -22 37.5 -33t29.5 -11q53 0 70 87h45q-10 -49 -38.5 -89.5t-79.5 -40.5q-27 0 -48.5 14.5t-51.5 43.5q-23 22 -37.5 32.5t-29.5 10.5q-53 0 -70 -86h-44q9 48 37.5 89z" />
    <glyph glyph-name="DEL" horiz-adv-x="600" 
 />
    <glyph glyph-name="uni00A0" unicode="&#xa0;" horiz-adv-x="263" 
 />
    <glyph glyph-name="exclamdown" unicode="&#xa1;" horiz-adv-x="246" 
d="M125 81l-44 -251h-58l44 251l53 258h44zM131 523.5q14 14.5 38 14.5q19 0 30.5 -10t11.5 -29q0 -24 -14 -38t-38 -14q-19 0 -30.5 10t-11.5 29q0 23 14 37.5z" />
    <glyph glyph-name="cent" unicode="&#xa2;" horiz-adv-x="483" 
d="M364 693l-18 -103q71 -8 114.5 -55.5t44.5 -117.5l-52 -13q-1 59 -31.5 94.5t-84.5 41.5l-70 -400q54 4 95.5 40t64.5 98l51 -14q-27 -77 -84 -124.5t-136 -50.5l-16 -89h-49l16 92q-76 12 -120.5 68t-44.5 137q0 58 25.5 123t82.5 114.5t145 55.5l18 103h49zM133.5 194
q30.5 -42 84.5 -52l70 397q-62 -8 -103.5 -48.5t-61.5 -93t-20 -99.5q0 -62 30.5 -104z" />
    <glyph glyph-name="sterling" unicode="&#xa3;" horiz-adv-x="597" 
d="M28.5 15q-24.5 22 -24.5 61q0 38 30 62t77 24q27 0 54 -9.5t59 -26.5q20 40 20 86q0 31 -8.5 59t-25.5 61h-137l7 42h110q-17 36 -26.5 68.5t-9.5 69.5q0 44 20 86t67.5 71t124.5 29q113 0 159.5 -58.5t43.5 -151.5l-57 -15q3 83 -30 127t-119 44q-54 0 -87 -21
t-46.5 -51t-13.5 -58q0 -33 10 -66t28 -74h201l-7 -42h-175q15 -34 23 -62t8 -56q0 -26 -9 -56.5t-26 -58.5q44 -27 73.5 -41t56.5 -14q35 0 59.5 33t36.5 118l52 -15q-28 -187 -149 -187q-39 0 -74 17t-84 49q-59 -66 -141 -66q-46 0 -70.5 22zM107 42q50 0 91 44
q-25 14 -45.5 22t-41.5 8q-25 0 -38.5 -10t-13.5 -28q0 -36 48 -36z" />
    <glyph glyph-name="currency" unicode="&#xa4;" horiz-adv-x="480" 
d="M128 185l-86 -72l-27 32l86 74q-19 29 -19 71q0 34 14 67.5t40 59.5l-61 73l39 32l60 -72q52 34 106 34t93 -34l85 72l27 -32l-85 -73q18 -31 18 -71q0 -71 -54 -128l60 -73l-38 -32l-60 73q-48 -34 -105 -34q-53 0 -93 33zM159 228q28 -28 70 -28q35 0 67.5 19t53 51
t20.5 68q0 42 -28 69.5t-71 27.5q-35 0 -67.5 -19.5t-52.5 -51t-20 -67.5q0 -41 28 -69z" />
    <glyph glyph-name="yen" unicode="&#xa5;" horiz-adv-x="570" 
d="M234 143h-187l8 44h187l12 66h-187l8 44h164l-155 396h69l142 -370h2l275 370h67l-295 -396h164l-8 -44h-188l-11 -66h187l-7 -44h-187l-24 -143h-62z" />
    <glyph glyph-name="brokenbar" unicode="&#xa6;" horiz-adv-x="216" 
d="M216 693l-59 -334h-64l59 334h64zM72 234h64l-59 -334h-64z" />
    <glyph glyph-name="section" unicode="&#xa7;" horiz-adv-x="468" 
d="M48.5 -59.5q-42.5 41.5 -42.5 107.5l58 15q-2 -47 29 -78.5t93 -31.5q52 0 87.5 28.5t42.5 69.5q3 14 3 26q0 33 -26.5 56.5t-93.5 41.5q-84 23 -119.5 52t-35.5 73q0 14 3 27q5 31 28 61.5t54 50.5q-30 33 -30 82q0 17 3 33q12 66 66.5 110t133.5 44q85 0 128 -41.5
t43 -106.5l-58 -15q2 47 -29 78t-94 31q-52 0 -87 -28t-43 -69q-2 -16 -2 -24q0 -34 26 -57.5t93 -42.5q85 -23 120.5 -52t35.5 -73q0 -13 -3 -27q-5 -31 -27.5 -61.5t-54.5 -50.5q30 -33 30 -81q0 -16 -3 -34q-12 -67 -66.5 -111t-134.5 -44q-85 0 -127.5 41.5zM106 316
q0 -27 25.5 -46.5t93.5 -37.5q56 -15 87 -37q31 23 45.5 46t14.5 52q0 26 -26 46t-93 37q-55 15 -86 37q-27 -19 -41 -39t-19 -44q-1 -5 -1 -14z" />
    <glyph glyph-name="dieresis" unicode="&#xa8;" horiz-adv-x="257" 
d="M85.5 643q-8.5 8 -8.5 22q0 21 13.5 34.5t33.5 13.5q17 0 26 -11t6 -28q-4 -18 -16.5 -28.5t-29.5 -10.5q-16 0 -24.5 8zM259.5 699.5q13.5 13.5 33.5 13.5q17 0 26 -11t6 -28q-4 -18 -16.5 -28.5t-29.5 -10.5q-16 0 -24.5 8t-8.5 22q0 21 13.5 34.5z" />
    <glyph glyph-name="copyright" unicode="&#xa9;" horiz-adv-x="803" 
d="M210.5 27.5q-76.5 41.5 -118 115t-41.5 168.5q0 97 43.5 188t132.5 149.5t219 58.5q97 0 174 -41.5t120 -116t43 -168.5q0 -96 -43.5 -187t-132.5 -149.5t-219 -58.5q-101 0 -177.5 41.5zM137.5 171.5q35.5 -63.5 101.5 -99t153 -35.5q111 0 188 50.5t114.5 128.5
t37.5 161q0 81 -37 144.5t-103 99.5t-150 36q-112 0 -188.5 -50.5t-114 -128.5t-37.5 -162q0 -81 35.5 -144.5zM247.5 427.5q23.5 57.5 74.5 97.5t129 40q69 0 109 -38t44 -100l-49 -10q-5 52 -32.5 76t-77.5 24q-59 0 -96.5 -32.5t-53.5 -78t-16 -87.5q0 -64 29 -98t83 -34
q50 0 87.5 27t56.5 79l49 -11q-23 -63 -73.5 -103.5t-119.5 -40.5q-75 0 -121 47.5t-46 129.5q0 55 23.5 112.5z" />
    <glyph glyph-name="ordfeminine" unicode="&#xaa;" horiz-adv-x="357" 
d="M87 383q-23 20 -23 52q0 5 2 17q9 56 57.5 79t142.5 23h27l2 11q3 17 3 31q0 28 -14 41.5t-45 13.5q-40 0 -63 -20.5t-29 -54.5l-47 12q11 51 51 80t99 29q105 0 105 -92q0 -16 -3 -36l-23 -128q-1 -5 -1 -13q0 -10 4 -14.5t12 -4.5q9 0 18 3l2 -38q-19 -8 -41 -8
q-44 0 -44 42q0 9 1 14l3 17h-1q-19 -35 -52.5 -55.5t-77.5 -20.5q-42 0 -65 20zM42 298h302l-9 -49h-302zM122 448q0 -19 13.5 -30t37.5 -11q39 0 71.5 27.5t40.5 75.5l2 10h-20q-70 0 -104 -14t-40 -48q-1 -3 -1 -10z" />
    <glyph glyph-name="guillemotleft" unicode="&#xab;" horiz-adv-x="503" 
d="M37 245l6 31l210 194l31 -30l-185 -183l120 -184l-36 -26zM243 276l210 194l31 -30l-185 -183l120 -184l-36 -26l-146 198z" />
    <glyph glyph-name="logicalnot" unicode="&#xac;" horiz-adv-x="477" 
d="M389 314h-339l10 58h396l-34 -192h-57z" />
    <glyph glyph-name="uni00AD" unicode="&#xad;" 
 />
    <glyph glyph-name="registered" unicode="&#xae;" horiz-adv-x="446" 
d="M156 351.5q-37 20.5 -57.5 56.5t-20.5 79q0 55 27.5 105.5t77 81.5t113.5 31q47 0 84 -21t57.5 -57t20.5 -80q0 -52 -27 -102t-76.5 -82t-114.5 -32q-47 0 -84 20.5zM149.5 399.5q37.5 -36.5 96.5 -36.5q47 0 88 25t65.5 66.5t24.5 89.5q0 55 -37.5 92t-96.5 37
q-46 0 -87.5 -24.5t-66 -66.5t-24.5 -91q0 -55 37.5 -91.5zM201 524l16 96h71q66 0 66 -47q0 -24 -11 -40t-31 -24q23 -8 23 -37q0 -5 -0.5 -20.5t0.5 -23.5h-43q-1 2 -1 34q4 32 -27 32h-28l-11 -66h-42zM272 525q18 0 29 10t11 27q0 23 -29 23h-31l-11 -60h31z" />
    <glyph glyph-name="macron" unicode="&#xaf;" horiz-adv-x="354" 
d="M105 685h294l-8 -44h-294z" />
    <glyph glyph-name="degree" unicode="&#xb0;" horiz-adv-x="386" 
d="M160 501.5q-28 27.5 -28 69.5q0 36 20 67.5t52.5 50.5t67.5 19q42 0 70 -27.5t28 -68.5q0 -36 -20 -67.5t-52 -51t-67 -19.5q-43 0 -71 27.5zM189 529q19 -19 48 -19q37 0 66 29t29 66q0 29 -18.5 48.5t-47.5 19.5q-37 0 -66.5 -29.5t-29.5 -66.5q0 -29 19 -48z" />
    <glyph glyph-name="plusminus" unicode="&#xb1;" horiz-adv-x="433" 
d="M65 345l142 -2l23 139h52l-27 -139l143 2l-9 -49l-142 2l-22 -139h-52l26 139l-143 -2zM22 105l167 -2l166 2l-9 -49l-165 2l-168 -2z" />
    <glyph glyph-name="acute" unicode="&#xb4;" horiz-adv-x="171" 
d="M89 635l83 132h68l-112 -132h-39z" />
    <glyph glyph-name="uni00B5" unicode="&#xb5;" horiz-adv-x="643" 
d="M122 524h56l-52 -294q-4 -23 -4 -47q0 -66 36.5 -103t104.5 -37q74 0 136 48t97 134l53 299h56l-93 -524h-56l23 131q-38 -65 -100 -102.5t-137 -37.5q-111 0 -144 93l-41 -245h-56z" />
    <glyph glyph-name="paragraph" unicode="&#xb6;" horiz-adv-x="604" 
d="M402 -100l72 392l68 401h62l-73 -401l-67 -392h-62zM162.5 644q73.5 49 195.5 49h80l-72 -401l-67 -392h-63l72 395h-21q-108 0 -163.5 39.5t-55.5 117.5q0 25 4 46q17 97 90.5 146z" />
    <glyph glyph-name="periodcentered" unicode="&#xb7;" horiz-adv-x="198" 
d="M60.5 209q-10.5 9 -10.5 27q0 24 14.5 38.5t38.5 14.5q19 0 29 -9.5t10 -26.5q0 -19 -13 -36t-39 -17q-19 0 -29.5 9z" />
    <glyph glyph-name="cedilla" unicode="&#xb8;" horiz-adv-x="215" 
d="M-45 -160l15 36q32 -8 58 -8q24 0 34 7t10 21q0 12 -17 18t-59 7l46 87l43 -2l-30 -60q76 -9 67 -59q-6 -30 -31.5 -43.5t-60.5 -13.5q-41 0 -75 10z" />
    <glyph glyph-name="ordmasculine" unicode="&#xba;" horiz-adv-x="371" 
d="M111.5 397q-33.5 34 -33.5 93q0 22 4 41q13 76 62.5 121t118.5 45q59 0 92 -33.5t33 -91.5q0 -22 -4 -41q-13 -77 -62 -122.5t-118 -45.5q-59 0 -92.5 34zM42 298h302l-9 -49h-302zM138 496q0 -40 19 -62t55 -22q43 0 73 32t40 87q3 18 3 34q0 39 -19 61t-55 22
q-43 0 -73 -31t-40 -86q-3 -18 -3 -35z" />
    <glyph glyph-name="guillemotright" unicode="&#xbb;" horiz-adv-x="504" 
d="M465 271l-6 -31l-210 -194l-31 30l185 183l-120 184l36 26zM203 259l-120 184l36 26l146 -198l-6 -31l-210 -194l-31 30z" />
    <glyph glyph-name="questiondown" unicode="&#xbf;" horiz-adv-x="490" 
d="M108.5 99q-55.5 -53 -55.5 -118q0 -48 29.5 -75.5t87.5 -27.5q68 0 114 38t70 107l53 -14q-27 -80 -87.5 -130t-157.5 -50q-49 0 -87.5 20t-60 55t-21.5 79q0 43 25 88t81 83.5t143 58.5l26 122h45l-23 -154q-126 -29 -181.5 -82zM283.5 524q14.5 14 38.5 14q19 0 30 -10
t11 -29q0 -23 -14 -36.5t-38 -13.5q-19 0 -30.5 9.5t-11.5 28.5q0 23 14.5 37z" />
    <glyph glyph-name="Agrave" unicode="&#xc0;" horiz-adv-x="636" 
d="M168 347l195 346h60l74 -346l81 -347h-64l-40 202l-167 2l-160 -2l-111 -202h-70zM315 252l148 2l-18 92l-63 274h-2l-153 -273l-51 -94zM317 869h71l38 -107h-39z" />
    <glyph glyph-name="Aacute" unicode="&#xc1;" horiz-adv-x="636" 
d="M168 347l195 346h60l74 -346l81 -347h-64l-40 202l-167 2l-160 -2l-111 -202h-70zM315 252l148 2l-18 92l-63 274h-2l-153 -273l-51 -94zM368 762l75 107h71l-107 -107h-39z" />
    <glyph glyph-name="Acircumflex" unicode="&#xc2;" horiz-adv-x="636" 
d="M168 347l195 346h60l74 -346l81 -347h-64l-40 202l-167 2l-160 -2l-111 -202h-70zM315 252l148 2l-18 92l-63 274h-2l-153 -273l-51 -94zM398 869h55l80 -107h-49l-66 65l-88 -65h-49z" />
    <glyph glyph-name="Atilde" unicode="&#xc3;" horiz-adv-x="636" 
d="M168 347l195 346h60l74 -346l81 -347h-64l-40 202l-167 2l-160 -2l-111 -202h-70zM315 252l148 2l-18 92l-63 274h-2l-153 -273l-51 -94zM301.5 828q21.5 27 56.5 27q20 0 35 -8t36 -23q15 -11 24 -16t19 -5q17 0 26 13t15 39h44q-8 -41 -29.5 -68t-57.5 -27
q-20 0 -34.5 7.5t-36.5 22.5q-15 11 -24 16t-19 5q-18 0 -26.5 -12.5t-14.5 -38.5h-44q9 41 30.5 68z" />
    <glyph glyph-name="Adieresis" unicode="&#xc4;" horiz-adv-x="636" 
d="M168 347l195 346h60l74 -346l81 -347h-64l-40 202l-167 2l-160 -2l-111 -202h-70zM315 252l148 2l-18 92l-63 274h-2l-153 -273l-51 -94zM298 769.5q-9 8.5 -9 22.5q0 21 13.5 34t33.5 13q15 0 24 -8.5t9 -22.5q0 -21 -13.5 -34t-33.5 -13q-15 0 -24 8.5zM471.5 826
q13.5 13 33.5 13q15 0 24 -8.5t9 -22.5q0 -21 -13.5 -34t-33.5 -13q-15 0 -24 8.5t-9 22.5q0 21 13.5 34z" />
    <glyph glyph-name="Aring" unicode="&#xc5;" horiz-adv-x="636" 
d="M168 347l195 346h60l74 -346l81 -347h-64l-40 202l-167 2l-160 -2l-111 -202h-70zM315 252l148 2l-18 92l-63 274h-2l-153 -273l-51 -94zM363.5 772q-14.5 13 -14.5 36q0 8 1 13q5 29 26 45.5t52 16.5q26 0 40.5 -12.5t14.5 -35.5q0 -35 -21.5 -55.5t-55.5 -20.5
q-28 0 -42.5 13zM389 798q7 -9 22 -9q17 0 27.5 11.5t10.5 28.5q0 11 -7 17.5t-19 6.5q-16 0 -26 -8.5t-13 -23.5q-2 -14 5 -23z" />
    <glyph glyph-name="AE" unicode="&#xc6;" horiz-adv-x="911" 
d="M229 347l253 346h465l-9 -54h-354l-47 -259h333l-9 -53h-333l-47 -273h363l-9 -54h-424l37 202l-117 2l-145 -2l-146 -202h-74zM342 252l115 2l17 93l50 292h-21l-280 -386z" />
    <glyph glyph-name="Ccedilla" unicode="&#xc7;" horiz-adv-x="652" 
d="M299 -14l-20 -40q80 -9 71 -60q-6 -30 -32 -43.5t-65 -13.5q-17 0 -39.5 3t-35.5 7l14 34q28 -7 57 -7q24 0 34.5 7t10.5 21q0 12 -16.5 19.5t-56.5 11.5l36 68q-99 21 -153.5 98.5t-54.5 194.5q0 123 44 219t124 149.5t183 53.5q118 0 183.5 -64.5t76.5 -173.5l-57 -14
q-20 198 -204 198q-85 0 -151 -47t-102 -130.5t-36 -190.5q0 -114 59 -180.5t161 -66.5q85 0 149 54t88 145l54 -15q-20 -72 -63.5 -125.5t-102 -83t-125.5 -29.5q-21 0 -31 1z" />
    <glyph glyph-name="Egrave" unicode="&#xc8;" horiz-adv-x="575" 
d="M93 347l59 346h459l-9 -54h-399l-47 -259h378l-9 -54h-378l-47 -272h408l-9 -54h-469zM314 869h71l38 -107h-39z" />
    <glyph glyph-name="Eacute" unicode="&#xc9;" horiz-adv-x="575" 
d="M93 347l59 346h459l-9 -54h-399l-47 -259h378l-9 -54h-378l-47 -272h408l-9 -54h-469zM365 762l75 107h71l-107 -107h-39z" />
    <glyph glyph-name="Ecircumflex" unicode="&#xca;" horiz-adv-x="575" 
d="M93 347l59 346h459l-9 -54h-399l-47 -259h378l-9 -54h-378l-47 -272h408l-9 -54h-469zM395 869h55l80 -107h-49l-66 65l-88 -65h-49z" />
    <glyph glyph-name="Edieresis" unicode="&#xcb;" horiz-adv-x="575" 
d="M93 347l59 346h459l-9 -54h-399l-47 -259h378l-9 -54h-378l-47 -272h408l-9 -54h-469zM295 769.5q-9 8.5 -9 22.5q0 21 13.5 34t33.5 13q15 0 24 -8.5t9 -22.5q0 -21 -13.5 -34t-33.5 -13q-15 0 -24 8.5zM468.5 826q13.5 13 33.5 13q15 0 24 -8.5t9 -22.5
q0 -21 -13.5 -34t-33.5 -13q-15 0 -24 8.5t-9 22.5q0 21 13.5 34z" />
    <glyph glyph-name="Igrave" unicode="&#xcc;" horiz-adv-x="214" 
d="M93 347l59 346h62l-63 -346l-59 -347h-62zM105 869h71l38 -107h-39z" />
    <glyph glyph-name="Iacute" unicode="&#xcd;" horiz-adv-x="214" 
d="M93 347l59 346h62l-63 -346l-59 -347h-62zM157 762l75 107h71l-107 -107h-39z" />
    <glyph glyph-name="Icircumflex" unicode="&#xce;" horiz-adv-x="214" 
d="M93 347l59 346h62l-63 -346l-59 -347h-62zM186 869h55l80 -107h-49l-66 65l-88 -65h-49z" />
    <glyph glyph-name="Idieresis" unicode="&#xcf;" horiz-adv-x="214" 
d="M93 347l59 346h62l-63 -346l-59 -347h-62zM86 769.5q-9 8.5 -9 22.5q0 21 13.5 34t33.5 13q15 0 24 -8.5t9 -22.5q0 -21 -13.5 -34t-33.5 -13q-15 0 -24 8.5zM259.5 826q13.5 13 33.5 13q15 0 24 -8.5t9 -22.5q0 -21 -13.5 -34t-33.5 -13q-15 0 -24 8.5t-9 22.5
q0 21 13.5 34z" />
    <glyph glyph-name="Eth" unicode="&#xd0;" horiz-adv-x="661" 
d="M89 326l-81 -1l9 47l80 -1l55 322h184q310 0 310 -269q0 -99 -38.5 -195t-132 -162.5t-249.5 -66.5h-196zM227 54q127 0 206.5 53.5t114.5 136t35 172.5q0 114 -59.5 168.5t-186.5 54.5h-132l-51 -269l131 2l-9 -47l-129 1l-45 -272h125z" />
    <glyph glyph-name="Ntilde" unicode="&#xd1;" horiz-adv-x="674" 
d="M93 346l59 347h69l158 -341l127 -259h3l47 265l56 335h62l-63 -346l-59 -347h-69l-148 318l-137 282h-3l-46 -264l-57 -336h-62zM321.5 828q21.5 27 56.5 27q20 0 35 -8t36 -23q15 -11 24 -16t19 -5q17 0 26 13t15 39h44q-8 -41 -29.5 -68t-57.5 -27q-20 0 -34.5 7.5
t-36.5 22.5q-15 11 -24 16t-19 5q-18 0 -26.5 -12.5t-14.5 -38.5h-44q9 41 30.5 68z" />
    <glyph glyph-name="Ograve" unicode="&#xd2;" horiz-adv-x="710" 
d="M124.5 68q-74.5 83 -74.5 226q0 119 45 213t126 147.5t184 53.5q136 0 211 -83t75 -226q0 -118 -45.5 -212.5t-126.5 -148t-184 -53.5q-136 0 -210.5 83zM170.5 106.5q59.5 -67.5 165.5 -67.5q85 0 151.5 46.5t104 129t37.5 185.5q0 120 -59 187t-165 67
q-85 0 -152 -46.5t-104.5 -128.5t-37.5 -185q0 -120 59.5 -187.5zM354 869h71l38 -107h-39z" />
    <glyph glyph-name="Oacute" unicode="&#xd3;" horiz-adv-x="710" 
d="M124.5 68q-74.5 83 -74.5 226q0 119 45 213t126 147.5t184 53.5q136 0 211 -83t75 -226q0 -118 -45.5 -212.5t-126.5 -148t-184 -53.5q-136 0 -210.5 83zM170.5 106.5q59.5 -67.5 165.5 -67.5q85 0 151.5 46.5t104 129t37.5 185.5q0 120 -59 187t-165 67
q-85 0 -152 -46.5t-104.5 -128.5t-37.5 -185q0 -120 59.5 -187.5zM405 762l75 107h71l-107 -107h-39z" />
    <glyph glyph-name="Ocircumflex" unicode="&#xd4;" horiz-adv-x="710" 
d="M124.5 68q-74.5 83 -74.5 226q0 119 45 213t126 147.5t184 53.5q136 0 211 -83t75 -226q0 -118 -45.5 -212.5t-126.5 -148t-184 -53.5q-136 0 -210.5 83zM170.5 106.5q59.5 -67.5 165.5 -67.5q85 0 151.5 46.5t104 129t37.5 185.5q0 120 -59 187t-165 67
q-85 0 -152 -46.5t-104.5 -128.5t-37.5 -185q0 -120 59.5 -187.5zM435 869h55l80 -107h-49l-66 65l-88 -65h-49z" />
    <glyph glyph-name="Otilde" unicode="&#xd5;" horiz-adv-x="710" 
d="M124.5 68q-74.5 83 -74.5 226q0 119 45 213t126 147.5t184 53.5q136 0 211 -83t75 -226q0 -118 -45.5 -212.5t-126.5 -148t-184 -53.5q-136 0 -210.5 83zM170.5 106.5q59.5 -67.5 165.5 -67.5q85 0 151.5 46.5t104 129t37.5 185.5q0 120 -59 187t-165 67
q-85 0 -152 -46.5t-104.5 -128.5t-37.5 -185q0 -120 59.5 -187.5zM338.5 828q21.5 27 56.5 27q20 0 35 -8t36 -23q15 -11 24 -16t19 -5q17 0 26 13t15 39h44q-8 -41 -29.5 -68t-57.5 -27q-20 0 -34.5 7.5t-36.5 22.5q-15 11 -24 16t-19 5q-18 0 -26.5 -12.5t-14.5 -38.5h-44
q9 41 30.5 68z" />
    <glyph glyph-name="Odieresis" unicode="&#xd6;" horiz-adv-x="710" 
d="M124.5 68q-74.5 83 -74.5 226q0 119 45 213t126 147.5t184 53.5q136 0 211 -83t75 -226q0 -118 -45.5 -212.5t-126.5 -148t-184 -53.5q-136 0 -210.5 83zM170.5 106.5q59.5 -67.5 165.5 -67.5q85 0 151.5 46.5t104 129t37.5 185.5q0 120 -59 187t-165 67
q-85 0 -152 -46.5t-104.5 -128.5t-37.5 -185q0 -120 59.5 -187.5zM335 769.5q-9 8.5 -9 22.5q0 21 13.5 34t33.5 13q15 0 24 -8.5t9 -22.5q0 -21 -13.5 -34t-33.5 -13q-15 0 -24 8.5zM508.5 826q13.5 13 33.5 13q15 0 24 -8.5t9 -22.5q0 -21 -13.5 -34t-33.5 -13
q-15 0 -24 8.5t-9 22.5q0 21 13.5 34z" />
    <glyph glyph-name="multiply" unicode="&#xd7;" horiz-adv-x="413" 
d="M118 443l99 -101l114 81l37 -37l-117 -79l102 -99l-41 -29l-99 101l-113 -82l-37 37l116 80l-102 100z" />
    <glyph glyph-name="Oslash" unicode="&#xd8;" horiz-adv-x="710" 
d="M130 63l-75 -78l-34 29l80 84q-51 79 -51 196q0 119 45 213t126 147.5t184 53.5q65 0 117.5 -20t88.5 -58l75 78l34 -29l-81 -84q52 -78 52 -196t-45.5 -212.5t-126.5 -148t-184 -53.5q-130 0 -205 78zM145 143l425 444q-59 67 -165 67q-85 0 -152 -46.5t-104.5 -128.5
t-37.5 -185q0 -89 34 -151zM336 39q85 0 151.5 46.5t104 129t37.5 185.5q0 90 -33 150l-425 -444q59 -67 165 -67z" />
    <glyph glyph-name="Ugrave" unicode="&#xd9;" horiz-adv-x="649" 
d="M115.5 39q-57.5 54 -57.5 161q0 42 9 93l38 208l33 192h62l-37 -192l-36 -213q-7 -41 -7 -80q0 -83 40 -126t125 -43q104 0 164 63.5t82 185.5l39 213l32 192h62l-36 -192l-35 -208q-26 -155 -102 -231.5t-207 -76.5q-111 0 -168.5 54zM324 869h71l38 -107h-39z" />
    <glyph glyph-name="Uacute" unicode="&#xda;" horiz-adv-x="649" 
d="M115.5 39q-57.5 54 -57.5 161q0 42 9 93l38 208l33 192h62l-37 -192l-36 -213q-7 -41 -7 -80q0 -83 40 -126t125 -43q104 0 164 63.5t82 185.5l39 213l32 192h62l-36 -192l-35 -208q-26 -155 -102 -231.5t-207 -76.5q-111 0 -168.5 54zM375 762l75 107h71l-107 -107h-39z
" />
    <glyph glyph-name="Ucircumflex" unicode="&#xdb;" horiz-adv-x="649" 
d="M115.5 39q-57.5 54 -57.5 161q0 42 9 93l38 208l33 192h62l-37 -192l-36 -213q-7 -41 -7 -80q0 -83 40 -126t125 -43q104 0 164 63.5t82 185.5l39 213l32 192h62l-36 -192l-35 -208q-26 -155 -102 -231.5t-207 -76.5q-111 0 -168.5 54zM405 869h55l80 -107h-49l-66 65
l-88 -65h-49z" />
    <glyph glyph-name="Udieresis" unicode="&#xdc;" horiz-adv-x="649" 
d="M115.5 39q-57.5 54 -57.5 161q0 42 9 93l38 208l33 192h62l-37 -192l-36 -213q-7 -41 -7 -80q0 -83 40 -126t125 -43q104 0 164 63.5t82 185.5l39 213l32 192h62l-36 -192l-35 -208q-26 -155 -102 -231.5t-207 -76.5q-111 0 -168.5 54zM305 769.5q-9 8.5 -9 22.5
q0 21 13.5 34t33.5 13q15 0 24 -8.5t9 -22.5q0 -21 -13.5 -34t-33.5 -13q-15 0 -24 8.5zM478.5 826q13.5 13 33.5 13q15 0 24 -8.5t9 -22.5q0 -21 -13.5 -34t-33.5 -13q-15 0 -24 8.5t-9 22.5q0 21 13.5 34z" />
    <glyph glyph-name="Yacute" unicode="&#xdd;" horiz-adv-x="570" 
d="M255 256l-171 437h65l142 -370h3l272 370h73l-326 -437l-43 -256h-62zM335 762l75 107h71l-107 -107h-39z" />
    <glyph glyph-name="Thorn" unicode="&#xde;" horiz-adv-x="605" 
d="M93 347l59 346h62l-19 -105h159q115 0 178 -46.5t63 -142.5q0 -72 -28 -136t-98 -106t-189 -42h-168l-20 -115h-62zM290 168q87 0 141.5 32t78 82t23.5 105q0 148 -174 148h-174l-34 -188l-30 -179h169z" />
    <glyph glyph-name="germandbls" unicode="&#xdf;" horiz-adv-x="552" 
d="M174 -4l8 52q30 -8 77 -8q64 0 107 28t63.5 69t20.5 81q0 135 -179 135h-28l9 51h25q53 0 93.5 22.5t62 56.5t21.5 68q0 51 -29.5 79t-83.5 28q-67 0 -110.5 -44t-58.5 -129l-86 -485h-62l86 486q19 106 82.5 164t155.5 58q76 0 120.5 -39.5t44.5 -109.5q0 -35 -16 -73
t-52 -67.5t-93 -38.5v-2q75 -6 116 -46t41 -107q0 -53 -26.5 -107.5t-84 -91.5t-144.5 -37q-45 0 -80 7z" />
    <glyph glyph-name="agrave" unicode="&#xe0;" horiz-adv-x="572" 
d="M77.5 42q-48.5 57 -48.5 156q0 80 29 158t89.5 129.5t149.5 51.5q48 0 85.5 -18.5t59.5 -45.5t29 -53h2l17 103h58l-47 -261l-45 -262h-58l19 103h-2q-26 -49 -77 -83.5t-118 -34.5q-94 0 -142.5 57zM124.5 79q36.5 -44 108.5 -44q73 0 122.5 49.5t72.5 117.5t23 123
q0 82 -43.5 122.5t-107.5 40.5q-73 0 -121 -46.5t-69.5 -112t-21.5 -123.5q0 -83 36.5 -127zM269 767h67l37 -132h-39z" />
    <glyph glyph-name="aacute" unicode="&#xe1;" horiz-adv-x="572" 
d="M77.5 42q-48.5 57 -48.5 156q0 80 29 158t89.5 129.5t149.5 51.5q48 0 85.5 -18.5t59.5 -45.5t29 -53h2l17 103h58l-47 -261l-45 -262h-58l19 103h-2q-26 -49 -77 -83.5t-118 -34.5q-94 0 -142.5 57zM124.5 79q36.5 -44 108.5 -44q73 0 122.5 49.5t72.5 117.5t23 123
q0 82 -43.5 122.5t-107.5 40.5q-73 0 -121 -46.5t-69.5 -112t-21.5 -123.5q0 -83 36.5 -127zM315 635l83 132h68l-112 -132h-39z" />
    <glyph glyph-name="acircumflex" unicode="&#xe2;" horiz-adv-x="572" 
d="M77.5 42q-48.5 57 -48.5 156q0 80 29 158t89.5 129.5t149.5 51.5q48 0 85.5 -18.5t59.5 -45.5t29 -53h2l17 103h58l-47 -261l-45 -262h-58l19 103h-2q-26 -49 -77 -83.5t-118 -34.5q-94 0 -142.5 57zM124.5 79q36.5 -44 108.5 -44q73 0 122.5 49.5t72.5 117.5t23 123
q0 82 -43.5 122.5t-107.5 40.5q-73 0 -121 -46.5t-69.5 -112t-21.5 -123.5q0 -83 36.5 -127zM348 757h56l75 -132h-44l-67 88l-98 -88h-44z" />
    <glyph glyph-name="atilde" unicode="&#xe3;" horiz-adv-x="572" 
d="M77.5 42q-48.5 57 -48.5 156q0 80 29 158t89.5 129.5t149.5 51.5q48 0 85.5 -18.5t59.5 -45.5t29 -53h2l17 103h58l-47 -261l-45 -262h-58l19 103h-2q-26 -49 -77 -83.5t-118 -34.5q-94 0 -142.5 57zM124.5 79q36.5 -44 108.5 -44q73 0 122.5 49.5t72.5 117.5t23 123
q0 82 -43.5 122.5t-107.5 40.5q-73 0 -121 -46.5t-69.5 -112t-21.5 -123.5q0 -83 36.5 -127zM249.5 704q21.5 27 56.5 27q20 0 35 -7.5t36 -21.5q2 -2 11.5 -8t17 -9t14.5 -3q18 0 27 12.5t14 36.5h44q-8 -41 -29 -68t-57 -27q-20 0 -36 7.5t-36 21.5q-27 20 -43 20
q-18 0 -27 -12.5t-13 -36.5h-45q9 41 30.5 68z" />
    <glyph glyph-name="adieresis" unicode="&#xe4;" horiz-adv-x="572" 
d="M77.5 42q-48.5 57 -48.5 156q0 80 29 158t89.5 129.5t149.5 51.5q48 0 85.5 -18.5t59.5 -45.5t29 -53h2l17 103h58l-47 -261l-45 -262h-58l19 103h-2q-26 -49 -77 -83.5t-118 -34.5q-94 0 -142.5 57zM124.5 79q36.5 -44 108.5 -44q73 0 122.5 49.5t72.5 117.5t23 123
q0 82 -43.5 122.5t-107.5 40.5q-73 0 -121 -46.5t-69.5 -112t-21.5 -123.5q0 -83 36.5 -127zM245.5 643q-8.5 8 -8.5 22q0 21 13.5 34.5t33.5 13.5q17 0 26 -11t6 -28q-4 -18 -16.5 -28.5t-29.5 -10.5q-16 0 -24.5 8zM419.5 699.5q13.5 13.5 33.5 13.5q17 0 26 -11t6 -28
q-4 -18 -16.5 -28.5t-29.5 -10.5q-16 0 -24.5 8t-8.5 22q0 21 13.5 34.5z" />
    <glyph glyph-name="aring" unicode="&#xe5;" horiz-adv-x="572" 
d="M77.5 42q-48.5 57 -48.5 156q0 80 29 158t89.5 129.5t149.5 51.5q48 0 85.5 -18.5t59.5 -45.5t29 -53h2l17 103h58l-47 -261l-45 -262h-58l19 103h-2q-26 -49 -77 -83.5t-118 -34.5q-94 0 -142.5 57zM124.5 79q36.5 -44 108.5 -44q73 0 122.5 49.5t72.5 117.5t23 123
q0 82 -43.5 122.5t-107.5 40.5q-73 0 -121 -46.5t-69.5 -112t-21.5 -123.5q0 -83 36.5 -127zM305.5 649q-17.5 15 -17.5 41q0 40 25.5 64t66.5 24q31 0 48 -15t17 -42q0 -10 -1 -15q-6 -34 -30.5 -53t-59.5 -19q-31 0 -48.5 15zM332 672.5q10 -8.5 27 -8.5q22 0 37 14t15 37
q0 16 -10 25t-27 9q-23 0 -37.5 -14.5t-14.5 -38.5q0 -15 10 -23.5z" />
    <glyph glyph-name="ae" unicode="&#xe6;" horiz-adv-x="853" 
d="M464 23q-50 38 -69 109q-48 -81 -109.5 -114t-122.5 -33q-73 0 -109.5 34t-36.5 97q0 185 325 185h54l4 19q6 33 6 60q0 54 -26.5 81.5t-84.5 27.5q-74 0 -116.5 -39t-52.5 -103l-48 13q14 83 74.5 130t150.5 47q65 0 103.5 -26t49.5 -76q33 47 79 74.5t105 27.5
q93 0 138 -62t45 -158q0 -27 -5 -64h-375q-2 -24 -2 -31q0 -88 41 -137.5t109 -49.5q56 0 98.5 36.5t57.5 107.5l49 -14q-20 -83 -76 -131.5t-137 -48.5q-69 0 -119 38zM102.5 56.5q26.5 -21.5 80.5 -21.5q38 0 80.5 23.5t76 69t44.5 107.5l4 22h-41q-147 0 -209 -34
t-62 -100q0 -45 26.5 -66.5zM765 300q2 22 2 31q0 68 -33.5 112t-96.5 44q-75 0 -120.5 -55t-64.5 -132h313z" />
    <glyph glyph-name="ccedilla" unicode="&#xe7;" horiz-adv-x="493" 
d="M224 -14l-20 -40q80 -9 71 -60q-6 -30 -32 -43.5t-65 -13.5q-17 0 -39.5 3t-35.5 7l14 34q28 -7 57 -7q24 0 34.5 7t10.5 21q0 12 -16.5 19.5t-56.5 11.5l36 68q-68 18 -109 78t-41 149q0 72 27.5 145t88 122.5t151.5 49.5q88 0 139.5 -48.5t59.5 -130.5l-53 -14
q-17 143 -150 143q-68 0 -114 -41.5t-68 -103t-22 -119.5q0 -89 43 -138.5t112 -49.5q60 0 106.5 37.5t63.5 105.5l54 -15q-21 -81 -81 -129.5t-147 -48.5z" />
    <glyph glyph-name="egrave" unicode="&#xe8;" horiz-adv-x="526" 
d="M136.5 13.5q-48.5 28.5 -76 81.5t-27.5 125t27.5 145t87.5 122.5t151 49.5q102 0 148 -59t46 -155q0 -30 -5 -70h-395q-1 -10 -1 -30q0 -89 44 -138.5t115 -49.5q61 0 107 38t63 106l54 -15q-22 -81 -81.5 -130t-146.5 -49q-62 0 -110.5 28.5zM436 300q2 22 2 32
q0 71 -34.5 113t-107.5 42q-78 0 -127 -54t-68 -133h335zM255 767h67l37 -132h-39z" />
    <glyph glyph-name="eacute" unicode="&#xe9;" horiz-adv-x="526" 
d="M136.5 13.5q-48.5 28.5 -76 81.5t-27.5 125t27.5 145t87.5 122.5t151 49.5q102 0 148 -59t46 -155q0 -30 -5 -70h-395q-1 -10 -1 -30q0 -89 44 -138.5t115 -49.5q61 0 107 38t63 106l54 -15q-22 -81 -81.5 -130t-146.5 -49q-62 0 -110.5 28.5zM436 300q2 22 2 32
q0 71 -34.5 113t-107.5 42q-78 0 -127 -54t-68 -133h335zM302 635l83 132h68l-112 -132h-39z" />
    <glyph glyph-name="ecircumflex" unicode="&#xea;" horiz-adv-x="526" 
d="M136.5 13.5q-48.5 28.5 -76 81.5t-27.5 125t27.5 145t87.5 122.5t151 49.5q102 0 148 -59t46 -155q0 -30 -5 -70h-395q-1 -10 -1 -30q0 -89 44 -138.5t115 -49.5q61 0 107 38t63 106l54 -15q-22 -81 -81.5 -130t-146.5 -49q-62 0 -110.5 28.5zM436 300q2 22 2 32
q0 71 -34.5 113t-107.5 42q-78 0 -127 -54t-68 -133h335zM334 757h56l75 -132h-44l-67 88l-98 -88h-44z" />
    <glyph glyph-name="edieresis" unicode="&#xeb;" horiz-adv-x="526" 
d="M136.5 13.5q-48.5 28.5 -76 81.5t-27.5 125t27.5 145t87.5 122.5t151 49.5q102 0 148 -59t46 -155q0 -30 -5 -70h-395q-1 -10 -1 -30q0 -89 44 -138.5t115 -49.5q61 0 107 38t63 106l54 -15q-22 -81 -81.5 -130t-146.5 -49q-62 0 -110.5 28.5zM436 300q2 22 2 32
q0 71 -34.5 113t-107.5 42q-78 0 -127 -54t-68 -133h335zM231.5 643q-8.5 8 -8.5 22q0 21 13.5 34.5t33.5 13.5q17 0 26 -11t6 -28q-4 -18 -16.5 -28.5t-29.5 -10.5q-16 0 -24.5 8zM405.5 699.5q13.5 13.5 33.5 13.5q17 0 26 -11t6 -28q-4 -18 -16.5 -28.5t-29.5 -10.5
q-16 0 -24.5 8t-8.5 22q0 21 13.5 34.5z" />
    <glyph glyph-name="igrave" unicode="&#xec;" horiz-adv-x="198" 
d="M72 262l44 261h58l-47 -261l-45 -262h-58zM79 767h67l37 -132h-39z" />
    <glyph glyph-name="iacute" unicode="&#xed;" horiz-adv-x="198" 
d="M72 262l44 261h58l-47 -261l-45 -262h-58zM126 635l83 132h68l-112 -132h-39z" />
    <glyph glyph-name="icircumflex" unicode="&#xee;" horiz-adv-x="198" 
d="M72 262l44 261h58l-47 -261l-45 -262h-58zM158 757h56l75 -132h-44l-67 88l-98 -88h-44z" />
    <glyph glyph-name="idieresis" unicode="&#xef;" horiz-adv-x="198" 
d="M72 262l44 261h58l-47 -261l-45 -262h-58zM55.5 643q-8.5 8 -8.5 22q0 21 13.5 34.5t33.5 13.5q17 0 26 -11t6 -28q-4 -18 -16.5 -28.5t-29.5 -10.5q-16 0 -24.5 8zM229.5 699.5q13.5 13.5 33.5 13.5q17 0 26 -11t6 -28q-4 -18 -16.5 -28.5t-29.5 -10.5q-16 0 -24.5 8
t-8.5 22q0 21 13.5 34.5z" />
    <glyph glyph-name="eth" unicode="&#xf0;" horiz-adv-x="570" 
d="M83 42q-58 57 -58 151q0 53 28.5 115.5t91.5 108t162 45.5q68 0 116 -26.5t68 -74.5q2 22 2 34q0 61 -28.5 116.5t-93.5 92.5l-90 -77l-26 32l76 64q-59 23 -140 32l16 53q102 -10 172 -44l99 84l28 -30l-89 -75q129 -84 129 -267q0 -102 -28.5 -190t-96.5 -144.5
t-179 -56.5q-101 0 -159 57zM131 79q44 -40 120 -40q75 0 124 35t71.5 87t22.5 105q0 71 -46 108.5t-113 37.5q-79 0 -129 -34t-72 -83.5t-22 -97.5q0 -78 44 -118z" />
    <glyph glyph-name="ntilde" unicode="&#xf1;" horiz-adv-x="572" 
d="M70 252l46 271h58l-19 -97h2q30 50 81 80.5t117 30.5q78 0 119 -42t41 -123q0 -32 -6 -68l-9 -52l-42 -252h-58l45 252l9 51q6 33 6 60q0 65 -30.5 94t-88.5 29q-48 0 -92 -24.5t-75.5 -69.5t-42.5 -103l-6 -37l-43 -252h-58zM270.5 704q21.5 27 56.5 27q20 0 35 -7.5
t36 -21.5q2 -2 11.5 -8t17 -9t14.5 -3q18 0 27 12.5t14 36.5h44q-8 -41 -29 -68t-57 -27q-20 0 -36 7.5t-36 21.5q-27 20 -43 20q-18 0 -27 -12.5t-13 -36.5h-45q9 41 30.5 68z" />
    <glyph glyph-name="ograve" unicode="&#xf2;" horiz-adv-x="556" 
d="M135 13q-49 28 -76 81t-27 126q0 72 28 145t90.5 122.5t158.5 49.5q63 0 112 -28t76 -81t27 -125q0 -73 -28 -146t-90.5 -122.5t-158.5 -49.5q-63 0 -112 28zM135 84q44 -49 116 -49t120.5 42t71 103t22.5 120q0 89 -44 138t-116 49t-120.5 -41.5t-71 -102.5t-22.5 -120
q0 -90 44 -139zM259 767h67l37 -132h-39z" />
    <glyph glyph-name="oacute" unicode="&#xf3;" horiz-adv-x="556" 
d="M135 13q-49 28 -76 81t-27 126q0 72 28 145t90.5 122.5t158.5 49.5q63 0 112 -28t76 -81t27 -125q0 -73 -28 -146t-90.5 -122.5t-158.5 -49.5q-63 0 -112 28zM135 84q44 -49 116 -49t120.5 42t71 103t22.5 120q0 89 -44 138t-116 49t-120.5 -41.5t-71 -102.5t-22.5 -120
q0 -90 44 -139zM305 635l83 132h68l-112 -132h-39z" />
    <glyph glyph-name="ocircumflex" unicode="&#xf4;" horiz-adv-x="556" 
d="M135 13q-49 28 -76 81t-27 126q0 72 28 145t90.5 122.5t158.5 49.5q63 0 112 -28t76 -81t27 -125q0 -73 -28 -146t-90.5 -122.5t-158.5 -49.5q-63 0 -112 28zM135 84q44 -49 116 -49t120.5 42t71 103t22.5 120q0 89 -44 138t-116 49t-120.5 -41.5t-71 -102.5t-22.5 -120
q0 -90 44 -139zM338 757h56l75 -132h-44l-67 88l-98 -88h-44z" />
    <glyph glyph-name="otilde" unicode="&#xf5;" horiz-adv-x="556" 
d="M135 13q-49 28 -76 81t-27 126q0 72 28 145t90.5 122.5t158.5 49.5q63 0 112 -28t76 -81t27 -125q0 -73 -28 -146t-90.5 -122.5t-158.5 -49.5q-63 0 -112 28zM135 84q44 -49 116 -49t120.5 42t71 103t22.5 120q0 89 -44 138t-116 49t-120.5 -41.5t-71 -102.5t-22.5 -120
q0 -90 44 -139zM239.5 704q21.5 27 56.5 27q20 0 35 -7.5t36 -21.5q2 -2 11.5 -8t17 -9t14.5 -3q18 0 27 12.5t14 36.5h44q-8 -41 -29 -68t-57 -27q-20 0 -36 7.5t-36 21.5q-27 20 -43 20q-18 0 -27 -12.5t-13 -36.5h-45q9 41 30.5 68z" />
    <glyph glyph-name="odieresis" unicode="&#xf6;" horiz-adv-x="556" 
d="M135 13q-49 28 -76 81t-27 126q0 72 28 145t90.5 122.5t158.5 49.5q63 0 112 -28t76 -81t27 -125q0 -73 -28 -146t-90.5 -122.5t-158.5 -49.5q-63 0 -112 28zM135 84q44 -49 116 -49t120.5 42t71 103t22.5 120q0 89 -44 138t-116 49t-120.5 -41.5t-71 -102.5t-22.5 -120
q0 -90 44 -139zM235.5 643q-8.5 8 -8.5 22q0 21 13.5 34.5t33.5 13.5q17 0 26 -11t6 -28q-4 -18 -16.5 -28.5t-29.5 -10.5q-16 0 -24.5 8zM409.5 699.5q13.5 13.5 33.5 13.5q17 0 26 -11t6 -28q-4 -18 -16.5 -28.5t-29.5 -10.5q-16 0 -24.5 8t-8.5 22q0 21 13.5 34.5z" />
    <glyph glyph-name="divide" unicode="&#xf7;" horiz-adv-x="433" 
d="M65 345l167 -2l166 2l-9 -49l-165 2l-168 -2zM172.5 212q14.5 14 38.5 14q17 0 27 -8.5t10 -24.5q0 -24 -14.5 -38.5t-37.5 -14.5q-38 0 -38 34q0 24 14.5 38zM221.5 486.5q14.5 14.5 38.5 14.5q17 0 27 -8.5t10 -24.5q0 -24 -14.5 -38.5t-38.5 -14.5q-17 0 -27 8.5
t-10 24.5q0 24 14.5 38.5z" />
    <glyph glyph-name="oslash" unicode="&#xf8;" horiz-adv-x="556" 
d="M162.5 0q-38.5 15 -67.5 44l-55 -58l-28 25l60 62q-40 58 -40 147q0 72 28 145t90.5 122.5t158.5 49.5q46 0 84.5 -15t67.5 -44l55 58l29 -24l-60 -63q39 -59 39 -146q0 -73 -28 -146t-90.5 -122.5t-158.5 -49.5q-46 0 -84.5 15zM113 116l309 322q-44 49 -117 49
q-72 0 -120.5 -41.5t-71 -102.5t-22.5 -120q0 -61 22 -107zM251 35q72 0 120.5 42t71 103t22.5 120q0 60 -22 106l-309 -322q44 -49 117 -49z" />
    <glyph glyph-name="ugrave" unicode="&#xf9;" horiz-adv-x="562" 
d="M492 272l-46 -272h-58l19 97h-2q-31 -50 -80 -80.5t-104 -30.5q-80 0 -122 42.5t-42 124.5q0 31 6 67l9 52l42 251h58l-45 -251l-9 -52q-6 -33 -6 -60q0 -65 32 -94t93 -29q39 0 80 25t72 69t41 98l7 43l43 251h58zM264 767h67l37 -132h-39z" />
    <glyph glyph-name="uacute" unicode="&#xfa;" horiz-adv-x="562" 
d="M492 272l-46 -272h-58l19 97h-2q-31 -50 -80 -80.5t-104 -30.5q-80 0 -122 42.5t-42 124.5q0 31 6 67l9 52l42 251h58l-45 -251l-9 -52q-6 -33 -6 -60q0 -65 32 -94t93 -29q39 0 80 25t72 69t41 98l7 43l43 251h58zM311 635l83 132h68l-112 -132h-39z" />
    <glyph glyph-name="ucircumflex" unicode="&#xfb;" horiz-adv-x="562" 
d="M492 272l-46 -272h-58l19 97h-2q-31 -50 -80 -80.5t-104 -30.5q-80 0 -122 42.5t-42 124.5q0 31 6 67l9 52l42 251h58l-45 -251l-9 -52q-6 -33 -6 -60q0 -65 32 -94t93 -29q39 0 80 25t72 69t41 98l7 43l43 251h58zM343 757h56l75 -132h-44l-67 88l-98 -88h-44z" />
    <glyph glyph-name="udieresis" unicode="&#xfc;" horiz-adv-x="562" 
d="M492 272l-46 -272h-58l19 97h-2q-31 -50 -80 -80.5t-104 -30.5q-80 0 -122 42.5t-42 124.5q0 31 6 67l9 52l42 251h58l-45 -251l-9 -52q-6 -33 -6 -60q0 -65 32 -94t93 -29q39 0 80 25t72 69t41 98l7 43l43 251h58zM240.5 643q-8.5 8 -8.5 22q0 21 13.5 34.5t33.5 13.5
q17 0 26 -11t6 -28q-4 -18 -16.5 -28.5t-29.5 -10.5q-16 0 -24.5 8zM414.5 699.5q13.5 13.5 33.5 13.5q17 0 26 -11t6 -28q-4 -18 -16.5 -28.5t-29.5 -10.5q-16 0 -24.5 8t-8.5 22q0 21 13.5 34.5z" />
    <glyph glyph-name="yacute" unicode="&#xfd;" horiz-adv-x="493" 
d="M-27 -162l18 46q29 -6 55 -6q35 0 62.5 27t68.5 99l-123 519h58l102 -444h2l253 444h62l-320 -556q-45 -80 -86.5 -109.5t-83.5 -29.5q-38 0 -68 10zM274 635l83 132h68l-112 -132h-39z" />
    <glyph glyph-name="thorn" unicode="&#xfe;" horiz-adv-x="573" 
d="M74 266l72 428h59l-49 -274h2q25 50 78 83.5t122 33.5q90 0 137.5 -57.5t47.5 -157.5q0 -79 -29 -156.5t-89 -129t-149 -51.5q-72 0 -117.5 35.5t-56.5 83.5h-2l-46 -264h-59zM164.5 75.5q43.5 -40.5 104.5 -40.5q74 0 123 47t71 112.5t22 122.5q0 83 -36.5 127
t-109.5 44q-75 0 -124 -49t-71.5 -116t-22.5 -122q0 -85 43.5 -125.5z" />
    <glyph glyph-name="ydieresis" unicode="&#xff;" horiz-adv-x="493" 
d="M-27 -162l18 46q29 -6 55 -6q35 0 62.5 27t68.5 99l-123 519h58l102 -444h2l253 444h62l-320 -556q-45 -80 -86.5 -109.5t-83.5 -29.5q-38 0 -68 10zM203.5 643q-8.5 8 -8.5 22q0 21 13.5 34.5t33.5 13.5q17 0 26 -11t6 -28q-4 -18 -16.5 -28.5t-29.5 -10.5
q-16 0 -24.5 8zM377.5 699.5q13.5 13.5 33.5 13.5q17 0 26 -11t6 -28q-4 -18 -16.5 -28.5t-29.5 -10.5q-16 0 -24.5 8t-8.5 22q0 21 13.5 34.5z" />
    <glyph glyph-name="Amacron" unicode="&#x100;" horiz-adv-x="636" 
d="M168 347l195 346h60l74 -346l81 -347h-64l-40 202l-167 2l-160 -2l-111 -202h-70zM315 252l148 2l-18 92l-63 274h-2l-153 -273l-51 -94zM268 808h294l-8 -44h-294z" />
    <glyph glyph-name="amacron" unicode="&#x101;" horiz-adv-x="572" 
d="M77.5 42q-48.5 57 -48.5 156q0 80 29 158t89.5 129.5t149.5 51.5q48 0 85.5 -18.5t59.5 -45.5t29 -53h2l17 103h58l-47 -261l-45 -262h-58l19 103h-2q-26 -49 -77 -83.5t-118 -34.5q-94 0 -142.5 57zM124.5 79q36.5 -44 108.5 -44q73 0 122.5 49.5t72.5 117.5t23 123
q0 82 -43.5 122.5t-107.5 40.5q-73 0 -121 -46.5t-69.5 -112t-21.5 -123.5q0 -83 36.5 -127zM236 685h254l-8 -44h-254z" />
    <glyph glyph-name="Abreve" unicode="&#x102;" horiz-adv-x="636" 
d="M168 347l195 346h60l74 -346l81 -347h-64l-40 202l-167 2l-160 -2l-111 -202h-70zM315 252l148 2l-18 92l-63 274h-2l-153 -273l-51 -94zM334.5 780.5q-24.5 21.5 -24.5 61.5q0 14 3 29h40q-1 -6 -1 -17q0 -25 14 -36.5t47 -11.5q40 0 59.5 15.5t26.5 49.5h40
q-9 -54 -43.5 -83t-90.5 -29q-46 0 -70.5 21.5z" />
    <glyph glyph-name="abreve" unicode="&#x103;" horiz-adv-x="572" 
d="M77.5 42q-48.5 57 -48.5 156q0 80 29 158t89.5 129.5t149.5 51.5q48 0 85.5 -18.5t59.5 -45.5t29 -53h2l17 103h58l-47 -261l-45 -262h-58l19 103h-2q-26 -49 -77 -83.5t-118 -34.5q-94 0 -142.5 57zM124.5 79q36.5 -44 108.5 -44q73 0 122.5 49.5t72.5 117.5t23 123
q0 82 -43.5 122.5t-107.5 40.5q-73 0 -121 -46.5t-69.5 -112t-21.5 -123.5q0 -83 36.5 -127zM282 648.5q-24 22.5 -24 67.5q0 9 4 37h40q-2 -18 -2 -26q0 -28 14 -41t46 -13q39 0 59 18.5t29 61.5h40q-10 -63 -45 -95t-91 -32q-46 0 -70 22.5z" />
    <glyph glyph-name="Aogonek" unicode="&#x104;" horiz-adv-x="636" 
d="M168 347l195 346h60l74 -346l81 -347q-42 -21 -70.5 -50t-28.5 -54q0 -26 36 -26q19 0 37 5l3 -36q-28 -14 -63 -14q-30 0 -48 13t-18 38q0 64 107 124h-19l-40 202l-167 2l-160 -2l-111 -202h-70zM315 252l148 2l-18 92l-63 274h-2l-153 -273l-51 -94z" />
    <glyph glyph-name="aogonek" unicode="&#x105;" horiz-adv-x="572" 
d="M77.5 42q-48.5 57 -48.5 156q0 80 29 158t89.5 129.5t149.5 51.5q48 0 85.5 -18.5t59.5 -45.5t29 -53h2l17 103h58l-47 -261l-45 -262q-42 -21 -70.5 -50t-28.5 -54q0 -26 36 -26q19 0 37 5l3 -36q-28 -14 -63 -14q-30 0 -48 13t-18 38q0 64 107 124h-13l19 103h-2
q-26 -49 -77 -83.5t-118 -34.5q-94 0 -142.5 57zM124.5 79q36.5 -44 108.5 -44q73 0 122.5 49.5t72.5 117.5t23 123q0 82 -43.5 122.5t-107.5 40.5q-73 0 -121 -46.5t-69.5 -112t-21.5 -123.5q0 -83 36.5 -127z" />
    <glyph glyph-name="Cacute" unicode="&#x106;" horiz-adv-x="652" 
d="M178.5 22.5q-63.5 37.5 -96.5 105.5t-33 158q0 123 44 219t124 149.5t183 53.5q118 0 183.5 -64.5t76.5 -173.5l-57 -14q-20 198 -204 198q-85 0 -151 -47t-102 -130.5t-36 -190.5q0 -114 59 -180.5t161 -66.5q85 0 149 54t88 145l54 -15q-20 -72 -63.5 -125.5t-102 -83
t-125.5 -29.5q-88 0 -151.5 37.5zM393 762l75 107h71l-107 -107h-39z" />
    <glyph glyph-name="cacute" unicode="&#x107;" horiz-adv-x="493" 
d="M133.5 13q-47.5 28 -74.5 81.5t-27 125.5t27.5 145t88 122.5t151.5 49.5q88 0 139.5 -48.5t59.5 -130.5l-53 -14q-17 143 -150 143q-68 0 -114 -41.5t-68 -103t-22 -119.5q0 -89 43 -138.5t112 -49.5q60 0 106.5 37.5t63.5 105.5l54 -15q-21 -81 -81 -129.5t-147 -48.5
q-61 0 -108.5 28zM301 635l83 132h68l-112 -132h-39z" />
    <glyph glyph-name="Ccircumflex" unicode="&#x108;" horiz-adv-x="652" 
d="M178.5 22.5q-63.5 37.5 -96.5 105.5t-33 158q0 123 44 219t124 149.5t183 53.5q118 0 183.5 -64.5t76.5 -173.5l-57 -14q-20 198 -204 198q-85 0 -151 -47t-102 -130.5t-36 -190.5q0 -114 59 -180.5t161 -66.5q85 0 149 54t88 145l54 -15q-20 -72 -63.5 -125.5t-102 -83
t-125.5 -29.5q-88 0 -151.5 37.5zM423 869h55l80 -107h-49l-66 65l-88 -65h-49z" />
    <glyph glyph-name="ccircumflex" unicode="&#x109;" horiz-adv-x="493" 
d="M133.5 13q-47.5 28 -74.5 81.5t-27 125.5t27.5 145t88 122.5t151.5 49.5q88 0 139.5 -48.5t59.5 -130.5l-53 -14q-17 143 -150 143q-68 0 -114 -41.5t-68 -103t-22 -119.5q0 -89 43 -138.5t112 -49.5q60 0 106.5 37.5t63.5 105.5l54 -15q-21 -81 -81 -129.5t-147 -48.5
q-61 0 -108.5 28zM333 757h56l75 -132h-44l-67 88l-98 -88h-44z" />
    <glyph glyph-name="Cdotaccent" unicode="&#x10a;" horiz-adv-x="652" 
d="M178.5 22.5q-63.5 37.5 -96.5 105.5t-33 158q0 123 44 219t124 149.5t183 53.5q118 0 183.5 -64.5t76.5 -173.5l-57 -14q-20 198 -204 198q-85 0 -151 -47t-102 -130.5t-36 -190.5q0 -114 59 -180.5t161 -66.5q85 0 149 54t88 145l54 -15q-20 -72 -63.5 -125.5t-102 -83
t-125.5 -29.5q-88 0 -151.5 37.5zM406.5 767q-8.5 8 -8.5 22q0 23 13 36.5t34 13.5q16 0 25.5 -8.5t9.5 -23.5q0 -21 -14 -34.5t-35 -13.5q-16 0 -24.5 8z" />
    <glyph glyph-name="cdotaccent" unicode="&#x10b;" horiz-adv-x="493" 
d="M133.5 13q-47.5 28 -74.5 81.5t-27 125.5t27.5 145t88 122.5t151.5 49.5q88 0 139.5 -48.5t59.5 -130.5l-53 -14q-17 143 -150 143q-68 0 -114 -41.5t-68 -103t-22 -119.5q0 -89 43 -138.5t112 -49.5q60 0 106.5 37.5t63.5 105.5l54 -15q-21 -81 -81 -129.5t-147 -48.5
q-61 0 -108.5 28zM314.5 643q-8.5 8 -8.5 22q0 22 14 36t34 14q16 0 25 -8.5t9 -23.5q0 -22 -14 -35t-35 -13q-16 0 -24.5 8z" />
    <glyph glyph-name="Ccaron" unicode="&#x10c;" horiz-adv-x="652" 
d="M178.5 22.5q-63.5 37.5 -96.5 105.5t-33 158q0 123 44 219t124 149.5t183 53.5q118 0 183.5 -64.5t76.5 -173.5l-57 -14q-20 198 -204 198q-85 0 -151 -47t-102 -130.5t-36 -190.5q0 -114 59 -180.5t161 -66.5q85 0 149 54t88 145l54 -15q-20 -72 -63.5 -125.5t-102 -83
t-125.5 -29.5q-88 0 -151.5 37.5zM373 869l66 -65l89 65h49l-117 -107h-56l-80 107h49z" />
    <glyph glyph-name="ccaron" unicode="&#x10d;" horiz-adv-x="493" 
d="M133.5 13q-47.5 28 -74.5 81.5t-27 125.5t27.5 145t88 122.5t151.5 49.5q88 0 139.5 -48.5t59.5 -130.5l-53 -14q-17 143 -150 143q-68 0 -114 -41.5t-68 -103t-22 -119.5q0 -89 43 -138.5t112 -49.5q60 0 106.5 37.5t63.5 105.5l54 -15q-21 -81 -81 -129.5t-147 -48.5
q-61 0 -108.5 28zM279 760l67 -88l98 88h44l-122 -132h-56l-75 132h44z" />
    <glyph glyph-name="Dcaron" unicode="&#x10e;" horiz-adv-x="661" 
d="M93 347l59 346h184q310 0 310 -269q0 -99 -38.5 -195t-132 -162.5t-249.5 -66.5h-196zM227 54q127 0 206.5 53.5t114.5 136t35 172.5q0 114 -59.5 168.5t-186.5 54.5h-132l-55 -292l-48 -293h125zM295 869l66 -65l89 65h49l-117 -107h-56l-80 107h49z" />
    <glyph glyph-name="dcaron" unicode="&#x10f;" horiz-adv-x="609" 
d="M77.5 42q-48.5 57 -48.5 156q0 80 29 158t89.5 129.5t148.5 51.5q49 0 86.5 -18.5t59.5 -45.5t29 -53h2l47 274h58l-74 -412l-48 -282h-58l19 103h-2q-26 -49 -77 -83.5t-118 -34.5q-94 0 -142.5 57zM124.5 79q36.5 -44 109.5 -44q74 0 123.5 48t72 114.5t22.5 122.5
q0 86 -44 127t-108 41q-73 0 -120.5 -46.5t-69.5 -112.5t-22 -123q0 -83 36.5 -127zM646 693h52l-44 -214h-40z" />
    <glyph glyph-name="Dcroat" unicode="&#x110;" horiz-adv-x="661" 
d="M89 326l-81 -1l9 47l80 -1l55 322h184q310 0 310 -269q0 -99 -38.5 -195t-132 -162.5t-249.5 -66.5h-196zM227 54q127 0 206.5 53.5t114.5 136t35 172.5q0 114 -59.5 168.5t-186.5 54.5h-132l-51 -269l131 2l-9 -47l-129 1l-45 -272h125z" />
    <glyph glyph-name="dcroat" unicode="&#x111;" horiz-adv-x="572" 
d="M77.5 42q-48.5 57 -48.5 156q0 80 29 158t89.5 129.5t148.5 51.5q49 0 86.5 -18.5t59.5 -45.5t29 -53h2l29 169h-1l-133 -1l9 47l131 -2h2l10 61h58l-11 -60l78 1l-9 -47l-77 1l-55 -307l-48 -282h-58l19 103h-2q-26 -49 -77 -83.5t-118 -34.5q-94 0 -142.5 57zM124.5 79
q36.5 -44 109.5 -44q74 0 123.5 48t72 114.5t22.5 122.5q0 86 -44 127t-108 41q-73 0 -120.5 -46.5t-69.5 -112.5t-22 -123q0 -83 36.5 -127z" />
    <glyph glyph-name="Emacron" unicode="&#x112;" horiz-adv-x="575" 
d="M93 347l59 346h459l-9 -54h-399l-47 -259h378l-9 -54h-378l-47 -272h408l-9 -54h-469zM265 808h294l-8 -44h-294z" />
    <glyph glyph-name="emacron" unicode="&#x113;" horiz-adv-x="526" 
d="M136.5 13.5q-48.5 28.5 -76 81.5t-27.5 125t27.5 145t87.5 122.5t151 49.5q102 0 148 -59t46 -155q0 -30 -5 -70h-395q-1 -10 -1 -30q0 -89 44 -138.5t115 -49.5q61 0 107 38t63 106l54 -15q-22 -81 -81.5 -130t-146.5 -49q-62 0 -110.5 28.5zM436 300q2 22 2 32
q0 71 -34.5 113t-107.5 42q-78 0 -127 -54t-68 -133h335zM223 685h254l-8 -44h-254z" />
    <glyph glyph-name="Ebreve" unicode="&#x114;" horiz-adv-x="575" 
d="M93 347l59 346h459l-9 -54h-399l-47 -259h378l-9 -54h-378l-47 -272h408l-9 -54h-469zM331.5 780.5q-24.5 21.5 -24.5 61.5q0 14 3 29h40q-1 -6 -1 -17q0 -25 14 -36.5t47 -11.5q40 0 59.5 15.5t26.5 49.5h40q-9 -54 -43.5 -83t-90.5 -29q-46 0 -70.5 21.5z" />
    <glyph glyph-name="ebreve" unicode="&#x115;" horiz-adv-x="526" 
d="M136.5 13.5q-48.5 28.5 -76 81.5t-27.5 125t27.5 145t87.5 122.5t151 49.5q102 0 148 -59t46 -155q0 -30 -5 -70h-395q-1 -10 -1 -30q0 -89 44 -138.5t115 -49.5q61 0 107 38t63 106l54 -15q-22 -81 -81.5 -130t-146.5 -49q-62 0 -110.5 28.5zM436 300q2 22 2 32
q0 71 -34.5 113t-107.5 42q-78 0 -127 -54t-68 -133h335zM268 648.5q-24 22.5 -24 67.5q0 9 4 37h40q-2 -18 -2 -26q0 -28 14 -41t46 -13q39 0 59 18.5t29 61.5h40q-10 -63 -45 -95t-91 -32q-46 0 -70 22.5z" />
    <glyph glyph-name="Edotaccent" unicode="&#x116;" horiz-adv-x="575" 
d="M93 347l59 346h459l-9 -54h-399l-47 -259h378l-9 -54h-378l-47 -272h408l-9 -54h-469zM378.5 767q-8.5 8 -8.5 22q0 23 13 36.5t34 13.5q16 0 25.5 -8.5t9.5 -23.5q0 -21 -14 -34.5t-35 -13.5q-16 0 -24.5 8z" />
    <glyph glyph-name="edotaccent" unicode="&#x117;" horiz-adv-x="526" 
d="M136.5 13.5q-48.5 28.5 -76 81.5t-27.5 125t27.5 145t87.5 122.5t151 49.5q102 0 148 -59t46 -155q0 -30 -5 -70h-395q-1 -10 -1 -30q0 -89 44 -138.5t115 -49.5q61 0 107 38t63 106l54 -15q-22 -81 -81.5 -130t-146.5 -49q-62 0 -110.5 28.5zM436 300q2 22 2 32
q0 71 -34.5 113t-107.5 42q-78 0 -127 -54t-68 -133h335zM315.5 643q-8.5 8 -8.5 22q0 22 14 36t34 14q16 0 25 -8.5t9 -23.5q0 -22 -14 -35t-35 -13q-16 0 -24.5 8z" />
    <glyph glyph-name="Eogonek" unicode="&#x118;" horiz-adv-x="575" 
d="M93 347l59 346h459l-9 -54h-399l-47 -259h378l-9 -54h-378l-47 -272h408l-9 -54q-42 -21 -70.5 -50t-28.5 -54q0 -26 36 -26q19 0 37 5l3 -36q-28 -14 -63 -14q-30 0 -48 13t-18 38q0 64 107 124h-424z" />
    <glyph glyph-name="eogonek" unicode="&#x119;" horiz-adv-x="526" 
d="M136.5 13.5q-48.5 28.5 -76 81.5t-27.5 125t27.5 145t87.5 122.5t151 49.5q102 0 148 -59t46 -155q0 -30 -5 -70h-395q-1 -10 -1 -30q0 -89 44 -138.5t115 -49.5q61 0 107 38t63 106l54 -15q-17 -63 -58.5 -108t-101.5 -62q-27 -20 -44 -41.5t-17 -39.5q0 -26 36 -26
q19 0 37 5l3 -36q-28 -14 -63 -14q-30 0 -48 13t-18 38q0 47 58 92h-12q-62 0 -110.5 28.5zM436 300q2 22 2 32q0 71 -34.5 113t-107.5 42q-78 0 -127 -54t-68 -133h335z" />
    <glyph glyph-name="Ecaron" unicode="&#x11a;" horiz-adv-x="575" 
d="M93 347l59 346h459l-9 -54h-399l-47 -259h378l-9 -54h-378l-47 -272h408l-9 -54h-469zM345 869l66 -65l89 65h49l-117 -107h-56l-80 107h49z" />
    <glyph glyph-name="ecaron" unicode="&#x11b;" horiz-adv-x="526" 
d="M136.5 13.5q-48.5 28.5 -76 81.5t-27.5 125t27.5 145t87.5 122.5t151 49.5q102 0 148 -59t46 -155q0 -30 -5 -70h-395q-1 -10 -1 -30q0 -89 44 -138.5t115 -49.5q61 0 107 38t63 106l54 -15q-22 -81 -81.5 -130t-146.5 -49q-62 0 -110.5 28.5zM436 300q2 22 2 32
q0 71 -34.5 113t-107.5 42q-78 0 -127 -54t-68 -133h335zM280 760l67 -88l98 88h44l-122 -132h-56l-75 132h44z" />
    <glyph glyph-name="Gcircumflex" unicode="&#x11c;" horiz-adv-x="671" 
d="M177 22.5q-62 37.5 -95 106t-33 158.5q0 122 44 218t124 149.5t183 53.5q117 0 183 -64t76 -169l-57 -15q-9 90 -57.5 142t-145.5 52q-85 0 -151 -47t-102 -130.5t-36 -190.5q0 -114 59 -180.5t161 -66.5q97 0 160.5 62.5t86.5 194.5l-252 -2l9 54h307l-32 -171l-23 -178
h-47l12 106q-34 -57 -95.5 -88.5t-131.5 -31.5q-85 0 -147 37.5zM419 869h55l80 -107h-49l-66 65l-88 -65h-49z" />
    <glyph glyph-name="gcircumflex" unicode="&#x11d;" horiz-adv-x="572" 
d="M63.5 -132.5q-47.5 41.5 -57.5 109.5l53 15q8 -55 44 -86.5t102 -31.5q91 0 141.5 56t67.5 161l7 42h-2q-25 -46 -78 -79.5t-116 -33.5q-87 0 -140 54.5t-53 151.5q0 65 27 137t87.5 123t153.5 51q72 0 115.5 -35t54.5 -82h2l18 103h58l-74 -422q-18 -104 -54.5 -164.5
t-90 -85.5t-128.5 -25q-90 0 -137.5 41.5zM130 112.5q38 -42.5 108 -42.5q72 0 120 42.5t71 102t23 111.5q0 71 -39.5 116.5t-111.5 45.5q-74 0 -121 -42t-67.5 -100t-20.5 -107q0 -84 38 -126.5zM347 757h56l75 -132h-44l-67 88l-98 -88h-44z" />
    <glyph glyph-name="Gbreve" unicode="&#x11e;" horiz-adv-x="671" 
d="M177 22.5q-62 37.5 -95 106t-33 158.5q0 122 44 218t124 149.5t183 53.5q117 0 183 -64t76 -169l-57 -15q-9 90 -57.5 142t-145.5 52q-85 0 -151 -47t-102 -130.5t-36 -190.5q0 -114 59 -180.5t161 -66.5q97 0 160.5 62.5t86.5 194.5l-252 -2l9 54h307l-32 -171l-23 -178
h-47l12 106q-34 -57 -95.5 -88.5t-131.5 -31.5q-85 0 -147 37.5zM355.5 780.5q-24.5 21.5 -24.5 61.5q0 14 3 29h40q-1 -6 -1 -17q0 -25 14 -36.5t47 -11.5q40 0 59.5 15.5t26.5 49.5h40q-9 -54 -43.5 -83t-90.5 -29q-46 0 -70.5 21.5z" />
    <glyph glyph-name="gbreve" unicode="&#x11f;" horiz-adv-x="572" 
d="M63.5 -132.5q-47.5 41.5 -57.5 109.5l53 15q8 -55 44 -86.5t102 -31.5q91 0 141.5 56t67.5 161l7 42h-2q-25 -46 -78 -79.5t-116 -33.5q-87 0 -140 54.5t-53 151.5q0 65 27 137t87.5 123t153.5 51q72 0 115.5 -35t54.5 -82h2l18 103h58l-74 -422q-18 -104 -54.5 -164.5
t-90 -85.5t-128.5 -25q-90 0 -137.5 41.5zM130 112.5q38 -42.5 108 -42.5q72 0 120 42.5t71 102t23 111.5q0 71 -39.5 116.5t-111.5 45.5q-74 0 -121 -42t-67.5 -100t-20.5 -107q0 -84 38 -126.5zM281 648.5q-24 22.5 -24 67.5q0 9 4 37h40q-2 -18 -2 -26q0 -28 14 -41
t46 -13q39 0 59 18.5t29 61.5h40q-10 -63 -45 -95t-91 -32q-46 0 -70 22.5z" />
    <glyph glyph-name="Gdotaccent" unicode="&#x120;" horiz-adv-x="671" 
d="M177 22.5q-62 37.5 -95 106t-33 158.5q0 122 44 218t124 149.5t183 53.5q117 0 183 -64t76 -169l-57 -15q-9 90 -57.5 142t-145.5 52q-85 0 -151 -47t-102 -130.5t-36 -190.5q0 -114 59 -180.5t161 -66.5q97 0 160.5 62.5t86.5 194.5l-252 -2l9 54h307l-32 -171l-23 -178
h-47l12 106q-34 -57 -95.5 -88.5t-131.5 -31.5q-85 0 -147 37.5zM402.5 767q-8.5 8 -8.5 22q0 23 13 36.5t34 13.5q16 0 25.5 -8.5t9.5 -23.5q0 -21 -14 -34.5t-35 -13.5q-16 0 -24.5 8z" />
    <glyph glyph-name="gdotaccent" unicode="&#x121;" horiz-adv-x="572" 
d="M63.5 -132.5q-47.5 41.5 -57.5 109.5l53 15q8 -55 44 -86.5t102 -31.5q91 0 141.5 56t67.5 161l7 42h-2q-25 -46 -78 -79.5t-116 -33.5q-87 0 -140 54.5t-53 151.5q0 65 27 137t87.5 123t153.5 51q72 0 115.5 -35t54.5 -82h2l18 103h58l-74 -422q-18 -104 -54.5 -164.5
t-90 -85.5t-128.5 -25q-90 0 -137.5 41.5zM130 112.5q38 -42.5 108 -42.5q72 0 120 42.5t71 102t23 111.5q0 71 -39.5 116.5t-111.5 45.5q-74 0 -121 -42t-67.5 -100t-20.5 -107q0 -84 38 -126.5zM328.5 643q-8.5 8 -8.5 22q0 22 14 36t34 14q16 0 25 -8.5t9 -23.5
q0 -22 -14 -35t-35 -13q-16 0 -24.5 8z" />
    <glyph glyph-name="uni0122" unicode="&#x122;" horiz-adv-x="671" 
d="M177 22.5q-62 37.5 -95 106t-33 158.5q0 122 44 218t124 149.5t183 53.5q117 0 183 -64t76 -169l-57 -15q-9 90 -57.5 142t-145.5 52q-85 0 -151 -47t-102 -130.5t-36 -190.5q0 -114 59 -180.5t161 -66.5q97 0 160.5 62.5t86.5 194.5l-252 -2l9 54h307l-32 -171l-23 -178
h-47l12 106q-34 -57 -95.5 -88.5t-131.5 -31.5q-85 0 -147 37.5zM262 -133.5q15 10.5 13 23.5q-32 3 -32 25q0 16 13 28t33 12q19 0 28.5 -10.5t6.5 -29.5q-11 -74 -105 -87l-3 23q31 5 46 15.5z" />
    <glyph glyph-name="uni0123" unicode="&#x123;" horiz-adv-x="572" 
d="M63.5 -132.5q-47.5 41.5 -57.5 109.5l53 15q8 -55 44 -86.5t102 -31.5q91 0 141.5 56t67.5 161l7 42h-2q-25 -46 -78 -79.5t-116 -33.5q-87 0 -140 54.5t-53 151.5q0 65 27 137t87.5 123t153.5 51q72 0 115.5 -35t54.5 -82h2l18 103h58l-74 -422q-18 -104 -54.5 -164.5
t-90 -85.5t-128.5 -25q-90 0 -137.5 41.5zM130 112.5q38 -42.5 108 -42.5q72 0 120 42.5t71 102t23 111.5q0 71 -39.5 116.5t-111.5 45.5q-74 0 -121 -42t-67.5 -100t-20.5 -107q0 -84 38 -126.5zM316 670q0 7 1 11q13 81 99 94l3 -23q-54 -10 -56 -50q16 1 25 -5t9 -16
q0 -19 -13 -30.5t-33 -11.5q-35 0 -35 31z" />
    <glyph glyph-name="Hcircumflex" unicode="&#x124;" horiz-adv-x="691" 
d="M566 325h-419l-55 -325h-62l63 347l59 346h62l-57 -314h419l53 314h62l-64 -346l-58 -347h-62zM425 869h55l80 -107h-49l-66 65l-88 -65h-49z" />
    <glyph glyph-name="hcircumflex" unicode="&#x125;" horiz-adv-x="572" 
d="M70 252l76 442h58l-49 -268h2q30 50 81.5 80.5t117.5 30.5q78 0 118.5 -42.5t40.5 -123.5q0 -31 -6 -67l-9 -52l-42 -252h-58l45 252l9 51q6 33 6 60q0 65 -31.5 94t-89.5 29q-47 0 -91 -24.5t-75.5 -69.5t-41.5 -103l-6 -37l-43 -252h-58zM181 849h55l80 -107h-49
l-66 65l-88 -65h-49z" />
    <glyph glyph-name="Hbar" unicode="&#x126;" horiz-adv-x="691" 
d="M566 325h-419l-55 -325h-62l63 347l34 200h-52l9 47h51l17 99h62l-18 -100l204 -1l212 1l17 100h62l-18 -99h49l-9 -47h-49l-37 -200l-58 -347h-62zM576 379l28 168h-416l-31 -168h419z" />
    <glyph glyph-name="hbar" unicode="&#x127;" horiz-adv-x="572" 
d="M70 252l57 329l-85 -1l9 47l83 -1l12 68h58l-13 -69l128 2l-9 -47l-127 1l-28 -155h2q30 50 81.5 80.5t117.5 30.5q78 0 118.5 -42.5t40.5 -123.5q0 -31 -6 -67l-9 -52l-42 -252h-58l45 252l9 51q6 33 6 60q0 65 -31.5 94t-89.5 29q-47 0 -91 -24.5t-75.5 -69.5
t-41.5 -103l-6 -37l-43 -252h-58z" />
    <glyph glyph-name="Itilde" unicode="&#x128;" horiz-adv-x="214" 
d="M93 347l59 346h62l-63 -346l-59 -347h-62zM90.5 828q21.5 27 56.5 27q20 0 35 -8t36 -23q15 -11 24 -16t19 -5q17 0 26 13t15 39h44q-8 -41 -29.5 -68t-57.5 -27q-20 0 -34.5 7.5t-36.5 22.5q-15 11 -24 16t-19 5q-18 0 -26.5 -12.5t-14.5 -38.5h-44q9 41 30.5 68z" />
    <glyph glyph-name="itilde" unicode="&#x129;" horiz-adv-x="198" 
d="M72 262l44 261h58l-47 -261l-45 -262h-58zM60.5 704q21.5 27 56.5 27q20 0 35 -7.5t36 -21.5q2 -2 11.5 -8t17 -9t14.5 -3q18 0 27 12.5t14 36.5h44q-8 -41 -29 -68t-57 -27q-20 0 -36 7.5t-36 21.5q-27 20 -43 20q-18 0 -27 -12.5t-13 -36.5h-45q9 41 30.5 68z" />
    <glyph glyph-name="Imacron" unicode="&#x12a;" horiz-adv-x="214" 
d="M93 347l59 346h62l-63 -346l-59 -347h-62zM57 808h294l-8 -44h-294z" />
    <glyph glyph-name="imacron" unicode="&#x12b;" horiz-adv-x="198" 
d="M72 262l44 261h58l-47 -261l-45 -262h-58zM47 685h254l-8 -44h-254z" />
    <glyph glyph-name="Ibreve" unicode="&#x12c;" horiz-adv-x="214" 
d="M93 347l59 346h62l-63 -346l-59 -347h-62zM122.5 780.5q-24.5 21.5 -24.5 61.5q0 14 3 29h40q-1 -6 -1 -17q0 -25 14 -36.5t47 -11.5q40 0 59.5 15.5t26.5 49.5h40q-9 -54 -43.5 -83t-90.5 -29q-46 0 -70.5 21.5z" />
    <glyph glyph-name="ibreve" unicode="&#x12d;" horiz-adv-x="198" 
d="M72 262l44 261h58l-47 -261l-45 -262h-58zM92 648.5q-24 22.5 -24 67.5q0 9 4 37h40q-2 -18 -2 -26q0 -28 14 -41t46 -13q39 0 59 18.5t29 61.5h40q-10 -63 -45 -95t-91 -32q-46 0 -70 22.5z" />
    <glyph glyph-name="Iogonek" unicode="&#x12e;" horiz-adv-x="214" 
d="M93 347l59 346h62l-63 -346l-59 -347h-6q-42 -21 -70.5 -50t-28.5 -54q0 -26 36 -26q19 0 37 5l3 -36q-28 -14 -63 -14q-30 0 -48 13t-18 38q0 64 107 124h-11z" />
    <glyph glyph-name="iogonek" unicode="&#x12f;" horiz-adv-x="198" 
d="M72 262l44 261h58l-47 -261l-45 -262h-3q-42 -21 -70.5 -50t-28.5 -54q0 -26 36 -26q19 0 37 5l3 -36q-28 -14 -63 -14q-30 0 -48 13t-18 38q0 64 107 124h-10zM146 701q14 14 34 14q16 0 25 -8.5t9 -23.5q0 -22 -14 -35t-35 -13q-16 0 -24.5 8t-8.5 22q0 22 14 36z" />
    <glyph glyph-name="Idotaccent" unicode="&#x130;" horiz-adv-x="214" 
d="M93 347l59 346h62l-63 -346l-59 -347h-62zM170.5 767q-8.5 8 -8.5 22q0 23 13 36.5t34 13.5q16 0 25.5 -8.5t9.5 -23.5q0 -21 -14 -34.5t-35 -13.5q-16 0 -24.5 8z" />
    <glyph glyph-name="dotlessi" unicode="&#x131;" horiz-adv-x="198" 
d="M72 262l44 261h58l-47 -261l-45 -262h-58z" />
    <glyph glyph-name="IJ" unicode="&#x132;" horiz-adv-x="606" 
d="M93 347l59 346h62l-63 -346l-59 -347h-62zM216 -7l16 55q43 -9 79 -9q71 0 109 41t55 135l47 254l37 224h62l-41 -224l-43 -255q-21 -120 -78.5 -174.5t-154.5 -54.5q-51 0 -88 8z" />
    <glyph glyph-name="ij" unicode="&#x133;" horiz-adv-x="198" 
d="M61 205l55 318h58l-56 -315l-36 -208h-1q-17 -89 -53 -127.5t-91 -38.5q-35 0 -75 12l19 45q24 -7 53 -7q36 0 57.5 24t33.5 85l1 7h-2zM139 671.5q13 13.5 35 13.5q39 0 33 -40q-4 -19 -16 -29.5t-31 -10.5q-34 0 -34 29q0 24 13 37.5z" />
    <glyph glyph-name="Jcircumflex" unicode="&#x134;" horiz-adv-x="392" 
d="M2 -7l16 55q43 -9 79 -9q71 0 109 41t55 135l47 254l37 224h62l-41 -224l-43 -255q-21 -120 -78.5 -174.5t-154.5 -54.5q-51 0 -88 8zM377 869h55l80 -107h-49l-66 65l-88 -65h-49z" />
    <glyph glyph-name="jcircumflex" unicode="&#x135;" horiz-adv-x="198" 
d="M-139 -152l19 43q25 -7 54 -7q36 0 57.5 24.5t32.5 84.5l22 127l70 403h58l-73 -403l-20 -114q-17 -93 -53 -132.5t-92 -39.5q-38 0 -75 14zM156 757h56l75 -132h-44l-67 88l-98 -88h-44z" />
    <glyph glyph-name="uni0136" unicode="&#x136;" horiz-adv-x="616" 
d="M93 347l59 346h62l-63 -346l-5 -27l421 373h85l-308 -273l213 -420h-67l-191 380l-168 -148l-39 -232h-62zM229 -133.5q15 10.5 13 23.5q-32 3 -32 25q0 16 13 28t33 12q19 0 28.5 -10.5t6.5 -29.5q-11 -74 -105 -87l-3 23q31 5 46 15.5z" />
    <glyph glyph-name="uni0137" unicode="&#x137;" horiz-adv-x="495" 
d="M88 353l58 341h58l-61 -341l-15 -88l295 258h77l-234 -203l175 -320h-65l-153 281l-109 -94l-32 -187h-58zM164 -133.5q15 10.5 13 23.5q-32 3 -32 25q0 16 13 28t33 12q19 0 28.5 -10.5t6.5 -29.5q-11 -74 -105 -87l-3 23q31 5 46 15.5z" />
    <glyph glyph-name="kgreenlandic" unicode="&#x138;" horiz-adv-x="495" 
d="M88 353l28 170h58l-31 -170l-15 -87l294 257h78l-234 -203l175 -320h-65l-153 281l-109 -94l-32 -187h-58z" />
    <glyph glyph-name="Lacute" unicode="&#x139;" horiz-adv-x="519" 
d="M93 347l59 346h62l-64 -346l-49 -293h360l-10 -54h-421zM160 762l75 107h71l-107 -107h-39z" />
    <glyph glyph-name="lacute" unicode="&#x13a;" horiz-adv-x="198" 
d="M88 353l58 341h58l-61 -341l-61 -353h-58zM143 725l75 107h71l-107 -107h-39z" />
    <glyph glyph-name="uni013B" unicode="&#x13b;" horiz-adv-x="519" 
d="M93 347l59 346h62l-64 -346l-49 -293h360l-10 -54h-421zM177 -133.5q15 10.5 13 23.5q-32 3 -32 25q0 16 13 28t33 12q19 0 28.5 -10.5t6.5 -29.5q-11 -74 -105 -87l-3 23q31 5 46 15.5z" />
    <glyph glyph-name="uni013C" unicode="&#x13c;" horiz-adv-x="198" 
d="M88 353l58 341h58l-61 -341l-61 -353h-58zM22 -133.5q15 10.5 13 23.5q-32 3 -32 25q0 16 13 28t33 12q19 0 28.5 -10.5t6.5 -29.5q-11 -74 -105 -87l-3 23q31 5 46 15.5z" />
    <glyph glyph-name="Lcaron" unicode="&#x13d;" horiz-adv-x="519" 
d="M93 347l59 346h62l-64 -346l-49 -293h360l-10 -54h-421zM475 693h52l-44 -214h-40z" />
    <glyph glyph-name="lcaron" unicode="&#x13e;" horiz-adv-x="240" 
d="M88 353l58 341h58l-61 -341l-61 -353h-58zM276 693h52l-44 -214h-40z" />
    <glyph glyph-name="Ldot" unicode="&#x13f;" horiz-adv-x="519" 
d="M93 347l59 346h62l-64 -346l-49 -293h360l-10 -54h-421zM308.5 327q-10.5 9 -10.5 27q0 24 14.5 38.5t38.5 14.5q19 0 29 -9.5t10 -26.5q0 -19 -13 -36t-39 -17q-19 0 -29.5 9z" />
    <glyph glyph-name="ldot" unicode="&#x140;" horiz-adv-x="228" 
d="M88 353l58 341h58l-61 -341l-61 -353h-58zM204 374q13 13 35 13q17 0 26 -8.5t9 -24.5q0 -17 -11.5 -32t-35.5 -15q-36 0 -36 32q0 22 13 35z" />
    <glyph glyph-name="Lslash" unicode="&#x141;" horiz-adv-x="519" 
d="M85 303l-80 -43l-16 41l105 54l58 338h62l-56 -305l87 47l16 -41l-113 -58l-47 -282h360l-10 -54h-421z" />
    <glyph glyph-name="lslash" unicode="&#x142;" horiz-adv-x="198" 
d="M79 306l-85 -46l-16 41l111 57l57 336h58l-54 -304l84 45l16 -41l-110 -56l-58 -338h-58z" />
    <glyph glyph-name="Nacute" unicode="&#x143;" horiz-adv-x="674" 
d="M93 346l59 347h69l158 -341l127 -259h3l47 265l56 335h62l-63 -346l-59 -347h-69l-148 318l-137 282h-3l-46 -264l-57 -336h-62zM388 762l75 107h71l-107 -107h-39z" />
    <glyph glyph-name="nacute" unicode="&#x144;" horiz-adv-x="572" 
d="M70 252l46 271h58l-19 -97h2q30 50 81 80.5t117 30.5q78 0 119 -42t41 -123q0 -32 -6 -68l-9 -52l-42 -252h-58l45 252l9 51q6 33 6 60q0 65 -30.5 94t-88.5 29q-48 0 -92 -24.5t-75.5 -69.5t-42.5 -103l-6 -37l-43 -252h-58zM336 635l83 132h68l-112 -132h-39z" />
    <glyph glyph-name="uni0145" unicode="&#x145;" horiz-adv-x="674" 
d="M93 346l59 347h69l158 -341l127 -259h3l47 265l56 335h62l-63 -346l-59 -347h-69l-148 318l-137 282h-3l-46 -264l-57 -336h-62zM261 -133.5q15 10.5 13 23.5q-32 3 -32 25q0 16 13 28t33 12q19 0 28.5 -10.5t6.5 -29.5q-11 -74 -105 -87l-3 23q31 5 46 15.5z" />
    <glyph glyph-name="uni0146" unicode="&#x146;" horiz-adv-x="572" 
d="M70 252l46 271h58l-19 -97h2q30 50 81 80.5t117 30.5q78 0 119 -42t41 -123q0 -32 -6 -68l-9 -52l-42 -252h-58l45 252l9 51q6 33 6 60q0 65 -30.5 94t-88.5 29q-48 0 -92 -24.5t-75.5 -69.5t-42.5 -103l-6 -37l-43 -252h-58zM207 -133.5q15 10.5 13 23.5q-32 3 -32 25
q0 16 13 28t33 12q19 0 28.5 -10.5t6.5 -29.5q-11 -74 -105 -87l-3 23q31 5 46 15.5z" />
    <glyph glyph-name="Ncaron" unicode="&#x147;" horiz-adv-x="674" 
d="M93 346l59 347h69l158 -341l127 -259h3l47 265l56 335h62l-63 -346l-59 -347h-69l-148 318l-137 282h-3l-46 -264l-57 -336h-62zM367 869l66 -65l89 65h49l-117 -107h-56l-80 107h49z" />
    <glyph glyph-name="ncaron" unicode="&#x148;" horiz-adv-x="572" 
d="M70 252l46 271h58l-19 -97h2q30 50 81 80.5t117 30.5q78 0 119 -42t41 -123q0 -32 -6 -68l-9 -52l-42 -252h-58l45 252l9 51q6 33 6 60q0 65 -30.5 94t-88.5 29q-48 0 -92 -24.5t-75.5 -69.5t-42.5 -103l-6 -37l-43 -252h-58zM314 760l67 -88l98 88h44l-122 -132h-56
l-75 132h44z" />
    <glyph glyph-name="Eng" unicode="&#x14a;" horiz-adv-x="674" 
d="M285 -167q-31 6 -56 15l22 52q24 -8 51.5 -13.5t48.5 -5.5q104 0 133 119l-150 317l-136 283h-3l-46 -264l-57 -336h-62l63 346l59 347h71l157 -341l126 -259h3l47 265l56 335h62l-63 -346l-51 -301q-19 -113 -76 -166t-143 -53q-25 0 -56 6z" />
    <glyph glyph-name="eng" unicode="&#x14b;" horiz-adv-x="572" 
d="M70 252l46 271h58l-19 -97h2q30 50 81 80.5t117 30.5q78 0 119 -43.5t41 -123.5q0 -31 -6 -66l-9 -52l-40 -240q-16 -92 -53 -135.5t-100 -43.5q-23 0 -48 5.5t-43 14.5l20 43q33 -13 69 -13q41 0 61.5 25t33.5 92l45 252l9 51q6 33 6 59q0 63 -31 93.5t-88 30.5
q-48 0 -92 -24t-75 -66.5t-41 -96.5l-8 -47l-43 -252h-58z" />
    <glyph glyph-name="Omacron" unicode="&#x14c;" horiz-adv-x="710" 
d="M124.5 68q-74.5 83 -74.5 226q0 119 45 213t126 147.5t184 53.5q136 0 211 -83t75 -226q0 -118 -45.5 -212.5t-126.5 -148t-184 -53.5q-136 0 -210.5 83zM170.5 106.5q59.5 -67.5 165.5 -67.5q85 0 151.5 46.5t104 129t37.5 185.5q0 120 -59 187t-165 67
q-85 0 -152 -46.5t-104.5 -128.5t-37.5 -185q0 -120 59.5 -187.5zM305 808h294l-8 -44h-294z" />
    <glyph glyph-name="omacron" unicode="&#x14d;" horiz-adv-x="556" 
d="M135 13q-49 28 -76 81t-27 126q0 72 28 145t90.5 122.5t158.5 49.5q63 0 112 -28t76 -81t27 -125q0 -73 -28 -146t-90.5 -122.5t-158.5 -49.5q-63 0 -112 28zM135 84q44 -49 116 -49t120.5 42t71 103t22.5 120q0 89 -44 138t-116 49t-120.5 -41.5t-71 -102.5t-22.5 -120
q0 -90 44 -139zM226 685h254l-8 -44h-254z" />
    <glyph glyph-name="Obreve" unicode="&#x14e;" horiz-adv-x="710" 
d="M124.5 68q-74.5 83 -74.5 226q0 119 45 213t126 147.5t184 53.5q136 0 211 -83t75 -226q0 -118 -45.5 -212.5t-126.5 -148t-184 -53.5q-136 0 -210.5 83zM170.5 106.5q59.5 -67.5 165.5 -67.5q85 0 151.5 46.5t104 129t37.5 185.5q0 120 -59 187t-165 67
q-85 0 -152 -46.5t-104.5 -128.5t-37.5 -185q0 -120 59.5 -187.5zM371.5 780.5q-24.5 21.5 -24.5 61.5q0 14 3 29h40q-1 -6 -1 -17q0 -25 14 -36.5t47 -11.5q40 0 59.5 15.5t26.5 49.5h40q-9 -54 -43.5 -83t-90.5 -29q-46 0 -70.5 21.5z" />
    <glyph glyph-name="obreve" unicode="&#x14f;" horiz-adv-x="556" 
d="M135 13q-49 28 -76 81t-27 126q0 72 28 145t90.5 122.5t158.5 49.5q63 0 112 -28t76 -81t27 -125q0 -73 -28 -146t-90.5 -122.5t-158.5 -49.5q-63 0 -112 28zM135 84q44 -49 116 -49t120.5 42t71 103t22.5 120q0 89 -44 138t-116 49t-120.5 -41.5t-71 -102.5t-22.5 -120
q0 -90 44 -139zM272 648.5q-24 22.5 -24 67.5q0 9 4 37h40q-2 -18 -2 -26q0 -28 14 -41t46 -13q39 0 59 18.5t29 61.5h40q-10 -63 -45 -95t-91 -32q-46 0 -70 22.5z" />
    <glyph glyph-name="Ohungarumlaut" unicode="&#x150;" horiz-adv-x="710" 
d="M124.5 68q-74.5 83 -74.5 226q0 119 45 213t126 147.5t184 53.5q136 0 211 -83t75 -226q0 -118 -45.5 -212.5t-126.5 -148t-184 -53.5q-136 0 -210.5 83zM170.5 106.5q59.5 -67.5 165.5 -67.5q85 0 151.5 46.5t104 129t37.5 185.5q0 120 -59 187t-165 67
q-85 0 -152 -46.5t-104.5 -128.5t-37.5 -185q0 -120 59.5 -187.5zM556 870h68l-106 -108h-39zM434 870h63l-94 -108h-44z" />
    <glyph glyph-name="ohungarumlaut" unicode="&#x151;" horiz-adv-x="556" 
d="M135 13q-49 28 -76 81t-27 126q0 72 28 145t90.5 122.5t158.5 49.5q63 0 112 -28t76 -81t27 -125q0 -73 -28 -146t-90.5 -122.5t-158.5 -49.5q-63 0 -112 28zM135 84q44 -49 116 -49t120.5 42t71 103t22.5 120q0 89 -44 138t-116 49t-120.5 -41.5t-71 -102.5t-22.5 -120
q0 -90 44 -139zM468 767h61l-111 -132h-39zM346 767h56l-99 -132h-44z" />
    <glyph glyph-name="OE" unicode="&#x152;" horiz-adv-x="1036" 
d="M168.5 22.5q-57.5 37.5 -88.5 105t-31 157.5q0 122 45 218.5t125 150.5t182 54q86 0 147.5 -40.5t79.5 -111.5h1l24 137h419l-10 -54h-358l-47 -259h337l-9 -53h-337l-47 -273h368l-10 -54h-428l24 137h-1q-43 -79 -108.5 -115.5t-141.5 -36.5q-78 0 -135.5 37.5z
M165.5 106q55.5 -67 151.5 -67q100 0 163 69t90.5 162.5t27.5 169.5q0 107 -53 160.5t-147 53.5q-83 0 -148.5 -47t-102.5 -130.5t-37 -190.5q0 -113 55.5 -180z" />
    <glyph glyph-name="oe" unicode="&#x153;" horiz-adv-x="913" 
d="M129.5 12q-45.5 27 -71.5 79t-26 124q0 74 27 148t86 124t149 50q69 0 117 -37t67 -106q29 65 81 104t128 39q97 0 143 -60.5t46 -156.5q0 -29 -5 -67h-380q-1 -10 -1 -30q0 -90 39.5 -139t107.5 -49q57 0 104.5 38t67.5 106l49 -14q-23 -79 -83.5 -129.5t-137.5 -50.5
q-73 0 -121 37t-65 105q-31 -65 -85.5 -103.5t-134.5 -38.5q-56 0 -101.5 27zM132 84.5q41 -49.5 104 -49.5q68 0 113.5 42t67.5 103.5t22 119.5q0 89 -42 138t-107 49q-66 0 -111 -41.5t-66.5 -103t-21.5 -119.5q0 -89 41 -138.5zM819 300q2 22 2 32q0 71 -33.5 113
t-103.5 42q-73 0 -120 -54.5t-65 -132.5h320z" />
    <glyph glyph-name="Racute" unicode="&#x154;" horiz-adv-x="615" 
d="M93 347l59 346h246q104 0 160 -43t56 -122q0 -64 -37.5 -118t-122.5 -77q39 -15 57 -46.5t18 -84.5q0 -20 -2 -47.5t-3 -38.5q-5 -45 -5 -76q0 -25 4 -40h-62q-3 11 -3 30q0 25 6 87q1 15 3 39.5t2 37.5q0 45 -16 68t-46.5 31t-82.5 8h-181l-50 -301h-63zM338 354
q75 0 123.5 24.5t69.5 62.5t21 78q0 121 -158 121h-190l-52 -286h186zM321 762l75 107h71l-107 -107h-39z" />
    <glyph glyph-name="racute" unicode="&#x155;" horiz-adv-x="343" 
d="M70 251l46 272h58l-20 -103h2q26 50 76 83.5t111 33.5q20 0 40 -4l-12 -55q-20 5 -40 5q-47 0 -89 -24.5t-71.5 -70.5t-40.5 -106l-5 -29l-43 -253h-58zM219 635l83 132h68l-112 -132h-39z" />
    <glyph glyph-name="uni0156" unicode="&#x156;" horiz-adv-x="615" 
d="M93 347l59 346h246q104 0 160 -43t56 -122q0 -64 -37.5 -118t-122.5 -77q39 -15 57 -46.5t18 -84.5q0 -20 -2 -47.5t-3 -38.5q-5 -45 -5 -76q0 -25 4 -40h-62q-3 11 -3 30q0 25 6 87q1 15 3 39.5t2 37.5q0 45 -16 68t-46.5 31t-82.5 8h-181l-50 -301h-63zM338 354
q75 0 123.5 24.5t69.5 62.5t21 78q0 121 -158 121h-190l-52 -286h186zM239 -133.5q15 10.5 13 23.5q-32 3 -32 25q0 16 13 28t33 12q19 0 28.5 -10.5t6.5 -29.5q-11 -74 -105 -87l-3 23q31 5 46 15.5z" />
    <glyph glyph-name="uni0157" unicode="&#x157;" horiz-adv-x="343" 
d="M70 251l46 272h58l-20 -103h2q26 50 76 83.5t111 33.5q20 0 40 -4l-12 -55q-20 5 -40 5q-47 0 -89 -24.5t-71.5 -70.5t-40.5 -106l-5 -29l-43 -253h-58zM17 -133.5q15 10.5 13 23.5q-32 3 -32 25q0 16 13 28t33 12q19 0 28.5 -10.5t6.5 -29.5q-11 -74 -105 -87l-3 23
q31 5 46 15.5z" />
    <glyph glyph-name="Rcaron" unicode="&#x158;" horiz-adv-x="615" 
d="M93 347l59 346h246q104 0 160 -43t56 -122q0 -64 -37.5 -118t-122.5 -77q39 -15 57 -46.5t18 -84.5q0 -20 -2 -47.5t-3 -38.5q-5 -45 -5 -76q0 -25 4 -40h-62q-3 11 -3 30q0 25 6 87q1 15 3 39.5t2 37.5q0 45 -16 68t-46.5 31t-82.5 8h-181l-50 -301h-63zM338 354
q75 0 123.5 24.5t69.5 62.5t21 78q0 121 -158 121h-190l-52 -286h186zM300 869l66 -65l89 65h49l-117 -107h-56l-80 107h49z" />
    <glyph glyph-name="rcaron" unicode="&#x159;" horiz-adv-x="343" 
d="M70 251l46 272h58l-20 -103h2q26 50 76 83.5t111 33.5q20 0 40 -4l-12 -55q-20 5 -40 5q-47 0 -89 -24.5t-71.5 -70.5t-40.5 -106l-5 -29l-43 -253h-58zM197 760l67 -88l98 88h44l-122 -132h-56l-75 132h44z" />
    <glyph glyph-name="Sacute" unicode="&#x15a;" horiz-adv-x="585" 
d="M86 42q-62 57 -63 153l56 13q6 -84 49 -126.5t143 -42.5q68 0 112.5 21t65 53.5t20.5 69.5q0 55 -38 86.5t-130 61.5q-106 34 -153 79t-47 115q0 46 22 87.5t74.5 68.5t139.5 27q113 0 172 -52.5t63 -139.5l-58 -13q-2 69 -48 110t-134 41q-83 0 -126 -37.5t-43 -91.5
q0 -36 17 -59.5t52 -41t99 -39.5q104 -34 151.5 -80t47.5 -116q0 -54 -26.5 -100t-85 -75t-149.5 -29q-121 0 -183 57zM328 762l75 107h71l-107 -107h-39z" />
    <glyph glyph-name="sacute" unicode="&#x15b;" horiz-adv-x="451" 
d="M59 29.5q-52 44.5 -55 113.5l52 12q5 -50 39.5 -85t113.5 -35q73 0 101 30.5t28 67.5q0 41 -27.5 65.5t-93.5 43.5q-87 24 -122 59.5t-35 88.5q0 60 43 103.5t136 43.5q81 0 129.5 -40t55.5 -112l-53 -12q-7 52 -40 83t-99 31q-54 0 -83.5 -26.5t-29.5 -66.5
q0 -36 23.5 -57t86.5 -41t99 -41.5t52 -48t16 -65.5q0 -71 -49 -113.5t-144 -42.5q-92 0 -144 44.5zM243 635l83 132h68l-112 -132h-39z" />
    <glyph glyph-name="Scircumflex" unicode="&#x15c;" horiz-adv-x="585" 
d="M86 42q-62 57 -63 153l56 13q6 -84 49 -126.5t143 -42.5q68 0 112.5 21t65 53.5t20.5 69.5q0 55 -38 86.5t-130 61.5q-106 34 -153 79t-47 115q0 46 22 87.5t74.5 68.5t139.5 27q113 0 172 -52.5t63 -139.5l-58 -13q-2 69 -48 110t-134 41q-83 0 -126 -37.5t-43 -91.5
q0 -36 17 -59.5t52 -41t99 -39.5q104 -34 151.5 -80t47.5 -116q0 -54 -26.5 -100t-85 -75t-149.5 -29q-121 0 -183 57zM358 869h55l80 -107h-49l-66 65l-88 -65h-49z" />
    <glyph glyph-name="scircumflex" unicode="&#x15d;" horiz-adv-x="451" 
d="M59 29.5q-52 44.5 -55 113.5l52 12q5 -50 39.5 -85t113.5 -35q73 0 101 30.5t28 67.5q0 41 -27.5 65.5t-93.5 43.5q-87 24 -122 59.5t-35 88.5q0 60 43 103.5t136 43.5q81 0 129.5 -40t55.5 -112l-53 -12q-7 52 -40 83t-99 31q-54 0 -83.5 -26.5t-29.5 -66.5
q0 -36 23.5 -57t86.5 -41t99 -41.5t52 -48t16 -65.5q0 -71 -49 -113.5t-144 -42.5q-92 0 -144 44.5zM275 757h56l75 -132h-44l-67 88l-98 -88h-44z" />
    <glyph glyph-name="Scedilla" unicode="&#x15e;" horiz-adv-x="585" 
d="M254 -15l-20 -39q80 -9 71 -60q-6 -30 -32 -43.5t-65 -13.5q-17 0 -39.5 3t-35.5 7l14 34q28 -7 57 -7q24 0 34.5 7t10.5 21q0 12 -16.5 19.5t-56.5 11.5l34 64q-92 14 -139 68.5t-48 137.5l56 13q6 -84 49 -126.5t143 -42.5q68 0 112.5 21t65 53.5t20.5 69.5
q0 55 -38 86.5t-130 61.5q-106 34 -153 79t-47 115q0 46 22 87.5t74.5 68.5t139.5 27q113 0 172 -52.5t63 -139.5l-58 -13q-2 69 -48 110t-134 41q-83 0 -126 -37.5t-43 -91.5q0 -36 17 -59.5t52 -41t99 -39.5q104 -34 151.5 -80t47.5 -116q0 -54 -26.5 -100t-85 -75
t-149.5 -29h-15z" />
    <glyph glyph-name="scedilla" unicode="&#x15f;" horiz-adv-x="451" 
d="M182 -14l-20 -40q80 -9 71 -60q-6 -30 -32 -43.5t-65 -13.5q-17 0 -39.5 3t-35.5 7l14 34q28 -7 57 -7q24 0 34.5 7t10.5 21q0 12 -16.5 19.5t-56.5 11.5l35 67q-63 14 -98 54.5t-37 96.5l52 12q5 -50 39.5 -85t113.5 -35q73 0 101 30.5t28 67.5q0 41 -27.5 65.5
t-93.5 43.5q-87 24 -122 59.5t-35 88.5q0 60 43 103.5t136 43.5q81 0 129.5 -40t55.5 -112l-53 -12q-7 52 -40 83t-99 31q-54 0 -83.5 -26.5t-29.5 -66.5q0 -36 23.5 -57t86.5 -41t99 -41.5t52 -48t16 -65.5q0 -71 -49 -113.5t-144 -42.5z" />
    <glyph glyph-name="Scaron" unicode="&#x160;" horiz-adv-x="585" 
d="M86 42q-62 57 -63 153l56 13q6 -84 49 -126.5t143 -42.5q68 0 112.5 21t65 53.5t20.5 69.5q0 55 -38 86.5t-130 61.5q-106 34 -153 79t-47 115q0 46 22 87.5t74.5 68.5t139.5 27q113 0 172 -52.5t63 -139.5l-58 -13q-2 69 -48 110t-134 41q-83 0 -126 -37.5t-43 -91.5
q0 -36 17 -59.5t52 -41t99 -39.5q104 -34 151.5 -80t47.5 -116q0 -54 -26.5 -100t-85 -75t-149.5 -29q-121 0 -183 57zM308 869l66 -65l89 65h49l-117 -107h-56l-80 107h49z" />
    <glyph glyph-name="scaron" unicode="&#x161;" horiz-adv-x="451" 
d="M59 29.5q-52 44.5 -55 113.5l52 12q5 -50 39.5 -85t113.5 -35q73 0 101 30.5t28 67.5q0 41 -27.5 65.5t-93.5 43.5q-87 24 -122 59.5t-35 88.5q0 60 43 103.5t136 43.5q81 0 129.5 -40t55.5 -112l-53 -12q-7 52 -40 83t-99 31q-54 0 -83.5 -26.5t-29.5 -66.5
q0 -36 23.5 -57t86.5 -41t99 -41.5t52 -48t16 -65.5q0 -71 -49 -113.5t-144 -42.5q-92 0 -144 44.5zM221 760l67 -88l98 88h44l-122 -132h-56l-75 132h44z" />
    <glyph glyph-name="uni0162" unicode="&#x162;" horiz-adv-x="534" 
d="M253 347l50 292h-224l10 54h509l-10 -54h-223l-54 -292l-59 -347h-12l-27 -54q80 -9 71 -60q-6 -30 -32 -43.5t-65 -13.5q-17 0 -39.5 3t-35.5 7l14 34q28 -7 57 -7q24 0 34.5 7t10.5 21q0 12 -16.5 19.5t-56.5 11.5l40 75h-5z" />
    <glyph glyph-name="uni0163" unicode="&#x163;" horiz-adv-x="340" 
d="M97.5 -168q-22.5 3 -35.5 7l14 34q28 -7 57 -7q24 0 34.5 7t10.5 21q0 12 -16.5 19.5t-56.5 11.5l34 64q-40 9 -57 35t-17 68q0 30 8 72l55 313l-85 -2l8 48h85l28 158h57l-29 -158h169l-8 -48l-169 2l-56 -319q-5 -33 -5 -52q0 -37 16.5 -54t55.5 -17q48 0 92 16l3 -45
q-55 -21 -107 -21l-20 -39q80 -9 71 -60q-6 -30 -32 -43.5t-65 -13.5q-17 0 -39.5 3z" />
    <glyph glyph-name="Tcaron" unicode="&#x164;" horiz-adv-x="534" 
d="M253 347l50 292h-224l10 54h509l-10 -54h-223l-54 -292l-59 -347h-62zM297 869l66 -65l89 65h49l-117 -107h-56l-80 107h49z" />
    <glyph glyph-name="tcaron" unicode="&#x165;" horiz-adv-x="340" 
d="M91.5 12q-26.5 27 -26.5 79q0 31 8 73l55 313l-85 -2l8 48h85l28 158h57l-29 -158h169l-8 -48l-169 2l-56 -319q-5 -33 -5 -52q0 -37 16.5 -54t55.5 -17q48 0 92 16l3 -45q-55 -21 -109 -21q-63 0 -89.5 27zM355 814h52l-44 -214h-40z" />
    <glyph glyph-name="Tbar" unicode="&#x166;" horiz-adv-x="534" 
d="M244 296l-103 -1l9 47l102 -2l1 7l50 292h-224l10 54h509l-10 -54h-223l-54 -292l-1 -7l108 2l-9 -47l-107 1l-50 -296h-62z" />
    <glyph glyph-name="tbar" unicode="&#x167;" horiz-adv-x="340" 
d="M91.5 12q-26.5 27 -26.5 79q0 31 8 73l25 142l-91 -1l9 47l90 -1l22 126l-85 -2l8 48h85l28 158h57l-29 -158h169l-8 -48l-169 2l-22 -127l122 2l-9 -47l-121 1l-26 -148q-5 -33 -5 -52q0 -37 16.5 -54t55.5 -17q48 0 92 16l3 -45q-55 -21 -109 -21q-63 0 -89.5 27z" />
    <glyph glyph-name="Utilde" unicode="&#x168;" horiz-adv-x="649" 
d="M115.5 39q-57.5 54 -57.5 161q0 42 9 93l38 208l33 192h62l-37 -192l-36 -213q-7 -41 -7 -80q0 -83 40 -126t125 -43q104 0 164 63.5t82 185.5l39 213l32 192h62l-36 -192l-35 -208q-26 -155 -102 -231.5t-207 -76.5q-111 0 -168.5 54zM308.5 828q21.5 27 56.5 27
q20 0 35 -8t36 -23q15 -11 24 -16t19 -5q17 0 26 13t15 39h44q-8 -41 -29.5 -68t-57.5 -27q-20 0 -34.5 7.5t-36.5 22.5q-15 11 -24 16t-19 5q-18 0 -26.5 -12.5t-14.5 -38.5h-44q9 41 30.5 68z" />
    <glyph glyph-name="utilde" unicode="&#x169;" horiz-adv-x="562" 
d="M492 272l-46 -272h-58l19 97h-2q-31 -50 -80 -80.5t-104 -30.5q-80 0 -122 42.5t-42 124.5q0 31 6 67l9 52l42 251h58l-45 -251l-9 -52q-6 -33 -6 -60q0 -65 32 -94t93 -29q39 0 80 25t72 69t41 98l7 43l43 251h58zM245.5 704q21.5 27 56.5 27q20 0 35 -7.5t36 -21.5
q2 -2 11.5 -8t17 -9t14.5 -3q18 0 27 12.5t14 36.5h44q-8 -41 -29 -68t-57 -27q-20 0 -36 7.5t-36 21.5q-27 20 -43 20q-18 0 -27 -12.5t-13 -36.5h-45q9 41 30.5 68z" />
    <glyph glyph-name="Umacron" unicode="&#x16a;" horiz-adv-x="649" 
d="M115.5 39q-57.5 54 -57.5 161q0 42 9 93l38 208l33 192h62l-37 -192l-36 -213q-7 -41 -7 -80q0 -83 40 -126t125 -43q104 0 164 63.5t82 185.5l39 213l32 192h62l-36 -192l-35 -208q-26 -155 -102 -231.5t-207 -76.5q-111 0 -168.5 54zM275 808h294l-8 -44h-294z" />
    <glyph glyph-name="umacron" unicode="&#x16b;" horiz-adv-x="562" 
d="M492 272l-46 -272h-58l19 97h-2q-31 -50 -80 -80.5t-104 -30.5q-80 0 -122 42.5t-42 124.5q0 31 6 67l9 52l42 251h58l-45 -251l-9 -52q-6 -33 -6 -60q0 -65 32 -94t93 -29q39 0 80 25t72 69t41 98l7 43l43 251h58zM232 685h254l-8 -44h-254z" />
    <glyph glyph-name="Ubreve" unicode="&#x16c;" horiz-adv-x="649" 
d="M115.5 39q-57.5 54 -57.5 161q0 42 9 93l38 208l33 192h62l-37 -192l-36 -213q-7 -41 -7 -80q0 -83 40 -126t125 -43q104 0 164 63.5t82 185.5l39 213l32 192h62l-36 -192l-35 -208q-26 -155 -102 -231.5t-207 -76.5q-111 0 -168.5 54zM341.5 780.5
q-24.5 21.5 -24.5 61.5q0 14 3 29h40q-1 -6 -1 -17q0 -25 14 -36.5t47 -11.5q40 0 59.5 15.5t26.5 49.5h40q-9 -54 -43.5 -83t-90.5 -29q-46 0 -70.5 21.5z" />
    <glyph glyph-name="ubreve" unicode="&#x16d;" horiz-adv-x="562" 
d="M492 272l-46 -272h-58l19 97h-2q-31 -50 -80 -80.5t-104 -30.5q-80 0 -122 42.5t-42 124.5q0 31 6 67l9 52l42 251h58l-45 -251l-9 -52q-6 -33 -6 -60q0 -65 32 -94t93 -29q39 0 80 25t72 69t41 98l7 43l43 251h58zM277 648.5q-24 22.5 -24 67.5q0 9 4 37h40
q-2 -18 -2 -26q0 -28 14 -41t46 -13q39 0 59 18.5t29 61.5h40q-10 -63 -45 -95t-91 -32q-46 0 -70 22.5z" />
    <glyph glyph-name="Uring" unicode="&#x16e;" horiz-adv-x="649" 
d="M115.5 39q-57.5 54 -57.5 161q0 42 9 93l38 208l33 192h62l-37 -192l-36 -213q-7 -41 -7 -80q0 -83 40 -126t125 -43q104 0 164 63.5t82 185.5l39 213l32 192h62l-36 -192l-35 -208q-26 -155 -102 -231.5t-207 -76.5q-111 0 -168.5 54zM370.5 772q-14.5 13 -14.5 36
q0 8 1 13q5 29 26 45.5t52 16.5q26 0 40.5 -12.5t14.5 -35.5q0 -35 -21.5 -55.5t-55.5 -20.5q-28 0 -42.5 13zM396 798q7 -9 22 -9q17 0 27.5 11.5t10.5 28.5q0 11 -7 17.5t-19 6.5q-16 0 -26 -8.5t-13 -23.5q-2 -14 5 -23z" />
    <glyph glyph-name="uring" unicode="&#x16f;" horiz-adv-x="562" 
d="M492 272l-46 -272h-58l19 97h-2q-31 -50 -80 -80.5t-104 -30.5q-80 0 -122 42.5t-42 124.5q0 31 6 67l9 52l42 251h58l-45 -251l-9 -52q-6 -33 -6 -60q0 -65 32 -94t93 -29q39 0 80 25t72 69t41 98l7 43l43 251h58zM301.5 649q-17.5 15 -17.5 41q0 40 25.5 64t66.5 24
q31 0 48 -15t17 -42q0 -10 -1 -15q-6 -34 -30.5 -53t-59.5 -19q-31 0 -48.5 15zM328 672.5q10 -8.5 27 -8.5q22 0 37 14t15 37q0 16 -10 25t-27 9q-23 0 -37.5 -14.5t-14.5 -38.5q0 -15 10 -23.5z" />
    <glyph glyph-name="Uhungarumlaut" unicode="&#x170;" horiz-adv-x="649" 
d="M115.5 39q-57.5 54 -57.5 161q0 42 9 93l38 208l33 192h62l-37 -192l-36 -213q-7 -41 -7 -80q0 -83 40 -126t125 -43q104 0 164 63.5t82 185.5l39 213l32 192h62l-36 -192l-35 -208q-26 -155 -102 -231.5t-207 -76.5q-111 0 -168.5 54zM526 870h68l-106 -108h-39z
M404 870h63l-94 -108h-44z" />
    <glyph glyph-name="uhungarumlaut" unicode="&#x171;" horiz-adv-x="562" 
d="M492 272l-46 -272h-58l19 97h-2q-31 -50 -80 -80.5t-104 -30.5q-80 0 -122 42.5t-42 124.5q0 31 6 67l9 52l42 251h58l-45 -251l-9 -52q-6 -33 -6 -60q0 -65 32 -94t93 -29q39 0 80 25t72 69t41 98l7 43l43 251h58zM474 767h61l-111 -132h-39zM352 767h56l-99 -132h-44z
" />
    <glyph glyph-name="Uogonek" unicode="&#x172;" horiz-adv-x="649" 
d="M115.5 39q-57.5 54 -57.5 161q0 42 9 93l38 208l33 192h62l-37 -192l-36 -213q-7 -41 -7 -80q0 -83 40 -126t125 -43q104 0 164 63.5t82 185.5l39 213l32 192h62l-36 -192l-35 -208q-19 -113 -63.5 -183.5t-116.5 -101.5q-26 -19 -42 -40t-16 -38q0 -26 36 -26q19 0 37 5
l3 -36q-28 -14 -63 -14q-30 0 -48 13t-18 38q0 40 43 80q-32 -5 -61 -5q-111 0 -168.5 54z" />
    <glyph glyph-name="uogonek" unicode="&#x173;" horiz-adv-x="562" 
d="M492 272l-46 -272q-42 -21 -70.5 -50t-28.5 -54q0 -26 36 -26q19 0 37 5l3 -36q-28 -14 -63 -14q-30 0 -48 13t-18 38q0 64 107 124h-13l19 97h-2q-31 -50 -80 -80.5t-104 -30.5q-80 0 -122 42.5t-42 124.5q0 31 6 67l9 52l42 251h58l-45 -251l-9 -52q-6 -33 -6 -60
q0 -65 32 -94t93 -29q39 0 80 25t72 69t41 98l7 43l43 251h58z" />
    <glyph glyph-name="Wcircumflex" unicode="&#x174;" horiz-adv-x="931" 
d="M139 347l-45 346h63l35 -346l31 -271h2l128 271l159 346h55l39 -346l32 -271h1l126 271l157 346h67l-167 -346l-163 -347h-63l-41 347l-30 245h-2l-116 -245l-163 -347h-63zM545 869h55l80 -107h-49l-66 65l-88 -65h-49z" />
    <glyph glyph-name="wcircumflex" unicode="&#x175;" horiz-adv-x="737" 
d="M54 523h55l54 -459h1l221 459h55l55 -459h1l219 459h60l-255 -523h-65l-55 437h-2l-211 -437h-65zM428 757h56l75 -132h-44l-67 88l-98 -88h-44z" />
    <glyph glyph-name="Ycircumflex" unicode="&#x176;" horiz-adv-x="570" 
d="M255 256l-171 437h65l142 -370h3l272 370h73l-326 -437l-43 -256h-62zM365 869h55l80 -107h-49l-66 65l-88 -65h-49z" />
    <glyph glyph-name="ycircumflex" unicode="&#x177;" horiz-adv-x="493" 
d="M-27 -162l18 46q29 -6 55 -6q35 0 62.5 27t68.5 99l-123 519h58l102 -444h2l253 444h62l-320 -556q-45 -80 -86.5 -109.5t-83.5 -29.5q-38 0 -68 10zM306 757h56l75 -132h-44l-67 88l-98 -88h-44z" />
    <glyph glyph-name="Ydieresis" unicode="&#x178;" horiz-adv-x="570" 
d="M255 256l-171 437h65l142 -370h3l272 370h73l-326 -437l-43 -256h-62zM265 769.5q-9 8.5 -9 22.5q0 21 13.5 34t33.5 13q15 0 24 -8.5t9 -22.5q0 -21 -13.5 -34t-33.5 -13q-15 0 -24 8.5zM438.5 826q13.5 13 33.5 13q15 0 24 -8.5t9 -22.5q0 -21 -13.5 -34t-33.5 -13
q-15 0 -24 8.5t-9 22.5q0 21 13.5 34z" />
    <glyph glyph-name="Zacute" unicode="&#x179;" horiz-adv-x="575" 
d="M-10 50l293 315l245 274h-424l9 54h504l-9 -50l-290 -311l-248 -278h441l-10 -54h-520zM338 762l75 107h71l-107 -107h-39z" />
    <glyph glyph-name="zacute" unicode="&#x17a;" horiz-adv-x="464" 
d="M-11 45l403 428h-318l8 50h394l-8 -45l-402 -428h333l-8 -50h-410zM259 635l83 132h68l-112 -132h-39z" />
    <glyph glyph-name="Zdotaccent" unicode="&#x17b;" horiz-adv-x="575" 
d="M-10 50l293 315l245 274h-424l9 54h504l-9 -50l-290 -311l-248 -278h441l-10 -54h-520zM350.5 767q-8.5 8 -8.5 22q0 23 13 36.5t34 13.5q16 0 25.5 -8.5t9.5 -23.5q0 -21 -14 -34.5t-35 -13.5q-16 0 -24.5 8z" />
    <glyph glyph-name="zdotaccent" unicode="&#x17c;" horiz-adv-x="464" 
d="M-11 45l403 428h-318l8 50h394l-8 -45l-402 -428h333l-8 -50h-410zM273.5 643q-8.5 8 -8.5 22q0 22 14 36t34 14q16 0 25 -8.5t9 -23.5q0 -22 -14 -35t-35 -13q-16 0 -24.5 8z" />
    <glyph glyph-name="Zcaron" unicode="&#x17d;" horiz-adv-x="575" 
d="M-10 50l293 315l245 274h-424l9 54h504l-9 -50l-290 -311l-248 -278h441l-10 -54h-520zM317 869l66 -65l89 65h49l-117 -107h-56l-80 107h49z" />
    <glyph glyph-name="zcaron" unicode="&#x17e;" horiz-adv-x="464" 
d="M-11 45l403 428h-318l8 50h394l-8 -45l-402 -428h333l-8 -50h-410zM238 760l67 -88l98 88h44l-122 -132h-56l-75 132h44z" />
    <glyph glyph-name="florin" unicode="&#x192;" horiz-adv-x="518" 
d="M257 367l-104 -2l18 48h102l57 151q26 70 64.5 106.5t95.5 36.5q48 0 90 -22l-28 -44q-27 16 -64 16q-36 0 -60.5 -22t-41.5 -69l-57 -153h152l-18 -48l-150 2l-82 -225q-29 -78 -70 -117t-97 -39q-23 0 -50 7.5t-46 19.5l24 40q38 -16 77 -16q64 0 103 105z" />
    <glyph glyph-name="AEacute" unicode="&#x1fc;" horiz-adv-x="911" 
d="M229 347l253 346h465l-9 -54h-354l-47 -259h333l-9 -53h-333l-47 -273h363l-9 -54h-424l37 202l-117 2l-145 -2l-146 -202h-74zM342 252l115 2l17 93l50 292h-21l-280 -386zM689 762l75 107h71l-107 -107h-39z" />
    <glyph glyph-name="aeacute" unicode="&#x1fd;" horiz-adv-x="853" 
d="M464 23q-50 38 -69 109q-48 -81 -109.5 -114t-122.5 -33q-73 0 -109.5 34t-36.5 97q0 185 325 185h54l4 19q6 33 6 60q0 54 -26.5 81.5t-84.5 27.5q-74 0 -116.5 -39t-52.5 -103l-48 13q14 83 74.5 130t150.5 47q65 0 103.5 -26t49.5 -76q33 47 79 74.5t105 27.5
q93 0 138 -62t45 -158q0 -27 -5 -64h-375q-2 -24 -2 -31q0 -88 41 -137.5t109 -49.5q56 0 98.5 36.5t57.5 107.5l49 -14q-20 -83 -76 -131.5t-137 -48.5q-69 0 -119 38zM102.5 56.5q26.5 -21.5 80.5 -21.5q38 0 80.5 23.5t76 69t44.5 107.5l4 22h-41q-147 0 -209 -34
t-62 -100q0 -45 26.5 -66.5zM765 300q2 22 2 31q0 68 -33.5 112t-96.5 44q-75 0 -120.5 -55t-64.5 -132h313zM460 635l83 132h68l-112 -132h-39z" />
    <glyph glyph-name="Oslashacute" unicode="&#x1fe;" horiz-adv-x="710" 
d="M130 63l-75 -78l-34 29l80 84q-51 79 -51 196q0 119 45 213t126 147.5t184 53.5q65 0 117.5 -20t88.5 -58l75 78l34 -29l-81 -84q52 -78 52 -196t-45.5 -212.5t-126.5 -148t-184 -53.5q-130 0 -205 78zM145 143l425 444q-59 67 -165 67q-85 0 -152 -46.5t-104.5 -128.5
t-37.5 -185q0 -89 34 -151zM336 39q85 0 151.5 46.5t104 129t37.5 185.5q0 90 -33 150l-425 -444q59 -67 165 -67zM405 762l75 107h71l-107 -107h-39z" />
    <glyph glyph-name="oslashacute" unicode="&#x1ff;" horiz-adv-x="556" 
d="M162.5 0q-38.5 15 -67.5 44l-55 -58l-28 25l60 62q-40 58 -40 147q0 72 28 145t90.5 122.5t158.5 49.5q46 0 84.5 -15t67.5 -44l55 58l29 -24l-60 -63q39 -59 39 -146q0 -73 -28 -146t-90.5 -122.5t-158.5 -49.5q-46 0 -84.5 15zM113 116l309 322q-44 49 -117 49
q-72 0 -120.5 -41.5t-71 -102.5t-22.5 -120q0 -61 22 -107zM251 35q72 0 120.5 42t71 103t22.5 120q0 60 -22 106l-309 -322q44 -49 117 -49zM305 635l83 132h68l-112 -132h-39z" />
    <glyph glyph-name="uni0218" unicode="&#x218;" horiz-adv-x="585" 
d="M86 42q-62 57 -63 153l56 13q6 -84 49 -126.5t143 -42.5q68 0 112.5 21t65 53.5t20.5 69.5q0 55 -38 86.5t-130 61.5q-106 34 -153 79t-47 115q0 46 22 87.5t74.5 68.5t139.5 27q113 0 172 -52.5t63 -139.5l-58 -13q-2 69 -48 110t-134 41q-83 0 -126 -37.5t-43 -91.5
q0 -36 17 -59.5t52 -41t99 -39.5q104 -34 151.5 -80t47.5 -116q0 -54 -26.5 -100t-85 -75t-149.5 -29q-121 0 -183 57zM211 -133.5q15 10.5 13 23.5q-32 3 -32 25q0 16 13 28t33 12q19 0 28.5 -10.5t6.5 -29.5q-11 -74 -105 -87l-3 23q31 5 46 15.5z" />
    <glyph glyph-name="uni0219" unicode="&#x219;" horiz-adv-x="451" 
d="M59 29.5q-52 44.5 -55 113.5l52 12q5 -50 39.5 -85t113.5 -35q73 0 101 30.5t28 67.5q0 41 -27.5 65.5t-93.5 43.5q-87 24 -122 59.5t-35 88.5q0 60 43 103.5t136 43.5q81 0 129.5 -40t55.5 -112l-53 -12q-7 52 -40 83t-99 31q-54 0 -83.5 -26.5t-29.5 -66.5
q0 -36 23.5 -57t86.5 -41t99 -41.5t52 -48t16 -65.5q0 -71 -49 -113.5t-144 -42.5q-92 0 -144 44.5zM139 -133.5q15 10.5 13 23.5q-32 3 -32 25q0 16 13 28t33 12q19 0 28.5 -10.5t6.5 -29.5q-11 -74 -105 -87l-3 23q31 5 46 15.5z" />
    <glyph glyph-name="uni021A" unicode="&#x21a;" horiz-adv-x="534" 
d="M253 347l50 292h-224l10 54h509l-10 -54h-223l-54 -292l-59 -347h-62zM190 -133.5q15 10.5 13 23.5q-32 3 -32 25q0 16 13 28t33 12q19 0 28.5 -10.5t6.5 -29.5q-11 -74 -105 -87l-3 23q31 5 46 15.5z" />
    <glyph glyph-name="uni021B" unicode="&#x21b;" horiz-adv-x="340" 
d="M91.5 12q-26.5 27 -26.5 79q0 31 8 73l55 313l-85 -2l8 48h85l28 158h57l-29 -158h169l-8 -48l-169 2l-56 -319q-5 -33 -5 -52q0 -37 16.5 -54t55.5 -17q48 0 92 16l3 -45q-55 -21 -109 -21q-63 0 -89.5 27zM140 -133.5q15 10.5 13 23.5q-32 3 -32 25q0 16 13 28t33 12
q19 0 28.5 -10.5t6.5 -29.5q-11 -74 -105 -87l-3 23q31 5 46 15.5z" />
    <glyph glyph-name="uni0237" unicode="&#x237;" horiz-adv-x="198" 
d="M-139 -152l19 43q25 -7 54 -7q36 0 57.5 24.5t32.5 84.5l22 127l70 403h58l-73 -403l-20 -114q-17 -93 -53 -132.5t-92 -39.5q-38 0 -75 14z" />
    <glyph glyph-name="uni02B0" unicode="&#x2b0;" horiz-adv-x="418" 
d="M118 524l45 264h58l-28 -153h1q19 27 51 44.5t70 17.5q46 0 68.5 -21t22.5 -66q0 -23 -4 -44l-7 -42l-26 -152h-59l28 152l6 35q3 15 3 27q0 60 -62 60q-38 0 -68.5 -27t-37.5 -69l-4 -26l-27 -152h-58z" />
    <glyph glyph-name="uni02B2" unicode="&#x2b2;" horiz-adv-x="171" 
d="M-24 283l16 43q23 -7 37 -7q20 0 32 13t17 44l13 70l41 243q18 -2 30 -2q13 0 29 2l-43 -243l-12 -63q-10 -60 -35 -86t-69 -26q-30 0 -56 12zM147.5 781.5q11.5 10.5 32.5 10.5q31 0 31 -22q0 -41 -42 -41q-33 0 -33 23q0 19 11.5 29.5z" />
    <glyph glyph-name="uni02B7" unicode="&#x2b7;" horiz-adv-x="465" 
d="M83 689h59l23 -257h1l117 257h53l27 -257h1l112 257h57l-147 -317h-65l-25 240h-1l-112 -240h-65z" />
    <glyph glyph-name="uni02B8" unicode="&#x2b8;" horiz-adv-x="319" 
d="M34 277l18 44q13 -4 33 -4t34.5 12t33.5 43l-70 317h61l49 -245h1l132 245h61l-175 -314q-32 -58 -61.5 -82t-65.5 -24q-30 0 -51 8z" />
    <glyph glyph-name="circumflex" unicode="&#x2c6;" horiz-adv-x="313" 
d="M218 767h55l75 -132h-44l-66 88l-98 -88h-44z" />
    <glyph glyph-name="caron" unicode="&#x2c7;" horiz-adv-x="313" 
d="M162 760l67 -88l98 88h44l-122 -132h-56l-75 132h44z" />
    <glyph glyph-name="breve" unicode="&#x2d8;" horiz-adv-x="277" 
d="M132 648.5q-24 22.5 -24 67.5q0 9 4 37h40q-2 -18 -2 -26q0 -28 14 -41t46 -13q39 0 59 18.5t29 61.5h40q-10 -63 -45 -95t-91 -32q-46 0 -70 22.5z" />
    <glyph glyph-name="dotaccent" unicode="&#x2d9;" horiz-adv-x="141" 
d="M111.5 643q-8.5 8 -8.5 22q0 22 14 36t34 14q16 0 25 -8.5t9 -23.5q0 -22 -14 -35t-35 -13q-16 0 -24.5 8z" />
    <glyph glyph-name="ring" unicode="&#x2da;" horiz-adv-x="211" 
d="M124 648.5q-17 14.5 -17 40.5q0 10 1 15q6 33 30 52t59 19q30 0 47 -14.5t17 -40.5q0 -4 -2 -16q-6 -32 -29.5 -51t-57.5 -19q-31 0 -48 14.5zM141 696q0 -15 9.5 -23.5t26.5 -8.5q21 0 35 14t14 36q0 15 -9 23t-25 8q-20 0 -33 -11t-17 -30z" />
    <glyph glyph-name="ogonek" unicode="&#x2db;" horiz-adv-x="203" 
d="M-18 -156q-18 13 -18 38q0 35 30 66.5t86 64.5l36 -7q-42 -21 -70.5 -50t-28.5 -54q0 -26 36 -26q19 0 37 5l3 -36q-28 -14 -63 -14q-30 0 -48 13z" />
    <glyph glyph-name="tilde" unicode="&#x2dc;" horiz-adv-x="329" 
d="M126.5 704q21.5 27 56.5 27q20 0 35 -8t36 -23q15 -11 24 -16t19 -5q17 0 26 13t15 39h44q-8 -41 -29 -68t-57 -27q-20 0 -35.5 7.5t-36.5 22.5q-14 11 -24 16t-19 5q-18 0 -26.5 -12.5t-13.5 -38.5h-45q9 41 30.5 68z" />
    <glyph glyph-name="hungarumlaut" unicode="&#x2dd;" horiz-adv-x="297" 
d="M305 767h61l-111 -132h-39zM183 767h56l-99 -132h-44z" />
    <glyph glyph-name="uni02E1" unicode="&#x2e1;" horiz-adv-x="199" 
d="M128 584l35 204h58l-36 -204l-37 -212h-58z" />
    <glyph glyph-name="uni02E2" unicode="&#x2e2;" horiz-adv-x="320" 
d="M90.5 388q-29.5 25 -26.5 71l52 14q-4 -30 14.5 -47.5t58.5 -17.5q32 0 52.5 13t24.5 37q1 3 1 9q0 36 -68 44q-51 8 -74.5 27t-23.5 49q0 51 37.5 80.5t94.5 29.5q112 0 110 -92l-52 -13q1 61 -64 61q-29 0 -47.5 -14t-18.5 -42q0 -16 14 -25.5t51 -16.5q52 -8 76 -27
t24 -51q0 -51 -39.5 -82.5t-106.5 -31.5q-60 0 -89.5 25z" />
    <glyph glyph-name="uni02E3" unicode="&#x2e3;" horiz-adv-x="318" 
d="M167 535l-79 154h66l58 -120h1l99 120h66l-132 -155l84 -162h-66l-62 127h-1l-107 -127h-67z" />
    <glyph glyph-name="gravecomb" unicode="&#x300;" 
d="M109 767h67l37 -132h-39z" />
    <glyph glyph-name="acutecomb" unicode="&#x301;" 
d="M89 635l83 132h68l-112 -132h-39z" />
    <glyph glyph-name="uni0302" unicode="&#x302;" 
d="M216 757h56l75 -132h-44l-67 88l-98 -88h-44z" />
    <glyph glyph-name="tildecomb" unicode="&#x303;" 
d="M126.5 704q21.5 27 56.5 27q20 0 35 -7.5t36 -21.5q2 -2 11.5 -8t17 -9t14.5 -3q18 0 27 12.5t14 36.5h44q-8 -41 -29 -68t-57 -27q-20 0 -36 7.5t-36 21.5q-27 20 -43 20q-18 0 -27 -12.5t-13 -36.5h-45q9 41 30.5 68z" />
    <glyph glyph-name="uni0304" unicode="&#x304;" 
d="M125 685h254l-8 -44h-254z" />
    <glyph glyph-name="uni0306" unicode="&#x306;" 
d="M132 648.5q-24 22.5 -24 67.5q0 9 4 37h40q-2 -18 -2 -26q0 -28 14 -41t46 -13q39 0 59 18.5t29 61.5h40q-10 -63 -45 -95t-91 -32q-46 0 -70 22.5z" />
    <glyph glyph-name="uni0307" unicode="&#x307;" 
d="M111.5 643q-8.5 8 -8.5 22q0 22 14 36t34 14q16 0 25 -8.5t9 -23.5q0 -22 -14 -35t-35 -13q-16 0 -24.5 8z" />
    <glyph glyph-name="uni0308" unicode="&#x308;" 
d="M95.5 643q-8.5 8 -8.5 22q0 21 13.5 34.5t33.5 13.5q17 0 26 -11t6 -28q-4 -18 -16.5 -28.5t-29.5 -10.5q-16 0 -24.5 8zM269.5 699.5q13.5 13.5 33.5 13.5q17 0 26 -11t6 -28q-4 -18 -16.5 -28.5t-29.5 -10.5q-16 0 -24.5 8t-8.5 22q0 21 13.5 34.5z" />
    <glyph glyph-name="hookabovecomb" unicode="&#x309;" 
d="M170.5 679q13.5 14 16.5 31l1 7q0 19 -23 19q-21 0 -44 -10l-4 30q11 6 28 10.5t31 4.5q28 0 41 -12t13 -31q0 -32 -22 -57.5t-56 -46.5l-18 25q23 16 36.5 30z" />
    <glyph glyph-name="uni030A" unicode="&#x30a;" 
d="M123.5 649q-17.5 15 -17.5 41q0 40 25.5 64t66.5 24q31 0 48 -15t17 -42q0 -10 -1 -15q-6 -34 -30.5 -53t-59.5 -19q-31 0 -48.5 15zM150 672.5q10 -8.5 27 -8.5q22 0 37 14t15 37q0 16 -10 25t-27 9q-23 0 -37.5 -14.5t-14.5 -38.5q0 -15 10 -23.5z" />
    <glyph glyph-name="uni030B" unicode="&#x30b;" 
d="M305 767h61l-111 -132h-39zM183 767h56l-99 -132h-44z" />
    <glyph glyph-name="uni030C" unicode="&#x30c;" 
d="M162 760l67 -88l98 88h44l-122 -132h-56l-75 132h44z" />
    <glyph glyph-name="uni030F" unicode="&#x30f;" 
d="M174 635l-65 132h62l42 -132h-39zM293 767l40 -132h-44l-53 132h57z" />
    <glyph glyph-name="uni0311" unicode="&#x311;" 
d="M321 668q0 -11 -4 -37h-40q2 18 2 26q0 29 -14.5 42t-48.5 13q-38 0 -57.5 -19t-28.5 -62h-40q11 63 45.5 95t89.5 32q96 0 96 -90z" />
    <glyph glyph-name="uni0313" unicode="&#x313;" 
d="M121 670q0 7 1 11q13 81 99 94l3 -23q-54 -10 -56 -50q16 1 25 -5t9 -16q0 -19 -13 -30.5t-33 -11.5q-35 0 -35 31z" />
    <glyph glyph-name="uni031B" unicode="&#x31b;" 
d="M153.5 529q27.5 6 40.5 19t17 36l9 54h46l-8 -51q-10 -55 -49.5 -79.5t-128.5 -24.5l-4 40q50 0 77.5 6z" />
    <glyph glyph-name="uni0326" unicode="&#x326;" 
d="M8 -133.5q15 10.5 13 23.5q-32 3 -32 25q0 16 13 28t33 12q19 0 28.5 -10.5t6.5 -29.5q-11 -74 -105 -87l-3 23q31 5 46 15.5z" />
    <glyph glyph-name="uni0327" unicode="&#x327;" 
d="M-9.5 -168q-22.5 3 -35.5 7l14 34q28 -7 57 -7q24 0 34.5 7t10.5 21q0 12 -16.5 19.5t-56.5 11.5l44 83l44 -2l-30 -60q80 -9 71 -60q-6 -30 -32 -43.5t-65 -13.5q-17 0 -39.5 3z" />
    <glyph glyph-name="uni0328" unicode="&#x328;" 
d="M-18 -156q-18 13 -18 38q0 67 116 129l36 -5q-42 -21 -70.5 -50t-28.5 -54q0 -26 36 -26q19 0 37 5l3 -36q-28 -14 -63 -14q-30 0 -48 13z" />
    <glyph glyph-name="uni0335" unicode="&#x335;" 
d="M48 305l131 -2l137 2l-9 -47l-135 1l-133 -1z" />
    <glyph glyph-name="uni0336" unicode="&#x336;" 
d="M43 305l316 -2l322 2l-9 -47h-638z" />
    <glyph glyph-name="uni0337" unicode="&#x337;" 
d="M41 235l125 64l131 70l16 -41l-131 -67l-125 -67z" />
    <glyph glyph-name="uni0338" unicode="&#x338;" 
d="M472 536l29 -24l-505 -526l-28 25z" />
    <glyph glyph-name="pi" unicode="&#x3c0;" horiz-adv-x="584" 
d="M387 1.5q-19 16.5 -19 51.5q0 13 3 31l69 392h-252l-83 -476h-55l83 476h-90l8 47h546l-9 -47h-93l-68 -387q-2 -12 -2 -18q0 -37 36 -37q31 0 69 15l4 -44q-52 -20 -88 -20q-40 0 -59 16.5z" />
    <glyph glyph-name="uni0401" unicode="&#x401;" horiz-adv-x="575" 
d="M93 347l59 346h459l-9 -54h-399l-47 -259h378l-9 -54h-378l-47 -272h408l-9 -54h-469zM302.5 813q-8.5 8 -8.5 22q0 21 13.5 34.5t33.5 13.5q17 0 26 -11t6 -28q-4 -18 -16.5 -28.5t-29.5 -10.5q-16 0 -24.5 8zM476.5 869.5q13.5 13.5 33.5 13.5q17 0 26 -11t6 -28
q-4 -18 -16.5 -28.5t-29.5 -10.5q-16 0 -24.5 8t-8.5 22q0 21 13.5 34.5z" />
    <glyph glyph-name="uni0410" unicode="&#x410;" horiz-adv-x="636" 
d="M168 347l195 346h60l74 -346l81 -347h-64l-40 202l-167 2l-160 -2l-111 -202h-70zM315 252l148 2l-18 92l-63 274h-2l-153 -273l-51 -94z" />
    <glyph glyph-name="uni0411" unicode="&#x411;" horiz-adv-x="595" 
d="M93 347l59 346h434l-9 -53h-372l-44 -237h190q103 0 155 -43t52 -123q0 -54 -25 -108t-85.5 -91.5t-161.5 -37.5h-256zM289 53q73 0 120 27.5t68 67.5t21 79q0 123 -149 123h-198l-50 -297h188z" />
    <glyph glyph-name="uni0412" unicode="&#x412;" horiz-adv-x="616" 
d="M93 347l59 346h251q99 0 153 -35.5t54 -109.5q0 -65 -38.5 -120t-129.5 -69v-3q60 -6 96.5 -42.5t36.5 -97.5q0 -94 -68.5 -155t-215.5 -61h-261zM294 53q113 0 167 44t54 116q0 60 -40 88.5t-129 28.5h-198l-47 -277h193zM341 383q103 0 155.5 41t52.5 111q0 57 -37 81
t-117 24h-190l-48 -257h184z" />
    <glyph glyph-name="uni0413" unicode="&#x413;" horiz-adv-x="500" 
d="M93 346l59 347h411l-9 -54h-350l-54 -293l-58 -346h-62z" />
    <glyph glyph-name="uni0414" unicode="&#x414;" horiz-adv-x="690" 
d="M-24 54h40q21 0 37 12.5t32 51.5q55 129 138 575h448l-63 -346l-50 -293h73l-32 -177h-59l22 123h-536l-22 -123h-60zM497 54l53 293l50 292l-165 3l-163 -3q-39 -201 -71.5 -331.5t-53.5 -183.5q-10 -27 -19.5 -43.5t-22.5 -24.5v-2h392z" />
    <glyph glyph-name="uni0415" unicode="&#x415;" horiz-adv-x="575" 
d="M93 347l59 346h459l-9 -54h-399l-47 -259h378l-9 -54h-378l-47 -272h408l-9 -54h-469z" />
    <glyph glyph-name="uni0416" unicode="&#x416;" horiz-adv-x="877" 
d="M542 327h-63l-56 -327h-62l60 327h-56l-322 -327h-77l351 356l-206 337h69l186 -314h64l53 314h62l-57 -314h56l296 314h78l-325 -337l226 -356h-69z" />
    <glyph glyph-name="uni0417" unicode="&#x417;" horiz-adv-x="589" 
d="M152 610.5q35 43.5 91.5 70.5t129.5 27q94 0 149.5 -43t55.5 -121q0 -39 -18 -77.5t-55 -67t-92 -37.5q58 -12 91 -51.5t33 -103.5q0 -53 -27.5 -103.5t-91 -84.5t-163.5 -34q-108 0 -167 55t-58 147l57 15q4 -79 45.5 -121t131.5 -42q76 0 123.5 26t68 64t20.5 75
q0 75 -50.5 104.5t-133.5 29.5h-79l8 47h79q78 0 126.5 23t69.5 57.5t21 71.5q0 55 -39 86t-109 31q-92 0 -144 -46t-69 -105l-53 14q14 50 49 93.5z" />
    <glyph glyph-name="uni0418" unicode="&#x418;" horiz-adv-x="674" 
d="M490 0l62 336l46 264h-2l-236 -283l-259 -317h-71l63 347l59 346h62l-61 -335l-47 -265h2l219 259l276 341h71l-63 -347l-59 -346h-62z" />
    <glyph glyph-name="uni0419" unicode="&#x419;" horiz-adv-x="674" 
d="M490 0l62 336l46 264h-2l-236 -283l-259 -317h-71l63 347l59 346h62l-61 -335l-47 -265h2l219 259l276 341h71l-63 -347l-59 -346h-62zM329 844q0 14 3 30h40q-2 -16 -2 -22q0 -27 14 -39t47 -12q40 0 60 17t28 56h40q-10 -57 -44 -85.5t-91 -28.5q-95 0 -95 84z" />
    <glyph glyph-name="uni041A" unicode="&#x41a;" horiz-adv-x="616" 
d="M225 327h-77l-56 -327h-62l63 347l59 346h62l-57 -314h70l348 314h81l-379 -338l280 -355h-69z" />
    <glyph glyph-name="uni041B" unicode="&#x41b;" horiz-adv-x="682" 
d="M-34 -4l20 52q24 -6 39 -6q19 0 36 14.5t34 53.5q56 138 139 583h448l-63 -346l-59 -347h-62l63 347l50 292l-165 3l-163 -3q-80 -410 -133 -545q-24 -63 -57.5 -84.5t-75.5 -21.5q-24 0 -51 8z" />
    <glyph glyph-name="uni041C" unicode="&#x41c;" horiz-adv-x="803" 
d="M93 345l59 348h77l77 -359l60 -264h2l152 264l203 359h80l-64 -347l-58 -346h-60l62 335l44 249h-3l-159 -273l-178 -311h-62l-69 311l-63 273h-3l-44 -249l-56 -335h-60z" />
    <glyph glyph-name="uni041D" unicode="&#x41d;" horiz-adv-x="691" 
d="M566 325h-419l-55 -325h-62l63 347l59 346h62l-57 -314h419l53 314h62l-64 -346l-58 -347h-62z" />
    <glyph glyph-name="uni041E" unicode="&#x41e;" horiz-adv-x="710" 
d="M124.5 68q-74.5 83 -74.5 226q0 119 45 213t126 147.5t184 53.5q136 0 211 -83t75 -226q0 -118 -45.5 -212.5t-126.5 -148t-184 -53.5q-136 0 -210.5 83zM170.5 106.5q59.5 -67.5 165.5 -67.5q85 0 151.5 46.5t104 129t37.5 185.5q0 120 -59 187t-165 67
q-85 0 -152 -46.5t-104.5 -128.5t-37.5 -185q0 -120 59.5 -187.5z" />
    <glyph glyph-name="uni041F" unicode="&#x41f;" horiz-adv-x="686" 
d="M565 347l50 292l-202 3l-209 -3l-53 -292l-59 -347h-62l63 347l59 346h534l-64 -346l-58 -347h-62z" />
    <glyph glyph-name="uni0420" unicode="&#x420;" horiz-adv-x="600" 
d="M93 347l59 346h241q102 0 161 -44.5t59 -129.5q0 -60 -29.5 -113t-94 -86.5t-163.5 -33.5h-186l-47 -286h-63zM336 339q75 0 123.5 26t70 66t21.5 84q0 62 -41 93.5t-116 31.5h-190l-54 -301h186z" />
    <glyph glyph-name="uni0421" unicode="&#x421;" horiz-adv-x="652" 
d="M178.5 22.5q-63.5 37.5 -96.5 105.5t-33 158q0 123 44 219t124 149.5t183 53.5q118 0 183.5 -64.5t76.5 -173.5l-57 -14q-20 198 -204 198q-85 0 -151 -47t-102 -130.5t-36 -190.5q0 -114 59 -180.5t161 -66.5q85 0 149 54t88 145l54 -15q-20 -72 -63.5 -125.5t-102 -83
t-125.5 -29.5q-88 0 -151.5 37.5z" />
    <glyph glyph-name="uni0422" unicode="&#x422;" horiz-adv-x="534" 
d="M253 347l50 292h-224l10 54h509l-10 -54h-223l-54 -292l-59 -347h-62z" />
    <glyph glyph-name="uni0423" unicode="&#x423;" horiz-adv-x="576" 
d="M25 -5l16 52q27 -5 41 -5q23 0 43 10t47.5 40t67.5 89l-151 512h62l128 -445h2l290 445h69l-346 -526q-51 -78 -87.5 -116.5t-65 -50.5t-64.5 -12q-28 0 -52 7z" />
    <glyph glyph-name="uni0424" unicode="&#x424;" horiz-adv-x="768" 
d="M320 70q-130 4 -201.5 63.5t-71.5 170.5q0 69 36 141t119 123.5t215 54.5l13 75h62l-14 -75q130 -4 201.5 -63.5t71.5 -169.5q0 -69 -36 -141.5t-119 -124t-215 -54.5l-13 -75h-62zM165.5 173.5q55.5 -46.5 163.5 -49.5l41 223l38 222q-109 -3 -175.5 -47t-94.5 -103
t-28 -112q0 -87 55.5 -133.5zM566 171q67 44 95 103.5t28 113.5q0 87 -56.5 132.5t-164.5 48.5l-40 -222l-38 -223q109 3 176 47z" />
    <glyph glyph-name="uni0425" unicode="&#x425;" horiz-adv-x="609" 
d="M284 363l-173 330h67l148 -286h2l250 286h73l-291 -330l190 -363h-66l-167 315h-2l-276 -315h-73z" />
    <glyph glyph-name="uni0426" unicode="&#x426;" horiz-adv-x="695" 
d="M93 346l59 347h62l-63 -347l-50 -292l207 -3l193 3l54 292l59 347h62l-64 -347l-49 -292h73l-32 -177h-59l22 123h-537z" />
    <glyph glyph-name="uni0427" unicode="&#x427;" horiz-adv-x="614" 
d="M82 450q0 32 8 78l29 165h61l-31 -170q-7 -39 -7 -74q0 -72 40 -103.5t128 -31.5q48 0 95.5 6.5t85.5 17.5l2 9l59 346h62l-63 -346l-59 -347h-62l52 285q-44 -12 -93.5 -18.5t-93.5 -6.5q-213 0 -213 190z" />
    <glyph glyph-name="uni0428" unicode="&#x428;" horiz-adv-x="967" 
d="M93 346l59 347h62l-63 -347l-50 -292l157 -3l158 3l54 292l59 347h62l-64 -347l-49 -292l157 -3l158 3l53 292l59 347h62l-63 -347l-59 -346h-815z" />
    <glyph glyph-name="uni0429" unicode="&#x429;" horiz-adv-x="976" 
d="M93 346l59 347h62l-63 -347l-50 -292l157 -3l153 3l54 292l59 347h62l-64 -347l-49 -292l157 -3l153 3l53 292l59 347h62l-63 -347l-50 -292h73l-31 -177h-59l22 123h-819z" />
    <glyph glyph-name="uni042A" unicode="&#x42a;" horiz-adv-x="682" 
d="M207 377l45 262h-173l10 54h233l-49 -265h156q106 0 166 -46.5t60 -132.5q0 -61 -27.5 -117.5t-91 -94t-165.5 -37.5h-232zM379 53q79 0 127 29.5t68.5 73.5t20.5 90q0 64 -41.5 96.5t-120.5 32.5h-169l-54 -322h169z" />
    <glyph glyph-name="uni042B" unicode="&#x42b;" horiz-adv-x="805" 
d="M99 377l53 316h62l-49 -265h147q107 0 167.5 -47t60.5 -133q0 -62 -27 -118t-91 -93t-168 -37h-224zM262 53q79 0 127.5 29.5t69 73t20.5 89.5q0 65 -42 97.5t-121 32.5h-160l-55 -322h161zM684 347l59 346h62l-63 -346l-59 -347h-62z" />
    <glyph glyph-name="uni042C" unicode="&#x42c;" horiz-adv-x="588" 
d="M99 377l53 316h62l-49 -265h168q107 0 167.5 -47t60.5 -133q0 -62 -27 -118t-91 -93t-168 -37h-245zM283 53q79 0 127.5 29.5t69 73t20.5 89.5q0 65 -42 97.5t-121 32.5h-181l-55 -322h182z" />
    <glyph glyph-name="uni042D" unicode="&#x42d;" horiz-adv-x="652" 
d="M98.5 49.5q-65.5 64.5 -76.5 173.5l57 14q20 -198 204 -198q74 0 133.5 35.5t98 100t51.5 150.5l-175 1l-181 -1l10 54l180 -2l171 2q1 9 1 29q0 114 -59 180t-161 66q-85 0 -149 -54t-88 -145l-54 15q20 72 63 126t102 83t126 29q88 0 151.5 -37t96.5 -105t33 -159
q0 -122 -44 -218t-124 -150t-183 -54q-118 0 -183.5 64.5z" />
    <glyph glyph-name="uni042E" unicode="&#x42e;" horiz-adv-x="911" 
d="M398 22.5q-61 37.5 -94 105.5t-33 158q0 26 1 39h-125l-55 -325h-62l63 347l59 346h62l-57 -314h121q16 98 63 172.5t117 115.5t153 41q88 0 151.5 -37t96.5 -105t33 -159q0 -122 -45 -218t-125 -150t-180 -54q-83 0 -144 37.5zM358.5 155.5q25.5 -55.5 73 -86
t110.5 -30.5q83 0 149 47t103 131t37 191q0 114 -59 180t-161 66q-78 0 -141.5 -47t-100 -131t-36.5 -190q0 -75 25.5 -130.5z" />
    <glyph glyph-name="uni042F" unicode="&#x42f;" horiz-adv-x="620" 
d="M436 0l52 285h-175q-74 0 -135 -37t-84 -123q-21 -80 -37 -125h-63q22 53 43 133q18 73 57 115.5t102 62.5q-53 17 -80 57t-27 98q0 53 29 105t95.5 87t171.5 35h235l-63 -346l-59 -347h-62zM192.5 370q42.5 -32 124.5 -32h181l53 302h-180q-117 0 -169 -51.5t-52 -126.5
q0 -60 42.5 -92z" />
    <glyph glyph-name="uni0430" unicode="&#x430;" horiz-adv-x="572" 
d="M77.5 42q-48.5 57 -48.5 156q0 80 29 158t89.5 129.5t149.5 51.5q48 0 85.5 -18.5t59.5 -45.5t29 -53h2l17 103h58l-47 -261l-45 -262h-58l19 103h-2q-26 -49 -77 -83.5t-118 -34.5q-94 0 -142.5 57zM124.5 79q36.5 -44 108.5 -44q73 0 122.5 49.5t72.5 117.5t23 123
q0 82 -43.5 122.5t-107.5 40.5q-73 0 -121 -46.5t-69.5 -112t-21.5 -123.5q0 -83 36.5 -127z" />
    <glyph glyph-name="uni0431" unicode="&#x431;" horiz-adv-x="562" 
d="M96 40q-54 55 -54 166q0 123 36.5 227t112 172.5t188.5 80.5l55 6q74 8 127 16l-9 -52q-26 -4 -75 -10l-50 -6l-40 -5q-111 -13 -175 -81t-90 -181q34 58 91 92.5t130 34.5q85 0 136.5 -52.5t51.5 -147.5q0 -64 -29 -137t-93 -125.5t-162 -52.5q-97 0 -151 55zM142 79
q37 -40 113 -40q75 0 123 40.5t69.5 99.5t21.5 116q0 76 -38.5 114t-104.5 38q-75 0 -124.5 -39t-73 -96t-23.5 -112q0 -81 37 -121z" />
    <glyph glyph-name="uni0432" unicode="&#x432;" horiz-adv-x="518" 
d="M72 262l44 261h208q83 0 124 -26t41 -86q0 -47 -28.5 -88t-99.5 -52l-1 -2q104 -11 104 -110q0 -68 -51.5 -113.5t-170.5 -45.5h-218zM244 49q84 0 124 30t40 81q0 43 -31 63.5t-100 20.5h-153l-33 -195h153zM275 293q79 0 118.5 28.5t39.5 82.5q0 38 -26 54.5t-84 16.5
h-157l-34 -182h143z" />
    <glyph glyph-name="uni0433" unicode="&#x433;" horiz-adv-x="396" 
d="M70 251l46 272h318l-8 -48h-262l-39 -222l-43 -253h-58z" />
    <glyph glyph-name="uni0434" unicode="&#x434;" horiz-adv-x="584" 
d="M-22 51h27q28 0 46 23t33 79q44 161 84 370h368l-49 -261l-35 -211h68l-31 -174h-53l22 123h-436l-22 -123h-53zM394 51l38 211l36 210l-130 1l-124 -1q-41 -199 -74 -321q-10 -37 -23 -61t-32 -37v-2h309z" />
    <glyph glyph-name="uni0435" unicode="&#x435;" horiz-adv-x="526" 
d="M136.5 13.5q-48.5 28.5 -76 81.5t-27.5 125t27.5 145t87.5 122.5t151 49.5q102 0 148 -59t46 -155q0 -30 -5 -70h-395q-1 -10 -1 -30q0 -89 44 -138.5t115 -49.5q61 0 107 38t63 106l54 -15q-22 -81 -81.5 -130t-146.5 -49q-62 0 -110.5 28.5zM436 300q2 22 2 32
q0 71 -34.5 113t-107.5 42q-78 0 -127 -54t-68 -133h335z" />
    <glyph glyph-name="uni0436" unicode="&#x436;" horiz-adv-x="691" 
d="M398 239h-28l-41 -239h-58l43 239h-20l-256 -239h-77l287 267l-161 256h66l143 -231h28l39 231h58l-42 -231h20l225 231h73l-252 -256l193 -267h-69z" />
    <glyph glyph-name="uni0437" unicode="&#x437;" horiz-adv-x="456" 
d="M39.5 25q-48.5 40 -56.5 113l54 14q8 -60 42.5 -88.5t106.5 -28.5q52 0 87.5 17t52.5 44.5t17 58.5q0 93 -145 93h-65l9 48h64q89 0 128 32.5t39 77.5q0 40 -31 60.5t-86 20.5q-123 0 -160 -109l-53 15q18 61 73.5 102.5t143.5 41.5q77 0 124.5 -32t47.5 -91
q0 -56 -36 -93.5t-95 -48.5q48 -9 74 -39.5t26 -78.5q0 -38 -20 -76.5t-69.5 -65.5t-132.5 -27q-91 0 -139.5 40z" />
    <glyph glyph-name="uni0438" unicode="&#x438;" horiz-adv-x="564" 
d="M72 262l45 261h58l-45 -246l-34 -193h2l166 192l210 247h66l-47 -261l-45 -262h-58l45 246l34 193h-2l-179 -208l-197 -231h-67z" />
    <glyph glyph-name="uni0439" unicode="&#x439;" horiz-adv-x="564" 
d="M72 262l45 261h58l-45 -246l-34 -193h2l166 192l210 247h66l-47 -261l-45 -262h-58l45 246l34 193h-2l-179 -208l-197 -231h-67zM276 648.5q-24 22.5 -24 67.5q0 9 4 37h40q-2 -18 -2 -26q0 -28 14 -41t46 -13q39 0 59 18.5t29 61.5h40q-10 -63 -45 -95t-91 -32
q-46 0 -70 22.5z" />
    <glyph glyph-name="uni043A" unicode="&#x43a;" horiz-adv-x="495" 
d="M72 264l44 259h58l-42 -231h30l262 231h76l-291 -256l232 -267h-72l-208 239h-38l-41 -239h-58z" />
    <glyph glyph-name="uni043B" unicode="&#x43b;" horiz-adv-x="577" 
d="M-40 -7l20 48q19 -5 37 -5q28 0 46 22.5t34 78.5q44 160 88 386h368l-49 -261l-43 -262h-59l47 262l36 210l-133 1l-120 -1q-38 -181 -79 -337q-21 -76 -53.5 -113t-86.5 -37q-24 0 -53 8z" />
    <glyph glyph-name="uni043C" unicode="&#x43c;" horiz-adv-x="670" 
d="M71 259l45 264h66l67 -262l49 -191h1l116 191l158 262h73l-48 -260l-44 -263h-57l46 247l32 182h-3l-261 -429h-45l-60 230l-51 199h-2l-31 -181l-42 -248h-56z" />
    <glyph glyph-name="uni043D" unicode="&#x43d;" horiz-adv-x="576" 
d="M444 240l-158 1l-164 -1l-39 -240h-59l48 262l44 261h59l-44 -232l163 -1l159 1l40 232h59l-49 -261l-43 -262h-59z" />
    <glyph glyph-name="uni043E" unicode="&#x43e;" horiz-adv-x="556" 
d="M135 13q-49 28 -76 81t-27 126q0 72 28 145t90.5 122.5t158.5 49.5q63 0 112 -28t76 -81t27 -125q0 -73 -28 -146t-90.5 -122.5t-158.5 -49.5q-63 0 -112 28zM135 84q44 -49 116 -49t120.5 42t71 103t22.5 120q0 89 -44 138t-116 49t-120.5 -41.5t-71 -102.5t-22.5 -120
q0 -90 44 -139z" />
    <glyph glyph-name="uni043F" unicode="&#x43f;" horiz-adv-x="568" 
d="M441 262l36 211l-150 1l-161 -1l-40 -211l-43 -262h-59l48 262l44 261h428l-48 -261l-44 -262h-59z" />
    <glyph glyph-name="uni0440" unicode="&#x440;" horiz-adv-x="573" 
d="M68 242l48 281h59l-19 -103h2q24 48 77 82.5t118 34.5q93 0 141.5 -57t48.5 -156q0 -80 -29 -158t-89 -129.5t-149 -51.5q-49 0 -86.5 18.5t-59 46t-28.5 54.5h-2l-46 -264h-59zM164 76.5q43 -41.5 105 -41.5q74 0 123 46.5t71 112t22 123.5q0 83 -36.5 127t-109.5 44
q-76 0 -125 -48.5t-71 -115.5t-22 -123q0 -83 43 -124.5z" />
    <glyph glyph-name="uni0441" unicode="&#x441;" horiz-adv-x="493" 
d="M133.5 13q-47.5 28 -74.5 81.5t-27 125.5t27.5 145t88 122.5t151.5 49.5q88 0 139.5 -48.5t59.5 -130.5l-53 -14q-17 143 -150 143q-68 0 -114 -41.5t-68 -103t-22 -119.5q0 -89 43 -138.5t112 -49.5q60 0 106.5 37.5t63.5 105.5l54 -15q-21 -81 -81 -129.5t-147 -48.5
q-61 0 -108.5 28z" />
    <glyph glyph-name="uni0442" unicode="&#x442;" horiz-adv-x="426" 
d="M186 260l37 215h-182l9 48h419l-9 -48h-179l-40 -215l-44 -260h-58z" />
    <glyph glyph-name="uni0443" unicode="&#x443;" horiz-adv-x="493" 
d="M-27 -162l18 46q29 -6 55 -6q35 0 62.5 27t68.5 99l-123 519h58l102 -444h2l253 444h62l-320 -556q-45 -80 -86.5 -109.5t-83.5 -29.5q-38 0 -68 10z" />
    <glyph glyph-name="uni0444" unicode="&#x444;" horiz-adv-x="711" 
d="M278 -15q-71 3 -127 34.5t-87.5 84t-31.5 118.5q0 72 33 143.5t110 120.5t201 51l27 157h58l-28 -157q72 -3 128 -34t87 -84t31 -119q0 -72 -32.5 -143t-109.5 -120.5t-202 -51.5l-25 -145h-58zM146 92.5q55 -52.5 142 -57.5l43 239l36 213q-95 -2 -157 -43t-90.5 -99
t-28.5 -114q0 -86 55 -138.5zM501.5 78q62.5 41 91 99.5t28.5 113.5q0 87 -55 139.5t-142 56.5l-38 -213l-42 -239q95 2 157.5 43z" />
    <glyph glyph-name="uni0445" unicode="&#x445;" horiz-adv-x="481" 
d="M208 269l-144 254h64l118 -211h2l190 211h70l-232 -254l152 -269h-63l-128 225h-2l-203 -225h-71z" />
    <glyph glyph-name="uni0446" unicode="&#x446;" horiz-adv-x="581" 
d="M72 262l44 261h59l-49 -261l-35 -211l161 -2l139 2l38 211l45 261h59l-49 -261l-35 -211h68l-31 -174h-53l22 123h-431z" />
    <glyph glyph-name="uni0447" unicode="&#x447;" horiz-adv-x="504" 
d="M98.5 221.5q-39.5 35.5 -39.5 109.5q0 25 7 69l21 123h57l-22 -127q-6 -34 -6 -62q0 -51 28 -74t96 -23q61 0 136 15l2 10l44 261h58l-47 -261l-45 -262h-58l38 205q-84 -19 -150 -19q-80 0 -119.5 35.5z" />
    <glyph glyph-name="uni0448" unicode="&#x448;" horiz-adv-x="828" 
d="M72 262l44 261h59l-49 -261l-35 -211l129 -2l128 2l38 211l44 261h59l-48 -261l-35 -211l128 -2l128 2l38 211l45 261h59l-49 -261l-43 -262h-688z" />
    <glyph glyph-name="uni0449" unicode="&#x449;" horiz-adv-x="842" 
d="M716 0h-692l48 262l44 261h59l-49 -261l-35 -211l129 -2l123 2l38 211l44 261h59l-48 -261l-35 -211l128 -2l123 2l38 211l45 261h59l-49 -261l-35 -211h68l-31 -174h-53z" />
    <glyph glyph-name="uni044A" unicode="&#x44a;" horiz-adv-x="568" 
d="M172 262l36 212h-168l9 49h225l-36 -200h113q88 0 134 -34t46 -108q0 -44 -22 -85t-72.5 -68.5t-131.5 -27.5h-181zM309 49q89 0 127 40t38 93q0 48 -30 70t-91 22h-124l-38 -225h118z" />
    <glyph glyph-name="uni044B" unicode="&#x44b;" horiz-adv-x="698" 
d="M72 262l44 261h58l-36 -200h113q88 0 134 -34t46 -108q0 -44 -22 -85t-72.5 -68.5t-131.5 -27.5h-181zM209 49q89 0 127 39.5t38 93.5q0 47 -30 69.5t-91 22.5h-124l-38 -225h118zM572 262l44 261h58l-47 -261l-45 -262h-58z" />
    <glyph glyph-name="uni044C" unicode="&#x44c;" horiz-adv-x="480" 
d="M72 262l44 261h58l-36 -200h125q88 0 134 -34t46 -108q0 -44 -22 -85t-72.5 -68.5t-131.5 -27.5h-193zM221 49q89 0 127 39.5t38 92.5q0 93 -121 93h-136l-38 -225h130z" />
    <glyph glyph-name="uni044D" unicode="&#x44d;" horiz-adv-x="487" 
d="M49 34q-52 49 -60 131l54 13q17 -143 150 -143q83 0 133 60.5t65 144.5l-104 1l-139 -1l9 51l138 -1l102 1v9q0 89 -43 138t-112 49q-60 0 -106.5 -37.5t-63.5 -105.5l-49 14q21 81 80 130t143 49q61 0 108.5 -27t74.5 -78.5t27 -123.5q0 -75 -27.5 -149t-87.5 -124
t-152 -50q-88 0 -140 49z" />
    <glyph glyph-name="uni044E" unicode="&#x44e;" horiz-adv-x="752" 
d="M348 12q-46 27 -72.5 79t-26.5 124l1 25l-52 1l-75 -1l-41 -240h-58l48 262l44 261h58l-42 -232l74 -1l50 1q19 103 83.5 174.5t176.5 71.5q59 0 105 -27t72.5 -78.5t26.5 -123.5q0 -75 -27.5 -149t-87.5 -124t-152 -50q-59 0 -105 27zM350 84.5q42 -49.5 108 -49.5
q68 0 113.5 42t67.5 103.5t22 119.5q0 89 -42 138t-107 49q-68 0 -114 -41.5t-68 -103t-22 -119.5q0 -89 42 -138.5z" />
    <glyph glyph-name="uni044F" unicode="&#x44f;" horiz-adv-x="515" 
d="M22 102q15 54 45.5 85t80.5 45q-43 14 -65.5 45.5t-22.5 75.5q0 41 21.5 79.5t74.5 64.5t143 26h192l-48 -261l-44 -262h-60l38 208h-132q-56 0 -103 -26.5t-63 -86.5q-20 -70 -30 -95h-62q18 41 35 102zM152 281q33 -24 96 -24h138l37 216h-133q-91 0 -131 -36t-40 -84
t33 -72z" />
    <glyph glyph-name="uni0451" unicode="&#x451;" horiz-adv-x="526" 
d="M136.5 13.5q-48.5 28.5 -76 81.5t-27.5 125t27.5 145t87.5 122.5t151 49.5q102 0 148 -59t46 -155q0 -30 -5 -70h-395q-1 -10 -1 -30q0 -89 44 -138.5t115 -49.5q61 0 107 38t63 106l54 -15q-22 -81 -81.5 -130t-146.5 -49q-62 0 -110.5 28.5zM436 300q2 22 2 32
q0 71 -34.5 113t-107.5 42q-78 0 -127 -54t-68 -133h335zM231.5 643q-8.5 8 -8.5 22q0 21 13.5 34.5t33.5 13.5q17 0 26 -11t6 -28q-4 -18 -16.5 -28.5t-29.5 -10.5q-16 0 -24.5 8zM405.5 699.5q13.5 13.5 33.5 13.5q17 0 26 -11t6 -28q-4 -18 -16.5 -28.5t-29.5 -10.5
q-16 0 -24.5 8t-8.5 22q0 21 13.5 34.5z" />
    <glyph glyph-name="Wgrave" unicode="&#x1e80;" horiz-adv-x="931" 
d="M139 347l-45 346h63l35 -346l31 -271h2l128 271l159 346h55l39 -346l32 -271h1l126 271l157 346h67l-167 -346l-163 -347h-63l-41 347l-30 245h-2l-116 -245l-163 -347h-63zM464 869h71l38 -107h-39z" />
    <glyph glyph-name="wgrave" unicode="&#x1e81;" horiz-adv-x="737" 
d="M54 523h55l54 -459h1l221 459h55l55 -459h1l219 459h60l-255 -523h-65l-55 437h-2l-211 -437h-65zM349 767h67l37 -132h-39z" />
    <glyph glyph-name="Wacute" unicode="&#x1e82;" horiz-adv-x="931" 
d="M139 347l-45 346h63l35 -346l31 -271h2l128 271l159 346h55l39 -346l32 -271h1l126 271l157 346h67l-167 -346l-163 -347h-63l-41 347l-30 245h-2l-116 -245l-163 -347h-63zM516 762l75 107h71l-107 -107h-39z" />
    <glyph glyph-name="wacute" unicode="&#x1e83;" horiz-adv-x="737" 
d="M54 523h55l54 -459h1l221 459h55l55 -459h1l219 459h60l-255 -523h-65l-55 437h-2l-211 -437h-65zM396 635l83 132h68l-112 -132h-39z" />
    <glyph glyph-name="Wdieresis" unicode="&#x1e84;" horiz-adv-x="931" 
d="M139 347l-45 346h63l35 -346l31 -271h2l128 271l159 346h55l39 -346l32 -271h1l126 271l157 346h67l-167 -346l-163 -347h-63l-41 347l-30 245h-2l-116 -245l-163 -347h-63zM445 769.5q-9 8.5 -9 22.5q0 21 13.5 34t33.5 13q15 0 24 -8.5t9 -22.5q0 -21 -13.5 -34
t-33.5 -13q-15 0 -24 8.5zM618.5 826q13.5 13 33.5 13q15 0 24 -8.5t9 -22.5q0 -21 -13.5 -34t-33.5 -13q-15 0 -24 8.5t-9 22.5q0 21 13.5 34z" />
    <glyph glyph-name="wdieresis" unicode="&#x1e85;" horiz-adv-x="737" 
d="M54 523h55l54 -459h1l221 459h55l55 -459h1l219 459h60l-255 -523h-65l-55 437h-2l-211 -437h-65zM325.5 643q-8.5 8 -8.5 22q0 21 13.5 34.5t33.5 13.5q17 0 26 -11t6 -28q-4 -18 -16.5 -28.5t-29.5 -10.5q-16 0 -24.5 8zM499.5 699.5q13.5 13.5 33.5 13.5q17 0 26 -11
t6 -28q-4 -18 -16.5 -28.5t-29.5 -10.5q-16 0 -24.5 8t-8.5 22q0 21 13.5 34.5z" />
    <glyph glyph-name="Ygrave" unicode="&#x1ef2;" horiz-adv-x="570" 
d="M255 256l-171 437h65l142 -370h3l272 370h73l-326 -437l-43 -256h-62zM284 869h71l38 -107h-39z" />
    <glyph glyph-name="ygrave" unicode="&#x1ef3;" horiz-adv-x="493" 
d="M-27 -162l18 46q29 -6 55 -6q35 0 62.5 27t68.5 99l-123 519h58l102 -444h2l253 444h62l-320 -556q-45 -80 -86.5 -109.5t-83.5 -29.5q-38 0 -68 10zM227 767h67l37 -132h-39z" />
    <glyph glyph-name="uni2002" unicode="&#x2002;" horiz-adv-x="500" 
 />
    <glyph glyph-name="uni2003" unicode="&#x2003;" horiz-adv-x="1000" 
 />
    <glyph glyph-name="uni2004" unicode="&#x2004;" horiz-adv-x="333" 
 />
    <glyph glyph-name="uni2005" unicode="&#x2005;" horiz-adv-x="250" 
 />
    <glyph glyph-name="uni2006" unicode="&#x2006;" horiz-adv-x="167" 
 />
    <glyph glyph-name="uni2007" unicode="&#x2007;" horiz-adv-x="600" 
 />
    <glyph glyph-name="uni2008" unicode="&#x2008;" horiz-adv-x="198" 
 />
    <glyph glyph-name="uni200B" unicode="&#x200b;" 
 />
    <glyph glyph-name="uni200C" unicode="&#x200c;" 
 />
    <glyph glyph-name="uni2010" unicode="&#x2010;" horiz-adv-x="343" 
d="M50 320h263l-9 -54h-263z" />
    <glyph glyph-name="figuredash" unicode="&#x2012;" horiz-adv-x="583" 
d="M51 320h500l-7 -54h-501z" />
    <glyph glyph-name="endash" unicode="&#x2013;" horiz-adv-x="503" 
d="M11 320h500l-7 -54h-501z" />
    <glyph glyph-name="emdash" unicode="&#x2014;" horiz-adv-x="1000" 
d="M10 320h1000l-9 -54h-1000z" />
    <glyph glyph-name="quoteleft" unicode="&#x2018;" horiz-adv-x="177" 
d="M169.5 665q-19.5 -19 -19.5 -41q34 -5 34 -36q0 -23 -14 -37t-36 -14q-17 0 -28.5 10.5t-11.5 29.5q0 25 11 55.5t39.5 56.5t77.5 31l3 -27q-36 -9 -55.5 -28z" />
    <glyph glyph-name="quoteright" unicode="&#x2019;" horiz-adv-x="177" 
d="M137.5 595q19.5 19 19.5 41q-34 5 -34 36q0 23 14 37t36 14q17 0 28.5 -10.5t11.5 -29.5q0 -25 -11 -55.5t-39.5 -56.5t-77.5 -31l-3 27q36 9 55.5 28z" />
    <glyph glyph-name="quotesinglbase" unicode="&#x201a;" horiz-adv-x="177" 
d="M23.5 -52q19.5 19 19.5 41q-34 5 -34 36q0 23 14 37t36 14q17 0 28.5 -10.5t11.5 -29.5q0 -25 -11 -55.5t-39.5 -56.5t-77.5 -31l-3 27q36 9 55.5 28z" />
    <glyph glyph-name="quotedblleft" unicode="&#x201c;" horiz-adv-x="304" 
d="M296.5 663q-19.5 -19 -19.5 -41q34 -5 34 -36q0 -23 -14 -37t-36 -14q-17 0 -28.5 10.5t-11.5 29.5q0 25 11 55.5t39.5 56.5t77.5 31l3 -27q-36 -9 -55.5 -28zM104.5 629q10.5 31 39 57.5t78.5 31.5l3 -27q-36 -9 -55.5 -28t-19.5 -41q34 -5 34 -36q0 -23 -14 -37
t-36 -14q-18 0 -29 9.5t-11 28.5q0 25 10.5 56z" />
    <glyph glyph-name="quotedblright" unicode="&#x201d;" horiz-adv-x="304" 
d="M137.5 593q19.5 19 19.5 41q-34 5 -34 36q0 23 14 37t36 14q17 0 28.5 -10.5t11.5 -29.5q0 -25 -11 -55.5t-39.5 -56.5t-77.5 -31l-3 27q36 9 55.5 28zM264.5 593q19.5 19 19.5 41q-34 5 -34 36q0 23 14 37t36 14q17 0 28.5 -10.5t11.5 -29.5q0 -25 -11 -55.5
t-39.5 -56.5t-77.5 -31l-3 27q36 9 55.5 28z" />
    <glyph glyph-name="quotedblbase" unicode="&#x201e;" horiz-adv-x="304" 
d="M23.5 -52q19.5 19 19.5 41q-34 5 -34 36q0 23 14 37t36 14q17 0 28.5 -10.5t11.5 -29.5q0 -25 -11 -55.5t-39.5 -56.5t-77.5 -31l-3 27q36 9 55.5 28zM150.5 -52q19.5 19 19.5 41q-34 5 -34 36q0 23 14 37t36 14q17 0 28.5 -10.5t11.5 -29.5q0 -25 -11 -55.5t-39.5 -56.5
t-77.5 -31l-3 27q36 9 55.5 28z" />
    <glyph glyph-name="dagger" unicode="&#x2020;" horiz-adv-x="331" 
d="M274 693l-25 -127l124 3l-10 -59l-124 3l-50 -303h-64l56 303l-124 -3l10 59l124 -3l19 127h64z" />
    <glyph glyph-name="daggerdbl" unicode="&#x2021;" horiz-adv-x="331" 
d="M146 312l-125 -3l11 59l123 -3l12 87l19 86l-125 -3l10 59l124 -3l15 102h64l-21 -102l124 3l-10 -59l-123 3l-13 -86l-18 -87l125 3l-11 -59l-123 3l-15 -102h-64z" />
    <glyph glyph-name="bullet" unicode="&#x2022;" horiz-adv-x="281" 
d="M86.5 215.5q-16.5 14.5 -16.5 43.5q0 38 23 61t62 23q30 0 46 -14.5t16 -42.5q0 -31 -20.5 -58t-62.5 -27q-31 0 -47.5 14.5z" />
    <glyph glyph-name="ellipsis" unicode="&#x2026;" horiz-adv-x="593" 
d="M22.5 -6q-10.5 9 -10.5 27q0 24 14.5 38.5t38.5 14.5q19 0 29 -9.5t10 -26.5q0 -19 -13 -36t-39 -17q-19 0 -29.5 9zM220.5 -6q-10.5 9 -10.5 27q0 24 14.5 38.5t38.5 14.5q19 0 29 -9.5t10 -26.5q0 -19 -13 -36t-39 -17q-19 0 -29.5 9zM417.5 -6q-10.5 9 -10.5 27
q0 24 14.5 38.5t38.5 14.5q19 0 29 -9.5t10 -26.5q0 -19 -13 -36t-39 -17q-19 0 -29.5 9z" />
    <glyph glyph-name="uni202F" unicode="&#x202f;" horiz-adv-x="225" 
 />
    <glyph glyph-name="perthousand" unicode="&#x2030;" horiz-adv-x="931" 
d="M556 693h58l-429 -693h-57zM141 654.5q45 43.5 109 43.5q54 0 83.5 -31.5t29.5 -85.5q0 -22 -4 -41q-13 -73 -57.5 -118t-108.5 -45q-54 0 -83.5 32.5t-29.5 88.5q0 22 4 42q12 71 57 114.5zM134 506q0 -39 17.5 -62t49.5 -23q39 0 67.5 33t37.5 86q3 17 3 32
q0 38 -17.5 60.5t-49.5 22.5q-39 0 -67.5 -32.5t-37.5 -82.5q-3 -18 -3 -34zM434 264q45 44 109 44q75 0 102 -59q22 28 53 43.5t69 15.5q55 0 84.5 -32t29.5 -88q0 -11 -4 -39q-14 -73 -58.5 -118t-108.5 -45q-38 0 -63.5 16t-37.5 45q-48 -61 -123 -61q-54 0 -83.5 32.5
t-29.5 88.5q0 22 4 42q12 71 57 115zM427 115q0 -39 17 -62t49 -23q39 0 68 33.5t38 85.5q3 17 3 32q0 38 -17.5 61t-49.5 23q-39 0 -68 -32.5t-37 -83.5q-3 -18 -3 -34zM651 114q0 -38 17.5 -61t49.5 -23q39 0 67.5 33.5t38.5 85.5q3 17 3 31q0 38 -18 61.5t-50 23.5
q-39 0 -67.5 -32.5t-36.5 -83.5q-4 -24 -4 -35z" />
    <glyph glyph-name="guilsinglleft" unicode="&#x2039;" horiz-adv-x="303" 
d="M37 245l6 31l210 194l31 -30l-185 -183l120 -184l-36 -26z" />
    <glyph glyph-name="guilsinglright" unicode="&#x203a;" horiz-adv-x="304" 
d="M265 271l-6 -31l-210 -194l-31 30l185 183l-120 184l36 26z" />
    <glyph glyph-name="uni207F" unicode="&#x207f;" horiz-adv-x="387" 
d="M103 524l27 165h59l-11 -54h1q19 28 50.5 45t70.5 17q90 0 90 -88q0 -22 -4 -43l-7 -42l-26 -152h-59l28 152l6 35q2 10 2 26q0 61 -60 61q-39 0 -69 -27t-37 -69l-4 -26l-27 -152h-58z" />
    <glyph glyph-name="franc" unicode="&#x20a3;" horiz-adv-x="535" 
d="M73 132h-84l9 49h84l32 176l56 326h414l-10 -54h-353l-45 -245h328l-9 -53h-328l-25 -150h190l-9 -49h-189l-21 -122h-62z" />
    <glyph glyph-name="lira" unicode="&#x20a4;" horiz-adv-x="597" 
d="M28.5 15q-24.5 22 -24.5 61q0 38 30 62t77 24q27 0 54 -9.5t59 -26.5q20 40 20 86q0 19 -3 35h-182l7 42h163q-12 31 -32 70h-118l7 42h92q-24 57 -24 111q0 44 20 86t67.5 71t124.5 29q113 0 159.5 -58.5t43.5 -151.5l-57 -15q3 83 -30 127t-119 44q-54 0 -87 -21
t-46.5 -51t-13.5 -58q0 -48 27 -113h218l-7 -42h-193q17 -36 29 -70h151l-7 -42h-133q3 -16 3 -33q0 -26 -9 -56.5t-26 -58.5q44 -27 73.5 -41t56.5 -14q35 0 59.5 33t36.5 118l52 -15q-28 -187 -149 -187q-39 0 -74 17t-84 49q-59 -66 -141 -66q-46 0 -70.5 22zM107 42
q50 0 91 44q-25 14 -45.5 22t-41.5 8q-25 0 -38.5 -10t-13.5 -28q0 -36 48 -36z" />
    <glyph glyph-name="uni20A6" unicode="&#x20a6;" horiz-adv-x="684" 
d="M106 330h-81l8 46h81l53 307h70l139 -307h180l52 307h62l-57 -307h78l-7 -46h-79l-54 -320h-70l-140 307l-6 13h-172l-54 -320h-61zM313 376l-102 215h-2l-38 -215h142zM506 102h2l40 228h-151z" />
    <glyph glyph-name="peseta" unicode="&#x20a7;" horiz-adv-x="644" 
d="M97 347l19 108h-69l8 46h69l32 187h235q225 0 225 -159q0 -8 -2 -28h60l-9 -46h-60q-25 -101 -97 -148t-193 -47h-175l-42 -255h-63zM330 313q87 0 140.5 34.5t73.5 107.5h-369l-26 -142h181zM553 501q5 68 -36 101t-130 33h-180l-24 -134h370z" />
    <glyph glyph-name="uni20A8" unicode="&#x20a8;" horiz-adv-x="1020" 
d="M93 347l58 336h215q205 0 205 -151q0 -20 -5 -48q-11 -65 -50.5 -109.5t-103.5 -62.5q45 -16 66.5 -49t21.5 -88q0 -10 -2 -36q-2 -24 -4 -66t0 -62h-57q0 45 7 121q1 7 1 20q0 72 -42 104.5t-106 32.5h-161l-46 -278h-58zM310 337q84 0 136 39t65 108q3 20 3 37
q0 113 -152 113h-165l-52 -297h165zM653 158q-2 -14 -2 -20q0 -44 30.5 -70t90.5 -26t98.5 26.5t47.5 74.5q2 12 2 19q0 34 -27.5 55t-88.5 30q-78 11 -110 39t-32 73q0 16 3 34q12 66 62 102.5t123 36.5q152 0 144 -146l-48 -12q3 57 -21.5 84t-81.5 27t-92.5 -28.5
t-35.5 -85.5q0 -32 23 -49.5t76 -25.5q84 -13 121 -43t37 -79q0 -13 -3 -30q-11 -67 -67 -107.5t-140 -40.5q-82 0 -123.5 38.5t-34.5 110.5z" />
    <glyph glyph-name="uni20A9" unicode="&#x20a9;" horiz-adv-x="931" 
d="M142 330h-127l8 46h113l-42 317h66l32 -317h177l147 317h53l36 -317h177l143 317h64l-153 -317h110l-8 -46h-124l-155 -330h-63l-39 330h-158l-155 -330h-63zM226 73h1l121 257h-151zM551 376l-26 216h-2l-102 -216h130zM640 73h2l119 257h-151z" />
    <glyph glyph-name="uni20AA" unicode="&#x20aa;" horiz-adv-x="786" 
d="M152 688h254q82 0 121.5 -33.5t39.5 -101.5q0 -31 -5 -56l-52 -295h-53l50 287q4 21 4 45q0 52 -29.5 76t-91.5 24h-190l-111 -627h-58zM317 506h52l-79 -445h198q69 0 105 35t50 115l85 477h57l-86 -488q-18 -100 -69.5 -146.5t-144.5 -46.5h-256z" />
    <glyph glyph-name="dong" unicode="&#x20ab;" horiz-adv-x="579" 
d="M126.5 118.5q-38.5 23.5 -59 64t-20.5 90.5q0 24 4 44q11 59 45.5 109.5t86.5 80.5t113 30q65 0 105 -31t51 -76h2l31 179h-1l-132 -1l8 47l131 -2h1l7 41h59l-7 -40l62 1l-8 -47l-63 1l-49 -272l-38 -227h-58l16 88h-2q-26 -42 -77.5 -72.5t-115.5 -30.5
q-53 0 -91.5 23.5zM-4 42h504l-7 -42h-504zM106 284q0 -59 34.5 -99t96.5 -40q37 0 79 18.5t75.5 57.5t43.5 96q3 15 3 30q0 41 -19 73.5t-51 50t-70 17.5q-48 0 -88.5 -24t-66.5 -63.5t-34 -83.5q-3 -16 -3 -33z" />
    <glyph glyph-name="Euro" unicode="&#x20ac;" horiz-adv-x="691" 
d="M197 71.5q-70 68.5 -79 185.5h-106l8 44h97q2 54 10 96h-90l7 44h94q34 115 117 182t196 67t175 -61t72 -165l-56 -13q-19 187 -192 187q-89 0 -154 -52.5t-95 -144.5h302l-8 -44h-306q-9 -40 -11 -96h300l-7 -44h-292q8 -94 62 -147.5t143 -53.5q82 0 142.5 50t82.5 138
l53 -15q-30 -103 -106 -164.5t-172 -61.5q-117 0 -187 68.5z" />
    <glyph glyph-name="uni20AD" unicode="&#x20ad;" horiz-adv-x="643" 
d="M229 330h-52l-54 -320h-62l58 320h-94l8 46h94l53 307h62l-57 -307h52l349 307h78l-354 -307h281l-8 -46h-277l262 -320h-73z" />
    <glyph glyph-name="uni20AE" unicode="&#x20ae;" horiz-adv-x="534" 
d="M233 237l-174 -60l9 48l174 59l10 60l-174 -60l8 48l175 60l42 247h-224l10 54h509l-10 -54h-223l-42 -226l173 59l-9 -48l-173 -59l-3 -18l-7 -41l173 59l-9 -48l-172 -59l-44 -258h-62z" />
    <glyph glyph-name="uni20B1" unicode="&#x20b1;" horiz-adv-x="644" 
d="M97 347l10 56h-69l7 40h69l10 60h-69l7 40h69l25 145h235q215 0 224 -145h66l-7 -40h-60l-3 -22q-3 -20 -9 -38h61l-7 -40h-68q-33 -73 -101 -108t-172 -35h-175l-42 -255h-63zM330 313q141 0 193 90h-358l-16 -90h181zM541 443q1 5 4.5 16.5t4.5 21.5l3 22h-370l-11 -60
h369zM551 543q-16 92 -164 92h-180l-17 -92h361z" />
    <glyph glyph-name="uni20B2" unicode="&#x20b2;" horiz-adv-x="662" 
d="M441 758l-13 -71q105 -7 158.5 -67t60.5 -160l-58 -14q-5 80 -47.5 130t-122.5 57l-49 -280h263l-30 -156l-23 -177h-46l13 116q-35 -61 -97 -95t-142 -36l-14 -80h-49l15 83q-97 13 -155.5 86t-58.5 185q0 87 33 178.5t108 157.5t193 72l12 71h49zM150 131.5
q43 -56.5 119 -69.5l101 571q-91 -7 -150 -62t-86 -134t-27 -159q0 -90 43 -146.5zM480.5 119.5q61.5 58.5 87.5 181.5l-208 -2l-42 -240q101 2 162.5 60.5z" />
    <glyph glyph-name="uni20B8" unicode="&#x20b8;" horiz-adv-x="534" 
d="M238 262l39 232h-223l9 54h509l-9 -54h-224l-43 -232l-44 -262h-62zM89 693h509l-9 -53h-509z" />
    <glyph glyph-name="uni20B9" unicode="&#x20b9;" horiz-adv-x="516" 
d="M38 304l9 49h141q82 0 135.5 29t73.5 87h-329l8 49h331q3 59 -38.5 92.5t-121.5 33.5h-149l9 49h472l-8 -49h-163q28 -23 42 -55t11 -71h87l-8 -49h-88q-49 -165 -276 -165h-57l265 -302h-79z" />
    <glyph glyph-name="uni20BA" unicode="&#x20ba;" horiz-adv-x="538" 
d="M122 271l-114 -39l8 48l115 39l10 59l-114 -39l8 48l115 39l45 257h60l-42 -235l231 79l-9 -48l-230 -79l-11 -59l231 79l-9 -48l-230 -79l-41 -230q135 0 215.5 52.5t101.5 158.5l55 -7q-25 -125 -125.5 -191t-262.5 -66h-53z" />
    <glyph glyph-name="uni20BC" unicode="&#x20bc;" horiz-adv-x="629" 
d="M155 459q71 72 181 78l30 169h54l-30 -171q87 -9 135.5 -63t48.5 -144q0 -31 -6 -67l-44 -251h-59l45 253q6 33 6 62q0 70 -34.5 110t-100.5 48l-84 -473h-54l84 473q-81 -8 -135 -65t-72 -155l-45 -253h-58l44 251q23 126 94 198z" />
    <glyph glyph-name="uni20BD" unicode="&#x20bd;" horiz-adv-x="636" 
d="M125 313l6 34l57 336h236q225 0 225 -155q0 -19 -5 -47q-20 -114 -93.5 -167.5t-201.5 -53.5h-175l-17 -100h211l-8 -50h-211l-17 -100h-63l18 100h-101l8 50h103l18 100h-103l10 53h103zM363 313q95 0 150 41t70 127q3 18 3 35q0 114 -167 114h-180l-50 -283l-6 -34h180
z" />
    <glyph glyph-name="uni2113" unicode="&#x2113;" horiz-adv-x="459" 
d="M81 94q0 35 13 85l-64 -41l-10 34l90 60l102 299q28 82 79 127t109 45q39 0 61.5 -22t22.5 -62q0 -14 -3 -29q-15 -84 -89.5 -170.5t-232.5 -195.5q-12 -37 -18.5 -63t-6.5 -49q0 -64 66 -64q42 0 85 23t91 70l20 -28q-55 -58 -108 -86.5t-109 -28.5q-98 0 -98 96z
M364.5 445q60.5 72 72.5 143q2 14 2 19q0 25 -13 38.5t-35 13.5q-36 0 -69.5 -34t-54.5 -93l-87 -251q124 92 184.5 164z" />
    <glyph glyph-name="uni2116" unicode="&#x2116;" horiz-adv-x="1045" 
d="M93 346l59 347h69l158 -341l127 -259h3l47 265l56 335h62l-63 -346l-59 -347h-69l-148 318l-137 282h-3l-46 -264l-57 -336h-62zM785.5 397q-33.5 34 -33.5 93q0 22 4 41q13 76 62.5 121t118.5 45q59 0 92 -33.5t33 -91.5q0 -22 -4 -41q-13 -77 -62 -122.5t-118 -45.5
q-59 0 -92.5 34zM716 298h302l-9 -49h-302zM812 496q0 -40 19 -62t55 -22q43 0 73 32t40 87q3 18 3 34q0 39 -19 61t-55 22q-43 0 -73 -31t-40 -86q-3 -18 -3 -35z" />
    <glyph glyph-name="trademark" unicode="&#x2122;" horiz-adv-x="698" 
d="M156 510l23 137h-102l8 47h258l-8 -47h-102l-25 -137l-27 -163h-55zM359 517l30 177h69l30 -162l25 -118h2l154 280h68l-31 -171l-29 -176h-51l29 157l21 116h-1l-71 -125l-80 -148h-43l-29 148l-27 125h-1l-20 -116l-26 -157h-50z" />
    <glyph glyph-name="uni2126" unicode="&#x2126;" horiz-adv-x="722" 
d="M21 54l174 -3q-64 58 -102.5 124t-38.5 158q0 38 7 76q14 81 65.5 149t133 109t180.5 41q84 0 147 -31.5t97 -87t34 -126.5q0 -22 -5 -54q-15 -87 -55.5 -153t-89 -111t-116.5 -94l177 3l-9 -54h-240l8 48l18 13q72 56 115.5 97t79.5 101.5t50 142.5q5 28 5 49
q0 60 -27 106.5t-78 72.5t-120 26q-75 0 -141 -31.5t-111 -89.5t-59 -133q-7 -38 -7 -74q0 -63 20 -111.5t47.5 -82.5t78.5 -86l-8 -48h-240z" />
    <glyph glyph-name="estimated" unicode="&#x212e;" horiz-adv-x="799" 
d="M202 33q-71 36 -114 102.5t-43 152.5q0 30 6 61q16 94 78.5 175.5t155 130t193.5 48.5q83 0 153.5 -35t113 -100t42.5 -152q0 -30 -6 -63l-2 -8h-610q-6 0 -7 -4l-33 -186q-3 -21 24 -55.5t80 -60.5t124 -26q68 0 135 31t120 85l53 5q-61 -64 -144 -100.5t-168 -36.5
q-80 0 -151 36zM172 360h487l7 6l32 181q5 28 -24.5 61.5t-82.5 56.5t-115 23q-63 0 -125.5 -25.5t-105.5 -59.5t-47 -57l-31 -180q-1 -6 5 -6z" />
    <glyph glyph-name="arrowleft" unicode="&#x2190;" horiz-adv-x="636" 
d="M169 326h412l-10 -58h-413l101 -198h-58l-118 226l198 231h59z" />
    <glyph glyph-name="arrowup" unicode="&#x2191;" horiz-adv-x="636" 
d="M388 471l-73 -412h-57l73 413l-223 -136l10 58l255 158l202 -158l-10 -58z" />
    <glyph glyph-name="arrowright" unicode="&#x2192;" horiz-adv-x="636" 
d="M485 244h-412l11 58h412l-101 198h59l118 -226l-198 -230h-59z" />
    <glyph glyph-name="arrowdown" unicode="&#x2193;" horiz-adv-x="636" 
d="M267 104l73 412h58l-73 -412l223 136l-10 -59l-254 -158l-203 158l10 59z" />
    <glyph glyph-name="uni2196" unicode="&#x2196;" horiz-adv-x="636" 
d="M268 410l239 -291l-47 -41l-240 292l-86 -237l-35 42l96 271l284 51l34 -41z" />
    <glyph glyph-name="uni2197" unicode="&#x2197;" horiz-adv-x="636" 
d="M468 390l-343 -291l-33 40l344 292l-230 44l49 42l263 -49l3 -274l-49 -42z" />
    <glyph glyph-name="uni2198" unicode="&#x2198;" horiz-adv-x="636" 
d="M388 161l-240 292l47 40l241 -292l86 237l34 -41l-96 -272l-284 -51l-34 42z" />
    <glyph glyph-name="uni2199" unicode="&#x2199;" horiz-adv-x="636" 
d="M195 231l343 292l34 -41l-343 -292l228 -44l-48 -42l-264 49l-2 275l49 41z" />
    <glyph glyph-name="uni2206" unicode="&#x2206;" horiz-adv-x="696" 
d="M-28 34l426 666h56l190 -666l-6 -34h-672zM581 49l-167 589l-374 -589h541z" />
    <glyph glyph-name="product" unicode="&#x220f;" horiz-adv-x="795" 
d="M239 652h-157l8 48h770l-8 -48h-154l-132 -744h-57l131 744h-344l-132 -744h-56z" />
    <glyph glyph-name="summation" unicode="&#x2211;" horiz-adv-x="575" 
d="M-7 46l311 310l-204 298l8 46h513l-10 -55h-433l193 -289l-297 -301h434l-9 -55h-514z" />
    <glyph glyph-name="minus" unicode="&#x2212;" horiz-adv-x="433" 
d="M65 345l167 -2l166 2l-9 -49l-165 2l-168 -2z" />
    <glyph glyph-name="uni2215" unicode="&#x2215;" horiz-adv-x="172" 
d="M328 693h58l-489 -693h-57z" />
    <glyph glyph-name="infinity" unicode="&#x221e;" horiz-adv-x="898" 
d="M94.5 206q-46.5 43 -46.5 115q0 47 25.5 97.5t77.5 84.5t126 34q76 0 118.5 -33.5t76.5 -110.5q38 47 71 77t76.5 48.5t99.5 18.5q71 0 116.5 -43t45.5 -118q0 -44 -26 -94t-77.5 -84.5t-124.5 -34.5q-53 0 -88.5 15.5t-60 46.5t-48.5 83q-58 -73 -111.5 -109t-133.5 -36
q-70 0 -116.5 43zM134 244.5q32 -34.5 88 -34.5q64 0 110.5 32t104.5 108q-20 48 -38.5 76.5t-49 46t-78.5 17.5q-55 0 -93 -25t-57 -61t-19 -69q0 -56 32 -90.5zM529.5 275q18.5 -29 49.5 -47t78 -18q55 0 93 25.5t57 62t19 69.5q0 56 -32 89.5t-88 33.5
q-65 0 -110.5 -32.5t-103.5 -107.5q19 -46 37.5 -75z" />
    <glyph glyph-name="approxequal" unicode="&#x2248;" horiz-adv-x="479" 
d="M102 429.5q27 32.5 78 32.5q25 0 48.5 -9t55.5 -26q25 -13 41.5 -20t30.5 -7q31 0 45 18.5t20 48.5h44q-8 -45 -35 -77.5t-78 -32.5q-23 0 -47.5 9t-58.5 26q-26 13 -42.5 19.5t-29.5 6.5q-31 0 -44 -18t-19 -48h-45q9 45 36 77.5zM73 264.5q27 32.5 78 32.5
q25 0 48.5 -9t55.5 -26q25 -13 41.5 -20t30.5 -7q31 0 45 18.5t20 48.5h44q-8 -45 -35.5 -77.5t-78.5 -32.5q-23 0 -47 9t-58 26q-50 26 -72 26q-31 0 -44 -17.5t-20 -48.5h-44q9 45 36 77.5z" />
    <glyph glyph-name="notequal" unicode="&#x2260;" horiz-adv-x="433" 
d="M79 422l166 -1h38l70 85l35 -27l-47 -57h71l-9 -48l-101 1l-89 -109h5l166 1l-8 -48l-166 1h-35l-75 -91l-35 27l52 63h-74l8 48l105 -1l89 109h-8l-167 -1z" />
    <glyph glyph-name="lessequal" unicode="&#x2264;" horiz-adv-x="544" 
d="M39 283l10 54l494 205l-10 -57l-428 -172l-1 -4l369 -165l-11 -62zM1 44l227 -2l227 2l-8 -49h-455z" />
    <glyph glyph-name="greaterequal" unicode="&#x2265;" horiz-adv-x="544" 
d="M30 147l427 165l1 3l-368 173l10 54l422 -205l-9 -54l-494 -201zM12 44l228 -2l226 2l-8 -49h-454z" />
    <glyph glyph-name="filledbox" unicode="&#x25a0;" horiz-adv-x="636" 
d="M552 459l-68 -388h-388l68 388h388z" />
    <glyph glyph-name="triagup" unicode="&#x25b2;" horiz-adv-x="636" 
d="M499 52h-426l288 426z" />
    <glyph glyph-name="uni25B3" unicode="&#x25b3;" horiz-adv-x="636" 
d="M506 92h-426l289 426zM447 133l-94 294l-200 -294h294z" />
    <glyph glyph-name="uni25B6" unicode="&#x25b6;" horiz-adv-x="636" 
d="M74 53l75 426l388 -213z" />
    <glyph glyph-name="uni25B7" unicode="&#x25b7;" horiz-adv-x="636" 
d="M79 83l75 426l389 -213zM452 296l-269 147l-52 -294z" />
    <glyph glyph-name="triagdn" unicode="&#x25bc;" horiz-adv-x="636" 
d="M286 52l-138 426h426z" />
    <glyph glyph-name="uni25BD" unicode="&#x25bd;" horiz-adv-x="636" 
d="M286 52l-138 426h426zM302 143l199 294h-294z" />
    <glyph glyph-name="uni25C0" unicode="&#x25c0;" horiz-adv-x="636" 
d="M574 478l-75 -426l-388 213z" />
    <glyph glyph-name="uni25C1" unicode="&#x25c1;" horiz-adv-x="636" 
d="M579 503l-75 -426l-389 213zM474 143l52 294l-320 -147z" />
    <glyph glyph-name="uni25C6" unicode="&#x25c6;" horiz-adv-x="636" 
d="M599 265l-322 -274l-227 274l323 275z" />
    <glyph glyph-name="lozenge" unicode="&#x25ca;" horiz-adv-x="636" 
d="M391 635l151 -305l-260 -308l-151 308zM297 109l188 221l-109 221l-189 -221z" />
    <glyph glyph-name="uniF8FF" unicode="&#xf8ff;" horiz-adv-x="1326" 
d="M42 462h486q4 56 44.5 94t96.5 38t96.5 -38t44.5 -94h486v-193h-1254v193zM78 118h-36v31h93l-41 -78h38v-31h-95zM41 247h50v-11h-38v-26h33v-11h-33v-29h-12v77zM94 392v-86h39v86h28v35h-96v-35h29zM101 247h12v-47q0 -9 5.5 -14.5t13.5 -5.5t14 6t6 14v47h12v-47
q0 -14 -9 -22.5t-23 -8.5q-13 0 -22 9t-9 22v47zM142 149h79v-30h-44v-9h38v-30h-38v-10h45v-30h-80v109zM207 306v35h8l15 -35h41l-21 46q14 12 14 32q0 18 -13.5 30.5t-32.5 12.5h-50v-121h39zM179 247h12v-66h35v-11h-47v77zM207 394h10q3 0 5.5 -3t2.5 -7t-2.5 -7.5
t-5.5 -3.5h-10v21zM226 149h87v-31h-26v-78h-35v78h-26v31zM237 247h12v-66h36v-11h-48v77zM315 306v121h-38v-121h38zM338 149h40l37 -109h-38l-4 17h-31l-5 -17h-36zM331 247l22 -57l22 57h14l-32 -77h-8l-32 77h14zM363 306l5 19h34l5 -19h42l-41 121h-45l-41 -121h41z
M365 86l-7 26h-1l-7 -26h15zM384 386h1l8 -29h-17zM399 247h50v-11h-38v-22h33v-10h-33v-23h38v-11h-50v77zM421 149h79v-30h-44v-16h37v-29h-37v-34h-35v109zM538 306v33h-43v88h-39v-121h82zM462 247h29q11 0 18 -7t7 -18q0 -14 -12 -21l15 -31h-14l-13 28h-18v-28h-12v77
zM491 208q5 0 9 4t4 10t-4 10t-9 4h-17v-28h17zM521 135.5q17 16.5 42 16.5t42 -16.5t17 -40.5q0 -25 -17 -41.5t-42 -16.5t-42 16.5t-17 41.5q0 24 17 40.5zM525 189q13 -9 26 -9q14 0 14 12q0 7 -17 12q-12 5 -17 9.5t-5 13.5q0 10 7 16t19 6q10 0 20 -5v-13q-9 7 -20 7
q-6 0 -10 -3t-4 -8t3.5 -7.5t12.5 -5.5q23 -9 23 -22q0 -11 -7.5 -17t-18.5 -6q-14 0 -26 7v13zM546 76.5q7 -7.5 17 -7.5t17 7.5t7 18.5t-7 18t-17 7t-17 -7t-7 -18t7 -18.5zM574 367l167 166h-171q-29 -35 -29 -81q0 -49 33 -85zM669 325q48 0 85 32h-170q37 -32 85 -32z
M754 547q-38 33 -85 33q-49 0 -85 -33h170zM589 247h12v-77h-12v77zM767 371q29 35 29 81q0 48 -32 85l-166 -166h169zM625.5 237.5q11.5 11.5 28.5 11.5t28.5 -11.5t11.5 -28.5t-11.5 -28.5t-28.5 -11.5t-28.5 11.5t-11.5 28.5t11.5 28.5zM634 188q8 -8 20 -8q11 0 19 8
t8 21q0 12 -8 20t-19 8q-12 0 -20 -8t-8 -20q0 -13 8 -21zM630 149h36l33 -58v58h35v-109h-36l-34 53l1 -53h-35v109zM706 248h6l49 -55v54h12v-79h-6l-49 54v-52h-12v78zM740 149h86v-31h-25v-78h-35v78h-26v31zM807 213h458l-13 11l8 7l25 -24l-25 -24l-8 7l13 11h-458v12
zM839.5 321q18.5 -18 46.5 -18t47 18t19 46q0 27 -19 45t-47 18t-46.5 -18t-18.5 -45q0 -28 18.5 -46zM841 143q12 9 33 9q14 0 32 -8v-34q-6 5 -15.5 8t-16.5 3q-11 0 -11 -4q0 -3 2.5 -4.5t5.5 -2t6 -1.5q36 -8 36 -35q0 -17 -12.5 -27t-31.5 -10q-22 0 -38 10v37
q25 -16 38 -16q9 0 9 6q0 4 -7 6t-10 3q-17 6 -24.5 13.5t-7.5 21.5q0 16 12 25zM867 387q8 8 19 8q12 0 19.5 -8t7.5 -20q0 -13 -7.5 -21t-19.5 -8q-11 0 -19 8t-8 21q0 12 8 20zM923 65.5q5 4.5 13 4.5q7 0 12 -4.5t5 -11.5t-5 -12t-12 -5q-8 0 -13 5t-5 12t5 11.5z
M976 135.5q17 16.5 42 16.5q13 0 23 -6v-33q-12 7 -22 7t-17.5 -7t-7.5 -18t7 -18.5t18 -7.5q15 0 25 10l-1 -35q-14 -7 -26 -7q-24 0 -41 16.5t-17 41.5q0 24 17 40.5zM999 306l-1 59l38 -59h40v121h-39v-64l-37 64h-40v-121h39zM1064.5 135.5q17.5 16.5 42.5 16.5
t42 -16.5t17 -40.5q0 -25 -17 -41.5t-42 -16.5q-26 0 -43 16.5t-17 41.5q0 24 17.5 40.5zM1089 76.5q7 -7.5 18 -7.5q10 0 17 7.5t7 18.5q0 10 -7 17.5t-17 7.5t-17.5 -7t-7.5 -18t7 -18.5zM1170 306v33h-43v88h-39v-121h82zM1192 354v-48h39v48l41 73h-45l-16 -36l-15 36
h-46zM1173 149h35l26 -50l26 50h35v-109h-34v43l-14 -27h-25l-14 27v-43h-35v109z" />
    <glyph glyph-name="dotlessi.ss01" horiz-adv-x="198" 
d="M72 262l44 261h58l-47 -261l-45 -262h-58z" />
    <glyph glyph-name="uni0237.ss01" horiz-adv-x="207" 
d="M-109 -161.5q-25 5.5 -43 14.5l20 43q32 -13 69 -13q41 0 63 24t34 86l22 127l69 403h58l-72 -403l-20 -114q-16 -91 -52 -132t-100 -41q-23 0 -48 5.5z" />
    <glyph glyph-name="i.ss01" horiz-adv-x="198" 
d="M72 262l44 261h58l-47 -261l-45 -262h-58zM146 689h58l-18 -101h-58z" />
    <glyph glyph-name="j.ss01" horiz-adv-x="207" 
d="M-109 -161.5q-25 5.5 -43 14.5l20 43q32 -13 69 -13q41 0 63 24t34 86l22 127l69 403h58l-72 -403l-20 -114q-16 -91 -52 -132t-100 -41q-23 0 -48 5.5zM155 689h58l-18 -101h-58z" />
    <glyph glyph-name="g.ss02" horiz-adv-x="534" 
d="M32 -144q-55 30 -55 84q0 36 22 71.5t60 63.5q-24 20 -24 50q0 29 22 61t53 54q-31 36 -31 89q0 15 3 31q9 51 41 91t80.5 62t105.5 22q53 0 92.5 -20t58.5 -56q21 46 51 69.5t59 23.5q7 0 19 -2l-4 -54q-10 3 -20 3q-31 0 -55.5 -34.5t-36.5 -104.5q-9 -50 -41 -90
t-80.5 -62t-104.5 -22q-65 0 -108 29q-46 -38 -46 -71q0 -43 68 -46l177 -8q63 -3 95.5 -26t32.5 -65q0 -7 -2 -21q-13 -72 -91 -112t-191 -40q-95 0 -150 30zM81 -104.5q41 -21.5 115 -21.5q87 0 143.5 26t65.5 75q1 4 1 12q0 50 -87 54l-163 8q-31 1 -57 8
q-59 -51 -59 -101q0 -39 41 -60.5zM170 262q32 -28 86 -28q61 0 105 35t54 91q2 16 2 24q0 46 -31.5 74t-85.5 28q-44 0 -81 -19.5t-59 -53.5t-22 -76q0 -47 32 -75z" />
    <glyph glyph-name="a.ss03" horiz-adv-x="533" 
d="M57.5 19.5q-39.5 34.5 -39.5 96.5q0 185 336 185h53l4 19q6 30 6 56q0 113 -119 113q-147 0 -174 -150l-50 13q17 89 76.5 137t150.5 48q83 0 126 -38.5t43 -116.5q0 -28 -6 -63l-40 -227q-2 -16 -2 -21q0 -35 31 -35q16 0 28 5l2 -40q-21 -11 -44 -11q-29 0 -46.5 17
t-17.5 51q0 12 3 27q4 22 9 36h-2q-33 -62 -90 -99t-128 -37q-70 0 -109.5 34.5zM182 35q48 0 92.5 23t76.5 68t44 109l4 22h-40q-141 0 -211.5 -30.5t-70.5 -103.5q0 -88 105 -88z" />
    <glyph glyph-name="Q.ss04" horiz-adv-x="710" 
d="M124.5 68q-74.5 83 -74.5 226q0 119 45 213t126 147.5t184 53.5q136 0 211 -83t75 -226q0 -120 -46.5 -215.5t-129.5 -147.5l53 -97l-52 -29l-54 99q-58 -24 -127 -24q-136 0 -210.5 83zM170.5 106.5q59.5 -67.5 165.5 -67.5q51 0 100 19l-70 128l51 30l71 -130
q66 46 103.5 128t37.5 186q0 120 -59 187t-165 67q-85 0 -152 -46.5t-104.5 -128.5t-37.5 -185q0 -120 59.5 -187.5z" />
    <glyph glyph-name="aacute.ss03" horiz-adv-x="533" 
d="M57.5 19.5q-39.5 34.5 -39.5 96.5q0 185 336 185h53l4 19q6 30 6 56q0 113 -119 113q-147 0 -174 -150l-50 13q17 89 76.5 137t150.5 48q83 0 126 -38.5t43 -116.5q0 -28 -6 -63l-40 -227q-2 -16 -2 -21q0 -35 31 -35q16 0 28 5l2 -40q-21 -11 -44 -11q-29 0 -46.5 17
t-17.5 51q0 12 3 27q4 22 9 36h-2q-33 -62 -90 -99t-128 -37q-70 0 -109.5 34.5zM182 35q48 0 92.5 23t76.5 68t44 109l4 22h-40q-141 0 -211.5 -30.5t-70.5 -103.5q0 -88 105 -88zM293 635l83 132h68l-112 -132h-39z" />
    <glyph glyph-name="abreve.ss03" horiz-adv-x="533" 
d="M57.5 19.5q-39.5 34.5 -39.5 96.5q0 185 336 185h53l4 19q6 30 6 56q0 113 -119 113q-147 0 -174 -150l-50 13q17 89 76.5 137t150.5 48q83 0 126 -38.5t43 -116.5q0 -28 -6 -63l-40 -227q-2 -16 -2 -21q0 -35 31 -35q16 0 28 5l2 -40q-21 -11 -44 -11q-29 0 -46.5 17
t-17.5 51q0 12 3 27q4 22 9 36h-2q-33 -62 -90 -99t-128 -37q-70 0 -109.5 34.5zM182 35q48 0 92.5 23t76.5 68t44 109l4 22h-40q-141 0 -211.5 -30.5t-70.5 -103.5q0 -88 105 -88zM260 648.5q-24 22.5 -24 67.5q0 9 4 37h40q-2 -18 -2 -26q0 -28 14 -41t46 -13
q39 0 59 18.5t29 61.5h40q-10 -63 -45 -95t-91 -32q-46 0 -70 22.5z" />
    <glyph glyph-name="acircumflex.ss03" horiz-adv-x="533" 
d="M57.5 19.5q-39.5 34.5 -39.5 96.5q0 185 336 185h53l4 19q6 30 6 56q0 113 -119 113q-147 0 -174 -150l-50 13q17 89 76.5 137t150.5 48q83 0 126 -38.5t43 -116.5q0 -28 -6 -63l-40 -227q-2 -16 -2 -21q0 -35 31 -35q16 0 28 5l2 -40q-21 -11 -44 -11q-29 0 -46.5 17
t-17.5 51q0 12 3 27q4 22 9 36h-2q-33 -62 -90 -99t-128 -37q-70 0 -109.5 34.5zM182 35q48 0 92.5 23t76.5 68t44 109l4 22h-40q-141 0 -211.5 -30.5t-70.5 -103.5q0 -88 105 -88zM326 757h56l75 -132h-44l-67 88l-98 -88h-44z" />
    <glyph glyph-name="adieresis.ss03" horiz-adv-x="533" 
d="M57.5 19.5q-39.5 34.5 -39.5 96.5q0 185 336 185h53l4 19q6 30 6 56q0 113 -119 113q-147 0 -174 -150l-50 13q17 89 76.5 137t150.5 48q83 0 126 -38.5t43 -116.5q0 -28 -6 -63l-40 -227q-2 -16 -2 -21q0 -35 31 -35q16 0 28 5l2 -40q-21 -11 -44 -11q-29 0 -46.5 17
t-17.5 51q0 12 3 27q4 22 9 36h-2q-33 -62 -90 -99t-128 -37q-70 0 -109.5 34.5zM182 35q48 0 92.5 23t76.5 68t44 109l4 22h-40q-141 0 -211.5 -30.5t-70.5 -103.5q0 -88 105 -88zM223.5 643q-8.5 8 -8.5 22q0 21 13.5 34.5t33.5 13.5q17 0 26 -11t6 -28
q-4 -18 -16.5 -28.5t-29.5 -10.5q-16 0 -24.5 8zM397.5 699.5q13.5 13.5 33.5 13.5q17 0 26 -11t6 -28q-4 -18 -16.5 -28.5t-29.5 -10.5q-16 0 -24.5 8t-8.5 22q0 21 13.5 34.5z" />
    <glyph glyph-name="agrave.ss03" horiz-adv-x="533" 
d="M57.5 19.5q-39.5 34.5 -39.5 96.5q0 185 336 185h53l4 19q6 30 6 56q0 113 -119 113q-147 0 -174 -150l-50 13q17 89 76.5 137t150.5 48q83 0 126 -38.5t43 -116.5q0 -28 -6 -63l-40 -227q-2 -16 -2 -21q0 -35 31 -35q16 0 28 5l2 -40q-21 -11 -44 -11q-29 0 -46.5 17
t-17.5 51q0 12 3 27q4 22 9 36h-2q-33 -62 -90 -99t-128 -37q-70 0 -109.5 34.5zM182 35q48 0 92.5 23t76.5 68t44 109l4 22h-40q-141 0 -211.5 -30.5t-70.5 -103.5q0 -88 105 -88zM247 767h67l37 -132h-39z" />
    <glyph glyph-name="amacron.ss03" horiz-adv-x="533" 
d="M57.5 19.5q-39.5 34.5 -39.5 96.5q0 185 336 185h53l4 19q6 30 6 56q0 113 -119 113q-147 0 -174 -150l-50 13q17 89 76.5 137t150.5 48q83 0 126 -38.5t43 -116.5q0 -28 -6 -63l-40 -227q-2 -16 -2 -21q0 -35 31 -35q16 0 28 5l2 -40q-21 -11 -44 -11q-29 0 -46.5 17
t-17.5 51q0 12 3 27q4 22 9 36h-2q-33 -62 -90 -99t-128 -37q-70 0 -109.5 34.5zM182 35q48 0 92.5 23t76.5 68t44 109l4 22h-40q-141 0 -211.5 -30.5t-70.5 -103.5q0 -88 105 -88zM214 685h254l-8 -44h-254z" />
    <glyph glyph-name="aogonek.ss03" horiz-adv-x="533" 
d="M57.5 19.5q-39.5 34.5 -39.5 96.5q0 185 336 185h53l4 19q6 30 6 56q0 113 -119 113q-147 0 -174 -150l-50 13q17 89 76.5 137t150.5 48q83 0 126 -38.5t43 -116.5q0 -28 -6 -63l-40 -227q-2 -16 -2 -21q0 -35 31 -35q16 0 28 5l2 -40l-3 -1q-40 -21 -68 -50t-28 -53
q0 -26 36 -26q19 0 37 5l3 -36q-28 -14 -63 -14q-30 0 -48 13t-18 38q0 59 91 115q-21 5 -34 21.5t-13 44.5q0 12 3 27q4 22 9 36h-2q-33 -62 -90 -99t-128 -37q-70 0 -109.5 34.5zM182 35q48 0 92.5 23t76.5 68t44 109l4 22h-40q-141 0 -211.5 -30.5t-70.5 -103.5
q0 -88 105 -88z" />
    <glyph glyph-name="aring.ss03" horiz-adv-x="533" 
d="M57.5 19.5q-39.5 34.5 -39.5 96.5q0 185 336 185h53l4 19q6 30 6 56q0 113 -119 113q-147 0 -174 -150l-50 13q17 89 76.5 137t150.5 48q83 0 126 -38.5t43 -116.5q0 -28 -6 -63l-40 -227q-2 -16 -2 -21q0 -35 31 -35q16 0 28 5l2 -40q-21 -11 -44 -11q-29 0 -46.5 17
t-17.5 51q0 12 3 27q4 22 9 36h-2q-33 -62 -90 -99t-128 -37q-70 0 -109.5 34.5zM182 35q48 0 92.5 23t76.5 68t44 109l4 22h-40q-141 0 -211.5 -30.5t-70.5 -103.5q0 -88 105 -88zM283.5 649q-17.5 15 -17.5 41q0 40 25.5 64t66.5 24q31 0 48 -15t17 -42q0 -10 -1 -15
q-6 -34 -30.5 -53t-59.5 -19q-31 0 -48.5 15zM310 672.5q10 -8.5 27 -8.5q22 0 37 14t15 37q0 16 -10 25t-27 9q-23 0 -37.5 -14.5t-14.5 -38.5q0 -15 10 -23.5z" />
    <glyph glyph-name="atilde.ss03" horiz-adv-x="533" 
d="M57.5 19.5q-39.5 34.5 -39.5 96.5q0 185 336 185h53l4 19q6 30 6 56q0 113 -119 113q-147 0 -174 -150l-50 13q17 89 76.5 137t150.5 48q83 0 126 -38.5t43 -116.5q0 -28 -6 -63l-40 -227q-2 -16 -2 -21q0 -35 31 -35q16 0 28 5l2 -40q-21 -11 -44 -11q-29 0 -46.5 17
t-17.5 51q0 12 3 27q4 22 9 36h-2q-33 -62 -90 -99t-128 -37q-70 0 -109.5 34.5zM182 35q48 0 92.5 23t76.5 68t44 109l4 22h-40q-141 0 -211.5 -30.5t-70.5 -103.5q0 -88 105 -88zM227.5 704q21.5 27 56.5 27q20 0 35 -7.5t36 -21.5q2 -2 11.5 -8t17 -9t14.5 -3
q18 0 27 12.5t14 36.5h44q-8 -41 -29 -68t-57 -27q-20 0 -36 7.5t-36 21.5q-27 20 -43 20q-18 0 -27 -12.5t-13 -36.5h-45q9 41 30.5 68z" />
    <glyph glyph-name="asuperior" horiz-adv-x="357" 
d="M87 383q-23 20 -23 52q0 5 2 17q9 56 57.5 79t142.5 23h27l2 11q3 17 3 31q0 28 -14 41.5t-45 13.5q-40 0 -63 -20.5t-29 -54.5l-47 12q11 51 51 80t99 29q105 0 105 -92q0 -16 -3 -36l-23 -128q-1 -5 -1 -13q0 -10 4 -14.5t12 -4.5q9 0 18 3l2 -38q-19 -8 -41 -8
q-44 0 -44 42q0 9 1 14l3 17h-1q-19 -35 -52.5 -55.5t-77.5 -20.5q-42 0 -65 20zM122 448q0 -19 13.5 -30t37.5 -11q39 0 71.5 27.5t40.5 75.5l2 10h-20q-70 0 -104 -14t-40 -48q-1 -3 -1 -10z" />
    <glyph glyph-name="bsuperior" horiz-adv-x="399" 
d="M192 381.5q-25 18.5 -33 45.5h-1l-9 -55h-59l32 178l41 238h59l-28 -155h1q17 27 48.5 45.5t69.5 18.5q50 0 77.5 -30t27.5 -86q0 -20 -5 -50q-14 -81 -56 -124.5t-103 -43.5q-37 0 -62 18.5zM173 495q0 -43 21 -63t51 -20q41 0 70 31.5t39 87.5q3 20 3 36q0 39 -18.5 60
t-52.5 21q-39 0 -69 -30t-41 -87q-3 -19 -3 -36z" />
    <glyph glyph-name="csuperior" horiz-adv-x="348" 
d="M110 396.5q-33 33.5 -33 92.5q0 22 4 41q13 77 61.5 122t116.5 45q57 0 87 -29.5t29 -80.5l-55 -14q0 37 -18 56.5t-51 19.5q-41 0 -71 -31.5t-40 -87.5q-3 -18 -3 -35q0 -40 19 -62t53 -22t58 19.5t38 57.5l50 -14q-17 -51 -57 -81t-96 -30q-59 0 -92 33.5z" />
    <glyph glyph-name="dsuperior" horiz-adv-x="399" 
d="M103.5 393.5q-27.5 30.5 -27.5 87.5q0 20 5 50q14 80 56 123t104 43q38 0 62 -19t32 -45h2l26 155h59l-43 -238l-30 -178h-59l10 55h-2q-18 -27 -49 -45.5t-67 -18.5q-51 0 -78.5 30.5zM137 495q0 -40 18.5 -61.5t52.5 -21.5q36 0 68 28t43 91q3 18 3 33q0 41 -20 62.5
t-53 21.5q-42 0 -70.5 -30.5t-38.5 -86.5q-3 -19 -3 -36z" />
    <glyph glyph-name="esuperior" horiz-adv-x="354" 
d="M110 396.5q-33 33.5 -33 92.5q0 22 4 41q14 77 61.5 122t115.5 45q59 0 86 -33.5t27 -90.5q0 -23 -5 -53h-229q-1 -8 -1 -22q0 -42 19.5 -65t55.5 -23q68 0 96 75l46 -14q-17 -48 -56 -78t-95 -30q-59 0 -92 33.5zM317 559q1 6 1 17q0 35 -17 56t-50 21q-36 0 -63.5 -24
t-41.5 -70h171z" />
    <glyph glyph-name="fsuperior" horiz-adv-x="242" 
d="M147 644l-59 -1l8 46h56q1 19 3 32q7 41 34.5 65.5t72.5 24.5q38 0 66 -15l-16 -44q-25 11 -47 11q-46 0 -53 -45q-2 -10 -2 -29h87l-8 -46l-86 1l-47 -272h-58z" />
    <glyph glyph-name="gsuperior" horiz-adv-x="399" 
d="M96 293.5q-30 25.5 -35 68.5l52 15q7 -64 76 -64q50 0 75.5 29t35.5 86l4 21h-2q-16 -26 -47 -43.5t-69 -17.5q-51 0 -79 29.5t-28 82.5q0 22 4 41q12 70 54.5 113t103.5 43q38 0 62 -18.5t32 -44.5h1l9 55h59l-43 -246q-30 -175 -177 -175q-58 0 -88 25.5zM139 513
q0 -36 19 -57.5t53 -21.5q37 0 68 25t41 82q3 14 3 26q0 36 -19.5 58.5t-54.5 22.5q-40 0 -69.5 -29.5t-37.5 -77.5q-3 -15 -3 -28z" />
    <glyph glyph-name="isuperior" horiz-adv-x="170" 
d="M104 531l27 158q16 -2 29 -2t29 2l-28 -158l-27 -159h-59zM146.5 781.5q11.5 10.5 31.5 10.5q32 0 32 -23q0 -40 -43 -40q-32 0 -32 23q0 19 11.5 29.5z" />
    <glyph glyph-name="ksuperior" horiz-adv-x="353" 
d="M128 584l35 204h58l-36 -204l-7 -39l157 144h69l-136 -123l97 -194h-65l-77 153l-57 -51l-18 -102h-58z" />
    <glyph glyph-name="msuperior" horiz-adv-x="586" 
d="M118 524l27 165h59l-11 -54h1q18 27 49 44.5t62 17.5q68 0 74 -71h1q22 32 54.5 51.5t64.5 19.5q77 0 77 -83q0 -20 -4 -40l-9 -50l-25 -152h-59l28 152l7 42q3 15 3 26q0 27 -13 40.5t-35 13.5q-31 0 -60 -28t-36 -68l-4 -26l-26 -152h-59l28 152l7 42q3 15 3 26
q0 27 -13 40.5t-35 13.5q-31 0 -60 -28t-36 -68l-4 -26l-26 -152h-58z" />
    <glyph glyph-name="osuperior" horiz-adv-x="371" 
d="M111.5 397q-33.5 34 -33.5 93q0 22 4 41q13 76 62.5 121t118.5 45q59 0 92 -33.5t33 -91.5q0 -22 -4 -41q-13 -77 -62 -122.5t-118 -45.5q-59 0 -92.5 34zM138 496q0 -40 19 -62t55 -22q43 0 73 32t40 87q3 18 3 34q0 39 -19 61t-55 22q-43 0 -73 -31t-40 -86
q-3 -18 -3 -35z" />
    <glyph glyph-name="psuperior" horiz-adv-x="399" 
d="M115 511l30 178h59l-9 -55h1q17 27 48 45t69 18q50 0 77.5 -30t27.5 -87q0 -20 -5 -50q-14 -80 -56 -123.5t-103 -43.5q-37 0 -62 18.5t-33 45.5h-1l-26 -151h-59zM173 495q0 -42 20.5 -62.5t51.5 -20.5q42 0 70.5 31t38.5 87q3 20 3 36q0 40 -18.5 61t-52.5 21
q-37 0 -68.5 -29.5t-41.5 -88.5q-3 -19 -3 -35z" />
    <glyph glyph-name="qsuperior" horiz-adv-x="399" 
d="M273 276l27 151h-1q-17 -27 -48.5 -45.5t-68.5 -18.5q-51 0 -78.5 30.5t-27.5 86.5q0 20 5 50q14 80 56.5 123.5t103.5 43.5q38 0 62 -18.5t32 -44.5h1l9 55h59l-32 -178l-40 -235h-59zM137 494q0 -39 18.5 -60.5t52.5 -21.5q38 0 69 29t42 89q3 18 3 34q0 42 -21 63
t-52 21q-41 0 -70 -31t-39 -87q-3 -19 -3 -36z" />
    <glyph glyph-name="rsuperior" horiz-adv-x="262" 
d="M118 524l27 165h59l-11 -58h1q15 28 44 47t65 19l20 -2l-11 -57q-15 3 -25 3q-42 0 -72 -29t-39 -79l-3 -18l-25 -143h-58z" />
    <glyph glyph-name="tsuperior" horiz-adv-x="254" 
d="M123 381.5q-18 18.5 -18 54.5q0 20 5 50l29 158l-50 -1l8 46h49l14 74l60 16l-16 -90h97l-8 -46l-97 1l-29 -164q-2 -10 -2 -26q0 -22 9.5 -32.5t29.5 -10.5q22 0 50 8l4 -41q-38 -15 -73 -15q-44 0 -62 18.5z" />
    <glyph glyph-name="usuperior" horiz-adv-x="412" 
d="M389 537l-28 -165h-59l11 54h-1q-19 -28 -49.5 -45t-66.5 -17q-90 0 -90 88q0 22 4 43l8 42l25 152h59l-27 -152l-6 -34q-3 -16 -3 -29q0 -59 59 -59q36 0 66 27t37 69l4 26l25 152h60z" />
    <glyph glyph-name="vsuperior" horiz-adv-x="336" 
d="M223 372h-72l-60 317h61l46 -259h1l137 259h59z" />
    <glyph glyph-name="zsuperior" horiz-adv-x="318" 
d="M58 416l221 224h-177l8 49h248l-7 -45l-220 -224h185l-9 -48h-257z" />
    <glyph glyph-name="periodcentered.case" horiz-adv-x="198" 
d="M79.5 314q-10.5 9 -10.5 27q0 24 14.5 38.5t38.5 14.5q19 0 29 -9.5t10 -26.5q0 -19 -13 -36t-39 -17q-19 0 -29.5 9z" />
    <glyph glyph-name="bullet.case" horiz-adv-x="281" 
d="M103.5 310.5q-16.5 14.5 -16.5 43.5q0 38 23 61t62 23q30 0 46 -14.5t16 -42.5q0 -31 -20.5 -58t-62.5 -27q-31 0 -47.5 14.5z" />
    <glyph glyph-name="slash.case" horiz-adv-x="405" 
d="M412 725h62l-456 -780h-62z" />
    <glyph glyph-name="backslash.case" horiz-adv-x="405" 
d="M387 -55l-456 780h62l456 -780h-62z" />
    <glyph glyph-name="period.ss01" horiz-adv-x="190" 
d="M39 104h57l-18 -104h-57z" />
    <glyph glyph-name="comma.ss01" horiz-adv-x="147" 
d="M22 10h-18l17 94h59l-15 -81q-7 -45 -32 -77.5t-75 -55.5l-9 28q63 26 73 92z" />
    <glyph glyph-name="colon.ss01" horiz-adv-x="191" 
d="M40 104h57l-18 -104h-57zM114 524h57l-18 -104h-57z" />
    <glyph glyph-name="semicolon.ss01" horiz-adv-x="148" 
d="M98 524h57l-18 -104h-57zM22 10h-18l17 94h59l-15 -81q-7 -45 -32 -77.5t-75 -55.5l-9 28q63 26 73 92z" />
    <glyph glyph-name="ellipsis.ss01" horiz-adv-x="570" 
d="M39 104h57l-18 -104h-57zM229 104h57l-18 -104h-57zM419 104h57l-18 -104h-57z" />
    <glyph glyph-name="exclam.ss01" horiz-adv-x="210" 
d="M108 442l44 251h58l-44 -251l-52 -258h-44zM51 104h54l-19 -104h-54z" />
    <glyph glyph-name="exclamdown.ss01" horiz-adv-x="210" 
d="M102 81l-44 -251h-58l44 251l52 258h44zM124 523h54l-19 -104h-54z" />
    <glyph glyph-name="question.ss01" horiz-adv-x="490" 
d="M381.5 433q55.5 54 55.5 120q0 49 -29.5 77t-87.5 28q-69 0 -114.5 -39t-69.5 -109l-53 15q27 81 87.5 132t157.5 51q49 0 87.5 -20t60 -56t21.5 -81q0 -44 -25 -90t-81 -85t-143 -60l-26 -124h-45l23 157q126 30 181.5 84zM158 104h54l-17 -104h-54z" />
    <glyph glyph-name="questiondown.ss01" horiz-adv-x="490" 
d="M108.5 99q-55.5 -53 -55.5 -118q0 -48 29.5 -75.5t87.5 -27.5q68 0 114 38t70 107l53 -14q-27 -80 -87.5 -130t-157.5 -50q-49 0 -87.5 20t-60 55t-21.5 79q0 43 25 88t81 83.5t143 58.5l26 122h45l-23 -154q-126 -29 -181.5 -82zM295 523h54l-17 -102h-54z" />
    <glyph glyph-name="periodcentered.ss01" horiz-adv-x="165" 
d="M65 319h57l-18 -104h-57z" />
    <glyph glyph-name="period.tf" horiz-adv-x="669" 
d="M258.5 -6q-10.5 9 -10.5 27q0 24 14.5 38.5t38.5 14.5q19 0 29 -9.5t10 -26.5q0 -19 -13 -36t-39 -17q-19 0 -29.5 9z" />
    <glyph glyph-name="comma.tf" horiz-adv-x="669" 
d="M274.5 -52q19.5 19 19.5 41q-34 5 -34 36q0 23 14 37t36 14q17 0 28.5 -10.5t11.5 -29.5q0 -25 -11 -55.5t-39.5 -56.5t-77.5 -31l-3 27q36 9 55.5 28z" />
    <glyph glyph-name="colon.tf" horiz-adv-x="669" 
d="M258.5 -6q-10.5 9 -10.5 27q0 24 14.5 38.5t38.5 14.5q19 0 29 -9.5t10 -26.5q0 -19 -13 -36t-39 -17q-19 0 -29.5 9zM341.5 459q-10.5 9 -10.5 27q0 24 14.5 38.5t38.5 14.5q19 0 29 -9.5t10 -26.5q0 -19 -13 -36t-39 -17q-19 0 -29.5 9z" />
    <glyph glyph-name="semicolon.tf" horiz-adv-x="669" 
d="M274.5 -52q19.5 19 19.5 41q-34 5 -34 36q0 23 14 37t36 14q17 0 28.5 -10.5t11.5 -29.5q0 -25 -11 -55.5t-39.5 -56.5t-77.5 -31l-3 27q36 9 55.5 28zM348.5 458q-10.5 9 -10.5 27q0 24 14.5 38.5t38.5 14.5q19 0 29 -9.5t10 -26.5q0 -19 -13 -36t-39 -17q-19 0 -29.5 9
z" />
    <glyph glyph-name="periodcentered.case.ss01" horiz-adv-x="165" 
d="M84 424h57l-18 -104h-57z" />
    <glyph glyph-name="bullet.case.ss01" horiz-adv-x="281" 
d="M103.5 310.5q-16.5 14.5 -16.5 43.5q0 38 23 61t62 23q30 0 46 -14.5t16 -42.5q0 -31 -20.5 -58t-62.5 -27q-31 0 -47.5 14.5z" />
    <glyph glyph-name="period.tf.ss01" horiz-adv-x="669" 
d="M275 104h57l-18 -104h-57z" />
    <glyph glyph-name="comma.tf.ss01" horiz-adv-x="669" 
d="M273 10h-18l17 94h59l-15 -81q-7 -45 -32 -77.5t-75 -55.5l-9 28q63 26 73 92z" />
    </font>
</defs>
</svg>
